<svg width="106" height="192" viewBox="0 0 106 192" fill="none" xmlns="http://www.w3.org/2000/svg">
<path d="M12.1455 22.871L23.3289 15.9496L20.2675 12.219L23.7368 10.0718L32.0945 21.3533L28.6252 23.5004L25.9005 19.4208L17.9823 24.3214L16.0987 25.7966L14.7171 26.3422L12.1455 22.871Z" fill="white"/>
<path d="M20.1727 33.8948L31.6916 27.5973L33.5557 26.0329L35.082 25.7437L39.2875 32.17C39.927 33.1473 40.3395 34.1125 40.5247 35.0655C40.7328 36.0242 40.6067 36.9384 40.1465 37.8081C39.7091 38.6835 38.8306 39.4819 37.5109 40.2034C36.3176 40.8558 35.2131 41.1778 34.1975 41.1696C33.1958 41.1537 32.2716 40.8773 31.4247 40.3406L31.3245 40.668L30.0143 44.0837L29.6894 45.8156L28.4259 46.5063L25.469 41.9879L28.1145 36.7242L27.0237 35.0574L25.9287 35.656L23.9543 37.0081L22.5383 37.5096L20.1727 33.8948ZM30.3299 33.2498L31.6178 35.2179C32.0734 35.9141 32.5703 36.3967 33.1087 36.6659C33.6611 36.9275 34.3093 36.8548 35.0533 36.448C35.5728 36.1641 35.8931 35.8526 36.0144 35.5136C36.1497 35.1669 36.1412 34.7899 35.9889 34.3823C35.8454 33.9882 35.6203 33.5568 35.3136 33.0883L33.9468 30.9997L30.3299 33.2498Z" fill="white"/>
<path d="M28.932 47.3425L33.1636 46.5942L35.914 45.2804L37.4452 46.5118L47.2449 45.2788L50.3304 50.6749L42.5466 58.6638L40.3888 61.7371L37.855 62.9475L35.7464 59.2598L38.6157 56.5628L35.1489 50.5L31.1717 51.2594L28.932 47.3425ZM39.2702 50.282L41.2954 53.8238L45.3492 49.8714L45.0991 49.4338L39.2702 50.282Z" fill="white"/>
<path d="M38.4296 64.1801L50.583 59.2164L52.594 57.8778L54.138 57.7645L55.835 61.2359L51.9209 68.0595L50.5827 69.8476L50.6881 70.0633L58.5756 66.8419L60.5678 70.917L59.2347 71.4614L56.9075 72.1533L44.754 77.1169L43.0991 73.7318L48.2743 65.1257L48.1689 64.9101L46.8358 65.4546L40.4534 68.3199L38.4296 64.1801Z" fill="white"/>
<path d="M48.8787 87.395C48.5435 86.5814 48.3022 85.7861 48.1548 85.0091C48.0226 84.2269 47.9602 83.5305 47.9677 82.9198C47.9752 82.3092 48.0255 81.8442 48.1186 81.525L52.1807 80.1269C52.0648 80.9776 52.0477 82.0054 52.1296 83.2103C52.2266 84.41 52.5463 85.6682 53.0887 86.9848C53.3081 87.5174 53.5377 87.886 53.7775 88.0906C54.0385 88.3048 54.3506 88.3494 54.7136 88.2244C55.107 88.089 55.3104 87.6812 55.3238 87.0009C55.3584 86.3303 55.3133 85.2985 55.1886 83.9057C55.104 82.8199 55.1076 81.8643 55.1994 81.0388C55.3124 80.2229 55.5801 79.5311 56.0027 78.9634C56.4464 78.4053 57.1222 77.97 58.0299 77.6576C58.9679 77.3347 59.9126 77.2798 60.8641 77.4928C61.8156 77.7059 62.7179 78.2399 63.5711 79.0948C64.4243 79.9498 65.174 81.1613 65.82 82.7294C66.0151 83.2028 66.1996 83.7136 66.3736 84.2618C66.5689 84.8196 66.7033 85.2716 66.7769 85.6179L65.9264 88.7737L62.8013 88.8612L62.1096 83.0944C61.8597 82.4879 61.5452 82.0809 61.1661 81.8736C60.7931 81.681 60.4251 81.6472 60.062 81.7722C59.6232 81.9232 59.3758 82.2871 59.3198 82.8638C59.2637 83.4405 59.296 84.2317 59.4167 85.2374C59.6056 86.8278 59.6149 88.1084 59.4448 89.079C59.2747 90.0497 58.9389 90.8072 58.4376 91.3513C57.9514 91.8903 57.315 92.2952 56.5283 92.5659C55.0759 93.0658 53.6687 92.8999 52.3068 92.068C50.96 91.2309 49.8173 89.6732 48.8787 87.395Z" fill="white"/>
<path d="M53.2249 97.7223L65.8444 94.1038L68.0186 92.9816L69.5587 93.0387L72.0519 100.303C72.4311 101.407 72.5945 102.449 72.542 103.429C72.5101 104.418 72.1672 105.29 71.5133 106.042C70.8799 106.806 69.8404 107.395 68.3946 107.809C66.9489 108.224 65.707 108.273 64.6689 107.955C63.6462 107.633 62.7865 107.024 62.0899 106.126C61.3986 105.244 60.8347 104.167 60.3984 102.896L59.5413 100.399L58.3417 100.743L56.1126 101.632L54.6274 101.808L53.2249 97.7223ZM63.1634 99.3607L63.9269 101.585C64.197 102.372 64.5587 102.958 65.012 103.344C65.4806 103.725 66.1225 103.798 66.9376 103.564C67.5067 103.401 67.8907 103.167 68.0896 102.86C68.3039 102.549 68.3871 102.176 68.3391 101.741C68.2964 101.321 68.1841 100.847 68.0023 100.317L67.192 97.9561L63.1634 99.3607Z" fill="white"/>
<path d="M60.3871 121.257C60.1195 120.269 59.9752 119.277 59.9542 118.282C59.9529 117.299 60.162 116.358 60.5813 115.46C61.0048 114.578 61.7099 113.787 62.6966 113.089C63.6875 112.406 65.0491 111.868 66.7813 111.476C68.5136 111.084 69.9922 110.979 71.2173 111.161C72.4466 111.358 73.4737 111.757 74.2987 112.357C75.1278 112.973 75.7849 113.717 76.2699 114.591C76.7747 115.477 77.1609 116.414 77.4285 117.402C77.6962 118.39 77.8306 119.376 77.8318 120.359C77.8372 121.358 77.6282 122.298 77.2047 123.181C76.7854 124.079 76.0803 124.869 75.0893 125.552C74.1026 126.251 72.7509 126.794 71.0343 127.183C69.3177 127.571 67.8447 127.667 66.6155 127.469C65.3904 127.288 64.3632 126.889 63.5341 126.273C62.7091 125.673 62.0443 124.93 61.5395 124.045C61.0389 123.175 60.6548 122.245 60.3871 121.257ZM64.3666 120.357C64.676 121.5 65.2535 122.287 66.0991 122.718C66.9447 123.15 68.1945 123.179 69.8488 122.804C71.503 122.43 72.5939 121.872 73.1217 121.13C73.6494 120.388 73.7585 119.445 73.4491 118.302C73.1438 117.175 72.5606 116.397 71.6994 115.969C70.8383 115.541 69.5962 115.511 67.9732 115.878C66.3502 116.245 65.267 116.801 64.7237 117.547C64.1803 118.293 64.0613 119.229 64.3666 120.357Z" fill="white"/>
<path d="M63.6798 133.425L76.6275 131.257L78.9238 130.386L80.4384 130.618L81.9481 138.149C82.1777 139.294 82.2023 140.352 82.0218 141.322C81.8602 142.306 81.4068 143.136 80.6616 143.812C79.9353 144.501 78.8306 144.97 77.3472 145.219C76.0059 145.443 74.8683 145.382 73.9345 145.036C73.0164 144.687 72.2657 144.116 71.6824 143.322L71.4692 143.601L69.0012 146.422L68.063 147.965L66.6427 148.203L65.5812 142.909L69.9624 138.77L69.5708 136.817L68.34 137.023L66.0201 137.655L64.5291 137.661L63.6798 133.425ZM73.2871 136.194L73.7494 138.5C73.913 139.316 74.1934 139.942 74.5908 140.378C75.0039 140.812 75.6286 140.958 76.4649 140.818C77.0488 140.72 77.4592 140.53 77.696 140.247C77.9487 139.962 78.0799 139.599 78.0896 139.16C78.1025 138.736 78.054 138.249 77.9439 137.7L77.4532 135.253L73.2871 136.194Z" fill="white"/>
<path d="M67.3336 153.817L80.3996 152.315L79.507 147.587L83.5603 147.121L85.4739 161.03L81.4205 161.496L80.9884 156.595L71.7373 157.658L69.389 158.194L67.9224 158.097L67.3336 153.817Z" fill="white"/>
<path d="M68.9234 166.902L70.3236 166.331L72.7555 166.655L85.8804 165.811L86.7922 177.656L86.1658 178.899L82.6911 177.535L82.7648 175.366L82.3799 170.365L79.7453 170.534L80.2408 176.971L76.5285 177.21L76.3111 174.387L76.2725 170.758L73.0871 170.963L73.6378 178.118L71.5578 181.113L69.9163 179.8L68.9234 166.902Z" fill="white"/>
</svg>
