<svg width="197" height="138" viewBox="0 0 197 138" fill="none" xmlns="http://www.w3.org/2000/svg">
<path d="M163.22 132.24C162.393 132.24 161.647 132.093 160.98 131.8C160.313 131.493 159.787 131.08 159.4 130.56C159.027 130.027 158.84 129.42 158.84 128.74C158.84 127.42 159.573 126.367 161.04 125.58V125.5C159.893 124.66 159.32 123.667 159.32 122.52C159.32 121.467 159.693 120.627 160.44 120C161.187 119.36 162.147 119.04 163.32 119.04C164.467 119.04 165.387 119.36 166.08 120C166.787 120.627 167.14 121.467 167.14 122.52C167.14 123.093 166.98 123.627 166.66 124.12C166.34 124.613 165.94 125.02 165.46 125.34V125.42C166.14 125.793 166.673 126.247 167.06 126.78C167.46 127.3 167.66 127.953 167.66 128.74C167.66 129.393 167.473 129.987 167.1 130.52C166.727 131.053 166.2 131.473 165.52 131.78C164.853 132.087 164.087 132.24 163.22 132.24ZM164.04 124.68C164.613 124.04 164.9 123.38 164.9 122.7C164.9 122.167 164.753 121.747 164.46 121.44C164.167 121.12 163.767 120.96 163.26 120.96C162.82 120.96 162.453 121.1 162.16 121.38C161.88 121.647 161.74 122.027 161.74 122.52C161.74 123.027 161.927 123.44 162.3 123.76C162.687 124.067 163.267 124.373 164.04 124.68ZM163.28 130.32C163.827 130.32 164.267 130.173 164.6 129.88C164.933 129.587 165.1 129.173 165.1 128.64C165.1 128.267 164.987 127.947 164.76 127.68C164.533 127.413 164.24 127.193 163.88 127.02C163.533 126.833 163.007 126.593 162.3 126.3C161.967 126.58 161.7 126.907 161.5 127.28C161.3 127.653 161.2 128.04 161.2 128.44C161.2 129 161.4 129.453 161.8 129.8C162.2 130.147 162.693 130.32 163.28 130.32ZM173.669 132.24C171.895 132.24 170.415 131.647 169.229 130.46L170.469 128.72C171.389 129.587 172.329 130.02 173.289 130.02C173.969 130.02 174.509 129.833 174.909 129.46C175.322 129.087 175.529 128.56 175.529 127.88C175.529 127.227 175.335 126.713 174.949 126.34C174.562 125.967 174.055 125.78 173.429 125.78C173.055 125.78 172.735 125.827 172.469 125.92C172.215 126.013 171.889 126.193 171.489 126.46L170.249 125.66L170.609 119.28H177.689V121.58H172.969L172.749 124.2C173.269 123.973 173.769 123.86 174.249 123.86C175.409 123.86 176.369 124.2 177.129 124.88C177.889 125.547 178.269 126.527 178.269 127.82C178.269 128.727 178.055 129.513 177.629 130.18C177.215 130.847 176.655 131.36 175.949 131.72C175.255 132.067 174.495 132.24 173.669 132.24ZM183.298 126.68C182.338 126.68 181.558 126.313 180.958 125.58C180.371 124.833 180.078 123.813 180.078 122.52C180.078 121.24 180.371 120.233 180.958 119.5C181.558 118.767 182.338 118.4 183.298 118.4C184.244 118.4 185.011 118.767 185.598 119.5C186.198 120.233 186.498 121.24 186.498 122.52C186.498 123.8 186.198 124.813 185.598 125.56C185.011 126.307 184.244 126.68 183.298 126.68ZM190.718 118.7H192.318L185.238 132.24H183.638L190.718 118.7ZM183.298 125.14C183.684 125.14 183.991 124.933 184.218 124.52C184.458 124.093 184.578 123.427 184.578 122.52C184.578 121.627 184.458 120.973 184.218 120.56C183.991 120.147 183.684 119.94 183.298 119.94C182.911 119.94 182.598 120.147 182.358 120.56C182.118 120.973 181.998 121.627 181.998 122.52C181.998 123.413 182.118 124.073 182.358 124.5C182.598 124.927 182.911 125.14 183.298 125.14ZM192.678 132.24C191.731 132.24 190.958 131.867 190.358 131.12C189.771 130.373 189.478 129.36 189.478 128.08C189.478 126.8 189.771 125.793 190.358 125.06C190.958 124.327 191.731 123.96 192.678 123.96C193.638 123.96 194.411 124.327 194.998 125.06C195.598 125.793 195.898 126.8 195.898 128.08C195.898 129.373 195.598 130.393 194.998 131.14C194.411 131.873 193.638 132.24 192.678 132.24ZM192.678 130.7C193.064 130.7 193.378 130.487 193.618 130.06C193.858 129.633 193.978 128.973 193.978 128.08C193.978 127.187 193.858 126.533 193.618 126.12C193.378 125.707 193.064 125.5 192.678 125.5C192.291 125.5 191.978 125.707 191.738 126.12C191.511 126.533 191.398 127.187 191.398 128.08C191.398 128.973 191.511 129.633 191.738 130.06C191.978 130.487 192.291 130.7 192.678 130.7Z" fill="#595959"/>
<path d="M192 30L0 108H192V30Z" fill="#1579A3"/>
<circle cx="172" cy="14" r="14" fill="#04BC00"/>
<line x1="170" y1="112" x2="170" y2="28" stroke="#F3F3F3" stroke-width="4"/>
</svg>
