<svg width="127" height="120" viewBox="0 0 127 120" fill="none" xmlns="http://www.w3.org/2000/svg">
<path d="M117.127 82.4732C119.969 75.532 121.538 67.9475 121.538 60.0005C121.538 26.8631 94.3299 0 60.7674 0C42.4778 0 26.077 7.97859 14.9362 20.6012L9.89453 82.4732H117.127Z" fill="#6AD394"/>
<path d="M9.89752 82.4727L9.14844 91.6662C19.875 108.676 38.9816 120 60.7704 120C86.2837 120 108.121 104.475 117.13 82.4727H9.89752Z" fill="#74727F"/>
<path d="M55.9432 82.4727H9.89752L9.14844 91.6662C18.9538 107.215 35.7618 118.011 55.2192 119.751C36.9693 114.502 37.6658 87.128 55.9432 82.4727Z" fill="#5F5E6A"/>
<path d="M9.36941 92.015H18.1144C20.4688 92.015 22.3775 90.1305 22.3775 87.8059V84.6436H5.34766C6.51618 87.2018 7.86354 89.663 9.36941 92.015V92.015Z" fill="#74727F"/>
<path d="M13.8627 87.8059V84.6436H5.34766C6.51618 87.2018 7.86354 89.6628 9.3694 92.015H18.1144C18.1163 92.015 18.1181 92.0148 18.1201 92.0148C15.7681 92.0118 13.8627 90.1288 13.8627 87.8059V87.8059Z" fill="#4B4A55"/>
<path d="M0 60.0007C0 68.9077 1.96821 77.36 5.49487 84.9607H48.3421V27.3164H9.8036C3.60454 36.7203 0 47.9443 0 60.0007H0Z" fill="#FBB031"/>
<path d="M9.80361 27.3164C3.60454 36.7203 0 47.9443 0 60.0007C0 68.9077 1.96821 77.36 5.49487 84.9607H21.3093V28.2505C21.3093 27.9247 21.3271 27.6167 21.3532 27.3167H9.80361V27.3164Z" fill="#F7991E"/>
<path d="M39.725 34.7412H5.77927L3.43429 40.0888C2.35357 43.1229 1.51618 46.2699 0.9375 49.5048V51.8369H39.725C40.7646 51.8369 41.6072 51.005 41.6072 49.9786V36.5993C41.6072 35.5731 40.7646 34.7412 39.725 34.7412Z" fill="#363540"/>
<path d="M39.4633 60.9639H0.0117188C0.037267 62.567 0.12557 64.1549 0.276131 65.7252H39.4633C40.795 65.7252 41.8745 64.6594 41.8745 63.3445C41.8747 62.0297 40.795 60.9639 39.4633 60.9639Z" fill="#FFC743"/>
<path d="M39.4609 70.1982H0.875C1.15405 71.8077 1.49486 73.3966 1.90115 74.9596H39.4609C40.7926 74.9596 41.8721 73.8935 41.8721 72.5789C41.8723 71.2643 40.7926 70.1982 39.4609 70.1982Z" fill="#FFC743"/>
<path d="M18.6974 63.3445C18.6974 62.0297 19.7772 60.9639 21.1086 60.9639H0.0117188C0.037267 62.567 0.12557 64.1549 0.276131 65.7252H21.1086C19.7772 65.7252 18.6974 64.6594 18.6974 63.3445Z" fill="#FBB031"/>
<path d="M18.6951 72.5789C18.6951 71.264 19.7748 70.1982 21.1063 70.1982H0.875C1.1543 71.8077 1.49486 73.3966 1.90115 74.9596H21.1063C19.7748 74.9596 18.6951 73.8938 18.6951 72.5789V72.5789Z" fill="#FBB031"/>
<path d="M83.7722 27.9598L86.5423 47.2133C86.7256 48.4865 87.8227 49.4394 89.1252 49.4519C91.0579 49.4703 93.5217 49.5132 95.2436 49.5754C92.9205 40.0211 87.4702 26.3623 87.4702 26.3623H85.1766C84.3136 26.3625 83.6509 27.1166 83.7722 27.9598V27.9598Z" fill="#363540"/>
<path d="M87.47 26.3623H85.1764C84.3137 26.3623 83.6507 27.1164 83.7722 27.9595L86.2417 45.1236C87.6888 44.8202 89.1064 44.1531 89.2941 42.7133C89.6927 39.6577 92.4172 39.9768 92.4172 39.9768C90.0507 32.8296 87.47 26.3623 87.47 26.3623Z" fill="#21212B"/>
<path d="M122.77 74.277C120.887 74.277 119.346 72.7562 119.346 70.8971V65.3391C119.346 63.4801 120.887 61.9593 122.77 61.9593H122.89V59.9472C122.89 56.3902 120.493 53.2719 117.025 52.3082C112.248 50.9806 103.904 49.5864 89.7706 49.4512C88.4681 49.4387 87.371 48.4856 87.1877 47.2126L84.4176 27.9591C84.4164 27.9505 84.4164 27.9422 84.4154 27.9336H48.0234V88.9117C48.0234 90.8011 49.5747 92.3327 51.4883 92.3327H82.3229V86.1857C82.3229 74.999 91.5079 65.9303 102.838 65.9303C110.217 65.9303 116.681 69.7789 120.296 75.5514H120.779L122.89 74.8927V74.277H122.77Z" fill="#FFC743"/>
<path d="M89.793 91.2578C89.9211 91.6227 90.0626 91.9813 90.219 92.3322H90.341C90.1432 91.9832 89.9615 91.6239 89.793 91.2578Z" fill="#FFC743"/>
<path d="M74.4316 34.7412H55.4173C54.2678 34.7412 53.3359 35.6613 53.3359 36.7962V92.3326H76.5127V36.7962C76.5127 35.6613 75.5811 34.7412 74.4316 34.7412Z" fill="#F7991E"/>
<path d="M62.0298 87.995C62.0298 87.995 62.0298 43.1966 62.0298 38.9562C62.0298 34.7157 64.9244 34.7412 64.9244 34.7412H55.4173C54.2678 34.7412 53.3359 35.6613 53.3359 36.7962V92.3326H64.9244C61.6012 92.3326 62.0298 87.995 62.0298 87.995V87.995Z" fill="#ED8718"/>
<path d="M72.0311 58.4084V40.0238C72.0311 39.4329 71.5459 38.9541 70.9476 38.9541H58.9545C58.356 38.9541 57.8711 39.4331 57.8711 40.0238V58.4084C57.8711 58.9994 58.3563 59.4782 58.9545 59.4782H70.9476C71.5459 59.4782 72.0311 58.9994 72.0311 58.4084Z" fill="#363540"/>
<path d="M64.9512 58.4084V40.0238C64.9512 39.4331 65.4364 38.9541 66.0346 38.9541H58.9545C58.356 38.9541 57.8711 39.4331 57.8711 40.0238V58.4084C57.8711 58.9994 58.3563 59.4782 58.9545 59.4782H66.0346C65.4364 59.4782 64.9512 58.9994 64.9512 58.4084Z" fill="#21212B"/>
<path d="M92.146 60.569H89.8214C88.4896 60.569 87.4102 59.5032 87.4102 58.1883C87.4102 56.8734 88.4896 55.8076 89.8214 55.8076H92.146C93.4778 55.8076 94.5572 56.8734 94.5572 58.1883C94.5572 59.5032 93.4775 60.569 92.146 60.569Z" fill="#EB5793"/>
<path d="M88.5186 42.6074H85.8452C84.2568 42.6074 82.957 43.839 82.957 45.3444V49.6635C82.957 51.1689 84.2565 52.4005 85.8452 52.4005H88.5186C90.1071 52.4005 91.4066 51.1689 91.4066 49.6635V45.3444C91.4068 43.839 90.1071 42.6074 88.5186 42.6074V42.6074Z" fill="#EEEFEB"/>
<path d="M87.1819 49.6635V45.3444C87.1819 44.094 88.0798 43.0348 89.2942 42.7113C89.0469 42.6454 88.7875 42.6074 88.5186 42.6074H85.845C84.2565 42.6074 82.957 43.839 82.957 45.3444V49.6635C82.957 51.1689 84.2565 52.4005 85.845 52.4005H88.5186C88.7875 52.4005 89.0469 52.3625 89.2942 52.2967C88.0798 51.9734 87.1819 50.9142 87.1819 49.6635V49.6635Z" fill="#D6D6D0"/>
<path d="M59.6143 70.741C58.2826 70.741 57.2031 69.6752 57.2031 68.3603V66.2693C57.2031 64.9545 58.2826 63.8887 59.6143 63.8887C60.9461 63.8887 62.0256 64.9545 62.0256 66.2693V68.3603C62.0256 69.6752 60.9461 70.741 59.6143 70.741Z" fill="#FFC743"/>
<path d="M53.3359 84.96H76.5127V92.9167H53.3359V84.96Z" fill="#4B4A55"/>
<path d="M62.0298 84.96H53.3359V92.917H64.6273L64.9244 92.3317C61.6012 92.3317 62.0298 87.994 62.0298 87.994C62.0298 87.994 62.0298 86.8687 62.0298 84.96V84.96Z" fill="#363540"/>
<path d="M53.3359 92.3311V96.9464C53.3359 98.4685 54.5858 99.7025 56.1274 99.7025H73.7212C75.2631 99.7025 76.5127 98.4685 76.5127 96.9464V92.3311H53.3359Z" fill="#5F5E6A"/>
<path d="M64.9244 96.9464V92.3311H53.3359V96.9464C53.3359 98.4685 54.5858 99.7025 56.1274 99.7025H67.7159C66.1741 99.7025 64.9244 98.4685 64.9244 96.9464Z" fill="#4B4A55"/>
<path d="M39.7231 32.3584H6.82136C5.51195 34.8446 4.37493 37.433 3.42319 40.1078V49.4541H0.935584C0.654305 51.0208 0.43702 52.6092 0.28125 54.2155H39.7231C42.0904 54.2155 44.0164 52.3138 44.0164 49.9765V36.5971C44.0164 34.2598 42.0904 32.3584 39.7231 32.3584V32.3584ZM21.3085 49.4539H8.24562V37.1195H21.3085V49.4539ZM39.194 49.4539H26.1312V37.1195H39.194V49.4539Z" fill="#FFC743"/>
<path d="M9.19922 28.2495H48.3399V20.2969H15.2095C12.9933 22.7743 10.9814 25.4334 9.19922 28.2495Z" fill="#EEEFEB"/>
<path d="M27.5856 20.2969H15.2098C12.9933 22.7743 10.9816 25.4334 9.19922 28.2493H21.3074C21.3074 21.2767 27.5856 20.2969 27.5856 20.2969Z" fill="#D6D6D0"/>
<path d="M84.4595 28.249L84.4176 27.9571C84.2963 27.1139 84.9591 26.3599 85.8218 26.3599H87.4725L87.2239 24.7487C86.8291 22.1885 84.5992 20.2969 81.9761 20.2969H48.0234V28.2493H84.4595V28.249Z" fill="#EEEFEB"/>
<path d="M102.339 64.7061C91.0092 64.7061 81.8242 73.7747 81.8242 84.9615V92.333H90.3425C89.1737 90.2724 88.504 87.8998 88.504 85.3749C88.504 77.496 94.9965 71.0857 102.976 71.0857C107.105 71.0857 110.833 72.8044 113.472 75.5519H120.506C117.073 69.1052 110.228 64.7061 102.339 64.7061V64.7061Z" fill="#5F5E6A"/>
<path d="M95.6123 73.0791C95.6084 72.9611 95.6106 72.8465 95.6188 72.7377C95.656 72.231 95.3291 71.7775 94.8456 71.6031C92.6202 70.8006 92.5103 68.845 92.6361 67.7712C92.6611 67.5583 92.622 67.3497 92.5344 67.1641C86.1538 70.5983 81.8242 77.2796 81.8242 84.9599V92.3314H90.3425C89.1737 90.2708 88.504 87.8983 88.504 85.3733C88.504 80.1479 91.3612 75.571 95.6123 73.0791V73.0791Z" fill="#4B4A55"/>
<path d="M124.024 86.1092H115.066C113.429 86.1092 112.09 84.7868 112.09 83.1704V77.764C112.09 76.1477 113.429 74.8252 115.066 74.8252H124.024C125.661 74.8252 127 76.1477 127 77.764V83.1704C127 84.7868 125.661 86.1092 124.024 86.1092Z" fill="#4B4A55"/>
<path d="M119.545 83.1704V77.764C119.545 76.1477 120.884 74.8252 122.522 74.8252H115.066C113.429 74.8252 112.09 76.1477 112.09 77.764V83.1704C112.09 84.7868 113.429 86.1092 115.066 86.1092H122.522C120.884 86.1092 119.545 84.7868 119.545 83.1704Z" fill="#363540"/>
<path d="M102.342 99.6069C94.1625 99.6069 87.5078 93.0365 87.5078 84.9607C87.5078 76.8849 94.1625 70.3145 102.342 70.3145C110.521 70.3145 117.176 76.8849 117.176 84.9607C117.176 93.0365 110.521 99.6069 102.342 99.6069ZM102.342 76.6926C97.7244 76.6926 93.9678 80.4016 93.9678 84.9607C93.9678 89.5198 97.7244 93.2288 102.342 93.2288C106.959 93.2288 110.716 89.5198 110.716 84.9607C110.716 80.4016 106.959 76.6926 102.342 76.6926Z" fill="#21212B"/>
<path d="M110.144 93.2048C110.065 92.731 109.705 92.343 109.225 92.2647C108.432 92.1354 107.888 91.8302 107.513 91.4563C106.088 92.5647 104.293 93.2286 102.342 93.2286C97.7241 93.2286 93.9676 89.5196 93.9676 84.9605C93.9676 82.1261 95.4203 79.6207 97.6289 78.1305C97.2958 77.4774 97.3176 76.7566 97.4213 76.2032C97.515 75.7028 97.2548 75.213 96.796 74.9816C95.7259 74.4421 95.5684 73.4595 95.6212 72.7383C95.6408 72.4726 95.5582 72.2226 95.4072 72.0186C90.713 74.4805 87.5078 79.3567 87.5078 84.9605C87.5078 93.0364 94.1625 99.6068 102.342 99.6068C106.585 99.6068 110.415 97.8359 113.122 95.0066C110.898 95.3306 110.294 94.1036 110.144 93.2048V93.2048Z" fill="black"/>
<path d="M108.242 90.8074C111.512 87.579 111.512 82.3448 108.242 79.1164C104.972 75.888 99.6708 75.888 96.401 79.1164C93.1312 82.3448 93.1312 87.579 96.401 90.8074C99.6708 94.0358 104.972 94.0358 108.242 90.8074Z" fill="#D6D6D0"/>
<path d="M107.511 91.4559C106.959 90.9053 106.775 90.2037 106.724 89.6803C106.68 89.2263 106.367 88.8489 105.929 88.7049C100.465 86.9108 99.8836 82.3542 99.8868 80.4748C99.8876 80.007 99.6011 79.5868 99.1606 79.4146C98.3527 79.0989 97.8837 78.6346 97.6262 78.1299C95.4176 79.6201 93.9648 82.1254 93.9648 84.9599C93.9648 89.5189 97.7214 93.228 102.339 93.228C104.29 93.2282 106.086 92.5645 107.511 91.4559V91.4559Z" fill="#C6C6C1"/>
<path d="M102.336 95.6081C96.3891 95.6081 91.5508 90.8313 91.5508 84.9593C91.5508 79.0876 96.3891 74.3105 102.336 74.3105C108.283 74.3105 113.121 79.0876 113.121 84.9593C113.121 90.8313 108.283 95.6081 102.336 95.6081V95.6081ZM102.336 79.0721C99.0481 79.0721 96.3732 81.7131 96.3732 84.9595C96.3732 88.2057 99.0481 90.8467 102.336 90.8467C105.624 90.8467 108.299 88.2057 108.299 84.9595C108.299 81.7131 105.624 79.0721 102.336 79.0721Z" fill="#EEEFEB"/>
<path d="M109.84 92.5991C109.678 92.4267 109.465 92.3047 109.219 92.2648C107.258 91.9449 106.806 90.5595 106.721 89.6808C106.702 89.4842 106.63 89.3035 106.522 89.1484C105.445 90.1983 103.966 90.848 102.336 90.848C99.0481 90.848 96.3732 88.207 96.3732 84.9609C96.3732 82.6867 97.6868 80.7111 99.6032 79.7308C99.4846 79.5949 99.3343 79.4844 99.1575 79.4154C97.3039 78.6909 97.2317 77.1846 97.4155 76.2032C97.4594 75.9691 97.4232 75.7382 97.3279 75.5342C93.8968 77.3185 91.5508 80.8733 91.5508 84.9609C91.5508 90.8326 96.3891 95.6094 102.336 95.6094C105.251 95.6092 107.897 94.4601 109.84 92.5991V92.5991Z" fill="#D6D6D0"/>
<path d="M124.023 74.5564H121.434C119.796 74.5564 118.457 73.234 118.457 71.6176V64.8001C118.457 63.1838 119.796 61.8613 121.434 61.8613H124.023C125.66 61.8613 126.999 63.1838 126.999 64.8001V71.6176C126.999 73.234 125.66 74.5564 124.023 74.5564Z" fill="#EEEFEB"/>
<path d="M124.023 68.8323H121.434C119.796 68.8323 118.457 67.5099 118.457 65.8936V71.6181C118.457 73.2344 119.796 74.5569 121.434 74.5569H124.023C125.66 74.5569 126.999 73.2344 126.999 71.6181V65.8936C126.999 67.5099 125.66 68.8323 124.023 68.8323Z" fill="#D6D6D0"/>
<path d="M21.3524 32.3584H6.82136C5.51195 34.8446 4.37493 37.433 3.42319 40.1078V49.4541H0.935583C0.654304 51.0208 0.43702 52.6092 0.28125 54.2155H21.3085C17.7587 51.6036 21.3085 49.4541 21.3085 49.4541H8.24561V37.1197H21.3085C17.6761 34.4734 21.3524 32.3584 21.3524 32.3584Z" fill="#FBB031"/>
</svg>
