<svg width="610" height="333" viewBox="0 0 610 333" fill="none" xmlns="http://www.w3.org/2000/svg">
<path d="M33 222L124.038 164.448L249.316 214.756L287.182 142.312L406.015 95.2238V120.177L445.895 26L479.732 88.7844L518 74.6982" stroke="#F30000" stroke-width="4"/>
<path d="M527.479 75.5103L544.968 76.7447C544.579 64.6682 534.889 55 522.991 55C515.978 55 509.732 58.359 505.705 63.5902L527.479 75.5103Z" fill="#67E5EE"/>
<path d="M504.086 88.9971C507.921 95.5855 514.952 100 522.991 100C531.031 100 538.061 95.5855 541.897 88.9971H504.086Z" fill="#74727F"/>
<path d="M520.068 88.9971H504.086C507.328 94.5666 512.854 98.5825 519.342 99.6915C515.05 97.6073 515.393 90.5209 520.068 88.9971Z" fill="#5F5E6A"/>
<path d="M542 80.3909C541.621 80.3909 541.264 80.2146 541.028 79.9119L539.718 78.2316C539.542 78.0062 539.447 77.7266 539.447 77.4383C539.447 76.7357 540.004 76.166 540.69 76.166H544.699C544.021 75.3017 543.105 74.6483 542.053 74.3075C538.619 73.1952 533.296 72.8413 530.647 72.7309C529.611 72.6878 528.63 72.2585 527.874 71.5325C525.019 68.79 522.037 66.5168 520.048 65.0995C518.598 64.0654 516.872 63.5127 515.104 63.5127H505.765C505.246 64.1808 504.764 64.8805 504.321 65.6071L501.229 74.2514L501.229 74.2512C501.079 75.3116 501 76.3955 501 77.4984C501 81.2541 501.901 84.7941 503.491 87.9068H545.933V80.391H542V80.3909Z" fill="#F30000"/>
<path d="M513.515 81.7933V74.2514V66.0148C513.515 65.7754 513.439 65.5407 513.295 65.3527C512.539 64.3728 513.232 63.726 513.453 63.5571C513.171 63.5287 512.887 63.5127 512.601 63.5127H505.765C505.246 64.1808 504.764 64.8805 504.321 65.6071L501.229 74.2514L501.229 74.2512C501.079 75.3115 501 76.3954 501 77.4983C501 81.254 501.901 84.794 503.491 87.9067H519.066C513.36 87.9061 513.515 81.7933 513.515 81.7933Z" fill="#D40000"/>
<path d="M528.245 85.9953C527.822 85.9953 527.479 85.644 527.479 85.2109V75.5111C527.479 75.0778 527.822 74.7266 528.245 74.7266C528.669 74.7266 529.012 75.0778 529.012 75.5111V85.2109C529.012 85.644 528.669 85.9953 528.245 85.9953Z" fill="#D40000"/>
<path d="M526.85 73.3933C526.721 73.2874 526.595 73.176 526.474 73.0593C523.713 70.4067 520.82 68.2009 518.879 66.8177C517.767 66.0253 516.462 65.6064 515.104 65.6064H504.322C502.749 68.1859 501.672 71.1145 501.229 74.2532H526.556C526.561 74.2532 526.567 74.2531 526.572 74.2531C527.008 74.246 527.19 73.6731 526.85 73.3933Z" fill="#363540"/>
<path d="M513.25 65.6638C512.968 65.6265 512.682 65.6064 512.393 65.6064H504.322C502.749 68.1859 501.672 71.1145 501.229 74.2532H513.307V66.0165C513.307 65.8959 513.288 65.7766 513.25 65.6638Z" fill="#21212B"/>
<path d="M534.686 82.2804C537.718 82.2804 540.185 84.8047 540.185 87.9075H542.381C542.381 83.5592 538.936 80.0342 534.686 80.0342C530.436 80.0342 526.99 83.5592 526.99 87.9075H529.186C529.186 84.8047 531.653 82.2804 534.686 82.2804Z" fill="#F30000"/>
<path d="M532.125 82.6524C532.153 82.4737 532.058 82.2982 531.895 82.2291C531.286 81.9717 531.281 81.3961 531.34 81.0534C531.353 80.9757 531.342 80.8987 531.312 80.8301C528.753 82.1092 526.99 84.7975 526.99 87.9077H529.186C529.186 85.7605 530.368 83.8911 532.1 82.9428C532.101 82.8381 532.111 82.7391 532.125 82.6524Z" fill="#D40000"/>
<path d="M526.85 73.3915C526.721 73.2855 526.595 73.1741 526.474 73.0575C525.6 72.218 524.713 71.4236 523.847 70.6855C523.849 70.6907 524.632 73.1369 522.146 74.2514H526.556C526.561 74.2514 526.566 74.2513 526.572 74.2513C527.008 74.2442 527.19 73.6712 526.85 73.3915Z" fill="#21212B"/>
<path d="M511.215 65.6064H513.529V74.2532H511.215V65.6064Z" fill="#5F5E6A"/>
<path d="M509.002 65.6064H511.316V74.2532H509.002V65.6064Z" fill="#4B4A55"/>
<path d="M527.454 72.3809H525.684C525.199 72.3809 524.803 72.7867 524.803 73.2827V76.2182C524.803 76.7142 525.199 77.12 525.684 77.12H527.454C528.548 77.12 529.444 76.2036 529.444 75.0838V74.4172C529.444 73.2973 528.548 72.3809 527.454 72.3809Z" fill="#EEEFEB"/>
<path d="M526.358 75.0837V74.4171C526.358 73.4546 527.02 72.643 527.901 72.4338C527.757 72.3995 527.607 72.3809 527.454 72.3809H525.684C525.199 72.3809 524.803 72.7867 524.803 73.2827V76.2182C524.803 76.7142 525.199 77.12 525.684 77.12H527.454C527.607 77.12 527.757 77.1013 527.901 77.0671C527.02 76.8578 526.358 76.0462 526.358 75.0837Z" fill="#D6D6D0"/>
<path d="M517.511 77.8608H515.415C514.992 77.8608 514.648 77.5096 514.648 77.0764C514.648 76.6432 514.992 76.292 515.415 76.292H517.511C517.934 76.292 518.278 76.6432 518.278 77.0764C518.278 77.5096 517.934 77.8608 517.511 77.8608Z" fill="#EEEFEB"/>
<path d="M503.863 77.8608H501.767C501.343 77.8608 501 77.5096 501 77.0764C501 76.6432 501.343 76.292 501.767 76.292H503.862C504.286 76.292 504.629 76.6432 504.629 77.0764C504.629 77.5096 504.286 77.8608 503.863 77.8608Z" fill="#EEEFEB"/>
<path d="M545.474 82.7637H544.893C544.265 82.7637 543.752 83.289 543.752 83.9311V85.048C543.752 85.6901 544.265 86.2154 544.893 86.2154H545.474C546.101 86.2154 546.615 85.6901 546.615 85.048V83.9311C546.615 83.2891 546.101 82.7637 545.474 82.7637Z" fill="#FFC743"/>
<path d="M532.95 77.4489H531.825C531.402 77.4489 531.059 77.0976 531.059 76.6644C531.059 76.2311 531.402 75.8799 531.825 75.8799H532.95C533.373 75.8799 533.717 76.2311 533.717 76.6644C533.717 77.0976 533.374 77.4489 532.95 77.4489Z" fill="#FFC743"/>
<path d="M529.188 87.8047H503.438C503.897 88.7158 504.416 89.5902 504.988 90.4235H529.822C529.418 89.6406 529.188 88.7499 529.188 87.8047Z" fill="#4B4A55"/>
<path d="M545.675 87.8047H540.187C540.187 88.7499 539.957 89.6407 539.553 90.4235H545.675C546.382 90.4235 546.955 89.8372 546.955 89.1141C546.955 88.3909 546.382 87.8047 545.675 87.8047Z" fill="#4B4A55"/>
<path d="M534.687 94.0569C531.374 94.0569 528.678 91.2986 528.678 87.9083C528.678 84.5181 531.374 81.7598 534.687 81.7598C538.001 81.7598 540.697 84.518 540.697 87.9083C540.697 91.2985 538.001 94.0569 534.687 94.0569Z" fill="#21212B"/>
<path d="M538.37 92.7616C538.365 92.761 538.361 92.7602 538.356 92.7597C537.16 92.6321 537.034 91.8908 537.068 91.4504C537.082 91.2686 536.974 91.1042 536.806 91.0433C536.249 90.8411 536.17 90.3883 536.186 90.0901C536.194 89.9202 536.088 89.7647 535.931 89.7086C533.483 88.8346 533.609 86.7567 533.767 85.9297C533.803 85.7445 533.704 85.5638 533.534 85.4896C533.035 85.2711 533.004 84.8049 533.051 84.4863C533.078 84.303 532.973 84.1305 532.805 84.0618C532.075 83.7637 532.06 83.0691 532.127 82.6531C532.142 82.5536 532.119 82.4558 532.067 82.376C530.063 83.3738 528.678 85.4786 528.678 87.9084C528.678 91.2987 531.374 94.057 534.687 94.057C536.074 94.057 537.352 93.5723 538.37 92.7616Z" fill="black"/>
<path d="M537.865 88.2842C538.078 86.4935 536.832 84.865 535.082 84.6468C533.332 84.4286 531.74 85.7033 531.527 87.494C531.314 89.2847 532.559 90.9132 534.31 91.1314C536.06 91.3496 537.651 90.0749 537.865 88.2842Z" fill="#D6D6D0"/>
<path d="M536.188 90.09C536.196 89.9202 536.091 89.7646 535.934 89.7086C533.485 88.8346 533.611 86.7567 533.77 85.9296C533.805 85.7445 533.706 85.5637 533.537 85.4895C533.309 85.3899 533.179 85.2385 533.109 85.0732C532.148 85.6365 531.498 86.6959 531.498 87.9083C531.498 89.7088 532.93 91.1735 534.689 91.1735C535.294 91.1735 535.86 91.0006 536.342 90.7006C536.204 90.4991 536.179 90.2674 536.188 90.09Z" fill="#C6C6C1"/>
<path d="M534.688 91.9568C532.506 91.9568 530.73 90.1401 530.73 87.9071C530.73 85.6742 532.506 83.8574 534.688 83.8574C536.871 83.8574 538.647 85.6741 538.647 87.9071C538.647 90.1401 536.871 91.9568 534.688 91.9568ZM534.688 85.4265C533.352 85.4265 532.264 86.5393 532.264 87.9071C532.264 89.275 533.352 90.3878 534.688 90.3878C536.025 90.3878 537.113 89.275 537.113 87.9071C537.113 86.5393 536.025 85.4265 534.688 85.4265Z" fill="#EEEFEB"/>
<path d="M536.807 91.0416C536.251 90.8395 536.172 90.3866 536.187 90.0885C536.191 90.0179 536.174 89.9503 536.142 89.8908C535.737 90.2024 535.234 90.3874 534.689 90.3874C533.352 90.3874 532.264 89.2745 532.264 87.9067C532.264 86.8948 532.86 86.023 533.711 85.6375C533.669 85.5734 533.61 85.5202 533.536 85.4879C533.037 85.2695 533.005 84.8032 533.052 84.4847C533.065 84.3977 533.047 84.3135 533.008 84.2412C531.664 84.889 530.73 86.2882 530.73 87.9067C530.73 90.1396 532.506 91.9564 534.689 91.9564C535.551 91.9564 536.349 91.6719 537 91.1911C536.954 91.124 536.888 91.0707 536.807 91.0416Z" fill="#D6D6D0"/>
<path d="M544.675 76.1348H540.612C539.915 76.1348 539.35 76.713 539.35 77.4262C539.35 77.7188 539.447 78.0027 539.625 78.2314L540.954 79.9371C541.194 80.2444 541.557 80.4234 541.941 80.4234H545.934V79.7512C545.934 78.953 545.771 78.1636 545.454 77.434C545.25 76.9629 544.987 76.5269 544.675 76.1348Z" fill="#D6D6D0"/>
<path d="M544.724 76.2021C543.717 76.4526 542.969 77.3809 542.969 78.4886C542.969 79.2907 543.361 79.9988 543.96 80.4236H545.933V79.7514C545.933 78.9532 545.77 78.1639 545.454 77.4343C545.261 76.9893 545.014 76.5771 544.724 76.2021Z" fill="#EEEFEB"/>
<path d="M517.843 87.8047H503.438C503.897 88.7158 504.416 89.5902 504.988 90.4235H517.843C516.459 89.0079 517.843 87.8047 517.843 87.8047Z" fill="#363540"/>
<g filter="url(#filter0_d)">
<path d="M48.4 307.84H51.28V299.04H48.94V297.76C50.0733 297.56 51.02 297.227 51.78 296.76H53.3V307.84H55.86V309.5H48.4V307.84ZM61.7178 296.52C62.5711 296.52 63.3378 296.753 64.0178 297.22C64.7111 297.673 65.2511 298.367 65.6378 299.3C66.0378 300.22 66.2378 301.353 66.2378 302.7C66.2378 304.3 66.0111 305.627 65.5578 306.68C65.1178 307.733 64.5245 308.507 63.7778 309C63.0311 309.493 62.2045 309.74 61.2978 309.74C60.0045 309.74 58.9178 309.273 58.0378 308.34L59.1378 307.1C59.3911 307.393 59.6978 307.633 60.0578 307.82C60.4311 307.993 60.8111 308.08 61.1978 308.08C62.1178 308.08 62.8645 307.687 63.4378 306.9C64.0111 306.1 64.3178 304.82 64.3578 303.06C63.9845 303.54 63.5378 303.92 63.0178 304.2C62.4978 304.467 61.9911 304.6 61.4978 304.6C60.3645 304.6 59.4645 304.267 58.7978 303.6C58.1445 302.92 57.8178 301.94 57.8178 300.66C57.8178 299.847 57.9911 299.127 58.3378 298.5C58.6978 297.873 59.1711 297.387 59.7578 297.04C60.3578 296.693 61.0111 296.52 61.7178 296.52ZM61.8578 303.12C62.2711 303.12 62.6911 302.993 63.1178 302.74C63.5445 302.473 63.9378 302.073 64.2978 301.54C64.1911 300.393 63.9178 299.533 63.4778 298.96C63.0378 298.373 62.4578 298.08 61.7378 298.08C61.1511 298.08 60.6645 298.313 60.2778 298.78C59.8911 299.247 59.6978 299.873 59.6978 300.66C59.6978 301.447 59.8845 302.053 60.2578 302.48C60.6311 302.907 61.1645 303.12 61.8578 303.12ZM72.535 309.74C71.215 309.74 70.1817 309.16 69.435 308C68.6883 306.84 68.315 305.2 68.315 303.08C68.315 300.96 68.6883 299.34 69.435 298.22C70.1817 297.087 71.215 296.52 72.535 296.52C73.855 296.52 74.8883 297.087 75.635 298.22C76.3817 299.353 76.755 300.973 76.755 303.08C76.755 305.2 76.3817 306.84 75.635 308C74.8883 309.16 73.855 309.74 72.535 309.74ZM72.535 308.14C73.2417 308.14 73.795 307.733 74.195 306.92C74.6083 306.107 74.815 304.827 74.815 303.08C74.815 299.773 74.055 298.12 72.535 298.12C71.015 298.12 70.255 299.773 70.255 303.08C70.255 304.827 70.455 306.107 70.855 306.92C71.2683 307.733 71.8283 308.14 72.535 308.14ZM82.9522 309.74C81.6322 309.74 80.5989 309.16 79.8522 308C79.1055 306.84 78.7322 305.2 78.7322 303.08C78.7322 300.96 79.1055 299.34 79.8522 298.22C80.5989 297.087 81.6322 296.52 82.9522 296.52C84.2722 296.52 85.3055 297.087 86.0522 298.22C86.7989 299.353 87.1722 300.973 87.1722 303.08C87.1722 305.2 86.7989 306.84 86.0522 308C85.3055 309.16 84.2722 309.74 82.9522 309.74ZM82.9522 308.14C83.6589 308.14 84.2122 307.733 84.6122 306.92C85.0255 306.107 85.2322 304.827 85.2322 303.08C85.2322 299.773 84.4722 298.12 82.9522 298.12C81.4322 298.12 80.6722 299.773 80.6722 303.08C80.6722 304.827 80.8722 306.107 81.2722 306.92C81.6855 307.733 82.2455 308.14 82.9522 308.14Z" fill="white"/>
</g>
<g filter="url(#filter1_d)">
<path d="M4.9 258.34H7.78L7.78 249.54H5.44L5.44 248.26C6.57333 248.06 7.52 247.727 8.28 247.26H9.8V258.34H12.36V260H4.9V258.34ZM18.6178 260.24C17.2978 260.24 16.2645 259.66 15.5178 258.5C14.7711 257.34 14.3978 255.7 14.3978 253.58C14.3978 251.46 14.7711 249.84 15.5178 248.72C16.2645 247.587 17.2978 247.02 18.6178 247.02C19.9378 247.02 20.9711 247.587 21.7178 248.72C22.4645 249.853 22.8378 251.473 22.8378 253.58C22.8378 255.7 22.4645 257.34 21.7178 258.5C20.9711 259.66 19.9378 260.24 18.6178 260.24ZM18.6178 258.64C19.3245 258.64 19.8778 258.233 20.2778 257.42C20.6911 256.607 20.8978 255.327 20.8978 253.58C20.8978 250.273 20.1378 248.62 18.6178 248.62C17.0978 248.62 16.3378 250.273 16.3378 253.58C16.3378 255.327 16.5378 256.607 16.9378 257.42C17.3511 258.233 17.9111 258.64 18.6178 258.64Z" fill="white"/>
</g>
<g filter="url(#filter2_d)">
<path d="M13.58 128.62H11.92V132H10.02V128.62H4.36V127.26L9.58 119.26H11.92V127.04H13.58V128.62ZM10.02 127.04V123.8C10.02 123.253 10.0533 122.4 10.12 121.24H10.04C9.98667 121.333 9.76667 121.74 9.38 122.46C9.32667 122.54 9.26667 122.64 9.2 122.76C9.14667 122.867 9.08 122.993 9 123.14L6.4 127.04H10.02ZM19.4772 132.24C18.1572 132.24 17.1239 131.66 16.3772 130.5C15.6305 129.34 15.2572 127.7 15.2572 125.58C15.2572 123.46 15.6305 121.84 16.3772 120.72C17.1239 119.587 18.1572 119.02 19.4772 119.02C20.7972 119.02 21.8305 119.587 22.5772 120.72C23.3239 121.853 23.6972 123.473 23.6972 125.58C23.6972 127.7 23.3239 129.34 22.5772 130.5C21.8305 131.66 20.7972 132.24 19.4772 132.24ZM19.4772 130.64C20.1839 130.64 20.7372 130.233 21.1372 129.42C21.5505 128.607 21.7572 127.327 21.7572 125.58C21.7572 122.273 20.9972 120.62 19.4772 120.62C17.9572 120.62 17.1972 122.273 17.1972 125.58C17.1972 127.327 17.3972 128.607 17.7972 129.42C18.2105 130.233 18.7705 130.64 19.4772 130.64Z" fill="white"/>
</g>
<g filter="url(#filter3_d)">
<path d="M8.76 179.24C7 179.24 5.58 178.64 4.5 177.44L5.48 176.14C5.92 176.58 6.39333 176.933 6.9 177.2C7.40667 177.453 7.97333 177.58 8.6 177.58C9.33333 177.58 9.92667 177.393 10.38 177.02C10.8467 176.633 11.08 176.12 11.08 175.48C11.08 174.733 10.78 174.16 10.18 173.76C9.59333 173.36 8.6 173.16 7.2 173.16V171.66C9.49333 171.66 10.64 170.933 10.64 169.48C10.64 168.907 10.46 168.46 10.1 168.14C9.74 167.807 9.24667 167.64 8.62 167.64C7.72667 167.64 6.85333 168.053 6 168.88L4.94 167.62C6.12667 166.553 7.38 166.02 8.7 166.02C9.9 166.02 10.86 166.313 11.58 166.9C12.3133 167.487 12.68 168.293 12.68 169.32C12.68 170.72 11.9267 171.713 10.42 172.3V172.38C11.22 172.58 11.8667 172.96 12.36 173.52C12.8667 174.067 13.12 174.753 13.12 175.58C13.12 176.327 12.9267 176.98 12.54 177.54C12.1533 178.087 11.6267 178.507 10.96 178.8C10.3067 179.093 9.57333 179.24 8.76 179.24ZM19.4772 179.24C18.1572 179.24 17.1239 178.66 16.3772 177.5C15.6305 176.34 15.2572 174.7 15.2572 172.58C15.2572 170.46 15.6305 168.84 16.3772 167.72C17.1239 166.587 18.1572 166.02 19.4772 166.02C20.7972 166.02 21.8305 166.587 22.5772 167.72C23.3239 168.853 23.6972 170.473 23.6972 172.58C23.6972 174.7 23.3239 176.34 22.5772 177.5C21.8305 178.66 20.7972 179.24 19.4772 179.24ZM19.4772 177.64C20.1839 177.64 20.7372 177.233 21.1372 176.42C21.5505 175.607 21.7572 174.327 21.7572 172.58C21.7572 169.273 20.9972 167.62 19.4772 167.62C17.9572 167.62 17.1972 169.273 17.1972 172.58C17.1972 174.327 17.3972 175.607 17.7972 176.42C18.2105 177.233 18.7705 177.64 19.4772 177.64Z" fill="white"/>
</g>
<g filter="url(#filter4_d)">
<path d="M4.78 217.82C6.23333 216.393 7.34667 215.26 8.12 214.42C8.90667 213.567 9.52 212.773 9.96 212.04C10.4133 211.293 10.64 210.6 10.64 209.96C10.64 209.24 10.4467 208.673 10.06 208.26C9.67333 207.847 9.12 207.64 8.4 207.64C7.53333 207.64 6.67333 208.127 5.82 209.1L4.68 207.98C5.28 207.327 5.88667 206.84 6.5 206.52C7.12667 206.187 7.84667 206.02 8.66 206.02C9.86 206.02 10.8133 206.373 11.52 207.08C12.24 207.773 12.6 208.7 12.6 209.86C12.6 210.593 12.3933 211.347 11.98 212.12C11.58 212.893 11.0467 213.673 10.38 214.46C9.72667 215.233 8.84 216.213 7.72 217.4C8.62667 217.32 9.34 217.28 9.86 217.28H13.22V219H4.78V217.82ZM19.4772 219.24C18.1572 219.24 17.1239 218.66 16.3772 217.5C15.6305 216.34 15.2572 214.7 15.2572 212.58C15.2572 210.46 15.6305 208.84 16.3772 207.72C17.1239 206.587 18.1572 206.02 19.4772 206.02C20.7972 206.02 21.8305 206.587 22.5772 207.72C23.3239 208.853 23.6972 210.473 23.6972 212.58C23.6972 214.7 23.3239 216.34 22.5772 217.5C21.8305 218.66 20.7972 219.24 19.4772 219.24ZM19.4772 217.64C20.1839 217.64 20.7372 217.233 21.1372 216.42C21.5505 215.607 21.7572 214.327 21.7572 212.58C21.7572 209.273 20.9972 207.62 19.4772 207.62C17.9572 207.62 17.1972 209.273 17.1972 212.58C17.1972 214.327 17.3972 215.607 17.7972 216.42C18.2105 217.233 18.7705 217.64 19.4772 217.64Z" fill="white"/>
</g>
<g filter="url(#filter5_d)">
<path d="M8.76 85.24C7.81333 85.24 6.99333 85.08 6.3 84.76C5.62 84.44 5.01333 84.0133 4.48 83.48L5.44 82.18C5.88 82.6067 6.34667 82.9467 6.84 83.2C7.33333 83.4533 7.89333 83.58 8.52 83.58C9.28 83.58 9.9 83.34 10.38 82.86C10.8733 82.38 11.12 81.74 11.12 80.94C11.12 80.14 10.8933 79.5133 10.44 79.06C9.98667 78.6067 9.38 78.38 8.62 78.38C8.22 78.38 7.87333 78.44 7.58 78.56C7.28667 78.6667 6.93333 78.8533 6.52 79.12L5.52 78.48L5.92 72.26H12.54V73.98H7.68L7.38 77.36C7.95333 77.0533 8.55333 76.9 9.18 76.9C10.34 76.9 11.2933 77.24 12.04 77.92C12.7867 78.5867 13.16 79.5733 13.16 80.88C13.16 81.7733 12.9533 82.5533 12.54 83.22C12.14 83.8733 11.6067 84.3733 10.94 84.72C10.2733 85.0667 9.54667 85.24 8.76 85.24ZM19.4772 85.24C18.1572 85.24 17.1239 84.66 16.3772 83.5C15.6305 82.34 15.2572 80.7 15.2572 78.58C15.2572 76.46 15.6305 74.84 16.3772 73.72C17.1239 72.5867 18.1572 72.02 19.4772 72.02C20.7972 72.02 21.8305 72.5867 22.5772 73.72C23.3239 74.8533 23.6972 76.4733 23.6972 78.58C23.6972 80.7 23.3239 82.34 22.5772 83.5C21.8305 84.66 20.7972 85.24 19.4772 85.24ZM19.4772 83.64C20.1839 83.64 20.7372 83.2333 21.1372 82.42C21.5505 81.6067 21.7572 80.3267 21.7572 78.58C21.7572 75.2733 20.9972 73.62 19.4772 73.62C17.9572 73.62 17.1972 75.2733 17.1972 78.58C17.1972 80.3267 17.3972 81.6067 17.7972 82.42C18.2105 83.2333 18.7705 83.64 19.4772 83.64Z" fill="white"/>
</g>
<g filter="url(#filter6_d)">
<path d="M9.66 30.16C10.7933 30.16 11.6867 30.5 12.34 31.18C13.0067 31.8467 13.34 32.82 13.34 34.1C13.34 34.9133 13.16 35.6333 12.8 36.26C12.4533 36.8867 11.98 37.3733 11.38 37.72C10.7933 38.0667 10.1467 38.24 9.44 38.24C8.58667 38.24 7.81333 38.0133 7.12 37.56C6.44 37.0933 5.9 36.4 5.5 35.48C5.11333 34.5467 4.92 33.4067 4.92 32.06C4.92 30.46 5.14 29.1333 5.58 28.08C6.03333 27.0267 6.63333 26.2533 7.38 25.76C8.12667 25.2667 8.95333 25.02 9.86 25.02C11.1533 25.02 12.24 25.4867 13.12 26.42L12.02 27.66C11.78 27.3667 11.4733 27.1333 11.1 26.96C10.7267 26.7733 10.3467 26.68 9.96 26.68C9.05333 26.68 8.30667 27.08 7.72 27.88C7.14667 28.6667 6.84 29.94 6.8 31.7C7.17333 31.2333 7.62 30.86 8.14 30.58C8.66 30.3 9.16667 30.16 9.66 30.16ZM9.42 36.68C10.0067 36.68 10.4933 36.4467 10.88 35.98C11.2667 35.5133 11.46 34.8867 11.46 34.1C11.46 33.3133 11.2733 32.7067 10.9 32.28C10.5267 31.8533 9.99333 31.64 9.3 31.64C8.88667 31.64 8.46667 31.7667 8.04 32.02C7.62667 32.2733 7.23333 32.6733 6.86 33.22C6.96667 34.3667 7.24 35.2333 7.68 35.82C8.13333 36.3933 8.71333 36.68 9.42 36.68ZM19.4772 38.24C18.1572 38.24 17.1239 37.66 16.3772 36.5C15.6305 35.34 15.2572 33.7 15.2572 31.58C15.2572 29.46 15.6305 27.84 16.3772 26.72C17.1239 25.5867 18.1572 25.02 19.4772 25.02C20.7972 25.02 21.8305 25.5867 22.5772 26.72C23.3239 27.8533 23.6972 29.4733 23.6972 31.58C23.6972 33.7 23.3239 35.34 22.5772 36.5C21.8305 37.66 20.7972 38.24 19.4772 38.24ZM19.4772 36.64C20.1839 36.64 20.7372 36.2333 21.1372 35.42C21.5505 34.6067 21.7572 33.3267 21.7572 31.58C21.7572 28.2733 20.9972 26.62 19.4772 26.62C17.9572 26.62 17.1972 28.2733 17.1972 31.58C17.1972 33.3267 17.3972 34.6067 17.7972 35.42C18.2105 36.2333 18.7705 36.64 19.4772 36.64Z" fill="white"/>
</g>
<g filter="url(#filter7_d)">
<path d="M495.78 312.82C497.233 311.393 498.347 310.26 499.12 309.42C499.907 308.567 500.52 307.773 500.96 307.04C501.413 306.293 501.64 305.6 501.64 304.96C501.64 304.24 501.447 303.673 501.06 303.26C500.673 302.847 500.12 302.64 499.4 302.64C498.533 302.64 497.673 303.127 496.82 304.1L495.68 302.98C496.28 302.327 496.887 301.84 497.5 301.52C498.127 301.187 498.847 301.02 499.66 301.02C500.86 301.02 501.813 301.373 502.52 302.08C503.24 302.773 503.6 303.7 503.6 304.86C503.6 305.593 503.393 306.347 502.98 307.12C502.58 307.893 502.047 308.673 501.38 309.46C500.727 310.233 499.84 311.213 498.72 312.4C499.627 312.32 500.34 312.28 500.86 312.28H504.22V314H495.78V312.82ZM510.477 314.24C509.157 314.24 508.124 313.66 507.377 312.5C506.631 311.34 506.257 309.7 506.257 307.58C506.257 305.46 506.631 303.84 507.377 302.72C508.124 301.587 509.157 301.02 510.477 301.02C511.797 301.02 512.831 301.587 513.577 302.72C514.324 303.853 514.697 305.473 514.697 307.58C514.697 309.7 514.324 311.34 513.577 312.5C512.831 313.66 511.797 314.24 510.477 314.24ZM510.477 312.64C511.184 312.64 511.737 312.233 512.137 311.42C512.551 310.607 512.757 309.327 512.757 307.58C512.757 304.273 511.997 302.62 510.477 302.62C508.957 302.62 508.197 304.273 508.197 307.58C508.197 309.327 508.397 310.607 508.797 311.42C509.211 312.233 509.771 312.64 510.477 312.64ZM516.734 312.34H519.614V303.54H517.274V302.26C518.408 302.06 519.354 301.727 520.114 301.26H521.634V312.34H524.194V314H516.734V312.34ZM531.052 306.16C532.186 306.16 533.079 306.5 533.732 307.18C534.399 307.847 534.732 308.82 534.732 310.1C534.732 310.913 534.552 311.633 534.192 312.26C533.846 312.887 533.372 313.373 532.772 313.72C532.186 314.067 531.539 314.24 530.832 314.24C529.979 314.24 529.206 314.013 528.512 313.56C527.832 313.093 527.292 312.4 526.892 311.48C526.506 310.547 526.312 309.407 526.312 308.06C526.312 306.46 526.532 305.133 526.972 304.08C527.426 303.027 528.026 302.253 528.772 301.76C529.519 301.267 530.346 301.02 531.252 301.02C532.546 301.02 533.632 301.487 534.512 302.42L533.412 303.66C533.172 303.367 532.866 303.133 532.492 302.96C532.119 302.773 531.739 302.68 531.352 302.68C530.446 302.68 529.699 303.08 529.112 303.88C528.539 304.667 528.232 305.94 528.192 307.7C528.566 307.233 529.012 306.86 529.532 306.58C530.052 306.3 530.559 306.16 531.052 306.16ZM530.812 312.68C531.399 312.68 531.886 312.447 532.272 311.98C532.659 311.513 532.852 310.887 532.852 310.1C532.852 309.313 532.666 308.707 532.292 308.28C531.919 307.853 531.386 307.64 530.692 307.64C530.279 307.64 529.859 307.767 529.432 308.02C529.019 308.273 528.626 308.673 528.252 309.22C528.359 310.367 528.632 311.233 529.072 311.82C529.526 312.393 530.106 312.68 530.812 312.68Z" fill="white"/>
</g>
<g filter="url(#filter8_d)">
<path d="M502.54 237.22H504.2L504.36 238.58H504.42C504.9 238.087 505.38 237.7 505.86 237.42C506.353 237.127 506.88 236.98 507.44 236.98C508.787 236.98 509.687 237.58 510.14 238.78C510.687 238.193 511.207 237.747 511.7 237.44C512.207 237.133 512.747 236.98 513.32 236.98C514.32 236.98 515.067 237.313 515.56 237.98C516.067 238.633 516.32 239.587 516.32 240.84V247H514.3V241.1C514.3 240.26 514.167 239.653 513.9 239.28C513.647 238.907 513.233 238.72 512.66 238.72C511.993 238.72 511.253 239.167 510.44 240.06V247H508.42V241.1C508.42 240.26 508.287 239.653 508.02 239.28C507.767 238.907 507.353 238.72 506.78 238.72C506.113 238.72 505.373 239.167 504.56 240.06V247H502.54V237.22ZM522.858 247.24C520.885 247.24 519.898 246.1 519.898 243.82V238.84H518.478V237.32L519.998 237.22L520.238 234.52H521.918V237.22H524.478V238.84H521.918V243.82C521.918 244.42 522.032 244.873 522.258 245.18C522.485 245.473 522.852 245.62 523.358 245.62C523.665 245.62 524.018 245.54 524.418 245.38L524.778 246.88C524.058 247.12 523.418 247.24 522.858 247.24ZM532.17 247.24C531.063 247.24 530.07 246.973 529.19 246.44C528.31 245.907 527.617 245.133 527.11 244.12C526.603 243.093 526.35 241.88 526.35 240.48C526.35 239.093 526.61 237.887 527.13 236.86C527.65 235.833 528.357 235.047 529.25 234.5C530.157 233.94 531.163 233.66 532.27 233.66C533.03 233.66 533.723 233.813 534.35 234.12C534.99 234.427 535.53 234.82 535.97 235.3L534.87 236.62C534.11 235.833 533.257 235.44 532.31 235.44C531.55 235.44 530.877 235.647 530.29 236.06C529.717 236.46 529.263 237.033 528.93 237.78C528.61 238.527 528.45 239.407 528.45 240.42C528.45 241.98 528.79 243.213 529.47 244.12C530.163 245.013 531.09 245.46 532.25 245.46C533.343 245.46 534.31 244.993 535.15 244.06L536.25 245.34C535.17 246.607 533.81 247.24 532.17 247.24ZM543.209 247.24C542.089 247.24 541.096 246.967 540.229 246.42C539.376 245.86 538.709 245.067 538.229 244.04C537.749 243 537.509 241.787 537.509 240.4C537.509 239.013 537.749 237.813 538.229 236.8C538.709 235.787 539.376 235.013 540.229 234.48C541.096 233.933 542.089 233.66 543.209 233.66C544.329 233.66 545.316 233.933 546.169 234.48C547.036 235.013 547.709 235.787 548.189 236.8C548.669 237.813 548.909 239.013 548.909 240.4C548.909 241.787 548.669 243 548.189 244.04C547.709 245.067 547.036 245.86 546.169 246.42C545.316 246.967 544.329 247.24 543.209 247.24ZM543.209 245.46C543.929 245.46 544.563 245.253 545.109 244.84C545.656 244.427 546.076 243.84 546.369 243.08C546.663 242.307 546.809 241.413 546.809 240.4C546.809 238.867 546.483 237.66 545.829 236.78C545.176 235.887 544.303 235.44 543.209 235.44C542.116 235.44 541.243 235.887 540.589 236.78C539.936 237.66 539.609 238.867 539.609 240.4C539.609 241.413 539.756 242.307 540.049 243.08C540.343 243.84 540.763 244.427 541.309 244.84C541.856 245.253 542.489 245.46 543.209 245.46ZM550.988 245.82C552.441 244.393 553.554 243.26 554.328 242.42C555.114 241.567 555.728 240.773 556.168 240.04C556.621 239.293 556.848 238.6 556.848 237.96C556.848 237.24 556.654 236.673 556.268 236.26C555.881 235.847 555.328 235.64 554.608 235.64C553.741 235.64 552.881 236.127 552.028 237.1L550.888 235.98C551.488 235.327 552.094 234.84 552.708 234.52C553.334 234.187 554.054 234.02 554.868 234.02C556.068 234.02 557.021 234.373 557.728 235.08C558.448 235.773 558.808 236.7 558.808 237.86C558.808 238.593 558.601 239.347 558.188 240.12C557.788 240.893 557.254 241.673 556.588 242.46C555.934 243.233 555.048 244.213 553.928 245.4C554.834 245.32 555.548 245.28 556.068 245.28H559.428V247H550.988V245.82ZM569.925 241.6C569.925 241.973 569.898 242.32 569.845 242.64H563.385C563.478 243.627 563.812 244.38 564.385 244.9C564.972 245.407 565.678 245.66 566.505 245.66C567.292 245.66 568.072 245.413 568.845 244.92L569.545 246.2C568.505 246.893 567.405 247.24 566.245 247.24C565.352 247.24 564.545 247.033 563.825 246.62C563.105 246.207 562.532 245.613 562.105 244.84C561.692 244.067 561.485 243.16 561.485 242.12C561.485 241.093 561.692 240.193 562.105 239.42C562.532 238.633 563.085 238.033 563.765 237.62C564.445 237.193 565.172 236.98 565.945 236.98C567.212 236.98 568.192 237.4 568.885 238.24C569.578 239.067 569.925 240.187 569.925 241.6ZM568.165 241.24C568.165 240.387 567.978 239.727 567.605 239.26C567.232 238.793 566.692 238.56 565.985 238.56C565.372 238.56 564.825 238.787 564.345 239.24C563.865 239.693 563.558 240.36 563.425 241.24H568.165Z" fill="white"/>
</g>
<line x1="32" y1="8.74228e-08" x2="32" y2="273" stroke="white" stroke-width="4"/>
<line x1="547" y1="272" x2="30" y2="272" stroke="white" stroke-width="4"/>
<defs>
<filter id="filter0_d" x="44.4004" y="294.52" width="46.7722" height="21.22" filterUnits="userSpaceOnUse" color-interpolation-filters="sRGB">
<feFlood flood-opacity="0" result="BackgroundImageFix"/>
<feColorMatrix in="SourceAlpha" type="matrix" values="0 0 0 0 0 0 0 0 0 0 0 0 0 0 0 0 0 0 127 0"/>
<feOffset dy="2"/>
<feGaussianBlur stdDeviation="2"/>
<feColorMatrix type="matrix" values="0 0 0 0 0 0 0 0 0 0 0 0 0 0 0 0 0 0 0.25 0"/>
<feBlend mode="normal" in2="BackgroundImageFix" result="effect1_dropShadow"/>
<feBlend mode="normal" in="SourceGraphic" in2="effect1_dropShadow" result="shape"/>
</filter>
<filter id="filter1_d" x="0.900391" y="245.02" width="25.9378" height="21.22" filterUnits="userSpaceOnUse" color-interpolation-filters="sRGB">
<feFlood flood-opacity="0" result="BackgroundImageFix"/>
<feColorMatrix in="SourceAlpha" type="matrix" values="0 0 0 0 0 0 0 0 0 0 0 0 0 0 0 0 0 0 127 0"/>
<feOffset dy="2"/>
<feGaussianBlur stdDeviation="2"/>
<feColorMatrix type="matrix" values="0 0 0 0 0 0 0 0 0 0 0 0 0 0 0 0 0 0 0.25 0"/>
<feBlend mode="normal" in2="BackgroundImageFix" result="effect1_dropShadow"/>
<feBlend mode="normal" in="SourceGraphic" in2="effect1_dropShadow" result="shape"/>
</filter>
<filter id="filter2_d" x="0.359375" y="117.02" width="27.3372" height="21.22" filterUnits="userSpaceOnUse" color-interpolation-filters="sRGB">
<feFlood flood-opacity="0" result="BackgroundImageFix"/>
<feColorMatrix in="SourceAlpha" type="matrix" values="0 0 0 0 0 0 0 0 0 0 0 0 0 0 0 0 0 0 127 0"/>
<feOffset dy="2"/>
<feGaussianBlur stdDeviation="2"/>
<feColorMatrix type="matrix" values="0 0 0 0 0 0 0 0 0 0 0 0 0 0 0 0 0 0 0.25 0"/>
<feBlend mode="normal" in2="BackgroundImageFix" result="effect1_dropShadow"/>
<feBlend mode="normal" in="SourceGraphic" in2="effect1_dropShadow" result="shape"/>
</filter>
<filter id="filter3_d" x="0.5" y="164.02" width="27.1972" height="21.22" filterUnits="userSpaceOnUse" color-interpolation-filters="sRGB">
<feFlood flood-opacity="0" result="BackgroundImageFix"/>
<feColorMatrix in="SourceAlpha" type="matrix" values="0 0 0 0 0 0 0 0 0 0 0 0 0 0 0 0 0 0 127 0"/>
<feOffset dy="2"/>
<feGaussianBlur stdDeviation="2"/>
<feColorMatrix type="matrix" values="0 0 0 0 0 0 0 0 0 0 0 0 0 0 0 0 0 0 0.25 0"/>
<feBlend mode="normal" in2="BackgroundImageFix" result="effect1_dropShadow"/>
<feBlend mode="normal" in="SourceGraphic" in2="effect1_dropShadow" result="shape"/>
</filter>
<filter id="filter4_d" x="0.679688" y="204.02" width="27.0172" height="21.22" filterUnits="userSpaceOnUse" color-interpolation-filters="sRGB">
<feFlood flood-opacity="0" result="BackgroundImageFix"/>
<feColorMatrix in="SourceAlpha" type="matrix" values="0 0 0 0 0 0 0 0 0 0 0 0 0 0 0 0 0 0 127 0"/>
<feOffset dy="2"/>
<feGaussianBlur stdDeviation="2"/>
<feColorMatrix type="matrix" values="0 0 0 0 0 0 0 0 0 0 0 0 0 0 0 0 0 0 0.25 0"/>
<feBlend mode="normal" in2="BackgroundImageFix" result="effect1_dropShadow"/>
<feBlend mode="normal" in="SourceGraphic" in2="effect1_dropShadow" result="shape"/>
</filter>
<filter id="filter5_d" x="0.480469" y="70.0195" width="27.2172" height="21.22" filterUnits="userSpaceOnUse" color-interpolation-filters="sRGB">
<feFlood flood-opacity="0" result="BackgroundImageFix"/>
<feColorMatrix in="SourceAlpha" type="matrix" values="0 0 0 0 0 0 0 0 0 0 0 0 0 0 0 0 0 0 127 0"/>
<feOffset dy="2"/>
<feGaussianBlur stdDeviation="2"/>
<feColorMatrix type="matrix" values="0 0 0 0 0 0 0 0 0 0 0 0 0 0 0 0 0 0 0.25 0"/>
<feBlend mode="normal" in2="BackgroundImageFix" result="effect1_dropShadow"/>
<feBlend mode="normal" in="SourceGraphic" in2="effect1_dropShadow" result="shape"/>
</filter>
<filter id="filter6_d" x="0.919922" y="23.0195" width="26.7772" height="21.22" filterUnits="userSpaceOnUse" color-interpolation-filters="sRGB">
<feFlood flood-opacity="0" result="BackgroundImageFix"/>
<feColorMatrix in="SourceAlpha" type="matrix" values="0 0 0 0 0 0 0 0 0 0 0 0 0 0 0 0 0 0 127 0"/>
<feOffset dy="2"/>
<feGaussianBlur stdDeviation="2"/>
<feColorMatrix type="matrix" values="0 0 0 0 0 0 0 0 0 0 0 0 0 0 0 0 0 0 0.25 0"/>
<feBlend mode="normal" in2="BackgroundImageFix" result="effect1_dropShadow"/>
<feBlend mode="normal" in="SourceGraphic" in2="effect1_dropShadow" result="shape"/>
</filter>
<filter id="filter7_d" x="491.68" y="299.02" width="47.0522" height="21.22" filterUnits="userSpaceOnUse" color-interpolation-filters="sRGB">
<feFlood flood-opacity="0" result="BackgroundImageFix"/>
<feColorMatrix in="SourceAlpha" type="matrix" values="0 0 0 0 0 0 0 0 0 0 0 0 0 0 0 0 0 0 127 0"/>
<feOffset dy="2"/>
<feGaussianBlur stdDeviation="2"/>
<feColorMatrix type="matrix" values="0 0 0 0 0 0 0 0 0 0 0 0 0 0 0 0 0 0 0.25 0"/>
<feBlend mode="normal" in2="BackgroundImageFix" result="effect1_dropShadow"/>
<feBlend mode="normal" in="SourceGraphic" in2="effect1_dropShadow" result="shape"/>
</filter>
<filter id="filter8_d" x="498.539" y="231.66" width="75.385" height="21.58" filterUnits="userSpaceOnUse" color-interpolation-filters="sRGB">
<feFlood flood-opacity="0" result="BackgroundImageFix"/>
<feColorMatrix in="SourceAlpha" type="matrix" values="0 0 0 0 0 0 0 0 0 0 0 0 0 0 0 0 0 0 127 0"/>
<feOffset dy="2"/>
<feGaussianBlur stdDeviation="2"/>
<feColorMatrix type="matrix" values="0 0 0 0 0 0 0 0 0 0 0 0 0 0 0 0 0 0 0.25 0"/>
<feBlend mode="normal" in2="BackgroundImageFix" result="effect1_dropShadow"/>
<feBlend mode="normal" in="SourceGraphic" in2="effect1_dropShadow" result="shape"/>
</filter>
</defs>
</svg>
