<svg width="49" height="49" viewBox="0 0 49 49" fill="none" xmlns="http://www.w3.org/2000/svg">
<g clip-path="url(#clip0)">
<path d="M46.1347 21.8168C44.9581 10.1471 35.1059 1.03809 23.126 1.03809C11.1461 1.03809 1.29391 10.1471 0.117188 21.8168H46.1347Z" fill="#67E5EE"/>
<path d="M0.475626 19.4912C0.312606 20.284 0.188855 21.0912 0.109375 21.9114H46.1419C46.0625 21.0911 45.9388 20.284 45.7757 19.4912H0.475626Z" fill="#31D9DD"/>
<path d="M46.125 21.7227H0.128282C0.0440822 22.5254 0 23.34 0 24.165C0 26.5255 0.354546 28.8029 1.01172 30.9481L2.9706 35.5094C6.93734 42.542 14.4768 47.2917 23.1267 47.2917C35.8992 47.2917 46.2533 36.9375 46.2533 24.165C46.2533 23.34 46.2093 22.5254 46.125 21.7227Z" fill="#4B4A55"/>
<path d="M46.125 21.7227H0.128282C0.0440822 22.5254 0 23.34 0 24.165C0 26.5255 0.354546 28.8029 1.01172 30.9481L2.9706 35.5094C6.93734 42.542 14.4768 47.2917 23.1267 47.2917C35.8992 47.2917 46.2533 36.9375 46.2533 24.165C46.2533 23.34 46.2093 22.5254 46.125 21.7227Z" fill="#74727F"/>
<path d="M29.7066 21.7227H0.128282C0.0440822 22.5254 0 23.34 0 24.165C0 26.5255 0.354546 28.8029 1.01172 30.9481L2.9706 35.5094C6.93734 42.542 14.4768 47.2917 23.1267 47.2917C26.1582 47.2917 29.053 46.7075 31.706 45.647C21.7328 41.6629 21.2441 27.1595 29.7066 21.7227Z" fill="#5F5E6A"/>
<path d="M8.87129 26.0361C8.61105 26.057 8.35977 25.9763 8.16135 25.808C5.85189 23.8487 2.88064 23.0975 0.00641883 23.6544C0.00283184 23.8243 0 23.9944 0 24.1652C0 24.6263 0.0151031 25.0838 0.0417224 25.5382C0.610921 25.4087 1.20211 25.338 1.80992 25.338C6.20399 25.338 9.7788 28.9128 9.7788 33.3068C9.7788 36.0717 8.36269 38.5114 6.21833 39.941C6.87617 40.6458 7.57705 41.3096 8.31767 41.9277C10.9269 39.9531 12.616 36.8237 12.616 33.3068C12.616 30.3568 11.4273 27.6796 9.5043 25.7277C9.33855 25.9064 9.11587 26.0161 8.87129 26.0361Z" fill="#21212B"/>
<path d="M12.6164 33.3067C12.6164 30.3567 11.4277 27.6795 9.50468 25.7276C9.33883 25.9063 9.11625 26.0159 8.87158 26.036C8.61133 26.057 8.36005 25.9763 8.16164 25.808C6.78631 24.6412 5.17641 23.903 3.49203 23.6143V23.7832C3.49203 23.7832 3.61286 24.2236 3.42794 24.4985C3.35224 24.6109 3.32741 24.75 3.3781 24.8757C3.44342 25.0374 3.50015 25.2676 3.44125 25.5065C7.05562 26.2613 9.77909 29.4717 9.77909 33.3068C9.77909 36.0717 8.36298 38.5114 6.21862 39.941C6.87646 40.6458 7.57733 41.3096 8.31795 41.9276C10.9273 39.953 12.6164 36.8235 12.6164 33.3067Z" fill="black"/>
<path d="M40.6417 22.96C40.5819 23.1964 40.4392 23.3995 40.2343 23.5344C40.0172 23.6775 39.7574 23.7274 39.503 23.6748C36.5989 23.0797 33.6149 23.8142 31.3149 25.6904C29.0123 27.5689 27.6917 30.3448 27.6917 33.3066C27.6917 33.8288 27.2782 34.2552 26.7617 34.2785C27.2548 39.7832 31.8927 44.1126 37.5235 44.1126C43.4821 44.1126 48.3296 39.2651 48.3296 33.3066C48.3296 28.4319 45.0847 24.3014 40.6417 22.96ZM37.5235 41.2754C33.1296 41.2754 29.5548 37.7006 29.5548 33.3066C29.5548 28.9127 33.1296 25.3379 37.5235 25.3379C41.9177 25.3379 45.4924 28.9127 45.4924 33.3066C45.4924 37.7006 41.9176 41.2754 37.5235 41.2754Z" fill="#21212B"/>
<path d="M37.5235 44.1124C39.2054 44.1124 40.7986 43.7261 42.2193 43.0377C41.1966 42.8932 41.0848 42.1923 41.1334 41.7153C41.1578 41.4756 41.0374 41.2393 40.8234 41.1289C40.6163 41.0219 40.501 40.8754 40.4423 40.7192C39.5377 41.0767 38.5537 41.2753 37.5235 41.2753C33.1296 41.2753 29.5548 37.7005 29.5548 33.3065C29.5548 29.9205 31.6784 27.0229 34.6631 25.8708L33.9409 24.1514C33.0039 24.5201 32.1177 25.0354 31.3149 25.6902C29.0124 27.5686 27.6917 30.3446 27.6917 33.3064C27.6917 33.8286 27.2782 34.255 26.7617 34.2783C27.2547 39.783 31.8927 44.1124 37.5235 44.1124Z" fill="black"/>
<path d="M37.5226 42.0853C32.6822 42.0853 28.7441 38.1473 28.7441 33.3068C28.7441 28.4664 32.6822 24.5283 37.5226 24.5283C42.3631 24.5283 46.3012 28.4664 46.3012 33.3068C46.3012 38.1473 42.3631 42.0853 37.5226 42.0853ZM37.5226 26.1478C33.5751 26.1478 30.3636 29.3593 30.3636 33.3068C30.3636 37.2543 33.5751 40.4659 37.5226 40.4659C41.4702 40.4659 44.6817 37.2544 44.6817 33.3068C44.6818 29.3593 41.4702 26.1478 37.5226 26.1478Z" fill="#AF7FDF"/>
<path d="M40.8243 41.1286C40.0718 40.74 40.5273 39.8291 40.5273 39.8291L40.5179 39.8069C39.6065 40.2283 38.5929 40.4652 37.5245 40.4652C33.5769 40.4652 30.3654 37.2537 30.3654 33.3062C30.3654 30.2555 32.2842 27.646 34.9776 26.617L34.3497 25.1221C31.0739 26.3972 28.7461 29.5849 28.7461 33.3062C28.7461 38.1466 32.6841 42.0847 37.5246 42.0847C38.7783 42.0847 39.971 41.82 41.0509 41.3444C40.997 41.2547 40.9207 41.1785 40.8243 41.1286Z" fill="#9F66D8"/>
<path d="M1.81084 24.5283C1.19303 24.5283 0.589944 24.5929 0.0078125 24.7148C0.0206502 25.2666 0.053877 25.8132 0.104756 26.3548C0.651866 26.2204 1.22286 26.1478 1.81084 26.1478C5.75842 26.1478 8.96991 29.3593 8.96991 33.3068C8.96991 35.8341 7.65235 38.0581 5.66922 39.3324C6.02848 39.7457 6.4021 40.1461 6.7894 40.5328C9.08319 38.9476 10.5893 36.3 10.5893 33.3068C10.5894 28.4664 6.6513 24.5283 1.81084 24.5283Z" fill="#AF7FDF"/>
<path d="M3.35987 24.665C3.34665 24.7349 3.35128 24.8072 3.37884 24.8755C3.51184 25.2047 3.6103 25.8171 2.76669 26.2111C2.76575 26.2116 2.76462 26.2124 2.76367 26.2128C6.26222 26.6804 8.97021 29.6822 8.97021 33.3066C8.97021 35.8339 7.65265 38.0578 5.66951 39.3322C6.02878 39.7454 6.40239 40.1458 6.78969 40.5326C9.08348 38.9473 10.5896 36.2997 10.5896 33.3066C10.5896 28.9945 7.46433 25.3987 3.35987 24.665Z" fill="#9F66D8"/>
<path d="M38.7058 34.495C39.3621 33.8387 39.3621 32.7746 38.7058 32.1183C38.0495 31.4619 36.9853 31.4619 36.329 32.1183C35.6727 32.7746 35.6727 33.8387 36.329 34.495C36.9853 35.1514 38.0495 35.1514 38.7058 34.495Z" fill="#4B4A55"/>
<path d="M28.7177 13.0771C28.3943 12.6488 28.4795 12.0395 28.9078 11.7162L34.2848 7.65692L31.5018 6.89648C30.9842 6.75508 30.6792 6.22071 30.8207 5.70315C30.962 5.18549 31.4961 4.88031 32.014 5.022L34.975 5.83105C34.9835 5.83341 34.992 5.83577 35.0004 5.83832C36.4591 6.2798 36.8003 8.1929 35.5837 9.11136L30.0787 13.2673C29.6503 13.5906 29.041 13.5052 28.7177 13.0771Z" fill="#EEEFEB"/>
<path d="M26.7183 34.4528C26.0854 34.4528 25.5723 33.9397 25.5723 33.3068C25.5723 25.7573 32.5197 20.0776 39.9297 21.5981C40.5497 21.7252 40.9492 22.3309 40.8221 22.9509C40.6949 23.5711 40.0889 23.9713 39.4692 23.8433C33.4683 22.6129 27.8644 27.2177 27.8644 33.3068C27.8644 33.9397 27.3512 34.4528 26.7183 34.4528Z" fill="#EEEFEB"/>
<path d="M32.7928 24.889L31.9296 22.749C29.8716 23.8455 28.153 25.5295 27.0234 27.5957C27.0286 27.5935 28.509 26.9631 29.0148 28.7339C29.8888 27.1164 31.2084 25.7844 32.7928 24.889Z" fill="#D6D6D0"/>
<path d="M32.9597 23.0318C32.5047 23.0318 32.0743 22.7591 31.8951 22.3107L28.1407 12.9155C27.9059 12.3277 28.1919 11.6609 28.7796 11.4259C29.3673 11.191 30.0342 11.4771 30.2692 12.0649L34.0236 21.4601C34.2584 22.0479 33.9724 22.7147 33.3847 22.9497C33.2452 23.0054 33.1013 23.0318 32.9597 23.0318Z" fill="#9945DB"/>
<path d="M30.9516 16.8001C31.3927 16.6238 31.8717 16.7031 32.2277 16.9659L30.2692 12.0648C30.0343 11.477 29.3674 11.191 28.7797 11.4259C28.192 11.6608 27.9059 12.3276 28.1407 12.9154L30.1277 17.8877C30.1785 17.4166 30.4809 16.9883 30.9516 16.8001Z" fill="#8035C9"/>
<path d="M31.5078 15.8139C31.5078 17.2909 33.8339 18.4882 36.7032 18.4882V13.1396C33.8339 13.1396 31.5078 14.3369 31.5078 15.8139Z" fill="#D6D6D0"/>
<path d="M31.5078 15.8133C31.5078 17.2903 33.8339 18.4876 36.7032 18.4876V15.8133C34.4412 15.8133 32.5179 15.4412 31.8046 14.9219C31.6131 15.2008 31.5078 15.5007 31.5078 15.8133Z" fill="#C6C6C1"/>
<path d="M36.7042 19.2982C36.257 19.2982 35.8945 18.9357 35.8945 18.4885V13.1398C35.8945 12.6926 36.257 12.3301 36.7042 12.3301C37.1515 12.3301 37.514 12.6926 37.514 13.1398V18.4885C37.514 18.9357 37.1515 19.2982 36.7042 19.2982Z" fill="#EEEFEB"/>
<path d="M36.7042 16.6232C36.257 16.6232 35.8945 16.2607 35.8945 15.8135V18.4878C35.8945 18.9349 36.257 19.2975 36.7042 19.2975C37.1515 19.2975 37.514 18.935 37.514 18.4878V15.8135C37.514 16.2606 37.1515 16.6232 36.7042 16.6232Z" fill="#D6D6D0"/>
<path d="M37.5241 34.8545C36.9099 34.8545 36.3288 34.4862 36.0869 33.881L31.523 22.4595C31.2059 21.6661 31.5922 20.7657 32.3856 20.4488C33.1789 20.1317 34.0794 20.5179 34.3964 21.3113L38.9605 32.7328C39.2776 33.5263 38.8913 34.4266 38.0979 34.7436C37.9096 34.8188 37.7152 34.8545 37.5241 34.8545Z" fill="#D6D6D0"/>
<path d="M34.5792 25.8926C35.2018 25.6438 35.8829 25.7878 36.352 26.205L34.3964 21.3113C34.0794 20.5179 33.1789 20.1317 32.3856 20.4488C31.5922 20.7658 31.2059 21.6661 31.523 22.4595L33.5045 27.4182C33.5296 26.7628 33.931 26.1517 34.5792 25.8926Z" fill="#C6C6C1"/>
<path d="M37.5238 35.7976C36.1505 35.7976 35.0332 34.6804 35.0332 33.307C35.0332 31.9337 36.1505 30.8164 37.5238 30.8164C38.8971 30.8164 40.0144 31.9337 40.0144 33.307C40.0144 34.6804 38.8971 35.7976 37.5238 35.7976ZM37.5238 32.4358C37.0434 32.4358 36.6526 32.8266 36.6526 33.307C36.6526 33.7874 37.0435 34.1782 37.5238 34.1782C38.0042 34.1782 38.395 33.7874 38.395 33.307C38.395 32.8266 38.0042 32.4358 37.5238 32.4358Z" fill="#EEEFEB"/>
<path d="M9.53461 24.1908C6.72052 21.8033 3.32751 21.0183 0.157268 21.4828C0.0681598 22.2545 0.0170923 23.0377 0.00585938 23.8306C2.69252 23.2983 5.62875 23.8829 8.05177 25.9385C8.5344 26.3481 9.25784 26.2887 9.66714 25.8061C10.0764 25.3234 10.0172 24.6004 9.53461 24.1908Z" fill="#EEEFEB"/>
<path d="M9.53353 24.191C7.91646 22.8191 6.10824 21.9773 4.26103 21.5967C4.27 21.611 5.16335 23.0419 3.49219 23.783C5.08481 24.0578 6.65308 24.7531 8.05059 25.9388C8.53323 26.3484 9.25667 26.289 9.66597 25.8064C10.0754 25.3237 10.0161 24.6006 9.53353 24.191Z" fill="#D6D6D0"/>
<path d="M13.0189 33.3711L5.32511 32.5355C5.01228 32.5015 4.88834 32.1123 5.12395 31.9037L13.0722 24.865L12.3196 22.4697L1.49023 32.0598L2.55548 34.5402L13.0439 35.6794C12.9269 35.3005 12.8636 34.8982 12.8636 34.4813C12.8637 34.0964 12.9186 33.7242 13.0189 33.3711Z" fill="#9945DB"/>
<path d="M12.8635 34.4818C12.8635 34.0968 12.9184 33.7247 13.0188 33.3715L8.96011 32.9307C8.96011 32.9307 10.164 34.0718 8.71289 35.2094L13.0437 35.6798C12.9268 35.3009 12.8635 34.8987 12.8635 34.4818Z" fill="#8035C9"/>
<path d="M6.33789 27.7656C6.33789 27.7656 7.70133 27.7301 7.8583 29.4809L13.0707 24.865L12.3181 22.4697L6.33789 27.7656Z" fill="#8035C9"/>
<path d="M1.8105 31.626C1.61878 31.626 1.43528 31.6597 1.26367 31.7188C1.63106 32.7823 2.07358 33.8106 2.58548 34.7975C3.12353 34.5173 3.49148 33.9554 3.49148 33.3069C3.49138 32.3786 2.73887 31.626 1.8105 31.626Z" fill="#D6D6D0"/>
<path d="M1.80992 30.8164C1.53079 30.8164 1.26252 30.8632 1.01172 30.9484C1.17049 31.4666 1.34739 31.9768 1.54089 32.4789C1.62575 32.4512 1.716 32.4358 1.80992 32.4358C2.29029 32.4358 2.68109 32.8266 2.68109 33.307C2.68109 33.6372 2.49645 33.925 2.22497 34.0727C2.45699 34.5614 2.70591 35.0406 2.97059 35.5096C3.76068 35.0915 4.30052 34.2613 4.30052 33.3069C4.30052 31.9337 3.18326 30.8164 1.80992 30.8164Z" fill="#EEEFEB"/>
<path d="M31.3639 18.2574C30.8799 17.85 30.1566 17.9121 29.7491 18.3964L19.1055 31.0455C19.7682 31.4665 20.3013 32.0735 20.6308 32.7928L31.5029 19.8722C31.9104 19.388 31.8482 18.6649 31.3639 18.2574Z" fill="#AF7FDF"/>
<path d="M23.326 26.0303L19.1055 31.046C19.7682 31.467 20.3013 32.074 20.6308 32.7933L25.1534 27.4185C23.1844 27.4184 23.326 26.0303 23.326 26.0303Z" fill="#9F66D8"/>
<path d="M30.2449 15.1669C29.8873 14.6446 29.174 14.5108 28.6519 14.8684L14.9238 24.2634L15.6421 26.5494L29.9463 16.7599C30.4686 16.4024 30.6024 15.6893 30.2449 15.1669Z" fill="#AF7FDF"/>
<path d="M18.6358 21.7227L14.9238 24.263L15.6421 26.549L20.193 23.4344C18.2509 23.2438 18.6358 21.7227 18.6358 21.7227Z" fill="#9F66D8"/>
<path d="M10.8908 17.0044C10.7519 17.063 10.6102 17.1112 10.4668 17.15L14.8199 31.0049C15.4357 30.6295 16.1586 30.413 16.931 30.413C16.9667 30.413 17.0018 30.4148 17.0373 30.4157L12.5977 16.2852L10.8908 17.0044Z" fill="#9945DB"/>
<path d="M21.1823 34.8444C21.3767 32.5095 19.6415 30.4591 17.3066 30.2648C14.9717 30.0704 12.9213 31.8056 12.727 34.1405C12.5326 36.4754 14.2678 38.5257 16.6027 38.7201C18.9375 38.9145 20.9879 37.1793 21.1823 34.8444Z" fill="#D6D6D0"/>
<path d="M18.5875 38.3859L16.6179 33.7347C15.4587 33.3329 15.4364 32.4031 15.5513 31.8256C15.6045 31.558 15.4891 31.2871 15.2693 31.1255C15.1094 31.0078 15.0149 30.869 14.963 30.7256C13.6128 31.4349 12.6914 32.8499 12.6914 34.4811C12.6914 36.823 14.5899 38.7215 16.9318 38.7215C17.5193 38.7215 18.0788 38.6019 18.5875 38.3859Z" fill="#C6C6C1"/>
<path d="M31.3273 7.29L25.4932 8.85449C24.8219 9.0345 24.1316 8.63616 23.9515 7.96482C23.7714 7.29349 24.1698 6.60318 24.8411 6.42317L30.6751 4.85868C31.3464 4.67867 32.0367 5.07701 32.2167 5.74835C32.3969 6.41968 31.9986 7.10999 31.3273 7.29Z" fill="#4B4A55"/>
<path d="M30.5189 4.26102C29.8475 4.44103 29.4492 5.13134 29.6292 5.80277L29.9494 6.99658C30.1294 7.66791 30.8197 8.06626 31.491 7.88625C32.1624 7.70623 32.5607 7.01593 32.3807 6.3445L32.0605 5.15069C31.8805 4.47936 31.1902 4.08101 30.5189 4.26102Z" fill="#74727F"/>
<path d="M10.8919 17.1259C10.2163 17.4106 9.47817 17.4606 8.78777 17.2895C8.78768 17.2941 8.78711 17.2984 8.78711 17.303C8.78711 18.2313 9.53962 18.9839 10.468 18.9839C11.3964 18.9839 12.1489 18.2313 12.1489 17.303C12.1489 17.0719 12.1021 16.8518 12.0178 16.6514L10.8919 17.1259Z" fill="#4B4A55"/>
<path d="M16.9311 39.5309C14.1464 39.5309 11.8809 37.2654 11.8809 34.4808C11.8809 31.6961 14.1463 29.4307 16.9311 29.4307C19.7157 29.4307 21.9811 31.6961 21.9811 34.4808C21.9812 37.2655 19.7157 39.5309 16.9311 39.5309ZM16.9311 31.0502C15.0393 31.0502 13.5003 32.5892 13.5003 34.4809C13.5003 36.3725 15.0393 37.9115 16.9311 37.9115C18.8227 37.9115 20.3617 36.3725 20.3617 34.4809C20.3617 32.5892 18.8227 31.0502 16.9311 31.0502Z" fill="#EEEFEB"/>
<path d="M18.902 39.1306L18.2706 37.6394C17.8589 37.8146 17.4062 37.9119 16.9311 37.9119C15.0393 37.9119 13.5003 36.3729 13.5003 34.4812C13.5003 33.1076 14.3122 31.9206 15.4809 31.3731C15.4303 31.2775 15.3588 31.1921 15.2686 31.1257C14.6736 30.6879 14.9769 29.957 15.0549 29.7939C13.1968 30.5403 11.8809 32.3594 11.8809 34.4812C11.8809 37.2658 14.1464 39.5313 16.9311 39.5313C17.63 39.5313 18.2961 39.3885 18.902 39.1306Z" fill="#D6D6D0"/>
<path d="M19.1378 41.8174L16.1846 34.7947C16.0113 34.3824 16.205 33.9077 16.6172 33.7344C17.0291 33.5611 17.5041 33.7546 17.6774 34.1669L20.6308 41.1897C20.8041 41.6019 20.6105 42.0766 20.1981 42.2499C19.7857 42.4233 19.3112 42.2295 19.1378 41.8174Z" fill="#363540"/>
<path d="M20.6311 41.1904L19.4734 38.4375C19.4522 39.1884 18.5755 39.5868 17.9961 39.1022L19.1383 41.8181C19.3118 42.2306 19.7864 42.424 20.1986 42.2507C20.6107 42.0773 20.8044 41.6025 20.6311 41.1904Z" fill="#21212B"/>
<path d="M21.4593 42.3138H18.3078C17.8605 42.3138 17.498 41.9513 17.498 41.5041C17.498 41.0568 17.8605 40.6943 18.3078 40.6943H21.4593C21.9066 40.6943 22.269 41.0568 22.269 41.5041C22.269 41.9512 21.9066 42.3138 21.4593 42.3138Z" fill="#74727F"/>
<path d="M19.7399 41.5041C19.7399 41.0568 20.1024 40.6943 20.5496 40.6943H18.3078C17.8605 40.6943 17.498 41.0568 17.498 41.5041C17.498 41.9512 17.8605 42.3138 18.3078 42.3138H20.5496C20.1024 42.3138 19.7399 41.9512 19.7399 41.5041Z" fill="#5F5E6A"/>
<path d="M17.0179 14.0247C16.4654 13.4009 15.7221 12.8242 14.8618 12.8242C13.7228 12.8242 11.9908 13.0489 10.8074 13.225C9.93233 13.3553 9.03993 13.291 8.19283 13.0359C7.45164 12.8126 6.70508 13.3675 6.70508 14.1416V15.0409C6.70508 15.7694 7.05745 16.453 7.65082 16.8757C8.59561 17.5488 9.8217 17.6842 10.8907 17.2338L13.9569 15.9416C14.5542 15.6899 15.1957 15.5602 15.8438 15.5602H16.3269C17.1228 15.5602 17.5455 14.6205 17.0179 14.0247Z" fill="#EEEFEB"/>
<path d="M11.8231 16.03C11.2296 15.6073 10.8773 14.9237 10.8773 14.1952V13.2959C10.8773 13.2679 10.8803 13.2408 10.8822 13.2133C10.8575 13.217 10.8316 13.2207 10.8074 13.2243C9.93233 13.3546 9.03993 13.2903 8.19283 13.0352C7.45164 12.8119 6.70508 13.3668 6.70508 14.1409V15.0402C6.70508 15.7688 7.05745 16.4524 7.65082 16.8751C8.59561 17.5481 9.8217 17.6835 10.8907 17.2331L12.6938 16.4732C12.3875 16.3698 12.0936 16.2227 11.8231 16.03Z" fill="#D6D6D0"/>
</g>
<defs>
<clipPath id="clip0">
<rect width="48.33" height="48.33" fill="white"/>
</clipPath>
</defs>
</svg>
