<svg width="43" height="43" viewBox="0 0 43 43" fill="none" xmlns="http://www.w3.org/2000/svg">
<g clip-path="url(#clip0)">
<path d="M38.6147 31.4043C40.2314 28.466 41.1521 25.0907 41.1521 21.5C41.1521 10.1361 31.9398 0.923828 20.5759 0.923828C15.3434 0.923828 10.5682 2.87798 6.93726 6.09491L5.48047 31.4043H38.6147Z" fill="#319DF5"/>
<path d="M5.48048 31.4043L5.25977 35.2389C9.0268 39.4356 14.4927 42.0762 20.5759 42.0762C28.3492 42.0762 35.1148 37.7653 38.6147 31.4043H5.48048Z" fill="#74727F"/>
<path d="M19.9463 31.4044C26.8366 31.4044 27.15 41.6901 20.2691 42.0481C20.1395 42.0548 20.0092 42.0589 19.8789 42.0633C20.1107 42.071 20.3431 42.0762 20.5767 42.0762C28.3499 42.0762 35.1156 37.7653 38.6156 31.4043H19.9463V31.4044Z" fill="#5F5E6A"/>
<path d="M5.33981 35.3274H10.0649C10.816 35.3274 11.4305 34.7128 11.4305 33.9618V32.5332H3.20703C3.83868 33.5256 4.55255 34.4605 5.33981 35.3274Z" fill="#5F5E6A"/>
<path d="M6.90973 33.9618V32.5332H3.20703C3.83868 33.5255 4.55255 34.4604 5.33981 35.3274H8.2754C7.52433 35.3274 6.90973 34.7129 6.90973 33.9618Z" fill="#4B4A55"/>
<path d="M28.9127 32.6475C28.9124 32.6477 28.9124 32.6479 28.9121 32.648V34.5277C28.9121 34.9678 29.2722 35.3278 29.7123 35.3278H37.5709C38.0111 35.3278 38.3711 34.9678 38.3711 34.5277V32.6475C36.437 32.6475 31.0775 32.6475 28.9127 32.6475Z" fill="#5F5E6A"/>
<path d="M28.9121 32.6481V34.5278C28.9121 34.9679 29.2722 35.3279 29.7123 35.3279H33.9744C33.135 34.4884 33.3448 33.7402 33.6203 33.297C33.7363 33.1105 33.6529 32.866 33.4448 32.7959C33.3313 32.7576 33.2334 32.7068 33.1483 32.6475C31.4921 32.6475 29.8821 32.6475 28.9128 32.6475C28.9125 32.6477 28.9124 32.6479 28.9121 32.6481Z" fill="#363540"/>
<path d="M0.350131 17.708C0.121022 18.9374 0 20.2048 0 21.5006C0 25.7065 1.26296 29.617 3.42891 32.8755H11.8003C11.7601 32.5722 11.7377 32.2634 11.7377 31.9492C11.7377 28.0825 14.8723 24.948 18.7389 24.948C22.6056 24.948 25.7401 28.0825 25.7401 31.9492C25.7401 32.2634 25.7178 32.5722 25.6776 32.8755H28.9116V17.708H0.350131Z" fill="#FFC743"/>
<path d="M0 21.4995C0 21.6975 0.00369531 21.8947 0.00932227 22.0914H5.78543V21.676C4.84078 19.8591 5.59882 18.7885 6.24516 18.2617C6.43522 18.1067 6.59017 17.9176 6.70271 17.707H0.350131C0.121022 18.9363 0 20.2037 0 21.4995H0Z" fill="#FBB031"/>
<path d="M39.9049 29.7943C39.1537 29.7943 38.5392 29.1797 38.5392 28.4286V24.2339C38.5392 23.4827 39.1537 22.8682 39.9049 22.8682H41.6207V22.8388C41.6207 20.7451 41.2506 18.6679 40.5274 16.7031L38.6361 11.5645C37.4093 8.23135 34.2342 6.0166 30.6824 6.0166H28.9121V32.875H40.3432C41.0487 32.875 41.6206 32.3031 41.6206 31.5977V29.7942H39.9049V29.7943Z" fill="#FFC743"/>
<path d="M38.3713 24.1498C38.3713 23.3987 38.9858 22.7842 39.7369 22.7842H41.6201C41.6202 22.8023 41.6207 22.8205 41.6207 22.8387C41.6207 20.745 41.2506 18.6678 40.5274 16.703L38.6361 11.5645C37.4093 8.23135 34.2342 6.0166 30.6824 6.0166H28.9121V19.4933C31.2841 22.102 34.2968 24.2487 38.3711 25.4587V24.1498H38.3713Z" fill="#4B4A55"/>
<path d="M33.725 10.6475C33.9002 10.478 33.9925 10.2417 33.9739 9.99864C33.8117 7.87274 36.0363 7.92221 36.0368 7.92221C34.5574 6.71678 32.6794 6.0166 30.6824 6.0166H28.9121V19.4933C29.9973 20.6868 31.2171 21.7832 32.6109 22.7377C32.6109 19.3651 32.6109 15.9456 32.6109 14.458C32.6108 12.0819 33.3072 11.0517 33.725 10.6475Z" fill="#363540"/>
<path d="M0.322266 17.8524H6.90866V8.67188H4.48881C2.40063 11.2871 0.93594 14.422 0.322266 17.8524Z" fill="black"/>
<path d="M15.8053 8.67188H6.9082V17.8524H17.2457V8.77946C16.7716 8.70866 16.2904 8.67188 15.8053 8.67188Z" fill="#21212B"/>
<path d="M26.048 15.7183C24.8528 13.8572 23.6561 12.4592 22.5872 11.4206C21.119 9.99405 19.2472 9.07811 17.2461 8.7793V17.8522H27.5447C27.014 17.1609 26.5164 16.4477 26.048 15.7183Z" fill="#363540"/>
<path d="M5.78512 21.6768H0.00195312C0.0368066 25.8155 1.29313 29.6624 3.4286 32.8752H6.90849V22.8002C6.90849 22.1797 6.40551 21.6768 5.78512 21.6768Z" fill="#F7991E"/>
<path d="M38.3711 24.1498V28.5125C38.3711 29.2637 38.9856 29.8782 39.7368 29.8782H41.6205V22.8387C41.6205 22.8205 41.62 22.8023 41.62 22.7842H39.7368C38.9856 22.7842 38.3711 23.3987 38.3711 24.1498Z" fill="#EEEFEB"/>
<path d="M38.3711 25.6621V28.5128C38.3711 29.2639 38.9856 29.8785 39.7368 29.8785H41.6205V27.0278H39.7368C38.9856 27.0278 38.3711 26.4133 38.3711 25.6621Z" fill="#D6D6D0"/>
<path d="M42.0959 14.7178H40.6896C40.1921 14.7178 39.7852 15.1085 39.7852 15.5859V19.0329C39.7852 19.5103 40.1921 19.901 40.6896 19.901H42.0959C42.5933 19.901 43.0003 19.5103 43.0003 19.0329V15.5859C43.0003 15.1085 42.5933 14.7178 42.0959 14.7178Z" fill="#EEEFEB"/>
<path d="M42.0959 17.6484H40.6896C40.1921 17.6484 39.7852 17.2577 39.7852 16.7803V19.0331C39.7852 19.5105 40.1921 19.9012 40.6896 19.9012H42.0959C42.5933 19.9012 43.0003 19.5105 43.0003 19.0331V16.7803C43.0003 17.2577 42.5933 17.6484 42.0959 17.6484Z" fill="#D6D6D0"/>
<path d="M18.7389 24.4229C14.7021 24.4229 11.4297 27.6953 11.4297 31.7321C11.4297 32.1209 11.4607 32.5022 11.5191 32.8745H13.7896C13.7048 32.507 13.6585 32.125 13.6585 31.7321C13.6585 28.9307 15.9375 26.6517 18.7389 26.6517C21.5403 26.6517 23.8193 28.9308 23.8193 31.7321C23.8193 32.125 23.773 32.507 23.6882 32.8745H25.9587C26.0172 32.5022 26.0482 32.1209 26.0482 31.7321C26.0482 27.6954 22.7757 24.4229 18.7389 24.4229Z" fill="#4B4A55"/>
<path d="M16.731 27.0665C16.7229 26.9482 16.6449 26.8416 16.528 26.8029C15.0728 26.3221 15.95 24.9746 15.95 24.9746C13.2968 26.0708 11.4297 28.6834 11.4297 31.7324C11.4297 32.1212 11.4607 32.5026 11.5191 32.8749H13.7896C13.7048 32.5073 13.6585 32.1254 13.6585 31.7324C13.6584 29.644 14.9255 27.8465 16.731 27.0665Z" fill="#363540"/>
<path d="M18.7394 36.9837C15.844 36.9837 13.4883 34.628 13.4883 31.7326C13.4883 28.8371 15.844 26.4814 18.7394 26.4814C21.6349 26.4814 23.9905 28.8371 23.9905 31.7326C23.9906 34.628 21.6349 36.9837 18.7394 36.9837ZM18.7394 28.7682C17.1049 28.7682 15.7751 30.098 15.7751 31.7326C15.7751 33.3671 17.1049 34.6969 18.7394 34.6969C20.3739 34.6969 21.7037 33.3671 21.7037 31.7326C21.7038 30.098 20.374 28.7682 18.7394 28.7682Z" fill="#21212B"/>
<path d="M19.8598 34.4663C21.3775 33.8523 22.11 32.1243 21.4961 30.6067C20.8822 29.0891 19.1542 28.3565 17.6366 28.9704C16.119 29.5843 15.3864 31.3123 16.0003 32.83C16.6142 34.3476 18.3422 35.0802 19.8598 34.4663Z" fill="#D6D6D0"/>
<path d="M15.7754 31.7326C15.7754 33.3671 17.1052 34.6969 18.7397 34.6969C19.3772 34.6969 19.968 34.4939 20.4519 34.1501C20.254 33.9173 20.2105 33.6218 20.2082 33.4237C20.2066 33.2928 20.1191 33.18 19.9943 33.1402C17.9315 32.4822 18.0175 30.6954 18.1296 30.0231C18.1531 29.8824 18.0746 29.7418 17.9406 29.693C17.5808 29.5623 17.4063 29.35 17.3325 29.124C16.4061 29.626 15.7754 30.6069 15.7754 31.7326Z" fill="#C6C6C1"/>
<path d="M18.7394 36.9837C15.844 36.9837 13.4883 34.628 13.4883 31.7326C13.4883 28.8371 15.844 26.4814 18.7394 26.4814C21.6349 26.4814 23.9905 28.8371 23.9905 31.7326C23.9906 34.628 21.6349 36.9837 18.7394 36.9837ZM18.7394 28.7682C17.1049 28.7682 15.7751 30.098 15.7751 31.7326C15.7751 33.3671 17.1049 34.6969 18.7394 34.6969C20.3739 34.6969 21.7037 33.3671 21.7037 31.7326C21.7038 30.098 20.374 28.7682 18.7394 28.7682Z" fill="#21212B"/>
<path d="M22.3391 35.55C21.4839 35.5494 21.3461 35.0994 21.3522 34.7909C21.3552 34.638 21.2447 34.5089 21.0938 34.4842C20.7859 34.4339 20.5844 34.3058 20.4516 34.1497C19.9676 34.4936 19.3769 34.6966 18.7394 34.6966C17.1049 34.6966 15.7751 33.3668 15.7751 31.7322C15.7751 30.6067 16.4058 29.6257 17.3322 29.1239C17.2512 28.8754 17.2921 28.6105 17.3487 28.4178C17.392 28.2703 17.316 28.1148 17.1744 28.055C16.6794 27.846 16.6699 27.4234 16.7274 27.1459C16.7454 27.0593 16.7221 26.9728 16.6715 26.9062C14.8014 27.7107 13.4883 29.5708 13.4883 31.7323C13.4883 34.6278 15.844 36.9835 18.7394 36.9835C20.1317 36.9833 21.3983 36.4376 22.3391 35.55Z" fill="black"/>
<path d="M18.7398 35.5509C16.6346 35.5509 14.9219 33.8382 14.9219 31.733C14.9219 29.6277 16.6346 27.915 18.7398 27.915C20.845 27.915 22.5577 29.6277 22.5577 31.733C22.5577 33.8381 20.845 35.5509 18.7398 35.5509ZM18.7398 29.6221C17.5759 29.6221 16.629 30.569 16.629 31.733C16.629 32.8969 17.5759 33.8438 18.7398 33.8438C19.9037 33.8438 20.8506 32.8968 20.8506 31.733C20.8506 30.5691 19.9037 29.6221 18.7398 29.6221Z" fill="#EEEFEB"/>
<path d="M18.7397 35.5503C19.7121 35.5503 20.6002 35.1844 21.275 34.5837C21.2294 34.5327 21.1667 34.4963 21.0942 34.4845C20.3274 34.3591 20.2122 33.7546 20.2083 33.4236C20.2077 33.3729 20.1938 33.325 20.1702 33.2829C19.7938 33.6304 19.2912 33.8432 18.7398 33.8432C17.5759 33.8432 16.629 32.8963 16.629 31.7324C16.629 30.8176 17.2141 30.0371 18.0295 29.7449C18.0039 29.7229 17.974 29.7051 17.9407 29.693C17.1855 29.4185 17.241 28.7859 17.349 28.4179C17.3725 28.3381 17.3601 28.2566 17.3222 28.1885C15.9171 28.7526 14.9219 30.128 14.9219 31.7324C14.9218 33.8375 16.6346 35.5503 18.7397 35.5503Z" fill="#D6D6D0"/>
<path d="M28.9121 19.2656V32.875H38.3711V25.231C34.2969 24.021 31.2841 21.8743 28.9121 19.2656Z" fill="#F7991E"/>
<path d="M32.6108 22.51C31.2171 21.5555 29.9973 20.4591 28.9121 19.2656V32.875H33.5732C33.5385 32.8406 33.4955 32.8129 33.4448 32.7958C32.5003 32.4775 32.6109 31.3078 32.6109 31.3078C32.6109 31.3078 32.6108 26.911 32.6108 22.51Z" fill="#ED8718"/>
<path d="M37.5395 17.283L36.1009 13.3072C35.1678 10.7282 32.7528 9.01465 30.0513 9.01465H28.9121V19.493C31.2841 22.1017 34.2969 24.2483 38.3711 25.4584V24.1496V22.0303C38.3711 20.4103 38.0896 18.8032 37.5395 17.283Z" fill="#363540"/>
<path d="M33.7249 10.6471C33.817 10.558 33.8854 10.4502 33.9277 10.3329C32.8347 9.49622 31.4833 9.01465 30.0513 9.01465H28.9121V19.493C29.9973 20.6865 31.2171 21.7828 32.6108 22.7374C32.6108 19.3647 32.6108 15.9452 32.6108 14.4577C32.6107 12.0815 33.3071 11.0514 33.7249 10.6471Z" fill="#21212B"/>
<path d="M31.7559 23.9725C31.2845 23.9725 30.9023 23.5903 30.9023 23.1189V21.1973C30.9023 20.7259 31.2845 20.3438 31.7559 20.3438C32.2273 20.3438 32.6094 20.7259 32.6094 21.1973V23.1189C32.6094 23.5903 32.2273 23.9725 31.7559 23.9725Z" fill="#FFC743"/>
<path d="M37.731 17.8522H37.7316C37.5579 17.2971 37.3505 16.7793 36.101 13.3072C35.1679 10.7282 32.7529 9.01465 30.0514 9.01465H28.9121V17.8522H33.0818C33.4217 17.8522 33.7289 18.0541 33.8637 18.3661L34.3047 19.3868C34.4394 19.6987 34.7467 19.9007 35.0865 19.9007H38.2078C38.1009 19.2072 37.9412 18.5224 37.731 17.8522Z" fill="#21212B"/>
<path d="M32.6109 14.4577C32.6109 12.0815 33.3073 11.0514 33.725 10.6471C33.8171 10.558 33.8855 10.4502 33.9277 10.3329C32.8348 9.49622 31.4834 9.01465 30.0514 9.01465H28.9121V17.8522H32.6109C32.6109 16.4068 32.6109 15.1949 32.6109 14.4577Z" fill="black"/>
<path d="M15.25 6.0166C19.5183 6.0166 23.4588 8.33247 25.5109 12.0752C25.656 12.3399 25.7927 12.5968 25.9199 12.8425C26.8076 14.5583 27.7915 16.2087 28.9113 17.7374V6.0166H15.25Z" fill="#4B4A55"/>
<path d="M25.656 11.8158C23.6917 8.23337 19.9198 6.0166 15.8342 6.0166H7.02536C6.10305 6.82428 5.25388 7.71325 4.48828 8.67202H15.8053C18.3373 8.67202 20.7706 9.6564 22.5867 11.4209C23.6556 12.4595 24.8523 13.8576 26.0475 15.7186C26.8972 17.0418 27.839 18.3144 28.9109 19.4932V17.2357C27.839 15.7724 26.8972 14.1927 26.0475 12.5503C25.9258 12.3151 25.7949 12.0692 25.656 11.8158Z" fill="#EEEFEB"/>
<path d="M4.48828 8.6721H6.85093C6.82406 8.56939 6.78794 8.46911 6.741 8.37329C6.03754 6.93699 7.02528 6.0166 7.02528 6.0166C6.10305 6.82436 5.25388 7.71334 4.48828 8.6721Z" fill="#D6D6D0"/>
</g>
<defs>
<clipPath id="clip0">
<rect width="43" height="43" fill="white"/>
</clipPath>
</defs>
</svg>
