<svg width="43" height="43" viewBox="0 0 43 43" fill="none" xmlns="http://www.w3.org/2000/svg">
<g clip-path="url(#clip0)">
<path d="M36.1248 6.10352H6.87521C3.19628 9.82092 0.923828 14.9328 0.923828 20.576C0.923828 31.94 10.1361 41.1522 21.5 41.1522C32.8639 41.1522 42.0762 31.94 42.0762 20.576C42.0762 14.9328 39.8037 9.82092 36.1248 6.10352Z" fill="#319DF5"/>
<path d="M25.9604 37.2916H17.0387C16.9329 37.2916 16.8307 37.2772 16.7324 37.2529V41.7258C16.7324 42.4294 17.3028 42.9997 18.0064 42.9997H24.9928C25.6963 42.9997 26.2667 42.4294 26.2667 41.7258V37.2529C26.1684 37.2772 26.0662 37.2916 25.9604 37.2916Z" fill="#363540"/>
<path d="M21.7085 41.7257V37.2916H17.0387C16.9329 37.2916 16.8307 37.2772 16.7324 37.2529V41.7258C16.7324 42.4294 17.3028 42.9997 18.0064 42.9997H22.9825C22.2788 42.9996 21.7085 42.4293 21.7085 41.7257Z" fill="#21212B"/>
<path d="M27.2339 36.2069C27.2339 35.5037 26.6638 34.9336 25.9606 34.9336H17.0389C16.3357 34.9336 15.7656 35.5036 15.7656 36.2069C15.7656 36.9101 16.3357 37.4802 17.0389 37.4802H25.9606C26.6638 37.4802 27.2339 36.9101 27.2339 36.2069Z" fill="#4B4A55"/>
<path d="M20.6718 36.2069C20.6718 35.5037 21.2418 34.9336 21.9451 34.9336H17.0389C16.3357 34.9336 15.7656 35.5036 15.7656 36.2069C15.7656 36.9101 16.3357 37.4802 17.0389 37.4802H21.9451C21.2419 37.4802 20.6718 36.9101 20.6718 36.2069Z" fill="#363540"/>
<path d="M36.4106 8.66181C36.4106 7.80475 36.3399 6.97952 36.206 6.18763C32.4706 2.37021 27.2622 0 21.4992 0C15.7363 0 10.5279 2.37021 6.79248 6.18763C6.65869 6.97952 6.58789 7.80475 6.58789 8.66181C6.58789 9.04529 6.60309 9.44203 6.63047 9.84818H36.368C36.3954 9.44211 36.4106 9.04529 36.4106 8.66181Z" fill="#EB5793"/>
<path d="M6.61914 9.65918C6.87773 14.1471 8.815 19.96 11.7559 24.4395C11.8279 24.4268 11.9018 24.419 11.9774 24.419H31.0223C31.0981 24.419 31.1718 24.4268 31.2439 24.4395C34.1847 19.96 36.1219 14.1471 36.3806 9.65918H6.61914Z" fill="#FFC743"/>
<path d="M7.77539 15.7891C8.67402 18.775 10.0446 21.8333 11.7559 24.44C11.9426 24.4071 31.083 24.4117 31.2439 24.44C32.9364 21.8621 34.2954 18.8427 35.1944 15.8882C29.9655 20.8177 12.7637 20.732 7.77539 15.7891Z" fill="#FBB031"/>
<path d="M11.1227 2.80625C10.5142 4.53113 10.1758 6.49619 10.1758 8.6619C10.1758 9.04537 10.1874 9.44211 10.2081 9.84826H32.7922C32.813 9.44211 32.8245 9.04537 32.8245 8.6619C32.8245 6.49628 32.4861 4.53113 31.8776 2.80625C28.8309 1.0231 25.2852 0 21.5002 0C17.7151 0 14.1694 1.0231 11.1227 2.80625Z" fill="#FFC743"/>
<path d="M10.1992 9.65918C10.3957 14.1471 11.8669 19.96 14.1003 24.4395C14.1551 24.4268 14.2111 24.419 14.2686 24.419H28.7321C28.7897 24.419 28.8457 24.4268 28.9004 24.4395C31.1338 19.96 32.6051 14.1471 32.8015 9.65918H10.1992Z" fill="#EEEFEB"/>
<path d="M31.3445 18.041C28.7262 18.9785 25.2952 19.5475 21.537 19.5475C17.7397 19.5475 14.2767 18.9665 11.6484 18.0117C12.2888 20.2534 13.1172 22.4626 14.0907 24.419H28.9108C29.88 22.4711 30.7052 20.2727 31.3445 18.041Z" fill="#D6D6D0"/>
<path d="M15.6318 0.850426C14.9281 2.98682 14.5195 5.62805 14.5195 8.66181C14.5195 9.04529 14.5267 9.44203 14.5395 9.84818H28.4598C28.4726 9.44203 28.4798 9.04529 28.4798 8.66181C28.4798 5.62805 28.0712 2.98682 27.3675 0.850426C25.5077 0.298061 23.5386 0 21.4996 0C19.4607 0 17.4915 0.298061 15.6318 0.850426Z" fill="#EEEFEB"/>
<path d="M14.5352 9.65918C14.6563 14.1471 15.563 19.96 16.9397 24.4395C16.9735 24.4268 17.008 24.419 17.0434 24.419H25.9584C25.9939 24.419 26.0284 24.4268 26.0622 24.4395C27.4388 19.96 28.3456 14.1471 28.4667 9.65918H14.5352Z" fill="#67E5EE"/>
<path d="M27.3794 19.0605C25.5857 19.3736 23.6116 19.5478 21.5368 19.5478C19.4331 19.5478 17.4325 19.3693 15.6191 19.0479C15.9826 20.9303 16.4258 22.7652 16.9331 24.4192H26.0679C26.5741 22.7689 27.0163 20.9384 27.3794 19.0605Z" fill="#31D9DD"/>
<path d="M19.5895 0.0891074C19.2928 2.34627 19.1172 5.257 19.1172 8.6619C19.1172 9.04537 19.1196 9.44211 19.124 9.84826H23.8769C23.8813 9.44211 23.8837 9.04537 23.8837 8.6619C23.8837 5.257 23.708 2.34627 23.4114 0.0891074C22.7821 0.0311582 22.145 0 21.5005 0C20.856 0 20.2189 0.0311582 19.5895 0.0891074Z" fill="#67E5EE"/>
<path d="M19.1211 9.65918C19.1624 14.1471 19.4721 19.96 19.9421 24.4395C19.9536 24.4268 19.9654 24.419 19.9776 24.419H23.0215C23.0336 24.419 23.0454 24.4268 23.0569 24.4395C23.527 19.96 23.8366 14.1471 23.878 9.65918H19.1211Z" fill="#EB5793"/>
<path d="M23.478 19.4941C22.8421 19.5281 22.1949 19.5475 21.5361 19.5475C20.8522 19.5475 20.1807 19.5268 19.5215 19.4902C19.6397 21.2171 19.7808 22.8948 19.9404 24.4189H19.9779H23.0219H23.0594C23.2188 22.896 23.3597 21.2197 23.478 19.4941Z" fill="#E7387F"/>
<path d="M31.0232 26.777H11.9784C11.2752 26.777 10.7051 26.207 10.7051 25.5038C10.7051 24.8006 11.2751 24.2305 11.9784 24.2305H31.0232C31.7264 24.2305 32.2965 24.8005 32.2965 25.5038C32.2965 26.207 31.7264 26.777 31.0232 26.777Z" fill="#EEEFEB"/>
<path d="M21.5008 25.5038C21.5008 24.8006 22.0708 24.2305 22.7741 24.2305H11.9784C11.2752 24.2305 10.7051 24.8005 10.7051 25.5038C10.7051 26.207 11.2751 26.777 11.9784 26.777H22.7741C22.0708 26.777 21.5008 26.207 21.5008 25.5038Z" fill="#D6D6D0"/>
<path d="M16.9969 35.9568C16.7186 35.9568 16.4548 35.7916 16.3424 35.5182L12.7428 26.7627C12.5942 26.4014 12.7667 25.988 13.128 25.8395C13.4895 25.6908 13.9027 25.8634 14.0513 26.2247L17.6509 34.9803C17.7995 35.3416 17.627 35.7549 17.2657 35.9034C17.1777 35.9396 17.0865 35.9568 16.9969 35.9568Z" fill="#D6D6D0"/>
<path d="M26.0061 35.9568C25.9164 35.9568 25.8253 35.9397 25.7374 35.9035C25.3761 35.7549 25.2036 35.3416 25.3522 34.9802L28.9518 26.2247C29.1005 25.8633 29.5141 25.691 29.875 25.8394C30.2363 25.988 30.4088 26.4013 30.2602 26.7627L26.6605 35.5182C26.5482 35.7916 26.2843 35.9568 26.0061 35.9568Z" fill="#D6D6D0"/>
<path d="M23.0365 35.9576C23.0078 35.9576 22.9789 35.9558 22.9498 35.9523C22.562 35.9049 22.286 35.5522 22.3334 35.1644L23.4031 26.4088C23.4504 26.021 23.8041 25.7448 24.1909 25.7924C24.5788 25.8398 24.8547 26.1926 24.8073 26.5804L23.7377 35.336C23.6939 35.6946 23.3887 35.9576 23.0365 35.9576Z" fill="#D6D6D0"/>
<path d="M19.9656 35.9567C19.6132 35.9567 19.3081 35.6937 19.2643 35.335L18.1947 26.5794C18.1474 26.1916 18.4233 25.8388 18.8111 25.7915C19.1994 25.7439 19.5517 26.0201 19.599 26.4078L20.6686 35.1634C20.716 35.5511 20.44 35.9039 20.0522 35.9513C20.0232 35.9549 19.9942 35.9567 19.9656 35.9567Z" fill="#D6D6D0"/>
</g>
<defs>
<clipPath id="clip0">
<rect width="43" height="43" fill="white"/>
</clipPath>
</defs>
</svg>
