<svg width="50" height="50" viewBox="0 0 50 50" fill="none" xmlns="http://www.w3.org/2000/svg">
<path d="M47.2979 16.1792L24.6728 24.6768L1.50975 17.7796C4.42344 7.98594 13.3904 0.749731 24.1543 0.518668C34.689 0.292523 43.7919 6.8443 47.2979 16.1792V16.1792Z" fill="#FFE400"/>
<path d="M8.41096 31.9584L0.521504 25.2811L0.521135 25.2815C0.520397 25.2514 0.519094 25.2215 0.51845 25.1915C0.463107 22.6134 0.815199 20.1216 1.51313 17.7758C3.0102 16.1842 5.12031 15.1711 7.47739 15.1205C12.1358 15.0205 15.9932 18.7158 16.0932 23.3743C16.1891 27.8407 12.7963 31.57 8.41096 31.9584Z" fill="#992610"/>
<path d="M7.85301 11.5773C7.96858 11.1823 9.88474 10.2421 11.7256 10.7808C12.7073 11.0681 13.2702 12.0968 12.983 13.0785C12.6957 14.0602 11.667 14.6232 10.6853 14.3359C8.84448 13.7973 7.73744 11.9724 7.85301 11.5773Z" fill="#A3EA6E"/>
<path d="M10.6878 14.3403C9.69145 14.0487 8.91068 13.3805 8.42176 12.7661C9.27494 12.3434 10.2628 12.1116 11.3635 12.0879C11.7681 12.0793 12.1869 12.0992 12.6078 12.1471C12.6429 12.1511 12.6786 12.1528 12.7138 12.152C12.8131 12.1499 12.9086 12.1284 12.9971 12.0914C13.0805 12.4066 13.0838 12.7472 12.9855 13.083C12.6983 14.0646 11.6695 14.6276 10.6878 14.3403V14.3403Z" fill="#85D249"/>
<path d="M7.32896 17.0226L8.65625 15.878L13.696 13.6625L18.7358 11.4471L20.4765 11.243C18.1798 12.2527 18.4795 15.7363 18.6339 16.807C18.7883 17.8777 20.434 20.5463 21.0515 21.9511C21.414 22.7758 21.6751 24.5169 21.8289 25.8143C21.1732 26.3453 20.4371 26.7993 19.6273 27.1552C18.8176 27.5112 17.9855 27.7467 17.1508 27.8707C16.2988 26.8801 15.1926 25.5106 14.8301 24.686C14.2126 23.2812 13.3591 20.2643 12.6745 19.4266C11.9898 18.5891 9.62572 16.013 7.32896 17.0226V17.0226Z" fill="#FFF9C2"/>
<path d="M17.1507 27.8709C20.8575 24.2995 16.8814 19.9477 16.5578 17.8444C16.2341 15.7412 15.8056 13.7658 14.0757 14.5263L13.696 13.6625L18.7358 11.4471L20.4766 11.243C18.1798 12.2527 18.4795 15.7363 18.6339 16.807C18.7883 17.8777 20.434 20.5463 21.0515 21.9511C21.414 22.7758 21.6751 24.5169 21.8289 25.8142C21.1732 26.3453 20.4371 26.7993 19.6273 27.1552C18.8175 27.5113 17.9854 27.7468 17.1507 27.8709Z" fill="#FFF688"/>
<path d="M13.5684 8.86122C13.8602 8.97486 14.0047 9.30352 13.8911 9.59533C13.4909 10.6233 13.6178 11.7818 14.2308 12.6988L14.4582 13.0389L12.728 13.7995L12.6205 13.4109C12.2342 12.0156 12.3093 10.533 12.8344 9.18391C12.9479 8.8921 13.2766 8.74768 13.5684 8.86122V8.86122Z" fill="#C04A27"/>
<path d="M12.3974 12.1209C12.4673 12.1273 12.5372 12.1334 12.6073 12.1413C12.6424 12.1453 12.678 12.147 12.7132 12.1462C12.9576 12.141 13.1805 12.0242 13.3248 11.8259C13.4476 11.6572 13.5741 11.4953 13.7036 11.3396C13.7788 11.8161 13.9553 12.2777 14.2311 12.6903L14.4585 13.0304L12.7283 13.791L12.6208 13.4024C12.504 12.9812 12.4301 12.552 12.3974 12.1209V12.1209Z" fill="#B2381B"/>
<path d="M14.4689 12.6627C15.4548 11.308 17.4743 9.38418 20.4809 10.5626C20.7884 10.683 20.7881 11.1192 20.4802 11.2386C19.661 11.5566 18.4938 12.2079 18.0541 13.429C17.949 13.721 17.6638 13.9082 17.3535 13.9C16.6495 13.8813 15.3817 13.9495 14.0795 14.5219C12.7772 15.0943 11.87 15.9823 11.4077 16.5137C11.204 16.7479 10.8733 16.8315 10.5871 16.7115C9.39008 16.2099 8.12097 16.6295 7.33297 17.0181C7.03683 17.1642 6.71527 16.8696 6.83431 16.5615C7.99896 13.5495 10.7818 13.3622 12.4465 13.5518C13.2324 13.6413 14.0034 13.3023 14.4689 12.6627V12.6627Z" fill="#FF4155"/>
<path d="M14.4354 13.6845C14.3159 13.4127 14.0361 13.2613 13.7559 13.2922C14.032 13.1396 14.2766 12.9269 14.4688 12.6627C15.4547 11.308 17.4742 9.38419 20.4809 10.5626C20.7884 10.683 20.7881 11.1192 20.4802 11.2386C19.661 11.5565 18.4938 12.2079 18.0541 13.429C17.9489 13.721 17.6638 13.9082 17.3535 13.9C16.685 13.8822 15.5085 13.9431 14.2767 14.4392C14.4798 14.2525 14.5525 13.951 14.4354 13.6845V13.6845Z" fill="#E80054"/>
<path d="M18.1416 22.0242C18.3753 22.0192 18.6068 22.0241 18.8362 22.0379C18.836 22.0283 18.835 22.0189 18.8348 22.0093C18.7503 18.0715 21.8739 14.8108 25.8116 14.7263C29.7493 14.6418 33.0099 17.7654 33.0945 21.7032C33.1753 25.4701 30.3198 28.6152 26.6249 28.9554C26.7023 29.3856 26.7476 29.8272 26.7573 30.278C26.8573 34.9365 23.162 38.794 18.5036 38.894C13.8452 38.994 9.98783 35.2986 9.88783 30.6402C9.78792 25.9817 13.4832 22.1242 18.1416 22.0242V22.0242Z" fill="#B2381B"/>
<path d="M44.895 35.3625C44.5927 35.3968 44.2865 35.4184 43.9764 35.4251C38.4849 35.543 33.9376 31.1866 33.8198 25.6951C33.7019 20.2035 38.0581 15.656 43.5496 15.5381C44.8704 15.5097 46.1362 15.7409 47.2993 16.1837C48.2334 18.6711 48.7718 21.3555 48.832 24.1627C48.9062 27.6176 48.2499 30.9177 47.007 33.9178L44.895 35.3625Z" fill="#992610"/>
<path d="M40.8893 2.33091L40.202 4.01485L38.5746 8.00251C38.1978 8.92573 37.6639 9.76753 37.0035 10.4936C36.3428 11.2198 35.5554 11.8312 34.6721 12.2936C33.716 12.7941 32.8729 13.4691 32.1808 14.2754C32.0268 14.4547 32.2046 14.7242 32.4304 14.6542L33.2136 14.4114C33.4214 14.347 33.5982 14.5741 33.4849 14.7597L32.6736 16.089L34.3105 16.4365C34.5485 16.487 34.5636 16.821 34.3312 16.8928L32.6978 17.3971L34.4291 19.6674C34.5768 19.861 34.3699 20.1244 34.1467 20.0266L31.6532 18.9341L31.1562 22.2975C31.1214 22.5337 30.7978 22.5745 30.7052 22.3545L29.7638 20.1146C29.6823 19.9208 29.4072 19.9222 29.3277 20.1168L27.9655 23.4546C30.5322 26.5482 34.505 28.1695 38.5032 27.7555L41.307 20.8858C41.6838 19.9626 41.8915 18.9876 41.9275 18.0065C41.9636 17.0253 41.829 16.0375 41.5214 15.0891C40.9064 13.1924 40.9822 11.1388 41.736 9.29284L43.3634 5.3051L44.0506 3.62115L40.8893 2.33091Z" fill="#60B550"/>
<path d="M40.8893 2.33091L40.2021 4.01485L38.5746 8.0025C37.8215 9.84874 37.7451 11.902 38.36 13.7988C38.9752 15.696 38.8992 17.7491 38.1456 19.5955L34.8863 27.5813C36.0631 27.8183 37.282 27.8818 38.5032 27.7555L41.307 20.8858C41.6838 19.9626 41.8915 18.9876 41.9275 18.0065C41.9636 17.0253 41.829 16.0375 41.5214 15.0891C40.9064 13.1924 40.9822 11.1388 41.736 9.29284L43.3634 5.30509L44.0506 3.62115L40.8893 2.33091Z" fill="#389F4D"/>
<path d="M40.5979 2.67672L44.0227 4.07454C44.2409 4.1636 44.4901 4.05893 44.5791 3.84063L44.9017 3.05026C44.9907 2.83205 44.886 2.58287 44.6677 2.49381L41.243 1.09608C41.0248 1.00701 40.7757 1.11169 40.6866 1.32999L40.3641 2.12036C40.275 2.33857 40.3797 2.58765 40.5979 2.67672Z" fill="#D85E41"/>
<path d="M42.8308 3.12681L43.1533 2.33645C43.2423 2.11824 43.1377 1.86906 42.9194 1.78L44.6672 2.49334C44.8854 2.58241 44.9901 2.83158 44.9011 3.04979L44.5786 3.84015C44.4895 4.05836 44.2403 4.16313 44.0221 4.07406L42.2743 3.36071C42.4925 3.44978 42.7417 3.34511 42.8308 3.12681V3.12681Z" fill="#C04A27"/>
<path d="M32.7106 38.206C28.0522 38.306 24.1948 34.6107 24.0948 29.9522C23.9948 25.2938 27.6901 21.4363 32.3485 21.3363C37.0068 21.2363 40.8643 24.9317 40.9643 29.5901C41.0643 34.2485 37.369 38.106 32.7106 38.206Z" fill="#B2381B"/>
<path d="M28.0663 48.6047L24.1301 45.2732C24.1286 45.2327 24.1263 45.1925 24.1254 45.1518C24.0388 41.1169 27.2394 37.7758 31.2742 37.6892C31.5585 37.6831 31.8389 37.695 32.1155 37.7207C32.0643 37.4915 32.0347 37.254 32.0295 37.0101C31.9868 35.0241 33.5623 33.3794 35.5484 33.3368C36.5566 33.3151 37.4762 33.711 38.1436 34.3654C39.3659 33.2971 40.9552 32.6351 42.7051 32.5975C44.3048 32.5632 45.7931 33.0559 47.0049 33.9159C43.7992 41.656 36.6808 47.3936 28.0664 48.6052L28.0663 48.6047Z" fill="#C04A27"/>
<path d="M39.2178 23.9693L41.2987 22.2649L43.7429 25.2491L41.662 26.9534L41.772 27.3337C42.53 29.9565 41.6521 32.7787 39.54 34.5086C38.7159 35.1835 37.5007 35.0626 36.8258 34.2386L33.1493 31.4327L31.1227 27.2755C30.4477 26.4514 30.5686 25.2362 31.3927 24.5613C33.5048 22.8314 36.4446 22.5266 38.8666 23.7866L39.2178 23.9693Z" fill="#E1EAF9"/>
<path d="M37.0958 31.5244C39.2079 29.7945 40.0859 26.9723 39.3278 24.3495L39.2179 23.9692L41.2987 22.2649L43.7429 25.2491L41.662 26.9534L41.772 27.3337C42.53 29.9565 41.6521 32.7787 39.54 34.5086C38.7159 35.1835 37.5007 35.0626 36.8258 34.2386L33.1493 31.4327L31.1227 27.2755L34.3816 31.2544C35.0566 32.0785 36.2718 32.1994 37.0958 31.5244V31.5244Z" fill="#C5DEF8"/>
<path d="M25.1519 32.1625L27.1785 36.3198L30.8551 39.1257C31.53 39.9498 32.7451 40.0707 33.5692 39.3957C34.3933 38.7207 34.5142 37.5056 33.8392 36.6815L31.8126 32.5243L28.136 29.7184C27.4611 28.8943 26.2459 28.7734 25.4219 29.4484C24.5978 30.1233 24.4769 31.3385 25.1519 32.1625V32.1625Z" fill="#E1EAF9"/>
<path d="M31.3943 33.6988L32.1014 33.1196L33.8384 36.683C34.5134 37.5071 34.3925 38.7223 33.5684 39.3972C32.7444 40.0722 31.5292 39.9513 30.8543 39.1272L27.703 36.7221L28.4101 36.1429C29.0851 36.967 30.3002 37.0879 31.1242 36.4129C31.9484 35.738 32.0693 34.5229 31.3943 33.6988V33.6988Z" fill="#C5DEF8"/>
<path d="M28.1363 29.7153L33.8394 36.6784C34.5144 37.5025 35.7295 37.6234 36.5536 36.9484C37.3776 36.2734 37.4986 35.0583 36.8236 34.2342L31.1204 27.2711C30.4454 26.447 29.2303 26.3261 28.4063 27.0011C27.5822 27.676 27.4613 28.8912 28.1363 29.7153Z" fill="#C5DEF8"/>
<path d="M40.5794 22.7717L43.0985 25.8472C43.3028 26.0967 43.6706 26.1333 43.9201 25.9289L44.3718 25.559C44.6212 25.3547 44.6578 24.9868 44.4534 24.7373L41.9344 21.6618C41.7301 21.4123 41.3622 21.3757 41.1128 21.5801L40.6611 21.9501C40.4117 22.1544 40.3752 22.5223 40.5794 22.7717Z" fill="#2A9DDD"/>
<path d="M42.4411 24.1177L42.8927 23.7478C43.1422 23.5435 43.1788 23.1756 42.9744 22.9262L44.4542 24.7327C44.6585 24.9822 44.6219 25.35 44.3725 25.5543L43.9209 25.9243C43.6714 26.1286 43.3036 26.092 43.0993 25.8426L41.6195 24.0361C41.8238 24.2854 42.1916 24.322 42.4411 24.1177V24.1177Z" fill="#167CC1"/>
<path d="M34.1101 33.9674C34.9342 33.2924 35.0551 32.0772 34.3801 31.2532L36.8244 34.2374C37.4993 35.0615 37.3784 36.2767 36.5544 36.9516C35.7303 37.6265 34.5151 37.5056 33.8402 36.6816L31.396 33.6974C32.071 34.5215 33.2861 34.6423 34.1101 33.9674Z" fill="#8EC2ED"/>
<path d="M30.5848 41.8451L27.0184 44.7663C25.4725 46.0325 23.1618 45.8524 21.9069 44.2973C21.5438 43.8473 21.3075 43.3354 21.194 42.8056C21.0143 41.9672 20.4326 41.2569 19.646 40.9155C19.1488 40.6998 18.6936 40.3674 18.324 39.9227C17.0466 38.3861 17.3253 36.085 18.8712 34.8188L22.4376 31.8977C23.2617 31.2226 24.4771 31.3435 25.152 32.1677L30.8548 39.1304C31.5298 39.9546 31.4089 41.17 30.5848 41.8451V41.8451Z" fill="#8EC2ED"/>
<path d="M0.520663 25.2829C0.895881 25.1789 1.2898 25.1192 1.69689 25.1104C4.07794 25.0593 6.08883 26.7596 6.49937 29.0312C7.19389 28.8615 7.91714 28.7637 8.66159 28.7477C14.1671 28.6296 18.7261 32.997 18.8442 38.5026C18.8476 38.6611 18.8469 38.8187 18.843 38.9756C19.6319 38.6541 20.491 38.4672 21.3935 38.4478C25.353 38.3628 28.6317 41.5038 28.7167 45.4633C28.7407 46.582 28.507 47.6463 28.0702 48.5997C27.128 48.732 26.1687 48.812 25.1939 48.8329C11.8819 49.1187 0.854503 38.5827 0.520663 25.2829V25.2829Z" fill="#D85E41"/>
</svg>
