<svg width="43" height="42" viewBox="0 0 43 42" fill="none" xmlns="http://www.w3.org/2000/svg">
<g clip-path="url(#clip0)">
<path d="M20.616 0.863281C9.23009 0.863281 0 9.87872 0 20.9999C0 22.7277 0.223158 24.4046 0.642211 26.0049L4.61572 33.6971C8.39586 38.2361 14.1588 41.1365 20.616 41.1365C32.002 41.1365 41.2321 32.121 41.2321 20.9999C41.2321 9.87872 32.002 0.863281 20.616 0.863281Z" fill="#67E5EE"/>
<path d="M9.2357 21.4285L14.0997 18.6856L6.10215 17.6712C5.20413 17.5574 4.29265 17.7352 3.5084 18.1775L1.98828 19.0348L9.2357 21.4285Z" fill="#EEEFEB"/>
<path d="M3.51035 18.1775L1.99023 19.0348L9.23765 21.4285L11.6375 20.0751C11.0093 19.9663 10.01 19.7955 8.44583 19.5331C4.93967 18.9448 6.1041 17.6712 6.1041 17.6712C5.20608 17.5574 4.2946 17.7352 3.51035 18.1775Z" fill="#D6D6D0"/>
<path d="M2.08736 18.9795L0.775756 19.7192C0.341725 19.964 0.405677 20.5943 0.880435 20.7511L6.90789 22.7419L9.33478 21.3734L2.08736 18.9795Z" fill="#EB5793"/>
<path d="M19.9919 24.5996C19.9165 24.6397 19.841 24.6809 19.7656 24.7235C17.657 25.9126 16.3702 27.591 16.8911 28.4724C17.4122 29.3539 19.5439 29.1046 21.6523 27.9155C21.7278 27.873 21.8021 27.8297 21.8753 27.786C22.1118 27.6445 22.186 27.3422 22.0474 27.1076L20.6794 24.7933C20.5408 24.5588 20.2356 24.4704 19.9919 24.5996Z" fill="#E7387F"/>
<path d="M18.7713 28.7227C18.6958 28.7628 18.6203 28.804 18.5449 28.8466C16.4364 30.0357 15.1494 31.7141 15.6704 32.5955C16.1915 33.477 18.3232 33.2277 20.4317 32.0386C20.5071 31.9961 20.5814 31.9528 20.6546 31.909C20.8911 31.7676 20.9653 31.4652 20.8266 31.2306L19.4587 28.9163C19.3201 28.6818 19.0149 28.5934 18.7713 28.7227Z" fill="#EB5793"/>
<path d="M38.7637 11.4444C38.4058 10.7974 38.0146 10.1706 37.5888 9.56863C37.0083 9.49121 36.4282 9.38198 35.8512 9.24151C34.2803 8.859 31.5745 8.56188 28.9994 10.0141L0.642578 26.0052C1.16421 27.9971 1.99095 29.8692 3.0698 31.5731L38.7637 11.4444Z" fill="#EEEFEB"/>
<path d="M17.5223 23.4228L17.4628 23.3226C16.2562 23.1948 16.8211 22.2527 16.8211 22.2527L15.4307 19.9004C13.6855 19.9004 14.2975 18.3047 14.2975 18.3047L0.642578 26.0051C1.16421 27.997 1.99095 29.8691 3.0698 31.573L17.5223 23.4228Z" fill="#D6D6D0"/>
<path d="M41.5546 9.73633L3.00586 31.4749C3.49147 32.252 4.03001 32.9939 4.61559 33.6971C4.87796 33.5612 5.13831 33.4211 5.39597 33.2758C16.7355 26.8813 42.5147 12.3437 42.3806 12.4193C43.5486 11.7607 42.9469 9.8015 41.5546 9.73633Z" fill="#D6D6D0"/>
<path d="M17.4623 23.3223L3.00586 31.4746C3.49139 32.2517 4.03001 32.9936 4.61559 33.6968C4.87796 33.5609 5.13823 33.4208 5.39597 33.2755C8.90238 31.2982 13.7895 28.5423 18.864 25.6806L17.4623 23.3223Z" fill="#C6C6C1"/>
<path d="M20.5845 21.5614L14.816 24.8144L11.8438 39.3208L13.2833 38.509C14.0675 38.0667 14.6809 37.3847 15.029 36.5681L21.1998 22.0894C21.3589 21.7165 20.9427 21.3594 20.5845 21.5614Z" fill="#EEEFEB"/>
<path d="M13.2833 38.5096C13.986 38.1133 14.5509 37.5241 14.9113 36.8185C14.0837 35.8883 14.5001 34.3139 14.5001 34.3139L17.4612 23.3232L14.816 24.815L11.8438 39.3214L13.2833 38.5096Z" fill="#D6D6D0"/>
<path d="M14.9567 24.7363L12.809 25.9475C12.5549 26.0908 12.3763 26.334 12.3186 26.615L9.68972 39.4459C9.59135 39.9259 10.1183 40.2952 10.5523 40.0504L11.9845 39.2427L14.9567 24.7363Z" fill="#EB5793"/>
<path d="M35.9252 9.25787L34.8396 9.87011C34.0647 10.307 33.7993 11.2747 34.2466 12.0315C34.6939 12.7884 35.6847 13.0477 36.4596 12.6107L39.551 10.8674L41.5567 9.7363C38.8445 8.16433 35.9252 9.25787 35.9252 9.25787Z" fill="#363540"/>
<path d="M16.8229 22.2524C16.3924 22.4951 15.842 22.3511 15.5935 21.9306L15.1031 21.1009C14.8546 20.6804 15.0021 20.1428 15.4326 19.9001C15.8631 19.6574 16.4135 19.8014 16.662 20.2219L17.1524 21.0516C17.4009 21.472 17.2534 22.0096 16.8229 22.2524Z" fill="#363540"/>
<path d="M19.5925 20.6909C19.162 20.9336 18.6116 20.7896 18.3631 20.3692L17.8727 19.5394C17.6242 19.119 17.7716 18.5814 18.2021 18.3386C18.6325 18.0959 19.183 18.2399 19.4315 18.6604L19.9219 19.4901C20.1704 19.9106 20.023 20.4482 19.5925 20.6909Z" fill="#363540"/>
<path d="M22.362 19.1294C21.9315 19.3721 21.3811 19.2281 21.1326 18.8076L20.6422 17.9779C20.3937 17.5575 20.5411 17.0198 20.9716 16.7771C21.402 16.5344 21.9525 16.6784 22.201 17.0989L22.6914 17.9286C22.9399 18.349 22.7924 18.8867 22.362 19.1294Z" fill="#363540"/>
<path d="M25.1296 17.5678C24.6992 17.8105 24.1487 17.6666 23.9002 17.2461L23.4098 16.4164C23.1613 15.996 23.3087 15.4583 23.7392 15.2156C24.1697 14.9729 24.7201 15.1169 24.9686 15.5373L25.459 16.367C25.7076 16.7874 25.5601 17.3251 25.1296 17.5678Z" fill="#363540"/>
<path d="M27.9011 16.0053C27.4706 16.2481 26.9202 16.1041 26.6717 15.6836L26.1813 14.8539C25.9328 14.4335 26.0802 13.8958 26.5107 13.6531C26.9412 13.4104 27.4916 13.5544 27.7401 13.9748L28.2305 14.8045C28.479 15.2249 28.3315 15.7626 27.9011 16.0053Z" fill="#363540"/>
<path d="M5.74481 28.4995C5.3144 28.7422 4.76391 28.5982 4.51542 28.1777L4.02501 27.348C3.77652 26.9275 3.92395 26.3899 4.35445 26.1472C4.78494 25.9045 5.33535 26.0485 5.58384 26.469L6.07425 27.2987C6.32273 27.7191 6.17522 28.2567 5.74481 28.4995Z" fill="#363540"/>
<path d="M8.51242 26.938C8.08201 27.1807 7.53152 27.0367 7.28303 26.6162L6.79263 25.7865C6.54405 25.3661 6.69156 24.8284 7.12206 24.5857C7.55247 24.343 8.10296 24.487 8.35145 24.9075L8.84186 25.7372C9.09034 26.1576 8.94284 26.6952 8.51242 26.938Z" fill="#363540"/>
<path d="M2.81347 28.0305C2.5649 27.6101 2.01449 27.466 1.58408 27.7087C1.45634 27.7807 1.35427 27.8791 1.2793 27.9923C1.55782 28.7268 1.87859 29.4413 2.23942 30.1325C2.47528 30.2094 2.74219 30.1919 2.97444 30.061C3.40485 29.8182 3.55236 29.2806 3.30388 28.8602L2.81347 28.0305Z" fill="#363540"/>
<path d="M11.2839 25.3765C10.8535 25.6192 10.303 25.4752 10.0545 25.0547L9.56411 24.225C9.31554 23.8046 9.46305 23.2669 9.89354 23.0242C10.324 22.7814 10.8744 22.9254 11.1229 23.3459L11.6133 24.1756C11.8619 24.596 11.7144 25.1337 11.2839 25.3765Z" fill="#363540"/>
<path d="M14.0514 23.8149C13.621 24.0576 13.0705 23.9136 12.8221 23.4931L12.3317 22.6634C12.0832 22.243 12.2306 21.7053 12.6611 21.4626C13.0915 21.2199 13.642 21.3639 13.8905 21.7844L14.3809 22.6141C14.6294 23.0345 14.4819 23.5721 14.0514 23.8149Z" fill="#363540"/>
<path d="M37.4954 8.92773C36.5516 9.02324 35.9233 9.25814 35.9233 9.25814L34.8376 9.87037C34.0628 10.3073 33.7973 11.275 34.2446 12.0318C34.692 12.7886 35.6827 13.0479 36.4576 12.6109L38.5406 11.4363C36.4487 11.2823 37.4954 8.92773 37.4954 8.92773Z" fill="#21212B"/>
</g>
<defs>
<clipPath id="clip0">
<rect width="43" height="42" fill="white"/>
</clipPath>
</defs>
</svg>
