<svg width="48" height="48" viewBox="0 0 48 48" fill="none" xmlns="http://www.w3.org/2000/svg">
<g clip-path="url(#clip0)">
<path d="M22.9688 2.0625C12.8728 2.0625 4.29862 8.57644 1.21875 17.6306L4.86628 39.1692C9.07022 44.5445 15.6158 48 22.9688 48C35.6541 48 45.9375 37.7166 45.9375 25.0312C45.9375 12.3459 35.6541 2.0625 22.9688 2.0625Z" fill="#67E5EE"/>
<path d="M34.9007 32.9775L22.9409 34.5393L3.84766 33.1576L4.86522 39.1664C9.06878 44.543 15.6142 48 22.9682 48C32.8598 48 41.2889 41.7464 44.5222 32.9775H34.9007Z" fill="#363540"/>
<path d="M34.9007 32.9775L22.9409 34.5393L3.84766 33.1576L4.86522 39.1664C9.06878 44.543 15.6142 48 22.9682 48C32.8598 48 41.2889 41.7464 44.5222 32.9775H34.9007Z" fill="#74727F"/>
<path d="M34.9021 32.9775L22.9423 34.5393L22.4999 34.5074C24.5618 35.9115 25.9162 38.2775 25.9162 40.9603C25.9162 44.0294 24.1433 46.6834 21.5664 47.9573C22.0306 47.9853 22.4984 48 22.9696 48C32.8612 48 41.2903 41.7464 44.5236 32.9775H34.9021Z" fill="#5F5E6A"/>
<path d="M41.4712 29.7832C40.2083 30.0053 38.7692 30.4543 37.2585 31.3499L34.5372 32.9634C33.7349 34.1429 33.2656 35.5671 33.2656 37.1011C33.2656 41.1698 36.5638 44.468 40.6325 44.468C44.7012 44.468 47.9994 41.1699 47.9994 37.1012C47.9994 33.3164 45.1446 30.1998 41.4712 29.7832ZM40.6325 40.828C38.5742 40.828 36.9058 39.1594 36.9058 37.1012C36.9058 35.043 38.5742 33.3745 40.6325 33.3745C42.6907 33.3745 44.3592 35.043 44.3592 37.1012C44.3592 39.1594 42.6908 40.828 40.6325 40.828Z" fill="#21212B"/>
<path d="M40.6326 44.4676C41.9275 44.4676 43.1437 44.1325 44.201 43.5458C42.6107 43.085 42.5918 42.0767 42.7226 41.515C42.7701 41.3109 42.6658 41.0978 42.4691 41.0253C42.1923 40.9234 42.034 40.7635 41.9473 40.5882C41.5384 40.7424 41.0955 40.8275 40.6326 40.8275C38.5743 40.8275 36.9058 39.159 36.9058 37.1008C36.9058 35.7259 37.6509 34.5258 38.7586 33.8799L37.316 31.3164C37.2968 31.3277 37.2778 31.3382 37.2585 31.3495L34.5373 32.963C33.7349 34.1425 33.2656 35.5667 33.2656 37.1008C33.2657 41.1694 36.5639 44.4676 40.6326 44.4676Z" fill="black"/>
<path d="M40.6332 41.691C38.1021 41.691 36.043 39.6319 36.043 37.1009C36.043 34.5699 38.1021 32.5107 40.6332 32.5107C43.1641 32.5107 45.2233 34.5699 45.2233 37.1009C45.2233 39.6319 43.1642 41.691 40.6332 41.691Z" fill="#4B4A55"/>
<path d="M42.6796 41.2076C42.6343 41.1261 42.5627 41.0596 42.4695 41.0253C41.8603 40.8009 41.8209 40.2962 41.8715 39.9616C41.8981 39.786 41.8119 39.6085 41.6526 39.53C40.8722 39.1448 41.2351 38.2797 41.2351 38.2797L38.3366 33.1289C36.9668 33.924 36.043 35.406 36.043 37.1007C36.043 39.6317 38.1021 41.6908 40.6332 41.6908C41.3682 41.6909 42.0629 41.5162 42.6796 41.2076Z" fill="#363540"/>
<path d="M40.6329 34.2373C39.054 34.2373 37.7695 35.5218 37.7695 37.1007C37.7695 38.6796 39.054 39.964 40.6329 39.964C42.2118 39.964 43.4962 38.6796 43.4962 37.1007C43.4962 35.5218 42.2118 34.2373 40.6329 34.2373Z" fill="#D6D6D0"/>
<path d="M40.6329 39.9637C41.0591 39.9637 41.4635 39.8694 41.8272 39.7018C41.7889 39.629 41.7294 39.5676 41.6525 39.5297C40.8721 39.1445 41.235 38.2794 41.235 38.2794L39.1829 34.6328C38.3379 35.1312 37.7695 36.0504 37.7695 37.1004C37.7695 38.6792 39.054 39.9637 40.6329 39.9637Z" fill="#C6C6C1"/>
<path d="M38.7873 30.5762C38.2888 30.7876 37.7782 31.0415 37.2587 31.3495L36.4531 31.8272L39.4536 37.7029C39.7868 38.3555 40.5851 38.6117 41.2348 38.2798C41.8858 37.9473 42.1442 37.1498 41.8117 36.4987L38.7873 30.5762Z" fill="#EEEFEB"/>
<path d="M38.9181 33.929C38.9266 33.9242 38.9352 33.9194 38.9438 33.9146C39.484 33.6141 40.1313 33.7006 40.5746 34.0761L38.7873 30.5762C38.2888 30.7876 37.7782 31.0415 37.2587 31.3495L36.4531 31.8272L38.1765 35.202C38.173 34.6907 38.4419 34.195 38.9181 33.929Z" fill="#D6D6D0"/>
<path d="M46.0761 29.0694C42.5153 24.0224 36.9104 24.8591 36.5249 24.7778C36.5192 24.791 36.5143 24.8045 36.5084 24.8176L32.1387 34.615L37.2588 31.5792C41.1374 29.2795 44.55 29.9175 45.6967 29.8094C46.0747 29.8094 46.2972 29.3828 46.0761 29.0694Z" fill="#FBB031"/>
<path d="M36.5249 24.7777C36.5192 24.7909 36.5143 24.8044 36.5084 24.8175L32.1387 34.6149L37.2588 31.579C38.0295 31.1221 38.7811 30.7826 39.5009 30.5288C35.7798 28.3434 38.7334 24.8362 38.7334 24.8362C37.5272 24.712 36.6676 24.8078 36.5249 24.7777Z" fill="#F7991E"/>
<path d="M1.11133 32.0957C1.21783 32.4246 1.3307 32.7506 1.45127 33.073L4.47423 38.4144C4.58373 37.9 4.64327 37.3671 4.64327 36.82C4.64327 35.2471 4.16777 33.7858 3.35327 32.5707L1.11133 32.0957Z" fill="#21212B"/>
<path d="M2.90509 36.2168C2.83703 35.9004 2.80075 35.5722 2.80075 35.2355C2.80075 34.5178 2.96388 33.8386 3.25394 33.2316C3.28094 33.1381 3.30972 33.0451 3.34244 32.9531L1.44531 33.0636C1.85331 34.1566 2.3425 35.2099 2.90509 36.2168Z" fill="#D6D6D0"/>
<path d="M3.4645 32.4922C2.90266 33.2619 2.57031 34.2098 2.57031 35.2358C2.57031 35.369 2.57725 35.5005 2.58822 35.6309C3.27016 36.9394 4.07416 38.174 4.9855 39.3195C5.65131 39.6862 6.41603 39.8954 7.22987 39.8954C9.07075 39.8954 10.6618 38.8275 11.4187 37.2778C10.1999 35.9383 9.20631 34.5253 8.58887 33.578L3.4645 32.4922Z" fill="#EEEFEB"/>
<path d="M7.40753 37.3311V33.3277L3.4645 32.4922C2.90266 33.2619 2.57031 34.2098 2.57031 35.2358C2.57031 35.369 2.57725 35.5005 2.58822 35.6309C3.27016 36.9394 4.07416 38.174 4.9855 39.3195C5.65131 39.6862 6.41603 39.8954 7.22988 39.8954C7.28837 39.8954 7.34659 39.8942 7.40453 39.8921C6.03269 38.5161 7.40753 37.3311 7.40753 37.3311Z" fill="#D6D6D0"/>
<path d="M6.5548 33.1465C5.77517 33.4783 5.22852 34.2511 5.22852 35.1519C5.22852 36.3551 6.20389 37.3305 7.40717 37.3305C8.61045 37.3305 9.58583 36.3552 9.58583 35.1519C9.58583 35.1042 9.5817 35.0576 9.5787 35.0107C9.18758 34.4758 8.85317 33.9837 8.58842 33.5775L6.5548 33.1465Z" fill="#C6C6C1"/>
<path d="M14.998 32.666L15.3586 34.904C18.8773 35.6141 22.052 35.921 24.4245 36.0471L25.3136 33.9239C22.8039 33.8277 19.1235 33.5252 14.998 32.666Z" fill="black"/>
<path d="M15.3586 34.904C16.8951 35.214 18.3658 35.4472 19.7329 35.622C19.8295 35.4885 19.9011 35.4135 19.9011 35.4135C21.1278 34.6627 20.1558 33.5106 20.1558 33.5106V33.5105C18.5658 33.318 16.8258 33.0467 14.998 32.666L15.3586 34.904Z" fill="#21212B"/>
<path d="M31.0498 22.4294L29.0875 15.2504C29.0743 15.2019 29.0649 15.1532 29.0573 15.1045C27.6262 15.4217 26.7012 16.8131 26.9628 18.2554L27.6628 22.1175C28.1098 24.5833 27.8325 27.1259 26.8646 29.4373L24.1523 35.9147C25.3629 35.9854 26.3564 36.0082 27.0653 36.0125H27.08C28.1142 36.0125 29.0163 35.3519 29.3275 34.3648L30.9164 29.3272C31.6238 27.0838 31.67 24.6984 31.0498 22.4294Z" fill="#4B4A55"/>
<path d="M31.1022 28.1689C31.1022 28.1689 30.7985 26.7579 29.3141 26.7579C27.8298 26.7579 27.8178 25.5996 27.8178 25.5996L27.8157 25.6001C27.6967 26.9137 27.3793 28.2084 26.8646 29.4376L24.1523 35.915C25.3629 35.9858 26.3564 36.0086 27.0653 36.0129H27.08C28.1142 36.0129 29.0163 35.3522 29.3275 34.3651L30.9164 29.3276C31.0193 29.0015 31.1063 28.6722 31.1813 28.3409L31.1022 28.1689Z" fill="#363540"/>
<path d="M14.3017 18.2881C13.3401 18.4239 11.9824 18.5735 10.0829 18.7108C6.43639 18.9744 3.13189 18.0926 1.28192 17.4512C0.949672 18.4018 0.676859 19.3802 0.470703 20.3832C1.6962 20.6723 3.97123 21.3109 9.72898 22.7398C11.9953 23.316 13.4401 22.5359 16.4557 22.0402C16.6085 22.0091 16.7555 22.0494 16.8671 22.1473C16.9347 22.0125 17.8439 21.2404 17.378 20.0689C16.8877 18.8353 15.6161 18.1023 14.3017 18.2881Z" fill="#EB5793"/>
<path d="M6.14792 21.1569C5.6187 19.3958 7.40736 18.7139 7.40736 18.7139L7.40745 18.7138C4.86242 18.5449 2.66539 17.9309 1.28192 17.4512C0.949672 18.4018 0.676859 19.3802 0.470703 20.3832C1.39442 20.6011 2.91523 21.0177 6.07339 21.8215C6.18448 21.6226 6.21645 21.385 6.14792 21.1569Z" fill="#E7387F"/>
<path d="M36.7192 22.475C35.8434 20.5936 33.9458 16.8606 31.4772 13.9867C31.0318 13.4681 30.2766 13.3081 29.6774 13.6373C29.0803 13.9652 28.8043 14.6479 28.9774 15.2812L30.9397 22.4602C31.5528 24.7033 31.5069 27.0755 30.8075 29.2932L29.2187 34.3307C29.0361 34.9097 28.6335 35.3727 28.1211 35.6413L29.7253 38.6597C30.4672 38.199 31.0725 37.5234 31.4417 36.6956L36.7391 24.8184C37.0722 24.071 37.0646 23.2169 36.7192 22.475Z" fill="#FFC743"/>
<path d="M16.4328 21.927L12.6882 22.696C11.7187 22.8952 10.7167 22.8718 9.7575 22.6278L0.495094 20.2715C0.171469 21.8072 0 23.3991 0 25.0311C0 27.5106 0.3945 29.8976 1.12144 32.1348L8.47369 33.6927L8.67825 33.7943C8.64159 33.7387 8.60494 33.6832 8.57016 33.6299C8.47031 33.4767 8.51306 33.3207 8.58637 33.2257C8.64234 33.1529 8.73769 33.0884 8.85731 33.0884C8.89341 33.0884 8.93175 33.0943 8.97178 33.1076C11.2122 33.8516 13.4317 34.4065 15.5246 34.8204L15.6156 34.7243L14.8308 29.8537C14.6134 28.5043 14.8358 27.1209 15.4653 25.9076L17.084 22.788C17.3156 22.3415 16.9257 21.8258 16.4328 21.927Z" fill="#FBB031"/>
<path d="M0.495094 20.2715C0.171469 21.8072 0 23.3991 0 25.0311C0 27.5106 0.3945 29.8976 1.12144 32.1348L3.38194 32.6138C3.37191 32.5994 3.36262 32.5853 3.3525 32.5708C0.207469 28.0921 3.28434 25.8069 4.78106 25.0214C5.13872 24.8337 5.31834 24.4168 5.2035 24.0295C4.90969 23.0386 5.39175 22.4299 5.83134 22.099C5.96887 21.9955 6.06994 21.8577 6.12797 21.7045L0.495094 20.2715Z" fill="#F7991E"/>
<path d="M0.447656 23.3477C0.318281 23.3477 0.189469 23.3504 0.0612188 23.3552C0.0212813 23.9088 0 24.4677 0 25.0315C0 27.511 0.3945 29.8981 1.12144 32.1352L8.47369 33.6932L8.67825 33.7947C8.64159 33.7391 8.60494 33.6836 8.57016 33.6303C8.47031 33.4772 8.51306 33.3212 8.58638 33.2261C8.64234 33.1533 8.73769 33.0888 8.85731 33.0888C8.89341 33.0888 8.93175 33.0947 8.97178 33.1081C9.74409 33.3646 10.5134 33.597 11.2763 33.8105C10.6106 27.9132 6.0165 23.3477 0.447656 23.3477Z" fill="#FFC743"/>
<path d="M3.3525 32.5713C0.207469 28.0925 3.28434 25.8073 4.78106 25.0218C4.98187 24.9165 5.12653 24.7387 5.1945 24.5346C3.75928 23.7745 2.14913 23.3477 0.447656 23.3477C0.318281 23.3477 0.189469 23.3504 0.0612187 23.3552C0.0212812 23.9088 0 24.4677 0 25.0315C0 27.511 0.3945 29.8981 1.12144 32.1352L3.38194 32.6142C3.37191 32.5998 3.36262 32.5857 3.3525 32.5713Z" fill="#FBB031"/>
<path d="M25.5195 11.1796C25.5195 13.098 28.6673 14.6531 32.5501 14.6531V7.70605C28.6672 7.70605 25.5195 9.26118 25.5195 11.1796Z" fill="#FBB031"/>
<path d="M34.2977 7.70605H32.4297V14.6532H33.1799C33.6153 14.6532 33.9908 14.3597 34.079 13.9505L35.1968 8.76599C35.3148 8.21896 34.8796 7.70605 34.2977 7.70605Z" fill="#EEEFEB"/>
<path d="M26.8619 10.3348C26.6203 10.3348 26.38 10.234 26.2092 10.0372C25.8968 9.67697 25.9355 9.13162 26.2957 8.81925L29.2536 6.25378C29.3489 6.17119 29.4035 6.05137 29.4035 5.92528V4.26178C29.4035 3.78497 29.79 3.39844 30.267 3.39844C30.7438 3.39844 31.1303 3.78497 31.1303 4.26178V5.92519C31.1303 6.55219 30.8586 7.14741 30.385 7.55812L27.4271 10.1236C27.2639 10.2653 27.0624 10.3348 26.8619 10.3348Z" fill="#D6D6D0"/>
<path d="M29.7684 38.6319L28.1655 35.6159C27.8369 35.7978 27.4612 35.8999 27.0668 35.8975C23.8924 35.8784 16.6116 35.5237 9.00811 32.9986C8.59148 32.8602 8.23401 33.3252 8.47373 33.6929C9.1777 34.7729 10.3703 36.4585 11.8286 37.9498C13.1327 39.2836 14.9534 39.9832 16.8163 39.8862L27.6126 39.3241C28.3941 39.2833 29.1326 39.0369 29.7684 38.6319Z" fill="#FBB031"/>
<path d="M19.901 35.4134C16.6901 35.0116 12.8913 34.2882 9.00811 32.9986C8.59148 32.8602 8.23401 33.3252 8.47373 33.6929C9.1777 34.7729 10.3703 36.4585 11.8287 37.9498C13.1327 39.2836 14.9535 39.9832 16.8164 39.8862L21.2692 39.6544C17.6765 37.7384 19.901 35.4134 19.901 35.4134Z" fill="#F7991E"/>
<path d="M27.3965 13.0302C28.6574 13.0302 29.6797 12.008 29.6797 10.7471C29.6797 9.48608 28.6574 8.46387 27.3965 8.46387C26.1355 8.46387 25.1133 9.48608 25.1133 10.7471C25.1133 12.008 26.1355 13.0302 27.3965 13.0302Z" fill="#21212B"/>
<path d="M21.1101 12.397C20.9174 11.6334 21.3802 10.858 22.144 10.6653L26.4521 9.57789C27.2156 9.38514 27.9912 9.84789 28.1839 10.6117C28.3767 11.3754 27.9139 12.1507 27.1501 12.3434L22.842 13.4308C22.0771 13.624 21.3026 13.1593 21.1101 12.397Z" fill="#363540"/>
<path d="M28.8555 0.563477V5.45169C30.1999 5.44504 31.288 4.3536 31.288 3.00754C31.288 1.66148 30.2 0.570133 28.8555 0.563477Z" fill="#EEEFEB"/>
<path d="M28.2267 6.01509C27.7499 6.01509 27.3633 5.62856 27.3633 5.15175V0.863344C27.3633 0.386531 27.7498 0 28.2267 0C28.7035 0 29.0901 0.386531 29.0901 0.863344V5.15175C29.0901 5.62856 28.7035 6.01509 28.2267 6.01509Z" fill="#D6D6D0"/>
</g>
<defs>
<clipPath id="clip0">
<rect width="48" height="48" fill="white"/>
</clipPath>
</defs>
</svg>
