<svg width="49" height="49" viewBox="0 0 49 49" fill="none" xmlns="http://www.w3.org/2000/svg">
<path d="M27.8482 22.0287L46.2406 23.3545C45.8315 10.3839 35.6411 0 23.1282 0C15.7527 0 9.18387 3.60765 4.94922 9.2261L27.8482 22.0287Z" fill="#67E5EE"/>
<path d="M3.24414 36.5127C7.27783 43.5888 14.6717 48.3302 23.1265 48.3302C31.5814 48.3302 38.9751 43.5888 43.0088 36.5127H3.24414Z" fill="#74727F"/>
<path d="M20.0524 36.5127H3.24414C6.65398 42.4945 12.4651 46.8076 19.2885 47.9987C14.7744 45.7602 15.1359 38.1493 20.0524 36.5127Z" fill="#5F5E6A"/>
<path d="M43.1185 27.2702C42.7206 27.2702 42.3442 27.0808 42.0961 26.7558L40.7187 24.951C40.534 24.709 40.4335 24.4086 40.4335 24.099C40.4335 23.3444 41.019 22.7326 41.7412 22.7326H45.9571C45.2436 21.8043 44.281 21.1025 43.1745 20.7365C39.5629 19.5419 33.9649 19.1617 31.1785 19.0432C30.0892 18.9968 29.0573 18.5358 28.2626 17.756C25.2605 14.8105 22.1239 12.3691 20.0327 10.8468C18.507 9.73624 16.6923 9.14258 14.8329 9.14258H5.01115C4.46545 9.86012 3.95893 10.6116 3.49281 11.3921L0.240613 20.6762L0.24033 20.676C0.0826901 21.8149 0 22.9791 0 24.1635C0 28.1972 0.94716 31.9993 2.61984 35.3424H47.2551V27.2703H43.1185V27.2702Z" fill="#F30000"/>
<path d="M13.1617 28.7773V20.6772V11.8309C13.1617 11.5737 13.0823 11.3216 12.9298 11.1197C12.135 10.0673 12.8646 9.37267 13.0963 9.19129C12.7996 9.16072 12.501 9.14355 12.2009 9.14355H5.01114C4.46545 9.8611 3.95892 10.6126 3.4928 11.393L0.240613 20.6772L0.240329 20.677C0.08269 21.8158 0 22.9799 0 24.1644C0 28.1981 0.947159 32.0001 2.61984 35.3432H19C12.999 35.3426 13.1617 28.7773 13.1617 28.7773Z" fill="#D40000"/>
<path d="M28.6541 33.2886C28.2087 33.2886 27.8477 32.9113 27.8477 32.446V22.0282C27.8477 21.5628 28.2086 21.1855 28.6541 21.1855C29.0994 21.1855 29.4604 21.5628 29.4604 22.0282V32.446C29.4604 32.9113 29.0994 33.2886 28.6541 33.2886Z" fill="#D40000"/>
<path d="M27.1855 19.7538C27.0498 19.64 26.9179 19.5204 26.7902 19.3951C23.8863 16.5462 20.8439 14.1771 18.803 12.6916C17.6337 11.8405 16.2608 11.3906 14.8323 11.3906H3.49337C1.83891 14.161 0.70664 17.3063 0.240234 20.6773H26.8763C26.882 20.6773 26.8876 20.6772 26.8931 20.6772C27.3523 20.6696 27.5436 20.0543 27.1855 19.7538Z" fill="#363540"/>
<path d="M12.8832 11.4523C12.5862 11.4121 12.2855 11.3906 11.9821 11.3906H3.49336C1.83891 14.161 0.706639 17.3063 0.240234 20.6773H12.9429V11.831C12.9429 11.7015 12.9227 11.5734 12.8832 11.4523Z" fill="#21212B"/>
<path d="M35.4289 29.3003C38.6182 29.3003 41.2129 32.0115 41.2129 35.344H43.5219C43.5219 30.6737 39.8985 26.8877 35.4289 26.8877C30.9593 26.8877 27.3359 30.6737 27.3359 35.344H29.6449C29.6448 32.0115 32.2395 29.3003 35.4289 29.3003Z" fill="#F30000"/>
<path d="M32.7359 29.6994C32.7658 29.5075 32.6656 29.319 32.4936 29.2447C31.8536 28.9684 31.8481 28.3501 31.9103 27.9821C31.9244 27.8986 31.9125 27.8159 31.8814 27.7422C29.1902 29.116 27.3359 32.0032 27.3359 35.3437H29.645C29.645 33.0376 30.8879 31.0297 32.7102 30.0113C32.7113 29.8988 32.7215 29.7925 32.7359 29.6994Z" fill="#D40000"/>
<path d="M27.1843 19.7539C27.0486 19.6401 26.9168 19.5205 26.789 19.3952C25.87 18.4935 24.9372 17.6404 24.0266 16.8477C24.0283 16.8532 24.8518 19.4805 22.2383 20.6775H26.8752C26.8809 20.6775 26.8865 20.6774 26.892 20.6774C27.3511 20.6697 27.5424 20.0544 27.1843 19.7539Z" fill="#21212B"/>
<path d="M10.7422 11.3906H13.1759V20.6774H10.7422V11.3906Z" fill="#5F5E6A"/>
<path d="M8.41602 11.3906H10.8497V20.6774H8.41602V11.3906Z" fill="#4B4A55"/>
<path d="M27.819 18.6689H25.9582C25.4484 18.6689 25.0312 19.1048 25.0312 19.6375V22.7905C25.0312 23.3232 25.4484 23.7591 25.9582 23.7591H27.819C28.9703 23.7591 29.9121 22.7748 29.9121 21.572V20.8561C29.9121 19.6532 28.9703 18.6689 27.819 18.6689Z" fill="#EEEFEB"/>
<path d="M26.6674 21.5719V20.856C26.6674 19.8222 27.3634 18.9505 28.2898 18.7258C28.1383 18.689 27.9808 18.6689 27.819 18.6689H25.9582C25.4484 18.6689 25.0312 19.1048 25.0312 19.6375V22.7905C25.0312 23.3232 25.4484 23.7591 25.9582 23.7591H27.819C27.9808 23.7591 28.1383 23.7389 28.2898 23.7022C27.3635 23.4774 26.6674 22.6058 26.6674 21.5719Z" fill="#D6D6D0"/>
<path d="M17.3659 24.5532H15.1619C14.7165 24.5532 14.3555 24.1759 14.3555 23.7107C14.3555 23.2453 14.7164 22.8682 15.1619 22.8682H17.3659C17.8113 22.8682 18.1722 23.2454 18.1722 23.7107C18.1722 24.1759 17.8113 24.5532 17.3659 24.5532Z" fill="#EEEFEB"/>
<path d="M3.01045 24.5532H0.806324C0.360967 24.5532 0 24.1759 0 23.7107C0 23.2453 0.360967 22.8682 0.806324 22.8682H3.01036C3.45571 22.8682 3.81668 23.2454 3.81668 23.7107C3.81677 24.1759 3.45581 24.5532 3.01045 24.5532Z" fill="#EEEFEB"/>
<path d="M46.7714 29.8203H46.1609C45.5009 29.8203 44.9609 30.3845 44.9609 31.0741V32.2738C44.9609 32.9634 45.5009 33.5276 46.1609 33.5276H46.7714C47.4314 33.5276 47.9713 32.9634 47.9713 32.2738V31.0741C47.9713 30.3846 47.4314 29.8203 46.7714 29.8203Z" fill="#FFC743"/>
<path d="M33.6004 24.1119H32.4177C31.9724 24.1119 31.6113 23.7347 31.6113 23.2694C31.6113 22.804 31.9723 22.4268 32.4177 22.4268H33.6004C34.0458 22.4268 34.4068 22.804 34.4068 23.2694C34.4068 23.7347 34.0458 24.1119 33.6004 24.1119Z" fill="#FFC743"/>
<path d="M29.6457 35.2314H2.56445C3.04776 36.21 3.59345 37.1491 4.19541 38.0441H30.3126C29.8876 37.2033 29.6457 36.2465 29.6457 35.2314Z" fill="#4B4A55"/>
<path d="M46.9837 35.2314H41.2117C41.2117 36.2465 40.9699 37.2032 40.5449 38.0439H46.9837C47.727 38.0439 48.3296 37.4143 48.3296 36.6377C48.3296 35.861 47.7269 35.2314 46.9837 35.2314Z" fill="#4B4A55"/>
<path d="M35.4294 41.9476C31.9446 41.9476 29.1094 38.9852 29.1094 35.3439C29.1094 31.7027 31.9445 28.7402 35.4294 28.7402C38.9142 28.7402 41.7494 31.7026 41.7494 35.3439C41.7493 38.9851 38.9142 41.9476 35.4294 41.9476Z" fill="#21212B"/>
<path d="M39.3028 40.5556C39.2976 40.555 39.2927 40.5542 39.2874 40.5537C38.03 40.4166 37.8973 39.6204 37.9332 39.1475C37.9481 38.9522 37.8343 38.7756 37.6576 38.7102C37.0721 38.4931 36.9894 38.0067 37.0052 37.6865C37.0142 37.504 36.9031 37.3369 36.738 37.2767C34.1631 36.3381 34.2954 34.1064 34.462 33.2181C34.4993 33.0192 34.3954 32.8251 34.2171 32.7454C33.692 32.5108 33.6593 32.0101 33.7086 31.6679C33.7369 31.471 33.6267 31.2857 33.4498 31.2119C32.6822 30.8918 32.6668 30.1458 32.7364 29.699C32.753 29.5921 32.7282 29.4871 32.6741 29.4014C30.566 30.473 29.1094 32.7336 29.1094 35.3433C29.1094 38.9845 31.9445 41.9469 35.4294 41.9469C36.8882 41.9469 38.232 41.4263 39.3028 40.5556Z" fill="black"/>
<path d="M38.7708 35.7492C38.995 33.826 37.6847 32.0769 35.8441 31.8426C34.0035 31.6083 32.3296 32.9773 32.1053 34.9005C31.881 36.8237 33.1913 38.5728 35.0319 38.8071C36.8725 39.0415 38.5465 37.6724 38.7708 35.7492Z" fill="#D6D6D0"/>
<path d="M37.0043 37.687C37.0133 37.5045 36.9022 37.3374 36.7371 37.2773C34.1622 36.3386 34.2945 34.1068 34.4611 33.2186C34.4984 33.0197 34.3945 32.8256 34.2162 32.7459C33.9766 32.6389 33.8403 32.4763 33.7668 32.2988C32.7556 32.9037 32.0723 34.0416 32.0723 35.3438C32.0723 37.2775 33.5779 38.8506 35.4285 38.8506C36.0643 38.8506 36.6594 38.6649 37.1667 38.3427C37.0213 38.1263 36.9949 37.8774 37.0043 37.687Z" fill="#C6C6C1"/>
<path d="M35.4282 39.6931C33.133 39.6931 31.2656 37.742 31.2656 35.3436C31.2656 32.9454 33.133 30.9941 35.4282 30.9941C37.7235 30.9941 39.5908 32.9453 39.5908 35.3436C39.5909 37.742 37.7236 39.6931 35.4282 39.6931ZM35.4282 32.6794C34.0222 32.6794 32.8784 33.8746 32.8784 35.3436C32.8784 36.8127 34.0222 38.008 35.4282 38.008C36.8342 38.008 37.9781 36.8127 37.9781 35.3436C37.9782 33.8746 36.8342 32.6794 35.4282 32.6794Z" fill="#EEEFEB"/>
<path d="M37.6564 38.71C37.0709 38.4929 36.9882 38.0065 37.0041 37.6863C37.0079 37.6105 36.9899 37.5379 36.957 37.474C36.5307 37.8087 36.0013 38.0073 35.4283 38.0073C34.0222 38.0073 32.8785 36.8121 32.8785 35.343C32.8785 34.2562 33.5048 33.3199 34.3997 32.9059C34.3558 32.837 34.2935 32.7799 34.2159 32.7453C33.6908 32.5106 33.6582 32.0099 33.7074 31.6677C33.7208 31.5743 33.7023 31.4839 33.661 31.4062C32.247 32.102 31.2656 33.6047 31.2656 35.343C31.2656 37.7412 33.1329 39.6924 35.4282 39.6924C36.335 39.6924 37.1745 39.3869 37.8589 38.8705C37.8105 38.7984 37.7409 38.7412 37.6564 38.71Z" fill="#D6D6D0"/>
<path d="M45.9302 22.6992H41.6576C40.9244 22.6992 40.3301 23.3202 40.3301 24.0863C40.3301 24.4005 40.4322 24.7054 40.6197 24.9511L42.0179 26.783C42.2697 27.1131 42.6517 27.3053 43.0557 27.3053H47.2547V26.5833C47.2547 25.726 47.0828 24.8783 46.7502 24.0947C46.5354 23.5887 46.2585 23.1204 45.9302 22.6992Z" fill="#D6D6D0"/>
<path d="M45.9827 22.7715C44.9234 23.0404 44.1367 24.0375 44.1367 25.2272C44.1367 26.0887 44.5496 26.8492 45.1795 27.3054H47.2547V26.5835C47.2547 25.7262 47.0828 24.8784 46.7502 24.0948C46.5474 23.6169 46.2874 23.1742 45.9827 22.7715Z" fill="#EEEFEB"/>
<path d="M17.7143 35.2314H2.56445C3.04776 36.21 3.59346 37.1491 4.19541 38.0441H17.7142C16.2593 36.5237 17.7143 35.2314 17.7143 35.2314Z" fill="#363540"/>
</svg>
