<svg width="43" height="43" viewBox="0 0 43 43" fill="none" xmlns="http://www.w3.org/2000/svg">
<g clip-path="url(#clip0)">
<path d="M20.5758 0.923828C12.9646 0.923828 6.31919 5.0567 2.75977 11.2004L3.67604 32.4535C4.78664 32.1912 5.02566 31.3571 6.53587 31.3571C8.32751 31.3571 8.32751 32.5329 10.1191 32.5329C11.9108 32.5329 11.9108 31.3571 13.7025 31.3571C15.4941 31.3571 15.4941 32.5329 17.2857 32.5329C19.0771 32.5329 19.0771 31.3571 20.8686 31.3571C22.6602 31.3571 22.6602 32.5329 24.4518 32.5329C26.2435 32.5329 26.2435 31.3571 28.0352 31.3571C29.8269 31.3571 29.8269 32.5329 31.6187 32.5329C33.4105 32.5329 33.4105 31.3571 35.2021 31.3571C36.6863 31.3571 36.9422 32.1632 38.0042 32.4401C39.9978 29.2709 41.152 25.5205 41.152 21.5C41.152 10.1361 31.9397 0.923828 20.5758 0.923828Z" fill="#FFC743"/>
<path d="M41.7686 20.0056C41.4207 20.0056 41.1387 19.7236 41.1387 19.3758V17.21C41.1387 16.8621 41.4207 16.5801 41.7686 16.5801C42.1164 16.5801 42.3984 16.8621 42.3984 17.21V19.3758C42.3984 19.7236 42.1165 20.0056 41.7686 20.0056Z" fill="#D6D6D0"/>
<path d="M38.9971 20.0056C38.6492 20.0056 38.3672 19.7236 38.3672 19.3758V17.21C38.3672 16.8621 38.6492 16.5801 38.9971 16.5801C39.3449 16.5801 39.627 16.8621 39.627 17.21V19.3758C39.627 19.7236 39.345 20.0056 38.9971 20.0056Z" fill="#D6D6D0"/>
<path d="M36.2256 20.0056C35.8777 20.0056 35.5957 19.7236 35.5957 19.3758V17.21C35.5957 16.8621 35.8777 16.5801 36.2256 16.5801C36.5734 16.5801 36.8555 16.8621 36.8555 17.21V19.3758C36.8555 19.7236 36.5735 20.0056 36.2256 20.0056Z" fill="#D6D6D0"/>
<path d="M33.4541 20.0056C33.1062 20.0056 32.8242 19.7236 32.8242 19.3758V17.21C32.8242 16.8621 33.1062 16.5801 33.4541 16.5801C33.802 16.5801 34.084 16.8621 34.084 17.21V19.3758C34.084 19.7236 33.802 20.0056 33.4541 20.0056Z" fill="#D6D6D0"/>
<path d="M42.3698 17.7559H29.7021C29.3543 17.7559 29.0723 17.4738 29.0723 17.126C29.0723 16.7781 29.3543 16.4961 29.7021 16.4961H42.3698C42.7176 16.4961 42.9996 16.7781 42.9996 17.126C42.9996 17.4738 42.7176 17.7559 42.3698 17.7559Z" fill="#EEEFEB"/>
<path d="M1.03906 15.0286H24.0335V11.8301H2.41011C1.86698 12.8484 1.40691 13.9174 1.03906 15.0286Z" fill="#EEEFEB"/>
<path d="M9.27927 13.89C9.49671 13.3441 9.73691 12.8097 9.9986 12.288C10.1394 12.0071 10.4273 11.8301 10.7416 11.8301H2.41011C1.86698 12.8483 1.40691 13.9174 1.03906 15.0286H10.0512C9.46396 15.0285 9.06192 14.4355 9.27927 13.89Z" fill="#D6D6D0"/>
<path d="M0.109375 19.3728L31.2986 19.347L29.6783 16.1064H0.71633C0.429775 17.164 0.224266 18.2548 0.109375 19.3728Z" fill="#363540"/>
<path d="M9.0779 17.8602C9.12199 17.6139 9.17053 17.369 9.22336 17.1258C9.35219 16.5321 9.87415 16.1064 10.4816 16.1064H0.71633C0.429775 17.1641 0.224266 18.2549 0.109375 19.3728L10.2168 19.3644C9.48102 19.2923 8.94445 18.6055 9.0779 17.8602Z" fill="#21212B"/>
<path d="M18.9318 18.3438H18.6865C18.3387 18.3438 18.0566 18.0617 18.0566 17.7139C18.0566 17.366 18.3387 17.084 18.6865 17.084H18.9318C19.2796 17.084 19.5616 17.366 19.5616 17.7139C19.5616 18.0617 19.2796 18.3438 18.9318 18.3438Z" fill="#4B4A55"/>
<path d="M21.5568 18.3438H21.3115C20.9637 18.3438 20.6816 18.0617 20.6816 17.7139C20.6816 17.366 20.9637 17.084 21.3115 17.084H21.5568C21.9047 17.084 22.1867 17.366 22.1867 17.7139C22.1867 18.0617 21.9047 18.3438 21.5568 18.3438Z" fill="#4B4A55"/>
<path d="M21.5568 14.2842H21.3115C20.9637 14.2842 20.6816 14.0022 20.6816 13.6543C20.6816 13.3064 20.9637 13.0244 21.3115 13.0244H21.5568C21.9047 13.0244 22.1867 13.3064 22.1867 13.6543C22.1867 14.0022 21.9047 14.2842 21.5568 14.2842Z" fill="#4B4A55"/>
<path d="M24.1818 18.3438H23.9365C23.5887 18.3438 23.3066 18.0617 23.3066 17.7139C23.3066 17.366 23.5887 17.084 23.9365 17.084H24.1818C24.5297 17.084 24.8117 17.366 24.8117 17.7139C24.8117 18.0617 24.5297 18.3438 24.1818 18.3438Z" fill="#4B4A55"/>
<path d="M26.8087 18.3438H26.5635C26.2156 18.3438 25.9336 18.0617 25.9336 17.7139C25.9336 17.366 26.2156 17.084 26.5635 17.084H26.8087C27.1566 17.084 27.4386 17.366 27.4386 17.7139C27.4386 18.0617 27.1566 18.3438 26.8087 18.3438Z" fill="#4B4A55"/>
<path d="M8.42785 18.3438H8.18262C7.83475 18.3438 7.55273 18.0617 7.55273 17.7139C7.55273 17.366 7.83475 17.084 8.18262 17.084H8.42785C8.77572 17.084 9.05774 17.366 9.05774 17.7139C9.05774 18.0617 8.77572 18.3438 8.42785 18.3438Z" fill="#4B4A55"/>
<path d="M11.0529 18.3438H10.8076C10.4598 18.3438 10.1777 18.0617 10.1777 17.7139C10.1777 17.366 10.4598 17.084 10.8076 17.084H11.0529C11.4008 17.084 11.6828 17.366 11.6828 17.7139C11.6828 18.0617 11.4008 18.3438 11.0529 18.3438Z" fill="#4B4A55"/>
<path d="M13.6779 18.3438H13.4326C13.0848 18.3438 12.8027 18.0617 12.8027 17.7139C12.8027 17.366 13.0848 17.084 13.4326 17.084H13.6779C14.0258 17.084 14.3078 17.366 14.3078 17.7139C14.3078 18.0617 14.0258 18.3438 13.6779 18.3438Z" fill="#4B4A55"/>
<path d="M3.1759 18.3438H2.93066C2.5828 18.3438 2.30078 18.0617 2.30078 17.7139C2.30078 17.366 2.5828 17.084 2.93066 17.084H3.1759C3.52376 17.084 3.80578 17.366 3.80578 17.7139C3.80578 18.0617 3.52376 18.3438 3.1759 18.3438Z" fill="#4B4A55"/>
<path d="M5.80098 18.3438H5.55566C5.2078 18.3438 4.92578 18.0617 4.92578 17.7139C4.92578 17.366 5.2078 17.084 5.55566 17.084H5.80098C6.14885 17.084 6.43086 17.366 6.43086 17.7139C6.43086 18.0617 6.14885 18.3438 5.80098 18.3438Z" fill="#4B4A55"/>
<path d="M16.3049 18.3438H16.0596C15.7117 18.3438 15.4297 18.0617 15.4297 17.7139C15.4297 17.366 15.7117 17.084 16.0596 17.084H16.3049C16.6528 17.084 16.9348 17.366 16.9348 17.7139C16.9348 18.0617 16.6528 18.3438 16.3049 18.3438Z" fill="#4B4A55"/>
<path d="M18.9318 14.2842H18.6865C18.3387 14.2842 18.0566 14.0022 18.0566 13.6543C18.0566 13.3064 18.3387 13.0244 18.6865 13.0244H18.9318C19.2796 13.0244 19.5616 13.3064 19.5616 13.6543C19.5616 14.0022 19.2796 14.2842 18.9318 14.2842Z" fill="#4B4A55"/>
<path d="M8.42785 14.2842H8.18262C7.83475 14.2842 7.55273 14.0022 7.55273 13.6543C7.55273 13.3064 7.83475 13.0244 8.18262 13.0244H8.42785C8.77572 13.0244 9.05774 13.3064 9.05774 13.6543C9.05774 14.0022 8.77572 14.2842 8.42785 14.2842Z" fill="#4B4A55"/>
<path d="M11.0529 14.2842H10.8076C10.4598 14.2842 10.1777 14.0022 10.1777 13.6543C10.1777 13.3064 10.4598 13.0244 10.8076 13.0244H11.0529C11.4008 13.0244 11.6828 13.3064 11.6828 13.6543C11.6828 14.0022 11.4008 14.2842 11.0529 14.2842Z" fill="#4B4A55"/>
<path d="M13.6779 14.2842H13.4326C13.0848 14.2842 12.8027 14.0022 12.8027 13.6543C12.8027 13.3064 13.0848 13.0244 13.4326 13.0244H13.6779C14.0258 13.0244 14.3078 13.3064 14.3078 13.6543C14.3078 14.0022 14.0258 14.2842 13.6779 14.2842Z" fill="#4B4A55"/>
<path d="M3.1759 14.2842H2.93066C2.5828 14.2842 2.30078 14.0022 2.30078 13.6543C2.30078 13.3064 2.5828 13.0244 2.93066 13.0244H3.1759C3.52376 13.0244 3.80578 13.3064 3.80578 13.6543C3.80578 14.0022 3.52376 14.2842 3.1759 14.2842Z" fill="#4B4A55"/>
<path d="M5.80098 14.2842H5.55566C5.2078 14.2842 4.92578 14.0022 4.92578 13.6543C4.92578 13.3064 5.2078 13.0244 5.55566 13.0244H5.80098C6.14885 13.0244 6.43086 13.3064 6.43086 13.6543C6.43086 14.0022 6.14885 14.2842 5.80098 14.2842Z" fill="#4B4A55"/>
<path d="M16.3049 14.2842H16.0596C15.7117 14.2842 15.4297 14.0022 15.4297 13.6543C15.4297 13.3064 15.7117 13.0244 16.0596 13.0244H16.3049C16.6528 13.0244 16.9348 13.3064 16.9348 13.6543C16.9348 14.0022 16.6528 14.2842 16.3049 14.2842Z" fill="#4B4A55"/>
<path d="M21.4326 11.8303H5.67773L8.08859 8.3127C8.22313 8.11635 8.44586 7.99902 8.68387 7.99902H18.4265C18.6645 7.99902 18.8872 8.11635 19.0218 8.3127L21.4326 11.8303Z" fill="#EEEFEB"/>
<path d="M9.94315 9.44061L10.2614 8.97626C10.6805 8.36461 11.3744 7.99902 12.1159 7.99902H8.68574C8.44773 7.99902 8.225 8.11635 8.09046 8.3127L5.67969 11.8302H11.2025C9.97423 11.8303 9.24886 10.4537 9.94315 9.44061Z" fill="#D6D6D0"/>
<path d="M16.2283 3.97164H11.0053C10.9797 3.97164 10.9547 3.96979 10.9297 3.96777V7.74707H16.3039V3.96777C16.2789 3.96979 16.2539 3.97164 16.2283 3.97164Z" fill="#363540"/>
<path d="M13.3753 6.16615V3.97164H11.0053C10.9797 3.97164 10.9547 3.96979 10.9297 3.96777V7.74707H14.9562C14.0831 7.74707 13.3753 7.03925 13.3753 6.16615Z" fill="#21212B"/>
<path d="M29.4089 14.9375H1.06934C0.93009 15.3515 0.804533 15.7719 0.691406 16.1973H29.4089C29.7567 16.1973 30.0387 15.9152 30.0387 15.5674C30.0387 15.2195 29.7567 14.9375 29.4089 14.9375Z" fill="#4B4A55"/>
<path d="M9.14905 15.5674C9.14905 15.2194 9.43107 14.9375 9.77893 14.9375H1.06934C0.93009 15.3515 0.804533 15.7719 0.691406 16.1973H9.77893C9.43107 16.1973 9.14905 15.9152 9.14905 15.5674Z" fill="#363540"/>
<path d="M24.0335 11.2002H2.75977C2.52159 11.6113 2.29777 12.0316 2.08789 12.46H24.0335C24.3814 12.46 24.6634 12.178 24.6634 11.8301C24.6634 11.4823 24.3814 11.2002 24.0335 11.2002Z" fill="#D6D6D0"/>
<path d="M9.39285 11.8301C9.39285 11.4822 9.67487 11.2002 10.0227 11.2002H2.75977C2.52159 11.6113 2.29777 12.0316 2.08789 12.46H10.0227C9.67487 12.46 9.39285 12.178 9.39285 11.8301Z" fill="#C6C6C1"/>
<path d="M38.0731 26.5547H0.626953C1.1637 28.6797 2.03117 30.6728 3.17126 32.4767H35.8857C36.2484 32.4767 36.545 32.1925 36.5662 31.8304C36.6777 29.9358 37.2682 28.1519 38.0731 26.5547Z" fill="#EEEFEB"/>
<path d="M11.9348 26.5547H0.626953C1.1637 28.6797 2.03117 30.6728 3.17126 32.4767H12.7138C12.8003 32.299 12.8983 32.1353 12.9985 31.9889C13.2333 31.6458 13.1384 31.1744 12.7796 30.9646C11.7999 30.3921 11.9348 28.922 11.9348 28.922V26.5547Z" fill="#D6D6D0"/>
<path d="M42.2939 19.207H0.127824C0.0443437 19.96 0 20.7246 0 21.4998C0 22.5083 0.0739063 23.4995 0.214076 24.4691H39.2986C40.4814 22.7099 41.8087 21.2972 42.7662 20.3804C43.21 19.9556 42.9082 19.207 42.2939 19.207Z" fill="#EB5793"/>
<path d="M0 21.4998C0 22.5083 0.0739063 23.4995 0.214076 24.4691H11.9342V19.207H0.127824C0.0443437 19.96 0 20.7246 0 21.4998H0Z" fill="#E7387F"/>
<path d="M20.6623 22.4678H20.417C20.0691 22.4678 19.7871 22.1858 19.7871 21.8379C19.7871 21.49 20.0691 21.208 20.417 21.208H20.6623C21.0102 21.208 21.2922 21.49 21.2922 21.8379C21.2922 22.1858 21.0103 22.4678 20.6623 22.4678Z" fill="#E20A62"/>
<path d="M23.2365 22.4678H22.9912C22.6433 22.4678 22.3613 22.1858 22.3613 21.8379C22.3613 21.49 22.6433 21.208 22.9912 21.208H23.2365C23.5844 21.208 23.8664 21.49 23.8664 21.8379C23.8664 22.1858 23.5844 22.4678 23.2365 22.4678Z" fill="#E20A62"/>
<path d="M25.8087 22.4678H25.5635C25.2156 22.4678 24.9336 22.1858 24.9336 21.8379C24.9336 21.49 25.2156 21.208 25.5635 21.208H25.8087C26.1566 21.208 26.4386 21.49 26.4386 21.8379C26.4386 22.1858 26.1566 22.4678 25.8087 22.4678Z" fill="#E20A62"/>
<path d="M28.3849 22.4678H28.1397C27.7918 22.4678 27.5098 22.1858 27.5098 21.8379C27.5098 21.49 27.7918 21.208 28.1397 21.208H28.3849C28.7328 21.208 29.0148 21.49 29.0148 21.8379C29.0148 22.1858 28.7328 22.4678 28.3849 22.4678Z" fill="#E20A62"/>
<path d="M3.58223 22.4678H3.33691C2.98905 22.4678 2.70703 22.1858 2.70703 21.8379C2.70703 21.49 2.98905 21.208 3.33691 21.208H3.58223C3.9301 21.208 4.21211 21.49 4.21211 21.8379C4.21211 22.1858 3.9301 22.4678 3.58223 22.4678Z" fill="#E20A62"/>
<path d="M6.15645 22.4678H5.91113C5.56327 22.4678 5.28125 22.1858 5.28125 21.8379C5.28125 21.49 5.56327 21.208 5.91113 21.208H6.15645C6.50431 21.208 6.78633 21.49 6.78633 21.8379C6.78633 22.1858 6.50431 22.4678 6.15645 22.4678Z" fill="#E20A62"/>
<path d="M8.73067 22.4678H8.48535C8.13749 22.4678 7.85547 22.1858 7.85547 21.8379C7.85547 21.49 8.13749 21.208 8.48535 21.208H8.73067C9.07853 21.208 9.36055 21.49 9.36055 21.8379C9.36055 22.1858 9.07853 22.4678 8.73067 22.4678Z" fill="#E20A62"/>
<path d="M11.3049 22.4678H11.0596C10.7117 22.4678 10.4297 22.1858 10.4297 21.8379C10.4297 21.49 10.7117 21.208 11.0596 21.208H11.3049C11.6528 21.208 11.9348 21.49 11.9348 21.8379C11.9348 22.1858 11.6528 22.4678 11.3049 22.4678Z" fill="#E20A62"/>
<path d="M0.668338 26.7231H37.9877C38.3798 25.9234 38.8271 25.1691 39.2975 24.4697H0.212891C0.323582 25.2353 0.475846 25.9873 0.668338 26.7231Z" fill="#E7387F"/>
<path d="M0.212891 24.4697C0.323582 25.2352 0.475846 25.9872 0.668338 26.7231H11.933V24.4697H0.212891Z" fill="#E20A62"/>
<path d="M19.022 8.6289H8.08887C7.741 8.6289 7.45898 8.34689 7.45898 7.99902C7.45898 7.65116 7.741 7.36914 8.08887 7.36914H19.0221C19.37 7.36914 19.652 7.65116 19.652 7.99902C19.6519 8.34689 19.3699 8.6289 19.022 8.6289Z" fill="#D6D6D0"/>
<path d="M10.2075 7.99902C10.2075 7.65116 10.4895 7.36914 10.8373 7.36914H8.08887C7.741 7.36914 7.45898 7.65116 7.45898 7.99902C7.45898 8.34689 7.741 8.6289 8.08887 8.6289H10.8373C10.4894 8.6289 10.2075 8.34689 10.2075 7.99902Z" fill="#C6C6C1"/>
<path d="M16.2297 3.97135H11.0067C10.4799 3.97135 10.0488 3.54034 10.0488 3.01351C10.0488 2.48667 10.4798 2.05566 11.0067 2.05566H16.2297C16.7566 2.05566 17.1876 2.48667 17.1876 3.01351C17.1876 3.54034 16.7566 3.97135 16.2297 3.97135Z" fill="#EB5793"/>
<path d="M12.6133 3.01351C12.6133 2.57805 12.8883 2.20465 13.2728 2.05566H11.0067C10.4798 2.05566 10.0488 2.48667 10.0488 3.01351C10.0488 3.54026 10.4798 3.97135 11.0067 3.97135H13.2728C12.8883 3.82244 12.6133 3.44896 12.6133 3.01351Z" fill="#E20A62"/>
<path d="M6.21022 36.228C6.31235 36.2186 6.42035 36.2131 6.53684 36.2131C8.32848 36.2131 8.32848 37.3888 10.1201 37.3888C11.9118 37.3888 11.9118 36.2131 13.7035 36.2131C15.4951 36.2131 15.4951 37.3888 17.2867 37.3888C19.0781 37.3888 19.0781 36.2131 20.8695 36.2131C22.6612 36.2131 22.6612 37.3888 24.4528 37.3888C26.2444 37.3888 26.2444 36.2131 28.0362 36.2131C29.8279 36.2131 29.8279 37.3888 31.6197 37.3888C33.3218 37.3888 33.4087 36.3289 34.9492 36.2228C36.1506 35.0496 37.2094 33.7309 38.0962 32.2947C36.9562 32.0415 36.729 31.1895 35.2031 31.1895C33.4113 31.1895 33.4113 32.3652 31.6197 32.3652C29.828 32.3652 29.828 31.1895 28.0362 31.1895C26.2445 31.1895 26.2445 32.3652 24.4528 32.3652C22.6612 32.3652 22.6612 31.1895 20.8695 31.1895C19.0781 31.1895 19.0781 32.3652 17.2867 32.3652C15.495 32.3652 15.495 31.1895 13.7035 31.1895C11.9118 31.1895 11.9118 32.3652 10.1201 32.3652C8.32848 32.3652 8.32848 31.1895 6.53684 31.1895C4.79542 31.1895 4.74621 32.3 3.09961 32.3622C3.97909 33.7744 5.02537 35.0719 6.21022 36.228Z" fill="#0C88ED"/>
<path d="M6.53684 36.2131C8.32848 36.2131 8.32848 37.3888 10.1201 37.3888C11.8059 37.3888 11.906 36.3483 13.4042 36.2252C13.4492 36.0032 13.3871 35.7648 13.2255 35.5865C11.9367 34.165 12.4368 32.8102 12.9986 31.9893C13.1541 31.7621 13.1642 31.4789 13.0495 31.2524C11.8779 31.4952 11.6619 32.3652 10.1201 32.3652C8.32848 32.3652 8.32848 31.1895 6.53684 31.1895C4.79542 31.1895 4.74621 32.3 3.09961 32.3622C3.97918 33.7744 5.02546 35.0719 6.21022 36.228C6.31235 36.2186 6.42035 36.2131 6.53684 36.2131Z" fill="#0F74D8"/>
<path d="M20.576 42.0763C26.2596 42.0763 31.4049 39.7719 35.1287 36.0464C33.4114 36.0787 33.3852 37.2207 31.6188 37.2207C29.827 37.2207 29.827 36.0449 28.0352 36.0449C26.2436 36.0449 26.2436 37.2207 24.4519 37.2207C22.6602 37.2207 22.6602 36.0449 20.8686 36.0449C19.0772 36.0449 19.0772 37.2207 17.2857 37.2207C15.4941 37.2207 15.4941 36.0449 13.7026 36.0449C11.9109 36.0449 11.9109 37.2207 10.1192 37.2207C8.32756 37.2207 8.32756 36.0449 6.53592 36.0449C6.35896 36.0449 6.20006 36.0568 6.05469 36.0774C9.77612 39.7845 14.9083 42.0763 20.576 42.0763Z" fill="#319DF5"/>
<path d="M13.2658 36.5225C13.374 36.3852 13.4232 36.2199 13.4171 36.0562C11.906 36.1741 11.8101 37.2207 10.1192 37.2207C8.32756 37.2207 8.32756 36.0449 6.53592 36.0449C6.35896 36.0449 6.20006 36.0568 6.05469 36.0774C7.98263 37.998 10.2899 39.5373 12.8535 40.5763C11.8273 38.7966 12.6804 37.2648 13.2658 36.5225Z" fill="#0C88ED"/>
</g>
<defs>
<clipPath id="clip0">
<rect width="43" height="43" fill="white"/>
</clipPath>
</defs>
</svg>
