<svg width="49" height="49" viewBox="0 0 49 49" fill="none" xmlns="http://www.w3.org/2000/svg">
<g clip-path="url(#clip0)">
<path d="M6.11477 35.0771L6.01367 39.7185C10.2438 44.3706 16.3438 47.2915 23.1269 47.2915C31.9529 47.2915 39.623 42.3468 43.5211 35.0771H6.11477Z" fill="#74727F"/>
<path d="M21.6562 35.0771C29.5594 35.0771 29.8917 46.8654 22.0184 47.2639C22.3861 47.2812 22.7555 47.2915 23.1274 47.2915C31.9534 47.2915 39.6235 42.3468 43.5215 35.0771H21.6562Z" fill="#5F5E6A"/>
<path d="M23.1273 1.03809C16.7069 1.03809 10.8981 3.65508 6.70784 7.8798L6.11523 35.077H43.5214C45.2644 31.8264 46.254 28.1113 46.254 24.1647C46.254 11.3922 35.8998 1.03809 23.1273 1.03809Z" fill="#67E5EE"/>
<path d="M6.64453 30.2754V35.6267L10.2439 36.9485L13.8453 35.6267V30.2754H6.64453Z" fill="#21212B"/>
<path d="M20.4238 30.5938C20.8245 30.5938 21.1828 30.861 21.3213 31.2634L21.7535 32.5175H27.3102V30.5938H20.4238Z" fill="#363540"/>
<path d="M32.318 36.5998V32.3916H21.7305L23.2824 36.5998C23.4405 37.0284 23.2718 37.497 22.9029 37.7344L22.9414 37.8284H32.8883C32.3906 37.6466 32.1348 37.0965 32.318 36.5998Z" fill="#21212B"/>
<path d="M32.3179 36.5988V32.3906H26.9435C27.3063 32.5723 27.5574 32.947 27.5574 33.3784V36.7756C27.5574 37.266 27.2334 37.6841 26.7891 37.8273H32.8883C32.3905 37.6458 32.1347 37.0956 32.3179 36.5988Z" fill="black"/>
<path d="M37.2571 14.2197H34.691C34.1281 14.2197 33.6719 14.676 33.6719 15.2388V19.9146H43.7897C43.3466 16.7093 40.5792 14.2197 37.2571 14.2197Z" fill="#EEEFEB"/>
<path d="M37.2571 14.2197H34.691C34.1281 14.2197 33.6719 14.676 33.6719 15.2388V19.9146H43.7897C43.3466 16.7093 40.5792 14.2197 37.2571 14.2197Z" fill="#EEEFEB"/>
<path d="M43.1076 18.895H40.5415C39.9788 18.895 39.5225 18.4387 39.5225 17.8759V14.6247C38.8151 14.3637 38.0523 14.2197 37.2571 14.2197H34.691C34.1281 14.2197 33.6719 14.676 33.6719 15.2388V19.9146H43.7897C43.7406 19.5593 43.6614 19.2133 43.5574 18.878C43.4087 18.888 43.259 18.895 43.1076 18.895Z" fill="#D6D6D0"/>
<path d="M1.50781 32.3916C1.6444 32.7504 1.79062 33.1045 1.94429 33.4544L3.50898 36.0274H8.2423V32.3916H1.50781Z" fill="black"/>
<path d="M3.5849 31.6035C2.80038 31.6035 2.06335 31.8098 1.42383 32.1695C1.58373 32.6029 1.75732 33.0295 1.94224 33.4501L2.23402 33.9299C2.62387 33.6777 3.08706 33.5298 3.5849 33.5298C4.96173 33.5298 6.08191 34.65 6.08191 36.0268C6.08191 36.9521 5.5752 37.7601 4.82552 38.1915L5.11739 38.6714C5.40605 39.03 5.70434 39.3806 6.01386 39.7208C7.21408 38.9289 8.00813 37.5691 8.00813 36.0267C8.00813 33.5878 6.02386 31.6035 3.5849 31.6035Z" fill="black"/>
<path d="M3.58462 33.5293C3.06224 33.5293 2.57705 33.6908 2.17578 33.9662C2.88667 35.4831 3.75727 36.9099 4.76625 38.2254C5.54869 37.8033 6.08164 36.9759 6.08164 36.0263C6.08154 34.6495 4.96146 33.5293 3.58462 33.5293Z" fill="#C6C6C1"/>
<path d="M3.5839 32.9658C2.97893 32.9658 2.41482 33.143 1.93945 33.4471C2.09303 33.7972 2.25492 34.1425 2.42502 34.4832C2.74841 34.2398 3.14893 34.0936 3.5839 34.0936C4.6498 34.0936 5.51701 34.9608 5.51701 36.0268C5.51701 36.7922 5.06873 37.4531 4.42184 37.7661C4.6465 38.0745 4.87862 38.3772 5.11791 38.6738C6.02995 38.1432 6.64483 37.1557 6.64483 36.0267C6.64474 34.339 5.27167 32.9658 3.5839 32.9658Z" fill="#D6D6D0"/>
<path d="M8.20219 31.2194C8.06353 30.8434 7.7053 30.5938 7.30469 30.5938C5.70499 30.5938 2.66265 30.5938 0.90625 30.5938C1.094 31.2438 1.30969 31.8819 1.55163 32.507H6.41238C6.54793 32.507 6.66904 32.5915 6.71595 32.7186L8.39136 37.2613C8.57448 37.7578 9.12509 38.0104 9.6199 37.8279C10.1156 37.645 10.3693 37.0951 10.1865 36.5993L8.20219 31.2194Z" fill="#363540"/>
<path d="M28.3522 7.87988H6.7072C2.56158 12.0595 0 17.8127 0 24.1648C0 26.4328 0.328021 28.6239 0.936488 30.6949H28.3522C29.0377 30.6949 29.5934 30.1392 29.5934 29.4538V9.12108C29.5933 8.43558 29.0377 7.87988 28.3522 7.87988Z" fill="#EEEFEB"/>
<path d="M12.4145 7.87988H6.7072C2.56158 12.0595 0 17.8127 0 24.1648C0 26.4328 0.328021 28.6238 0.936488 30.6949H12.9816C12.927 30.6108 12.857 30.5363 12.7722 30.4771C12.2975 30.1454 11.6091 29.4266 12.1625 28.263C12.2832 28.009 12.2535 27.7135 12.1054 27.4746C11.9122 27.1629 11.7772 26.6695 12.2333 26.0893C12.3475 25.9442 12.4146 25.7677 12.4146 25.5831V10.6295C12.4146 10.4122 12.3303 10.2029 12.1761 10.0498C11.7968 9.67319 11.2142 8.82034 12.4145 7.87988Z" fill="#D6D6D0"/>
<path d="M25.8231 25.8857C25.4019 25.8857 25.0605 25.5443 25.0605 25.1232V11.0154C25.0605 10.5943 25.402 10.2529 25.8231 10.2529C26.2442 10.2529 26.5856 10.5944 26.5856 11.0154V25.1231C26.5856 25.5443 26.2443 25.8857 25.8231 25.8857Z" fill="#D6D6D0"/>
<path d="M22.4696 25.8857C22.0484 25.8857 21.707 25.5443 21.707 25.1232V11.0154C21.707 10.5943 22.0485 10.2529 22.4696 10.2529C22.8906 10.2529 23.2321 10.5944 23.2321 11.0154V25.1231C23.2322 25.5443 22.8907 25.8857 22.4696 25.8857Z" fill="#D6D6D0"/>
<path d="M19.118 25.8857C18.6969 25.8857 18.3555 25.5443 18.3555 25.1232V11.0154C18.3555 10.5943 18.6969 10.2529 19.118 10.2529C19.5391 10.2529 19.8805 10.5944 19.8805 11.0154V25.1231C19.8805 25.5443 19.5392 25.8857 19.118 25.8857Z" fill="#D6D6D0"/>
<path d="M15.7664 25.8857C15.3452 25.8857 15.0039 25.5443 15.0039 25.1232V11.0154C15.0039 10.5943 15.3453 10.2529 15.7664 10.2529C16.1875 10.2529 16.5289 10.5944 16.5289 11.0154V25.1231C16.529 25.5443 16.1876 25.8857 15.7664 25.8857Z" fill="#D6D6D0"/>
<path d="M12.4149 25.8867C11.9937 25.8867 11.6523 25.5452 11.6523 25.1242V11.0164C11.6523 10.5952 11.9938 10.2539 12.4149 10.2539C12.836 10.2539 13.1774 10.5953 13.1774 11.0164V25.1241C13.1774 25.5452 12.836 25.8867 12.4149 25.8867Z" fill="#C6C6C1"/>
<path d="M9.06135 25.8867C8.64025 25.8867 8.29883 25.5452 8.29883 25.1242V11.0164C8.29883 10.5952 8.64025 10.2539 9.06135 10.2539C9.48253 10.2539 9.82386 10.5953 9.82386 11.0164V25.1241C9.82386 25.5452 9.48244 25.8867 9.06135 25.8867Z" fill="#C6C6C1"/>
<path d="M5.70978 25.8867C5.28869 25.8867 4.94727 25.5452 4.94727 25.1242V11.0164C4.94727 10.5952 5.28869 10.2539 5.70978 10.2539C6.13088 10.2539 6.4723 10.5953 6.4723 11.0164V25.1241C6.4723 25.5452 6.13088 25.8867 5.70978 25.8867Z" fill="#C6C6C1"/>
<path d="M1.5957 15.7075V25.1237C1.5957 25.5448 1.93713 25.8862 2.35822 25.8862C2.77941 25.8862 3.12074 25.5448 3.12074 25.1237V12.5576C2.53663 13.5622 2.02539 14.6143 1.5957 15.7075Z" fill="#C6C6C1"/>
<path d="M34.1621 32.3369H43.448V35.9582H34.1621V32.3369Z" fill="black"/>
<path d="M46.9099 32.8037C46.5878 32.8037 46.3257 32.5536 46.3257 32.2461V29.3999C46.3257 29.0923 46.5878 28.8422 46.9099 28.8422H47.4549V27.1558C47.4549 26.7603 47.3871 26.3677 47.2546 25.9951L45.1921 20.197C44.9065 19.3939 44.1462 18.8574 43.2939 18.8574H33.6111C32.8497 18.8574 32.2324 19.4747 32.2324 20.2361V36.5282L32.2892 36.5239L34.2086 31.3196C34.3466 30.9451 34.7035 30.6965 35.1025 30.6965H42.5132C42.9123 30.6965 43.2691 30.9451 43.4071 31.3196L44.6418 34.6675H47.4549V32.8038H46.9099V32.8037Z" fill="#59B37D"/>
<path d="M39.5691 29.6631V19.8649C39.5691 19.4033 39.8648 19.0085 40.2756 18.8574H33.6111C32.8497 18.8574 32.2324 19.4747 32.2324 20.2361V36.5282L32.2892 36.5239L34.2086 31.3196C34.3466 30.9451 34.7035 30.6965 35.1025 30.6965H40.3546C39.903 30.5693 39.5691 30.1538 39.5691 29.6631Z" fill="#168C80"/>
<path d="M36.0952 20.3555H34.1387C33.9132 20.3555 33.7305 20.5383 33.7305 20.7637V24.2406C33.7305 24.4661 33.9133 24.6488 34.1387 24.6488H36.0952C36.3207 24.6488 36.5035 24.4661 36.5035 24.2406V20.7637C36.5035 20.5382 36.3207 20.3555 36.0952 20.3555Z" fill="#21212B"/>
<path d="M45.7947 26.353C45.6214 25.8569 45.1544 24.5714 43.7826 20.6992C43.7094 20.4936 43.5136 20.3555 43.2954 20.3555H38.4627C38.2471 20.3555 38.0723 20.5303 38.0723 20.746V24.2585C38.0723 24.4741 38.2471 24.6489 38.4627 24.6489H40.8859C41.0443 24.6489 41.1869 24.7445 41.2471 24.891L41.8315 26.3146C41.9428 26.5857 42.2068 26.7627 42.4998 26.7627H45.5033C45.7158 26.7627 45.8647 26.5535 45.7947 26.353Z" fill="#363540"/>
<path d="M38.4628 20.3555C38.2472 20.3555 38.0723 20.5303 38.0723 20.746V24.2585C38.0723 24.4741 38.2471 24.6489 38.4628 24.6489H39.5707V20.3555H38.4628Z" fill="#21212B"/>
<path d="M39.6967 27.0754H38.8312C38.521 27.0754 38.2695 26.824 38.2695 26.5138C38.2695 26.2036 38.521 25.9521 38.8312 25.9521H39.6967C40.0069 25.9521 40.2583 26.2036 40.2583 26.5138C40.2583 26.824 40.0069 27.0754 39.6967 27.0754Z" fill="#7AF4AB"/>
<path d="M38.8078 40.3637C36.3787 40.3637 34.4023 38.3874 34.4023 35.9582C34.4023 33.5291 36.3787 31.5527 38.8078 31.5527C41.237 31.5527 43.2133 33.5291 43.2133 35.9582C43.2133 38.3874 41.237 40.3637 38.8078 40.3637ZM38.8078 33.4712C37.4366 33.4712 36.3208 34.5869 36.3208 35.9582C36.3208 37.3295 37.4365 38.4452 38.8078 38.4452C40.1792 38.4452 41.2948 37.3296 41.2948 35.9582C41.2948 34.5869 40.1791 33.4712 38.8078 33.4712Z" fill="#21212B"/>
<path d="M41.136 38.2013C41.1147 38.072 41.0054 37.9768 40.8754 37.9605C40.6955 37.9379 40.57 37.8767 40.4818 37.798C40.0398 38.2001 39.453 38.4454 38.8099 38.4454C37.4386 38.4454 36.3229 37.3297 36.3229 35.9584C36.3229 35.2521 36.6193 34.6142 37.0936 34.1611C36.9946 34.0293 36.9806 33.863 36.9931 33.7265C37.006 33.5851 36.9194 33.4559 36.7845 33.4116C36.0493 33.1706 36.1433 32.4668 36.1452 32.4531C35.0882 33.2586 34.4043 34.5299 34.4043 35.9584C34.4043 38.3875 36.3806 40.3639 38.8098 40.3639C40.1334 40.3639 41.3216 39.7763 42.1298 38.8493C41.3762 38.9048 41.1823 38.4811 41.136 38.2013Z" fill="black"/>
<path d="M40.5601 37.7163C41.5312 36.7452 41.5312 35.1708 40.5601 34.1997C39.589 33.2286 38.0146 33.2286 37.0435 34.1997C36.0724 35.1708 36.0724 36.7452 37.0435 37.7163C38.0146 38.6874 39.589 38.6874 40.5601 37.7163Z" fill="#D6D6D0"/>
<path d="M40.4812 37.7981C40.3506 37.6815 40.3029 37.5266 40.2885 37.4005C40.2735 37.2686 40.1715 37.1655 40.0405 37.144C38.0329 36.814 37.7335 35.255 37.6944 34.6387C37.6859 34.5045 37.5885 34.3921 37.4565 34.3664C37.2771 34.3315 37.1636 34.2551 37.093 34.1611C36.6187 34.6142 36.3223 35.2522 36.3223 35.9584C36.3223 37.3297 37.4379 38.4454 38.8093 38.4454C39.4525 38.4454 40.0393 38.2001 40.4812 37.7981Z" fill="#C6C6C1"/>
<path d="M38.8084 39.0064C37.1274 39.0064 35.7598 37.6388 35.7598 35.9578C35.7598 34.2769 37.1274 32.9092 38.8084 32.9092C40.4895 32.9092 41.8571 34.2768 41.8571 35.9578C41.8571 37.6389 40.4895 39.0064 38.8084 39.0064ZM38.8084 34.0324C37.7468 34.0324 36.8831 34.8961 36.8831 35.9577C36.8831 37.0193 37.7468 37.883 38.8084 37.883C39.8701 37.883 40.7338 37.0193 40.7338 35.9577C40.7337 34.8961 39.8701 34.0324 38.8084 34.0324Z" fill="#EEEFEB"/>
<path d="M41.0388 38.0332C40.9934 37.9941 40.9362 37.9677 40.8739 37.9599C40.4272 37.904 40.3117 37.6109 40.2876 37.3999C40.2815 37.3458 40.26 37.297 40.2286 37.2562C39.8763 37.6412 39.3701 37.8831 38.8083 37.8831C37.7467 37.8831 36.883 37.0194 36.883 35.9577C36.883 35.3484 37.1678 34.8047 37.611 34.4516C37.5701 34.4089 37.5168 34.3776 37.4557 34.3657C37.0246 34.2819 36.9703 33.9597 36.9916 33.7258C36.9977 33.66 36.9813 33.5972 36.9494 33.5439C36.2266 34.1019 35.7598 34.9761 35.7598 35.9578C35.7598 37.6389 37.1274 39.0065 38.8084 39.0065C39.6883 39.0065 40.4819 38.6313 41.0388 38.0332Z" fill="#D6D6D0"/>
<path d="M47.5212 28.7676H46.911C46.5485 28.7676 46.252 29.0523 46.252 29.4002V32.2464C46.252 32.5943 46.5485 32.879 46.911 32.879H47.5212C47.8837 32.879 48.1802 32.5943 48.1802 32.2464V29.4002C48.1802 29.0523 47.8837 28.7676 47.5212 28.7676Z" fill="#EB5793"/>
<path d="M47.5212 31.035H46.911C46.5485 31.035 46.252 30.7503 46.252 30.4023V32.246C46.252 32.5939 46.5485 32.8786 46.911 32.8786H47.5212C47.8837 32.8786 48.1802 32.5939 48.1802 32.246V30.4023C48.1802 30.7503 47.8837 31.035 47.5212 31.035Z" fill="#E7387F"/>
<path d="M47.4547 34.5176H42.8203L43.8857 37.3986H47.4548C47.9356 37.3986 48.3289 37.0053 48.3289 36.5245V35.3916C48.3288 34.9109 47.9355 34.5176 47.4547 34.5176Z" fill="#363540"/>
<path d="M46.2507 36.5246V35.3917C46.2507 34.9109 46.644 34.5176 47.1248 34.5176H42.8203L43.8857 37.3986H47.1248C46.644 37.3987 46.2507 37.0053 46.2507 36.5246Z" fill="#21212B"/>
<path d="M45.3838 36.5284L43.4076 31.17C43.2695 30.7955 42.9127 30.5469 42.5137 30.5469C40.5179 30.5469 36.2656 30.5469 35.103 30.5469C34.7039 30.5469 34.3471 30.7955 34.2091 31.17L32.2329 36.5284C32.0456 37.0364 32.3186 37.6017 32.8408 37.7669C33.33 37.9216 33.8526 37.6439 34.0301 37.1626L35.6895 32.6632C35.7362 32.5366 35.8568 32.4524 35.9918 32.4524H41.625C41.76 32.4524 41.8806 32.5365 41.9274 32.6632L43.596 37.1877C43.7783 37.6823 44.3268 37.9339 44.8196 37.752C45.3133 37.5699 45.566 37.0222 45.3838 36.5284Z" fill="#4B4A55"/>
<path d="M35.9917 32.4525C34.5317 31.8216 35.103 30.5469 35.103 30.5469C34.7039 30.5469 34.3471 30.7955 34.2091 31.17L32.2329 36.5284C32.0456 37.0364 32.3186 37.6017 32.8408 37.7669C33.33 37.9216 33.8526 37.6438 34.0301 37.1626L35.6895 32.6632C35.7361 32.5366 35.8567 32.4525 35.9917 32.4525Z" fill="#363540"/>
<path d="M12.2598 32.3369H21.5456V35.9582H12.2598V32.3369Z" fill="black"/>
<path d="M16.9074 40.3637C14.4783 40.3637 12.502 38.3874 12.502 35.9582C12.502 33.5291 14.4783 31.5527 16.9074 31.5527C19.3366 31.5527 21.3129 33.5291 21.3129 35.9582C21.3129 38.3874 19.3366 40.3637 16.9074 40.3637ZM16.9074 33.4712C15.5362 33.4712 14.4204 34.5869 14.4204 35.9582C14.4204 37.3295 15.5361 38.4452 16.9074 38.4452C18.2787 38.4452 19.3945 37.3296 19.3945 35.9582C19.3945 34.5869 18.2787 33.4712 16.9074 33.4712Z" fill="#21212B"/>
<path d="M19.2336 38.2013C19.2123 38.072 19.1031 37.9768 18.973 37.9605C18.7931 37.9379 18.6675 37.8767 18.5794 37.798C18.1374 38.2001 17.5506 38.4454 16.9074 38.4454C15.5362 38.4454 14.4204 37.3297 14.4204 35.9584C14.4204 35.2521 14.7168 34.6142 15.1912 34.1611C15.0921 34.0293 15.0782 33.863 15.0907 33.7265C15.1037 33.5851 15.0171 33.4559 14.8821 33.4116C14.147 33.1706 14.241 32.4668 14.2429 32.4531C13.1858 33.2586 12.502 34.5299 12.502 35.9584C12.502 38.3875 14.4783 40.3639 16.9074 40.3639C18.231 40.3639 19.4193 39.7763 20.2275 38.8493C19.4737 38.9048 19.2799 38.4811 19.2336 38.2013Z" fill="black"/>
<path d="M18.6597 37.7144C19.6308 36.7433 19.6308 35.1688 18.6597 34.1977C17.6886 33.2266 16.1142 33.2266 15.1431 34.1977C14.172 35.1688 14.172 36.7433 15.1431 37.7144C16.1142 38.6855 17.6886 38.6855 18.6597 37.7144Z" fill="#D6D6D0"/>
<path d="M18.5789 37.7981C18.4482 37.6815 18.4005 37.5266 18.3862 37.4005C18.3712 37.2686 18.2691 37.1655 18.1381 37.144C16.1305 36.814 15.8311 35.255 15.792 34.6387C15.7835 34.5045 15.6861 34.3921 15.5542 34.3664C15.3747 34.3315 15.2613 34.2551 15.1907 34.1611C14.7163 34.6142 14.4199 35.2522 14.4199 35.9584C14.4199 37.3297 15.5356 38.4454 16.9069 38.4454C17.55 38.4454 18.1369 38.2001 18.5789 37.7981Z" fill="#C6C6C1"/>
<path d="M16.908 39.0064C15.2271 39.0064 13.8594 37.6388 13.8594 35.9578C13.8594 34.2769 15.227 32.9092 16.908 32.9092C18.5891 32.9092 19.9566 34.2768 19.9566 35.9578C19.9566 37.6389 18.5891 39.0064 16.908 39.0064ZM16.908 34.0324C15.8464 34.0324 14.9827 34.8961 14.9827 35.9577C14.9827 37.0193 15.8464 37.883 16.908 37.883C17.9697 37.883 18.8333 37.0193 18.8333 35.9577C18.8334 34.8961 17.9697 34.0324 16.908 34.0324Z" fill="#EEEFEB"/>
<path d="M19.1365 38.0332C19.0911 37.9941 19.0339 37.9677 18.9716 37.9599C18.525 37.904 18.4094 37.6109 18.3853 37.3999C18.3792 37.3458 18.3578 37.297 18.3263 37.2562C17.9741 37.6412 17.4678 37.8831 16.9061 37.8831C15.8444 37.8831 14.9807 37.0194 14.9807 35.9577C14.9807 35.3484 15.2656 34.8047 15.7088 34.4516C15.6678 34.4089 15.6146 34.3776 15.5534 34.3657C15.1223 34.2819 15.068 33.9597 15.0894 33.7258C15.0954 33.66 15.0791 33.5972 15.0471 33.5439C14.3243 34.1019 13.8574 34.9761 13.8574 35.9578C13.8574 37.6389 15.225 39.0065 16.9061 39.0065C17.786 39.0065 18.5796 38.6313 19.1365 38.0332Z" fill="#D6D6D0"/>
<path d="M23.4834 36.5284L21.5073 31.17C21.3693 30.7955 21.0123 30.5469 20.6133 30.5469C18.6176 30.5469 14.3652 30.5469 13.2026 30.5469C12.8035 30.5469 12.4467 30.7955 12.3087 31.17L10.3326 36.5284C10.1452 37.0364 10.4182 37.6017 10.9405 37.7669C11.4296 37.9216 11.9522 37.6439 12.1297 37.1626L13.7891 32.6632C13.8358 32.5366 13.9565 32.4524 14.0914 32.4524H19.7247C19.8597 32.4524 19.9803 32.5365 20.0271 32.6632L21.6957 37.1877C21.878 37.6823 22.4265 37.9339 22.9193 37.752C23.4128 37.5699 23.6655 37.0222 23.4834 36.5284Z" fill="#4B4A55"/>
<path d="M14.0913 32.4525C12.6313 31.8216 13.2026 30.5469 13.2026 30.5469C12.8036 30.5469 12.4467 30.7955 12.3087 31.17L10.3326 36.5284C10.1452 37.0364 10.4182 37.6017 10.9405 37.7669C11.4296 37.9216 11.9522 37.6438 12.1297 37.1626L13.7891 32.6632C13.8357 32.5366 13.9564 32.4525 14.0913 32.4525Z" fill="#363540"/>
<path d="M0.937335 30.6944H28.3531C29.0386 30.6944 29.5943 30.1387 29.5943 29.4533V27.8291H0.291016C0.446578 28.8061 0.663496 29.7624 0.937335 30.6944Z" fill="#D6D6D0"/>
<path d="M0.937335 30.6944H12.9825C12.9278 30.6103 12.8579 30.5358 12.7731 30.4766C12.2984 30.1449 11.61 29.4261 12.1633 28.2625C12.2286 28.125 12.2485 27.9754 12.2308 27.8291H0.291016C0.446578 28.8061 0.663496 29.7624 0.937335 30.6944Z" fill="#C6C6C1"/>
</g>
<defs>
<clipPath id="clip0">
<rect width="48.33" height="48.33" fill="white"/>
</clipPath>
</defs>
</svg>
