<svg width="43" height="43" viewBox="0 0 43 43" fill="none" xmlns="http://www.w3.org/2000/svg">
<g clip-path="url(#clip0)">
<path d="M5.87908 12.2617H38.9656C35.5809 5.53751 28.6179 0.923828 20.5763 0.923828C14.0468 0.923828 8.22837 3.96591 4.45898 8.70943L5.87908 12.2617Z" fill="#67E5EE"/>
<path d="M1.41992 29.0195C4.4227 36.6638 11.8664 42.0762 20.5761 42.0762C29.2858 42.0762 36.7295 36.6638 39.7323 29.0195H1.41992Z" fill="#EEEFEB"/>
<path d="M17.367 29.0195H1.41992C3.86664 35.2481 9.2618 39.9944 15.8877 41.539C8.57161 39.8204 9.83969 29.0195 17.367 29.0195Z" fill="#D6D6D0"/>
<path d="M39.6996 29.1038C40.0576 28.204 40.3548 27.2734 40.5843 26.3164H0.568359C0.797889 27.2734 1.09503 28.2041 1.45305 29.1038H39.6996Z" fill="#FFC743"/>
<path d="M1.45297 29.1039H17.0298C16.0486 28.1227 16.4033 27.2291 16.7298 26.7587C16.8213 26.6269 16.8564 26.4687 16.8351 26.3164H0.568359C0.797889 27.2735 1.09494 28.2042 1.45297 29.1039Z" fill="#FBB031"/>
<path d="M0.59134 26.4098H41.6088C42.2444 26.4098 42.8426 25.973 42.9769 25.246C43.1339 24.396 42.4782 23.6123 41.6139 23.6123H0.107422C0.204676 24.5658 0.368361 25.4994 0.59134 26.4098Z" fill="#4B4A55"/>
<path d="M0.59134 26.4098H16.8411C16.8425 26.2865 16.8077 26.1628 16.7363 26.0555C15.9806 24.9193 17.0299 23.9291 17.0299 23.9291L14.5299 23.6123H0.107422C0.204676 24.5658 0.368361 25.4994 0.59134 26.4098Z" fill="#363540"/>
<path d="M6.24414 23.7066H9.88444C9.63526 23.5131 9.47426 23.2114 9.47426 22.8713V9.76758H6.65432V22.8713C6.65432 23.2114 6.49332 23.5131 6.24414 23.7066Z" fill="#363540"/>
<path d="M9.47426 22.8715V16.0488C9.47787 16.4997 9.12783 16.8727 8.67683 16.8727H7.45175C7.00076 16.8727 6.65071 16.4997 6.65432 16.0489V22.8714C6.65432 23.2113 6.49332 23.5131 6.24414 23.7066H9.88444C9.63526 23.5132 9.47426 23.2114 9.47426 22.8715Z" fill="#21212B"/>
<path d="M38.4597 14.4967C39.667 17.8948 40.6723 18.7671 41.9714 19.0941C42.2389 19.1614 42.4593 19.3237 42.6073 19.5369L42.7738 19.5077L41.41 15.3858C40.7186 13.2963 39.2116 11.5751 37.2317 10.6139L35.6855 9.86328V10.0332C36.8597 11.1199 37.7928 12.6195 38.4597 14.4967Z" fill="#363540"/>
<path d="M37.2317 10.6139L35.6855 9.86328V10.0332C36.8253 11.0879 37.7369 12.5329 38.3995 14.3334C38.5529 14.2395 38.6748 14.0974 38.7422 13.9217C39.0964 12.9962 40.3269 13.2592 40.3419 13.2624C39.5539 12.1404 38.4883 11.224 37.2317 10.6139Z" fill="#21212B"/>
<path d="M42.9926 21.5441C39.7203 21.1405 38.024 19.6153 36.4791 15.267C35.8012 13.3591 34.9133 12.2745 34.2878 11.7004C34.101 11.529 33.9267 11.3929 33.7715 11.2842V8.70898C33.9197 8.7524 34.7088 9.01225 35.6871 9.86243C36.9503 10.9604 37.947 12.5194 38.6493 14.4958C39.8566 17.8939 40.8619 18.7662 42.161 19.0932C42.7094 19.2313 43.0618 19.7665 42.9926 20.3277V21.5441Z" fill="#EEEFEB"/>
<path d="M36.85 16.2462V16.0605C36.85 14.8041 37.522 14.499 38.0446 14.4517C38.2388 14.4341 38.4141 14.35 38.5473 14.2197C37.8517 12.3741 36.8907 10.9086 35.6871 9.86242C34.7088 9.01225 33.9197 8.75249 33.7715 8.70898V11.2842C33.9267 11.3929 34.101 11.529 34.2878 11.7004C34.9133 12.2745 35.8012 13.3591 36.4791 15.267C36.6014 15.6115 36.725 15.9363 36.85 16.2462Z" fill="#D6D6D0"/>
<path d="M36.4791 15.0795C35.8012 13.1716 34.9133 12.0869 34.2878 11.5129C34.101 11.3415 33.9267 11.2054 33.7715 11.0967V23.9294H42.1808C42.6325 23.9294 42.9925 23.6259 42.9925 23.1114V21.3565C39.7203 20.953 38.024 19.4277 36.4791 15.0795Z" fill="#0C88ED"/>
<path d="M36.85 16.061C36.85 16.061 36.85 16.0596 36.85 16.0588C36.725 15.7489 36.6014 15.4241 36.4791 15.0795C35.8012 13.1716 34.9133 12.0869 34.2878 11.5129C34.101 11.3415 33.9267 11.2054 33.7715 11.0967V23.9293H36.85V16.061Z" fill="#0F74D8"/>
<path d="M9.28711 10.9082V22.8709C9.28711 23.4552 9.76078 23.9289 10.3451 23.9289H33.7707V10.9082H9.28711Z" fill="#319DF5"/>
<path d="M15.9722 22.8709V10.9082H9.28711V22.8709C9.28711 23.4552 9.76078 23.9289 10.3451 23.9289H17.0302C16.4459 23.9289 15.9722 23.4551 15.9722 22.8709Z" fill="#0C88ED"/>
<path d="M10.3452 8.70898H33.7708V11.0962H9.28711V9.76702C9.28711 9.18266 9.76087 8.70898 10.3452 8.70898Z" fill="#EEEFEB"/>
<path d="M17.0302 8.70898H10.3451C9.76078 8.70898 9.28711 9.18274 9.28711 9.7671V11.0962H15.9722V9.7671C15.9722 9.18266 16.4459 8.70898 17.0302 8.70898Z" fill="#D6D6D0"/>
<path d="M27.2402 18.7832H31.8449V23.9293H27.2402V18.7832Z" fill="#0C88ED"/>
<path d="M29.5426 22.0651V18.7832H27.2402V23.9293H30.9241C30.1246 23.6866 29.5426 22.944 29.5426 22.0651Z" fill="#0F74D8"/>
<path d="M16.1428 12.9668H11.9606C11.6027 12.9668 11.3125 13.257 11.3125 13.615V18.3032C11.3125 18.6611 11.6027 18.9513 11.9606 18.9513H16.1428V12.9668Z" fill="#21212B"/>
<path d="M24.6183 12.9668H20.4609V18.9513H24.6183C24.9762 18.9513 25.2664 18.6611 25.2664 18.3032V13.615C25.2664 13.257 24.9762 12.9668 24.6183 12.9668Z" fill="#4B4A55"/>
<path d="M33.7715 11.0967V18.9512H38.4197C37.6957 18.016 37.0758 16.7591 36.4791 15.0795C35.8012 13.1716 34.9133 12.0869 34.2878 11.5129C34.101 11.3415 33.9267 11.2054 33.7715 11.0967Z" fill="#363540"/>
<path d="M36.4791 15.0795C35.8012 13.1716 34.9133 12.0869 34.2878 11.5129C34.101 11.3415 33.9267 11.2054 33.7715 11.0967V18.9512H36.85V16.0609V16.0597C36.725 15.7498 36.6014 15.4241 36.4791 15.0795Z" fill="#21212B"/>
<path d="M31.1967 12.9668H27.8883C27.5304 12.9668 27.2402 13.257 27.2402 13.6149V18.9512H31.8449V13.6149C31.8448 13.257 31.5547 12.9668 31.1967 12.9668Z" fill="#363540"/>
<path d="M30.1907 12.9668H27.8883C27.5304 12.9668 27.2402 13.257 27.2402 13.6149V18.9513H29.5426V13.6149C29.5425 13.257 29.8327 12.9668 30.1907 12.9668Z" fill="#21212B"/>
<path d="M15.9727 12.9668H20.6323V18.9513H15.9727V12.9668Z" fill="#363540"/>
<path d="M2.93273 10.9082C2.66743 11.3491 2.41883 11.8012 2.18653 12.2628L0.0831445 19.6558C0.0831445 19.6558 0.0821367 19.6554 0.0819688 19.6553C0.0279668 20.2629 0 20.8779 0 21.4996C0 22.3216 0.0497187 23.132 0.143445 23.9289H5.78459C6.36896 23.9289 6.84271 23.4552 6.84271 22.8709V10.9082H2.93273Z" fill="#0C88ED"/>
<path d="M5.78328 8.70898H4.4575C3.85794 9.46342 3.3107 10.261 2.82031 11.0962H6.8414V9.7671C6.8414 9.18266 6.36764 8.70898 5.78328 8.70898Z" fill="#EEEFEB"/>
<path d="M4.15787 18.9512C4.51582 18.9512 4.80598 18.661 4.80598 18.3031V13.6149C4.80598 13.257 4.51582 12.9668 4.15787 12.9668H1.84931C0.999306 14.8294 0.418975 16.8407 0.158203 18.9513H4.15787V18.9512Z" fill="#21212B"/>
<path d="M24.6184 19.6562H11.9606C11.2145 19.6562 10.6074 19.0492 10.6074 18.3031V13.6149C10.6074 12.8688 11.2145 12.2617 11.9606 12.2617H24.6184C25.3645 12.2617 25.9715 12.8688 25.9715 13.6149V18.3031C25.9714 19.0492 25.3644 19.6562 24.6184 19.6562ZM12.0174 18.2462H24.5615V13.6716H12.0174V18.2462ZM24.6184 13.6716H24.6193H24.6184Z" fill="#56B1FC"/>
<path d="M4.10071 13.6717V18.2463H0.257832C0.183926 18.7112 0.126145 19.1814 0.0839844 19.6562H4.15756C4.90368 19.6562 5.51064 19.0492 5.51064 18.3031V13.6149C5.51064 12.8688 4.90368 12.2617 4.15756 12.2617H2.18771C1.956 12.722 1.74125 13.1924 1.54388 13.6716H4.10071V13.6717Z" fill="#319DF5"/>
<path d="M34.4763 23.9293V8.89735C34.4763 8.508 34.1607 8.19238 33.7714 8.19238C33.382 8.19238 33.0664 8.508 33.0664 8.89735V23.9293H34.4763Z" fill="#56B1FC"/>
<path d="M33.7714 19.493C33.382 19.493 33.0664 19.1774 33.0664 18.7881V23.9293H34.4763V18.7881C34.4763 19.1774 34.1607 19.493 33.7714 19.493Z" fill="#0C88ED"/>
<path d="M15.9721 12.2617H11.9606C11.2145 12.2617 10.6074 12.8688 10.6074 13.6149V18.3031C10.6074 19.0492 11.2145 19.6562 11.9606 19.6562H15.9715C15.1782 18.9635 15.9086 18.2977 15.9674 18.2463H12.0174V13.6717H15.9647C15.1139 12.8122 15.9719 12.2619 15.9721 12.2617Z" fill="#319DF5"/>
</g>
<defs>
<clipPath id="clip0">
<rect width="43" height="43" fill="white"/>
</clipPath>
</defs>
</svg>
