<svg width="192" height="164" viewBox="0 0 192 164" fill="none" xmlns="http://www.w3.org/2000/svg">
<g filter="url(#filter0_d)">
<rect x="60" y="133" width="72" height="23" rx="11.5" fill="#F6ADCC"/>
</g>
<path d="M118.613 138.867L118.613 151.133" stroke="#99075F" stroke-width="4"/>
<line x1="112.266" y1="144.188" x2="124.532" y2="144.188" stroke="#99075F" stroke-width="4"/>
<line x1="67" y1="144" x2="79" y2="144" stroke="#99075F" stroke-width="4"/>
<rect width="192" height="83" rx="41.5" fill="#FF569D" fill-opacity="0.5"/>
<line x1="76.6836" y1="38.8154" x2="106.401" y2="38.8154" stroke="#F9F8F9" stroke-width="4"/>
<line x1="76.6836" y1="53.0464" x2="106.401" y2="53.0464" stroke="#F9F8F9" stroke-width="4"/>
<path d="M30.1536 64.1078V31.2142C30.1536 30.2531 29.3745 29.474 28.4135 29.474C27.4524 29.474 26.6733 30.2531 26.6733 31.2142V39.1838C26.6733 39.922 26.0749 40.5204 25.3367 40.5204C24.5984 40.5204 24 39.922 24 39.1838V28.9617C24 25.5632 26.7551 22.8081 30.1536 22.8081H38.8293H40.6372C44.3187 22.8081 47.3031 25.7925 47.3031 29.474V39.0829C47.3031 39.8768 46.6595 40.5204 45.8656 40.5204C45.0717 40.5204 44.4281 39.8768 44.4281 39.0829V30.8107C44.4281 30.0725 43.8296 29.474 43.0914 29.474C42.3532 29.474 41.7548 30.0725 41.7548 30.8107V64.3095C41.7548 65.4238 40.8515 66.3271 39.7372 66.3271C38.6229 66.3271 37.7196 65.4238 37.7196 64.3095V46.9407C37.7196 46.0771 37.0195 45.377 36.156 45.377C35.2924 45.377 34.5923 46.0771 34.5923 46.9407V64.1078C34.5923 65.3335 33.5987 66.3271 32.373 66.3271C31.1473 66.3271 30.1536 65.3335 30.1536 64.1078Z" stroke="#F9F9F9" stroke-width="3"/>
<path d="M39.494 13.8566C39.494 15.578 37.9107 17.2132 35.6474 17.2132C33.384 17.2132 31.8008 15.578 31.8008 13.8566C31.8008 12.1352 33.384 10.5 35.6474 10.5C37.9107 10.5 39.494 12.1352 39.494 13.8566Z" stroke="#F9F9F9" stroke-width="3"/>
<path d="M132.422 67.1823V34.1164H129.492V29.0938H159V34.1164H156.07V67.1823H132.422Z" stroke="white" stroke-width="3"/>
<path d="M137.445 37.6743V60.067" stroke="white" stroke-width="3"/>
<path d="M144.352 37.6743V60.067" stroke="white" stroke-width="3"/>
<path d="M150.629 37.8833V60.276" stroke="white" stroke-width="3"/>
<defs>
<filter id="filter0_d" x="60" y="133" width="80" height="31" filterUnits="userSpaceOnUse" color-interpolation-filters="sRGB">
<feFlood flood-opacity="0" result="BackgroundImageFix"/>
<feColorMatrix in="SourceAlpha" type="matrix" values="0 0 0 0 0 0 0 0 0 0 0 0 0 0 0 0 0 0 127 0"/>
<feOffset dx="4" dy="4"/>
<feGaussianBlur stdDeviation="2"/>
<feColorMatrix type="matrix" values="0 0 0 0 0 0 0 0 0 0 0 0 0 0 0 0 0 0 0.25 0"/>
<feBlend mode="normal" in2="BackgroundImageFix" result="effect1_dropShadow"/>
<feBlend mode="normal" in="SourceGraphic" in2="effect1_dropShadow" result="shape"/>
</filter>
</defs>
</svg>
