<svg width="134" height="134" viewBox="0 0 134 134" fill="none" xmlns="http://www.w3.org/2000/svg">
<ellipse cx="67" cy="66.5" rx="67" ry="66.5" fill="#FAAB45"/>
<mask id="mask0" mask-type="alpha" maskUnits="userSpaceOnUse" x="0" y="0" width="134" height="134">
<circle cx="66.925" cy="66.9226" r="66.554" fill="#C4C4C4"/>
</mask>
<g mask="url(#mask0)">
<path d="M91.8153 50.713H87.8779V46.7756C87.8779 39.1684 81.7025 32.9931 74.0954 32.9931C66.4882 32.9931 60.3129 39.1684 60.3129 46.7756V50.713H56.375V46.7756C56.375 36.9949 64.3148 29.0552 74.0954 29.0552C83.876 29.0552 91.8153 36.9949 91.8153 46.7756V50.713Z" fill="#603813"/>
<path d="M28.8086 50.7134H83.938V133.408H28.8086V50.7134Z" fill="#C69C6D"/>
<path d="M83.9375 50.7134H107.565V133.408H83.9375V50.7134Z" fill="#A67C52"/>
<path d="M74.0926 58.5888H70.1547V46.7756C70.1547 39.1684 63.9794 32.9931 56.3722 32.9931C48.7651 32.9931 42.5898 39.1684 42.5898 46.7756V58.5888H38.6523V46.7756C38.6523 36.9949 46.5916 29.0552 56.3722 29.0552C66.1529 29.0552 74.0926 36.9949 74.0926 46.7756V58.5888Z" fill="#8C6239"/>
<path d="M70.1549 97.9664V105.842H62.2791C56.9862 105.842 51.9231 103.72 48.2154 99.9351C47.0648 98.7465 46.0549 97.4296 45.2239 95.9977C43.4979 93.0057 42.5775 89.6052 42.59 86.1532V78.2773H50.4658C51.1305 78.2773 51.7828 78.3158 52.4345 78.3797C53.777 78.5201 55.0939 78.7887 56.3724 79.1853C64.5679 81.7678 70.1419 89.3749 70.1549 97.9664Z" fill="#A7CC46"/>
<path d="M70.1548 103.042V105.842H67.355L61.4739 99.9351H48.2153C47.0646 98.7465 46.0548 97.4296 45.2238 95.9977H57.523L42.5898 81.0771V78.2773H45.3901L52.4344 85.3476V78.3797C53.7768 78.5201 55.0938 78.7887 56.3723 79.1853V89.2855L70.1548 103.042Z" fill="#6BA840"/>
<path d="M107.565 130.608V133.408H104.764L95.7508 124.369L86.7372 133.408H83.9375V130.608L93.782 120.789V50.7134H97.72V120.789L107.565 130.608Z" fill="#8C6239"/>
</g>
</svg>
