<svg width="46" height="105" viewBox="0 0 46 105" fill="none" xmlns="http://www.w3.org/2000/svg">
<path d="M13.0248 98.7305V39.7986C13.0248 38.0768 11.629 36.6809 9.90716 36.6809C8.18531 36.6809 6.78948 38.0768 6.78948 39.7986V54.0768C6.78948 55.3994 5.71732 56.4716 4.39474 56.4716C3.07216 56.4716 2 55.3994 2 54.0768V35.7631C2 29.6743 6.93599 24.7383 13.0248 24.7383H28.568H31.8071C38.4029 24.7383 43.7498 30.0852 43.7498 36.6809V53.8961C43.7498 55.3185 42.5967 56.4716 41.1743 56.4716C39.7519 56.4716 38.5988 55.3185 38.5988 53.8961V39.0757C38.5988 37.7531 37.5267 36.6809 36.2041 36.6809C34.8815 36.6809 33.8094 37.7531 33.8094 39.0757V99.092C33.8094 101.088 32.191 102.707 30.1947 102.707C28.1983 102.707 26.58 101.088 26.58 99.092V67.974C26.58 66.4269 25.3257 65.1727 23.7786 65.1727C22.2314 65.1727 20.9772 66.4269 20.9772 67.974V98.7305C20.9772 100.926 19.197 102.707 17.001 102.707C14.805 102.707 13.0248 100.926 13.0248 98.7305Z" stroke="#F9F9F9" stroke-width="3"/>
<path d="M30.9509 8.70107C30.9509 12.5457 27.4727 15.9021 22.8719 15.9021C18.2711 15.9021 14.793 12.5457 14.793 8.70107C14.793 4.85645 18.2711 1.5 22.8719 1.5C27.4727 1.5 30.9509 4.85645 30.9509 8.70107Z" stroke="#F9F9F9" stroke-width="3"/>
</svg>
