<svg width="134" height="134" viewBox="0 0 134 134" fill="none" xmlns="http://www.w3.org/2000/svg">
<ellipse cx="67" cy="67.5" rx="67" ry="66.5" fill="#5ED254"/>
<mask id="mask0" mask-type="alpha" maskUnits="userSpaceOnUse" x="0" y="0" width="134" height="134">
<circle cx="66.5579" cy="67.3489" r="66.554" fill="#C4C4C4"/>
</mask>
<g mask="url(#mask0)">
<path d="M114.696 80.0471C116.788 85.644 110.147 92.4145 104.572 89.6226C99.4096 87.0376 101 80.7997 102.481 76.4226C104.663 69.9731 107.678 64.1959 104.576 57.5411C101.899 51.8012 97.5317 49.9176 92.1002 47.4068C93.6372 51.1578 95.1298 55.0077 95.4078 59.0515C95.6858 63.0953 94.5769 67.4252 91.5946 70.1711C90.646 71.0542 89.5282 71.7358 88.3087 72.1744C87.0891 72.6131 85.7933 72.7998 84.4995 72.7232C81.9215 72.5274 79.4342 71.0941 78.0978 68.881C75.9485 65.3213 77.0313 60.7074 78.7495 56.9205C82.1487 49.4281 85.6719 42.2944 79.9038 34.8767C77.5596 31.8616 74.4174 29.4545 71.2145 27.5524C73.4512 33.0536 77.0591 44.8617 67.1809 46.2821C65.0606 46.587 62.8309 46.2066 61.0363 45.0372C54.0061 40.4551 58.3858 29.6121 61.272 23.7448C61.272 23.7448 43.6044 23.5031 46.2024 42.1092C47.2629 49.7037 55.1986 57.4998 49.6548 65.1501C47.5471 68.0586 43.7626 69.8159 40.1997 68.9192C30.2394 66.4126 37.0059 55.7192 32.8208 49.661C31.2539 47.3927 28.701 44.9662 25.9957 44.1481C26.3119 44.899 26.5571 45.678 26.7279 46.4747C28.6034 55.8761 25.7932 62.1039 20.4617 69.4546C15.7244 75.9862 11.3641 82.7761 11.4828 91.1619C11.6015 99.5568 14.5948 105.44 17.5368 109.212L20.9759 113.012L26.6738 118.709H110.242L110.509 118.486C121.121 109.596 123.887 94.1381 116.455 82.4571C115.927 81.6133 115.339 80.808 114.696 80.0471Z" fill="#F35244"/>
<path d="M85.8222 101.34C84.1841 94.7903 90.1177 88.8575 96.6676 90.4949C98.3057 97.0448 92.3721 102.978 85.8222 101.34Z" fill="#F98500"/>
<path d="M121.635 130.105V133.903H11.4766V130.105C11.4775 127.587 12.4783 125.172 14.259 123.391C16.0398 121.61 18.4547 120.609 20.973 120.608C21.0941 114.4 26.1651 109.194 32.371 109.431C32.3422 107.917 32.6156 106.412 33.1752 105.004C33.7348 103.596 34.5693 102.314 35.6301 101.233C36.6909 100.152 37.9567 99.2925 39.3533 98.706C40.75 98.1195 42.2495 97.8173 43.7644 97.8171C43.7644 94.7948 44.965 91.8962 47.1021 89.7591C49.2392 87.622 52.1377 86.4214 55.16 86.4214H77.9514C80.9738 86.4214 83.8723 87.622 86.0094 89.7591C88.1465 91.8962 89.3471 94.7948 89.3471 97.8171C90.8624 97.8155 92.3628 98.1165 93.7603 98.7024C95.1578 99.2882 96.4242 100.147 97.4854 101.229C98.5466 102.311 99.3811 103.593 99.94 105.002C100.499 106.41 100.771 107.916 100.74 109.431C106.946 109.194 112.017 114.4 112.139 120.608C114.657 120.608 117.073 121.609 118.853 123.39C120.634 125.171 121.635 127.586 121.635 130.105Z" fill="#95573A"/>
<path d="M58.4012 121.165L43.2069 105.971L40.5213 108.656L44.8764 113.011H39.9648V116.81H48.675L55.7156 123.851L58.4012 121.165Z" fill="#7A3B1D"/>
<path d="M121.632 130.105V133.904H36.6367C61.5268 128.113 79.767 117.069 92.9196 98.3896C95.2306 99.1547 97.2362 100.639 98.6429 102.626C100.05 104.613 100.784 106.998 100.737 109.432C106.943 109.194 112.014 114.401 112.136 120.609C114.654 120.609 117.07 121.609 118.851 123.39C120.631 125.171 121.632 127.587 121.632 130.105Z" fill="#8F4D2E"/>
<path d="M72.2539 94.019H76.0525V97.8176H72.2539V94.019Z" fill="#7A3B1D"/>
<path d="M55.1562 97.8169H58.9548V101.615H55.1562V97.8169Z" fill="#7A3B1D"/>
<path d="M32.3711 120.609H36.1697V124.407H32.3711V120.609Z" fill="#7A3B1D"/>
<path d="M96.9453 122.508H100.744V126.307H96.9453V122.508Z" fill="#7A3B1D"/>
<path d="M20.9805 82.6226H24.779V90.2197H20.9805V82.6226Z" fill="#FFB531"/>
<path d="M57.0625 69.3276H60.8611V76.9248H57.0625V69.3276Z" fill="#FFB531"/>
<path d="M108.344 97.8169H112.142V105.414H108.344V97.8169Z" fill="#FFB531"/>
<path d="M81.7578 107.313H85.5564V114.911H81.7578V107.313Z" fill="#FFB531"/>
<path d="M114.043 56.0327H117.842V63.6298H114.043V56.0327Z" fill="#FFB531"/>
<path d="M13.3828 56.0327H17.1814V63.6298H13.3828V56.0327Z" fill="#FFB531"/>
<path d="M73.8744 122.233C67.3245 123.871 61.3916 117.938 63.0291 111.388C69.579 109.75 75.5119 115.683 73.8744 122.233Z" fill="#F98500"/>
</g>
</svg>
