<svg width="134" height="134" viewBox="0 0 134 134" fill="none" xmlns="http://www.w3.org/2000/svg">
<ellipse cx="67" cy="66.5" rx="67" ry="66.5" fill="#47D0E2"/>
<mask id="mask0" mask-type="alpha" maskUnits="userSpaceOnUse" x="0" y="0" width="134" height="134">
<circle cx="67.0774" cy="66.9226" r="66.554" fill="#C4C4C4"/>
</mask>
<g mask="url(#mask0)">
<path d="M27.4173 41.2657L25.6406 64.1091H108.656L106.879 41.2657C106.293 33.7267 100.004 27.9082 92.4426 27.9082H41.8541C34.2924 27.9082 28.0037 33.7267 27.4173 41.2657Z" fill="#92DD7A"/>
<path d="M67.1484 56.869C64.4827 56.869 62.3215 54.7079 62.3215 52.0421C62.3215 49.3764 64.4827 47.2152 67.1484 47.2152V27.9082H41.8541C34.2924 27.9082 28.0037 33.7267 27.4173 41.2657L25.6406 64.1091H67.1484V56.869Z" fill="#7EC66A"/>
<path d="M103.653 128.432L108.656 64.1089H25.6406L30.6437 128.432L67.1484 138.143L103.653 128.432Z" fill="#92DD7A"/>
<path d="M107.342 81.0027L108.656 64.1089H25.6406L30.6437 128.432L44.2151 132.042L40.2454 81.0027H107.342Z" fill="#7EC66A"/>
<path d="M108.178 71.3493H26.1229C22.1242 71.3493 18.8828 68.1077 18.8828 64.1092C18.8828 60.1105 22.1244 56.8691 26.1229 56.8691H108.178C112.177 56.8691 115.418 60.1107 115.418 64.1092C115.418 68.1077 112.177 71.3493 108.178 71.3493Z" fill="#B1EF97"/>
<path d="M51.4945 64.1087C51.4945 60.11 54.736 56.8687 58.7345 56.8687H26.1229C22.1242 56.8687 18.8828 60.1102 18.8828 64.1087C18.8828 68.1072 22.1244 71.3488 26.1229 71.3488H58.7345C54.736 71.3491 51.4945 68.1075 51.4945 64.1087Z" fill="#92DD7A"/>
<path d="M90.7773 40.5372L91.7596 27.9087H42.5312L43.5135 40.5372C43.8068 44.3066 46.951 47.216 50.7318 47.216H83.5588C87.3399 47.2157 90.484 44.3066 90.7773 40.5372Z" fill="#67B758"/>
<path d="M30.6523 128.433L31.1239 134.498C31.7103 142.036 37.999 147.855 45.5608 147.855H88.7536C96.3154 147.855 102.604 142.036 103.19 134.497L103.662 128.433H30.6523V128.433Z" fill="#7EC66A"/>
<path d="M31.1239 134.497C31.7103 142.036 37.999 147.855 45.5607 147.855H58.8515C51.2898 147.855 45.0011 142.036 44.4147 134.497L43.9431 128.433H30.6523L31.1239 134.497Z" fill="#67B758"/>
<path d="M69.918 85.8014L72.8112 90.8127L71.2528 90.1337C70.3631 89.7456 69.3279 90.1532 68.9404 91.0427C68.5527 91.9322 68.9598 92.9677 69.8493 93.3552L76.2983 96.165C76.5227 96.2627 76.7617 96.3114 76.9999 96.3114C77.3045 96.3114 77.6079 96.2325 77.8784 96.076C78.3613 95.7972 78.6832 95.3059 78.7459 94.7519L79.5371 87.762C79.6462 86.7977 78.953 85.9277 77.9888 85.8185C77.025 85.7093 76.1545 86.4025 76.0453 87.3668L75.8541 89.0554L72.9609 84.0444C71.7708 81.9833 69.6394 80.7527 67.2593 80.7524C64.8793 80.7524 62.7477 81.9831 61.5576 84.0444L58.4271 89.467C57.9419 90.3073 58.2298 91.3819 59.0702 91.8671C59.9102 92.3523 60.9851 92.0641 61.4702 91.224L64.6008 85.8014C65.1558 84.8402 66.1495 84.2665 67.2595 84.2665C68.3692 84.2667 69.363 84.8404 69.918 85.8014Z" fill="white"/>
<path d="M85.0408 104.974L81.9103 99.5516C81.4251 98.7113 80.3503 98.4234 79.5102 98.9085C78.6699 99.3937 78.3819 100.468 78.8671 101.309L81.9977 106.731C82.5526 107.692 82.5526 108.84 81.9977 109.801C81.4429 110.762 80.4489 111.336 79.3392 111.336H73.553L74.9199 110.326C75.7005 109.749 75.8657 108.649 75.2891 107.869C74.7126 107.088 73.6122 106.923 72.8319 107.499L67.1738 111.679C66.7254 112.011 66.4609 112.535 66.4609 113.093C66.4609 113.65 66.7254 114.174 67.1738 114.506L72.8319 118.686C73.146 118.918 73.5117 119.03 73.8746 119.03C74.413 119.03 74.9445 118.783 75.2891 118.317C75.8657 117.536 75.7005 116.436 74.9199 115.859L73.553 114.849H79.3392C81.7193 114.849 83.851 113.619 85.041 111.557C86.2309 109.497 86.2309 107.035 85.0408 104.974Z" fill="white"/>
<path d="M61.4547 111.336H55.1934C54.0837 111.336 53.0897 110.762 52.5349 109.801C51.9799 108.839 51.9799 107.692 52.5349 106.731L55.4281 101.72L55.6193 103.409C55.721 104.306 56.4812 104.968 57.363 104.968C57.429 104.968 57.4956 104.964 57.5628 104.957C58.527 104.848 59.2202 103.978 59.1111 103.013L58.3199 96.0233C58.2572 95.4692 57.9353 94.978 57.4525 94.6992C56.9699 94.4206 56.3835 94.3874 55.8721 94.6102L49.4229 97.4202C48.5334 97.8077 48.1262 98.8432 48.5139 99.7327C48.9016 100.622 49.9373 101.03 50.8264 100.642L52.3847 99.9627L49.4915 104.974C48.3014 107.035 48.3014 109.497 49.4915 111.558C50.6816 113.619 52.8132 114.85 55.1934 114.85H61.4547C62.425 114.85 63.2117 114.063 63.2117 113.093C63.2117 112.122 62.425 111.336 61.4547 111.336Z" fill="white"/>
</g>
</svg>
