<svg width="76" height="76" viewBox="0 0 76 76" fill="none" xmlns="http://www.w3.org/2000/svg">
<circle cx="38" cy="38" r="38" fill="#FFDA1B"/>
<rect x="17" y="17" width="42" height="42" rx="21" fill="white" fill-opacity="0.48"/>
<path d="M32.192 45.192C31.4667 45.192 30.832 44.9893 30.288 44.584C29.7547 44.168 29.3387 43.56 29.04 42.76C28.752 41.96 28.608 40.9947 28.608 39.864C28.608 38.1787 28.928 36.888 29.568 35.992C30.208 35.0853 31.0827 34.632 32.192 34.632C33.2907 34.632 34.16 35.0853 34.8 35.992C35.44 36.888 35.76 38.1787 35.76 39.864C35.76 40.9947 35.6107 41.96 35.312 42.76C35.024 43.56 34.6133 44.168 34.08 44.584C33.5467 44.9893 32.9173 45.192 32.192 45.192ZM32.192 43.496C32.6613 43.496 33.0293 43.224 33.296 42.68C33.5627 42.1253 33.696 41.1867 33.696 39.864C33.696 38.5627 33.5627 37.6507 33.296 37.128C33.0293 36.5947 32.6613 36.328 32.192 36.328C31.712 36.328 31.3387 36.5893 31.072 37.112C30.816 37.6347 30.688 38.552 30.688 39.864C30.688 41.1867 30.8213 42.1253 31.088 42.68C31.3547 43.224 31.7227 43.496 32.192 43.496ZM39.383 40.744C38.615 40.744 37.991 40.4507 37.511 39.864C37.0417 39.2667 36.807 38.4507 36.807 37.416C36.807 36.392 37.0417 35.5867 37.511 35C37.991 34.4133 38.615 34.12 39.383 34.12C40.1403 34.12 40.7537 34.4133 41.223 35C41.703 35.5867 41.943 36.392 41.943 37.416C41.943 38.44 41.703 39.2507 41.223 39.848C40.7537 40.4453 40.1403 40.744 39.383 40.744ZM45.319 34.36H46.599L40.935 45.192H39.655L45.319 34.36ZM39.383 39.512C39.6923 39.512 39.9377 39.3467 40.119 39.016C40.311 38.6747 40.407 38.1413 40.407 37.416C40.407 36.7013 40.311 36.1787 40.119 35.848C39.9377 35.5173 39.6923 35.352 39.383 35.352C39.0737 35.352 38.823 35.5173 38.631 35.848C38.439 36.1787 38.343 36.7013 38.343 37.416C38.343 38.1307 38.439 38.6587 38.631 39C38.823 39.3413 39.0737 39.512 39.383 39.512ZM46.887 45.192C46.1297 45.192 45.511 44.8933 45.031 44.296C44.5617 43.6987 44.327 42.888 44.327 41.864C44.327 40.84 44.5617 40.0347 45.031 39.448C45.511 38.8613 46.1297 38.568 46.887 38.568C47.655 38.568 48.2737 38.8613 48.743 39.448C49.223 40.0347 49.463 40.84 49.463 41.864C49.463 42.8987 49.223 43.7147 48.743 44.312C48.2737 44.8987 47.655 45.192 46.887 45.192ZM46.887 43.96C47.1963 43.96 47.447 43.7893 47.639 43.448C47.831 43.1067 47.927 42.5787 47.927 41.864C47.927 41.1493 47.831 40.6267 47.639 40.296C47.447 39.9653 47.1963 39.8 46.887 39.8C46.5777 39.8 46.327 39.9653 46.135 40.296C45.9537 40.6267 45.863 41.1493 45.863 41.864C45.863 42.5787 45.9537 43.1067 46.135 43.448C46.327 43.7893 46.5777 43.96 46.887 43.96Z" fill="#FF4D00"/>
</svg>
