<svg width="76" height="76" viewBox="0 0 76 76" fill="none" xmlns="http://www.w3.org/2000/svg">
<circle cx="38" cy="38" r="38" fill="#67E5EE"/>
<rect x="17" y="17" width="42" height="42" rx="21" fill="white" fill-opacity="0.48"/>
<path d="M30.192 43.192C29.4667 43.192 28.832 42.9893 28.288 42.584C27.7547 42.168 27.3387 41.56 27.04 40.76C26.752 39.96 26.608 38.9947 26.608 37.864C26.608 36.1787 26.928 34.888 27.568 33.992C28.208 33.0853 29.0827 32.632 30.192 32.632C31.2907 32.632 32.16 33.0853 32.8 33.992C33.44 34.888 33.76 36.1787 33.76 37.864C33.76 38.9947 33.6107 39.96 33.312 40.76C33.024 41.56 32.6133 42.168 32.08 42.584C31.5467 42.9893 30.9173 43.192 30.192 43.192ZM30.192 41.496C30.6613 41.496 31.0293 41.224 31.296 40.68C31.5627 40.1253 31.696 39.1867 31.696 37.864C31.696 36.5627 31.5627 35.6507 31.296 35.128C31.0293 34.5947 30.6613 34.328 30.192 34.328C29.712 34.328 29.3387 34.5893 29.072 35.112C28.816 35.6347 28.688 36.552 28.688 37.864C28.688 39.1867 28.8213 40.1253 29.088 40.68C29.3547 41.224 29.7227 41.496 30.192 41.496ZM37.383 38.744C36.615 38.744 35.991 38.4507 35.511 37.864C35.0417 37.2667 34.807 36.4507 34.807 35.416C34.807 34.392 35.0417 33.5867 35.511 33C35.991 32.4133 36.615 32.12 37.383 32.12C38.1403 32.12 38.7537 32.4133 39.223 33C39.703 33.5867 39.943 34.392 39.943 35.416C39.943 36.44 39.703 37.2507 39.223 37.848C38.7537 38.4453 38.1403 38.744 37.383 38.744ZM43.319 32.36H44.599L38.935 43.192H37.655L43.319 32.36ZM37.383 37.512C37.6923 37.512 37.9377 37.3467 38.119 37.016C38.311 36.6747 38.407 36.1413 38.407 35.416C38.407 34.7013 38.311 34.1787 38.119 33.848C37.9377 33.5173 37.6923 33.352 37.383 33.352C37.0737 33.352 36.823 33.5173 36.631 33.848C36.439 34.1787 36.343 34.7013 36.343 35.416C36.343 36.1307 36.439 36.6587 36.631 37C36.823 37.3413 37.0737 37.512 37.383 37.512ZM44.887 43.192C44.1297 43.192 43.511 42.8933 43.031 42.296C42.5617 41.6987 42.327 40.888 42.327 39.864C42.327 38.84 42.5617 38.0347 43.031 37.448C43.511 36.8613 44.1297 36.568 44.887 36.568C45.655 36.568 46.2737 36.8613 46.743 37.448C47.223 38.0347 47.463 38.84 47.463 39.864C47.463 40.8987 47.223 41.7147 46.743 42.312C46.2737 42.8987 45.655 43.192 44.887 43.192ZM44.887 41.96C45.1963 41.96 45.447 41.7893 45.639 41.448C45.831 41.1067 45.927 40.5787 45.927 39.864C45.927 39.1493 45.831 38.6267 45.639 38.296C45.447 37.9653 45.1963 37.8 44.887 37.8C44.5777 37.8 44.327 37.9653 44.135 38.296C43.9537 38.6267 43.863 39.1493 43.863 39.864C43.863 40.5787 43.9537 41.1067 44.135 41.448C44.327 41.7893 44.5777 41.96 44.887 41.96Z" fill="#FF4D00"/>
</svg>
