<svg width="165" height="165" viewBox="0 0 165 165" fill="none" xmlns="http://www.w3.org/2000/svg">
<mask id="mask0" mask-type="alpha" maskUnits="userSpaceOnUse" x="0" y="0" width="165" height="165">
<circle cx="82.5" cy="82.5" r="82.5" fill="#C4C4C4"/>
</mask>
<g mask="url(#mask0)">
<circle cx="80" cy="82" r="82" fill="#6AD394"/>
<path d="M118 125C118.234 125.679 118.492 126.347 118.777 127H119C118.639 126.35 118.308 125.682 118 125Z" fill="#FFC743"/>
<mask id="mask1" mask-type="alpha" maskUnits="userSpaceOnUse" x="-22" y="0" width="204" height="117">
<rect x="-21.9766" y="0.172363" width="203.041" height="115.918" fill="#C4C4C4"/>
</mask>
<g mask="url(#mask1)">
<circle cx="79.9118" cy="82.1271" r="81.9547" fill="#67E5EE"/>
</g>
<path d="M119.621 106.964L123.246 122.914H125.421L129.012 106.159C129.238 105.1 129.157 103.999 128.778 102.986C128.399 101.972 127.737 101.088 126.871 100.439L119.621 106.964Z" fill="#A6B2BC"/>
<path d="M138.473 106.964L142.098 122.914H144.273L147.863 106.159C148.09 105.1 148.009 103.999 147.63 102.986C147.25 101.972 146.589 101.088 145.723 100.439L138.473 106.964Z" fill="#A6B2BC"/>
<path d="M152.972 99.7139C152.972 104.052 152.507 108.377 151.586 112.615L149.347 122.914H147.172L144.676 111.269C143.107 112.245 141.295 112.763 139.446 112.764H132.672L130.497 122.914H128.322L126.016 112.764H121.797L118.041 118.131C117.665 118.667 117.12 119.06 116.493 119.247C115.867 119.434 115.195 119.403 114.588 119.16L113.097 118.564V109.864L113.166 109.588L110.922 109.139L112.372 106.964H113.822C113.92 106.472 114.037 105.989 114.174 105.514C114.316 105.021 114.477 104.538 114.658 104.064C115.961 100.651 118.269 97.7134 121.279 95.6418C124.288 93.5702 127.856 92.4619 131.509 92.4639H145.722C145.967 92.4639 146.208 92.4757 146.447 92.4992C148.235 92.6793 149.893 93.5171 151.099 94.8502C152.304 96.1832 152.972 97.9165 152.972 99.7139Z" fill="#D3E1E9"/>
<path d="M115.273 110.589H116.723V112.039H115.273V110.589Z" fill="#395166"/>
<path d="M121.797 109.864H123.247V112.764H121.797V109.864Z" fill="#A6B2BC"/>
<path d="M113.167 109.588L114.548 109.864L114.263 111.286L113.098 111.053V109.864L113.167 109.588Z" fill="#A6B2BC"/>
<path d="M115.274 105.514V106.964H113.824C113.922 106.472 114.039 105.988 114.176 105.514H115.274Z" fill="#A6B2BC"/>
<path d="M144.678 111.269C144.252 111.534 143.806 111.766 143.345 111.964L141.406 102.917L142.824 102.614L144.678 111.269Z" fill="#A6B2BC"/>
<path d="M135.507 106.462L134.157 112.764H132.674L134.09 106.158C134.314 105.1 134.232 104 133.853 102.987C133.474 101.973 132.813 101.089 131.949 100.439L132.819 99.2788C133.905 100.096 134.734 101.206 135.21 102.478C135.686 103.751 135.789 105.133 135.507 106.462Z" fill="#A6B2BC"/>
<path d="M126.018 112.764H124.53L123.285 107.286L124.699 106.964L126.018 112.764Z" fill="#A6B2BC"/>
<path d="M146.447 92.4992V93.1889C146.447 93.958 146.141 94.6955 145.597 95.2394C145.054 95.7832 144.316 96.0888 143.547 96.0889H142.822C142.245 96.089 141.692 96.3182 141.284 96.7261C140.876 97.134 140.647 97.6871 140.647 98.2639V101.889C140.647 102.466 140.418 103.019 140.01 103.427C139.602 103.835 139.049 104.064 138.472 104.064C137.895 104.064 137.342 103.835 136.934 103.427C136.526 103.019 136.297 102.466 136.297 101.889V100.439C136.297 99.8621 136.068 99.309 135.66 98.9011C135.252 98.4933 134.699 98.2641 134.122 98.2639H131.947C131.178 98.2638 130.44 97.9582 129.896 97.4144C129.353 96.8706 129.047 96.133 129.047 95.3639V92.6315C129.863 92.5198 130.686 92.4638 131.509 92.4639H145.722C145.967 92.4639 146.208 92.4756 146.447 92.4992Z" fill="#395166"/>
<path d="M125.424 98.264V99.714C125.424 99.9044 125.386 100.093 125.313 100.269C125.241 100.445 125.134 100.605 124.999 100.739C124.865 100.874 124.705 100.981 124.529 101.054C124.353 101.127 124.164 101.164 123.974 101.164H122.524C122.333 101.164 122.145 101.201 121.969 101.274C121.792 101.347 121.633 101.453 121.498 101.588C121.363 101.723 121.256 101.883 121.184 102.059C121.111 102.235 121.073 102.424 121.074 102.614C121.074 102.804 121.036 102.993 120.963 103.169C120.891 103.345 120.784 103.505 120.649 103.639C120.514 103.774 120.355 103.881 120.179 103.954C120.003 104.027 119.814 104.064 119.624 104.064H114.66C115.73 101.26 117.484 98.7678 119.762 96.814H123.974C124.164 96.8139 124.353 96.8514 124.529 96.9242C124.705 96.9971 124.865 97.1039 124.999 97.2385C125.134 97.3732 125.241 97.5331 125.313 97.709C125.386 97.885 125.424 98.0735 125.424 98.264Z" fill="#395166"/>
<path d="M148.502 102.31L147.477 101.285L148.835 99.9263C149.457 99.304 149.951 98.5653 150.288 97.7524C150.624 96.9394 150.798 96.068 150.798 95.188V94.5361H151.596C151.769 94.5361 151.935 94.6048 152.057 94.7271C152.179 94.8493 152.248 95.0151 152.248 95.188C152.248 97.3498 151.389 99.4229 149.861 100.952L148.502 102.31Z" fill="#A6B2BC"/>
<path d="M149.348 100.439H147.898C147.321 100.439 146.768 100.668 146.36 101.076C145.952 101.484 145.723 102.037 145.723 102.614V104.064H147.173C147.75 104.064 148.303 103.835 148.711 103.427C149.119 103.019 149.348 102.466 149.348 101.889V100.439Z" fill="#395166"/>
<path d="M101.902 124.684L105.527 140.634H107.702L111.293 123.879C111.52 122.821 111.439 121.719 111.059 120.706C110.68 119.692 110.018 118.809 109.152 118.159L101.902 124.684Z" fill="#A6B2BC"/>
<path d="M120.754 124.684L124.379 140.634H126.554L130.144 123.879C130.371 122.821 130.29 121.719 129.911 120.706C129.531 119.692 128.87 118.809 128.004 118.159L120.754 124.684Z" fill="#A6B2BC"/>
<path d="M135.253 117.434C135.253 121.772 134.789 126.097 133.868 130.336L131.628 140.634H129.453L126.958 128.989C125.388 129.966 123.576 130.483 121.728 130.484H114.953L112.778 140.634H110.603L108.297 130.484H104.078L100.322 135.851C99.9466 136.387 99.4014 136.78 98.7746 136.967C98.1478 137.154 97.4762 137.123 96.8689 136.881L95.3781 136.284V127.584L95.447 127.308L93.2031 126.859L94.6531 124.684H96.1031C96.201 124.192 96.3182 123.709 96.4548 123.234C96.5971 122.741 96.7587 122.258 96.9396 121.784C98.2419 118.371 100.551 115.434 103.56 113.362C106.569 111.29 110.137 110.182 113.791 110.184H128.003C128.248 110.184 128.49 110.196 128.728 110.219C130.517 110.399 132.174 111.237 133.38 112.57C134.586 113.903 135.253 115.637 135.253 117.434Z" fill="#D3E1E9"/>
<path d="M97.5547 128.309H99.0047V129.759H97.5547V128.309Z" fill="#395166"/>
<path d="M104.078 127.584H105.528V130.484H104.078V127.584Z" fill="#A6B2BC"/>
<path d="M95.4478 127.308L96.8289 127.585L96.5444 129.006L95.3789 128.774V127.585L95.4478 127.308Z" fill="#A6B2BC"/>
<path d="M97.5555 123.234V124.684H96.1055C96.2033 124.192 96.3206 123.708 96.4571 123.234H97.5555Z" fill="#A6B2BC"/>
<path d="M126.959 128.989C126.533 129.254 126.087 129.486 125.626 129.684L123.688 120.638L125.105 120.334L126.959 128.989Z" fill="#A6B2BC"/>
<path d="M117.788 124.182L116.438 130.484H114.955L116.371 123.878C116.596 122.82 116.514 121.72 116.134 120.707C115.755 119.694 115.095 118.81 114.23 118.159L115.1 116.999C116.186 117.816 117.015 118.926 117.492 120.199C117.968 121.471 118.071 122.853 117.788 124.182Z" fill="#A6B2BC"/>
<path d="M108.299 130.484H106.812L105.566 125.006L106.98 124.684L108.299 130.484Z" fill="#A6B2BC"/>
<path d="M128.728 110.219V110.909C128.728 111.678 128.423 112.416 127.879 112.96C127.335 113.503 126.597 113.809 125.828 113.809H125.103C124.526 113.809 123.973 114.038 123.565 114.446C123.158 114.854 122.928 115.407 122.928 115.984V119.609C122.928 120.186 122.699 120.739 122.291 121.147C121.883 121.555 121.33 121.784 120.753 121.784C120.176 121.784 119.623 121.555 119.215 121.147C118.807 120.739 118.578 120.186 118.578 119.609V118.159C118.578 117.582 118.349 117.029 117.941 116.621C117.533 116.213 116.98 115.984 116.403 115.984H114.228C113.459 115.984 112.721 115.678 112.178 115.135C111.634 114.591 111.328 113.853 111.328 113.084V110.352C112.144 110.24 112.967 110.184 113.79 110.184H128.003C128.248 110.184 128.49 110.196 128.728 110.219Z" fill="#395166"/>
<path d="M107.705 115.984V117.434C107.705 117.625 107.668 117.813 107.595 117.989C107.522 118.165 107.415 118.325 107.28 118.46C107.146 118.594 106.986 118.701 106.81 118.774C106.634 118.847 106.445 118.884 106.255 118.884H104.805C104.614 118.884 104.426 118.921 104.25 118.994C104.074 119.067 103.914 119.174 103.779 119.308C103.644 119.443 103.538 119.603 103.465 119.779C103.392 119.955 103.355 120.144 103.355 120.334C103.355 120.525 103.318 120.713 103.245 120.889C103.172 121.065 103.065 121.225 102.93 121.36C102.796 121.494 102.636 121.601 102.46 121.674C102.284 121.747 102.095 121.784 101.905 121.784H96.9414C98.0116 118.98 99.7654 116.488 102.044 114.534H106.255C106.445 114.534 106.634 114.572 106.81 114.644C106.986 114.717 107.146 114.824 107.28 114.959C107.415 115.093 107.522 115.253 107.595 115.429C107.668 115.605 107.705 115.794 107.705 115.984Z" fill="#395166"/>
<path d="M130.783 120.03L129.758 119.005L131.116 117.646C131.739 117.024 132.232 116.286 132.569 115.473C132.906 114.66 133.079 113.788 133.079 112.908V112.256H133.877C134.05 112.256 134.216 112.325 134.338 112.447C134.46 112.57 134.529 112.735 134.529 112.908C134.529 115.07 133.67 117.143 132.142 118.672L130.783 120.03Z" fill="#A6B2BC"/>
<path d="M131.629 118.159H130.179C129.602 118.159 129.049 118.388 128.641 118.796C128.233 119.204 128.004 119.757 128.004 120.334V121.784H129.454C130.031 121.784 130.584 121.555 130.992 121.147C131.4 120.739 131.629 120.186 131.629 119.609V118.159Z" fill="#395166"/>
<path d="M58.6289 113.609L55.0039 129.559H52.8289L49.2384 112.804C49.0116 111.745 49.0927 110.644 49.472 109.631C49.8514 108.617 50.5131 107.733 51.3789 107.084L58.6289 113.609Z" fill="#A6B2BC"/>
<path d="M39.7773 113.609L36.1523 129.559H33.9773L30.3868 112.804C30.1601 111.745 30.2411 110.644 30.6205 109.631C30.9998 108.617 31.6615 107.733 32.5273 107.084L39.7773 113.609Z" fill="#A6B2BC"/>
<path d="M25.2779 106.359C25.2781 110.697 25.7426 115.022 26.6635 119.26L28.9029 129.559H31.0779L33.5737 117.914C35.1434 118.89 36.955 119.408 38.8037 119.409H45.578L47.753 129.559H49.928L52.2344 119.409H56.4531L60.2095 124.776C60.5846 125.312 61.1299 125.705 61.7567 125.892C62.3835 126.079 63.055 126.048 63.6623 125.805L65.1531 125.209V116.509L65.0842 116.233L67.3281 115.784L65.8781 113.609H64.4281C64.3302 113.117 64.213 112.634 64.0765 112.159C63.9342 111.666 63.7726 111.183 63.5916 110.709C62.2893 107.296 59.9805 104.358 56.9712 102.287C53.9619 100.215 50.3941 99.107 46.7407 99.1089H32.5279C32.2832 99.1089 32.0416 99.1207 31.8029 99.1442C30.0146 99.3243 28.3568 100.162 27.1512 101.495C25.9456 102.828 25.278 104.562 25.2779 106.359Z" fill="#D3E1E9"/>
<path d="M62.9766 117.234H61.5266V118.684H62.9766V117.234Z" fill="#395166"/>
<path d="M56.4531 116.509H55.0031V119.409H56.4531V116.509Z" fill="#A6B2BC"/>
<path d="M65.0835 116.233L63.7023 116.509L63.9869 117.931L65.1523 117.698V116.509L65.0835 116.233Z" fill="#A6B2BC"/>
<path d="M62.9758 112.159V113.609H64.4258C64.3279 113.117 64.2107 112.633 64.0742 112.159H62.9758Z" fill="#A6B2BC"/>
<path d="M33.5722 117.914C33.9982 118.179 34.4438 118.411 34.9053 118.609L36.8438 109.562L35.4264 109.259L33.5722 117.914Z" fill="#A6B2BC"/>
<path d="M42.7428 113.107L44.0931 119.409H45.5758L44.1602 112.803C43.9356 111.745 44.0177 110.645 44.3969 109.632C44.7761 108.618 45.4366 107.735 46.3008 107.084L45.4308 105.924C44.3454 106.741 43.5159 107.851 43.0397 109.123C42.5636 110.396 42.4606 111.778 42.7428 113.107Z" fill="#A6B2BC"/>
<path d="M52.2325 119.409H53.7196L54.9648 113.931L53.5511 113.609L52.2325 119.409Z" fill="#A6B2BC"/>
<path d="M31.803 99.1442V99.8339C31.8031 100.603 32.1087 101.341 32.6525 101.884C33.1964 102.428 33.9339 102.734 34.703 102.734H35.428C36.0048 102.734 36.558 102.963 36.9658 103.371C37.3737 103.779 37.6029 104.332 37.6031 104.909V108.534C37.6031 109.111 37.8322 109.664 38.2401 110.072C38.648 110.48 39.2012 110.709 39.7781 110.709C40.3549 110.709 40.9081 110.48 41.316 110.072C41.7239 109.664 41.9531 109.111 41.9531 108.534V107.084C41.9532 106.507 42.1824 105.954 42.5903 105.546C42.9982 105.138 43.5513 104.909 44.1281 104.909H46.3031C47.0722 104.909 47.8098 104.603 48.3536 104.059C48.8975 103.516 49.203 102.778 49.2031 102.009V99.2765C48.3871 99.1648 47.5644 99.1088 46.7408 99.1089H32.528C32.2833 99.1089 32.0417 99.1207 31.803 99.1442Z" fill="#395166"/>
<path d="M52.8262 104.909V106.359C52.8262 106.549 52.8637 106.738 52.9365 106.914C53.0094 107.09 53.1162 107.25 53.2508 107.384C53.3855 107.519 53.5454 107.626 53.7213 107.699C53.8972 107.772 54.0858 107.809 54.2763 107.809H55.7263C55.9168 107.809 56.1054 107.846 56.2815 107.919C56.4575 107.992 56.6174 108.098 56.7521 108.233C56.8868 108.368 56.9936 108.528 57.0664 108.704C57.1392 108.88 57.1765 109.069 57.1763 109.259C57.1762 109.449 57.2137 109.638 57.2865 109.814C57.3594 109.99 57.4662 110.15 57.6009 110.284C57.7355 110.419 57.8954 110.526 58.0713 110.599C58.2473 110.672 58.4358 110.709 58.6263 110.709H63.5898C62.5197 107.905 60.7658 105.413 58.4876 103.459H54.2763C54.0858 103.459 53.8972 103.496 53.7213 103.569C53.5454 103.642 53.3855 103.749 53.2508 103.884C53.1162 104.018 53.0094 104.178 52.9365 104.354C52.8637 104.53 52.8262 104.719 52.8262 104.909Z" fill="#395166"/>
<path d="M29.7481 108.955L30.7734 107.93L29.4148 106.571C28.7926 105.949 28.299 105.21 27.9623 104.397C27.6255 103.584 27.4522 102.713 27.4522 101.833V101.181H26.6541C26.4812 101.181 26.3154 101.25 26.1931 101.372C26.0709 101.494 26.0022 101.66 26.0022 101.833C26.0022 103.995 26.8609 106.068 28.3895 107.597L29.7481 108.955Z" fill="#A6B2BC"/>
<path d="M28.9023 107.084H30.3523C30.9292 107.084 31.4824 107.313 31.8903 107.721C32.2982 108.129 32.5273 108.682 32.5273 109.259V110.709H31.0773C30.5005 110.709 29.9473 110.48 29.5394 110.072C29.1315 109.664 28.9023 109.111 28.9023 108.534V107.084Z" fill="#395166"/>
</g>
</svg>
