<?xml version="1.0" encoding="utf-8"?>
<!-- Generator: Adobe Illustrator 24.1.0, SVG Export Plug-In . SVG Version: 6.00 Build 0)  -->
<svg version="1.1" id="Layer_1" xmlns="http://www.w3.org/2000/svg" xmlns:xlink="http://www.w3.org/1999/xlink" x="0px" y="0px"
	 viewBox="0 0 593 327" style="enable-background:new 0 0 593 327;" xml:space="preserve">
<style type="text/css">
	.st0{fill:#FFFFFF;}
	.st1{fill:#9F3EDA;}
	.st2{fill:#FDEEC7;}
	.st3{fill:#67E5EE;}
</style>
<path class="st0" d="M199.1,134v-11.2h8.3v1.5h-6.6v3.4h4.3v1.4h-4.3v3.5h6.6v1.5H199.1z M209,134v-8.1h1.6v0.8
	c0.3-0.3,0.6-0.5,1-0.7c0.4-0.2,0.8-0.2,1.3-0.2c0.5,0,1,0.1,1.5,0.4c0.4,0.2,0.8,0.6,1,1c0.3-0.4,0.7-0.8,1.2-1
	c0.5-0.2,1-0.4,1.6-0.4c0.9,0,1.6,0.3,2.2,0.9c0.6,0.6,0.9,1.3,0.9,2.3v5.1h-1.6v-4.8c0-0.6-0.2-1.1-0.5-1.5
	c-0.3-0.4-0.8-0.6-1.4-0.6c-0.4,0-0.8,0.1-1.1,0.3c-0.3,0.2-0.6,0.5-0.8,0.8c0,0.1,0,0.2,0,0.4c0,0.1,0,0.2,0,0.4v5.1h-1.6v-4.8
	c0-0.6-0.2-1.1-0.5-1.5c-0.3-0.4-0.8-0.6-1.4-0.6c-0.4,0-0.7,0.1-1,0.3c-0.3,0.2-0.6,0.4-0.8,0.7v5.9H209z M223.8,124.5
	c-0.3,0-0.5-0.1-0.7-0.3c-0.2-0.2-0.3-0.4-0.3-0.7s0.1-0.5,0.3-0.7c0.2-0.2,0.4-0.3,0.7-0.3c0.3,0,0.5,0.1,0.7,0.3
	c0.2,0.2,0.3,0.4,0.3,0.7s-0.1,0.5-0.3,0.7C224.3,124.4,224.1,124.5,223.8,124.5z M224.6,125.9v8.1H223v-8.1H224.6z M225.8,132.9
	l0.9-1.1c0.4,0.3,0.9,0.6,1.3,0.8c0.4,0.2,0.9,0.3,1.4,0.3c0.6,0,1-0.1,1.4-0.3c0.4-0.2,0.5-0.5,0.5-0.9c0-0.3-0.1-0.5-0.3-0.7
	c-0.2-0.2-0.5-0.3-1-0.4l-1.5-0.2c-0.8-0.1-1.4-0.4-1.8-0.7c-0.4-0.4-0.6-0.9-0.6-1.5c0-0.7,0.3-1.3,0.9-1.8
	c0.6-0.5,1.4-0.7,2.3-0.7c0.6,0,1.2,0.1,1.7,0.3c0.5,0.2,1.1,0.4,1.6,0.8l-0.8,1.1c-0.4-0.3-0.9-0.5-1.3-0.6
	c-0.4-0.1-0.8-0.2-1.3-0.2c-0.5,0-0.9,0.1-1.2,0.3c-0.3,0.2-0.4,0.5-0.4,0.8c0,0.3,0.1,0.5,0.3,0.7c0.2,0.1,0.6,0.3,1,0.3l1.5,0.2
	c0.8,0.1,1.4,0.4,1.8,0.8c0.4,0.4,0.6,0.9,0.6,1.5c0,0.4-0.1,0.7-0.3,1c-0.2,0.3-0.4,0.6-0.7,0.8c-0.3,0.2-0.7,0.4-1.1,0.5
	c-0.4,0.1-0.9,0.2-1.3,0.2c-0.7,0-1.4-0.1-2-0.3C226.7,133.6,226.2,133.3,225.8,132.9z M234.8,124.5c-0.3,0-0.5-0.1-0.7-0.3
	c-0.2-0.2-0.3-0.4-0.3-0.7s0.1-0.5,0.3-0.7c0.2-0.2,0.4-0.3,0.7-0.3c0.3,0,0.5,0.1,0.7,0.3c0.2,0.2,0.3,0.4,0.3,0.7
	s-0.1,0.5-0.3,0.7C235.3,124.4,235,124.5,234.8,124.5z M235.6,125.9v8.1H234v-8.1H235.6z M237.1,129.9c0-0.6,0.1-1.1,0.3-1.6
	c0.2-0.5,0.5-1,0.9-1.3c0.4-0.4,0.8-0.7,1.3-0.9c0.5-0.2,1.1-0.3,1.7-0.3c0.6,0,1.1,0.1,1.6,0.3c0.5,0.2,1,0.5,1.3,0.9
	c0.4,0.4,0.7,0.8,0.9,1.3c0.2,0.5,0.3,1.1,0.3,1.6c0,0.6-0.1,1.2-0.3,1.7c-0.2,0.5-0.5,1-0.9,1.3c-0.4,0.4-0.8,0.7-1.3,0.9
	c-0.5,0.2-1.1,0.3-1.6,0.3c-0.6,0-1.1-0.1-1.7-0.3c-0.5-0.2-1-0.5-1.3-0.9c-0.4-0.4-0.7-0.8-0.9-1.3
	C237.2,131.1,237.1,130.5,237.1,129.9z M241.3,132.8c0.7,0,1.4-0.3,1.9-0.8c0.5-0.6,0.8-1.2,0.8-2s-0.3-1.5-0.8-2
	c-0.5-0.5-1.1-0.8-1.9-0.8c-0.7,0-1.4,0.3-1.9,0.8c-0.5,0.5-0.8,1.2-0.8,2s0.3,1.5,0.8,2C239.9,132.5,240.6,132.8,241.3,132.8z
	 M241.8,122.4h1.9l-2,2h-1.3L241.8,122.4z M247.1,134v-8.1h1.6v0.8c0.3-0.3,0.7-0.6,1.1-0.7c0.4-0.2,0.9-0.3,1.4-0.3
	c0.9,0,1.7,0.3,2.3,0.9c0.6,0.6,0.9,1.3,0.9,2.3v5.1h-1.6v-4.8c0-0.6-0.2-1.1-0.6-1.5c-0.4-0.4-0.8-0.6-1.5-0.6
	c-0.4,0-0.8,0.1-1.2,0.3c-0.3,0.2-0.6,0.4-0.8,0.8v5.9H247.1z M260.5,132v-4.8h-1.7v-1.3h1.7v-2.1l1.6-0.4v2.5h2.4v1.3h-2.4v4.4
	c0,0.4,0.1,0.7,0.3,0.9c0.2,0.2,0.5,0.3,0.9,0.3c0.2,0,0.4,0,0.6,0c0.2,0,0.4-0.1,0.6-0.2v1.3c-0.2,0.1-0.5,0.1-0.8,0.2
	c-0.3,0-0.5,0.1-0.8,0.1c-0.8,0-1.4-0.2-1.8-0.5C260.7,133.2,260.5,132.7,260.5,132z M265.2,129.9c0-0.6,0.1-1.1,0.3-1.6
	c0.2-0.5,0.5-1,0.9-1.3c0.4-0.4,0.8-0.7,1.3-0.9c0.5-0.2,1.1-0.3,1.7-0.3c0.6,0,1.1,0.1,1.6,0.3c0.5,0.2,1,0.5,1.3,0.9
	c0.4,0.4,0.7,0.8,0.9,1.3c0.2,0.5,0.3,1.1,0.3,1.6c0,0.6-0.1,1.2-0.3,1.7c-0.2,0.5-0.5,1-0.9,1.3c-0.4,0.4-0.8,0.7-1.3,0.9
	c-0.5,0.2-1.1,0.3-1.6,0.3c-0.6,0-1.1-0.1-1.7-0.3c-0.5-0.2-1-0.5-1.3-0.9c-0.4-0.4-0.7-0.8-0.9-1.3
	C265.3,131.1,265.2,130.5,265.2,129.9z M269.4,132.8c0.7,0,1.4-0.3,1.9-0.8c0.5-0.6,0.8-1.2,0.8-2s-0.3-1.5-0.8-2
	c-0.5-0.5-1.1-0.8-1.9-0.8c-0.7,0-1.4,0.3-1.9,0.8c-0.5,0.5-0.8,1.2-0.8,2s0.3,1.5,0.8,2C268,132.5,268.6,132.8,269.4,132.8z
	 M275.7,132v-4.8H274v-1.3h1.7v-2.1l1.6-0.4v2.5h2.4v1.3h-2.4v4.4c0,0.4,0.1,0.7,0.3,0.9c0.2,0.2,0.5,0.3,0.9,0.3c0.2,0,0.4,0,0.6,0
	c0.2,0,0.4-0.1,0.6-0.2v1.3c-0.2,0.1-0.5,0.1-0.8,0.2c-0.3,0-0.5,0.1-0.8,0.1c-0.8,0-1.4-0.2-1.8-0.5
	C275.9,133.2,275.7,132.7,275.7,132z M283.4,134.1c-0.9,0-1.6-0.2-2.2-0.7c-0.6-0.5-0.8-1.1-0.8-1.8c0-0.8,0.3-1.4,0.9-1.8
	c0.6-0.4,1.4-0.7,2.4-0.7c0.4,0,0.8,0,1.2,0.1c0.4,0.1,0.7,0.2,1.1,0.3v-0.9c0-0.6-0.2-1-0.5-1.3c-0.3-0.3-0.8-0.4-1.5-0.4
	c-0.4,0-0.8,0.1-1.2,0.2c-0.4,0.1-0.9,0.3-1.4,0.5l-0.6-1.2c0.6-0.3,1.2-0.5,1.7-0.6c0.5-0.1,1.1-0.2,1.6-0.2c1.1,0,1.9,0.3,2.4,0.8
	c0.6,0.5,0.9,1.2,0.9,2.1v5.4H286v-0.7c-0.4,0.3-0.8,0.5-1.2,0.6C284.4,134.1,283.9,134.1,283.4,134.1z M282,131.6
	c0,0.4,0.2,0.7,0.5,1c0.3,0.2,0.8,0.4,1.3,0.4c0.4,0,0.8-0.1,1.2-0.2c0.4-0.1,0.7-0.3,1-0.6v-1.4c-0.3-0.2-0.6-0.3-1-0.4
	c-0.3-0.1-0.7-0.1-1.1-0.1c-0.6,0-1,0.1-1.4,0.4C282.1,130.9,282,131.2,282,131.6z M291,122.4V134h-1.6v-11.2L291,122.4z"/>
<path class="st0" d="M202,89.8V101h-1.6v-9.6l-2,0.8v-1.4l2.6-1.1H202z M211.8,97.9c0,0.5-0.1,0.9-0.3,1.3c-0.2,0.4-0.5,0.7-0.9,1
	c-0.4,0.3-0.8,0.5-1.3,0.7c-0.5,0.2-1.1,0.2-1.7,0.2c-0.8,0-1.6-0.1-2.4-0.4c-0.7-0.3-1.4-0.7-1.9-1.2l1.1-1c0.5,0.5,0.9,0.8,1.4,1
	c0.5,0.2,1.1,0.3,1.7,0.3c0.8,0,1.4-0.2,1.9-0.5c0.5-0.4,0.7-0.8,0.7-1.4c0-0.5-0.2-0.9-0.7-1.3c-0.5-0.3-1.1-0.5-1.8-0.5h-1v-1.3
	h0.8c0.7,0,1.2-0.2,1.6-0.6c0.4-0.4,0.7-0.8,0.7-1.4c0-0.5-0.2-0.9-0.7-1.3c-0.4-0.3-1-0.5-1.6-0.5c-0.6,0-1.1,0.1-1.6,0.3
	c-0.5,0.2-0.9,0.5-1.4,1l-1.1-1c0.5-0.5,1.2-1,1.9-1.3c0.7-0.3,1.4-0.4,2.2-0.4c0.6,0,1.1,0.1,1.5,0.2c0.5,0.1,0.9,0.4,1.2,0.6
	c0.3,0.3,0.6,0.6,0.8,1c0.2,0.4,0.3,0.8,0.3,1.2c0,0.6-0.2,1.1-0.5,1.5c-0.3,0.4-0.8,0.8-1.3,1.1c0.7,0.2,1.2,0.5,1.6,1
	C211.6,96.8,211.8,97.3,211.8,97.9z M217.8,101.2c-0.7,0-1.3-0.1-1.9-0.4c-0.6-0.3-1.1-0.6-1.5-1.1c-0.4-0.5-0.7-1.1-1-1.7
	c-0.2-0.7-0.3-1.4-0.3-2.2c0-0.9,0.1-1.8,0.4-2.5s0.6-1.4,1.1-1.9c0.5-0.5,1-0.9,1.7-1.2c0.7-0.3,1.4-0.4,2.2-0.4
	c0.5,0,1.1,0.1,1.6,0.2c0.5,0.2,1,0.4,1.4,0.6l-0.8,1.2c-0.3-0.2-0.7-0.4-1.1-0.5c-0.4-0.1-0.7-0.2-1.1-0.2c-1.1,0-2,0.4-2.6,1.2
	c-0.6,0.8-1,1.9-1,3.3c0.4-0.5,0.9-0.8,1.5-1.1c0.6-0.3,1.2-0.4,1.8-0.4c0.6,0,1.1,0.1,1.6,0.3c0.5,0.2,0.9,0.4,1.2,0.7
	c0.4,0.3,0.6,0.7,0.8,1.1c0.2,0.4,0.3,0.9,0.3,1.4c0,0.5-0.1,1-0.3,1.5c-0.2,0.4-0.5,0.8-0.8,1.2c-0.4,0.3-0.8,0.6-1.3,0.8
	C218.9,101.1,218.4,101.2,217.8,101.2z M217.7,95.3c-0.5,0-1.1,0.1-1.6,0.4c-0.5,0.3-1,0.6-1.3,1.1c0.1,0.9,0.5,1.6,1,2.2
	c0.5,0.6,1.2,0.8,2,0.8c0.7,0,1.3-0.2,1.8-0.7c0.5-0.4,0.7-1,0.7-1.6c0-0.7-0.2-1.2-0.7-1.6S218.4,95.3,217.7,95.3z M226.7,101v-8.1
	h1.6v0.8c0.3-0.3,0.6-0.5,1-0.7c0.4-0.2,0.8-0.2,1.3-0.2c0.5,0,1,0.1,1.5,0.4c0.4,0.2,0.8,0.6,1,1c0.3-0.4,0.7-0.8,1.2-1
	c0.5-0.2,1-0.4,1.6-0.4c0.9,0,1.6,0.3,2.2,0.9c0.6,0.6,0.9,1.3,0.9,2.3v5.1h-1.6v-4.8c0-0.6-0.2-1.1-0.5-1.5
	c-0.3-0.4-0.8-0.6-1.4-0.6c-0.4,0-0.8,0.1-1.1,0.3c-0.3,0.2-0.6,0.5-0.8,0.8c0,0.1,0,0.2,0,0.4c0,0.1,0,0.2,0,0.4v5.1H232v-4.8
	c0-0.6-0.2-1.1-0.5-1.5c-0.3-0.4-0.8-0.6-1.4-0.6c-0.4,0-0.7,0.1-1,0.3c-0.3,0.2-0.6,0.4-0.8,0.7v5.9H226.7z M241.5,99v-4.8h-1.7
	v-1.3h1.7v-2.1l1.6-0.4v2.5h2.4v1.3h-2.4v4.4c0,0.4,0.1,0.7,0.3,0.9c0.2,0.2,0.5,0.3,0.9,0.3c0.2,0,0.4,0,0.6,0
	c0.2,0,0.4-0.1,0.6-0.2v1.3c-0.2,0.1-0.5,0.1-0.8,0.2c-0.3,0-0.5,0.1-0.8,0.1c-0.8,0-1.4-0.2-1.8-0.5
	C241.7,100.2,241.5,99.7,241.5,99z M252.3,99.6c0.6,0,1.3-0.1,1.8-0.4c0.6-0.3,1.1-0.6,1.5-1.1l1.1,1.1c-0.5,0.6-1.2,1.1-2,1.4
	c-0.8,0.3-1.6,0.5-2.5,0.5c-0.8,0-1.6-0.1-2.3-0.4c-0.7-0.3-1.3-0.7-1.9-1.2c-0.5-0.5-0.9-1.1-1.2-1.8c-0.3-0.7-0.4-1.5-0.4-2.3
	c0-0.8,0.1-1.6,0.4-2.3c0.3-0.7,0.7-1.3,1.2-1.8c0.5-0.5,1.1-0.9,1.9-1.2c0.7-0.3,1.5-0.4,2.3-0.4c0.9,0,1.7,0.2,2.5,0.5
	c0.8,0.3,1.5,0.8,2,1.4l-1.1,1.2c-0.4-0.5-0.9-0.9-1.5-1.1c-0.6-0.3-1.2-0.4-1.9-0.4c-0.6,0-1.1,0.1-1.6,0.3s-1,0.5-1.3,0.9
	c-0.4,0.4-0.7,0.8-0.9,1.3c-0.2,0.5-0.3,1.1-0.3,1.7s0.1,1.2,0.3,1.7c0.2,0.5,0.5,1,0.9,1.3c0.4,0.4,0.8,0.7,1.3,0.9
	C251.1,99.5,251.7,99.6,252.3,99.6z M269.2,95.4c0,0.8-0.2,1.6-0.5,2.3c-0.3,0.7-0.7,1.3-1.2,1.8c-0.5,0.5-1.1,0.9-1.9,1.2
	s-1.5,0.4-2.3,0.4s-1.6-0.1-2.3-0.4c-0.7-0.3-1.3-0.7-1.9-1.2c-0.5-0.5-0.9-1.1-1.2-1.8c-0.3-0.7-0.4-1.5-0.4-2.3
	c0-0.8,0.1-1.6,0.4-2.3c0.3-0.7,0.7-1.3,1.2-1.8c0.5-0.5,1.1-0.9,1.9-1.2c0.7-0.3,1.5-0.4,2.3-0.4s1.6,0.1,2.3,0.4
	c0.7,0.3,1.3,0.7,1.9,1.2c0.5,0.5,0.9,1.1,1.2,1.8C269.1,93.8,269.2,94.6,269.2,95.4z M267.5,95.4c0-0.6-0.1-1.2-0.3-1.7
	c-0.2-0.5-0.5-1-0.9-1.3c-0.4-0.4-0.8-0.7-1.3-0.9c-0.5-0.2-1-0.3-1.6-0.3c-0.6,0-1.1,0.1-1.6,0.3c-0.5,0.2-0.9,0.5-1.3,0.9
	c-0.4,0.4-0.7,0.8-0.9,1.3c-0.2,0.5-0.3,1.1-0.3,1.7s0.1,1.2,0.3,1.7c0.2,0.5,0.5,1,0.9,1.3c0.4,0.4,0.8,0.7,1.3,0.9
	c0.5,0.2,1,0.3,1.6,0.3c0.6,0,1.1-0.1,1.6-0.3c0.5-0.2,0.9-0.5,1.3-0.9c0.4-0.4,0.7-0.8,0.9-1.3C267.4,96.6,267.5,96,267.5,95.4z
	 M270.5,101v-1.2l4.3-4c0.6-0.6,1.1-1.1,1.3-1.5c0.3-0.4,0.4-0.8,0.4-1.3c0-0.6-0.2-1.1-0.7-1.4c-0.4-0.4-1-0.6-1.7-0.6
	c-0.5,0-1.1,0.1-1.5,0.3c-0.5,0.2-1,0.6-1.5,1.1l-0.9-1.1c0.6-0.6,1.3-1,1.9-1.2c0.7-0.3,1.4-0.4,2.1-0.4c0.6,0,1.1,0.1,1.6,0.2
	c0.5,0.2,0.9,0.4,1.2,0.7c0.3,0.3,0.6,0.6,0.8,1c0.2,0.4,0.3,0.8,0.3,1.3c0,0.6-0.2,1.2-0.5,1.8c-0.3,0.5-0.9,1.2-1.8,2l-3.2,2.9
	h5.6v1.4H270.5z M286.8,100.1c-0.5,0.4-1,0.6-1.5,0.8c-0.5,0.2-1.1,0.3-1.7,0.3c-0.6,0-1.2-0.1-1.7-0.3c-0.5-0.2-1-0.5-1.4-0.9
	s-0.7-0.8-0.9-1.3c-0.2-0.5-0.3-1.1-0.3-1.7c0-0.6,0.1-1.1,0.3-1.6c0.2-0.5,0.5-1,0.9-1.3c0.4-0.4,0.8-0.7,1.3-0.9
	c0.5-0.2,1-0.3,1.6-0.3c0.6,0,1.1,0.1,1.6,0.3c0.5,0.2,0.9,0.5,1.2,0.9c0.4,0.4,0.6,0.8,0.8,1.3c0.2,0.5,0.3,1.1,0.3,1.7v0.5h-6.4
	c0.1,0.7,0.4,1.2,0.9,1.7c0.5,0.4,1.1,0.7,1.8,0.7c0.4,0,0.8-0.1,1.1-0.2c0.4-0.1,0.7-0.3,0.9-0.5L286.8,100.1z M283.4,94.1
	c-0.6,0-1.1,0.2-1.6,0.6c-0.4,0.4-0.7,0.9-0.8,1.6h4.8c-0.1-0.6-0.4-1.1-0.8-1.6C284.5,94.3,284,94.1,283.4,94.1z"/>
<path class="st1" d="M291.1,180.1c-14.2,8.2-30.2,12.6-46.5,13c-16.4,0.3-32.5-3.5-47-11.1c-14.5-7.6-26.8-18.8-35.8-32.4
	s-14.4-29.4-15.7-45.7l13.3-1.1c1.1,14.1,5.8,27.6,13.5,39.4c7.8,11.8,18.4,21.4,30.9,27.9c12.5,6.6,26.4,9.8,40.5,9.6
	c14.1-0.3,27.9-4.1,40.1-11.2L291.1,180.1z"/>
<path class="st2" d="M301.2,208c-14.7,8.5-30.9,14-47.7,16.2c-16.8,2.2-33.9,1.1-50.3-3.3c-16.4-4.4-31.7-12-45.2-22.3
	s-24.7-23.2-33.2-37.9l15.4-8.9c7.3,12.7,17,23.7,28.6,32.6c11.6,8.9,24.8,15.4,38.9,19.2c14.1,3.8,28.8,4.7,43.3,2.8
	c14.5-1.9,28.5-6.6,41.1-14L301.2,208z"/>
<path class="st3" d="M315.6,242.4c-29,16.7-62.2,24.5-95.6,22.3c-33.4-2.2-65.3-14.2-91.9-34.6c-26.5-20.4-46.4-48.1-57.2-79.8
	C60.1,118.7,59,84.5,67.7,52.2l22.5,6c-7.5,27.8-6.5,57.3,2.8,84.6c9.3,27.3,26.4,51.2,49.3,68.8c22.9,17.6,50.4,27.9,79.2,29.8
	c28.8,1.9,57.4-4.8,82.4-19.2L315.6,242.4z"/>
<path class="st0" d="M111.6,140v-1.2l4.3-4c0.6-0.6,1.1-1.1,1.3-1.5c0.3-0.4,0.4-0.8,0.4-1.3c0-0.6-0.2-1.1-0.7-1.4
	c-0.4-0.4-1-0.6-1.7-0.6c-0.5,0-1.1,0.1-1.5,0.3c-0.5,0.2-1,0.6-1.5,1.1l-0.9-1.1c0.6-0.6,1.3-1,1.9-1.2c0.7-0.3,1.4-0.4,2.1-0.4
	c0.6,0,1.1,0.1,1.6,0.2c0.5,0.2,0.9,0.4,1.2,0.7c0.3,0.3,0.6,0.6,0.8,1c0.2,0.4,0.3,0.8,0.3,1.3c0,0.6-0.2,1.2-0.5,1.8
	c-0.3,0.5-0.9,1.2-1.8,2l-3.2,2.9h5.6v1.4H111.6z M128.7,136.9c0,0.5-0.1,0.9-0.3,1.3c-0.2,0.4-0.5,0.7-0.9,1
	c-0.4,0.3-0.8,0.5-1.3,0.7c-0.5,0.2-1.1,0.2-1.7,0.2c-0.8,0-1.6-0.1-2.4-0.4c-0.7-0.3-1.4-0.7-1.9-1.2l1.1-1c0.5,0.5,0.9,0.8,1.4,1
	c0.5,0.2,1.1,0.3,1.7,0.3c0.8,0,1.4-0.2,1.9-0.5c0.5-0.4,0.7-0.8,0.7-1.4c0-0.5-0.2-0.9-0.7-1.3c-0.5-0.3-1.1-0.5-1.8-0.5h-1v-1.3
	h0.8c0.7,0,1.2-0.2,1.6-0.6c0.4-0.4,0.7-0.8,0.7-1.4c0-0.5-0.2-0.9-0.7-1.3c-0.4-0.3-1-0.5-1.6-0.5c-0.6,0-1.1,0.1-1.6,0.3
	s-0.9,0.5-1.4,1l-1.1-1c0.5-0.5,1.2-1,1.9-1.3c0.7-0.3,1.4-0.4,2.2-0.4c0.6,0,1.1,0.1,1.5,0.2c0.5,0.1,0.9,0.4,1.2,0.6
	c0.3,0.3,0.6,0.6,0.8,1c0.2,0.4,0.3,0.8,0.3,1.2c0,0.6-0.2,1.1-0.5,1.5c-0.3,0.4-0.8,0.8-1.3,1.1c0.7,0.2,1.2,0.5,1.6,1
	C128.5,135.8,128.7,136.3,128.7,136.9z M132.3,134.5c-0.7,0-1.3-0.3-1.8-0.8c-0.4-0.5-0.7-1.2-0.7-2.1s0.2-1.5,0.7-2.1
	c0.5-0.5,1.1-0.8,1.8-0.8c0.7,0,1.3,0.3,1.8,0.8c0.5,0.5,0.7,1.2,0.7,2.1s-0.2,1.5-0.7,2.1C133.6,134.2,133,134.5,132.3,134.5z
	 M132.3,133.6c0.4,0,0.8-0.2,1-0.5c0.3-0.4,0.4-0.8,0.4-1.4s-0.1-1.1-0.4-1.4c-0.3-0.4-0.6-0.5-1-0.5c-0.4,0-0.8,0.2-1,0.5
	c-0.3,0.4-0.4,0.8-0.4,1.4s0.1,1.1,0.4,1.4C131.5,133.4,131.8,133.6,132.3,133.6z M132.9,140h-1.2l6.3-11.2h1.3L132.9,140z
	 M138.8,140.1c-0.7,0-1.3-0.3-1.8-0.8s-0.7-1.2-0.7-2.1c0-0.9,0.2-1.5,0.7-2.1c0.5-0.5,1.1-0.8,1.8-0.8c0.7,0,1.3,0.3,1.8,0.8
	c0.5,0.5,0.7,1.2,0.7,2.1c0,0.9-0.2,1.5-0.7,2.1C140.1,139.8,139.5,140.1,138.8,140.1z M138.8,139.2c0.4,0,0.8-0.2,1-0.5
	c0.3-0.4,0.4-0.8,0.4-1.4s-0.1-1.1-0.4-1.4c-0.3-0.4-0.6-0.5-1-0.5c-0.4,0-0.8,0.2-1,0.5c-0.3,0.4-0.4,0.8-0.4,1.4s0.1,1.1,0.4,1.4
	C138,139,138.3,139.2,138.8,139.2z"/>
<path class="st0" d="M405.1,84V72.8h8.3v1.5h-6.6v3.4h4.4v1.4h-4.4V84H405.1z M415.7,75.9v4.8c0,0.6,0.2,1.1,0.5,1.5
	c0.4,0.4,0.9,0.6,1.5,0.6c0.4,0,0.8-0.1,1.2-0.3c0.3-0.2,0.6-0.5,0.8-0.8v-5.8h1.6V84h-1.6v-0.8c-0.3,0.3-0.7,0.6-1.1,0.7
	c-0.4,0.2-0.9,0.2-1.3,0.2c-0.9,0-1.7-0.3-2.3-0.9c-0.6-0.6-0.9-1.4-0.9-2.3v-5.1H415.7z M430.3,83.1c-0.5,0.4-1,0.6-1.5,0.8
	c-0.5,0.2-1.1,0.3-1.7,0.3c-0.6,0-1.2-0.1-1.7-0.3c-0.5-0.2-1-0.5-1.4-0.9c-0.4-0.4-0.7-0.8-0.9-1.3c-0.2-0.5-0.3-1.1-0.3-1.7
	c0-0.6,0.1-1.1,0.3-1.6c0.2-0.5,0.5-1,0.9-1.3c0.4-0.4,0.8-0.7,1.3-0.9c0.5-0.2,1-0.3,1.6-0.3c0.6,0,1.1,0.1,1.6,0.3
	c0.5,0.2,0.9,0.5,1.2,0.9c0.4,0.4,0.6,0.8,0.8,1.3s0.3,1.1,0.3,1.7v0.5h-6.4c0.1,0.7,0.4,1.2,0.9,1.7c0.5,0.4,1.1,0.7,1.8,0.7
	c0.4,0,0.8-0.1,1.1-0.2c0.4-0.1,0.7-0.3,0.9-0.5L430.3,83.1z M426.9,77.1c-0.6,0-1.1,0.2-1.6,0.6c-0.4,0.4-0.7,0.9-0.8,1.6h4.8
	c-0.1-0.6-0.4-1.1-0.8-1.6C428,77.3,427.5,77.1,426.9,77.1z M432.4,84v-8.1h1.6v0.8c0.3-0.3,0.7-0.6,1.1-0.7
	c0.4-0.2,0.9-0.3,1.4-0.3c0.9,0,1.7,0.3,2.3,0.9c0.6,0.6,0.9,1.3,0.9,2.3V84H438v-4.8c0-0.6-0.2-1.1-0.6-1.5
	c-0.4-0.4-0.8-0.6-1.5-0.6c-0.4,0-0.8,0.1-1.2,0.3c-0.3,0.2-0.6,0.4-0.8,0.8V84H432.4z M442.2,82v-4.8h-1.7v-1.3h1.7v-2.1l1.6-0.4
	v2.5h2.4v1.3h-2.4v4.4c0,0.4,0.1,0.7,0.3,0.9c0.2,0.2,0.5,0.3,0.9,0.3c0.2,0,0.4,0,0.6,0c0.2,0,0.4-0.1,0.6-0.2v1.3
	c-0.2,0.1-0.5,0.1-0.8,0.2c-0.3,0-0.5,0.1-0.8,0.1c-0.8,0-1.4-0.2-1.8-0.5C442.4,83.2,442.2,82.7,442.2,82z M454.2,83.1
	c-0.5,0.4-1,0.6-1.5,0.8c-0.5,0.2-1.1,0.3-1.7,0.3c-0.6,0-1.2-0.1-1.7-0.3c-0.5-0.2-1-0.5-1.4-0.9s-0.7-0.8-0.9-1.3
	c-0.2-0.5-0.3-1.1-0.3-1.7c0-0.6,0.1-1.1,0.3-1.6c0.2-0.5,0.5-1,0.9-1.3c0.4-0.4,0.8-0.7,1.3-0.9c0.5-0.2,1-0.3,1.6-0.3
	c0.6,0,1.1,0.1,1.6,0.3c0.5,0.2,0.9,0.5,1.2,0.9c0.4,0.4,0.6,0.8,0.8,1.3c0.2,0.5,0.3,1.1,0.3,1.7v0.5h-6.4c0.1,0.7,0.4,1.2,0.9,1.7
	c0.5,0.4,1.1,0.7,1.8,0.7c0.4,0,0.8-0.1,1.1-0.2c0.4-0.1,0.7-0.3,0.9-0.5L454.2,83.1z M450.9,77.1c-0.6,0-1.1,0.2-1.6,0.6
	c-0.4,0.4-0.7,0.9-0.8,1.6h4.8c-0.1-0.6-0.4-1.1-0.8-1.6C452,77.3,451.4,77.1,450.9,77.1z M455.7,82.9l0.9-1.1
	c0.4,0.3,0.9,0.6,1.3,0.8c0.4,0.2,0.9,0.3,1.4,0.3c0.6,0,1-0.1,1.4-0.3c0.4-0.2,0.5-0.5,0.5-0.9c0-0.3-0.1-0.5-0.3-0.7
	c-0.2-0.2-0.5-0.3-1-0.4l-1.5-0.2c-0.8-0.1-1.4-0.4-1.8-0.7c-0.4-0.4-0.6-0.9-0.6-1.5c0-0.7,0.3-1.3,0.9-1.8
	c0.6-0.5,1.4-0.7,2.3-0.7c0.6,0,1.2,0.1,1.7,0.3c0.5,0.2,1.1,0.4,1.6,0.8l-0.8,1.1c-0.4-0.3-0.9-0.5-1.3-0.6
	c-0.4-0.1-0.8-0.2-1.3-0.2c-0.5,0-0.9,0.1-1.2,0.3c-0.3,0.2-0.4,0.5-0.4,0.8c0,0.3,0.1,0.5,0.3,0.7c0.2,0.1,0.6,0.3,1,0.3l1.5,0.2
	c0.8,0.1,1.4,0.4,1.8,0.8c0.4,0.4,0.6,0.9,0.6,1.5c0,0.4-0.1,0.7-0.3,1c-0.2,0.3-0.4,0.6-0.7,0.8c-0.3,0.2-0.7,0.4-1.1,0.5
	c-0.4,0.1-0.9,0.2-1.3,0.2c-0.7,0-1.4-0.1-2-0.3C456.6,83.6,456.1,83.3,455.7,82.9z M469.8,84.1c-0.9,0-1.6-0.2-2.2-0.7
	c-0.6-0.5-0.8-1.1-0.8-1.8c0-0.8,0.3-1.4,0.9-1.8c0.6-0.4,1.4-0.7,2.4-0.7c0.4,0,0.8,0,1.2,0.1c0.4,0.1,0.7,0.2,1.1,0.3v-0.9
	c0-0.6-0.2-1-0.5-1.3c-0.3-0.3-0.8-0.4-1.5-0.4c-0.4,0-0.8,0.1-1.2,0.2c-0.4,0.1-0.9,0.3-1.4,0.5l-0.6-1.2c0.6-0.3,1.2-0.5,1.7-0.6
	c0.5-0.1,1.1-0.2,1.6-0.2c1.1,0,1.9,0.3,2.4,0.8c0.6,0.5,0.9,1.2,0.9,2.1V84h-1.6v-0.7c-0.4,0.3-0.8,0.5-1.2,0.6
	C470.7,84.1,470.3,84.1,469.8,84.1z M468.3,81.6c0,0.4,0.2,0.7,0.5,1c0.3,0.2,0.8,0.4,1.3,0.4c0.4,0,0.8-0.1,1.2-0.2
	c0.4-0.1,0.7-0.3,1-0.6v-1.4c-0.3-0.2-0.6-0.3-1-0.4c-0.3-0.1-0.7-0.1-1.1-0.1c-0.6,0-1,0.1-1.4,0.4
	C468.5,80.9,468.3,81.2,468.3,81.6z M479.5,84.1c-0.6,0-1.1-0.1-1.6-0.3c-0.5-0.2-0.9-0.5-1.3-0.9c-0.4-0.4-0.6-0.8-0.9-1.3
	c-0.2-0.5-0.3-1.1-0.3-1.6s0.1-1.1,0.3-1.6c0.2-0.5,0.5-1,0.9-1.3c0.4-0.4,0.8-0.7,1.3-0.9c0.5-0.2,1.1-0.3,1.6-0.3
	c0.4,0,0.9,0.1,1.3,0.2c0.4,0.1,0.8,0.3,1.2,0.6v-0.7h1.6v8.3c0,1.1-0.3,1.9-1,2.4c-0.6,0.6-1.6,0.9-2.8,0.9c-0.6,0-1.2-0.1-1.7-0.2
	c-0.6-0.1-1.1-0.3-1.5-0.6l0.6-1.2c0.5,0.2,0.9,0.4,1.3,0.5c0.4,0.1,0.9,0.2,1.3,0.2c0.7,0,1.2-0.2,1.6-0.5c0.4-0.3,0.6-0.8,0.6-1.5
	v-0.9c-0.3,0.3-0.7,0.5-1.1,0.6C480.3,84,479.9,84.1,479.5,84.1z M476.9,79.9c0,0.8,0.3,1.4,0.8,2c0.5,0.5,1.2,0.8,1.9,0.8
	c0.5,0,0.9-0.1,1.3-0.2c0.4-0.2,0.7-0.4,1-0.7V78c-0.3-0.3-0.6-0.5-1-0.7c-0.4-0.2-0.8-0.3-1.3-0.3c-0.8,0-1.4,0.3-1.9,0.8
	C477.2,78.5,476.9,79.1,476.9,79.9z M485.4,84v-8.1h1.6v1c0.2-0.4,0.6-0.7,0.9-0.9c0.4-0.2,0.8-0.3,1.3-0.3c0.2,0,0.3,0,0.4,0
	c0.1,0,0.3,0.1,0.4,0.1v1.4c-0.1-0.1-0.3-0.1-0.5-0.1c-0.2,0-0.3,0-0.5,0c-0.5,0-0.9,0.1-1.3,0.4c-0.4,0.2-0.6,0.6-0.8,1.1V84H485.4
	z M497.9,83.1c-0.5,0.4-1,0.6-1.5,0.8c-0.5,0.2-1.1,0.3-1.7,0.3c-0.6,0-1.2-0.1-1.7-0.3c-0.5-0.2-1-0.5-1.4-0.9s-0.7-0.8-0.9-1.3
	c-0.2-0.5-0.3-1.1-0.3-1.7c0-0.6,0.1-1.1,0.3-1.6c0.2-0.5,0.5-1,0.9-1.3c0.4-0.4,0.8-0.7,1.3-0.9c0.5-0.2,1-0.3,1.6-0.3
	c0.6,0,1.1,0.1,1.6,0.3c0.5,0.2,0.9,0.5,1.2,0.9c0.4,0.4,0.6,0.8,0.8,1.3c0.2,0.5,0.3,1.1,0.3,1.7v0.5H492c0.1,0.7,0.4,1.2,0.9,1.7
	c0.5,0.4,1.1,0.7,1.8,0.7c0.4,0,0.8-0.1,1.1-0.2c0.4-0.1,0.7-0.3,0.9-0.5L497.9,83.1z M494.5,77.1c-0.6,0-1.1,0.2-1.6,0.6
	c-0.4,0.4-0.7,0.9-0.8,1.6h4.8c-0.1-0.6-0.4-1.1-0.8-1.6C495.6,77.3,495.1,77.1,494.5,77.1z M503.7,84.1c-0.6,0-1.1-0.1-1.6-0.3
	c-0.5-0.2-0.9-0.5-1.3-0.9c-0.4-0.4-0.7-0.8-0.9-1.3c-0.2-0.5-0.3-1.1-0.3-1.6s0.1-1.1,0.3-1.6c0.2-0.5,0.5-1,0.9-1.3
	c0.4-0.4,0.8-0.7,1.3-0.9c0.5-0.2,1.1-0.3,1.6-0.3c0.4,0,0.9,0.1,1.3,0.2c0.4,0.1,0.8,0.3,1.2,0.6v-0.7h1.6v8.3c0,1.1-0.3,1.9-1,2.4
	c-0.6,0.6-1.6,0.9-2.8,0.9c-0.6,0-1.2-0.1-1.7-0.2c-0.6-0.1-1.1-0.3-1.5-0.6l0.6-1.2c0.5,0.2,0.9,0.4,1.3,0.5
	c0.4,0.1,0.9,0.2,1.3,0.2c0.7,0,1.2-0.2,1.6-0.5c0.4-0.3,0.6-0.8,0.6-1.5v-0.9c-0.3,0.3-0.7,0.5-1.1,0.6
	C504.6,84,504.2,84.1,503.7,84.1z M501.2,79.9c0,0.8,0.3,1.4,0.8,2c0.5,0.5,1.2,0.8,1.9,0.8c0.5,0,0.9-0.1,1.3-0.2
	c0.4-0.2,0.7-0.4,1-0.7V78c-0.3-0.3-0.6-0.5-1-0.7c-0.4-0.2-0.8-0.3-1.3-0.3c-0.8,0-1.4,0.3-1.9,0.8
	C501.5,78.5,501.2,79.1,501.2,79.9z M512.2,84.1c-0.9,0-1.6-0.2-2.2-0.7c-0.6-0.5-0.8-1.1-0.8-1.8c0-0.8,0.3-1.4,0.9-1.8
	c0.6-0.4,1.4-0.7,2.4-0.7c0.4,0,0.8,0,1.2,0.1c0.4,0.1,0.7,0.2,1.1,0.3v-0.9c0-0.6-0.2-1-0.5-1.3s-0.8-0.4-1.5-0.4
	c-0.4,0-0.8,0.1-1.2,0.2c-0.4,0.1-0.9,0.3-1.4,0.5l-0.6-1.2c0.6-0.3,1.2-0.5,1.7-0.6c0.5-0.1,1.1-0.2,1.6-0.2c1.1,0,1.9,0.3,2.4,0.8
	c0.6,0.5,0.9,1.2,0.9,2.1V84h-1.6v-0.7c-0.4,0.3-0.8,0.5-1.2,0.6C513.2,84.1,512.7,84.1,512.2,84.1z M510.8,81.6
	c0,0.4,0.2,0.7,0.5,1c0.3,0.2,0.8,0.4,1.3,0.4c0.4,0,0.8-0.1,1.2-0.2c0.4-0.1,0.7-0.3,1-0.6v-1.4c-0.3-0.2-0.6-0.3-1-0.4
	c-0.3-0.1-0.7-0.1-1.1-0.1c-0.6,0-1,0.1-1.4,0.4C510.9,80.9,510.8,81.2,510.8,81.6z M524.4,84v-0.8c-0.3,0.3-0.7,0.5-1.2,0.7
	c-0.4,0.1-0.9,0.2-1.3,0.2c-0.6,0-1.1-0.1-1.6-0.3c-0.5-0.2-0.9-0.5-1.3-0.9c-0.4-0.4-0.7-0.8-0.9-1.3c-0.2-0.5-0.3-1.1-0.3-1.7
	s0.1-1.1,0.3-1.6c0.2-0.5,0.5-1,0.9-1.3c0.4-0.4,0.8-0.7,1.3-0.9c0.5-0.2,1.1-0.3,1.6-0.3c0.4,0,0.9,0.1,1.3,0.2
	c0.4,0.1,0.8,0.3,1.2,0.6v-3.7l1.6-0.4V84H524.4z M519.4,79.9c0,0.8,0.3,1.5,0.8,2c0.5,0.5,1.2,0.8,2,0.8c0.5,0,0.9-0.1,1.3-0.3
	c0.4-0.2,0.7-0.4,1-0.7v-3.7c-0.3-0.3-0.6-0.5-1-0.7c-0.4-0.2-0.8-0.3-1.3-0.3c-0.8,0-1.4,0.3-2,0.8
	C519.6,78.4,519.4,79.1,519.4,79.9z M530.5,84.1c-0.9,0-1.6-0.2-2.2-0.7c-0.6-0.5-0.8-1.1-0.8-1.8c0-0.8,0.3-1.4,0.9-1.8
	c0.6-0.4,1.4-0.7,2.4-0.7c0.4,0,0.8,0,1.2,0.1c0.4,0.1,0.7,0.2,1.1,0.3v-0.9c0-0.6-0.2-1-0.5-1.3c-0.3-0.3-0.8-0.4-1.5-0.4
	c-0.4,0-0.8,0.1-1.2,0.2c-0.4,0.1-0.9,0.3-1.4,0.5l-0.6-1.2c0.6-0.3,1.2-0.5,1.7-0.6c0.5-0.1,1.1-0.2,1.6-0.2c1.1,0,1.9,0.3,2.4,0.8
	c0.6,0.5,0.9,1.2,0.9,2.1V84H533v-0.7c-0.4,0.3-0.8,0.5-1.2,0.6C531.4,84.1,530.9,84.1,530.5,84.1z M529,81.6c0,0.4,0.2,0.7,0.5,1
	c0.3,0.2,0.8,0.4,1.3,0.4c0.4,0,0.8-0.1,1.2-0.2c0.4-0.1,0.7-0.3,1-0.6v-1.4c-0.3-0.2-0.6-0.3-1-0.4c-0.3-0.1-0.7-0.1-1.1-0.1
	c-0.6,0-1,0.1-1.4,0.4C529.2,80.9,529,81.2,529,81.6z M535.6,82.9l0.9-1.1c0.4,0.3,0.9,0.6,1.3,0.8c0.4,0.2,0.9,0.3,1.4,0.3
	c0.6,0,1-0.1,1.4-0.3c0.4-0.2,0.5-0.5,0.5-0.9c0-0.3-0.1-0.5-0.3-0.7c-0.2-0.2-0.5-0.3-1-0.4l-1.5-0.2c-0.8-0.1-1.4-0.4-1.8-0.7
	c-0.4-0.4-0.6-0.9-0.6-1.5c0-0.7,0.3-1.3,0.9-1.8c0.6-0.5,1.4-0.7,2.3-0.7c0.6,0,1.2,0.1,1.7,0.3c0.5,0.2,1.1,0.4,1.6,0.8l-0.8,1.1
	c-0.4-0.3-0.9-0.5-1.3-0.6c-0.4-0.1-0.8-0.2-1.3-0.2c-0.5,0-0.9,0.1-1.2,0.3s-0.4,0.5-0.4,0.8c0,0.3,0.1,0.5,0.3,0.7
	c0.2,0.1,0.6,0.3,1,0.3l1.5,0.2c0.8,0.1,1.4,0.4,1.8,0.8c0.4,0.4,0.6,0.9,0.6,1.5c0,0.4-0.1,0.7-0.3,1c-0.2,0.3-0.4,0.6-0.7,0.8
	c-0.3,0.2-0.7,0.4-1.1,0.5c-0.4,0.1-0.9,0.2-1.3,0.2c-0.7,0-1.4-0.1-2-0.3C536.6,83.6,536.1,83.3,535.6,82.9z M549.2,84.8l0.3-0.7
	l-3.2-8.2h1.8l2.4,6.2l2.6-6.2h1.7l-3.9,9.1c-0.4,0.9-0.8,1.5-1.3,1.9c-0.5,0.4-1.1,0.6-1.8,0.6c-0.2,0-0.3,0-0.5,0
	c-0.1,0-0.3,0-0.4-0.1v-1.4c0.1,0,0.2,0,0.3,0c0.1,0,0.3,0,0.4,0c0.4,0,0.7-0.1,0.9-0.3C548.8,85.5,549,85.2,549.2,84.8z
	 M404.3,96.9h1.9v-1.2c0-0.8,0.2-1.5,0.7-1.9c0.5-0.5,1.2-0.7,2.1-0.7c0.2,0,0.4,0,0.6,0c0.2,0,0.4,0.1,0.5,0.1v1.4
	c-0.2-0.1-0.4-0.1-0.5-0.1c-0.1,0-0.3,0-0.5,0c-0.4,0-0.8,0.1-1,0.3c-0.2,0.2-0.3,0.5-0.3,0.9v1.2h2.3v1.3h-2.3v6.8h-1.6v-6.8h-1.9
	V96.9z M412.9,96.9v4.8c0,0.6,0.2,1.1,0.5,1.5c0.4,0.4,0.9,0.6,1.5,0.6c0.4,0,0.8-0.1,1.2-0.3c0.3-0.2,0.6-0.5,0.8-0.8v-5.8h1.6v8.1
	h-1.6v-0.8c-0.3,0.3-0.7,0.6-1.1,0.7c-0.4,0.2-0.9,0.2-1.3,0.2c-0.9,0-1.7-0.3-2.3-0.9c-0.6-0.6-0.9-1.4-0.9-2.3v-5.1H412.9z
	 M427.4,104.1c-0.5,0.4-1,0.6-1.5,0.8c-0.5,0.2-1.1,0.3-1.7,0.3c-0.6,0-1.2-0.1-1.7-0.3c-0.5-0.2-1-0.5-1.4-0.9s-0.7-0.8-0.9-1.3
	c-0.2-0.5-0.3-1.1-0.3-1.7c0-0.6,0.1-1.1,0.3-1.6c0.2-0.5,0.5-1,0.9-1.3c0.4-0.4,0.8-0.7,1.3-0.9c0.5-0.2,1-0.3,1.6-0.3
	c0.6,0,1.1,0.1,1.6,0.3c0.5,0.2,0.9,0.5,1.2,0.9c0.4,0.4,0.6,0.8,0.8,1.3c0.2,0.5,0.3,1.1,0.3,1.7v0.5h-6.4c0.1,0.7,0.4,1.2,0.9,1.7
	c0.5,0.4,1.1,0.7,1.8,0.7c0.4,0,0.8-0.1,1.1-0.2c0.4-0.1,0.7-0.3,0.9-0.5L427.4,104.1z M424.1,98.1c-0.6,0-1.1,0.2-1.6,0.6
	c-0.4,0.4-0.7,0.9-0.8,1.6h4.8c-0.1-0.6-0.4-1.1-0.8-1.6C425.2,98.3,424.6,98.1,424.1,98.1z M429.6,105v-8.1h1.6v0.8
	c0.3-0.3,0.7-0.6,1.1-0.7c0.4-0.2,0.9-0.3,1.4-0.3c0.9,0,1.7,0.3,2.3,0.9c0.6,0.6,0.9,1.3,0.9,2.3v5.1h-1.6v-4.8
	c0-0.6-0.2-1.1-0.6-1.5c-0.4-0.4-0.8-0.6-1.5-0.6c-0.4,0-0.8,0.1-1.2,0.3c-0.3,0.2-0.6,0.4-0.8,0.8v5.9H429.6z M439.4,103v-4.8h-1.7
	v-1.3h1.7v-2.1l1.6-0.4v2.5h2.4v1.3H441v4.4c0,0.4,0.1,0.7,0.3,0.9c0.2,0.2,0.5,0.3,0.9,0.3c0.2,0,0.4,0,0.6,0
	c0.2,0,0.4-0.1,0.6-0.2v1.3c-0.2,0.1-0.5,0.1-0.8,0.2c-0.3,0-0.5,0.1-0.8,0.1c-0.8,0-1.4-0.2-1.8-0.5
	C439.6,104.2,439.4,103.7,439.4,103z M451.4,104.1c-0.5,0.4-1,0.6-1.5,0.8c-0.5,0.2-1.1,0.3-1.7,0.3c-0.6,0-1.2-0.1-1.7-0.3
	c-0.5-0.2-1-0.5-1.4-0.9s-0.7-0.8-0.9-1.3c-0.2-0.5-0.3-1.1-0.3-1.7c0-0.6,0.1-1.1,0.3-1.6c0.2-0.5,0.5-1,0.9-1.3s0.8-0.7,1.3-0.9
	c0.5-0.2,1-0.3,1.6-0.3c0.6,0,1.1,0.1,1.6,0.3c0.5,0.2,0.9,0.5,1.2,0.9c0.4,0.4,0.6,0.8,0.8,1.3s0.3,1.1,0.3,1.7v0.5h-6.4
	c0.1,0.7,0.4,1.2,0.9,1.7c0.5,0.4,1.1,0.7,1.8,0.7c0.4,0,0.8-0.1,1.1-0.2c0.4-0.1,0.7-0.3,0.9-0.5L451.4,104.1z M448,98.1
	c-0.6,0-1.1,0.2-1.6,0.6c-0.4,0.4-0.7,0.9-0.8,1.6h4.8c-0.1-0.6-0.4-1.1-0.8-1.6C449.1,98.3,448.6,98.1,448,98.1z M452.8,103.9
	l0.9-1.1c0.4,0.3,0.9,0.6,1.3,0.8c0.4,0.2,0.9,0.3,1.4,0.3c0.6,0,1-0.1,1.4-0.3s0.5-0.5,0.5-0.9c0-0.3-0.1-0.5-0.3-0.7
	c-0.2-0.2-0.5-0.3-1-0.4l-1.5-0.2c-0.8-0.1-1.4-0.4-1.8-0.7c-0.4-0.4-0.6-0.9-0.6-1.5c0-0.7,0.3-1.3,0.9-1.8
	c0.6-0.5,1.4-0.7,2.3-0.7c0.6,0,1.2,0.1,1.7,0.3c0.5,0.2,1.1,0.4,1.6,0.8l-0.8,1.1c-0.4-0.3-0.9-0.5-1.3-0.6
	c-0.4-0.1-0.8-0.2-1.3-0.2c-0.5,0-0.9,0.1-1.2,0.3c-0.3,0.2-0.4,0.5-0.4,0.8c0,0.3,0.1,0.5,0.3,0.7c0.2,0.1,0.6,0.3,1,0.3l1.5,0.2
	c0.8,0.1,1.4,0.4,1.8,0.8c0.4,0.4,0.6,0.9,0.6,1.5c0,0.4-0.1,0.7-0.3,1c-0.2,0.3-0.4,0.6-0.7,0.8c-0.3,0.2-0.7,0.4-1.1,0.5
	c-0.4,0.1-0.9,0.2-1.3,0.2c-0.7,0-1.4-0.1-2-0.3C453.8,104.6,453.3,104.3,452.8,103.9z M470.6,105v-0.8c-0.3,0.3-0.7,0.5-1.2,0.7
	c-0.4,0.1-0.9,0.2-1.3,0.2c-0.6,0-1.1-0.1-1.6-0.3c-0.5-0.2-0.9-0.5-1.3-0.9c-0.4-0.4-0.7-0.8-0.9-1.3c-0.2-0.5-0.3-1.1-0.3-1.7
	s0.1-1.1,0.3-1.6c0.2-0.5,0.5-1,0.9-1.3c0.4-0.4,0.8-0.7,1.3-0.9c0.5-0.2,1.1-0.3,1.6-0.3c0.4,0,0.9,0.1,1.3,0.2
	c0.4,0.1,0.8,0.3,1.2,0.6v-3.7l1.6-0.4V105H470.6z M465.6,100.9c0,0.8,0.3,1.5,0.8,2c0.5,0.5,1.2,0.8,2,0.8c0.5,0,0.9-0.1,1.3-0.3
	c0.4-0.2,0.7-0.4,1-0.7v-3.7c-0.3-0.3-0.6-0.5-1-0.7s-0.8-0.3-1.3-0.3c-0.8,0-1.4,0.3-2,0.8C465.9,99.4,465.6,100.1,465.6,100.9z
	 M481.2,104.1c-0.5,0.4-1,0.6-1.5,0.8c-0.5,0.2-1.1,0.3-1.7,0.3c-0.6,0-1.2-0.1-1.7-0.3c-0.5-0.2-1-0.5-1.4-0.9s-0.7-0.8-0.9-1.3
	c-0.2-0.5-0.3-1.1-0.3-1.7c0-0.6,0.1-1.1,0.3-1.6c0.2-0.5,0.5-1,0.9-1.3s0.8-0.7,1.3-0.9c0.5-0.2,1-0.3,1.6-0.3
	c0.6,0,1.1,0.1,1.6,0.3c0.5,0.2,0.9,0.5,1.2,0.9c0.4,0.4,0.6,0.8,0.8,1.3s0.3,1.1,0.3,1.7v0.5h-6.4c0.1,0.7,0.4,1.2,0.9,1.7
	c0.5,0.4,1.1,0.7,1.8,0.7c0.4,0,0.8-0.1,1.1-0.2c0.4-0.1,0.7-0.3,0.9-0.5L481.2,104.1z M477.8,98.1c-0.6,0-1.1,0.2-1.6,0.6
	c-0.4,0.4-0.7,0.9-0.8,1.6h4.8c-0.1-0.6-0.4-1.1-0.8-1.6C478.9,98.3,478.4,98.1,477.8,98.1z M493.7,104.1c-0.5,0.4-1,0.6-1.5,0.8
	c-0.5,0.2-1.1,0.3-1.7,0.3c-0.6,0-1.2-0.1-1.7-0.3c-0.5-0.2-1-0.5-1.4-0.9s-0.7-0.8-0.9-1.3c-0.2-0.5-0.3-1.1-0.3-1.7
	c0-0.6,0.1-1.1,0.3-1.6c0.2-0.5,0.5-1,0.9-1.3c0.4-0.4,0.8-0.7,1.3-0.9c0.5-0.2,1-0.3,1.6-0.3c0.6,0,1.1,0.1,1.6,0.3
	c0.5,0.2,0.9,0.5,1.2,0.9c0.4,0.4,0.6,0.8,0.8,1.3c0.2,0.5,0.3,1.1,0.3,1.7v0.5h-6.4c0.1,0.7,0.4,1.2,0.9,1.7
	c0.5,0.4,1.1,0.7,1.8,0.7c0.4,0,0.8-0.1,1.1-0.2c0.4-0.1,0.7-0.3,0.9-0.5L493.7,104.1z M490.3,98.1c-0.6,0-1.1,0.2-1.6,0.6
	c-0.4,0.4-0.7,0.9-0.8,1.6h4.8c-0.1-0.6-0.4-1.1-0.8-1.6C491.4,98.3,490.9,98.1,490.3,98.1z M495.8,105v-8.1h1.6v0.8
	c0.3-0.3,0.6-0.5,1-0.7c0.4-0.2,0.8-0.2,1.3-0.2c0.5,0,1,0.1,1.5,0.4c0.4,0.2,0.8,0.6,1,1c0.3-0.4,0.7-0.8,1.2-1
	c0.5-0.2,1-0.4,1.6-0.4c0.9,0,1.6,0.3,2.2,0.9c0.6,0.6,0.9,1.3,0.9,2.3v5.1h-1.6v-4.8c0-0.6-0.2-1.1-0.5-1.5
	c-0.3-0.4-0.8-0.6-1.4-0.6c-0.4,0-0.8,0.1-1.1,0.3c-0.3,0.2-0.6,0.5-0.8,0.8c0,0.1,0,0.2,0,0.4c0,0.1,0,0.2,0,0.4v5.1h-1.6v-4.8
	c0-0.6-0.2-1.1-0.5-1.5c-0.3-0.4-0.8-0.6-1.4-0.6c-0.4,0-0.7,0.1-1,0.3c-0.3,0.2-0.6,0.4-0.8,0.7v5.9H495.8z M510.6,95.5
	c-0.3,0-0.5-0.1-0.7-0.3c-0.2-0.2-0.3-0.4-0.3-0.7s0.1-0.5,0.3-0.7c0.2-0.2,0.4-0.3,0.7-0.3c0.3,0,0.5,0.1,0.7,0.3
	c0.2,0.2,0.3,0.4,0.3,0.7s-0.1,0.5-0.3,0.7C511.1,95.4,510.9,95.5,510.6,95.5z M511.5,96.9v8.1h-1.6v-8.1H511.5z M512.6,103.9
	l0.9-1.1c0.4,0.3,0.9,0.6,1.3,0.8c0.4,0.2,0.9,0.3,1.4,0.3c0.6,0,1-0.1,1.4-0.3c0.4-0.2,0.5-0.5,0.5-0.9c0-0.3-0.1-0.5-0.3-0.7
	c-0.2-0.2-0.5-0.3-1-0.4l-1.5-0.2c-0.8-0.1-1.4-0.4-1.8-0.7c-0.4-0.4-0.6-0.9-0.6-1.5c0-0.7,0.3-1.3,0.9-1.8
	c0.6-0.5,1.4-0.7,2.3-0.7c0.6,0,1.2,0.1,1.7,0.3c0.5,0.2,1.1,0.4,1.6,0.8l-0.8,1.1c-0.4-0.3-0.9-0.5-1.3-0.6
	c-0.4-0.1-0.8-0.2-1.3-0.2c-0.5,0-0.9,0.1-1.2,0.3c-0.3,0.2-0.4,0.5-0.4,0.8c0,0.3,0.1,0.5,0.3,0.7c0.2,0.1,0.6,0.3,1,0.3l1.5,0.2
	c0.8,0.1,1.4,0.4,1.8,0.8c0.4,0.4,0.6,0.9,0.6,1.5c0,0.4-0.1,0.7-0.3,1c-0.2,0.3-0.4,0.6-0.7,0.8c-0.3,0.2-0.7,0.4-1.1,0.5
	c-0.4,0.1-0.9,0.2-1.3,0.2c-0.7,0-1.4-0.1-2-0.3C513.5,104.6,513,104.3,512.6,103.9z M521.6,95.5c-0.3,0-0.5-0.1-0.7-0.3
	c-0.2-0.2-0.3-0.4-0.3-0.7s0.1-0.5,0.3-0.7c0.2-0.2,0.4-0.3,0.7-0.3c0.3,0,0.5,0.1,0.7,0.3c0.2,0.2,0.3,0.4,0.3,0.7
	s-0.1,0.5-0.3,0.7C522.1,95.4,521.8,95.5,521.6,95.5z M522.4,96.9v8.1h-1.6v-8.1H522.4z M523.9,100.9c0-0.6,0.1-1.1,0.3-1.6
	c0.2-0.5,0.5-1,0.9-1.3c0.4-0.4,0.8-0.7,1.3-0.9c0.5-0.2,1.1-0.3,1.7-0.3c0.6,0,1.1,0.1,1.6,0.3c0.5,0.2,1,0.5,1.3,0.9
	c0.4,0.4,0.7,0.8,0.9,1.3c0.2,0.5,0.3,1.1,0.3,1.6c0,0.6-0.1,1.2-0.3,1.7c-0.2,0.5-0.5,1-0.9,1.3c-0.4,0.4-0.8,0.7-1.3,0.9
	c-0.5,0.2-1.1,0.3-1.6,0.3c-0.6,0-1.1-0.1-1.7-0.3c-0.5-0.2-1-0.5-1.3-0.9c-0.4-0.4-0.7-0.8-0.9-1.3
	C524,102.1,523.9,101.5,523.9,100.9z M528.1,103.8c0.7,0,1.4-0.3,1.9-0.8c0.5-0.6,0.8-1.2,0.8-2s-0.3-1.5-0.8-2
	c-0.5-0.5-1.1-0.8-1.9-0.8c-0.7,0-1.4,0.3-1.9,0.8c-0.5,0.5-0.8,1.2-0.8,2s0.3,1.5,0.8,2C526.7,103.5,527.4,103.8,528.1,103.8z
	 M533.9,105v-8.1h1.6v0.8c0.3-0.3,0.7-0.6,1.1-0.7c0.4-0.2,0.9-0.3,1.4-0.3c0.9,0,1.7,0.3,2.3,0.9c0.6,0.6,0.9,1.3,0.9,2.3v5.1h-1.6
	v-4.8c0-0.6-0.2-1.1-0.6-1.5c-0.4-0.4-0.8-0.6-1.5-0.6c-0.4,0-0.8,0.1-1.2,0.3c-0.3,0.2-0.6,0.4-0.8,0.8v5.9H533.9z"/>
<path class="st0" d="M404.3,131.3v-1.5h9.6v1.5h-3.9v9.7h-1.7v-9.7H404.3z M415.8,131.5c-0.3,0-0.5-0.1-0.7-0.3
	c-0.2-0.2-0.3-0.4-0.3-0.7s0.1-0.5,0.3-0.7c0.2-0.2,0.4-0.3,0.7-0.3c0.3,0,0.5,0.1,0.7,0.3c0.2,0.2,0.3,0.4,0.3,0.7
	s-0.1,0.5-0.3,0.7C416.3,131.4,416.1,131.5,415.8,131.5z M416.6,132.9v8.1H415v-8.1H416.6z M425.6,140.1c-0.5,0.4-1,0.6-1.5,0.8
	c-0.5,0.2-1.1,0.3-1.7,0.3c-0.6,0-1.2-0.1-1.7-0.3c-0.5-0.2-1-0.5-1.4-0.9c-0.4-0.4-0.7-0.8-0.9-1.3c-0.2-0.5-0.3-1.1-0.3-1.7
	c0-0.6,0.1-1.1,0.3-1.6s0.5-1,0.9-1.3c0.4-0.4,0.8-0.7,1.3-0.9c0.5-0.2,1-0.3,1.6-0.3c0.6,0,1.1,0.1,1.6,0.3
	c0.5,0.2,0.9,0.5,1.2,0.9c0.4,0.4,0.6,0.8,0.8,1.3c0.2,0.5,0.3,1.1,0.3,1.7v0.5h-6.4c0.1,0.7,0.4,1.2,0.9,1.7
	c0.5,0.4,1.1,0.7,1.8,0.7c0.4,0,0.8-0.1,1.1-0.2c0.4-0.1,0.7-0.3,0.9-0.5L425.6,140.1z M422.2,134.1c-0.6,0-1.1,0.2-1.6,0.6
	c-0.4,0.4-0.7,0.9-0.8,1.6h4.8c-0.1-0.6-0.4-1.1-0.8-1.6C423.3,134.3,422.8,134.1,422.2,134.1z M427.7,141v-8.1h1.6v1
	c0.2-0.4,0.6-0.7,0.9-0.9c0.4-0.2,0.8-0.3,1.3-0.3c0.2,0,0.3,0,0.4,0s0.3,0.1,0.4,0.1v1.4c-0.1-0.1-0.3-0.1-0.5-0.1
	c-0.2,0-0.3,0-0.5,0c-0.5,0-0.9,0.1-1.3,0.4c-0.4,0.2-0.6,0.6-0.8,1.1v5.4H427.7z M433.6,141v-8.1h1.6v1c0.2-0.4,0.6-0.7,0.9-0.9
	c0.4-0.2,0.8-0.3,1.3-0.3c0.2,0,0.3,0,0.4,0c0.1,0,0.3,0.1,0.4,0.1v1.4c-0.1-0.1-0.3-0.1-0.5-0.1c-0.2,0-0.3,0-0.5,0
	c-0.5,0-0.9,0.1-1.3,0.4c-0.4,0.2-0.6,0.6-0.8,1.1v5.4H433.6z M441.8,141.1c-0.9,0-1.6-0.2-2.2-0.7c-0.6-0.5-0.8-1.1-0.8-1.8
	c0-0.8,0.3-1.4,0.9-1.8c0.6-0.4,1.4-0.7,2.4-0.7c0.4,0,0.8,0,1.2,0.1c0.4,0.1,0.7,0.2,1.1,0.3v-0.9c0-0.6-0.2-1-0.5-1.3
	c-0.3-0.3-0.8-0.4-1.5-0.4c-0.4,0-0.8,0.1-1.2,0.2c-0.4,0.1-0.9,0.3-1.4,0.5l-0.6-1.2c0.6-0.3,1.2-0.5,1.7-0.6
	c0.5-0.1,1.1-0.2,1.6-0.2c1.1,0,1.9,0.3,2.4,0.8c0.6,0.5,0.9,1.2,0.9,2.1v5.4h-1.6v-0.7c-0.4,0.3-0.8,0.5-1.2,0.6
	C442.7,141.1,442.3,141.1,441.8,141.1z M440.3,138.6c0,0.4,0.2,0.7,0.5,1c0.3,0.2,0.8,0.4,1.3,0.4c0.4,0,0.8-0.1,1.2-0.2
	c0.4-0.1,0.7-0.3,1-0.6v-1.4c-0.3-0.2-0.6-0.3-1-0.4c-0.3-0.1-0.7-0.1-1.1-0.1c-0.6,0-1,0.1-1.4,0.4
	C440.5,137.9,440.3,138.2,440.3,138.6z"/>
<path class="st0" d="M416,175.5c0,0.8-0.1,1.5-0.4,2.2c-0.3,0.7-0.7,1.3-1.2,1.8s-1.1,0.9-1.8,1.2c-0.7,0.3-1.4,0.4-2.2,0.4
	c-0.8,0-1.6-0.1-2.3-0.4s-1.3-0.7-1.9-1.2c-0.5-0.5-0.9-1.1-1.2-1.8c-0.3-0.7-0.4-1.5-0.4-2.3c0-0.8,0.1-1.6,0.4-2.3
	c0.3-0.7,0.7-1.3,1.2-1.8c0.5-0.5,1.1-0.9,1.9-1.2c0.7-0.3,1.5-0.4,2.3-0.4c0.9,0,1.7,0.2,2.5,0.5c0.8,0.3,1.5,0.8,2,1.4l-1.2,1.1
	c-0.4-0.5-0.9-0.8-1.5-1.1c-0.6-0.3-1.2-0.4-1.8-0.4c-0.6,0-1.1,0.1-1.6,0.3c-0.5,0.2-0.9,0.5-1.3,0.9c-0.4,0.4-0.7,0.8-0.9,1.3
	c-0.2,0.5-0.3,1.1-0.3,1.7c0,0.6,0.1,1.2,0.3,1.7c0.2,0.5,0.5,1,0.9,1.3c0.4,0.4,0.8,0.7,1.3,0.9c0.5,0.2,1.1,0.3,1.6,0.3
	c1,0,1.8-0.3,2.5-0.9c0.7-0.6,1.1-1.4,1.2-2.3h-3.7V175h5.5V175.5z M420.2,181.1c-0.9,0-1.6-0.2-2.2-0.7c-0.6-0.5-0.8-1.1-0.8-1.8
	c0-0.8,0.3-1.4,0.9-1.8c0.6-0.4,1.4-0.7,2.4-0.7c0.4,0,0.8,0,1.2,0.1c0.4,0.1,0.7,0.2,1.1,0.3v-0.9c0-0.6-0.2-1-0.5-1.3
	c-0.3-0.3-0.8-0.4-1.5-0.4c-0.4,0-0.8,0.1-1.2,0.2c-0.4,0.1-0.9,0.3-1.4,0.5l-0.6-1.2c0.6-0.3,1.2-0.5,1.7-0.6
	c0.5-0.1,1.1-0.2,1.6-0.2c1.1,0,1.9,0.3,2.4,0.8c0.6,0.5,0.9,1.2,0.9,2.1v5.4h-1.6v-0.7c-0.4,0.3-0.8,0.5-1.2,0.6
	C421.1,181.1,420.7,181.1,420.2,181.1z M418.7,178.6c0,0.4,0.2,0.7,0.5,1c0.3,0.2,0.8,0.4,1.3,0.4c0.4,0,0.8-0.1,1.2-0.2
	c0.4-0.1,0.7-0.3,1-0.6v-1.4c-0.3-0.2-0.6-0.3-1-0.4c-0.3-0.1-0.7-0.1-1.1-0.1c-0.6,0-1,0.1-1.4,0.4
	C418.9,177.9,418.7,178.2,418.7,178.6z M426.1,181v-8.1h1.6v0.8c0.3-0.3,0.7-0.6,1.1-0.7c0.4-0.2,0.9-0.3,1.4-0.3
	c0.9,0,1.7,0.3,2.3,0.9c0.6,0.6,0.9,1.3,0.9,2.3v5.1h-1.6v-4.8c0-0.6-0.2-1.1-0.6-1.5c-0.4-0.4-0.8-0.6-1.5-0.6
	c-0.4,0-0.8,0.1-1.2,0.3c-0.3,0.2-0.6,0.4-0.8,0.8v5.9H426.1z M437.8,181.1c-0.9,0-1.6-0.2-2.2-0.7c-0.6-0.5-0.8-1.1-0.8-1.8
	c0-0.8,0.3-1.4,0.9-1.8c0.6-0.4,1.4-0.7,2.4-0.7c0.4,0,0.8,0,1.2,0.1c0.4,0.1,0.7,0.2,1.1,0.3v-0.9c0-0.6-0.2-1-0.5-1.3
	c-0.3-0.3-0.8-0.4-1.5-0.4c-0.4,0-0.8,0.1-1.2,0.2c-0.4,0.1-0.9,0.3-1.4,0.5l-0.6-1.2c0.6-0.3,1.2-0.5,1.7-0.6
	c0.5-0.1,1.1-0.2,1.6-0.2c1.1,0,1.9,0.3,2.4,0.8c0.6,0.5,0.9,1.2,0.9,2.1v5.4h-1.6v-0.7c-0.4,0.3-0.8,0.5-1.2,0.6
	C438.7,181.1,438.2,181.1,437.8,181.1z M436.3,178.6c0,0.4,0.2,0.7,0.5,1c0.3,0.2,0.8,0.4,1.3,0.4c0.4,0,0.8-0.1,1.2-0.2
	c0.4-0.1,0.7-0.3,1-0.6v-1.4c-0.3-0.2-0.6-0.3-1-0.4c-0.3-0.1-0.7-0.1-1.1-0.1c-0.6,0-1,0.1-1.4,0.4
	C436.5,177.9,436.3,178.2,436.3,178.6z M449.9,181v-0.8c-0.3,0.3-0.7,0.5-1.2,0.7c-0.4,0.1-0.9,0.2-1.3,0.2c-0.6,0-1.1-0.1-1.6-0.3
	c-0.5-0.2-0.9-0.5-1.3-0.9c-0.4-0.4-0.7-0.8-0.9-1.3c-0.2-0.5-0.3-1.1-0.3-1.7c0-0.6,0.1-1.1,0.3-1.6c0.2-0.5,0.5-1,0.9-1.3
	c0.4-0.4,0.8-0.7,1.3-0.9c0.5-0.2,1.1-0.3,1.6-0.3c0.4,0,0.9,0.1,1.3,0.2c0.4,0.1,0.8,0.3,1.2,0.6v-3.7l1.6-0.4V181H449.9z
	 M444.9,176.9c0,0.8,0.3,1.5,0.8,2c0.5,0.5,1.2,0.8,2,0.8c0.5,0,0.9-0.1,1.3-0.3c0.4-0.2,0.7-0.4,1-0.7v-3.7c-0.3-0.3-0.6-0.5-1-0.7
	c-0.4-0.2-0.8-0.3-1.3-0.3c-0.8,0-1.4,0.3-2,0.8C445.2,175.4,444.9,176.1,444.9,176.9z M453,176.9c0-0.6,0.1-1.1,0.3-1.6
	c0.2-0.5,0.5-1,0.9-1.3c0.4-0.4,0.8-0.7,1.3-0.9c0.5-0.2,1.1-0.3,1.7-0.3c0.6,0,1.1,0.1,1.6,0.3c0.5,0.2,1,0.5,1.3,0.9
	c0.4,0.4,0.7,0.8,0.9,1.3c0.2,0.5,0.3,1.1,0.3,1.6c0,0.6-0.1,1.2-0.3,1.7c-0.2,0.5-0.5,1-0.9,1.3c-0.4,0.4-0.8,0.7-1.3,0.9
	c-0.5,0.2-1.1,0.3-1.6,0.3c-0.6,0-1.1-0.1-1.7-0.3c-0.5-0.2-1-0.5-1.3-0.9c-0.4-0.4-0.7-0.8-0.9-1.3
	C453.2,178.1,453,177.5,453,176.9z M457.3,179.8c0.7,0,1.4-0.3,1.9-0.8c0.5-0.6,0.8-1.2,0.8-2s-0.3-1.5-0.8-2
	c-0.5-0.5-1.1-0.8-1.9-0.8s-1.4,0.3-1.9,0.8c-0.5,0.5-0.8,1.2-0.8,2s0.3,1.5,0.8,2C455.9,179.5,456.5,179.8,457.3,179.8z"/>
<path class="st0" d="M88.4,15.8v7h1.4v1.4h-1.4V27h-1.6v-2.8h-6.4v-1.3l6.2-7.1H88.4z M82.3,22.8h4.5v-5.1L82.3,22.8z M94,15.8V27
	h-1.6v-9.6l-2,0.8v-1.4l2.6-1.1H94z M97.8,21.5c-0.7,0-1.3-0.3-1.8-0.8c-0.4-0.5-0.7-1.2-0.7-2.1c0-0.9,0.2-1.5,0.7-2.1
	c0.5-0.5,1.1-0.8,1.8-0.8c0.7,0,1.3,0.3,1.8,0.8c0.5,0.5,0.7,1.2,0.7,2.1c0,0.9-0.2,1.5-0.7,2.1C99.1,21.2,98.6,21.5,97.8,21.5z
	 M97.8,20.6c0.4,0,0.8-0.2,1-0.5c0.3-0.4,0.4-0.8,0.4-1.4c0-0.6-0.1-1.1-0.4-1.4c-0.3-0.4-0.6-0.5-1-0.5c-0.4,0-0.8,0.2-1,0.5
	c-0.3,0.4-0.4,0.8-0.4,1.4c0,0.6,0.1,1.1,0.4,1.4C97,20.4,97.4,20.6,97.8,20.6z M98.5,27h-1.2l6.3-11.2h1.3L98.5,27z M104.3,27.1
	c-0.7,0-1.3-0.3-1.8-0.8c-0.4-0.5-0.7-1.2-0.7-2.1s0.2-1.5,0.7-2.1c0.5-0.5,1.1-0.8,1.8-0.8c0.7,0,1.3,0.3,1.8,0.8
	c0.5,0.5,0.7,1.2,0.7,2.1s-0.2,1.5-0.7,2.1C105.6,26.8,105.1,27.1,104.3,27.1z M104.3,26.2c0.4,0,0.8-0.2,1-0.5
	c0.3-0.4,0.4-0.8,0.4-1.4s-0.1-1.1-0.4-1.4c-0.3-0.4-0.6-0.5-1-0.5c-0.4,0-0.8,0.2-1,0.5c-0.3,0.4-0.4,0.8-0.4,1.4s0.1,1.1,0.4,1.4
	C103.5,26,103.9,26.2,104.3,26.2z"/>
<path class="st0" d="M148.8,88.9c0,0.5-0.1,0.9-0.3,1.3c-0.2,0.4-0.5,0.7-0.9,1s-0.8,0.5-1.3,0.7c-0.5,0.2-1.1,0.2-1.7,0.2
	c-0.8,0-1.6-0.1-2.4-0.4c-0.7-0.3-1.4-0.7-1.9-1.2l1.1-1c0.5,0.5,0.9,0.8,1.4,1c0.5,0.2,1.1,0.3,1.7,0.3c0.8,0,1.4-0.2,1.9-0.5
	c0.5-0.4,0.7-0.8,0.7-1.4c0-0.5-0.2-0.9-0.7-1.3c-0.5-0.3-1.1-0.5-1.8-0.5h-1v-1.3h0.8c0.7,0,1.2-0.2,1.6-0.6s0.7-0.8,0.7-1.4
	c0-0.5-0.2-0.9-0.7-1.3c-0.4-0.3-1-0.5-1.6-0.5c-0.6,0-1.1,0.1-1.6,0.3c-0.5,0.2-0.9,0.5-1.4,1l-1.1-1c0.5-0.5,1.2-1,1.9-1.3
	c0.7-0.3,1.4-0.4,2.2-0.4c0.6,0,1.1,0.1,1.5,0.2c0.5,0.1,0.9,0.4,1.2,0.6c0.3,0.3,0.6,0.6,0.8,1c0.2,0.4,0.3,0.8,0.3,1.2
	c0,0.6-0.2,1.1-0.5,1.5c-0.3,0.4-0.8,0.8-1.3,1.1c0.7,0.2,1.2,0.5,1.6,1C148.6,87.8,148.8,88.3,148.8,88.9z M154.8,92.2
	c-0.7,0-1.3-0.1-1.9-0.4c-0.6-0.3-1.1-0.6-1.5-1.1c-0.4-0.5-0.7-1.1-1-1.7c-0.2-0.7-0.3-1.4-0.3-2.2c0-0.9,0.1-1.8,0.4-2.5
	c0.3-0.8,0.6-1.4,1.1-1.9c0.5-0.5,1-0.9,1.7-1.2c0.7-0.3,1.4-0.4,2.2-0.4c0.5,0,1.1,0.1,1.6,0.2c0.5,0.2,1,0.4,1.4,0.6l-0.8,1.2
	c-0.3-0.2-0.7-0.4-1.1-0.5c-0.4-0.1-0.7-0.2-1.1-0.2c-1.1,0-2,0.4-2.6,1.2c-0.6,0.8-1,1.9-1,3.3c0.4-0.5,0.9-0.8,1.5-1.1
	c0.6-0.3,1.2-0.4,1.8-0.4c0.6,0,1.1,0.1,1.6,0.3c0.5,0.2,0.9,0.4,1.2,0.7c0.4,0.3,0.6,0.7,0.8,1.1s0.3,0.9,0.3,1.4
	c0,0.5-0.1,1-0.3,1.5c-0.2,0.4-0.5,0.8-0.8,1.2c-0.4,0.3-0.8,0.6-1.3,0.8C155.9,92.1,155.4,92.2,154.8,92.2z M154.7,86.3
	c-0.5,0-1.1,0.1-1.6,0.4c-0.5,0.3-1,0.6-1.3,1.1c0.1,0.9,0.5,1.6,1,2.2c0.5,0.6,1.2,0.8,2,0.8c0.7,0,1.3-0.2,1.8-0.7
	c0.5-0.4,0.7-1,0.7-1.6c0-0.7-0.2-1.2-0.7-1.6C156,86.5,155.4,86.3,154.7,86.3z M162.2,86.5c-0.7,0-1.3-0.3-1.8-0.8
	c-0.4-0.5-0.7-1.2-0.7-2.1c0-0.9,0.2-1.5,0.7-2.1c0.5-0.5,1.1-0.8,1.8-0.8c0.7,0,1.3,0.3,1.8,0.8c0.5,0.5,0.7,1.2,0.7,2.1
	c0,0.9-0.2,1.5-0.7,2.1C163.6,86.2,163,86.5,162.2,86.5z M162.2,85.6c0.4,0,0.8-0.2,1-0.5c0.3-0.4,0.4-0.8,0.4-1.4
	c0-0.6-0.1-1.1-0.4-1.4c-0.3-0.4-0.6-0.5-1-0.5c-0.4,0-0.8,0.2-1,0.5c-0.3,0.4-0.4,0.8-0.4,1.4c0,0.6,0.1,1.1,0.4,1.4
	C161.5,85.4,161.8,85.6,162.2,85.6z M162.9,92h-1.2l6.3-11.2h1.3L162.9,92z M168.7,92.1c-0.7,0-1.3-0.3-1.8-0.8s-0.7-1.2-0.7-2.1
	s0.2-1.5,0.7-2.1c0.5-0.5,1.1-0.8,1.8-0.8c0.7,0,1.3,0.3,1.8,0.8c0.5,0.5,0.7,1.2,0.7,2.1s-0.2,1.5-0.7,2.1
	C170,91.8,169.5,92.1,168.7,92.1z M168.7,91.2c0.4,0,0.8-0.2,1-0.5c0.3-0.4,0.4-0.8,0.4-1.4s-0.1-1.1-0.4-1.4
	c-0.3-0.4-0.6-0.5-1-0.5c-0.4,0-0.8,0.2-1,0.5c-0.3,0.4-0.4,0.8-0.4,1.4s0.1,1.1,0.4,1.4C168,91,168.3,91.2,168.7,91.2z"/>
<ellipse class="st3" cx="378" cy="171" rx="11" ry="12"/>
<ellipse class="st2" cx="378" cy="135" rx="11" ry="12"/>
<circle class="st1" cx="378" cy="79" r="11"/>
</svg>
