<svg width="113" height="92" viewBox="0 0 113 92" fill="none" xmlns="http://www.w3.org/2000/svg">
<circle cx="56.2124" cy="45.917" r="45.2144" fill="#6AD394"/>
<mask id="mask0" mask-type="alpha" maskUnits="userSpaceOnUse" x="0" y="0" width="113" height="65">
<rect y="0.702637" width="112.018" height="63.9519" fill="#C4C4C4"/>
</mask>
<g mask="url(#mask0)">
<circle cx="56.2124" cy="45.917" r="45.2144" fill="#67E5EE"/>
</g>
<path d="M60.1973 67.1996L62.1972 79.8571H63.3971L65.378 66.5604C65.5031 65.7206 65.4584 64.8468 65.2491 64.0425C65.0398 63.2381 64.6748 62.5368 64.1971 62.0215L60.1973 67.1996Z" fill="#A6B2BC"/>
<path d="M70.5977 67.1996L72.5976 79.8571H73.7975L75.7784 66.5604C75.9035 65.7206 75.8588 64.8468 75.6495 64.0425C75.4402 63.2381 75.0752 62.5368 74.5975 62.0215L70.5977 67.1996Z" fill="#A6B2BC"/>
<path d="M78.5975 61.4468C78.5974 64.889 78.3411 68.3213 77.8331 71.685L76.5976 79.8577H75.3977L74.0207 70.6163C73.1547 71.3913 72.1553 71.8023 71.1353 71.8029H67.398L66.198 79.8577H64.9981L63.7256 71.8029H61.3982L59.3258 76.0619C59.1188 76.487 58.818 76.7991 58.4722 76.9474C58.1264 77.0957 57.7559 77.0716 57.4209 76.8789L56.5984 76.4056V69.5015L56.6364 69.2822L55.3984 68.9262L56.1984 67.2002H56.9984C57.0524 66.8097 57.117 66.4261 57.1924 66.0495C57.2709 65.6583 57.36 65.2747 57.4599 64.8988C58.1783 62.19 59.4521 59.8592 61.1123 58.2153C62.7726 56.5713 64.7409 55.6918 66.7565 55.6934H74.5977C74.7327 55.6934 74.866 55.7027 74.9977 55.7214C75.9843 55.8643 76.8989 56.5292 77.564 57.587C78.2292 58.6449 78.5975 60.0204 78.5975 61.4468Z" fill="#D3E1E9"/>
<path d="M57.7969 70.0762H58.5968V71.2268H57.7969V70.0762Z" fill="#395166"/>
<path d="M61.3984 69.501H62.1984V71.8023H61.3984V69.501Z" fill="#A6B2BC"/>
<path d="M56.6357 69.2817L57.3976 69.5011L57.2406 70.6295L56.5977 70.4446V69.5011L56.6357 69.2817Z" fill="#A6B2BC"/>
<path d="M57.798 66.0493V67.2H56.998C57.052 66.8095 57.1167 66.4259 57.192 66.0493H57.798Z" fill="#A6B2BC"/>
<path d="M74.0198 70.6157C73.7847 70.8262 73.5389 71.0107 73.2843 71.1673L72.2148 63.9885L72.9968 63.7476L74.0198 70.6157Z" fill="#A6B2BC"/>
<path d="M68.961 66.8013L68.216 71.8024H67.398L68.179 66.5604C68.3029 65.7206 68.2576 64.8474 68.0484 64.0434C67.8392 63.2394 67.4748 62.538 66.998 62.0216L67.478 61.1011C68.0768 61.7496 68.5345 62.6305 68.7972 63.6402C69.0599 64.65 69.1167 65.7467 68.961 66.8013Z" fill="#A6B2BC"/>
<path d="M63.7242 71.8024H62.9038L62.2168 67.455L62.9968 67.1997L63.7242 71.8024Z" fill="#A6B2BC"/>
<path d="M74.9961 55.7209V56.2682C74.9961 56.8785 74.8275 57.4639 74.5274 57.8954C74.2274 58.327 73.8205 58.5695 73.3962 58.5696H72.9962C72.678 58.5697 72.3728 58.7516 72.1478 59.0752C71.9228 59.3989 71.7963 59.8379 71.7962 60.2956V63.1723C71.7962 63.6301 71.6698 64.0691 71.4448 64.3928C71.2197 64.7165 70.9145 64.8983 70.5963 64.8983C70.278 64.8983 69.9728 64.7165 69.7478 64.3928C69.5228 64.0691 69.3963 63.6301 69.3963 63.1723V62.0216C69.3962 61.5639 69.2698 61.1249 69.0448 60.8013C68.8198 60.4776 68.5146 60.2957 68.1964 60.2956H66.9964C66.5721 60.2955 66.1652 60.053 65.8652 59.6215C65.5651 59.1899 65.3965 58.6046 65.3965 57.9942V55.8259C65.8467 55.7372 66.3005 55.6928 66.7549 55.6929H74.5961C74.7311 55.6929 74.8644 55.7022 74.9961 55.7209Z" fill="#395166"/>
<path d="M63.3973 60.2957V61.4464C63.3973 61.5975 63.3766 61.7471 63.3364 61.8868C63.2962 62.0264 63.2373 62.1533 63.163 62.2601C63.0887 62.367 63.0005 62.4517 62.9035 62.5095C62.8064 62.5674 62.7023 62.5971 62.5973 62.597H61.7973C61.6922 62.5968 61.5881 62.6265 61.491 62.6842C61.3939 62.742 61.3056 62.8267 61.2313 62.9336C61.157 63.0405 61.0981 63.1674 61.058 63.3071C61.0178 63.4468 60.9972 63.5966 60.9973 63.7477C60.9974 63.8988 60.9767 64.0485 60.9365 64.1881C60.8963 64.3277 60.8374 64.4546 60.7631 64.5615C60.6888 64.6683 60.6006 64.7531 60.5035 64.8109C60.4065 64.8687 60.3024 64.8984 60.1974 64.8984H57.459C58.0494 62.6732 59.017 60.6955 60.2739 59.145H62.5973C62.7023 59.145 62.8064 59.1747 62.9035 59.2325C63.0005 59.2903 63.0887 59.3751 63.163 59.482C63.2373 59.5888 63.2962 59.7157 63.3364 59.8553C63.3766 59.9949 63.3973 60.1446 63.3973 60.2957Z" fill="#395166"/>
<path d="M76.1301 63.5066L75.5645 62.693L76.314 61.6148C76.6573 61.121 76.9296 60.5348 77.1154 59.8897C77.3012 59.2445 77.3968 58.553 77.3968 57.8547V57.3374H77.8371C77.9325 57.3374 78.024 57.3919 78.0914 57.4889C78.1589 57.5859 78.1968 57.7175 78.1968 57.8547C78.1968 59.5702 77.723 61.2154 76.8797 62.4284L76.1301 63.5066Z" fill="#A6B2BC"/>
<path d="M76.5956 62.0215H75.7957C75.4774 62.0215 75.1722 62.2033 74.9472 62.527C74.7221 62.8507 74.5957 63.2897 74.5957 63.7475V64.8982H75.3957C75.7139 64.8982 76.0191 64.7163 76.2442 64.3926C76.4692 64.0689 76.5956 63.6299 76.5956 63.1722V62.0215Z" fill="#395166"/>
<path d="M74.8613 60.2752L76.8612 72.9328H78.0612L80.0421 59.636C80.1672 58.7963 80.1224 57.9225 79.9132 57.1182C79.7039 56.3138 79.3388 55.6125 78.8612 55.0972L74.8613 60.2752Z" fill="#A6B2BC"/>
<path d="M85.2617 60.2752L87.2616 72.9328H88.4616L90.4425 59.636C90.5676 58.7963 90.5228 57.9225 90.3136 57.1182C90.1043 56.3138 89.7392 55.6125 89.2616 55.0972L85.2617 60.2752Z" fill="#A6B2BC"/>
<path d="M93.2596 54.5229C93.2595 57.9651 93.0033 61.3974 92.4952 64.7611L91.2597 72.9339H90.0598L88.6828 63.6924C87.8168 64.4675 86.8174 64.8785 85.7974 64.8791H82.0601L80.8601 72.9339H79.6602L78.3877 64.8791H76.0603L73.9879 69.1381C73.7809 69.5632 73.4801 69.8753 73.1343 70.0236C72.7885 70.1719 72.418 70.1477 72.083 69.955L71.2605 69.4818V62.5777L71.2985 62.3584L70.0605 62.0024L70.8605 60.2764H71.6605C71.7145 59.8858 71.7791 59.5023 71.8545 59.1257C71.933 58.7344 72.0221 58.3509 72.122 57.975C72.8405 55.2662 74.1142 52.9354 75.7744 51.2914C77.4347 49.6475 79.403 48.768 81.4186 48.7695H89.2598C89.3948 48.7695 89.5281 48.7789 89.6598 48.7976C90.6464 48.9405 91.561 49.6053 92.2261 50.6632C92.8913 51.7211 93.2596 53.0966 93.2596 54.5229Z" fill="#D3E1E9"/>
<path d="M72.4609 63.1519H73.2609V64.3026H72.4609V63.1519Z" fill="#395166"/>
<path d="M76.0625 62.5767H76.8625V64.878H76.0625V62.5767Z" fill="#A6B2BC"/>
<path d="M71.2997 62.3574L72.0617 62.5768L71.9047 63.7052L71.2617 63.5204V62.5768L71.2997 62.3574Z" fill="#A6B2BC"/>
<path d="M72.4621 59.125V60.2757H71.6621C71.7161 59.8852 71.7808 59.5016 71.8561 59.125H72.4621Z" fill="#A6B2BC"/>
<path d="M88.6838 63.6914C88.4488 63.9019 88.2029 64.0863 87.9484 64.243L86.8789 57.0642L87.6609 56.8232L88.6838 63.6914Z" fill="#A6B2BC"/>
<path d="M83.625 59.8769L82.8801 64.8781H82.0621L82.8431 59.636C82.967 58.7963 82.9217 57.9231 82.7125 57.1191C82.5033 56.3151 82.1389 55.6137 81.6621 55.0973L82.1421 54.1768C82.7409 54.8252 83.1985 55.7061 83.4612 56.7159C83.7239 57.7257 83.7808 58.8223 83.625 59.8769Z" fill="#A6B2BC"/>
<path d="M78.3883 64.8781H77.5678L76.8809 60.5307L77.6608 60.2754L78.3883 64.8781Z" fill="#A6B2BC"/>
<path d="M89.6602 48.7966V49.3439C89.6601 49.9542 89.4915 50.5395 89.1915 50.9711C88.8915 51.4027 88.4845 51.6452 88.0602 51.6452H87.6602C87.342 51.6454 87.0369 51.8272 86.8118 52.1509C86.5868 52.4746 86.4604 52.9135 86.4603 53.3713V56.2479C86.4603 56.7057 86.3339 57.1447 86.1088 57.4684C85.8838 57.7921 85.5786 57.974 85.2603 57.974C84.9421 57.974 84.6369 57.7921 84.4118 57.4684C84.1868 57.1447 84.0604 56.7057 84.0604 56.2479V55.0973C84.0603 54.6395 83.9339 54.2006 83.7088 53.8769C83.4838 53.5533 83.1787 53.3714 82.8604 53.3713H81.6605C81.2362 53.3712 80.8293 53.1287 80.5292 52.6971C80.2292 52.2656 80.0606 51.6802 80.0605 51.0699V48.9016C80.5107 48.8129 80.9646 48.7685 81.419 48.7686H89.2602C89.3952 48.7686 89.5285 48.7779 89.6602 48.7966Z" fill="#395166"/>
<path d="M78.0613 53.3714V54.5221C78.0613 54.6732 78.0407 54.8228 78.0005 54.9625C77.9603 55.1021 77.9014 55.2289 77.8271 55.3358C77.7528 55.4427 77.6646 55.5274 77.5675 55.5852C77.4704 55.643 77.3664 55.6728 77.2613 55.6727H76.4614C76.3563 55.6725 76.2522 55.7022 76.1551 55.7599C76.058 55.8177 75.9697 55.9024 75.8954 56.0093C75.8211 56.1162 75.7622 56.2431 75.722 56.3828C75.6819 56.5225 75.6613 56.6722 75.6614 56.8234C75.6614 56.9745 75.6408 57.1242 75.6006 57.2638C75.5604 57.4034 75.5015 57.5303 75.4272 57.6372C75.3529 57.744 75.2647 57.8288 75.1676 57.8866C75.0705 57.9444 74.9665 57.9741 74.8614 57.9741H72.123C72.7134 55.7489 73.681 53.7712 74.9379 52.2207H77.2613C77.3664 52.2207 77.4704 52.2504 77.5675 52.3082C77.6646 52.366 77.7528 52.4508 77.8271 52.5576C77.9014 52.6645 77.9603 52.7914 78.0005 52.931C78.0407 53.0706 78.0613 53.2203 78.0613 53.3714Z" fill="#395166"/>
<path d="M90.7942 56.5823L90.2285 55.7687L90.9781 54.6905C91.3213 54.1968 91.5937 53.6105 91.7794 52.9654C91.9652 52.3202 92.0608 51.6287 92.0608 50.9304V50.4131H92.5012C92.5965 50.4131 92.688 50.4676 92.7555 50.5646C92.8229 50.6616 92.8608 50.7932 92.8608 50.9304C92.8608 52.6459 92.387 54.2911 91.5437 55.5041L90.7942 56.5823Z" fill="#A6B2BC"/>
<path d="M91.2616 55.0972H90.4617C90.1434 55.0972 89.8382 55.279 89.6132 55.6027C89.3881 55.9264 89.2617 56.3654 89.2617 56.8232V57.9739H90.0617C90.3799 57.9739 90.6851 57.7921 90.9102 57.4684C91.1352 57.1447 91.2616 56.7057 91.2616 56.2479V55.0972Z" fill="#395166"/>
<path d="M44.4688 52.1058L42.4688 64.7633H41.2689L39.288 51.4666C39.1629 50.6268 39.2076 49.7531 39.4169 48.9487C39.6262 48.1444 39.9913 47.443 40.4689 46.9277L44.4688 52.1058Z" fill="#A6B2BC"/>
<path d="M34.0703 52.1058L32.0704 64.7633H30.8704L28.8896 51.4666C28.7645 50.6268 28.8092 49.7531 29.0185 48.9487C29.2277 48.1444 29.5928 47.443 30.0705 46.9277L34.0703 52.1058Z" fill="#A6B2BC"/>
<path d="M26.0704 46.3525C26.0705 49.7947 26.3268 53.227 26.8349 56.5907L28.0704 64.7635H29.2703L30.6473 55.522C31.5132 56.2971 32.5127 56.7081 33.5326 56.7087H37.27L38.47 64.7635H39.6699L40.9424 56.7087H43.2698L45.3422 60.9676C45.5492 61.3928 45.85 61.7049 46.1958 61.8532C46.5416 62.0015 46.9121 61.9773 47.2471 61.7846L48.0696 61.3114V54.4073L48.0316 54.188L49.2695 53.832L48.4696 52.1059H47.6696C47.6156 51.7154 47.5509 51.3319 47.4756 50.9553C47.3971 50.564 47.3079 50.1805 47.2081 49.8046C46.4896 47.0958 45.2159 44.765 43.5556 43.121C41.8954 41.4771 39.9271 40.5976 37.9115 40.5991H30.0703C29.9353 40.5991 29.802 40.6085 29.6703 40.6272C28.6837 40.7701 27.7691 41.4349 27.1039 42.4928C26.4388 43.5507 26.0705 44.9262 26.0704 46.3525Z" fill="#D3E1E9"/>
<path d="M46.8691 54.9824H46.0692V56.1331H46.8691V54.9824Z" fill="#395166"/>
<path d="M43.2676 54.4067H42.4676V56.7081H43.2676V54.4067Z" fill="#A6B2BC"/>
<path d="M48.0304 54.1875L47.2684 54.4068L47.4254 55.5352L48.0684 55.3504V54.4068L48.0304 54.1875Z" fill="#A6B2BC"/>
<path d="M46.868 50.9551V52.1058H47.668C47.614 51.7153 47.5493 51.3317 47.474 50.9551H46.868Z" fill="#A6B2BC"/>
<path d="M30.6463 55.5214C30.8813 55.732 31.1272 55.9164 31.3817 56.073L32.4512 48.8942L31.6692 48.6533L30.6463 55.5214Z" fill="#A6B2BC"/>
<path d="M35.705 51.707L36.45 56.7081H37.268L36.487 51.4661C36.3631 50.6263 36.4084 49.7531 36.6176 48.9491C36.8268 48.1451 37.1912 47.4437 37.668 46.9274L37.188 46.0068C36.5892 46.6553 36.1315 47.5362 35.8689 48.546C35.6062 49.5557 35.5493 50.6524 35.705 51.707Z" fill="#A6B2BC"/>
<path d="M40.9418 56.7082H41.7622L42.4492 52.3608L41.6692 52.1055L40.9418 56.7082Z" fill="#A6B2BC"/>
<path d="M29.6699 40.6272V41.1745C29.67 41.7848 29.8385 42.3701 30.1386 42.8017C30.4386 43.2333 30.8455 43.4757 31.2698 43.4758H31.6698C31.9881 43.4759 32.2932 43.6578 32.5182 43.9815C32.7433 44.3052 32.8697 44.7441 32.8698 45.2018V48.0785C32.8698 48.5363 32.9962 48.9753 33.2212 49.299C33.4463 49.6227 33.7515 49.8046 34.0697 49.8046C34.388 49.8046 34.6932 49.6227 34.9182 49.299C35.1433 48.9753 35.2697 48.5363 35.2697 48.0785V46.9279C35.2698 46.4701 35.3962 46.0312 35.6212 45.7075C35.8463 45.3839 36.1514 45.202 36.4696 45.2018H37.6696C38.0939 45.2018 38.5008 44.9593 38.8009 44.5277C39.1009 44.0961 39.2695 43.5108 39.2695 42.9005V40.7322C38.8193 40.6435 38.3655 40.599 37.9111 40.5991H30.0699C29.9349 40.5991 29.8016 40.6085 29.6699 40.6272Z" fill="#395166"/>
<path d="M41.2688 45.202V46.3526C41.2687 46.5038 41.2894 46.6534 41.3296 46.793C41.3698 46.9327 41.4287 47.0595 41.503 47.1664C41.5773 47.2732 41.6655 47.358 41.7626 47.4158C41.8596 47.4736 41.9637 47.5034 42.0687 47.5033H42.8687C42.9738 47.5031 43.0779 47.5327 43.175 47.5905C43.2721 47.6482 43.3604 47.733 43.4347 47.8399C43.509 47.9468 43.5679 48.0737 43.6081 48.2134C43.6482 48.3531 43.6688 48.5028 43.6687 48.654C43.6686 48.8051 43.6893 48.9548 43.7295 49.0944C43.7697 49.234 43.8286 49.3609 43.9029 49.4677C43.9772 49.5746 44.0654 49.6594 44.1625 49.7172C44.2595 49.775 44.3636 49.8047 44.4686 49.8047H47.207C46.6166 47.5795 45.649 45.6018 44.3921 44.0513H42.0687C41.9637 44.0512 41.8596 44.081 41.7626 44.1388C41.6655 44.1966 41.5773 44.2813 41.503 44.3882C41.4287 44.4951 41.3698 44.6219 41.3296 44.7616C41.2894 44.9012 41.2687 45.0508 41.2688 45.202Z" fill="#395166"/>
<path d="M28.5359 48.4129L29.1016 47.5992L28.352 46.5211C28.0087 46.0273 27.7364 45.4411 27.5506 44.7959C27.3649 44.1508 27.2692 43.4593 27.2692 42.761V42.2437H26.8289C26.7335 42.2437 26.6421 42.2982 26.5746 42.3952C26.5072 42.4922 26.4693 42.6238 26.4693 42.761C26.4693 44.4765 26.943 46.1217 27.7863 47.3347L28.5359 48.4129Z" fill="#A6B2BC"/>
<path d="M28.0684 46.9277H28.8684C29.1867 46.9277 29.4919 47.1096 29.7169 47.4333C29.9419 47.757 30.0684 48.196 30.0684 48.6538V49.8045H29.2684C28.9501 49.8045 28.6449 49.6226 28.4199 49.2989C28.1949 48.9752 28.0684 48.5362 28.0684 48.0784V46.9277Z" fill="#395166"/>
</svg>
