<svg width="165" height="165" viewBox="0 0 165 165" fill="none" xmlns="http://www.w3.org/2000/svg">
<circle cx="83" cy="83" r="82" fill="#6AD394"/>
<mask id="mask0" mask-type="alpha" maskUnits="userSpaceOnUse" x="0" y="0" width="165" height="165">
<circle cx="82.6579" cy="82.819" r="81.9547" fill="#65EED8"/>
</mask>
<g mask="url(#mask0)">
<path d="M48.2348 40.6123H32.6094V51.039H48.2348V40.6123Z" fill="#48C1E1"/>
<path d="M51.4578 39.4653C51.4578 40.3203 50.7586 41.0199 49.9036 41.0199H30.941C30.086 41.0199 29.3867 40.3203 29.3867 39.4653V28.2606C29.3867 27.4056 30.086 26.7061 30.941 26.7061H49.9033C50.7583 26.7061 51.4575 27.4056 51.4575 28.2606L51.4578 39.4653Z" fill="#046699"/>
<g opacity="0.1">
<path opacity="0.1" d="M35.8702 39.4653V28.2606C35.8702 27.4056 36.5694 26.7061 37.4247 26.7061H30.941C30.086 26.7061 29.3867 27.4056 29.3867 28.2606V39.4653C29.3867 40.3203 30.086 41.0199 30.941 41.0199H37.4247C36.5697 41.0199 35.8702 40.3203 35.8702 39.4653Z" fill="black"/>
</g>
<path d="M27.7645 125.134C27.8445 125.101 27.9066 125.035 27.9347 124.954C27.9631 124.872 27.9546 124.782 27.9124 124.707C27.7829 124.478 27.7174 124.253 27.7174 124.039C27.7174 122.375 31.4081 120.594 36.9028 120.594C38.671 120.594 40.3937 120.791 41.8845 121.163C41.9087 121.169 41.9331 121.172 41.9576 121.172C42.0366 121.172 42.1136 121.141 42.1709 121.084C42.2461 121.009 42.2763 120.9 42.2503 120.797C41.2915 116.97 40.7426 113.037 40.6137 109.017C40.6119 108.971 40.6089 108.924 40.6074 108.877C40.5901 108.303 40.5811 107.727 40.5811 107.15C40.5811 106.455 41.1458 105.888 41.8402 105.888H44.5669C44.6526 105.888 44.7347 105.852 44.7917 105.788C44.8488 105.724 44.8762 105.638 44.8669 105.553C44.8222 105.153 44.8014 104.819 44.8014 104.501C44.8014 100.249 47.5206 96.5351 51.5679 95.2601C51.6512 95.2338 51.7191 95.1725 51.7538 95.0923C51.7888 95.012 51.787 94.9205 51.749 94.8418C51.3814 94.0749 51.1237 93.2733 50.9824 92.4597C50.2774 88.3912 52.406 84.3405 56.1582 82.6091C56.3001 82.5437 56.3686 82.3807 56.3161 82.2334C56.1398 81.7403 56.0064 81.2339 55.9189 80.7278C55.3467 77.4267 56.6378 74.2253 59.0292 72.1981V59.2376C59.0292 54.4662 55.1345 50.5625 50.3737 50.5625H30.4677C25.7075 50.5625 21.8125 54.4662 21.8125 59.2376V128.734C23.5469 127.272 25.5463 126.048 27.7645 125.134Z" fill="#A2DFF9"/>
<path d="M51.5682 95.2597C51.6515 95.2335 51.7194 95.1722 51.7541 95.0919C51.7891 95.0116 51.7873 94.9202 51.7493 94.8414C51.3817 94.0746 51.124 93.273 50.9827 92.4594C50.2777 88.3909 52.4063 84.3402 56.1585 82.6088C56.3004 82.5433 56.3689 82.3803 56.3164 82.2331C56.1401 81.7399 56.0067 81.2335 55.9192 80.7274C55.347 77.4264 56.6381 74.225 59.0295 72.1978V66.3623H21.8125V98.4738H46.8974C48.068 96.9981 49.669 95.8582 51.5682 95.2597Z" fill="#046699"/>
<path opacity="0.1" d="M31.1591 121.372V59.2376C31.1591 54.4662 35.0537 50.5625 39.8142 50.5625H30.4677C25.7075 50.5625 21.8125 54.4662 21.8125 59.2376V128.734C23.5469 127.272 25.5463 126.049 27.7645 125.134C27.8445 125.101 27.9066 125.036 27.9347 124.954C27.9631 124.872 27.9546 124.782 27.9124 124.707C27.7829 124.478 27.7174 124.253 27.7174 124.039C27.7177 123.062 28.994 122.045 31.1591 121.372Z" fill="black"/>
<path d="M87.4538 75.2366C87.541 75.74 87.586 76.2621 87.5869 76.7888C87.5872 76.9451 87.7064 77.0752 87.8621 77.089C91.7254 77.4286 94.9555 80.1806 95.9007 83.9377C95.9267 84.0412 96.0057 84.1233 96.108 84.1535C96.1364 84.1619 96.1648 84.1658 96.1935 84.1658C96.2689 84.1658 96.3425 84.1375 96.3993 84.0846C97.9734 82.6164 99.9324 81.734 102.065 81.533C102.216 81.5188 102.333 81.3941 102.338 81.2423C102.475 77.0103 104.196 73.0305 107.184 70.0364C107.246 69.9739 107.311 69.9157 107.375 69.8541C106.714 65.6405 104.772 61.5913 101.539 58.3512C100.903 57.7145 99.8726 57.7141 99.2358 58.3512L85.9883 71.6293C86.7114 72.6838 87.2226 73.9042 87.4538 75.2366Z" fill="#EF5050"/>
<path d="M95.9 83.9375C95.926 84.041 96.0051 84.1231 96.1074 84.1533C96.1357 84.1617 96.1641 84.1656 96.1928 84.1656C96.2682 84.1656 96.3419 84.1373 96.3986 84.0844C97.1676 83.3671 98.0295 82.7922 98.9578 82.3657C98.854 82.0196 98.666 81.693 98.3929 81.419L96.1955 79.2162C95.3131 78.3313 93.8798 78.3292 92.9947 79.2123C92.988 79.2186 92.9829 79.2256 92.9766 79.2322C94.3841 80.4324 95.4277 82.0594 95.9 83.9375Z" fill="#C0272D"/>
<path d="M100.605 77.2383H97.4978C96.2475 77.2383 95.2344 76.2249 95.2344 74.9749C95.2344 73.7249 96.2475 72.7114 97.4978 72.7114H100.605C101.855 72.7114 102.869 73.7249 102.869 74.9749C102.869 76.2252 101.855 77.2383 100.605 77.2383Z" fill="#C0272D"/>
<path d="M97.0603 70.9846C96.4818 70.9846 95.9032 70.7643 95.4614 70.3234C94.5765 69.4403 94.5753 68.0071 95.4581 67.1222L97.6563 64.9197C98.5394 64.0352 99.9726 64.0337 100.857 64.9167C101.742 65.7998 101.743 67.233 100.86 68.1179L98.6622 70.3203C98.2204 70.7628 97.6403 70.9846 97.0603 70.9846Z" fill="#C0272D"/>
<path d="M125.441 66.3686C125.415 66.2994 125.374 66.2379 125.322 66.1863C125.271 66.1347 125.209 66.0936 125.14 66.0665C118.872 63.5697 111.74 65.0446 106.972 69.8235C103.804 72.9984 102.094 77.2187 102.031 81.5364C102.345 81.5057 102.662 81.4891 102.983 81.4891C107.678 81.4891 111.599 84.8601 112.469 89.3134C115.892 88.7557 119.133 87.1441 121.693 84.5782C126.461 79.7987 127.933 72.6513 125.441 66.3686Z" fill="#89C947"/>
<path d="M117.308 74.2179C116.423 73.3349 114.99 73.3364 114.107 74.2215L106.277 82.0691C107.755 82.6078 109.066 83.4981 110.108 84.6386L117.312 77.4187C118.195 76.5339 118.193 75.1007 117.308 74.2179Z" fill="#D5E962"/>
<path d="M128.689 92.2912C128.767 92.7475 128.808 93.2174 128.808 93.6882C128.809 93.8446 128.928 93.9746 129.083 93.9885C130.308 94.0963 131.476 94.4759 132.555 95.1169C132.603 95.1456 132.656 95.1595 132.709 95.1595C132.793 95.1595 132.877 95.1239 132.936 95.056C133.194 94.7611 133.414 94.5224 133.632 94.3048C135.453 92.4789 137.656 91.1758 140.058 90.4654C140.284 89.6312 140.406 88.7548 140.406 87.8491C140.406 82.3314 135.943 77.8579 130.437 77.8579C125.742 77.8579 121.807 81.1128 120.75 85.4933C124.687 85.5615 128.014 88.3963 128.689 92.2912Z" fill="#FFC502"/>
<path d="M60.3714 105.672C59.3607 103.881 58.7209 101.916 58.4764 99.8947C55.5351 99.4137 53.0381 97.5299 51.7588 94.8853C47.5687 96.0677 44.4961 99.9234 44.4961 104.501C44.4961 104.898 44.5263 105.287 44.5712 105.671H60.3714V105.672Z" fill="#FFC502"/>
<path d="M136.45 100.759C136.742 102.441 136.51 104.135 135.782 105.67H148.591C151.616 101.422 152.347 95.8784 150.38 90.9169C150.355 90.8538 150.318 90.7971 150.271 90.7497C150.223 90.7023 150.166 90.6646 150.104 90.6396C144.346 88.3465 137.797 89.701 133.418 94.09C133.098 94.4108 132.799 94.7458 132.512 95.0886C134.545 96.2825 136.029 98.3242 136.45 100.759Z" fill="#89C947"/>
<path d="M135.785 105.671H138.584L143.049 101.197C143.932 100.312 143.93 98.8785 143.045 97.9957C142.16 97.1127 140.727 97.1142 139.844 97.9994L136.529 101.322C136.685 102.816 136.433 104.306 135.785 105.671Z" fill="#D5E962"/>
<path d="M96.2461 84.113C95.338 80.0478 91.897 77.1409 87.8876 76.7888C87.8867 76.2597 87.8439 75.724 87.7503 75.1853C86.8612 70.056 81.9761 66.6219 76.8396 67.5161C74.1732 67.9803 71.9662 69.5209 70.5803 71.6103C68.5737 70.1112 65.9768 69.4072 63.3104 69.871C58.173 70.7655 54.7298 75.6492 55.6195 80.7785C55.7124 81.3172 55.8519 81.8363 56.0296 82.3342C52.2391 84.0831 49.9373 88.209 50.6827 92.5104C51.3871 96.5765 54.6039 99.5742 58.4663 100.198C58.0921 97.6047 58.3924 94.9284 59.3946 92.4003C59.4043 92.3755 59.4188 92.3538 59.4378 92.3345C59.4562 92.3161 59.4785 92.3016 59.503 92.2916C61.3011 91.5755 63.1909 91.2121 65.1194 91.2121C69.1758 91.2121 72.9914 92.7968 75.8629 95.6747C76.0706 95.8833 76.2698 96.0985 76.4638 96.317C76.3033 95.2764 76.22 94.2171 76.22 93.1436C76.22 92.4102 76.8148 91.8136 77.5461 91.8136H93.3492C93.3356 91.6035 93.3257 91.3923 93.3257 91.1786C93.3257 88.4196 94.4417 85.9214 96.2461 84.113Z" fill="#368C0E"/>
<path d="M63.1941 84.9966C63.1808 84.9966 63.1678 84.9963 63.1548 84.9963C61.9048 84.9751 60.9089 83.9448 60.93 82.6948C60.9964 78.776 64.2105 75.6304 68.1188 75.6304C68.1571 75.6304 68.1951 75.6307 68.2337 75.6313C70.2027 75.6618 72.094 76.5131 73.4222 77.9675C74.2651 78.8907 74.2002 80.3224 73.2773 81.1653C72.3544 82.0085 70.9227 81.9436 70.0795 81.0207C69.5822 80.4757 68.9013 80.1694 68.1628 80.1579C66.6916 80.134 65.4808 81.3074 65.456 82.7717C65.4355 84.0082 64.426 84.9963 63.1941 84.9966Z" fill="#89C947"/>
<path d="M75.6895 88.8913C75.4281 88.8913 75.1623 88.8457 74.903 88.7494C73.7309 88.3145 73.133 87.0123 73.5676 85.8401C74.8303 82.4362 78.629 80.6894 82.0368 81.9464C83.7317 82.5723 85.1091 83.8848 85.8156 85.5477C86.3045 86.6981 85.7685 88.0272 84.6178 88.5161C83.4679 89.0053 82.1385 88.4691 81.6493 87.3183C81.4251 86.7911 81.0059 86.3915 80.4693 86.1932C79.3989 85.7985 78.208 86.3465 77.812 87.4143C77.4737 88.3269 76.6088 88.8913 75.6895 88.8913Z" fill="#89C947"/>
<path d="M112.627 91.7889H112.544C112.543 91.81 112.543 91.8314 112.542 91.8526H115.574C116.474 91.8526 117.203 92.5832 117.203 93.4844C117.203 98.0324 115.735 102.238 113.262 105.671H136.107C136.79 104.168 137.05 102.455 136.748 100.708C136.075 96.8228 132.864 94.0164 129.11 93.6866C129.109 93.2088 129.07 92.7248 128.986 92.2386C128.183 87.6054 123.77 84.5039 119.131 85.3115C116.723 85.7313 114.729 87.1222 113.478 89.01C113.072 88.707 112.638 88.4432 112.184 88.2163C112.484 89.1506 112.647 90.1456 112.647 91.1787C112.647 91.3778 112.641 91.5794 112.627 91.7889Z" fill="#368C0E"/>
<path d="M112.925 91.8145C112.939 91.6044 112.949 91.3932 112.949 91.1795C112.949 85.6612 108.486 81.188 102.98 81.188C97.4749 81.188 93.0117 85.6615 93.0117 91.1795C93.0117 91.3932 93.0217 91.6044 93.0353 91.8145H112.925Z" fill="#F7931E"/>
<path d="M76.0777 95.4614C71.6984 91.0727 65.1491 89.7182 59.3921 92.0109C59.329 92.0363 59.2726 92.074 59.2249 92.1211C59.1778 92.1685 59.1401 92.2249 59.115 92.2886C57.3538 96.7316 57.757 101.642 60.0313 105.67H80.5774C78.4963 102.898 77.0854 99.5941 76.5901 96.0004C76.4242 95.8175 76.2536 95.6376 76.0777 95.4614Z" fill="#89C947"/>
<path d="M69.5463 105.671H75.941L69.6549 99.3708C68.7719 98.4863 67.3393 98.4839 66.4541 99.3672C65.5689 100.25 65.5671 101.683 66.4502 102.568L69.5463 105.671Z" fill="#D5E962"/>
<path d="M113.419 105.671C116.041 102.178 117.605 97.8426 117.605 93.144C117.605 92.2429 116.876 91.5122 115.976 91.5122H77.5498C76.6501 91.5122 75.9219 92.2429 75.9219 93.144C75.9219 97.8426 77.4855 102.178 80.1081 105.671H113.419Z" fill="#EF5050"/>
<path d="M99.105 105.672V104.106C99.105 102.856 98.0919 101.843 96.8416 101.843C95.5912 101.843 94.5781 102.856 94.5781 104.106V105.672H99.105Z" fill="#C0272D"/>
<path d="M103.451 105.671H106.971C107.699 104.783 107.649 103.47 106.821 102.639L104.624 100.437C103.741 99.552 102.308 99.5499 101.423 100.433C100.538 101.316 100.536 102.749 101.419 103.634L103.451 105.671Z" fill="#C0272D"/>
<path d="M89.8793 105.671L91.911 103.634C92.794 102.749 92.7925 101.316 91.9076 100.433C91.0228 99.5502 89.5896 99.5517 88.7065 100.437L86.5088 102.639C85.6804 103.469 85.6306 104.782 86.3586 105.67L89.8793 105.671Z" fill="#C0272D"/>
<path d="M86.3987 99.567H83.2908C82.0405 99.567 81.0273 98.5535 81.0273 97.3035C81.0273 96.0535 82.0405 95.04 83.2908 95.04H86.3987C87.649 95.04 88.6621 96.0535 88.6621 97.3035C88.6621 98.5535 87.6487 99.567 86.3987 99.567Z" fill="#C0272D"/>
<path d="M110.231 99.5665H107.123C105.873 99.5665 104.859 98.553 104.859 97.303C104.859 96.053 105.873 95.0396 107.123 95.0396H110.231C111.481 95.0396 112.494 96.053 112.494 97.303C112.494 98.553 111.481 99.5665 110.231 99.5665Z" fill="#C0272D"/>
<path d="M42.3172 121.278C42.3443 121.286 42.3718 121.29 42.399 121.29C42.4641 121.29 42.5281 121.268 42.5812 121.228C42.6567 121.171 42.7008 121.082 42.7008 120.988V117.157C42.7008 116.075 43.5808 115.195 44.6624 115.195C45.744 115.195 46.6241 116.075 46.6241 117.157V120.988C46.6241 121.082 46.6681 121.171 46.7436 121.228C46.7967 121.268 46.8607 121.29 46.9259 121.29C46.9533 121.29 46.9808 121.286 47.0077 121.278C48.5954 120.831 50.4686 120.594 52.424 120.594C57.9181 120.594 61.6091 122.375 61.6091 124.039C61.6091 124.253 61.5436 124.478 61.4141 124.707C61.3713 124.782 61.3631 124.872 61.3915 124.954C61.4198 125.036 61.4817 125.102 61.5617 125.135C68.5962 128.034 73.581 134.185 74.5711 141.187C74.5841 141.277 74.6375 141.357 74.7163 141.404C74.7634 141.432 74.8165 141.446 74.8699 141.446C74.9061 141.446 74.9424 141.439 74.9771 141.426L122.623 123.326C123.545 122.976 124.512 122.798 125.499 122.798C126.881 122.798 128.247 123.155 129.452 123.829C131.546 125.001 132.998 127.023 133.434 129.375L133.849 131.616C133.867 131.713 133.93 131.795 134.02 131.836C134.06 131.854 134.103 131.863 134.145 131.863C134.199 131.863 134.252 131.849 134.299 131.821L150.318 122.364C151.695 117.459 152.392 112.374 152.392 107.15C152.392 106.286 151.693 105.586 150.832 105.586H41.8382C40.9763 105.586 40.2773 106.286 40.2773 107.15C40.2773 111.964 40.8725 116.66 42.0419 121.207C42.1334 121.231 42.2275 121.253 42.3172 121.278Z" fill="#E6E9ED"/>
<path opacity="0.1" d="M42.3172 121.278C42.3443 121.286 42.3718 121.29 42.399 121.29C42.4641 121.29 42.5281 121.268 42.5812 121.228C42.6567 121.171 42.7008 121.082 42.7008 120.988V117.157C42.7008 116.075 43.5808 115.195 44.6624 115.195C45.744 115.195 46.6241 116.075 46.6241 117.157V120.988C46.6241 121.082 46.6681 121.171 46.7436 121.228C46.7967 121.268 46.8607 121.29 46.9259 121.29C46.9533 121.29 46.9808 121.286 47.0077 121.278C48.3666 120.895 49.9357 120.668 51.5856 120.61C50.516 116.25 49.9743 111.753 49.9743 107.15C49.9743 106.286 50.673 105.586 51.5352 105.586H41.8382C40.9763 105.586 40.2773 106.286 40.2773 107.15C40.2773 111.964 40.8725 116.66 42.0419 121.207C42.1334 121.231 42.2275 121.253 42.3172 121.278Z" fill="black"/>
<path d="M44.6652 122.355C45.2851 122.007 46.0528 121.704 46.9293 121.457V117.157C46.9293 115.907 45.9161 114.894 44.6658 114.894C43.4155 114.894 42.4023 115.907 42.4023 117.157V121.457C43.2788 121.704 44.0456 122.007 44.6652 122.355Z" fill="#89C947"/>
<path d="M67.7868 164.357L59.6118 164.36H59.6088C55.7171 164.36 52.3802 161.594 51.6746 157.783L51.594 157.35C50.8881 153.538 53.0158 149.769 56.6533 148.387L74.9158 141.449C73.9754 133.927 68.6747 127.627 61.396 124.737C60.6898 125.924 58.2579 126.957 55.0915 127.329C54.9708 127.343 54.87 127.428 54.8365 127.546C54.803 127.663 54.8428 127.788 54.9379 127.864C56.579 129.177 57.61 130.561 57.696 131.567C57.7274 131.932 57.6377 132.227 57.4217 132.471C57.0369 132.906 56.28 133.135 55.2333 133.135C55.2333 133.135 55.2333 133.135 55.233 133.135C53.1953 133.135 50.4399 132.283 47.862 130.857C46.7267 130.227 45.7166 129.54 44.8586 128.813C44.8021 128.765 44.7327 128.742 44.6636 128.742C44.5942 128.742 44.5248 128.765 44.4686 128.813C43.61 129.541 42.5999 130.228 41.4658 130.856C38.8879 132.283 36.1322 133.135 34.0945 133.135C33.0475 133.135 32.2909 132.906 31.9061 132.471C31.6901 132.227 31.6001 131.932 31.6315 131.567C31.7178 130.561 32.7488 129.177 34.3893 127.864C34.4841 127.788 34.5242 127.663 34.4907 127.546C34.4575 127.428 34.3567 127.343 34.2357 127.329C31.0684 126.957 28.6362 125.923 27.9312 124.736C19.8884 127.929 14.2578 135.284 14.2578 143.85C14.2578 155.344 24.3924 164.662 36.8936 164.662H68.279C68.6179 164.662 68.3557 164.541 67.7868 164.357Z" fill="#EF5050"/>
<path opacity="0.1" d="M24.051 143.852C24.051 137.024 27.6267 130.965 33.1495 127.17C30.5197 126.711 28.5529 125.785 27.9309 124.738C19.8884 127.93 14.2578 135.285 14.2578 143.852C14.2578 155.346 24.3924 164.663 36.8936 164.663H46.6871C34.1859 164.663 24.051 155.346 24.051 143.852Z" fill="black"/>
<path d="M61.9122 124.038C61.9122 121.969 57.6647 120.292 52.4253 120.292C49.216 120.292 46.3797 120.922 44.6628 121.885C42.9471 120.922 40.1112 120.292 36.9013 120.292C31.6621 120.292 27.4141 121.969 27.4141 124.038C27.4141 125.736 30.2769 127.169 34.1993 127.63C31.7997 129.55 30.7009 131.568 31.6787 132.672C32.9743 134.135 37.4216 133.44 41.6105 131.121C42.7866 130.47 43.8172 129.76 44.6622 129.044C45.5081 129.761 46.5394 130.47 47.7146 131.121C51.9038 133.44 56.3507 134.134 57.646 132.672C58.6241 131.568 57.5256 129.55 55.1251 127.63C59.0503 127.169 61.9122 125.736 61.9122 124.038Z" fill="#368C0E"/>
<path d="M168.743 137.441L168.135 134.162C167.926 133.03 166.835 132.283 165.698 132.491L142.24 136.8L157.218 126.787C157.928 126.313 158.257 125.475 158.111 124.679C158.069 124.458 157.991 124.242 157.876 124.035L156.18 121.033C155.905 120.544 155.442 120.186 154.898 120.042C154.354 119.897 153.774 119.976 153.29 120.262L133.805 131.764L137.491 151.665L159.84 155.681C160.397 155.781 160.971 155.652 161.431 155.324C161.89 154.995 162.198 154.494 162.281 153.936L162.786 150.547C162.821 150.314 162.816 150.083 162.775 149.863C162.628 149.066 162.019 148.401 161.186 148.21L143.606 144.178L167.065 139.868C168.202 139.66 168.953 138.573 168.743 137.441Z" fill="#89C947"/>
<path d="M51.3763 157.839C52.1088 161.794 55.5722 164.664 59.6102 164.662L130.22 164.635C132.705 164.634 135.062 163.533 136.651 161.631C138.241 159.729 138.899 157.221 138.448 154.787L133.731 129.319C133.28 126.885 131.767 124.777 129.6 123.564C127.433 122.352 124.838 122.161 122.516 123.043L56.5446 148.105C52.7715 149.539 50.5636 153.45 51.2958 157.405L51.3763 157.839Z" fill="#F7931E"/>
<g opacity="0.1">
<path opacity="0.1" d="M51.3763 157.839C51.4886 158.446 51.6724 159.023 51.9057 159.573C52.879 157.844 54.4423 156.445 56.4157 155.695L125.312 129.522C127.737 128.601 130.447 128.8 132.71 130.066C133.185 130.333 133.628 130.642 134.039 130.985L133.731 129.319C133.28 126.885 131.767 124.777 129.6 123.564C127.433 122.352 124.838 122.161 122.516 123.043L56.5446 148.105C52.7715 149.539 50.5636 153.45 51.2958 157.405L51.3763 157.839Z" fill="black"/>
</g>
<path d="M126.17 154.048C125.936 152.82 124.747 152.015 123.522 152.25C122.294 152.485 121.49 153.67 121.724 154.898L123.588 164.638L128.196 164.636L126.17 154.048Z" fill="#FFC502"/>
<path d="M113.902 156.732C113.67 155.503 112.487 154.696 111.258 154.927C110.03 155.158 109.222 156.342 109.454 157.57L110.787 164.643L115.393 164.641L113.902 156.732Z" fill="#FFC502"/>
<path d="M101.908 139.684C102.166 140.711 103.088 141.395 104.101 141.395C104.284 141.395 104.47 141.373 104.656 141.326C105.868 141.021 106.603 139.791 106.298 138.578L104.144 130.022L99.8828 131.641L101.908 139.684Z" fill="#FFC502"/>
<path d="M90.132 154.759C89.9102 153.529 88.7341 152.711 87.5028 152.933C86.2727 153.155 85.4551 154.332 85.6769 155.563L87.316 164.652L91.9156 164.65L90.132 154.759Z" fill="#FFC502"/>
<path d="M67.2961 150.528C67.5197 151.595 68.4604 152.327 69.5088 152.327C69.663 152.327 69.8194 152.312 69.9763 152.278C71.1998 152.022 71.9829 150.822 71.7264 149.598L70.3149 142.874L66.0312 144.501L67.2961 150.528Z" fill="#FFC502"/>
</g>
</svg>
