<svg width="113" height="92" viewBox="0 0 113 92" fill="none" xmlns="http://www.w3.org/2000/svg">
<circle cx="56.3042" cy="45.917" r="45.2144" fill="#6AD394"/>
<path d="M77.4023 58.5737C77.4965 58.9639 77.6004 59.3473 77.7153 59.7225H77.8049C77.6596 59.3494 77.5261 58.9652 77.4023 58.5737Z" fill="#FFC743"/>
<mask id="mask0" mask-type="alpha" maskUnits="userSpaceOnUse" x="0" y="0" width="113" height="65">
<rect x="0.0917969" y="0.702637" width="112.018" height="63.9519" fill="#C4C4C4"/>
</mask>
<g mask="url(#mask0)">
<circle cx="56.3042" cy="45.917" r="45.2144" fill="#67E5EE"/>
</g>
<path d="M77.3984 61.0902L79.3984 73.7477H80.5983L82.5792 60.451C82.7043 59.6112 82.6596 58.7375 82.4503 57.9331C82.241 57.1287 81.8759 56.4274 81.3983 55.9121L77.3984 61.0902Z" fill="#A6B2BC"/>
<path d="M87.7969 61.0902L89.7968 73.7477H90.9968L92.9776 60.451C93.1027 59.6112 93.058 58.7375 92.8487 57.9331C92.6394 57.1287 92.2744 56.4274 91.7967 55.9121L87.7969 61.0902Z" fill="#A6B2BC"/>
<path d="M95.7968 55.3364C95.7966 58.7786 95.5404 62.2109 95.0323 65.5746L93.7968 73.7473H92.5969L91.2199 64.5059C90.3539 65.281 89.3545 65.692 88.3345 65.6926H84.5972L83.3972 73.7473H82.1973L80.9248 65.6926H78.5974L76.525 69.9515C76.318 70.3767 76.0172 70.6888 75.6714 70.8371C75.3256 70.9854 74.9551 70.9612 74.6201 70.7685L73.7976 70.2953V63.3912L73.8356 63.1719L72.5977 62.8159L73.3976 61.0898H74.1976C74.2516 60.6993 74.3163 60.3158 74.3916 59.9392C74.4701 59.5479 74.5592 59.1644 74.6591 58.7885C75.3776 56.0797 76.6513 53.7489 78.3116 52.1049C79.9718 50.461 81.9401 49.5815 83.9557 49.583H91.7969C91.9319 49.583 92.0652 49.5924 92.1969 49.6111C93.1835 49.754 94.0981 50.4188 94.7632 51.4767C95.4284 52.5346 95.7967 53.9101 95.7968 55.3364Z" fill="#D3E1E9"/>
<path d="M74.998 63.9663H75.798V65.117H74.998V63.9663Z" fill="#395166"/>
<path d="M78.5977 63.3911H79.3976V65.6925H78.5977V63.3911Z" fill="#A6B2BC"/>
<path d="M73.8349 63.1719L74.5969 63.3912L74.4399 64.5196L73.7969 64.3348V63.3912L73.8349 63.1719Z" fill="#A6B2BC"/>
<path d="M74.9972 59.9395V61.0901H74.1973C74.2513 60.6996 74.3159 60.3161 74.3913 59.9395H74.9972Z" fill="#A6B2BC"/>
<path d="M91.219 64.5058C90.984 64.7164 90.7381 64.9008 90.4835 65.0574L89.4141 57.8786L90.196 57.6377L91.219 64.5058Z" fill="#A6B2BC"/>
<path d="M86.1602 60.6914L85.4152 65.6926H84.5972L85.3782 60.4505C85.5021 59.6107 85.4569 58.7375 85.2477 57.9335C85.0385 57.1295 84.6741 56.4281 84.1973 55.9118L84.6772 54.9912C85.276 55.6397 85.7337 56.5206 85.9964 57.5304C86.2591 58.5401 86.3159 59.6368 86.1602 60.6914Z" fill="#A6B2BC"/>
<path d="M80.9235 65.6925H80.103L79.416 61.3451L80.196 61.0898L80.9235 65.6925Z" fill="#A6B2BC"/>
<path d="M92.1973 49.6111V50.1583C92.1973 50.7687 92.0287 51.354 91.7286 51.7856C91.4286 52.2171 91.0217 52.4596 90.5974 52.4597H90.1974C89.8792 52.4598 89.574 52.6417 89.349 52.9654C89.124 53.289 88.9975 53.728 88.9974 54.1857V57.0624C88.9974 57.5202 88.871 57.9592 88.646 58.2829C88.4209 58.6066 88.1157 58.7885 87.7975 58.7885C87.4792 58.7885 87.174 58.6066 86.949 58.2829C86.7239 57.9592 86.5975 57.5202 86.5975 57.0624V55.9118C86.5974 55.454 86.471 55.0151 86.246 54.6914C86.0209 54.3677 85.7158 54.1859 85.3976 54.1857H84.1976C83.7733 54.1857 83.3664 53.9432 83.0663 53.5116C82.7663 53.08 82.5977 52.4947 82.5977 51.8844V49.7161C83.0478 49.6274 83.5017 49.5829 83.9561 49.583H91.7973C91.9323 49.583 92.0657 49.5924 92.1973 49.6111Z" fill="#395166"/>
<path d="M80.5984 54.1858V55.3365C80.5984 55.4876 80.5778 55.6373 80.5376 55.7769C80.4974 55.9165 80.4385 56.0434 80.3642 56.1503C80.2899 56.2571 80.2017 56.3419 80.1046 56.3997C80.0075 56.4575 79.9035 56.4872 79.7984 56.4872H78.9985C78.8934 56.487 78.7893 56.5166 78.6922 56.5744C78.5951 56.6321 78.5068 56.7169 78.4325 56.8238C78.3582 56.9306 78.2993 57.0576 78.2591 57.1973C78.219 57.337 78.1984 57.4867 78.1985 57.6379C78.1985 57.789 78.1779 57.9386 78.1377 58.0783C78.0975 58.2179 78.0386 58.3447 77.9643 58.4516C77.89 58.5585 77.8018 58.6432 77.7047 58.701C77.6076 58.7588 77.5036 58.7886 77.3985 58.7885H74.6602C75.2506 56.5634 76.2182 54.5857 77.475 53.0352H79.7984C79.9035 53.0351 80.0075 53.0648 80.1046 53.1227C80.2017 53.1805 80.2899 53.2652 80.3642 53.3721C80.4385 53.4789 80.4974 53.6058 80.5376 53.7454C80.5778 53.8851 80.5984 54.0347 80.5984 54.1858Z" fill="#395166"/>
<path d="M93.3313 57.3967L92.7656 56.5831L93.5152 55.505C93.8584 55.0112 94.1308 54.425 94.3165 53.7798C94.5023 53.1347 94.5979 52.4432 94.5979 51.7449V51.2275H95.0382C95.1336 51.2275 95.2251 51.282 95.2926 51.3791C95.36 51.4761 95.3979 51.6077 95.3979 51.7449C95.3979 53.4603 94.9241 55.1055 94.0808 56.3185L93.3313 57.3967Z" fill="#A6B2BC"/>
<path d="M93.7968 55.9121H92.9968C92.6786 55.9121 92.3734 56.094 92.1483 56.4176C91.9233 56.7413 91.7969 57.1804 91.7969 57.6381V58.7888H92.5968C92.9151 58.7888 93.2203 58.607 93.4453 58.2833C93.6703 57.9596 93.7968 57.5206 93.7968 57.0628V55.9121Z" fill="#395166"/>
<path d="M63.5488 68.0145L65.5488 80.672H66.7487L68.7296 67.3753C68.8547 66.5355 68.8099 65.6618 68.6007 64.8574C68.3914 64.053 68.0263 63.3517 67.5487 62.8364L63.5488 68.0145Z" fill="#A6B2BC"/>
<path d="M73.9473 68.0145L75.9472 80.672H77.1471L79.128 67.3753C79.2531 66.5355 79.2084 65.6618 78.9991 64.8574C78.7898 64.053 78.4248 63.3517 77.9471 62.8364L73.9473 68.0145Z" fill="#A6B2BC"/>
<path d="M81.9471 62.2617C81.947 65.7039 81.6908 69.1362 81.1827 72.4999L79.9472 80.6726H78.7473L77.3703 71.4312C76.5043 72.2062 75.5049 72.6173 74.4849 72.6179H70.7476L69.5476 80.6726H68.3477L67.0752 72.6179H64.7478L62.6754 76.8768C62.4684 77.302 62.1676 77.6141 61.8218 77.7624C61.476 77.9107 61.1055 77.8865 60.7705 77.6938L59.948 77.2206V70.3165L59.986 70.0971L58.748 69.7411L59.548 68.0151H60.348C60.402 67.6246 60.4666 67.2411 60.542 66.8644C60.6205 66.4732 60.7096 66.0897 60.8095 65.7138C61.528 63.005 62.8017 60.6742 64.4619 59.0302C66.1222 57.3863 68.0905 56.5068 70.1061 56.5083H77.9473C78.0823 56.5083 78.2156 56.5177 78.3473 56.5364C79.3339 56.6792 80.2485 57.3441 80.9136 58.402C81.5788 59.4599 81.9471 60.8354 81.9471 62.2617Z" fill="#D3E1E9"/>
<path d="M61.1484 70.8911H61.9484V72.0418H61.1484V70.8911Z" fill="#395166"/>
<path d="M64.748 70.3159H65.548V72.6173H64.748V70.3159Z" fill="#A6B2BC"/>
<path d="M59.9853 70.0967L60.7473 70.316L60.5903 71.4444L59.9473 71.2596V70.316L59.9853 70.0967Z" fill="#A6B2BC"/>
<path d="M61.1476 66.8643V68.0149H60.3477C60.4017 67.6244 60.4663 67.2409 60.5416 66.8643H61.1476Z" fill="#A6B2BC"/>
<path d="M77.3694 71.4306C77.1343 71.6412 76.8885 71.8256 76.6339 71.9822L75.5645 64.8034L76.3464 64.5625L77.3694 71.4306Z" fill="#A6B2BC"/>
<path d="M72.3106 67.6162L71.5656 72.6173H70.7476L71.5286 67.3753C71.6525 66.5355 71.6072 65.6623 71.398 64.8583C71.1888 64.0543 70.8244 63.3529 70.3477 62.8366L70.8276 61.916C71.4264 62.5645 71.8841 63.4454 72.1468 64.4552C72.4095 65.4649 72.4663 66.5616 72.3106 67.6162Z" fill="#A6B2BC"/>
<path d="M67.0739 72.6174H66.2534L65.5664 68.27L66.3464 68.0146L67.0739 72.6174Z" fill="#A6B2BC"/>
<path d="M78.3477 56.5359V57.0832C78.3477 57.6935 78.1791 58.2788 77.879 58.7104C77.579 59.1419 77.1721 59.3844 76.7478 59.3845H76.3478C76.0296 59.3846 75.7244 59.5665 75.4994 59.8902C75.2744 60.2138 75.1479 60.6528 75.1478 61.1105V63.9872C75.1478 64.445 75.0214 64.884 74.7964 65.2077C74.5713 65.5314 74.2661 65.7132 73.9479 65.7132C73.6296 65.7132 73.3244 65.5314 73.0994 65.2077C72.8743 64.884 72.7479 64.445 72.7479 63.9872V62.8365C72.7478 62.3788 72.6214 61.9398 72.3964 61.6162C72.1713 61.2925 71.8662 61.1106 71.5479 61.1105H70.348C69.9237 61.1104 69.5168 60.8679 69.2167 60.4364C68.9167 60.0048 68.7481 59.4195 68.748 58.8092V56.6409C69.1982 56.5522 69.6521 56.5077 70.1065 56.5078H77.9477C78.0827 56.5078 78.216 56.5172 78.3477 56.5359Z" fill="#395166"/>
<path d="M66.7488 61.1106V62.2613C66.7488 62.4124 66.7282 62.5621 66.688 62.7017C66.6478 62.8413 66.5889 62.9682 66.5146 63.0751C66.4403 63.1819 66.3521 63.2667 66.255 63.3245C66.1579 63.3823 66.0539 63.412 65.9488 63.412H65.1489C65.0438 63.4118 64.9397 63.4414 64.8426 63.4992C64.7454 63.5569 64.6572 63.6417 64.5829 63.7486C64.5086 63.8555 64.4497 63.9824 64.4095 64.1221C64.3694 64.2618 64.3488 64.4115 64.3489 64.5627C64.3489 64.7138 64.3283 64.8634 64.2881 65.0031C64.2479 65.1427 64.1889 65.2696 64.1147 65.3764C64.0404 65.4833 63.9522 65.568 63.8551 65.6258C63.758 65.6836 63.654 65.7134 63.5489 65.7133H60.8105C61.4009 63.4882 62.3685 61.5105 63.6254 59.96H65.9488C66.0539 59.9599 66.1579 59.9897 66.255 60.0475C66.3521 60.1053 66.4403 60.19 66.5146 60.2969C66.5889 60.4038 66.6478 60.5306 66.688 60.6702C66.7282 60.8099 66.7488 60.9595 66.7488 61.1106Z" fill="#395166"/>
<path d="M79.4817 64.3216L78.916 63.5079L79.6656 62.4298C80.0088 61.936 80.2811 61.3498 80.4669 60.7046C80.6527 60.0595 80.7483 59.368 80.7483 58.6697V58.1523H81.1886C81.284 58.1523 81.3755 58.2068 81.4429 58.3039C81.5104 58.4009 81.5483 58.5325 81.5483 58.6697C81.5483 60.3852 81.0745 62.0304 80.2312 63.2434L79.4817 64.3216Z" fill="#A6B2BC"/>
<path d="M79.9472 62.8364H79.1472C78.829 62.8364 78.5237 63.0183 78.2987 63.342C78.0737 63.6657 77.9473 64.1047 77.9473 64.5625V65.7132H78.7472C79.0655 65.7132 79.3707 65.5313 79.5957 65.2076C79.8207 64.8839 79.9472 64.4449 79.9472 63.9871V62.8364Z" fill="#395166"/>
</svg>
