<svg width="242" height="94" viewBox="0 0 242 94" fill="none" xmlns="http://www.w3.org/2000/svg">
<path d="M43.548 8.21H45.438L49.362 15.176L50.604 17.66H50.676C50.652 17.276 50.628 17.006 50.604 16.85C50.592 16.718 50.562 16.316 50.514 15.644C50.466 14.972 50.442 14.342 50.442 13.754V8.21H52.188V20H50.298L46.374 13.016L45.132 10.55H45.06L45.132 11.45C45.144 11.594 45.174 11.984 45.222 12.62C45.27 13.256 45.294 13.85 45.294 14.402V20H43.548V8.21ZM58.6562 20.216C57.9242 20.216 57.2402 20.03 56.6042 19.658C55.9682 19.286 55.4582 18.752 55.0742 18.056C54.7022 17.36 54.5162 16.544 54.5162 15.608C54.5162 14.66 54.7022 13.838 55.0742 13.142C55.4582 12.446 55.9622 11.912 56.5862 11.54C57.2222 11.168 57.9122 10.982 58.6562 10.982C59.4002 10.982 60.0842 11.168 60.7082 11.54C61.3442 11.912 61.8482 12.446 62.2202 13.142C62.6042 13.838 62.7962 14.66 62.7962 15.608C62.7962 16.544 62.6042 17.36 62.2202 18.056C61.8482 18.752 61.3442 19.286 60.7082 19.658C60.0722 20.03 59.3882 20.216 58.6562 20.216ZM58.6562 18.722C59.3522 18.722 59.9042 18.44 60.3122 17.876C60.7202 17.3 60.9242 16.544 60.9242 15.608C60.9242 14.672 60.7142 13.916 60.2942 13.34C59.8862 12.764 59.3402 12.476 58.6562 12.476C57.9722 12.476 57.4202 12.764 57.0002 13.34C56.5922 13.916 56.3882 14.672 56.3882 15.608C56.3882 16.544 56.5922 17.3 57.0002 17.876C57.4082 18.44 57.9602 18.722 58.6562 18.722ZM70.9519 20.216C70.3639 20.216 69.7759 20.102 69.1879 19.874C68.5999 19.646 68.0839 19.352 67.6399 18.992L68.5039 17.822C68.9239 18.146 69.3319 18.398 69.7279 18.578C70.1239 18.746 70.5499 18.83 71.0059 18.83C71.5099 18.83 71.8939 18.722 72.1579 18.506C72.4219 18.278 72.5539 17.99 72.5539 17.642C72.5539 17.282 72.3919 17 72.0679 16.796C71.7439 16.58 71.2579 16.352 70.6099 16.112C69.8299 15.824 69.2119 15.494 68.7559 15.122C68.2999 14.738 68.0719 14.216 68.0719 13.556C68.0719 12.8 68.3539 12.182 68.9179 11.702C69.4819 11.222 70.2439 10.982 71.2039 10.982C72.2359 10.982 73.1839 11.324 74.0479 12.008L73.2019 13.142C72.8659 12.89 72.5419 12.698 72.2299 12.566C71.9179 12.434 71.5879 12.368 71.2399 12.368C70.7719 12.368 70.4119 12.47 70.1599 12.674C69.9199 12.878 69.7999 13.142 69.7999 13.466C69.7999 13.706 69.8839 13.91 70.0519 14.078C70.2199 14.234 70.4119 14.36 70.6279 14.456C70.8559 14.552 71.2099 14.69 71.6899 14.87C72.2179 15.062 72.6559 15.26 73.0039 15.464C73.3639 15.656 73.6639 15.92 73.9039 16.256C74.1559 16.592 74.2819 17.018 74.2819 17.534C74.2819 18.038 74.1499 18.494 73.8859 18.902C73.6339 19.298 73.2559 19.616 72.7519 19.856C72.2479 20.096 71.6479 20.216 70.9519 20.216ZM83.2059 15.14C83.2059 15.476 83.1819 15.788 83.1339 16.076H77.3199C77.4039 16.964 77.7039 17.642 78.2199 18.11C78.7479 18.566 79.3839 18.794 80.1279 18.794C80.8359 18.794 81.5379 18.572 82.2339 18.128L82.8639 19.28C81.9279 19.904 80.9379 20.216 79.8939 20.216C79.0899 20.216 78.3639 20.03 77.7159 19.658C77.0679 19.286 76.5519 18.752 76.1679 18.056C75.7959 17.36 75.6099 16.544 75.6099 15.608C75.6099 14.684 75.7959 13.874 76.1679 13.178C76.5519 12.47 77.0499 11.93 77.6619 11.558C78.2739 11.174 78.9279 10.982 79.6239 10.982C80.7639 10.982 81.6459 11.36 82.2699 12.116C82.8939 12.86 83.2059 13.868 83.2059 15.14ZM81.6219 14.816C81.6219 14.048 81.4539 13.454 81.1179 13.034C80.7819 12.614 80.2959 12.404 79.6599 12.404C79.1079 12.404 78.6159 12.608 78.1839 13.016C77.7519 13.424 77.4759 14.024 77.3559 14.816H81.6219ZM87.0751 20.216C86.4391 20.216 85.9771 20.024 85.6891 19.64C85.4011 19.256 85.2571 18.692 85.2571 17.948V7.238H87.0751V18.056C87.0751 18.284 87.1171 18.452 87.2011 18.56C87.2851 18.668 87.3871 18.722 87.5071 18.722C87.6151 18.722 87.7231 18.71 87.8311 18.686L88.0651 20.054C87.7891 20.162 87.4591 20.216 87.0751 20.216ZM96.9872 15.14C96.9872 15.476 96.9632 15.788 96.9152 16.076H91.1012C91.1852 16.964 91.4852 17.642 92.0012 18.11C92.5292 18.566 93.1652 18.794 93.9092 18.794C94.6172 18.794 95.3192 18.572 96.0152 18.128L96.6452 19.28C95.7092 19.904 94.7192 20.216 93.6752 20.216C92.8712 20.216 92.1452 20.03 91.4972 19.658C90.8492 19.286 90.3332 18.752 89.9492 18.056C89.5772 17.36 89.3912 16.544 89.3912 15.608C89.3912 14.684 89.5772 13.874 89.9492 13.178C90.3332 12.47 90.8312 11.93 91.4432 11.558C92.0552 11.174 92.7092 10.982 93.4052 10.982C94.5452 10.982 95.4272 11.36 96.0512 12.116C96.6752 12.86 96.9872 13.868 96.9872 15.14ZM95.4032 14.816C95.4032 14.048 95.2352 13.454 94.8992 13.034C94.5632 12.614 94.0772 12.404 93.4412 12.404C92.8892 12.404 92.3972 12.608 91.9652 13.016C91.5332 13.424 91.2572 14.024 91.1372 14.816H95.4032ZM102.62 20.216C101.828 20.216 101.114 20.036 100.478 19.676C99.8423 19.304 99.3383 18.77 98.9663 18.074C98.6063 17.378 98.4263 16.556 98.4263 15.608C98.4263 14.66 98.6243 13.838 99.0203 13.142C99.4163 12.446 99.9443 11.912 100.604 11.54C101.264 11.168 101.984 10.982 102.764 10.982C103.724 10.982 104.582 11.318 105.338 11.99L104.438 13.178C104.174 12.95 103.916 12.776 103.664 12.656C103.412 12.536 103.142 12.476 102.854 12.476C102.098 12.476 101.48 12.764 101 13.34C100.532 13.916 100.298 14.672 100.298 15.608C100.298 16.544 100.526 17.3 100.982 17.876C101.45 18.44 102.056 18.722 102.8 18.722C103.46 18.722 104.102 18.452 104.726 17.912L105.482 19.118C105.086 19.478 104.636 19.754 104.132 19.946C103.64 20.126 103.136 20.216 102.62 20.216ZM110.46 20.216C109.668 20.216 108.954 20.036 108.318 19.676C107.682 19.304 107.178 18.77 106.806 18.074C106.446 17.378 106.266 16.556 106.266 15.608C106.266 14.66 106.464 13.838 106.86 13.142C107.256 12.446 107.784 11.912 108.444 11.54C109.104 11.168 109.824 10.982 110.604 10.982C111.564 10.982 112.422 11.318 113.178 11.99L112.278 13.178C112.014 12.95 111.756 12.776 111.504 12.656C111.252 12.536 110.982 12.476 110.694 12.476C109.938 12.476 109.32 12.764 108.84 13.34C108.372 13.916 108.138 14.672 108.138 15.608C108.138 16.544 108.366 17.3 108.822 17.876C109.29 18.44 109.896 18.722 110.64 18.722C111.3 18.722 111.942 18.452 112.566 17.912L113.322 19.118C112.926 19.478 112.476 19.754 111.972 19.946C111.48 20.126 110.976 20.216 110.46 20.216ZM115.14 11.198H116.958V20H115.14V11.198ZM116.058 9.542C115.734 9.542 115.464 9.44 115.248 9.236C115.044 9.032 114.942 8.768 114.942 8.444C114.942 8.132 115.044 7.874 115.248 7.67C115.464 7.466 115.734 7.364 116.058 7.364C116.382 7.364 116.646 7.466 116.85 7.67C117.066 7.874 117.174 8.132 117.174 8.444C117.174 8.768 117.066 9.032 116.85 9.236C116.646 9.44 116.382 9.542 116.058 9.542ZM123.256 20.216C122.524 20.216 121.84 20.03 121.204 19.658C120.568 19.286 120.058 18.752 119.674 18.056C119.302 17.36 119.116 16.544 119.116 15.608C119.116 14.66 119.302 13.838 119.674 13.142C120.058 12.446 120.562 11.912 121.186 11.54C121.822 11.168 122.512 10.982 123.256 10.982C124 10.982 124.684 11.168 125.308 11.54C125.944 11.912 126.448 12.446 126.82 13.142C127.204 13.838 127.396 14.66 127.396 15.608C127.396 16.544 127.204 17.36 126.82 18.056C126.448 18.752 125.944 19.286 125.308 19.658C124.672 20.03 123.988 20.216 123.256 20.216ZM123.256 18.722C123.952 18.722 124.504 18.44 124.912 17.876C125.32 17.3 125.524 16.544 125.524 15.608C125.524 14.672 125.314 13.916 124.894 13.34C124.486 12.764 123.94 12.476 123.256 12.476C122.572 12.476 122.02 12.764 121.6 13.34C121.192 13.916 120.988 14.672 120.988 15.608C120.988 16.544 121.192 17.3 121.6 17.876C122.008 18.44 122.56 18.722 123.256 18.722ZM129.554 11.198H131.048L131.192 12.422H131.246C131.714 11.966 132.176 11.612 132.632 11.36C133.1 11.108 133.61 10.982 134.162 10.982C135.962 10.982 136.862 12.14 136.862 14.456V20H135.044V14.69C135.044 13.934 134.924 13.388 134.684 13.052C134.456 12.716 134.078 12.548 133.55 12.548C133.154 12.548 132.8 12.644 132.488 12.836C132.176 13.016 131.804 13.322 131.372 13.754V20H129.554V11.198ZM141.609 20.216C140.841 20.216 140.217 19.988 139.737 19.532C139.257 19.064 139.017 18.44 139.017 17.66C139.017 16.712 139.437 15.986 140.277 15.482C141.117 14.966 142.455 14.606 144.291 14.402C144.267 13.106 143.703 12.458 142.599 12.458C141.855 12.458 141.009 12.758 140.061 13.358L139.377 12.134C140.577 11.366 141.759 10.982 142.923 10.982C143.991 10.982 144.789 11.306 145.317 11.954C145.845 12.59 146.109 13.508 146.109 14.708V20H144.615L144.471 18.992H144.417C143.445 19.808 142.509 20.216 141.609 20.216ZM142.167 18.776C142.539 18.776 142.887 18.692 143.211 18.524C143.535 18.356 143.895 18.092 144.291 17.732V15.554C143.019 15.71 142.113 15.95 141.573 16.274C141.045 16.598 140.781 17.018 140.781 17.534C140.781 17.942 140.907 18.254 141.159 18.47C141.411 18.674 141.747 18.776 142.167 18.776ZM151.756 20.216C150.652 20.216 149.77 19.808 149.11 18.992C148.462 18.176 148.138 17.048 148.138 15.608C148.138 14.684 148.312 13.874 148.66 13.178C149.008 12.47 149.47 11.93 150.046 11.558C150.622 11.174 151.24 10.982 151.9 10.982C152.368 10.982 152.782 11.066 153.142 11.234C153.502 11.39 153.88 11.636 154.276 11.972L154.204 10.514V7.238H156.022V20H154.528L154.384 19.01H154.33C153.97 19.37 153.568 19.664 153.124 19.892C152.68 20.108 152.224 20.216 151.756 20.216ZM152.188 18.704C152.56 18.704 152.908 18.62 153.232 18.452C153.556 18.272 153.88 17.996 154.204 17.624V13.304C153.604 12.764 152.956 12.494 152.26 12.494C151.84 12.494 151.456 12.62 151.108 12.872C150.772 13.124 150.502 13.484 150.298 13.952C150.106 14.42 150.01 14.966 150.01 15.59C150.01 16.586 150.196 17.354 150.568 17.894C150.952 18.434 151.492 18.704 152.188 18.704ZM162.314 20.216C161.582 20.216 160.898 20.03 160.262 19.658C159.626 19.286 159.116 18.752 158.732 18.056C158.36 17.36 158.174 16.544 158.174 15.608C158.174 14.66 158.36 13.838 158.732 13.142C159.116 12.446 159.62 11.912 160.244 11.54C160.88 11.168 161.57 10.982 162.314 10.982C163.058 10.982 163.742 11.168 164.366 11.54C165.002 11.912 165.506 12.446 165.878 13.142C166.262 13.838 166.454 14.66 166.454 15.608C166.454 16.544 166.262 17.36 165.878 18.056C165.506 18.752 165.002 19.286 164.366 19.658C163.73 20.03 163.046 20.216 162.314 20.216ZM162.314 18.722C163.01 18.722 163.562 18.44 163.97 17.876C164.378 17.3 164.582 16.544 164.582 15.608C164.582 14.672 164.372 13.916 163.952 13.34C163.544 12.764 162.998 12.476 162.314 12.476C161.63 12.476 161.078 12.764 160.658 13.34C160.25 13.916 160.046 14.672 160.046 15.608C160.046 16.544 160.25 17.3 160.658 17.876C161.066 18.44 161.618 18.722 162.314 18.722Z" fill="white"/>
<path d="M46.914 78.216C46.11 78.216 45.342 78.066 44.61 77.766C43.89 77.454 43.26 77.022 42.72 76.47L43.8 75.21C44.232 75.642 44.724 75.984 45.276 76.236C45.828 76.488 46.386 76.614 46.95 76.614C47.646 76.614 48.192 76.464 48.588 76.164C48.984 75.852 49.182 75.438 49.182 74.922C49.182 74.586 49.104 74.31 48.948 74.094C48.804 73.866 48.606 73.68 48.354 73.536C48.114 73.392 47.76 73.224 47.292 73.032L45.654 72.312C44.058 71.652 43.26 70.626 43.26 69.234C43.26 68.622 43.422 68.07 43.746 67.578C44.082 67.086 44.544 66.702 45.132 66.426C45.72 66.138 46.38 65.994 47.112 65.994C47.796 65.994 48.45 66.126 49.074 66.39C49.698 66.654 50.232 67.014 50.676 67.47L49.722 68.64C48.93 67.944 48.06 67.596 47.112 67.596C46.5 67.596 46.014 67.734 45.654 68.01C45.294 68.286 45.114 68.658 45.114 69.126C45.114 69.438 45.198 69.702 45.366 69.918C45.546 70.134 45.756 70.308 45.996 70.44C46.248 70.572 46.59 70.728 47.022 70.908L48.66 71.61C49.428 71.922 50.016 72.33 50.424 72.834C50.844 73.326 51.054 73.974 51.054 74.778C51.054 75.414 50.886 75.996 50.55 76.524C50.214 77.04 49.734 77.454 49.11 77.766C48.486 78.066 47.754 78.216 46.914 78.216ZM60.0907 73.14C60.0907 73.476 60.0667 73.788 60.0187 74.076H54.2047C54.2887 74.964 54.5887 75.642 55.1047 76.11C55.6327 76.566 56.2687 76.794 57.0127 76.794C57.7207 76.794 58.4227 76.572 59.1187 76.128L59.7487 77.28C58.8127 77.904 57.8227 78.216 56.7787 78.216C55.9747 78.216 55.2487 78.03 54.6007 77.658C53.9527 77.286 53.4367 76.752 53.0527 76.056C52.6807 75.36 52.4947 74.544 52.4947 73.608C52.4947 72.684 52.6807 71.874 53.0527 71.178C53.4367 70.47 53.9347 69.93 54.5467 69.558C55.1587 69.174 55.8127 68.982 56.5087 68.982C57.6487 68.982 58.5307 69.36 59.1547 70.116C59.7787 70.86 60.0907 71.868 60.0907 73.14ZM58.5067 72.816C58.5067 72.048 58.3387 71.454 58.0027 71.034C57.6667 70.614 57.1807 70.404 56.5447 70.404C55.9927 70.404 55.5007 70.608 55.0687 71.016C54.6367 71.424 54.3607 72.024 54.2407 72.816H58.5067ZM63.9599 78.216C63.3239 78.216 62.8619 78.024 62.5739 77.64C62.2859 77.256 62.1419 76.692 62.1419 75.948V65.238H63.9599V76.056C63.9599 76.284 64.0019 76.452 64.0859 76.56C64.1699 76.668 64.2719 76.722 64.3919 76.722C64.4999 76.722 64.6079 76.71 64.7159 76.686L64.9499 78.054C64.6739 78.162 64.3439 78.216 63.9599 78.216ZM73.872 73.14C73.872 73.476 73.848 73.788 73.8 74.076H67.986C68.07 74.964 68.37 75.642 68.886 76.11C69.414 76.566 70.05 76.794 70.794 76.794C71.502 76.794 72.204 76.572 72.9 76.128L73.53 77.28C72.594 77.904 71.604 78.216 70.56 78.216C69.756 78.216 69.03 78.03 68.382 77.658C67.734 77.286 67.218 76.752 66.834 76.056C66.462 75.36 66.276 74.544 66.276 73.608C66.276 72.684 66.462 71.874 66.834 71.178C67.218 70.47 67.716 69.93 68.328 69.558C68.94 69.174 69.594 68.982 70.29 68.982C71.43 68.982 72.312 69.36 72.936 70.116C73.56 70.86 73.872 71.868 73.872 73.14ZM72.288 72.816C72.288 72.048 72.12 71.454 71.784 71.034C71.448 70.614 70.962 70.404 70.326 70.404C69.774 70.404 69.282 70.608 68.85 71.016C68.418 71.424 68.142 72.024 68.022 72.816H72.288ZM79.5051 78.216C78.7131 78.216 77.9991 78.036 77.3631 77.676C76.7271 77.304 76.2231 76.77 75.8511 76.074C75.4911 75.378 75.3111 74.556 75.3111 73.608C75.3111 72.66 75.5091 71.838 75.9051 71.142C76.3011 70.446 76.8291 69.912 77.4891 69.54C78.1491 69.168 78.8691 68.982 79.6491 68.982C80.6091 68.982 81.4671 69.318 82.2231 69.99L81.3231 71.178C81.0591 70.95 80.8011 70.776 80.5491 70.656C80.2971 70.536 80.0271 70.476 79.7391 70.476C78.9831 70.476 78.3651 70.764 77.8851 71.34C77.4171 71.916 77.1831 72.672 77.1831 73.608C77.1831 74.544 77.4111 75.3 77.8671 75.876C78.3351 76.44 78.9411 76.722 79.6851 76.722C80.3451 76.722 80.9871 76.452 81.6111 75.912L82.3671 77.118C81.9711 77.478 81.5211 77.754 81.0171 77.946C80.5251 78.126 80.0211 78.216 79.5051 78.216ZM87.345 78.216C86.553 78.216 85.839 78.036 85.203 77.676C84.567 77.304 84.063 76.77 83.691 76.074C83.331 75.378 83.151 74.556 83.151 73.608C83.151 72.66 83.349 71.838 83.745 71.142C84.141 70.446 84.669 69.912 85.329 69.54C85.989 69.168 86.709 68.982 87.489 68.982C88.449 68.982 89.307 69.318 90.063 69.99L89.163 71.178C88.899 70.95 88.641 70.776 88.389 70.656C88.137 70.536 87.867 70.476 87.579 70.476C86.823 70.476 86.205 70.764 85.725 71.34C85.257 71.916 85.023 72.672 85.023 73.608C85.023 74.544 85.251 75.3 85.707 75.876C86.175 76.44 86.781 76.722 87.525 76.722C88.185 76.722 88.827 76.452 89.451 75.912L90.207 77.118C89.811 77.478 89.361 77.754 88.857 77.946C88.365 78.126 87.861 78.216 87.345 78.216ZM92.0247 69.198H93.8427V78H92.0247V69.198ZM92.9427 67.542C92.6187 67.542 92.3487 67.44 92.1327 67.236C91.9287 67.032 91.8267 66.768 91.8267 66.444C91.8267 66.132 91.9287 65.874 92.1327 65.67C92.3487 65.466 92.6187 65.364 92.9427 65.364C93.2667 65.364 93.5307 65.466 93.7347 65.67C93.9507 65.874 94.0587 66.132 94.0587 66.444C94.0587 66.768 93.9507 67.032 93.7347 67.236C93.5307 67.44 93.2667 67.542 92.9427 67.542ZM100.141 78.216C99.4086 78.216 98.7246 78.03 98.0886 77.658C97.4526 77.286 96.9426 76.752 96.5586 76.056C96.1866 75.36 96.0006 74.544 96.0006 73.608C96.0006 72.66 96.1866 71.838 96.5586 71.142C96.9426 70.446 97.4466 69.912 98.0706 69.54C98.7066 69.168 99.3966 68.982 100.141 68.982C100.885 68.982 101.569 69.168 102.193 69.54C102.829 69.912 103.333 70.446 103.705 71.142C104.089 71.838 104.281 72.66 104.281 73.608C104.281 74.544 104.089 75.36 103.705 76.056C103.333 76.752 102.829 77.286 102.193 77.658C101.557 78.03 100.873 78.216 100.141 78.216ZM100.141 76.722C100.837 76.722 101.389 76.44 101.797 75.876C102.205 75.3 102.409 74.544 102.409 73.608C102.409 72.672 102.199 71.916 101.779 71.34C101.371 70.764 100.825 70.476 100.141 70.476C99.4566 70.476 98.9046 70.764 98.4846 71.34C98.0766 71.916 97.8726 72.672 97.8726 73.608C97.8726 74.544 98.0766 75.3 98.4846 75.876C98.8926 76.44 99.4446 76.722 100.141 76.722ZM106.439 69.198H107.933L108.077 70.422H108.131C108.599 69.966 109.061 69.612 109.517 69.36C109.985 69.108 110.495 68.982 111.047 68.982C112.847 68.982 113.747 70.14 113.747 72.456V78H111.929V72.69C111.929 71.934 111.809 71.388 111.569 71.052C111.341 70.716 110.963 70.548 110.435 70.548C110.039 70.548 109.685 70.644 109.373 70.836C109.061 71.016 108.689 71.322 108.257 71.754V78H106.439V69.198ZM118.494 78.216C117.726 78.216 117.102 77.988 116.622 77.532C116.142 77.064 115.902 76.44 115.902 75.66C115.902 74.712 116.322 73.986 117.162 73.482C118.002 72.966 119.34 72.606 121.176 72.402C121.152 71.106 120.588 70.458 119.484 70.458C118.74 70.458 117.894 70.758 116.946 71.358L116.262 70.134C117.462 69.366 118.644 68.982 119.808 68.982C120.876 68.982 121.674 69.306 122.202 69.954C122.73 70.59 122.994 71.508 122.994 72.708V78H121.5L121.356 76.992H121.302C120.33 77.808 119.394 78.216 118.494 78.216ZM119.052 76.776C119.424 76.776 119.772 76.692 120.096 76.524C120.42 76.356 120.78 76.092 121.176 75.732V73.554C119.904 73.71 118.998 73.95 118.458 74.274C117.93 74.598 117.666 75.018 117.666 75.534C117.666 75.942 117.792 76.254 118.044 76.47C118.296 76.674 118.632 76.776 119.052 76.776ZM128.641 78.216C127.537 78.216 126.655 77.808 125.995 76.992C125.347 76.176 125.023 75.048 125.023 73.608C125.023 72.684 125.197 71.874 125.545 71.178C125.893 70.47 126.355 69.93 126.931 69.558C127.507 69.174 128.125 68.982 128.785 68.982C129.253 68.982 129.667 69.066 130.027 69.234C130.387 69.39 130.765 69.636 131.161 69.972L131.089 68.514V65.238H132.907V78H131.413L131.269 77.01H131.215C130.855 77.37 130.453 77.664 130.009 77.892C129.565 78.108 129.109 78.216 128.641 78.216ZM129.073 76.704C129.445 76.704 129.793 76.62 130.117 76.452C130.441 76.272 130.765 75.996 131.089 75.624V71.304C130.489 70.764 129.841 70.494 129.145 70.494C128.725 70.494 128.341 70.62 127.993 70.872C127.657 71.124 127.387 71.484 127.183 71.952C126.991 72.42 126.895 72.966 126.895 73.59C126.895 74.586 127.081 75.354 127.453 75.894C127.837 76.434 128.377 76.704 129.073 76.704ZM139.199 78.216C138.467 78.216 137.783 78.03 137.147 77.658C136.511 77.286 136.001 76.752 135.617 76.056C135.245 75.36 135.059 74.544 135.059 73.608C135.059 72.66 135.245 71.838 135.617 71.142C136.001 70.446 136.505 69.912 137.129 69.54C137.765 69.168 138.455 68.982 139.199 68.982C139.943 68.982 140.627 69.168 141.251 69.54C141.887 69.912 142.391 70.446 142.763 71.142C143.147 71.838 143.339 72.66 143.339 73.608C143.339 74.544 143.147 75.36 142.763 76.056C142.391 76.752 141.887 77.286 141.251 77.658C140.615 78.03 139.931 78.216 139.199 78.216ZM139.199 76.722C139.895 76.722 140.447 76.44 140.855 75.876C141.263 75.3 141.467 74.544 141.467 73.608C141.467 72.672 141.257 71.916 140.837 71.34C140.429 70.764 139.883 70.476 139.199 70.476C138.515 70.476 137.963 70.764 137.543 71.34C137.135 71.916 136.931 72.672 136.931 73.608C136.931 74.544 137.135 75.3 137.543 75.876C137.951 76.44 138.503 76.722 139.199 76.722Z" fill="white"/>
<g filter="url(#filter0_d)">
<circle cx="16" cy="71" r="15" fill="#A93D0E"/>
</g>
<g filter="url(#filter1_d)">
<circle cx="16" cy="15" r="15" fill="#F7DED1"/>
</g>
<defs>
<filter id="filter0_d" x="0" y="56" width="38" height="38" filterUnits="userSpaceOnUse" color-interpolation-filters="sRGB">
<feFlood flood-opacity="0" result="BackgroundImageFix"/>
<feColorMatrix in="SourceAlpha" type="matrix" values="0 0 0 0 0 0 0 0 0 0 0 0 0 0 0 0 0 0 127 0"/>
<feOffset dx="3" dy="4"/>
<feGaussianBlur stdDeviation="2"/>
<feColorMatrix type="matrix" values="0 0 0 0 0 0 0 0 0 0 0 0 0 0 0 0 0 0 0.25 0"/>
<feBlend mode="normal" in2="BackgroundImageFix" result="effect1_dropShadow"/>
<feBlend mode="normal" in="SourceGraphic" in2="effect1_dropShadow" result="shape"/>
</filter>
<filter id="filter1_d" x="0" y="0" width="38" height="38" filterUnits="userSpaceOnUse" color-interpolation-filters="sRGB">
<feFlood flood-opacity="0" result="BackgroundImageFix"/>
<feColorMatrix in="SourceAlpha" type="matrix" values="0 0 0 0 0 0 0 0 0 0 0 0 0 0 0 0 0 0 127 0"/>
<feOffset dx="3" dy="4"/>
<feGaussianBlur stdDeviation="2"/>
<feColorMatrix type="matrix" values="0 0 0 0 0 0 0 0 0 0 0 0 0 0 0 0 0 0 0.25 0"/>
<feBlend mode="normal" in2="BackgroundImageFix" result="effect1_dropShadow"/>
<feBlend mode="normal" in="SourceGraphic" in2="effect1_dropShadow" result="shape"/>
</filter>
</defs>
</svg>
