<svg width="279" height="380" viewBox="0 0 279 380" fill="none" xmlns="http://www.w3.org/2000/svg">
<ellipse cx="62.8296" cy="55.8161" rx="55.8296" ry="55.8161" fill="#F7DED1"/>
<mask id="mask0" mask-type="alpha" maskUnits="userSpaceOnUse" x="7" y="0" width="113" height="113">
<ellipse cx="63.01" cy="56.0234" rx="56.01" ry="55.9965" fill="#F7DED1"/>
</mask>
<g mask="url(#mask0)">
<path d="M37.1797 52.26V45.7729H46.9126V52.26" fill="#BC8F6F"/>
<path d="M37.1797 52.26V45.7729H43.6683V52.26" fill="#CB9E78"/>
<path d="M89.0898 39.2856H111.8V45.7727H89.0898V39.2856Z" fill="#BC8F6F"/>
<path d="M89.0898 39.2856H103.689V45.7727H89.0898V39.2856Z" fill="#CB9E78"/>
<path d="M108.557 45.7729H92.3359V105.778C92.3359 110.256 95.9675 113.887 100.447 113.887C104.926 113.887 108.557 110.256 108.557 105.778V45.7729Z" fill="#BAB8B9"/>
<path d="M98.0135 113.475C101.295 112.437 103.691 109.404 103.691 105.778V45.7729H92.3359V105.778C92.3359 109.402 94.7319 112.435 98.0135 113.475Z" fill="#D9D7D8"/>
<path d="M100.447 113.887C104.926 113.887 108.557 110.256 108.557 105.778V68.4775H92.3359V105.778C92.3359 110.256 95.9675 113.887 100.447 113.887Z" fill="#D46B69"/>
<path d="M98.0135 113.475C101.295 112.437 103.691 109.404 103.691 105.778V68.4775H92.3359V105.778C92.3359 109.402 94.7319 112.435 98.0135 113.475Z" fill="#ED7775"/>
<path d="M63.1408 113.887C66.7241 113.887 69.6293 110.982 69.6293 107.4V105.81C69.6293 104.725 69.3569 103.656 68.8381 102.704L50.1636 68.4773V52.2598H33.9564V68.4773L15.2843 102.704C14.7654 103.658 14.4922 104.725 14.4922 105.81V107.4C14.4922 110.982 17.3975 113.887 20.9808 113.887H63.1408Z" fill="#BAB8B9"/>
<path d="M64.7629 107.4V105.81C64.7629 104.725 64.4905 103.656 63.9717 102.704L45.2972 68.4773V52.2598H33.9564V68.4773L15.2843 102.704C14.7654 103.658 14.4922 104.725 14.4922 105.81V107.4C14.4922 110.982 17.3975 113.887 20.9808 113.887H58.2743C61.8576 113.887 64.7629 110.982 64.7629 107.4Z" fill="#D9D7D8"/>
<path d="M69.6293 107.4V105.81C69.6293 104.726 69.3569 103.657 68.8381 102.705L57.2423 81.4517H54.7512C53.891 81.4517 53.0657 81.7937 52.4574 82.4019L51.1141 83.7449C50.5058 84.3531 49.6804 84.6952 48.8202 84.6952H48.2642C47.404 84.6952 46.5787 84.3531 45.9704 83.7449L44.6271 82.4019C44.0172 81.7937 43.1918 81.4517 42.3317 81.4517H41.7756C40.9154 81.4517 40.0901 81.7937 39.4818 82.4019L38.1385 83.7449C37.5286 84.3531 36.7032 84.6952 35.8431 84.6952H35.287C34.4269 84.6952 33.6015 84.3531 32.9932 83.7449L31.6499 82.4019C31.04 81.7937 30.2147 81.4517 29.3545 81.4517H26.8793L15.2843 102.705C14.7654 103.658 14.4922 104.726 14.4922 105.81V107.4C14.4922 110.982 17.3975 113.887 20.9808 113.887H63.1408C66.7241 113.887 69.6293 110.982 69.6293 107.4Z" fill="#599072"/>
<path d="M66.3774 71.7212V85.5433C60.711 87.5492 56.6445 92.9387 56.6445 99.2911C56.6445 107.353 63.1799 113.887 71.2439 113.887C79.3079 113.887 85.8432 107.353 85.8432 99.2911C85.8432 92.9387 81.7767 87.5492 76.1103 85.5433V71.7212" fill="#BAB8B9"/>
<path d="M56.6445 99.2911C56.6445 106.803 62.3236 112.983 69.6217 113.791C76.9198 112.983 82.5989 106.803 82.5989 99.2911C82.5989 92.9387 78.5324 87.5492 72.866 85.5433V71.7212H66.3774V85.5433C60.711 87.5492 56.6445 92.9387 56.6445 99.2911Z" fill="#D9D7D8"/>
<path d="M85.8432 99.2905C85.8432 98.7409 85.8028 98.2024 85.7426 97.6687H83.9422C83.082 97.6687 82.2567 98.0108 81.6484 98.6189L80.3051 99.962C79.6968 100.57 78.8714 100.912 78.0113 100.912H77.4552C76.595 100.912 75.7697 100.57 75.1614 99.962L73.8181 98.6189C73.2082 98.0108 72.3828 97.6687 71.5227 97.6687H70.9666C70.1065 97.6687 69.2811 98.0108 68.6728 98.6189L67.3295 99.962C66.7196 100.57 65.8943 100.912 65.0341 100.912H64.478C63.6179 100.912 62.7925 100.57 62.1842 99.962L60.8409 98.6189C60.231 98.0108 59.4057 97.6687 58.5455 97.6687H56.7451C56.6849 98.2024 56.6445 98.7409 56.6445 99.2905C56.6445 107.353 63.1799 113.886 71.2439 113.886C79.3079 113.886 85.8432 107.353 85.8432 99.2905Z" fill="#85B6CF"/>
<path d="M69.6217 113.791C76.9198 112.983 82.5989 106.802 82.5989 99.2908C82.5989 98.8576 82.5601 98.4347 82.5197 98.0127C82.2013 98.1687 81.9027 98.3651 81.6484 98.6192L80.3051 99.9623C79.6968 100.57 78.8714 100.913 78.0113 100.913H77.4552C76.9863 100.913 76.5301 100.802 76.1119 100.611C75.6921 100.802 75.2359 100.913 74.767 100.913H74.2109C73.3507 100.913 72.5254 100.57 71.9171 99.9623L70.5738 98.6192C70.2981 98.3437 69.9718 98.1299 69.6233 97.9707C69.2748 98.1299 68.95 98.3437 68.6728 98.6192L67.3295 99.9623C66.7196 100.57 65.8943 100.913 65.0341 100.913H64.478C64.0091 100.913 63.5529 100.802 63.1347 100.611C62.7149 100.802 62.2587 100.913 61.7898 100.913H61.2338C60.3736 100.913 59.5482 100.57 58.9399 99.9623L57.5966 98.6192C57.3423 98.3651 57.0437 98.1687 56.7253 98.0127C56.6833 98.4347 56.6445 98.8576 56.6445 99.2908C56.6445 106.802 62.3236 112.983 69.6217 113.791Z" fill="#94CCE7"/>
<path d="M40.4261 100.912C40.4261 102.703 38.9734 104.156 37.1818 104.156C35.3901 104.156 33.9375 102.703 33.9375 100.912C33.9375 99.121 35.3901 97.6687 37.1818 97.6687C38.9734 97.6687 40.4261 99.121 40.4261 100.912Z" fill="#70B48F"/>
<path d="M51.7737 94.4256C51.7737 96.2169 50.3211 97.6692 48.5294 97.6692C46.7378 97.6692 45.2852 96.2169 45.2852 94.4256C45.2852 92.6344 46.7378 91.1821 48.5294 91.1821C50.3211 91.1821 51.7737 92.6344 51.7737 94.4256Z" fill="#70B48F"/>
<path d="M27.4534 104.156C27.4534 105.947 26.0008 107.399 24.2091 107.399C22.4175 107.399 20.9648 105.947 20.9648 104.156C20.9648 102.365 22.4175 100.912 24.2091 100.912C26.0008 100.912 27.4534 102.365 27.4534 104.156Z" fill="#70B48F"/>
<path d="M27.4498 23.0683C27.4498 26.6508 24.5445 29.5554 20.9612 29.5554C17.3779 29.5554 14.4727 26.6508 14.4727 23.0683C14.4727 19.4859 17.3779 16.5813 20.9612 16.5813C24.5445 16.5813 27.4498 19.4859 27.4498 23.0683Z" fill="#599072"/>
<path d="M30.6956 39.2855C30.6956 41.0767 29.243 42.529 27.4513 42.529C25.6597 42.529 24.207 41.0767 24.207 39.2855C24.207 37.4943 25.6597 36.042 27.4513 36.042C29.243 36.042 30.6956 37.4943 30.6956 39.2855Z" fill="#85B6CF"/>
<path d="M24.2055 53.8814C24.2055 56.5682 22.0266 58.7467 19.3391 58.7467C16.6516 58.7467 14.4727 56.5682 14.4727 53.8814C14.4727 51.1946 16.6516 49.0161 19.3391 49.0161C22.0266 49.0161 24.2055 51.1946 24.2055 53.8814Z" fill="#CB9E78"/>
<path d="M61.5117 70.0991H80.9775V73.3426H61.5117V70.0991Z" fill="black"/>
<path d="M61.5117 70.0991H80.9775V73.3426H61.5117V70.0991Z" fill="#BC8F6F"/>
<path d="M61.5117 70.0991H76.111V73.3426H61.5117V70.0991Z" fill="#CB9E78"/>
<path d="M66.3789 76.5864H76.1118V79.8299H66.3789V76.5864Z" fill="#BC8F6F"/>
<path d="M66.3789 76.5864H72.8675V79.8299H66.3789V76.5864Z" fill="#CB9E78"/>
<path d="M29.0664 57.125H55.0208V60.3685H29.0664V57.125Z" fill="#BC8F6F"/>
<path d="M29.0664 57.125H45.2879V60.3685H29.0664V57.125Z" fill="#CB9E78"/>
<path d="M50.1641 105.778H53.4084V109.021H50.1641V105.778Z" fill="#70B48F"/>
<path d="M46.918 102.535H50.1623V105.778H46.918V102.535Z" fill="#70B48F"/>
<path d="M43.6719 105.778H46.9162V109.021H43.6719V105.778Z" fill="#70B48F"/>
<path d="M30.6914 91.1821H33.9357V94.4257H30.6914V91.1821Z" fill="#70B48F"/>
<path d="M97.2031 104.156H100.447V107.4H97.2031V104.156Z" fill="#D46B69"/>
<path d="M100.449 97.6694H103.694V100.913H100.449V97.6694Z" fill="#D46B69"/>
<path d="M97.2031 91.1821H100.447V94.4257H97.2031V91.1821Z" fill="#D46B69"/>
<path d="M100.449 84.6953H103.694V87.9388H100.449V84.6953Z" fill="#D46B69"/>
<path d="M97.2031 78.208H100.447V81.4515H97.2031V78.208Z" fill="#D46B69"/>
<path d="M48.5295 40.9078H45.2852V19.825C45.2852 17.1429 47.4689 14.9597 50.1516 14.9597H105.305C107.987 14.9597 110.171 17.1429 110.171 19.825V34.4208H106.927V19.825C106.927 18.9318 106.2 18.2032 105.305 18.2032H50.1516C49.2566 18.2032 48.5295 18.9318 48.5295 19.825V40.9078Z" fill="#ED7775"/>
<path d="M77.7344 66.856H74.4901V32.7991C74.4901 31.9059 73.763 31.1774 72.868 31.1774H40.425C39.53 31.1774 38.8029 31.9059 38.8029 32.7991V40.9079H35.5586V32.7991C35.5586 30.117 37.7423 27.9338 40.425 27.9338H72.868C75.5507 27.9338 77.7344 30.117 77.7344 32.7991V66.856Z" fill="#599072"/>
<path d="M68.0021 66.8557H64.7578V26.3118C64.7578 23.6297 66.9415 21.4465 69.6243 21.4465H89.09C91.7727 21.4465 93.9565 23.6297 93.9565 26.3118V34.4206H90.7122V26.3118C90.7122 25.4186 89.985 24.69 89.09 24.69H69.6243C68.7292 24.69 68.0021 25.4186 68.0021 26.3118V66.8557Z" fill="#94CCE7"/>
</g>
<circle cx="11.5" cy="147.5" r="11.5" fill="#EB5793"/>
<path d="M37.264 136.552H39.456V147H37.264V136.552ZM41.8068 139.08H43.5828L43.7428 140.104H43.8068C44.1908 139.731 44.5854 139.437 44.9908 139.224C45.4068 139 45.8654 138.888 46.3668 138.888C47.1988 138.888 47.8121 139.165 48.2068 139.72C48.6121 140.264 48.8148 141.048 48.8148 142.072V147H46.6228V142.344C46.6228 141.757 46.5374 141.347 46.3668 141.112C46.2068 140.877 45.9401 140.76 45.5668 140.76C45.2681 140.76 45.0068 140.824 44.7828 140.952C44.5588 141.08 44.2921 141.293 43.9828 141.592V147H41.8068V139.08ZM53.7005 147.192C52.7085 147.192 51.9192 146.824 51.3325 146.088C50.7565 145.352 50.4685 144.339 50.4685 143.048C50.4685 142.216 50.6232 141.485 50.9325 140.856C51.2418 140.227 51.6472 139.741 52.1485 139.4C52.6605 139.059 53.1992 138.888 53.7645 138.888C54.1805 138.888 54.5378 138.957 54.8365 139.096C55.1352 139.235 55.4392 139.448 55.7485 139.736L55.6685 138.504V135.752H57.8605V147H56.0685L55.9085 146.184H55.8605C55.5618 146.483 55.2205 146.728 54.8365 146.92C54.4632 147.101 54.0845 147.192 53.7005 147.192ZM54.2605 145.4C54.5378 145.4 54.7885 145.341 55.0125 145.224C55.2365 145.096 55.4552 144.899 55.6685 144.632V141.24C55.2632 140.867 54.7938 140.68 54.2605 140.68C53.8232 140.68 53.4552 140.883 53.1565 141.288C52.8578 141.693 52.7085 142.269 52.7085 143.016C52.7085 143.805 52.8418 144.403 53.1085 144.808C53.3752 145.203 53.7592 145.4 54.2605 145.4ZM62.3935 147.192C61.5615 147.192 60.9428 146.92 60.5375 146.376C60.1428 145.821 59.9455 145.032 59.9455 144.008V139.08H62.1215V143.736C62.1215 144.312 62.2068 144.723 62.3775 144.968C62.5482 145.203 62.8202 145.32 63.1935 145.32C63.5028 145.32 63.7642 145.251 63.9775 145.112C64.2015 144.963 64.4468 144.717 64.7135 144.376V139.08H66.8895V147H65.1135L64.9535 145.88H64.8895C64.5268 146.307 64.1482 146.632 63.7535 146.856C63.3588 147.08 62.9055 147.192 62.3935 147.192ZM71.3604 147.192C70.8484 147.192 70.315 147.091 69.7604 146.888C69.2164 146.685 68.7417 146.419 68.3364 146.088L69.3284 144.712C69.7017 145 70.0537 145.213 70.3844 145.352C70.7257 145.491 71.0724 145.56 71.4244 145.56C71.787 145.56 72.059 145.496 72.2404 145.368C72.4217 145.229 72.5124 145.037 72.5124 144.792C72.5124 144.621 72.4377 144.472 72.2884 144.344C72.1497 144.216 71.947 144.099 71.6804 143.992C71.4137 143.875 71.147 143.763 70.8804 143.656C70.251 143.411 69.7337 143.112 69.3284 142.76C68.9337 142.397 68.7364 141.923 68.7364 141.336C68.7364 140.611 69.0084 140.024 69.5524 139.576C70.0964 139.117 70.8164 138.888 71.7124 138.888C72.6937 138.888 73.6057 139.219 74.4484 139.88L73.4724 141.192C72.843 140.744 72.2777 140.52 71.7764 140.52C71.4457 140.52 71.195 140.584 71.0244 140.712C70.8644 140.84 70.7844 141.011 70.7844 141.224C70.7844 141.437 70.891 141.613 71.1044 141.752C71.3177 141.88 71.563 141.992 71.8404 142.088C72.1177 142.184 72.299 142.248 72.3844 142.28C73.0564 142.525 73.5844 142.824 73.9684 143.176C74.363 143.517 74.5604 144.013 74.5604 144.664C74.5604 145.144 74.4324 145.576 74.1764 145.96C73.931 146.333 73.5684 146.632 73.0884 146.856C72.6084 147.08 72.0324 147.192 71.3604 147.192ZM78.8918 147.192C77.9744 147.192 77.3024 146.931 76.8758 146.408C76.4491 145.875 76.2358 145.133 76.2358 144.184V140.808H75.1318V139.176L76.3478 139.08L76.6038 136.968H78.4118V139.08H80.3478V140.808H78.4118V144.168C78.4118 145.032 78.7638 145.464 79.4678 145.464C79.6918 145.464 79.9531 145.411 80.2518 145.304L80.6038 146.904C80.0278 147.096 79.4571 147.192 78.8918 147.192ZM81.9474 139.08H83.7234L83.8834 140.472H83.9474C84.2247 139.96 84.5607 139.571 84.9554 139.304C85.3607 139.027 85.7714 138.888 86.1874 138.888C86.5607 138.888 86.87 138.941 87.1154 139.048L86.7474 140.936C86.7154 140.925 86.6194 140.904 86.4594 140.872C86.2994 140.829 86.118 140.808 85.9154 140.808C85.574 140.808 85.2434 140.931 84.9234 141.176C84.6034 141.421 84.3367 141.805 84.1234 142.328V147H81.9474V139.08ZM88.1818 139.08H90.3578V147H88.1818V139.08ZM89.2698 137.848C88.9071 137.848 88.6084 137.741 88.3738 137.528C88.1498 137.304 88.0378 137.021 88.0378 136.68C88.0378 136.339 88.1498 136.061 88.3738 135.848C88.6084 135.624 88.9071 135.512 89.2698 135.512C89.6324 135.512 89.9258 135.624 90.1498 135.848C90.3844 136.061 90.5018 136.339 90.5018 136.68C90.5018 137.021 90.3844 137.304 90.1498 137.528C89.9258 137.741 89.6324 137.848 89.2698 137.848ZM94.5091 147.192C93.8051 147.192 93.2345 146.968 92.7971 146.52C92.3705 146.072 92.1571 145.507 92.1571 144.824C92.1571 143.981 92.5145 143.331 93.2291 142.872C93.9438 142.403 95.0905 142.083 96.6691 141.912C96.6371 141.059 96.1998 140.632 95.3571 140.632C95.0265 140.632 94.6905 140.696 94.3491 140.824C94.0078 140.952 93.6345 141.133 93.2291 141.368L92.4451 139.928C93.5651 139.235 94.6745 138.888 95.7731 138.888C96.7865 138.888 97.5545 139.187 98.0771 139.784C98.5998 140.371 98.8611 141.251 98.8611 142.424V147H97.0691L96.9091 146.168H96.8611C96.0718 146.851 95.2878 147.192 94.5091 147.192ZM95.2291 145.496C95.4958 145.496 95.7358 145.437 95.9491 145.32C96.1731 145.192 96.4131 145.005 96.6691 144.76V143.24C95.8051 143.357 95.1865 143.533 94.8131 143.768C94.4398 144.003 94.2531 144.296 94.2531 144.648C94.2531 144.925 94.3385 145.139 94.5091 145.288C94.6798 145.427 94.9198 145.496 95.2291 145.496ZM41.856 168.528L41.936 167.28C41.6587 167.557 41.3387 167.781 40.976 167.952C40.6133 168.112 40.2507 168.192 39.888 168.192C38.896 168.192 38.1067 167.824 37.52 167.088C36.944 166.352 36.656 165.339 36.656 164.048C36.656 163.216 36.8107 162.485 37.12 161.856C37.4293 161.227 37.8347 160.741 38.336 160.4C38.848 160.059 39.3867 159.888 39.952 159.888C40.3787 159.888 40.7627 159.968 41.104 160.128C41.4453 160.277 41.776 160.523 42.096 160.864H42.144L42.336 160.08H44.048V171.008H41.856V168.528ZM40.448 166.4C40.7253 166.4 40.976 166.341 41.2 166.224C41.424 166.096 41.6427 165.899 41.856 165.632V162.24C41.4507 161.867 40.9813 161.68 40.448 161.68C40.0107 161.68 39.6427 161.883 39.344 162.288C39.0453 162.693 38.896 163.269 38.896 164.016C38.896 164.805 39.0293 165.403 39.296 165.808C39.5627 166.203 39.9467 166.4 40.448 166.4ZM48.581 168.192C47.749 168.192 47.1303 167.92 46.725 167.376C46.3303 166.821 46.133 166.032 46.133 165.008V160.08H48.309V164.736C48.309 165.312 48.3943 165.723 48.565 165.968C48.7357 166.203 49.0077 166.32 49.381 166.32C49.6903 166.32 49.9517 166.251 50.165 166.112C50.389 165.963 50.6343 165.717 50.901 165.376V160.08H53.077V168H51.301L51.141 166.88H51.077C50.7143 167.307 50.3357 167.632 49.941 167.856C49.5463 168.08 49.093 168.192 48.581 168.192ZM55.2599 160.08H57.4359V168H55.2599V160.08ZM55.3719 157.76L57.8039 154.896L59.2919 156.336L56.4599 158.832L55.3719 157.76ZM59.6193 160.08H61.3953L61.5553 161.12H61.6193C62.0033 160.725 62.3819 160.421 62.7552 160.208C63.1286 159.995 63.5499 159.888 64.0193 159.888C64.5739 159.888 65.0273 160.005 65.3793 160.24C65.7313 160.464 66.0086 160.8 66.2113 161.248C66.6166 160.821 67.0166 160.491 67.4113 160.256C67.8059 160.011 68.2379 159.888 68.7073 159.888C69.5393 159.888 70.1579 160.165 70.5633 160.72C70.9686 161.275 71.1713 162.059 71.1713 163.072V168H68.9953V163.344C68.9953 162.768 68.9099 162.363 68.7393 162.128C68.5793 161.883 68.3126 161.76 67.9392 161.76C67.5126 161.76 67.0273 162.037 66.4833 162.592V168H64.3073V163.344C64.3073 162.768 64.2219 162.363 64.0513 162.128C63.8913 161.883 63.6246 161.76 63.2513 161.76C62.8246 161.76 62.3393 162.037 61.7953 162.592V168H59.6193V160.08ZM73.2599 160.08H75.4359V168H73.2599V160.08ZM74.3479 158.848C73.9852 158.848 73.6865 158.741 73.4519 158.528C73.2279 158.304 73.1159 158.021 73.1159 157.68C73.1159 157.339 73.2279 157.061 73.4519 156.848C73.6865 156.624 73.9852 156.512 74.3479 156.512C74.7105 156.512 75.0039 156.624 75.2279 156.848C75.4625 157.061 75.5799 157.339 75.5799 157.68C75.5799 158.021 75.4625 158.304 75.2279 158.528C75.0039 158.741 74.7105 158.848 74.3479 158.848ZM81.0113 168.192C80.2753 168.192 79.6139 168.027 79.0273 167.696C78.4406 167.365 77.9766 166.891 77.6353 166.272C77.3046 165.643 77.1393 164.901 77.1393 164.048C77.1393 163.195 77.3206 162.453 77.6833 161.824C78.0566 161.195 78.5526 160.715 79.1713 160.384C79.7899 160.053 80.4673 159.888 81.2033 159.888C82.0673 159.888 82.8406 160.176 83.5233 160.752L82.4833 162.16C82.2806 161.989 82.0886 161.867 81.9073 161.792C81.7259 161.707 81.5339 161.664 81.3313 161.664C80.7446 161.664 80.2699 161.883 79.9073 162.32C79.5553 162.747 79.3793 163.323 79.3793 164.048C79.3793 164.763 79.5499 165.339 79.8913 165.776C80.2433 166.203 80.6966 166.416 81.2513 166.416C81.7313 166.416 82.2326 166.213 82.7553 165.808L83.6193 167.232C83.2459 167.552 82.8299 167.792 82.3713 167.952C81.9233 168.112 81.4699 168.192 81.0113 168.192ZM86.8685 168.192C86.1645 168.192 85.5938 167.968 85.1565 167.52C84.7298 167.072 84.5165 166.507 84.5165 165.824C84.5165 164.981 84.8738 164.331 85.5885 163.872C86.3032 163.403 87.4498 163.083 89.0285 162.912C88.9965 162.059 88.5592 161.632 87.7165 161.632C87.3858 161.632 87.0498 161.696 86.7085 161.824C86.3672 161.952 85.9938 162.133 85.5885 162.368L84.8045 160.928C85.9245 160.235 87.0338 159.888 88.1325 159.888C89.1458 159.888 89.9138 160.187 90.4365 160.784C90.9592 161.371 91.2205 162.251 91.2205 163.424V168H89.4285L89.2685 167.168H89.2205C88.4312 167.851 87.6472 168.192 86.8685 168.192ZM87.5885 166.496C87.8552 166.496 88.0952 166.437 88.3085 166.32C88.5325 166.192 88.7725 166.005 89.0285 165.76V164.24C88.1645 164.357 87.5458 164.533 87.1725 164.768C86.7992 165.003 86.6125 165.296 86.6125 165.648C86.6125 165.925 86.6978 166.139 86.8685 166.288C87.0392 166.427 87.2792 166.496 87.5885 166.496Z" fill="white"/>
<ellipse cx="63.4868" cy="263.183" rx="55.5337" ry="53.1607" fill="#C4C4C4"/>
<path d="M118.992 263.417C118.992 293.021 93.9216 317.02 62.9961 317.02C32.0706 317.02 7 293.021 7 263.417C7 233.813 32.0706 209.813 62.9961 209.813C93.9216 209.813 118.992 233.813 118.992 263.417Z" fill="#603256"/>
<path d="M85.7164 218.235C79.8016 215.651 73.4967 214.13 66.6758 213.729V316.902C71.0799 316.628 75.3448 315.869 79.4133 314.676L88.0252 219.299C88.0252 219.299 88.1198 217.681 87.977 217.029L85.7164 218.235Z" fill="#7CDD83"/>
<path d="M74.9017 280.492C74.9017 280.492 78.2801 284.394 84.0118 281.518L78.5113 298.307L74.375 289.795L74.9017 280.492Z" fill="#69D173"/>
<path d="M45.7664 216.387C45.378 216.855 45.1763 217.453 45.2263 218.07L53.8498 316.304C56.8281 316.772 59.8842 317.02 63.0009 317.02C64.2392 317.02 65.4668 316.977 66.6846 316.902V213.73C65.565 213.665 64.4365 213.627 63.2991 213.627C57.1656 213.627 51.2687 214.598 45.7664 216.387Z" fill="#49A552"/>
<path d="M58.467 280.503C58.467 280.503 55.0842 284.395 49.3516 281.518L61.4918 308.864L58.467 280.503Z" fill="#3B9641"/>
<path d="M78.1893 222.253L66.6758 216.094V205C67.1115 205 67.5463 205.108 67.9364 205.323L86.8842 215.796C87.3958 216.08 87.7743 216.519 87.977 217.028L78.1893 222.253Z" fill="#8CED91"/>
<path d="M45.3789 217.029C45.5816 216.519 45.9601 216.078 46.4726 215.794L65.4168 205.323C65.8078 205.108 66.2435 205 66.6792 205V216.094L55.1657 222.253L45.3789 217.029Z" fill="#69D173"/>
<path d="M55.1719 222.253L60.5322 316.965C61.35 317 62.1714 317.02 62.9972 317.02C66.3684 317.02 69.6709 316.735 72.8787 316.188L78.1953 222.254L66.6836 216.094L55.1719 222.253Z" fill="#55B160"/>
<path d="M67.4321 284.948C67.3723 284.953 67.3115 284.956 67.2517 284.96C63.5511 285.203 60.2094 283.369 58.4648 280.503L60.529 316.965C61.3459 316.999 62.1673 317.02 62.9931 317.02C66.3652 317.02 69.6667 316.734 72.8745 316.187L74.8949 280.492C73.3736 282.995 70.6301 284.731 67.4321 284.948Z" fill="#49A552"/>
<path d="M63.2103 317.017L47.5311 242.544L45.0518 247.939L42.2573 256.137C42.2136 256.369 42.1091 256.582 41.9609 256.761L59.166 316.892C60.432 316.975 61.7087 317.02 62.997 317.02C63.0684 317.02 63.1389 317.017 63.2103 317.017Z" fill="#8CED91"/>
<path d="M41.9597 256.761C41.7963 256.958 41.5803 257.114 41.3276 257.206L26.9759 262.407C26.5751 262.553 26.1331 262.52 25.7617 262.33L47.012 314.8C50.9028 315.907 54.9695 316.622 59.1647 316.893L41.9597 256.761Z" fill="#55B160"/>
<path d="M47.0137 314.8L25.7635 262.33C25.6867 262.291 25.6117 262.247 25.542 262.195L17.7435 256.301L13.9062 254.285L42.2543 313.219C43.8077 313.812 45.396 314.34 47.0137 314.8Z" fill="#49A552"/>
<path d="M92.8983 308.742L115.391 266.863L110.41 269.361L103.534 273.688C103.364 273.83 103.164 273.925 102.951 273.972L85.6523 312.447C88.1709 311.379 90.5913 310.139 92.8983 308.742Z" fill="#69D173"/>
<path d="M85.6528 312.447L102.952 273.972C102.718 274.024 102.47 274.017 102.235 273.945L88.8945 269.828C88.5213 269.713 88.2249 269.449 88.0731 269.11L72.6367 316.226C77.1873 315.469 81.5495 314.187 85.6528 312.447Z" fill="#55B160"/>
<path d="M85.941 260.431L84.4018 256.899L68.9609 316.717C70.2001 316.592 71.4268 316.428 72.6401 316.226L88.0766 269.11C88.0444 269.041 88.0176 268.969 87.9989 268.893L85.941 260.431Z" fill="#49A552"/>
<path d="M73.7962 290.355L56.3242 316.639C58.5125 316.888 60.7391 317.02 62.997 317.02C69.3626 317.02 75.48 316.001 81.1814 314.128L77.2808 291.042C77.0013 289.389 74.7363 288.942 73.7962 290.355Z" fill="#69D173"/>
<path d="M69.1914 316.692C73.3402 316.254 77.3524 315.384 81.1781 314.128L77.2774 291.042C77.1301 290.173 76.4329 289.641 75.6695 289.534L69.1914 316.692Z" fill="#7CDD83"/>
<path d="M76.7694 310.268C74.4866 310.825 72.3269 309.8 71.2422 308.093L69.1914 316.691C73.3402 316.254 77.3524 315.384 81.1781 314.128L80.1103 307.809C79.4648 308.978 78.3238 309.885 76.8918 310.238C76.8516 310.248 76.8105 310.258 76.7694 310.268Z" fill="#69D173"/>
<path d="M36.2018 295.391L33.8672 309.203C39.7391 312.634 46.3217 315.057 53.3542 316.225L39.1222 294.815C38.3347 293.631 36.4358 294.005 36.2018 295.391Z" fill="#7CDD83"/>
<path d="M115.578 265.058L104.021 250.811C103.669 250.37 103.069 250.186 102.516 250.347L85.3437 255.328C84.6447 255.531 84.2304 256.218 84.3956 256.899L87.4481 269.448C87.5579 269.902 87.9087 270.267 88.373 270.41L102.103 274.647C102.567 274.79 103.075 274.689 103.441 274.383L115.388 266.863C115.938 266.404 116.021 265.614 115.578 265.058Z" fill="#8CED91"/>
<path d="M110.549 269.458L96.3522 265.077C95.8728 264.929 95.5103 264.552 95.3961 264.082L92.7445 253.181L85.3432 255.328C84.6441 255.532 84.2299 256.218 84.3959 256.899L87.4475 269.448C87.5573 269.902 87.9091 270.267 88.3724 270.41L102.103 274.647C102.567 274.79 103.074 274.689 103.441 274.383L111.186 269.509C110.975 269.537 110.758 269.522 110.549 269.458Z" fill="#7CDD83"/>
<path d="M33.8672 309.203C36.475 310.726 39.2231 312.049 42.088 313.154L37.5491 294.127C36.9089 294.217 36.3251 294.662 36.2018 295.391L33.8672 309.203Z" fill="#69D173"/>
<path d="M46.4053 240.877L26.3514 236.245C25.7362 236.098 25.0916 236.331 24.7327 236.831L13.5951 252.322C13.1425 252.952 13.2782 253.811 13.9049 254.286L25.4702 263.026C25.8889 263.342 26.4496 263.425 26.9487 263.244L41.719 257.89C42.2172 257.71 42.5806 257.292 42.6752 256.791L47.5311 242.544C47.6731 241.792 47.1803 241.063 46.4053 240.877Z" fill="#7CDD83"/>
<path d="M25.0487 251.785C24.422 251.311 24.2863 250.452 24.7389 249.822L33.3401 237.859L26.3513 236.245C25.7362 236.098 25.0916 236.331 24.7327 236.831L13.5951 252.322C13.1424 252.952 13.2781 253.81 13.9058 254.285L25.471 263.026C25.8897 263.342 26.4504 263.424 26.9486 263.244L35.9132 259.995L25.0487 251.785Z" fill="#69D173"/>
<path d="M90.0029 302.77L85.6523 312.447C88.1709 311.379 90.5913 310.139 92.8983 308.742L98.0131 299.218C90.8475 307.607 90.0029 302.77 90.0029 302.77Z" fill="#55B160"/>
<path d="M78.5078 298.307L81.1808 314.128C82.7022 313.628 84.194 313.066 85.6528 312.447L90.0034 302.77C80.3577 305.336 78.5078 298.307 78.5078 298.307Z" fill="#49A552"/>
<circle cx="18.5" cy="350.5" r="11.5" fill="#9F3EDA"/>
<path d="M39.264 343.552H41.456V354H39.264V343.552ZM43.8068 346.08H45.5828L45.7428 347.104H45.8068C46.1908 346.731 46.5854 346.437 46.9908 346.224C47.4068 346 47.8654 345.888 48.3668 345.888C49.1988 345.888 49.8121 346.165 50.2068 346.72C50.6121 347.264 50.8148 348.048 50.8148 349.072V354H48.6228V349.344C48.6228 348.757 48.5374 348.347 48.3668 348.112C48.2068 347.877 47.9401 347.76 47.5668 347.76C47.2681 347.76 47.0068 347.824 46.7828 347.952C46.5588 348.08 46.2921 348.293 45.9828 348.592V354H43.8068V346.08ZM55.7005 354.192C54.7085 354.192 53.9192 353.824 53.3325 353.088C52.7565 352.352 52.4685 351.339 52.4685 350.048C52.4685 349.216 52.6232 348.485 52.9325 347.856C53.2418 347.227 53.6472 346.741 54.1485 346.4C54.6605 346.059 55.1992 345.888 55.7645 345.888C56.1805 345.888 56.5378 345.957 56.8365 346.096C57.1352 346.235 57.4392 346.448 57.7485 346.736L57.6685 345.504V342.752H59.8605V354H58.0685L57.9085 353.184H57.8605C57.5618 353.483 57.2205 353.728 56.8365 353.92C56.4632 354.101 56.0845 354.192 55.7005 354.192ZM56.2605 352.4C56.5378 352.4 56.7885 352.341 57.0125 352.224C57.2365 352.096 57.4552 351.899 57.6685 351.632V348.24C57.2632 347.867 56.7938 347.68 56.2605 347.68C55.8232 347.68 55.4552 347.883 55.1565 348.288C54.8578 348.693 54.7085 349.269 54.7085 350.016C54.7085 350.805 54.8418 351.403 55.1085 351.808C55.3752 352.203 55.7592 352.4 56.2605 352.4ZM64.3935 354.192C63.5615 354.192 62.9428 353.92 62.5375 353.376C62.1428 352.821 61.9455 352.032 61.9455 351.008V346.08H64.1215V350.736C64.1215 351.312 64.2068 351.723 64.3775 351.968C64.5482 352.203 64.8202 352.32 65.1935 352.32C65.5028 352.32 65.7642 352.251 65.9775 352.112C66.2015 351.963 66.4468 351.717 66.7135 351.376V346.08H68.8895V354H67.1135L66.9535 352.88H66.8895C66.5268 353.307 66.1482 353.632 65.7535 353.856C65.3588 354.08 64.9055 354.192 64.3935 354.192ZM73.3604 354.192C72.8484 354.192 72.315 354.091 71.7604 353.888C71.2164 353.685 70.7417 353.419 70.3364 353.088L71.3284 351.712C71.7017 352 72.0537 352.213 72.3844 352.352C72.7257 352.491 73.0724 352.56 73.4244 352.56C73.787 352.56 74.059 352.496 74.2404 352.368C74.4217 352.229 74.5124 352.037 74.5124 351.792C74.5124 351.621 74.4377 351.472 74.2884 351.344C74.1497 351.216 73.947 351.099 73.6804 350.992C73.4137 350.875 73.147 350.763 72.8804 350.656C72.251 350.411 71.7337 350.112 71.3284 349.76C70.9337 349.397 70.7364 348.923 70.7364 348.336C70.7364 347.611 71.0084 347.024 71.5524 346.576C72.0964 346.117 72.8164 345.888 73.7124 345.888C74.6937 345.888 75.6057 346.219 76.4484 346.88L75.4724 348.192C74.843 347.744 74.2777 347.52 73.7764 347.52C73.4457 347.52 73.195 347.584 73.0244 347.712C72.8644 347.84 72.7844 348.011 72.7844 348.224C72.7844 348.437 72.891 348.613 73.1044 348.752C73.3177 348.88 73.563 348.992 73.8404 349.088C74.1177 349.184 74.299 349.248 74.3844 349.28C75.0564 349.525 75.5844 349.824 75.9684 350.176C76.363 350.517 76.5604 351.013 76.5604 351.664C76.5604 352.144 76.4324 352.576 76.1764 352.96C75.931 353.333 75.5684 353.632 75.0884 353.856C74.6084 354.08 74.0324 354.192 73.3604 354.192ZM80.8918 354.192C79.9744 354.192 79.3024 353.931 78.8758 353.408C78.4491 352.875 78.2358 352.133 78.2358 351.184V347.808H77.1318V346.176L78.3478 346.08L78.6038 343.968H80.4118V346.08H82.3478V347.808H80.4118V351.168C80.4118 352.032 80.7638 352.464 81.4678 352.464C81.6918 352.464 81.9531 352.411 82.2518 352.304L82.6038 353.904C82.0278 354.096 81.4571 354.192 80.8918 354.192ZM83.9474 346.08H85.7234L85.8834 347.472H85.9474C86.2247 346.96 86.5607 346.571 86.9554 346.304C87.3607 346.027 87.7714 345.888 88.1874 345.888C88.5607 345.888 88.87 345.941 89.1154 346.048L88.7474 347.936C88.7154 347.925 88.6194 347.904 88.4594 347.872C88.2994 347.829 88.118 347.808 87.9154 347.808C87.574 347.808 87.2434 347.931 86.9234 348.176C86.6034 348.421 86.3367 348.805 86.1234 349.328V354H83.9474V346.08ZM90.1818 346.08H92.3578V354H90.1818V346.08ZM91.2698 344.848C90.9071 344.848 90.6084 344.741 90.3738 344.528C90.1498 344.304 90.0378 344.021 90.0378 343.68C90.0378 343.339 90.1498 343.061 90.3738 342.848C90.6084 342.624 90.9071 342.512 91.2698 342.512C91.6324 342.512 91.9258 342.624 92.1498 342.848C92.3844 343.061 92.5018 343.339 92.5018 343.68C92.5018 344.021 92.3844 344.304 92.1498 344.528C91.9258 344.741 91.6324 344.848 91.2698 344.848ZM96.5091 354.192C95.8051 354.192 95.2345 353.968 94.7971 353.52C94.3705 353.072 94.1571 352.507 94.1571 351.824C94.1571 350.981 94.5145 350.331 95.2291 349.872C95.9438 349.403 97.0905 349.083 98.6691 348.912C98.6371 348.059 98.1998 347.632 97.3571 347.632C97.0265 347.632 96.6905 347.696 96.3491 347.824C96.0078 347.952 95.6345 348.133 95.2291 348.368L94.4451 346.928C95.5651 346.235 96.6745 345.888 97.7731 345.888C98.7865 345.888 99.5545 346.187 100.077 346.784C100.6 347.371 100.861 348.251 100.861 349.424V354H99.0691L98.9091 353.168H98.8611C98.0718 353.851 97.2878 354.192 96.5091 354.192ZM97.2291 352.496C97.4958 352.496 97.7358 352.437 97.9491 352.32C98.1731 352.192 98.4131 352.005 98.6691 351.76V350.24C97.8051 350.357 97.1865 350.533 96.8131 350.768C96.4398 351.003 96.2531 351.296 96.2531 351.648C96.2531 351.925 96.3385 352.139 96.5091 352.288C96.6798 352.427 96.9198 352.496 97.2291 352.496ZM108.935 354.192C107.943 354.192 107.154 353.824 106.567 353.088C105.991 352.352 105.703 351.339 105.703 350.048C105.703 349.216 105.858 348.485 106.167 347.856C106.476 347.227 106.882 346.741 107.383 346.4C107.895 346.059 108.434 345.888 108.999 345.888C109.415 345.888 109.772 345.957 110.071 346.096C110.37 346.235 110.674 346.448 110.983 346.736L110.903 345.504V342.752H113.095V354H111.303L111.143 353.184H111.095C110.796 353.483 110.455 353.728 110.071 353.92C109.698 354.101 109.319 354.192 108.935 354.192ZM109.495 352.4C109.772 352.4 110.023 352.341 110.247 352.224C110.471 352.096 110.69 351.899 110.903 351.632V348.24C110.498 347.867 110.028 347.68 109.495 347.68C109.058 347.68 108.69 347.883 108.391 348.288C108.092 348.693 107.943 349.269 107.943 350.016C107.943 350.805 108.076 351.403 108.343 351.808C108.61 352.203 108.994 352.4 109.495 352.4ZM121.82 349.68C121.82 350.085 121.788 350.416 121.724 350.672H116.828C116.935 351.301 117.191 351.765 117.596 352.064C118.012 352.363 118.492 352.512 119.036 352.512C119.601 352.512 120.188 352.336 120.796 351.984L121.516 353.312C121.121 353.589 120.679 353.808 120.188 353.968C119.708 354.117 119.228 354.192 118.748 354.192C118.001 354.192 117.324 354.027 116.716 353.696C116.119 353.365 115.644 352.885 115.292 352.256C114.951 351.627 114.78 350.891 114.78 350.048C114.78 349.216 114.951 348.485 115.292 347.856C115.644 347.227 116.103 346.741 116.668 346.4C117.233 346.059 117.836 345.888 118.476 345.888C119.553 345.888 120.38 346.24 120.956 346.944C121.532 347.637 121.82 348.549 121.82 349.68ZM119.948 349.216C119.948 348.704 119.831 348.304 119.596 348.016C119.361 347.717 119.004 347.568 118.524 347.568C118.129 347.568 117.777 347.707 117.468 347.984C117.169 348.251 116.967 348.661 116.86 349.216H119.948ZM41.12 375.192C40.4053 375.192 39.888 374.973 39.568 374.536C39.248 374.099 39.088 373.48 39.088 372.68V363.752H41.264V372.776C41.264 373 41.3067 373.165 41.392 373.272C41.4773 373.368 41.5733 373.416 41.68 373.416C41.7867 373.416 41.8827 373.405 41.968 373.384L42.24 375.016C41.9307 375.133 41.5573 375.192 41.12 375.192ZM46.932 375.192C46.2493 375.192 45.6147 375.027 45.028 374.696C44.452 374.365 43.988 373.885 43.636 373.256C43.284 372.627 43.108 371.891 43.108 371.048C43.108 370.195 43.284 369.453 43.636 368.824C43.988 368.195 44.452 367.715 45.028 367.384C45.6147 367.053 46.2493 366.888 46.932 366.888C47.604 366.888 48.2333 367.053 48.82 367.384C49.4067 367.715 49.876 368.2 50.228 368.84C50.58 369.469 50.756 370.205 50.756 371.048C50.756 371.891 50.58 372.627 50.228 373.256C49.876 373.885 49.4067 374.365 48.82 374.696C48.2333 375.027 47.604 375.192 46.932 375.192ZM46.932 373.416C47.4333 373.416 47.8227 373.208 48.1 372.792C48.3773 372.365 48.516 371.784 48.516 371.048C48.516 370.312 48.3773 369.731 48.1 369.304C47.8227 368.877 47.4333 368.664 46.932 368.664C46.42 368.664 46.0253 368.877 45.748 369.304C45.4813 369.731 45.348 370.312 45.348 371.048C45.348 371.784 45.4813 372.365 45.748 372.792C46.0253 373.208 46.42 373.416 46.932 373.416ZM54.6416 375.192C54.1296 375.192 53.5963 375.091 53.0416 374.888C52.4976 374.685 52.023 374.419 51.6176 374.088L52.6096 372.712C52.983 373 53.335 373.213 53.6656 373.352C54.007 373.491 54.3536 373.56 54.7056 373.56C55.0683 373.56 55.3403 373.496 55.5216 373.368C55.703 373.229 55.7936 373.037 55.7936 372.792C55.7936 372.621 55.719 372.472 55.5696 372.344C55.431 372.216 55.2283 372.099 54.9616 371.992C54.695 371.875 54.4283 371.763 54.1616 371.656C53.5323 371.411 53.015 371.112 52.6096 370.76C52.215 370.397 52.0176 369.923 52.0176 369.336C52.0176 368.611 52.2896 368.024 52.8336 367.576C53.3776 367.117 54.0976 366.888 54.9936 366.888C55.975 366.888 56.887 367.219 57.7296 367.88L56.7536 369.192C56.1243 368.744 55.559 368.52 55.0576 368.52C54.727 368.52 54.4763 368.584 54.3056 368.712C54.1456 368.84 54.0656 369.011 54.0656 369.224C54.0656 369.437 54.1723 369.613 54.3856 369.752C54.599 369.88 54.8443 369.992 55.1216 370.088C55.399 370.184 55.5803 370.248 55.6656 370.28C56.3376 370.525 56.8656 370.824 57.2496 371.176C57.6443 371.517 57.8416 372.013 57.8416 372.664C57.8416 373.144 57.7136 373.576 57.4576 373.96C57.2123 374.333 56.8496 374.632 56.3696 374.856C55.8896 375.08 55.3136 375.192 54.6416 375.192ZM62.588 367.08H64.364L64.524 368.12H64.588C64.972 367.725 65.3507 367.421 65.724 367.208C66.0973 366.995 66.5187 366.888 66.988 366.888C67.5427 366.888 67.996 367.005 68.348 367.24C68.7 367.464 68.9773 367.8 69.18 368.248C69.5853 367.821 69.9853 367.491 70.38 367.256C70.7747 367.011 71.2067 366.888 71.676 366.888C72.508 366.888 73.1267 367.165 73.532 367.72C73.9373 368.275 74.14 369.059 74.14 370.072V375H71.964V370.344C71.964 369.768 71.8787 369.363 71.708 369.128C71.548 368.883 71.2813 368.76 70.908 368.76C70.4813 368.76 69.996 369.037 69.452 369.592V375H67.276V370.344C67.276 369.768 67.1907 369.363 67.02 369.128C66.86 368.883 66.5933 368.76 66.22 368.76C65.7933 368.76 65.308 369.037 64.764 369.592V375H62.588V367.08ZM76.2286 367.08H78.4046V375H76.2286V367.08ZM77.3166 365.848C76.954 365.848 76.6553 365.741 76.4206 365.528C76.1966 365.304 76.0846 365.021 76.0846 364.68C76.0846 364.339 76.1966 364.061 76.4206 363.848C76.6553 363.624 76.954 363.512 77.3166 363.512C77.6793 363.512 77.9726 363.624 78.1966 363.848C78.4313 364.061 78.5486 364.339 78.5486 364.68C78.5486 365.021 78.4313 365.304 78.1966 365.528C77.9726 365.741 77.6793 365.848 77.3166 365.848ZM80.588 367.08H82.364L82.524 368.104H82.588C82.972 367.731 83.3667 367.437 83.772 367.224C84.188 367 84.6467 366.888 85.148 366.888C85.98 366.888 86.5933 367.165 86.988 367.72C87.3933 368.264 87.596 369.048 87.596 370.072V375H85.404V370.344C85.404 369.757 85.3187 369.347 85.148 369.112C84.988 368.877 84.7213 368.76 84.348 368.76C84.0493 368.76 83.788 368.824 83.564 368.952C83.34 369.08 83.0733 369.293 82.764 369.592V375H80.588V367.08ZM96.2418 370.68C96.2418 371.085 96.2098 371.416 96.1458 371.672H91.2498C91.3564 372.301 91.6124 372.765 92.0178 373.064C92.4338 373.363 92.9138 373.512 93.4578 373.512C94.0231 373.512 94.6098 373.336 95.2178 372.984L95.9378 374.312C95.5431 374.589 95.1004 374.808 94.6098 374.968C94.1298 375.117 93.6498 375.192 93.1698 375.192C92.4231 375.192 91.7458 375.027 91.1378 374.696C90.5404 374.365 90.0658 373.885 89.7138 373.256C89.3724 372.627 89.2018 371.891 89.2018 371.048C89.2018 370.216 89.3724 369.485 89.7138 368.856C90.0658 368.227 90.5244 367.741 91.0898 367.4C91.6551 367.059 92.2578 366.888 92.8978 366.888C93.9751 366.888 94.8018 367.24 95.3778 367.944C95.9538 368.637 96.2418 369.549 96.2418 370.68ZM94.3698 370.216C94.3698 369.704 94.2524 369.304 94.0178 369.016C93.7831 368.717 93.4258 368.568 92.9458 368.568C92.5511 368.568 92.1991 368.707 91.8898 368.984C91.5911 369.251 91.3884 369.661 91.2818 370.216H94.3698ZM97.9005 367.08H99.6765L99.8365 368.472H99.9005C100.178 367.96 100.514 367.571 100.909 367.304C101.314 367.027 101.725 366.888 102.141 366.888C102.514 366.888 102.823 366.941 103.069 367.048L102.701 368.936C102.669 368.925 102.573 368.904 102.413 368.872C102.253 368.829 102.071 368.808 101.869 368.808C101.527 368.808 101.197 368.931 100.877 369.176C100.557 369.421 100.29 369.805 100.077 370.328V375H97.9005V367.08ZM105.65 375.192C104.946 375.192 104.375 374.968 103.938 374.52C103.511 374.072 103.298 373.507 103.298 372.824C103.298 371.981 103.655 371.331 104.37 370.872C105.084 370.403 106.231 370.083 107.81 369.912C107.778 369.059 107.34 368.632 106.498 368.632C106.167 368.632 105.831 368.696 105.49 368.824C105.148 368.952 104.775 369.133 104.37 369.368L103.586 367.928C104.706 367.235 105.815 366.888 106.914 366.888C107.927 366.888 108.695 367.187 109.218 367.784C109.74 368.371 110.002 369.251 110.002 370.424V375H108.21L108.05 374.168H108.002C107.212 374.851 106.428 375.192 105.65 375.192ZM106.37 373.496C106.636 373.496 106.876 373.437 107.09 373.32C107.314 373.192 107.554 373.005 107.81 372.76V371.24C106.946 371.357 106.327 371.533 105.954 371.768C105.58 372.003 105.394 372.296 105.394 372.648C105.394 372.925 105.479 373.139 105.65 373.288C105.82 373.427 106.06 373.496 106.37 373.496ZM114.104 375.192C113.39 375.192 112.872 374.973 112.552 374.536C112.232 374.099 112.072 373.48 112.072 372.68V363.752H114.248V372.776C114.248 373 114.291 373.165 114.376 373.272C114.462 373.368 114.558 373.416 114.664 373.416C114.771 373.416 114.867 373.405 114.952 373.384L115.224 375.016C114.915 375.133 114.542 375.192 114.104 375.192ZM123.132 370.68C123.132 371.085 123.1 371.416 123.036 371.672H118.14C118.247 372.301 118.503 372.765 118.908 373.064C119.324 373.363 119.804 373.512 120.348 373.512C120.914 373.512 121.5 373.336 122.108 372.984L122.828 374.312C122.434 374.589 121.991 374.808 121.5 374.968C121.02 375.117 120.54 375.192 120.06 375.192C119.314 375.192 118.636 375.027 118.028 374.696C117.431 374.365 116.956 373.885 116.604 373.256C116.263 372.627 116.092 371.891 116.092 371.048C116.092 370.216 116.263 369.485 116.604 368.856C116.956 368.227 117.415 367.741 117.98 367.4C118.546 367.059 119.148 366.888 119.788 366.888C120.866 366.888 121.692 367.24 122.268 367.944C122.844 368.637 123.132 369.549 123.132 370.68ZM121.26 370.216C121.26 369.704 121.143 369.304 120.908 369.016C120.674 368.717 120.316 368.568 119.836 368.568C119.442 368.568 119.09 368.707 118.78 368.984C118.482 369.251 118.279 369.661 118.172 370.216H121.26ZM127.079 375.192C126.567 375.192 126.034 375.091 125.479 374.888C124.935 374.685 124.46 374.419 124.055 374.088L125.047 372.712C125.42 373 125.772 373.213 126.103 373.352C126.444 373.491 126.791 373.56 127.143 373.56C127.506 373.56 127.778 373.496 127.959 373.368C128.14 373.229 128.231 373.037 128.231 372.792C128.231 372.621 128.156 372.472 128.007 372.344C127.868 372.216 127.666 372.099 127.399 371.992C127.132 371.875 126.866 371.763 126.599 371.656C125.97 371.411 125.452 371.112 125.047 370.76C124.652 370.397 124.455 369.923 124.455 369.336C124.455 368.611 124.727 368.024 125.271 367.576C125.815 367.117 126.535 366.888 127.431 366.888C128.412 366.888 129.324 367.219 130.167 367.88L129.191 369.192C128.562 368.744 127.996 368.52 127.495 368.52C127.164 368.52 126.914 368.584 126.743 368.712C126.583 368.84 126.503 369.011 126.503 369.224C126.503 369.437 126.61 369.613 126.823 369.752C127.036 369.88 127.282 369.992 127.559 370.088C127.836 370.184 128.018 370.248 128.103 370.28C128.775 370.525 129.303 370.824 129.687 371.176C130.082 371.517 130.279 372.013 130.279 372.664C130.279 373.144 130.151 373.576 129.895 373.96C129.65 374.333 129.287 374.632 128.807 374.856C128.327 375.08 127.751 375.192 127.079 375.192Z" fill="white"/>
<ellipse cx="221.815" cy="55.8161" rx="55.8154" ry="55.8161" fill="#FF5B5B"/>
<mask id="mask1" mask-type="alpha" maskUnits="userSpaceOnUse" x="166" y="0" width="113" height="113">
<ellipse cx="222.027" cy="56.0236" rx="55.9958" ry="55.9965" fill="#FF5B5B"/>
</mask>
<g mask="url(#mask1)">
<path d="M230.088 39.1721L237.581 37.8512L235.172 24.1954L227.687 25.5163C226.651 23.0478 225.309 20.7407 223.709 18.6417L228.601 12.8135L217.979 3.90016L213.092 9.72378C210.759 8.51894 208.256 7.59911 205.628 7.00649V-0.594971H191.761V7.00649C189.133 7.59911 186.63 8.51894 184.297 9.72378L179.41 3.90016L168.788 12.8135L173.68 18.6417C172.08 20.7407 170.738 23.0478 169.702 25.5163L162.217 24.1954L159.809 37.8512L167.301 39.1721C167.43 41.8849 167.9 44.5071 168.672 46.9952L162.092 50.7952L169.025 62.8043L175.614 58.9983C177.415 60.9451 179.457 62.6641 181.694 64.1072L179.093 71.2517L192.123 75.9957L194.724 68.8496C196.024 69.0125 197.349 69.0984 198.695 69.0984C200.04 69.0984 201.365 69.0125 202.665 68.8496L205.266 75.9957L218.296 71.2517L215.695 64.1072C217.932 62.6641 219.974 60.9451 221.775 58.9983L228.364 62.8043L235.298 50.7952L228.717 46.9952C229.489 44.5071 229.96 41.8849 230.088 39.1721ZM198.695 52.1508C190.697 52.1508 184.213 45.6667 184.213 37.6687C184.213 29.6691 190.697 23.185 198.695 23.185C206.693 23.185 213.177 29.6691 213.177 37.6687C213.177 45.6667 206.693 52.1508 198.695 52.1508Z" fill="#A8D3D8"/>
<path d="M230.088 39.1721L237.581 37.8512L235.173 24.1954L227.688 25.5163C226.652 23.0478 225.31 20.7407 223.71 18.6417L228.602 12.8135L217.98 3.90016L213.093 9.72378C210.76 8.51894 208.257 7.59911 205.629 7.00649V-0.594971H198.695V23.185C206.693 23.185 213.177 29.6691 213.177 37.6687C213.177 45.6667 206.693 52.1508 198.695 52.1508V69.0984C200.04 69.0984 201.366 69.0125 202.666 68.8496L205.267 75.9957L218.297 71.2517L215.695 64.1072C217.933 62.6641 219.975 60.9451 221.775 58.9983L228.365 62.8043L235.298 50.7952L228.718 46.9952C229.49 44.5071 229.96 41.8849 230.088 39.1721Z" fill="#7DA1B3"/>
<path d="M215.888 69.4289C215.888 72.7402 213.204 75.4245 209.892 75.4245H200.699C189.128 75.4245 179.715 66.0108 179.715 54.4399V51.4421H215.888V69.4289Z" fill="#474F54"/>
<path d="M254.863 75.4243V69.4287H212.895V75.4243C217.853 75.4243 221.888 79.4593 221.888 84.4177C221.888 89.376 217.853 93.411 212.895 93.411V99.4066H254.863V93.411C249.905 93.411 245.87 89.376 245.87 84.4177C245.87 79.4593 249.905 75.4243 254.863 75.4243Z" fill="#474F54"/>
<path d="M245.868 84.4177C245.868 89.376 249.903 93.411 254.861 93.411V99.4066H230.879V69.4287H254.861V75.4243C249.903 75.4243 245.868 79.4593 245.868 84.4177Z" fill="#32393F"/>
<path d="M209.891 45.4463V75.4242H255.057C269.934 75.4242 282.037 63.3211 282.037 48.4441V45.4463H209.891Z" fill="#575F64"/>
<path d="M282.041 45.4463V48.4441C282.041 63.3211 269.938 75.4242 255.061 75.4242H230.879V45.4463H282.041Z" fill="#474F54"/>
<path d="M197.902 93.4109V111.398H269.848V93.4109H197.902Z" fill="#575F64"/>
<path d="M230.879 93.4109H269.85V111.398H230.879V93.4109Z" fill="#474F54"/>
</g>
<path d="M194.264 136.552H196.456V147H194.264V136.552ZM198.807 139.08H200.583L200.743 140.104H200.807C201.191 139.731 201.585 139.437 201.991 139.224C202.407 139 202.865 138.888 203.367 138.888C204.199 138.888 204.812 139.165 205.207 139.72C205.612 140.264 205.815 141.048 205.815 142.072V147H203.623V142.344C203.623 141.757 203.537 141.347 203.367 141.112C203.207 140.877 202.94 140.76 202.567 140.76C202.268 140.76 202.007 140.824 201.783 140.952C201.559 141.08 201.292 141.293 200.983 141.592V147H198.807V139.08ZM210.701 147.192C209.709 147.192 208.919 146.824 208.333 146.088C207.757 145.352 207.469 144.339 207.469 143.048C207.469 142.216 207.623 141.485 207.933 140.856C208.242 140.227 208.647 139.741 209.149 139.4C209.661 139.059 210.199 138.888 210.765 138.888C211.181 138.888 211.538 138.957 211.837 139.096C212.135 139.235 212.439 139.448 212.749 139.736L212.669 138.504V135.752H214.861V147H213.069L212.909 146.184H212.861C212.562 146.483 212.221 146.728 211.837 146.92C211.463 147.101 211.085 147.192 210.701 147.192ZM211.261 145.4C211.538 145.4 211.789 145.341 212.013 145.224C212.237 145.096 212.455 144.899 212.669 144.632V141.24C212.263 140.867 211.794 140.68 211.261 140.68C210.823 140.68 210.455 140.883 210.157 141.288C209.858 141.693 209.709 142.269 209.709 143.016C209.709 143.805 209.842 144.403 210.109 144.808C210.375 145.203 210.759 145.4 211.261 145.4ZM219.394 147.192C218.562 147.192 217.943 146.92 217.538 146.376C217.143 145.821 216.946 145.032 216.946 144.008V139.08H219.122V143.736C219.122 144.312 219.207 144.723 219.378 144.968C219.548 145.203 219.82 145.32 220.194 145.32C220.503 145.32 220.764 145.251 220.978 145.112C221.202 144.963 221.447 144.717 221.714 144.376V139.08H223.89V147H222.114L221.954 145.88H221.89C221.527 146.307 221.148 146.632 220.754 146.856C220.359 147.08 219.906 147.192 219.394 147.192ZM228.36 147.192C227.848 147.192 227.315 147.091 226.76 146.888C226.216 146.685 225.742 146.419 225.336 146.088L226.328 144.712C226.702 145 227.054 145.213 227.384 145.352C227.726 145.491 228.072 145.56 228.424 145.56C228.787 145.56 229.059 145.496 229.24 145.368C229.422 145.229 229.512 145.037 229.512 144.792C229.512 144.621 229.438 144.472 229.288 144.344C229.15 144.216 228.947 144.099 228.68 143.992C228.414 143.875 228.147 143.763 227.88 143.656C227.251 143.411 226.734 143.112 226.328 142.76C225.934 142.397 225.736 141.923 225.736 141.336C225.736 140.611 226.008 140.024 226.552 139.576C227.096 139.117 227.816 138.888 228.712 138.888C229.694 138.888 230.606 139.219 231.448 139.88L230.472 141.192C229.843 140.744 229.278 140.52 228.776 140.52C228.446 140.52 228.195 140.584 228.024 140.712C227.864 140.84 227.784 141.011 227.784 141.224C227.784 141.437 227.891 141.613 228.104 141.752C228.318 141.88 228.563 141.992 228.84 142.088C229.118 142.184 229.299 142.248 229.384 142.28C230.056 142.525 230.584 142.824 230.968 143.176C231.363 143.517 231.56 144.013 231.56 144.664C231.56 145.144 231.432 145.576 231.176 145.96C230.931 146.333 230.568 146.632 230.088 146.856C229.608 147.08 229.032 147.192 228.36 147.192ZM235.892 147.192C234.974 147.192 234.302 146.931 233.876 146.408C233.449 145.875 233.236 145.133 233.236 144.184V140.808H232.132V139.176L233.348 139.08L233.604 136.968H235.412V139.08H237.348V140.808H235.412V144.168C235.412 145.032 235.764 145.464 236.468 145.464C236.692 145.464 236.953 145.411 237.252 145.304L237.604 146.904C237.028 147.096 236.457 147.192 235.892 147.192ZM238.947 139.08H240.723L240.883 140.472H240.947C241.225 139.96 241.561 139.571 241.955 139.304C242.361 139.027 242.771 138.888 243.187 138.888C243.561 138.888 243.87 138.941 244.115 139.048L243.747 140.936C243.715 140.925 243.619 140.904 243.459 140.872C243.299 140.829 243.118 140.808 242.915 140.808C242.574 140.808 242.243 140.931 241.923 141.176C241.603 141.421 241.337 141.805 241.123 142.328V147H238.947V139.08ZM245.182 139.08H247.358V147H245.182V139.08ZM246.27 137.848C245.907 137.848 245.608 137.741 245.374 137.528C245.15 137.304 245.038 137.021 245.038 136.68C245.038 136.339 245.15 136.061 245.374 135.848C245.608 135.624 245.907 135.512 246.27 135.512C246.632 135.512 246.926 135.624 247.15 135.848C247.384 136.061 247.502 136.339 247.502 136.68C247.502 137.021 247.384 137.304 247.15 137.528C246.926 137.741 246.632 137.848 246.27 137.848ZM251.509 147.192C250.805 147.192 250.234 146.968 249.797 146.52C249.37 146.072 249.157 145.507 249.157 144.824C249.157 143.981 249.514 143.331 250.229 142.872C250.944 142.403 252.09 142.083 253.669 141.912C253.637 141.059 253.2 140.632 252.357 140.632C252.026 140.632 251.69 140.696 251.349 140.824C251.008 140.952 250.634 141.133 250.229 141.368L249.445 139.928C250.565 139.235 251.674 138.888 252.773 138.888C253.786 138.888 254.554 139.187 255.077 139.784C255.6 140.371 255.861 141.251 255.861 142.424V147H254.069L253.909 146.168H253.861C253.072 146.851 252.288 147.192 251.509 147.192ZM252.229 145.496C252.496 145.496 252.736 145.437 252.949 145.32C253.173 145.192 253.413 145.005 253.669 144.76V143.24C252.805 143.357 252.186 143.533 251.813 143.768C251.44 144.003 251.253 144.296 251.253 144.648C251.253 144.925 251.338 145.139 251.509 145.288C251.68 145.427 251.92 145.496 252.229 145.496ZM263.935 147.192C262.943 147.192 262.154 146.824 261.567 146.088C260.991 145.352 260.703 144.339 260.703 143.048C260.703 142.216 260.858 141.485 261.167 140.856C261.476 140.227 261.882 139.741 262.383 139.4C262.895 139.059 263.434 138.888 263.999 138.888C264.415 138.888 264.772 138.957 265.071 139.096C265.37 139.235 265.674 139.448 265.983 139.736L265.903 138.504V135.752H268.095V147H266.303L266.143 146.184H266.095C265.796 146.483 265.455 146.728 265.071 146.92C264.698 147.101 264.319 147.192 263.935 147.192ZM264.495 145.4C264.772 145.4 265.023 145.341 265.247 145.224C265.471 145.096 265.69 144.899 265.903 144.632V141.24C265.498 140.867 265.028 140.68 264.495 140.68C264.058 140.68 263.69 140.883 263.391 141.288C263.092 141.693 262.943 142.269 262.943 143.016C262.943 143.805 263.076 144.403 263.343 144.808C263.61 145.203 263.994 145.4 264.495 145.4ZM276.82 142.68C276.82 143.085 276.788 143.416 276.724 143.672H271.828C271.935 144.301 272.191 144.765 272.596 145.064C273.012 145.363 273.492 145.512 274.036 145.512C274.601 145.512 275.188 145.336 275.796 144.984L276.516 146.312C276.121 146.589 275.679 146.808 275.188 146.968C274.708 147.117 274.228 147.192 273.748 147.192C273.001 147.192 272.324 147.027 271.716 146.696C271.119 146.365 270.644 145.885 270.292 145.256C269.951 144.627 269.78 143.891 269.78 143.048C269.78 142.216 269.951 141.485 270.292 140.856C270.644 140.227 271.103 139.741 271.668 139.4C272.233 139.059 272.836 138.888 273.476 138.888C274.553 138.888 275.38 139.24 275.956 139.944C276.532 140.637 276.82 141.549 276.82 142.68ZM274.948 142.216C274.948 141.704 274.831 141.304 274.596 141.016C274.361 140.717 274.004 140.568 273.524 140.568C273.129 140.568 272.777 140.707 272.468 140.984C272.169 141.251 271.967 141.661 271.86 142.216H274.948ZM196.12 168.192C195.405 168.192 194.888 167.973 194.568 167.536C194.248 167.099 194.088 166.48 194.088 165.68V156.752H196.264V165.776C196.264 166 196.307 166.165 196.392 166.272C196.477 166.368 196.573 166.416 196.68 166.416C196.787 166.416 196.883 166.405 196.968 166.384L197.24 168.016C196.931 168.133 196.557 168.192 196.12 168.192ZM201.932 168.192C201.249 168.192 200.615 168.027 200.028 167.696C199.452 167.365 198.988 166.885 198.636 166.256C198.284 165.627 198.108 164.891 198.108 164.048C198.108 163.195 198.284 162.453 198.636 161.824C198.988 161.195 199.452 160.715 200.028 160.384C200.615 160.053 201.249 159.888 201.932 159.888C202.604 159.888 203.233 160.053 203.82 160.384C204.407 160.715 204.876 161.2 205.228 161.84C205.58 162.469 205.756 163.205 205.756 164.048C205.756 164.891 205.58 165.627 205.228 166.256C204.876 166.885 204.407 167.365 203.82 167.696C203.233 168.027 202.604 168.192 201.932 168.192ZM201.932 166.416C202.433 166.416 202.823 166.208 203.1 165.792C203.377 165.365 203.516 164.784 203.516 164.048C203.516 163.312 203.377 162.731 203.1 162.304C202.823 161.877 202.433 161.664 201.932 161.664C201.42 161.664 201.025 161.877 200.748 162.304C200.481 162.731 200.348 163.312 200.348 164.048C200.348 164.784 200.481 165.365 200.748 165.792C201.025 166.208 201.42 166.416 201.932 166.416ZM209.642 168.192C209.13 168.192 208.596 168.091 208.042 167.888C207.498 167.685 207.023 167.419 206.618 167.088L207.61 165.712C207.983 166 208.335 166.213 208.666 166.352C209.007 166.491 209.354 166.56 209.706 166.56C210.068 166.56 210.34 166.496 210.522 166.368C210.703 166.229 210.794 166.037 210.794 165.792C210.794 165.621 210.719 165.472 210.57 165.344C210.431 165.216 210.228 165.099 209.962 164.992C209.695 164.875 209.428 164.763 209.162 164.656C208.532 164.411 208.015 164.112 207.61 163.76C207.215 163.397 207.018 162.923 207.018 162.336C207.018 161.611 207.29 161.024 207.834 160.576C208.378 160.117 209.098 159.888 209.994 159.888C210.975 159.888 211.887 160.219 212.73 160.88L211.754 162.192C211.124 161.744 210.559 161.52 210.058 161.52C209.727 161.52 209.476 161.584 209.306 161.712C209.146 161.84 209.066 162.011 209.066 162.224C209.066 162.437 209.172 162.613 209.386 162.752C209.599 162.88 209.844 162.992 210.122 163.088C210.399 163.184 210.58 163.248 210.666 163.28C211.338 163.525 211.866 163.824 212.25 164.176C212.644 164.517 212.842 165.013 212.842 165.664C212.842 166.144 212.714 166.576 212.458 166.96C212.212 167.333 211.85 167.632 211.37 167.856C210.89 168.08 210.314 168.192 209.642 168.192ZM217.588 160.08H219.364L219.524 161.12H219.588C219.972 160.725 220.351 160.421 220.724 160.208C221.097 159.995 221.519 159.888 221.988 159.888C222.543 159.888 222.996 160.005 223.348 160.24C223.7 160.464 223.977 160.8 224.18 161.248C224.585 160.821 224.985 160.491 225.38 160.256C225.775 160.011 226.207 159.888 226.676 159.888C227.508 159.888 228.127 160.165 228.532 160.72C228.937 161.275 229.14 162.059 229.14 163.072V168H226.964V163.344C226.964 162.768 226.879 162.363 226.708 162.128C226.548 161.883 226.281 161.76 225.908 161.76C225.481 161.76 224.996 162.037 224.452 162.592V168H222.276V163.344C222.276 162.768 222.191 162.363 222.02 162.128C221.86 161.883 221.593 161.76 221.22 161.76C220.793 161.76 220.308 162.037 219.764 162.592V168H217.588V160.08ZM237.789 163.68C237.789 164.085 237.757 164.416 237.693 164.672H232.797C232.903 165.301 233.159 165.765 233.565 166.064C233.981 166.363 234.461 166.512 235.005 166.512C235.57 166.512 236.157 166.336 236.765 165.984L237.485 167.312C237.09 167.589 236.647 167.808 236.157 167.968C235.677 168.117 235.197 168.192 234.717 168.192C233.97 168.192 233.293 168.027 232.685 167.696C232.087 167.365 231.613 166.885 231.261 166.256C230.919 165.627 230.749 164.891 230.749 164.048C230.749 163.216 230.919 162.485 231.261 161.856C231.613 161.227 232.071 160.741 232.637 160.4C233.202 160.059 233.805 159.888 234.445 159.888C235.522 159.888 236.349 160.24 236.925 160.944C237.501 161.637 237.789 162.549 237.789 163.68ZM235.917 163.216C235.917 162.704 235.799 162.304 235.565 162.016C235.33 161.717 234.973 161.568 234.493 161.568C234.098 161.568 233.746 161.707 233.437 161.984C233.138 162.251 232.935 162.661 232.829 163.216H235.917ZM242.236 168.192C241.318 168.192 240.646 167.931 240.22 167.408C239.793 166.875 239.58 166.133 239.58 165.184V161.808H238.476V160.176L239.692 160.08L239.948 157.968H241.756V160.08H243.692V161.808H241.756V165.168C241.756 166.032 242.108 166.464 242.812 166.464C243.036 166.464 243.297 166.411 243.596 166.304L243.948 167.904C243.372 168.096 242.801 168.192 242.236 168.192ZM246.915 168.192C246.211 168.192 245.641 167.968 245.203 167.52C244.777 167.072 244.563 166.507 244.563 165.824C244.563 164.981 244.921 164.331 245.635 163.872C246.35 163.403 247.497 163.083 249.075 162.912C249.043 162.059 248.606 161.632 247.763 161.632C247.433 161.632 247.097 161.696 246.755 161.824C246.414 161.952 246.041 162.133 245.635 162.368L244.851 160.928C245.971 160.235 247.081 159.888 248.179 159.888C249.193 159.888 249.961 160.187 250.483 160.784C251.006 161.371 251.267 162.251 251.267 163.424V168H249.475L249.315 167.168H249.267C248.478 167.851 247.694 168.192 246.915 168.192ZM247.635 166.496C247.902 166.496 248.142 166.437 248.355 166.32C248.579 166.192 248.819 166.005 249.075 165.76V164.24C248.211 164.357 247.593 164.533 247.219 164.768C246.846 165.003 246.659 165.296 246.659 165.648C246.659 165.925 246.745 166.139 246.915 166.288C247.086 166.427 247.326 166.496 247.635 166.496ZM255.37 168.192C254.655 168.192 254.138 167.973 253.818 167.536C253.498 167.099 253.338 166.48 253.338 165.68V156.752H255.514V165.776C255.514 166 255.557 166.165 255.642 166.272C255.727 166.368 255.823 166.416 255.93 166.416C256.037 166.416 256.133 166.405 256.218 166.384L256.49 168.016C256.181 168.133 255.807 168.192 255.37 168.192ZM264.398 163.68C264.398 164.085 264.366 164.416 264.302 164.672H259.406C259.513 165.301 259.769 165.765 260.174 166.064C260.59 166.363 261.07 166.512 261.614 166.512C262.179 166.512 262.766 166.336 263.374 165.984L264.094 167.312C263.699 167.589 263.257 167.808 262.766 167.968C262.286 168.117 261.806 168.192 261.326 168.192C260.579 168.192 259.902 168.027 259.294 167.696C258.697 167.365 258.222 166.885 257.87 166.256C257.529 165.627 257.358 164.891 257.358 164.048C257.358 163.216 257.529 162.485 257.87 161.856C258.222 161.227 258.681 160.741 259.246 160.4C259.811 160.059 260.414 159.888 261.054 159.888C262.131 159.888 262.958 160.24 263.534 160.944C264.11 161.637 264.398 162.549 264.398 163.68ZM262.526 163.216C262.526 162.704 262.409 162.304 262.174 162.016C261.939 161.717 261.582 161.568 261.102 161.568C260.707 161.568 260.355 161.707 260.046 161.984C259.747 162.251 259.545 162.661 259.438 163.216H262.526ZM268.345 168.192C267.833 168.192 267.299 168.091 266.745 167.888C266.201 167.685 265.726 167.419 265.321 167.088L266.313 165.712C266.686 166 267.038 166.213 267.369 166.352C267.71 166.491 268.057 166.56 268.409 166.56C268.771 166.56 269.043 166.496 269.225 166.368C269.406 166.229 269.497 166.037 269.497 165.792C269.497 165.621 269.422 165.472 269.273 165.344C269.134 165.216 268.931 165.099 268.665 164.992C268.398 164.875 268.131 164.763 267.865 164.656C267.235 164.411 266.718 164.112 266.313 163.76C265.918 163.397 265.721 162.923 265.721 162.336C265.721 161.611 265.993 161.024 266.537 160.576C267.081 160.117 267.801 159.888 268.697 159.888C269.678 159.888 270.59 160.219 271.433 160.88L270.457 162.192C269.827 161.744 269.262 161.52 268.761 161.52C268.43 161.52 268.179 161.584 268.009 161.712C267.849 161.84 267.769 162.011 267.769 162.224C267.769 162.437 267.875 162.613 268.089 162.752C268.302 162.88 268.547 162.992 268.825 163.088C269.102 163.184 269.283 163.248 269.369 163.28C270.041 163.525 270.569 163.824 270.953 164.176C271.347 164.517 271.545 165.013 271.545 165.664C271.545 166.144 271.417 166.576 271.161 166.96C270.915 167.333 270.553 167.632 270.073 167.856C269.593 168.08 269.017 168.192 268.345 168.192Z" fill="white"/>
<circle cx="172.5" cy="147.5" r="11.5" fill="#F75A16"/>
<ellipse cx="222.189" cy="265.01" rx="55.8296" ry="56.01" fill="#2DBCF9"/>
<mask id="mask2" mask-type="alpha" maskUnits="userSpaceOnUse" x="166" y="209" width="113" height="112">
<ellipse cx="222.01" cy="265.186" rx="56.01" ry="55.7867" fill="#2DBCF9"/>
</mask>
<g mask="url(#mask2)">
<path d="M260.599 226.856V251.006C260.599 255.836 256.632 259.788 251.783 259.788H153.039C148.19 259.788 144.223 255.836 144.223 251.006V226.856C144.223 222.028 148.19 218.077 153.039 218.077H251.783C256.632 218.077 260.599 222.028 260.599 226.856Z" fill="#B3D8F4"/>
<path d="M260.598 226.856V251.006C260.598 255.836 256.63 259.788 251.781 259.788H160.25C155.401 259.788 151.434 255.836 151.434 251.006V226.856C151.434 222.028 155.401 218.077 160.25 218.077H251.781C256.63 218.077 260.598 222.028 260.598 226.856Z" fill="#D1E7F8"/>
<path d="M260.599 247.933V251.006C260.599 251.302 260.585 251.594 260.557 251.882C260.427 253.152 260.025 254.342 259.409 255.396C257.881 258.017 255.028 259.787 251.783 259.787H153.039C149.794 259.787 146.941 258.017 145.413 255.396C144.796 254.342 144.394 253.152 144.265 251.882C144.237 251.594 144.223 251.302 144.223 251.006V247.933H260.599Z" fill="#78B9EB"/>
<path d="M246.74 240.249C246.74 241.157 246.236 241.949 245.493 242.361C245.145 242.553 244.743 242.664 244.315 242.664C242.977 242.664 241.891 241.584 241.891 240.249C241.891 238.916 242.977 237.834 244.315 237.834C244.743 237.834 245.145 237.944 245.493 238.138C246.236 238.55 246.74 239.342 246.74 240.249Z" fill="#6DC82A"/>
<path d="M256.084 240.249C256.084 241.157 255.58 241.949 254.835 242.361C254.487 242.553 254.085 242.664 253.659 242.664C252.319 242.664 251.234 241.584 251.234 240.249C251.234 238.916 252.318 237.834 253.659 237.834C254.085 237.834 254.487 237.944 254.835 238.138C255.58 238.55 256.084 239.342 256.084 240.249Z" fill="#FF0C38"/>
<path d="M246.743 240.249C246.743 241.157 246.24 241.949 245.497 242.361C244.752 241.949 244.246 241.16 244.246 240.249C244.246 239.34 244.752 238.548 245.497 238.138C246.24 238.55 246.743 239.342 246.743 240.249Z" fill="#91DC5A"/>
<path d="M256.083 240.249C256.083 241.157 255.58 241.949 254.835 242.361C254.089 241.949 253.586 241.16 253.586 240.249C253.586 239.34 254.089 238.548 254.835 238.138C255.58 238.55 256.083 239.342 256.083 240.249Z" fill="#FF3F62"/>
<path d="M209.601 227.938C209.601 228.908 208.811 229.695 207.837 229.695H197.295C196.321 229.695 195.531 228.908 195.531 227.938C195.531 226.968 196.321 226.181 197.295 226.181H207.837C208.81 226.181 209.601 226.968 209.601 227.938Z" fill="#165C92"/>
<path d="M209.602 227.938C209.602 228.908 208.812 229.695 207.838 229.695H204.115C203.142 229.695 202.352 228.908 202.352 227.938C202.352 226.968 203.142 226.181 204.115 226.181H207.838C208.811 226.181 209.602 226.968 209.602 227.938Z" fill="#1A6FB0"/>
<path d="M183.777 253.639C183.777 254.611 182.987 255.396 182.014 255.396H145.413C144.797 254.342 144.395 253.152 144.266 251.883H182.014C182.987 251.883 183.777 252.67 183.777 253.639Z" fill="#3D9AE2"/>
<path d="M260.557 251.883C260.428 253.152 260.026 254.342 259.41 255.396H189.068C188.095 255.396 187.305 254.611 187.305 253.639C187.305 252.67 188.095 251.883 189.068 251.883H260.557V251.883Z" fill="#3D9AE2"/>
<path d="M271.962 280.863H267.291V267.218C267.291 261.279 262.44 256.448 256.477 256.448H248.922V251.795H256.477C265.016 251.795 271.962 258.714 271.962 267.218V280.863Z" fill="#202A58"/>
<path d="M239.414 259.475H246.97C249.938 259.475 252.345 257.078 252.345 254.121C252.345 251.164 249.938 248.767 246.97 248.767H239.414V259.475Z" fill="#E43135"/>
<path d="M277.399 309.886H261.852L263.278 290.795L264.783 288.469L263.625 286.142L263.852 283.101C264.077 280.089 266.594 277.761 269.626 277.761C271.143 277.761 272.529 278.343 273.566 279.302C274.603 280.26 275.288 281.595 275.4 283.101L275.627 286.142L274.388 288.469L275.974 290.795L277.399 309.886Z" fill="#2A4979"/>
<path d="M275.97 290.795H263.273L263.621 286.142H275.623L275.97 290.795Z" fill="#202A58"/>
<path d="M219.355 256.807L232.844 252.333L234.32 256.749L220.832 261.222L219.355 256.807Z" fill="#2A4979"/>
<path d="M241.593 244.731V265.136H230.843V255.44L217.031 250.084V244.731H241.593Z" fill="#2A4979"/>
<path d="M236.219 244.731H241.594V265.136H236.219V244.731Z" fill="#202A58"/>
<path d="M252.343 289.787L250.164 295.141L252.343 300.496V324.136H220.09V300.496L222.27 295.141L220.09 289.787V273.673C220.09 267.758 224.903 262.964 230.842 262.964H241.592C244.56 262.964 247.249 264.163 249.193 266.1C251.14 268.039 252.343 270.716 252.343 273.673V289.787Z" fill="#FD6B53"/>
<path d="M252.346 289.787L250.166 295.141L252.346 300.496V324.136H236.219V262.964H241.594C244.562 262.964 247.251 264.163 249.196 266.1C251.142 268.039 252.346 270.716 252.346 273.673V289.787Z" fill="#E43135"/>
<path d="M220.09 289.787H252.343V300.496H220.09V289.787Z" fill="#F0F7FF"/>
<path d="M236.219 289.787H252.346V300.496H236.219V289.787Z" fill="#DFE7F4"/>
</g>
<path d="M198.312 354.192C196.979 354.192 195.96 353.792 195.256 352.992C194.563 352.192 194.216 350.944 194.216 349.248V343.552H196.408V349.456C196.408 350.469 196.568 351.195 196.888 351.632C197.208 352.069 197.683 352.288 198.312 352.288C198.952 352.288 199.437 352.069 199.768 351.632C200.099 351.195 200.264 350.469 200.264 349.456V343.552H202.376V349.248C202.376 350.944 202.029 352.192 201.336 352.992C200.653 353.792 199.645 354.192 198.312 354.192ZM206.845 354.192C206.333 354.192 205.799 354.091 205.245 353.888C204.701 353.685 204.226 353.419 203.821 353.088L204.813 351.712C205.186 352 205.538 352.213 205.869 352.352C206.21 352.491 206.557 352.56 206.909 352.56C207.271 352.56 207.543 352.496 207.725 352.368C207.906 352.229 207.997 352.037 207.997 351.792C207.997 351.621 207.922 351.472 207.773 351.344C207.634 351.216 207.431 351.099 207.165 350.992C206.898 350.875 206.631 350.763 206.365 350.656C205.735 350.411 205.218 350.112 204.813 349.76C204.418 349.397 204.221 348.923 204.221 348.336C204.221 347.611 204.493 347.024 205.037 346.576C205.581 346.117 206.301 345.888 207.197 345.888C208.178 345.888 209.09 346.219 209.933 346.88L208.957 348.192C208.327 347.744 207.762 347.52 207.261 347.52C206.93 347.52 206.679 347.584 206.509 347.712C206.349 347.84 206.269 348.011 206.269 348.224C206.269 348.437 206.375 348.613 206.589 348.752C206.802 348.88 207.047 348.992 207.325 349.088C207.602 349.184 207.783 349.248 207.869 349.28C208.541 349.525 209.069 349.824 209.453 350.176C209.847 350.517 210.045 351.013 210.045 351.664C210.045 352.144 209.917 352.576 209.661 352.96C209.415 353.333 209.053 353.632 208.573 353.856C208.093 354.08 207.517 354.192 206.845 354.192ZM214.932 354.192C214.249 354.192 213.615 354.027 213.028 353.696C212.452 353.365 211.988 352.885 211.636 352.256C211.284 351.627 211.108 350.891 211.108 350.048C211.108 349.195 211.284 348.453 211.636 347.824C211.988 347.195 212.452 346.715 213.028 346.384C213.615 346.053 214.249 345.888 214.932 345.888C215.604 345.888 216.233 346.053 216.82 346.384C217.407 346.715 217.876 347.2 218.228 347.84C218.58 348.469 218.756 349.205 218.756 350.048C218.756 350.891 218.58 351.627 218.228 352.256C217.876 352.885 217.407 353.365 216.82 353.696C216.233 354.027 215.604 354.192 214.932 354.192ZM214.932 352.416C215.433 352.416 215.823 352.208 216.1 351.792C216.377 351.365 216.516 350.784 216.516 350.048C216.516 349.312 216.377 348.731 216.1 348.304C215.823 347.877 215.433 347.664 214.932 347.664C214.42 347.664 214.025 347.877 213.748 348.304C213.481 348.731 213.348 349.312 213.348 350.048C213.348 350.784 213.481 351.365 213.748 351.792C214.025 352.208 214.42 352.416 214.932 352.416ZM226.435 354.192C225.443 354.192 224.654 353.824 224.067 353.088C223.491 352.352 223.203 351.339 223.203 350.048C223.203 349.216 223.358 348.485 223.667 347.856C223.976 347.227 224.382 346.741 224.883 346.4C225.395 346.059 225.934 345.888 226.499 345.888C226.915 345.888 227.272 345.957 227.571 346.096C227.87 346.235 228.174 346.448 228.483 346.736L228.403 345.504V342.752H230.595V354H228.803L228.643 353.184H228.595C228.296 353.483 227.955 353.728 227.571 353.92C227.198 354.101 226.819 354.192 226.435 354.192ZM226.995 352.4C227.272 352.4 227.523 352.341 227.747 352.224C227.971 352.096 228.19 351.899 228.403 351.632V348.24C227.998 347.867 227.528 347.68 226.995 347.68C226.558 347.68 226.19 347.883 225.891 348.288C225.592 348.693 225.443 349.269 225.443 350.016C225.443 350.805 225.576 351.403 225.843 351.808C226.11 352.203 226.494 352.4 226.995 352.4ZM239.32 349.68C239.32 350.085 239.288 350.416 239.224 350.672H234.328C234.435 351.301 234.691 351.765 235.096 352.064C235.512 352.363 235.992 352.512 236.536 352.512C237.101 352.512 237.688 352.336 238.296 351.984L239.016 353.312C238.621 353.589 238.179 353.808 237.688 353.968C237.208 354.117 236.728 354.192 236.248 354.192C235.501 354.192 234.824 354.027 234.216 353.696C233.619 353.365 233.144 352.885 232.792 352.256C232.451 351.627 232.28 350.891 232.28 350.048C232.28 349.216 232.451 348.485 232.792 347.856C233.144 347.227 233.603 346.741 234.168 346.4C234.733 346.059 235.336 345.888 235.976 345.888C237.053 345.888 237.88 346.24 238.456 346.944C239.032 347.637 239.32 348.549 239.32 349.68ZM237.448 349.216C237.448 348.704 237.331 348.304 237.096 348.016C236.861 347.717 236.504 347.568 236.024 347.568C235.629 347.568 235.277 347.707 234.968 347.984C234.669 348.251 234.467 348.661 234.36 349.216H237.448ZM246.214 354.192C245.499 354.192 244.982 353.973 244.662 353.536C244.342 353.099 244.182 352.48 244.182 351.68V342.752H246.358V351.776C246.358 352 246.4 352.165 246.486 352.272C246.571 352.368 246.667 352.416 246.774 352.416C246.88 352.416 246.976 352.405 247.062 352.384L247.334 354.016C247.024 354.133 246.651 354.192 246.214 354.192ZM252.026 354.192C251.343 354.192 250.708 354.027 250.122 353.696C249.546 353.365 249.082 352.885 248.73 352.256C248.378 351.627 248.202 350.891 248.202 350.048C248.202 349.195 248.378 348.453 248.73 347.824C249.082 347.195 249.546 346.715 250.122 346.384C250.708 346.053 251.343 345.888 252.026 345.888C252.698 345.888 253.327 346.053 253.914 346.384C254.5 346.715 254.97 347.2 255.322 347.84C255.674 348.469 255.85 349.205 255.85 350.048C255.85 350.891 255.674 351.627 255.322 352.256C254.97 352.885 254.5 353.365 253.914 353.696C253.327 354.027 252.698 354.192 252.026 354.192ZM252.026 352.416C252.527 352.416 252.916 352.208 253.194 351.792C253.471 351.365 253.61 350.784 253.61 350.048C253.61 349.312 253.471 348.731 253.194 348.304C252.916 347.877 252.527 347.664 252.026 347.664C251.514 347.664 251.119 347.877 250.842 348.304C250.575 348.731 250.442 349.312 250.442 350.048C250.442 350.784 250.575 351.365 250.842 351.792C251.119 352.208 251.514 352.416 252.026 352.416ZM259.735 354.192C259.223 354.192 258.69 354.091 258.135 353.888C257.591 353.685 257.117 353.419 256.711 353.088L257.703 351.712C258.077 352 258.429 352.213 258.759 352.352C259.101 352.491 259.447 352.56 259.799 352.56C260.162 352.56 260.434 352.496 260.615 352.368C260.797 352.229 260.887 352.037 260.887 351.792C260.887 351.621 260.813 351.472 260.663 351.344C260.525 351.216 260.322 351.099 260.055 350.992C259.789 350.875 259.522 350.763 259.255 350.656C258.626 350.411 258.109 350.112 257.703 349.76C257.309 349.397 257.111 348.923 257.111 348.336C257.111 347.611 257.383 347.024 257.927 346.576C258.471 346.117 259.191 345.888 260.087 345.888C261.069 345.888 261.981 346.219 262.823 346.88L261.847 348.192C261.218 347.744 260.653 347.52 260.151 347.52C259.821 347.52 259.57 347.584 259.399 347.712C259.239 347.84 259.159 348.011 259.159 348.224C259.159 348.437 259.266 348.613 259.479 348.752C259.693 348.88 259.938 348.992 260.215 349.088C260.493 349.184 260.674 349.248 260.759 349.28C261.431 349.525 261.959 349.824 262.343 350.176C262.738 350.517 262.935 351.013 262.935 351.664C262.935 352.144 262.807 352.576 262.551 352.96C262.306 353.333 261.943 353.632 261.463 353.856C260.983 354.08 260.407 354.192 259.735 354.192ZM194.088 367.08H195.864L196.024 367.88H196.088C196.419 367.581 196.781 367.341 197.176 367.16C197.581 366.979 197.981 366.888 198.376 366.888C199.336 366.888 200.093 367.251 200.648 367.976C201.203 368.701 201.48 369.683 201.48 370.92C201.48 371.784 201.325 372.541 201.016 373.192C200.707 373.843 200.296 374.339 199.784 374.68C199.272 375.021 198.723 375.192 198.136 375.192C197.464 375.192 196.819 374.909 196.2 374.344L196.264 375.624V378.008H194.088V367.08ZM197.64 373.4C198.109 373.4 198.493 373.192 198.792 372.776C199.091 372.36 199.24 371.747 199.24 370.936C199.24 369.432 198.744 368.68 197.752 368.68C197.261 368.68 196.765 368.936 196.264 369.448V372.84C196.691 373.213 197.149 373.4 197.64 373.4ZM203.213 367.08H204.989L205.149 368.472H205.213C205.49 367.96 205.826 367.571 206.221 367.304C206.626 367.027 207.037 366.888 207.453 366.888C207.826 366.888 208.136 366.941 208.381 367.048L208.013 368.936C207.981 368.925 207.885 368.904 207.725 368.872C207.565 368.829 207.384 368.808 207.181 368.808C206.84 368.808 206.509 368.931 206.189 369.176C205.869 369.421 205.602 369.805 205.389 370.328V375H203.213V367.08ZM212.62 375.192C211.937 375.192 211.302 375.027 210.716 374.696C210.14 374.365 209.676 373.885 209.324 373.256C208.972 372.627 208.796 371.891 208.796 371.048C208.796 370.195 208.972 369.453 209.324 368.824C209.676 368.195 210.14 367.715 210.716 367.384C211.302 367.053 211.937 366.888 212.62 366.888C213.292 366.888 213.921 367.053 214.508 367.384C215.094 367.715 215.564 368.2 215.916 368.84C216.268 369.469 216.444 370.205 216.444 371.048C216.444 371.891 216.268 372.627 215.916 373.256C215.564 373.885 215.094 374.365 214.508 374.696C213.921 375.027 213.292 375.192 212.62 375.192ZM212.62 373.416C213.121 373.416 213.51 373.208 213.788 372.792C214.065 372.365 214.204 371.784 214.204 371.048C214.204 370.312 214.065 369.731 213.788 369.304C213.51 368.877 213.121 368.664 212.62 368.664C212.108 368.664 211.713 368.877 211.436 369.304C211.169 369.731 211.036 370.312 211.036 371.048C211.036 371.784 211.169 372.365 211.436 372.792C211.713 373.208 212.108 373.416 212.62 373.416ZM220.919 375.192C219.927 375.192 219.138 374.824 218.551 374.088C217.975 373.352 217.687 372.339 217.687 371.048C217.687 370.216 217.842 369.485 218.151 368.856C218.461 368.227 218.866 367.741 219.367 367.4C219.879 367.059 220.418 366.888 220.983 366.888C221.399 366.888 221.757 366.957 222.055 367.096C222.354 367.235 222.658 367.448 222.967 367.736L222.887 366.504V363.752H225.079V375H223.287L223.127 374.184H223.079C222.781 374.483 222.439 374.728 222.055 374.92C221.682 375.101 221.303 375.192 220.919 375.192ZM221.479 373.4C221.757 373.4 222.007 373.341 222.231 373.224C222.455 373.096 222.674 372.899 222.887 372.632V369.24C222.482 368.867 222.013 368.68 221.479 368.68C221.042 368.68 220.674 368.883 220.375 369.288C220.077 369.693 219.927 370.269 219.927 371.016C219.927 371.805 220.061 372.403 220.327 372.808C220.594 373.203 220.978 373.4 221.479 373.4ZM229.612 375.192C228.78 375.192 228.162 374.92 227.756 374.376C227.362 373.821 227.164 373.032 227.164 372.008V367.08H229.34V371.736C229.34 372.312 229.426 372.723 229.596 372.968C229.767 373.203 230.039 373.32 230.412 373.32C230.722 373.32 230.983 373.251 231.196 373.112C231.42 372.963 231.666 372.717 231.932 372.376V367.08H234.108V375H232.332L232.172 373.88H232.108C231.746 374.307 231.367 374.632 230.972 374.856C230.578 375.08 230.124 375.192 229.612 375.192ZM239.683 375.192C238.947 375.192 238.286 375.027 237.699 374.696C237.112 374.365 236.648 373.891 236.307 373.272C235.976 372.643 235.811 371.901 235.811 371.048C235.811 370.195 235.992 369.453 236.355 368.824C236.728 368.195 237.224 367.715 237.843 367.384C238.462 367.053 239.139 366.888 239.875 366.888C240.739 366.888 241.512 367.176 242.195 367.752L241.155 369.16C240.952 368.989 240.76 368.867 240.579 368.792C240.398 368.707 240.206 368.664 240.003 368.664C239.416 368.664 238.942 368.883 238.579 369.32C238.227 369.747 238.051 370.323 238.051 371.048C238.051 371.763 238.222 372.339 238.563 372.776C238.915 373.203 239.368 373.416 239.923 373.416C240.403 373.416 240.904 373.213 241.427 372.808L242.291 374.232C241.918 374.552 241.502 374.792 241.043 374.952C240.595 375.112 240.142 375.192 239.683 375.192ZM246.532 375.192C245.615 375.192 244.943 374.931 244.516 374.408C244.09 373.875 243.876 373.133 243.876 372.184V368.808H242.772V367.176L243.988 367.08L244.244 364.968H246.052V367.08H247.988V368.808H246.052V372.168C246.052 373.032 246.404 373.464 247.108 373.464C247.332 373.464 247.594 373.411 247.892 373.304L248.244 374.904C247.668 375.096 247.098 375.192 246.532 375.192ZM252.651 375.192C251.968 375.192 251.333 375.027 250.747 374.696C250.171 374.365 249.707 373.885 249.355 373.256C249.003 372.627 248.827 371.891 248.827 371.048C248.827 370.195 249.003 369.453 249.355 368.824C249.707 368.195 250.171 367.715 250.747 367.384C251.333 367.053 251.968 366.888 252.651 366.888C253.323 366.888 253.952 367.053 254.539 367.384C255.125 367.715 255.595 368.2 255.947 368.84C256.299 369.469 256.475 370.205 256.475 371.048C256.475 371.891 256.299 372.627 255.947 373.256C255.595 373.885 255.125 374.365 254.539 374.696C253.952 375.027 253.323 375.192 252.651 375.192ZM252.651 373.416C253.152 373.416 253.541 373.208 253.819 372.792C254.096 372.365 254.235 371.784 254.235 371.048C254.235 370.312 254.096 369.731 253.819 369.304C253.541 368.877 253.152 368.664 252.651 368.664C252.139 368.664 251.744 368.877 251.467 369.304C251.2 369.731 251.067 370.312 251.067 371.048C251.067 371.784 251.2 372.365 251.467 372.792C251.744 373.208 252.139 373.416 252.651 373.416ZM260.36 375.192C259.848 375.192 259.315 375.091 258.76 374.888C258.216 374.685 257.742 374.419 257.336 374.088L258.328 372.712C258.702 373 259.054 373.213 259.384 373.352C259.726 373.491 260.072 373.56 260.424 373.56C260.787 373.56 261.059 373.496 261.24 373.368C261.422 373.229 261.512 373.037 261.512 372.792C261.512 372.621 261.438 372.472 261.288 372.344C261.15 372.216 260.947 372.099 260.68 371.992C260.414 371.875 260.147 371.763 259.88 371.656C259.251 371.411 258.734 371.112 258.328 370.76C257.934 370.397 257.736 369.923 257.736 369.336C257.736 368.611 258.008 368.024 258.552 367.576C259.096 367.117 259.816 366.888 260.712 366.888C261.694 366.888 262.606 367.219 263.448 367.88L262.472 369.192C261.843 368.744 261.278 368.52 260.776 368.52C260.446 368.52 260.195 368.584 260.024 368.712C259.864 368.84 259.784 369.011 259.784 369.224C259.784 369.437 259.891 369.613 260.104 369.752C260.318 369.88 260.563 369.992 260.84 370.088C261.118 370.184 261.299 370.248 261.384 370.28C262.056 370.525 262.584 370.824 262.968 371.176C263.363 371.517 263.56 372.013 263.56 372.664C263.56 373.144 263.432 373.576 263.176 373.96C262.931 374.333 262.568 374.632 262.088 374.856C261.608 375.08 261.032 375.192 260.36 375.192Z" fill="white"/>
<circle cx="172.5" cy="353.5" r="11.5" fill="#319DF5"/>
</svg>
