<svg width="676" height="373" viewBox="0 0 676 373" fill="none" xmlns="http://www.w3.org/2000/svg">
<g filter="url(#filter0_d)">
<path d="M129.672 366.28L129.672 363.976L122.632 363.976L122.632 365.848L121.608 365.848C121.448 364.941 121.181 364.184 120.808 363.576L120.808 362.36L129.672 362.36L129.672 360.312L131 360.312L131 366.28L129.672 366.28ZM120.616 355.626C120.616 354.943 120.803 354.33 121.176 353.786C121.539 353.231 122.093 352.799 122.84 352.49C123.576 352.17 124.483 352.01 125.56 352.01C126.84 352.01 127.901 352.191 128.744 352.554C129.587 352.906 130.205 353.38 130.6 353.978C130.995 354.575 131.192 355.236 131.192 355.962C131.192 356.996 130.819 357.866 130.072 358.57L129.08 357.69C129.315 357.487 129.507 357.242 129.656 356.954C129.795 356.655 129.864 356.351 129.864 356.042C129.864 355.306 129.549 354.708 128.92 354.25C128.28 353.791 127.256 353.546 125.848 353.514C126.232 353.812 126.536 354.17 126.76 354.586C126.973 355.002 127.08 355.407 127.08 355.802C127.08 356.708 126.813 357.428 126.28 357.962C125.736 358.484 124.952 358.746 123.928 358.746C123.277 358.746 122.701 358.607 122.2 358.33C121.699 358.042 121.309 357.663 121.032 357.194C120.755 356.714 120.616 356.191 120.616 355.626ZM125.896 355.514C125.896 355.183 125.795 354.847 125.592 354.506C125.379 354.164 125.059 353.85 124.632 353.562C123.715 353.647 123.027 353.866 122.568 354.218C122.099 354.57 121.864 355.034 121.864 355.61C121.864 356.079 122.051 356.468 122.424 356.778C122.797 357.087 123.299 357.242 123.928 357.242C124.557 357.242 125.043 357.092 125.384 356.794C125.725 356.495 125.896 356.068 125.896 355.514ZM131.192 346.972C131.192 348.028 130.728 348.855 129.8 349.452C128.872 350.049 127.56 350.348 125.864 350.348C124.168 350.348 122.872 350.049 121.976 349.452C121.069 348.855 120.616 348.028 120.616 346.972C120.616 345.916 121.069 345.089 121.976 344.492C122.883 343.895 124.179 343.596 125.864 343.596C127.56 343.596 128.872 343.895 129.8 344.492C130.728 345.089 131.192 345.916 131.192 346.972ZM129.912 346.972C129.912 346.407 129.587 345.964 128.936 345.644C128.285 345.313 127.261 345.148 125.864 345.148C123.219 345.148 121.896 345.756 121.896 346.972C121.896 348.188 123.219 348.796 125.864 348.796C127.261 348.796 128.285 348.636 128.936 348.316C129.587 347.985 129.912 347.537 129.912 346.972ZM131.192 338.638C131.192 339.694 130.728 340.521 129.8 341.118C128.872 341.716 127.56 342.014 125.864 342.014C124.168 342.014 122.872 341.716 121.976 341.118C121.069 340.521 120.616 339.694 120.616 338.638C120.616 337.582 121.069 336.756 121.976 336.158C122.883 335.561 124.179 335.262 125.864 335.262C127.56 335.262 128.872 335.561 129.8 336.158C130.728 336.756 131.192 337.582 131.192 338.638ZM129.912 338.638C129.912 338.073 129.587 337.63 128.936 337.31C128.285 336.98 127.261 336.814 125.864 336.814C123.219 336.814 121.896 337.422 121.896 338.638C121.896 339.854 123.219 340.462 125.864 340.462C127.261 340.462 128.285 340.302 128.936 339.982C129.587 339.652 129.912 339.204 129.912 338.638Z" fill="white"/>
</g>
<g filter="url(#filter1_d)">
<path d="M70.72 293.672H73.024V286.632H71.152V285.608C72.0587 285.448 72.816 285.181 73.424 284.808H74.64V293.672H76.688V295H70.72V293.672ZM81.6943 295.192C80.6383 295.192 79.8116 294.728 79.2142 293.8C78.6169 292.872 78.3182 291.56 78.3182 289.864C78.3182 288.168 78.6169 286.872 79.2142 285.976C79.8116 285.069 80.6383 284.616 81.6943 284.616C82.7503 284.616 83.5769 285.069 84.1743 285.976C84.7716 286.883 85.0703 288.179 85.0703 289.864C85.0703 291.56 84.7716 292.872 84.1743 293.8C83.5769 294.728 82.7503 295.192 81.6943 295.192ZM81.6943 293.912C82.2596 293.912 82.7023 293.587 83.0223 292.936C83.3529 292.285 83.5182 291.261 83.5182 289.864C83.5182 287.219 82.9103 285.896 81.6943 285.896C80.4783 285.896 79.8702 287.219 79.8702 289.864C79.8702 291.261 80.0302 292.285 80.3503 292.936C80.6809 293.587 81.1289 293.912 81.6943 293.912Z" fill="white"/>
</g>
<g filter="url(#filter2_d)">
<path d="M77.664 187.296H76.336V190H74.816V187.296H70.288V186.208L74.464 179.808H76.336V186.032H77.664V187.296ZM74.816 186.032V183.44C74.816 183.003 74.8427 182.32 74.896 181.392H74.832C74.7893 181.467 74.6133 181.792 74.304 182.368C74.2613 182.432 74.2133 182.512 74.16 182.608C74.1173 182.693 74.064 182.795 74 182.912L71.92 186.032H74.816ZM82.3818 190.192C81.3258 190.192 80.4991 189.728 79.9017 188.8C79.3044 187.872 79.0057 186.56 79.0057 184.864C79.0057 183.168 79.3044 181.872 79.9017 180.976C80.4991 180.069 81.3258 179.616 82.3818 179.616C83.4378 179.616 84.2644 180.069 84.8618 180.976C85.4591 181.883 85.7578 183.179 85.7578 184.864C85.7578 186.56 85.4591 187.872 84.8618 188.8C84.2644 189.728 83.4378 190.192 82.3818 190.192ZM82.3818 188.912C82.9471 188.912 83.3898 188.587 83.7098 187.936C84.0404 187.285 84.2057 186.261 84.2057 184.864C84.2057 182.219 83.5978 180.896 82.3818 180.896C81.1658 180.896 80.5577 182.219 80.5577 184.864C80.5577 186.261 80.7177 187.285 81.0378 187.936C81.3684 188.587 81.8164 188.912 82.3818 188.912Z" fill="white"/>
</g>
<g filter="url(#filter3_d)">
<path d="M73.808 225.192C72.4 225.192 71.264 224.712 70.4 223.752L71.184 222.712C71.536 223.064 71.9147 223.347 72.32 223.56C72.7253 223.763 73.1787 223.864 73.68 223.864C74.2667 223.864 74.7413 223.715 75.104 223.416C75.4773 223.107 75.664 222.696 75.664 222.184C75.664 221.587 75.424 221.128 74.944 220.808C74.4747 220.488 73.68 220.328 72.56 220.328V219.128C74.3947 219.128 75.312 218.547 75.312 217.384C75.312 216.925 75.168 216.568 74.88 216.312C74.592 216.045 74.1973 215.912 73.696 215.912C72.9813 215.912 72.2827 216.243 71.6 216.904L70.752 215.896C71.7013 215.043 72.704 214.616 73.76 214.616C74.72 214.616 75.488 214.851 76.064 215.32C76.6507 215.789 76.944 216.435 76.944 217.256C76.944 218.376 76.3413 219.171 75.136 219.64V219.704C75.776 219.864 76.2933 220.168 76.688 220.616C77.0933 221.053 77.296 221.603 77.296 222.264C77.296 222.861 77.1413 223.384 76.832 223.832C76.5227 224.269 76.1013 224.605 75.568 224.84C75.0453 225.075 74.4587 225.192 73.808 225.192ZM82.3818 225.192C81.3258 225.192 80.4991 224.728 79.9017 223.8C79.3044 222.872 79.0057 221.56 79.0057 219.864C79.0057 218.168 79.3044 216.872 79.9017 215.976C80.4991 215.069 81.3258 214.616 82.3818 214.616C83.4378 214.616 84.2644 215.069 84.8618 215.976C85.4591 216.883 85.7578 218.179 85.7578 219.864C85.7578 221.56 85.4591 222.872 84.8618 223.8C84.2644 224.728 83.4378 225.192 82.3818 225.192ZM82.3818 223.912C82.9471 223.912 83.3898 223.587 83.7098 222.936C84.0404 222.285 84.2057 221.261 84.2057 219.864C84.2057 217.219 83.5978 215.896 82.3818 215.896C81.1658 215.896 80.5577 217.219 80.5577 219.864C80.5577 221.261 80.7177 222.285 81.0378 222.936C81.3684 223.587 81.8164 223.912 82.3818 223.912Z" fill="white"/>
</g>
<g filter="url(#filter4_d)">
<path d="M70.624 259.056C71.7867 257.915 72.6773 257.008 73.296 256.336C73.9253 255.653 74.416 255.019 74.768 254.432C75.1307 253.835 75.312 253.28 75.312 252.768C75.312 252.192 75.1573 251.739 74.848 251.408C74.5387 251.077 74.096 250.912 73.52 250.912C72.8267 250.912 72.1387 251.301 71.456 252.08L70.544 251.184C71.024 250.661 71.5093 250.272 72 250.016C72.5013 249.749 73.0773 249.616 73.728 249.616C74.688 249.616 75.4507 249.899 76.016 250.464C76.592 251.019 76.88 251.76 76.88 252.688C76.88 253.275 76.7147 253.877 76.384 254.496C76.064 255.115 75.6373 255.739 75.104 256.368C74.5813 256.987 73.872 257.771 72.976 258.72C73.7013 258.656 74.272 258.624 74.688 258.624H77.376V260H70.624V259.056ZM82.3818 260.192C81.3258 260.192 80.4991 259.728 79.9017 258.8C79.3044 257.872 79.0057 256.56 79.0057 254.864C79.0057 253.168 79.3044 251.872 79.9017 250.976C80.4991 250.069 81.3258 249.616 82.3818 249.616C83.4378 249.616 84.2644 250.069 84.8618 250.976C85.4591 251.883 85.7578 253.179 85.7578 254.864C85.7578 256.56 85.4591 257.872 84.8618 258.8C84.2644 259.728 83.4378 260.192 82.3818 260.192ZM82.3818 258.912C82.9471 258.912 83.3898 258.587 83.7098 257.936C84.0404 257.285 84.2057 256.261 84.2057 254.864C84.2057 252.219 83.5978 250.896 82.3818 250.896C81.1658 250.896 80.5577 252.219 80.5577 254.864C80.5577 256.261 80.7177 257.285 81.0378 257.936C81.3684 258.587 81.8164 258.912 82.3818 258.912Z" fill="white"/>
</g>
<g filter="url(#filter5_d)">
<path d="M73.808 155.192C73.0507 155.192 72.3947 155.064 71.84 154.808C71.296 154.552 70.8107 154.211 70.384 153.784L71.152 152.744C71.504 153.085 71.8773 153.357 72.272 153.56C72.6667 153.763 73.1147 153.864 73.616 153.864C74.224 153.864 74.72 153.672 75.104 153.288C75.4987 152.904 75.696 152.392 75.696 151.752C75.696 151.112 75.5147 150.611 75.152 150.248C74.7893 149.885 74.304 149.704 73.696 149.704C73.376 149.704 73.0987 149.752 72.864 149.848C72.6293 149.933 72.3467 150.083 72.016 150.296L71.216 149.784L71.536 144.808H76.832V146.184H72.944L72.704 148.888C73.1627 148.643 73.6427 148.52 74.144 148.52C75.072 148.52 75.8347 148.792 76.432 149.336C77.0293 149.869 77.328 150.659 77.328 151.704C77.328 152.419 77.1627 153.043 76.832 153.576C76.512 154.099 76.0853 154.499 75.552 154.776C75.0187 155.053 74.4373 155.192 73.808 155.192ZM82.3818 155.192C81.3258 155.192 80.4991 154.728 79.9017 153.8C79.3044 152.872 79.0057 151.56 79.0057 149.864C79.0057 148.168 79.3044 146.872 79.9017 145.976C80.4991 145.069 81.3258 144.616 82.3818 144.616C83.4378 144.616 84.2644 145.069 84.8618 145.976C85.4591 146.883 85.7578 148.179 85.7578 149.864C85.7578 151.56 85.4591 152.872 84.8618 153.8C84.2644 154.728 83.4378 155.192 82.3818 155.192ZM82.3818 153.912C82.9471 153.912 83.3898 153.587 83.7098 152.936C84.0404 152.285 84.2057 151.261 84.2057 149.864C84.2057 147.219 83.5978 145.896 82.3818 145.896C81.1658 145.896 80.5577 147.219 80.5577 149.864C80.5577 151.261 80.7177 152.285 81.0378 152.936C81.3684 153.587 81.8164 153.912 82.3818 153.912Z" fill="white"/>
</g>
<g filter="url(#filter6_d)">
<path d="M74.528 112.728C75.4347 112.728 76.1493 113 76.672 113.544C77.2053 114.077 77.472 114.856 77.472 115.88C77.472 116.531 77.328 117.107 77.04 117.608C76.7627 118.109 76.384 118.499 75.904 118.776C75.4347 119.053 74.9173 119.192 74.352 119.192C73.6693 119.192 73.0507 119.011 72.496 118.648C71.952 118.275 71.52 117.72 71.2 116.984C70.8907 116.237 70.736 115.325 70.736 114.248C70.736 112.968 70.912 111.907 71.264 111.064C71.6267 110.221 72.1067 109.603 72.704 109.208C73.3013 108.813 73.9627 108.616 74.688 108.616C75.7227 108.616 76.592 108.989 77.296 109.736L76.416 110.728C76.224 110.493 75.9787 110.307 75.68 110.168C75.3813 110.019 75.0773 109.944 74.768 109.944C74.0427 109.944 73.4453 110.264 72.976 110.904C72.5173 111.533 72.272 112.552 72.24 113.96C72.5387 113.587 72.896 113.288 73.312 113.064C73.728 112.84 74.1333 112.728 74.528 112.728ZM74.336 117.944C74.8053 117.944 75.1947 117.757 75.504 117.384C75.8133 117.011 75.968 116.509 75.968 115.88C75.968 115.251 75.8187 114.765 75.52 114.424C75.2213 114.083 74.7947 113.912 74.24 113.912C73.9093 113.912 73.5733 114.013 73.232 114.216C72.9013 114.419 72.5867 114.739 72.288 115.176C72.3733 116.093 72.592 116.787 72.944 117.256C73.3067 117.715 73.7707 117.944 74.336 117.944ZM82.3818 119.192C81.3258 119.192 80.4991 118.728 79.9017 117.8C79.3044 116.872 79.0057 115.56 79.0057 113.864C79.0057 112.168 79.3044 110.872 79.9017 109.976C80.4991 109.069 81.3258 108.616 82.3818 108.616C83.4378 108.616 84.2644 109.069 84.8618 109.976C85.4591 110.883 85.7578 112.179 85.7578 113.864C85.7578 115.56 85.4591 116.872 84.8618 117.8C84.2644 118.728 83.4378 119.192 82.3818 119.192ZM82.3818 117.912C82.9471 117.912 83.3898 117.587 83.7098 116.936C84.0404 116.285 84.2057 115.261 84.2057 113.864C84.2057 111.219 83.5978 109.896 82.3818 109.896C81.1658 109.896 80.5577 111.219 80.5577 113.864C80.5577 115.261 80.7177 116.285 81.0378 116.936C81.3684 117.587 81.8164 117.912 82.3818 117.912Z" fill="white"/>
</g>
<g filter="url(#filter7_d)">
<path d="M72.752 84C72.8373 82.1227 73.0933 80.528 73.52 79.216C73.9467 77.8933 74.6507 76.5493 75.632 75.184H70.704V73.808H77.424V74.8C76.6347 75.7813 76.032 76.72 75.616 77.616C75.2107 78.5013 74.9227 79.4293 74.752 80.4C74.5813 81.36 74.464 82.56 74.4 84H72.752ZM82.3818 84.192C81.3258 84.192 80.4991 83.728 79.9017 82.8C79.3044 81.872 79.0057 80.56 79.0057 78.864C79.0057 77.168 79.3044 75.872 79.9017 74.976C80.4991 74.0693 81.3258 73.616 82.3818 73.616C83.4378 73.616 84.2644 74.0693 84.8618 74.976C85.4591 75.8827 85.7578 77.1787 85.7578 78.864C85.7578 80.56 85.4591 81.872 84.8618 82.8C84.2644 83.728 83.4378 84.192 82.3818 84.192ZM82.3818 82.912C82.9471 82.912 83.3898 82.5867 83.7098 81.936C84.0404 81.2853 84.2057 80.2613 84.2057 78.864C84.2057 76.2187 83.5978 74.896 82.3818 74.896C81.1658 74.896 80.5577 76.2187 80.5577 78.864C80.5577 80.2613 80.7177 81.2853 81.0378 81.936C81.3684 82.5867 81.8164 82.912 82.3818 82.912Z" fill="white"/>
</g>
<g filter="url(#filter8_d)">
<path d="M74.064 49.192C73.424 49.192 72.8427 49.0747 72.32 48.84C71.7973 48.5947 71.3867 48.2587 71.088 47.832C70.8 47.4053 70.656 46.9253 70.656 46.392C70.656 45.7947 70.832 45.272 71.184 44.824C71.536 44.376 71.984 44.008 72.528 43.72V43.656C71.5893 42.9947 71.12 42.2053 71.12 41.288C71.12 40.7547 71.248 40.2907 71.504 39.896C71.7707 39.4907 72.128 39.176 72.576 38.952C73.0347 38.728 73.5467 38.616 74.112 38.616C75.008 38.616 75.7227 38.872 76.256 39.384C76.7893 39.8853 77.056 40.5413 77.056 41.352C77.056 41.832 76.9173 42.2853 76.64 42.712C76.3733 43.128 76.0533 43.4693 75.68 43.736V43.8C76.224 44.12 76.6507 44.488 76.96 44.904C77.28 45.3093 77.44 45.8213 77.44 46.44C77.44 46.952 77.296 47.4213 77.008 47.848C76.7307 48.264 76.336 48.5947 75.824 48.84C75.312 49.0747 74.7253 49.192 74.064 49.192ZM74.752 43.336C75.3813 42.7387 75.696 42.1093 75.696 41.448C75.696 40.9573 75.552 40.5573 75.264 40.248C74.976 39.9387 74.5813 39.784 74.08 39.784C73.6427 39.784 73.28 39.9227 72.992 40.2C72.7147 40.4667 72.576 40.8293 72.576 41.288C72.576 41.7893 72.7573 42.184 73.12 42.472C73.4933 42.76 74.0373 43.048 74.752 43.336ZM74.096 48.024C74.64 48.024 75.0773 47.8747 75.408 47.576C75.7493 47.2773 75.92 46.8827 75.92 46.392C75.92 46.0187 75.808 45.704 75.584 45.448C75.3707 45.192 75.0987 44.984 74.768 44.824C74.448 44.6533 73.968 44.44 73.328 44.184C72.9547 44.4507 72.656 44.76 72.432 45.112C72.208 45.4533 72.096 45.8267 72.096 46.232C72.096 46.7547 72.2827 47.1867 72.656 47.528C73.04 47.8587 73.52 48.024 74.096 48.024ZM82.3818 49.192C81.3258 49.192 80.4991 48.728 79.9017 47.8C79.3044 46.872 79.0057 45.56 79.0057 43.864C79.0057 42.168 79.3044 40.872 79.9017 39.976C80.4991 39.0693 81.3258 38.616 82.3818 38.616C83.4378 38.616 84.2644 39.0693 84.8618 39.976C85.4591 40.8827 85.7578 42.1787 85.7578 43.864C85.7578 45.56 85.4591 46.872 84.8618 47.8C84.2644 48.728 83.4378 49.192 82.3818 49.192ZM82.3818 47.912C82.9471 47.912 83.3898 47.5867 83.7098 46.936C84.0404 46.2853 84.2057 45.2613 84.2057 43.864C84.2057 41.2187 83.5978 39.896 82.3818 39.896C81.1658 39.896 80.5577 41.2187 80.5577 43.864C80.5577 45.2613 80.7177 46.2853 81.0378 46.936C81.3684 47.5867 81.8164 47.912 82.3818 47.912Z" fill="white"/>
</g>
<g filter="url(#filter9_d)">
<path d="M647.056 366.376C645.915 365.213 645.008 364.323 644.336 363.704C643.653 363.075 643.019 362.584 642.432 362.232C641.835 361.869 641.28 361.688 640.768 361.688C640.192 361.688 639.739 361.843 639.408 362.152C639.077 362.461 638.912 362.904 638.912 363.48C638.912 364.173 639.301 364.861 640.08 365.544L639.184 366.456C638.661 365.976 638.272 365.491 638.016 365C637.749 364.499 637.616 363.923 637.616 363.272C637.616 362.312 637.899 361.549 638.464 360.984C639.019 360.408 639.76 360.12 640.688 360.12C641.275 360.12 641.877 360.285 642.496 360.616C643.115 360.936 643.739 361.363 644.368 361.896C644.987 362.419 645.771 363.128 646.72 364.024C646.656 363.299 646.624 362.728 646.624 362.312L646.624 359.624L648 359.624L648 366.376L647.056 366.376ZM648.192 354.618C648.192 355.674 647.728 356.501 646.8 357.098C645.872 357.696 644.56 357.994 642.864 357.994C641.168 357.994 639.872 357.696 638.976 357.098C638.069 356.501 637.616 355.674 637.616 354.618C637.616 353.562 638.069 352.736 638.976 352.138C639.883 351.541 641.179 351.242 642.864 351.242C644.56 351.242 645.872 351.541 646.8 352.138C647.728 352.736 648.192 353.562 648.192 354.618ZM646.912 354.618C646.912 354.053 646.587 353.61 645.936 353.29C645.285 352.96 644.261 352.794 642.864 352.794C640.219 352.794 638.896 353.402 638.896 354.618C638.896 355.834 640.219 356.442 642.864 356.442C644.261 356.442 645.285 356.282 645.936 355.962C646.587 355.632 646.912 355.184 646.912 354.618ZM646.672 349.613L646.672 347.309L639.632 347.309L639.632 349.181L638.608 349.181C638.448 348.274 638.181 347.517 637.808 346.909L637.808 345.693L646.672 345.693L646.672 343.645L648 343.645L648 349.613L646.672 349.613ZM641.728 338.158C641.728 337.252 642 336.537 642.544 336.014C643.077 335.481 643.856 335.214 644.88 335.214C645.531 335.214 646.107 335.358 646.608 335.646C647.109 335.924 647.499 336.302 647.776 336.782C648.053 337.252 648.192 337.769 648.192 338.334C648.192 339.017 648.011 339.636 647.648 340.19C647.275 340.734 646.72 341.166 645.984 341.486C645.237 341.796 644.325 341.95 643.248 341.95C641.968 341.95 640.907 341.774 640.064 341.422C639.221 341.06 638.603 340.58 638.208 339.982C637.813 339.385 637.616 338.724 637.616 337.998C637.616 336.964 637.989 336.094 638.736 335.39L639.728 336.27C639.493 336.462 639.307 336.708 639.168 337.006C639.019 337.305 638.944 337.609 638.944 337.918C638.944 338.644 639.264 339.241 639.904 339.71C640.533 340.169 641.552 340.414 642.96 340.446C642.587 340.148 642.288 339.79 642.064 339.374C641.84 338.958 641.728 338.553 641.728 338.158ZM646.944 338.35C646.944 337.881 646.757 337.492 646.384 337.182C646.011 336.873 645.509 336.718 644.88 336.718C644.251 336.718 643.765 336.868 643.424 337.166C643.083 337.465 642.912 337.892 642.912 338.446C642.912 338.777 643.013 339.113 643.216 339.454C643.419 339.785 643.739 340.1 644.176 340.398C645.093 340.313 645.787 340.094 646.256 339.742C646.715 339.38 646.944 338.916 646.944 338.35Z" fill="white"/>
</g>
<g filter="url(#filter10_d)">
<path d="M4.232 8.176H5.56L5.688 9.264H5.736C6.12 8.86933 6.504 8.56 6.888 8.336C7.28267 8.10133 7.704 7.984 8.152 7.984C9.22933 7.984 9.94933 8.464 10.312 9.424C10.7493 8.95467 11.1653 8.59733 11.56 8.352C11.9653 8.10667 12.3973 7.984 12.856 7.984C13.656 7.984 14.2533 8.25067 14.648 8.784C15.0533 9.30667 15.256 10.0693 15.256 11.072V16H13.64V11.28C13.64 10.608 13.5333 10.1227 13.32 9.824C13.1173 9.52533 12.7867 9.376 12.328 9.376C11.7947 9.376 11.2027 9.73333 10.552 10.448V16H8.936V11.28C8.936 10.608 8.82933 10.1227 8.616 9.824C8.41333 9.52533 8.08267 9.376 7.624 9.376C7.09067 9.376 6.49867 9.73333 5.848 10.448V16H4.232V8.176ZM20.4866 16.192C18.908 16.192 18.1186 15.28 18.1186 13.456V9.472H16.9826V8.256L18.1986 8.176L18.3906 6.016L19.7346 6.016V8.176H21.7826V9.472H19.7346V13.456C19.7346 13.936 19.8253 14.2987 20.0066 14.544C20.188 14.7787 20.4813 14.896 20.8866 14.896C21.132 14.896 21.4146 14.832 21.7346 14.704L22.0226 15.904C21.4466 16.096 20.9346 16.192 20.4866 16.192ZM27.936 16.192C27.0507 16.192 26.256 15.9787 25.552 15.552C24.848 15.1253 24.2933 14.5067 23.888 13.696C23.4827 12.8747 23.28 11.904 23.28 10.784C23.28 9.67467 23.488 8.70933 23.904 7.888C24.32 7.06667 24.8853 6.43733 25.6 6C26.3253 5.552 27.1307 5.328 28.016 5.328C28.624 5.328 29.1787 5.45067 29.68 5.696C30.192 5.94133 30.624 6.256 30.976 6.64L30.096 7.696C29.488 7.06667 28.8053 6.752 28.048 6.752C27.44 6.752 26.9013 6.91733 26.432 7.248C25.9733 7.568 25.6107 8.02667 25.344 8.624C25.088 9.22133 24.96 9.92533 24.96 10.736C24.96 11.984 25.232 12.9707 25.776 13.696C26.3307 14.4107 27.072 14.768 28 14.768C28.8747 14.768 29.648 14.3947 30.32 13.648L31.2 14.672C30.336 15.6853 29.248 16.192 27.936 16.192ZM36.7675 16.192C35.8715 16.192 35.0768 15.9733 34.3835 15.536C33.7008 15.088 33.1675 14.4533 32.7835 13.632C32.3995 12.8 32.2075 11.8293 32.2075 10.72C32.2075 9.61067 32.3995 8.65067 32.7835 7.84C33.1675 7.02933 33.7008 6.41067 34.3835 5.984C35.0768 5.54667 35.8715 5.328 36.7675 5.328C37.6635 5.328 38.4528 5.54667 39.1355 5.984C39.8288 6.41067 40.3675 7.02933 40.7515 7.84C41.1355 8.65067 41.3275 9.61067 41.3275 10.72C41.3275 11.8293 41.1355 12.8 40.7515 13.632C40.3675 14.4533 39.8288 15.088 39.1355 15.536C38.4528 15.9733 37.6635 16.192 36.7675 16.192ZM36.7675 14.768C37.3435 14.768 37.8502 14.6027 38.2875 14.272C38.7248 13.9413 39.0608 13.472 39.2955 12.864C39.5302 12.2453 39.6475 11.5307 39.6475 10.72C39.6475 9.49333 39.3862 8.528 38.8635 7.824C38.3408 7.10933 37.6422 6.752 36.7675 6.752C35.8928 6.752 35.1942 7.10933 34.6715 7.824C34.1488 8.528 33.8875 9.49333 33.8875 10.72C33.8875 11.5307 34.0048 12.2453 34.2395 12.864C34.4742 13.472 34.8102 13.9413 35.2475 14.272C35.6848 14.6027 36.1915 14.768 36.7675 14.768ZM42.9902 15.056C44.1529 13.9147 45.0436 13.008 45.6622 12.336C46.2916 11.6533 46.7822 11.0187 47.1342 10.432C47.4969 9.83467 47.6782 9.28 47.6782 8.768C47.6782 8.192 47.5236 7.73867 47.2142 7.408C46.9049 7.07733 46.4622 6.912 45.8862 6.912C45.1929 6.912 44.5049 7.30133 43.8222 8.08L42.9102 7.184C43.3902 6.66133 43.8756 6.272 44.3662 6.016C44.8676 5.74933 45.4436 5.616 46.0942 5.616C47.0542 5.616 47.8169 5.89867 48.3822 6.464C48.9582 7.01867 49.2462 7.76 49.2462 8.688C49.2462 9.27467 49.0809 9.87733 48.7502 10.496C48.4302 11.1147 48.0036 11.7387 47.4702 12.368C46.9476 12.9867 46.2382 13.7707 45.3422 14.72C46.0676 14.656 46.6382 14.624 47.0542 14.624H49.7422V16H42.9902V15.056ZM58.14 11.68C58.14 11.9787 58.1187 12.256 58.076 12.512H52.908C52.9827 13.3013 53.2493 13.904 53.708 14.32C54.1773 14.7253 54.7427 14.928 55.404 14.928C56.0333 14.928 56.6573 14.7307 57.276 14.336L57.836 15.36C57.004 15.9147 56.124 16.192 55.196 16.192C54.4813 16.192 53.836 16.0267 53.26 15.696C52.684 15.3653 52.2253 14.8907 51.884 14.272C51.5533 13.6533 51.388 12.928 51.388 12.096C51.388 11.2747 51.5533 10.5547 51.884 9.936C52.2253 9.30667 52.668 8.82667 53.212 8.496C53.756 8.15467 54.3373 7.984 54.956 7.984C55.9693 7.984 56.7533 8.32 57.308 8.992C57.8627 9.65333 58.14 10.5493 58.14 11.68ZM56.732 11.392C56.732 10.7093 56.5827 10.1813 56.284 9.808C55.9853 9.43467 55.5533 9.248 54.988 9.248C54.4973 9.248 54.06 9.42933 53.676 9.792C53.292 10.1547 53.0467 10.688 52.94 11.392H56.732Z" fill="white"/>
</g>
<line x1="95" y1="27" x2="95" y2="317" stroke="white" stroke-width="4"/>
<line x1="671" y1="319" x2="93" y2="319" stroke="white" stroke-width="4"/>
<path d="M95 235L198.793 169.961L276.549 157.305L348.677 208.633L417.989 90.8594L485.894 63.0859L569.28 55L640 72.9297" stroke="#9F3EDA" stroke-width="4"/>
<path d="M97 299H202.122L274.195 290.922L342.05 283.898L425.373 263.176L497.447 256.151L568.114 227L643 239.644" stroke="#EB5793" stroke-width="4"/>
<path d="M97 162.676L199.293 182L275.574 140.541L349.042 129.297L425.322 90.6486L493.166 111.378L568.041 52L651 150.378" stroke="#F75A16" stroke-width="4"/>
<path d="M95 309H272.298L348.634 301.973L423.564 286.865L497.086 256.297L564.98 195.514L648 140" stroke="#319DF5" stroke-width="4"/>
<circle cx="94.5" cy="25.5" r="5.5" fill="white"/>
<circle cx="670.5" cy="318.5" r="5.5" fill="white"/>
<defs>
<filter id="filter0_d" x="116.617" y="333.262" width="18.576" height="39.0177" filterUnits="userSpaceOnUse" color-interpolation-filters="sRGB">
<feFlood flood-opacity="0" result="BackgroundImageFix"/>
<feColorMatrix in="SourceAlpha" type="matrix" values="0 0 0 0 0 0 0 0 0 0 0 0 0 0 0 0 0 0 127 0"/>
<feOffset dy="2"/>
<feGaussianBlur stdDeviation="2"/>
<feColorMatrix type="matrix" values="0 0 0 0 0 0 0 0 0 0 0 0 0 0 0 0 0 0 0.25 0"/>
<feBlend mode="normal" in2="BackgroundImageFix" result="effect1_dropShadow"/>
<feBlend mode="normal" in="SourceGraphic" in2="effect1_dropShadow" result="shape"/>
</filter>
<filter id="filter1_d" x="66.7188" y="282.616" width="22.3503" height="18.576" filterUnits="userSpaceOnUse" color-interpolation-filters="sRGB">
<feFlood flood-opacity="0" result="BackgroundImageFix"/>
<feColorMatrix in="SourceAlpha" type="matrix" values="0 0 0 0 0 0 0 0 0 0 0 0 0 0 0 0 0 0 127 0"/>
<feOffset dy="2"/>
<feGaussianBlur stdDeviation="2"/>
<feColorMatrix type="matrix" values="0 0 0 0 0 0 0 0 0 0 0 0 0 0 0 0 0 0 0.25 0"/>
<feBlend mode="normal" in2="BackgroundImageFix" result="effect1_dropShadow"/>
<feBlend mode="normal" in="SourceGraphic" in2="effect1_dropShadow" result="shape"/>
</filter>
<filter id="filter2_d" x="66.2891" y="177.616" width="23.4698" height="18.576" filterUnits="userSpaceOnUse" color-interpolation-filters="sRGB">
<feFlood flood-opacity="0" result="BackgroundImageFix"/>
<feColorMatrix in="SourceAlpha" type="matrix" values="0 0 0 0 0 0 0 0 0 0 0 0 0 0 0 0 0 0 127 0"/>
<feOffset dy="2"/>
<feGaussianBlur stdDeviation="2"/>
<feColorMatrix type="matrix" values="0 0 0 0 0 0 0 0 0 0 0 0 0 0 0 0 0 0 0.25 0"/>
<feBlend mode="normal" in2="BackgroundImageFix" result="effect1_dropShadow"/>
<feBlend mode="normal" in="SourceGraphic" in2="effect1_dropShadow" result="shape"/>
</filter>
<filter id="filter3_d" x="66.3984" y="212.616" width="23.3577" height="18.576" filterUnits="userSpaceOnUse" color-interpolation-filters="sRGB">
<feFlood flood-opacity="0" result="BackgroundImageFix"/>
<feColorMatrix in="SourceAlpha" type="matrix" values="0 0 0 0 0 0 0 0 0 0 0 0 0 0 0 0 0 0 127 0"/>
<feOffset dy="2"/>
<feGaussianBlur stdDeviation="2"/>
<feColorMatrix type="matrix" values="0 0 0 0 0 0 0 0 0 0 0 0 0 0 0 0 0 0 0.25 0"/>
<feBlend mode="normal" in2="BackgroundImageFix" result="effect1_dropShadow"/>
<feBlend mode="normal" in="SourceGraphic" in2="effect1_dropShadow" result="shape"/>
</filter>
<filter id="filter4_d" x="66.543" y="247.616" width="23.2137" height="18.576" filterUnits="userSpaceOnUse" color-interpolation-filters="sRGB">
<feFlood flood-opacity="0" result="BackgroundImageFix"/>
<feColorMatrix in="SourceAlpha" type="matrix" values="0 0 0 0 0 0 0 0 0 0 0 0 0 0 0 0 0 0 127 0"/>
<feOffset dy="2"/>
<feGaussianBlur stdDeviation="2"/>
<feColorMatrix type="matrix" values="0 0 0 0 0 0 0 0 0 0 0 0 0 0 0 0 0 0 0.25 0"/>
<feBlend mode="normal" in2="BackgroundImageFix" result="effect1_dropShadow"/>
<feBlend mode="normal" in="SourceGraphic" in2="effect1_dropShadow" result="shape"/>
</filter>
<filter id="filter5_d" x="66.3828" y="142.616" width="23.3737" height="18.576" filterUnits="userSpaceOnUse" color-interpolation-filters="sRGB">
<feFlood flood-opacity="0" result="BackgroundImageFix"/>
<feColorMatrix in="SourceAlpha" type="matrix" values="0 0 0 0 0 0 0 0 0 0 0 0 0 0 0 0 0 0 127 0"/>
<feOffset dy="2"/>
<feGaussianBlur stdDeviation="2"/>
<feColorMatrix type="matrix" values="0 0 0 0 0 0 0 0 0 0 0 0 0 0 0 0 0 0 0.25 0"/>
<feBlend mode="normal" in2="BackgroundImageFix" result="effect1_dropShadow"/>
<feBlend mode="normal" in="SourceGraphic" in2="effect1_dropShadow" result="shape"/>
</filter>
<filter id="filter6_d" x="66.7344" y="106.616" width="23.0217" height="18.576" filterUnits="userSpaceOnUse" color-interpolation-filters="sRGB">
<feFlood flood-opacity="0" result="BackgroundImageFix"/>
<feColorMatrix in="SourceAlpha" type="matrix" values="0 0 0 0 0 0 0 0 0 0 0 0 0 0 0 0 0 0 127 0"/>
<feOffset dy="2"/>
<feGaussianBlur stdDeviation="2"/>
<feColorMatrix type="matrix" values="0 0 0 0 0 0 0 0 0 0 0 0 0 0 0 0 0 0 0.25 0"/>
<feBlend mode="normal" in2="BackgroundImageFix" result="effect1_dropShadow"/>
<feBlend mode="normal" in="SourceGraphic" in2="effect1_dropShadow" result="shape"/>
</filter>
<filter id="filter7_d" x="66.7031" y="71.616" width="23.0538" height="18.576" filterUnits="userSpaceOnUse" color-interpolation-filters="sRGB">
<feFlood flood-opacity="0" result="BackgroundImageFix"/>
<feColorMatrix in="SourceAlpha" type="matrix" values="0 0 0 0 0 0 0 0 0 0 0 0 0 0 0 0 0 0 127 0"/>
<feOffset dy="2"/>
<feGaussianBlur stdDeviation="2"/>
<feColorMatrix type="matrix" values="0 0 0 0 0 0 0 0 0 0 0 0 0 0 0 0 0 0 0.25 0"/>
<feBlend mode="normal" in2="BackgroundImageFix" result="effect1_dropShadow"/>
<feBlend mode="normal" in="SourceGraphic" in2="effect1_dropShadow" result="shape"/>
</filter>
<filter id="filter8_d" x="66.6562" y="36.616" width="23.1018" height="18.576" filterUnits="userSpaceOnUse" color-interpolation-filters="sRGB">
<feFlood flood-opacity="0" result="BackgroundImageFix"/>
<feColorMatrix in="SourceAlpha" type="matrix" values="0 0 0 0 0 0 0 0 0 0 0 0 0 0 0 0 0 0 127 0"/>
<feOffset dy="2"/>
<feGaussianBlur stdDeviation="2"/>
<feColorMatrix type="matrix" values="0 0 0 0 0 0 0 0 0 0 0 0 0 0 0 0 0 0 0.25 0"/>
<feBlend mode="normal" in2="BackgroundImageFix" result="effect1_dropShadow"/>
<feBlend mode="normal" in="SourceGraphic" in2="effect1_dropShadow" result="shape"/>
</filter>
<filter id="filter9_d" x="633.617" y="333.214" width="18.576" height="39.2417" filterUnits="userSpaceOnUse" color-interpolation-filters="sRGB">
<feFlood flood-opacity="0" result="BackgroundImageFix"/>
<feColorMatrix in="SourceAlpha" type="matrix" values="0 0 0 0 0 0 0 0 0 0 0 0 0 0 0 0 0 0 127 0"/>
<feOffset dy="2"/>
<feGaussianBlur stdDeviation="2"/>
<feColorMatrix type="matrix" values="0 0 0 0 0 0 0 0 0 0 0 0 0 0 0 0 0 0 0.25 0"/>
<feBlend mode="normal" in2="BackgroundImageFix" result="effect1_dropShadow"/>
<feBlend mode="normal" in="SourceGraphic" in2="effect1_dropShadow" result="shape"/>
</filter>
<filter id="filter10_d" x="0.230469" y="3.32788" width="61.908" height="18.864" filterUnits="userSpaceOnUse" color-interpolation-filters="sRGB">
<feFlood flood-opacity="0" result="BackgroundImageFix"/>
<feColorMatrix in="SourceAlpha" type="matrix" values="0 0 0 0 0 0 0 0 0 0 0 0 0 0 0 0 0 0 127 0"/>
<feOffset dy="2"/>
<feGaussianBlur stdDeviation="2"/>
<feColorMatrix type="matrix" values="0 0 0 0 0 0 0 0 0 0 0 0 0 0 0 0 0 0 0.25 0"/>
<feBlend mode="normal" in2="BackgroundImageFix" result="effect1_dropShadow"/>
<feBlend mode="normal" in="SourceGraphic" in2="effect1_dropShadow" result="shape"/>
</filter>
</defs>
</svg>
