<svg width="194" height="153" viewBox="0 0 194 153" fill="none" xmlns="http://www.w3.org/2000/svg">
<circle cx="76.5" cy="76.5" r="76.5" fill="#079999"/>
<circle cx="77" cy="75" r="40" fill="#F3F3F3"/>
<line x1="111" y1="77" x2="156" y2="77" stroke="#F3F3F3" stroke-width="4"/>
<path d="M159.9 115.24C158.127 115.24 156.647 114.647 155.46 113.46L156.7 111.72C157.62 112.587 158.56 113.02 159.52 113.02C160.2 113.02 160.74 112.833 161.14 112.46C161.553 112.087 161.76 111.56 161.76 110.88C161.76 110.227 161.567 109.713 161.18 109.34C160.793 108.967 160.287 108.78 159.66 108.78C159.287 108.78 158.967 108.827 158.7 108.92C158.447 109.013 158.12 109.193 157.72 109.46L156.48 108.66L156.84 102.28H163.92V104.58H159.2L158.98 107.2C159.5 106.973 160 106.86 160.48 106.86C161.64 106.86 162.6 107.2 163.36 107.88C164.12 108.547 164.5 109.527 164.5 110.82C164.5 111.727 164.287 112.513 163.86 113.18C163.447 113.847 162.887 114.36 162.18 114.72C161.487 115.067 160.727 115.24 159.9 115.24ZM171.009 115.24C170.102 115.24 169.309 114.987 168.629 114.48C167.962 113.96 167.442 113.2 167.069 112.2C166.709 111.2 166.529 109.993 166.529 108.58C166.529 106.473 166.929 104.86 167.729 103.74C168.529 102.607 169.622 102.04 171.009 102.04C172.382 102.04 173.469 102.607 174.269 103.74C175.069 104.86 175.469 106.473 175.469 108.58C175.469 109.993 175.282 111.2 174.909 112.2C174.549 113.2 174.035 113.96 173.369 114.48C172.702 114.987 171.915 115.24 171.009 115.24ZM171.009 113.12C171.595 113.12 172.055 112.78 172.389 112.1C172.722 111.407 172.889 110.233 172.889 108.58C172.889 106.953 172.722 105.813 172.389 105.16C172.055 104.493 171.595 104.16 171.009 104.16C170.409 104.16 169.942 104.487 169.609 105.14C169.289 105.793 169.129 106.94 169.129 108.58C169.129 110.233 169.295 111.407 169.629 112.1C169.962 112.78 170.422 113.12 171.009 113.12ZM180.298 109.68C179.338 109.68 178.558 109.313 177.958 108.58C177.371 107.833 177.078 106.813 177.078 105.52C177.078 104.24 177.371 103.233 177.958 102.5C178.558 101.767 179.338 101.4 180.298 101.4C181.244 101.4 182.011 101.767 182.598 102.5C183.198 103.233 183.498 104.24 183.498 105.52C183.498 106.8 183.198 107.813 182.598 108.56C182.011 109.307 181.244 109.68 180.298 109.68ZM187.718 101.7H189.318L182.238 115.24H180.638L187.718 101.7ZM180.298 108.14C180.684 108.14 180.991 107.933 181.218 107.52C181.458 107.093 181.578 106.427 181.578 105.52C181.578 104.627 181.458 103.973 181.218 103.56C180.991 103.147 180.684 102.94 180.298 102.94C179.911 102.94 179.598 103.147 179.358 103.56C179.118 103.973 178.998 104.627 178.998 105.52C178.998 106.413 179.118 107.073 179.358 107.5C179.598 107.927 179.911 108.14 180.298 108.14ZM189.678 115.24C188.731 115.24 187.958 114.867 187.358 114.12C186.771 113.373 186.478 112.36 186.478 111.08C186.478 109.8 186.771 108.793 187.358 108.06C187.958 107.327 188.731 106.96 189.678 106.96C190.638 106.96 191.411 107.327 191.998 108.06C192.598 108.793 192.898 109.8 192.898 111.08C192.898 112.373 192.598 113.393 191.998 114.14C191.411 114.873 190.638 115.24 189.678 115.24ZM189.678 113.7C190.064 113.7 190.378 113.487 190.618 113.06C190.858 112.633 190.978 111.973 190.978 111.08C190.978 110.187 190.858 109.533 190.618 109.12C190.378 108.707 190.064 108.5 189.678 108.5C189.291 108.5 188.978 108.707 188.738 109.12C188.511 109.533 188.398 110.187 188.398 111.08C188.398 111.973 188.511 112.633 188.738 113.06C188.978 113.487 189.291 113.7 189.678 113.7Z" fill="#595959"/>
<circle cx="170" cy="78" r="14" fill="#04BC00"/>
</svg>
