<svg width="45" height="45" viewBox="0 0 45 45" fill="none" xmlns="http://www.w3.org/2000/svg">
<ellipse cx="22.6915" cy="23.3727" rx="22.3087" ry="21.3554" fill="#C4C4C4"/>
<path d="M44.9888 23.4668C44.9888 35.3591 34.9176 45 22.4944 45C10.0712 45 0 35.3591 0 23.4668C0 11.5744 10.0712 1.93359 22.4944 1.93359C34.9176 1.93359 44.9888 11.5744 44.9888 23.4668Z" fill="#603256"/>
<path d="M31.6215 5.31683C29.2455 4.27863 26.7127 3.66785 23.9727 3.50684V44.9527C25.7419 44.8425 27.4551 44.5377 29.0895 44.0584L32.549 5.74427C32.549 5.74427 32.587 5.09402 32.5296 4.8324L31.6215 5.31683Z" fill="#7CDD83"/>
<path d="M27.278 30.3264C27.278 30.3264 28.6351 31.894 30.9377 30.7384L28.728 37.483L27.0664 34.0635L27.278 30.3264Z" fill="#69D173"/>
<path d="M15.5716 4.57417C15.4156 4.76231 15.3345 5.00263 15.3546 5.25051L18.8188 44.7124C20.0152 44.9005 21.2429 45.0001 22.4949 45.0001C22.9923 45.0001 23.4855 44.9829 23.9747 44.9527V3.50677C23.5249 3.48068 23.0716 3.46558 22.6147 3.46558C20.1508 3.46558 17.7819 3.85559 15.5716 4.57417Z" fill="#49A552"/>
<path d="M20.6735 30.3308C20.6735 30.3308 19.3146 31.894 17.0117 30.7383L21.8886 41.7236L20.6735 30.3308Z" fill="#3B9641"/>
<path d="M28.5978 6.93065L23.9727 4.45667V0C24.1477 0 24.3223 0.0432587 24.4791 0.129776L32.0907 4.33685C32.2962 4.45083 32.4482 4.6273 32.5296 4.83192L28.5978 6.93065Z" fill="#8CED91"/>
<path d="M15.418 4.83227C15.4994 4.6273 15.6514 4.45015 15.8573 4.33616L23.4675 0.129776C23.6246 0.0432587 23.7996 0 23.9746 0V4.45667L19.3495 6.93065L15.418 4.83227Z" fill="#69D173"/>
<path d="M19.3516 6.93077L21.5049 44.9781C21.8334 44.9919 22.1634 45.0001 22.4951 45.0001C23.8494 45.0001 25.176 44.8854 26.4646 44.6657L28.6004 6.93111L23.976 4.45679L19.3516 6.93077Z" fill="#55B160"/>
<path d="M24.278 32.1165C24.254 32.1182 24.2296 32.1196 24.2056 32.1213C22.719 32.2188 21.3766 31.482 20.6758 30.3309L21.505 44.9781C21.8331 44.9918 22.1631 45 22.4948 45C23.8495 45 25.1757 44.8854 26.4644 44.6656L27.276 30.3264C26.6648 31.3317 25.5627 32.0293 24.278 32.1165Z" fill="#49A552"/>
<path d="M22.5792 44.9988L16.2806 15.082L15.2846 17.2491L14.162 20.5422C14.1445 20.6356 14.1025 20.7211 14.043 20.7929L20.9545 44.9484C21.463 44.9817 21.9759 44.9998 22.4934 44.9998C22.5221 44.9998 22.5505 44.9988 22.5792 44.9988Z" fill="#8CED91"/>
<path d="M14.046 20.7932C13.9804 20.8722 13.8936 20.935 13.7921 20.9717L8.02682 23.0612C7.86579 23.1199 7.68826 23.1065 7.53906 23.0303L16.0756 44.1083C17.6386 44.5529 19.2722 44.8399 20.9575 44.9487L14.046 20.7932Z" fill="#55B160"/>
<path d="M16.0732 44.1083L7.53664 23.0304C7.5058 23.0146 7.47567 22.9971 7.4477 22.9761L4.31491 20.6082L2.77344 19.7983L14.1612 43.4732C14.7853 43.7114 15.4233 43.9233 16.0732 44.1083Z" fill="#49A552"/>
<path d="M34.5045 41.6745L43.5403 24.8513L41.5391 25.8549L38.7771 27.5931C38.709 27.6501 38.6283 27.6882 38.5429 27.7071L31.5938 43.1631C32.6055 42.734 33.5778 42.2358 34.5045 41.6745Z" fill="#69D173"/>
<path d="M31.5959 43.1631L38.5451 27.7071C38.4511 27.728 38.3518 27.7253 38.2571 27.6961L32.8982 26.0423C32.7483 25.9963 32.6292 25.8899 32.5682 25.7539L26.3672 44.6809C28.1952 44.3771 29.9476 43.8621 31.5959 43.1631Z" fill="#55B160"/>
<path d="M31.7118 22.2676L31.0934 20.8486L24.8906 44.8785C25.3884 44.828 25.8812 44.7621 26.3686 44.6811L32.5696 25.754C32.5567 25.7262 32.546 25.6974 32.5384 25.6668L31.7118 22.2676Z" fill="#49A552"/>
<path d="M26.8312 34.2884L19.8125 44.8473C20.6915 44.9472 21.586 45 22.493 45C25.0502 45 27.5077 44.5908 29.798 43.8382L28.231 34.5644C28.1188 33.9004 27.2089 33.7209 26.8312 34.2884Z" fill="#69D173"/>
<path d="M24.9844 44.8682C26.651 44.6924 28.2628 44.3429 29.7996 43.8382L28.2327 34.5644C28.1735 34.2152 27.8934 34.0017 27.5867 33.9587L24.9844 44.8682Z" fill="#7CDD83"/>
<path d="M28.0286 42.2875C27.1115 42.511 26.2439 42.0994 25.8082 41.4138L24.9844 44.8676C26.651 44.6922 28.2628 44.3427 29.7996 43.838L29.3706 41.2998C29.1113 41.7691 28.653 42.1337 28.0777 42.2755C28.0616 42.2796 28.0451 42.2834 28.0286 42.2875Z" fill="#69D173"/>
<path d="M11.7308 36.3114L10.793 41.8599C13.1518 43.238 15.7961 44.2113 18.6212 44.6806L12.904 36.08C12.5876 35.6042 11.8248 35.7546 11.7308 36.3114Z" fill="#7CDD83"/>
<path d="M43.6153 24.1263L38.9726 18.4031C38.8313 18.226 38.5902 18.1518 38.3679 18.2164L31.4697 20.2176C31.1888 20.299 31.0224 20.575 31.0888 20.8486L32.315 25.8896C32.3591 26.0719 32.5 26.2185 32.6865 26.2762L38.2022 27.9781C38.3883 28.0357 38.5924 27.9952 38.7394 27.872L43.5389 24.8514C43.7598 24.6667 43.7932 24.3495 43.6153 24.1263Z" fill="#8CED91"/>
<path d="M41.5951 25.8938L35.8919 24.1339C35.6993 24.0745 35.5537 23.9228 35.5078 23.7343L34.4426 19.3552L31.4694 20.2177C31.1886 20.2994 31.0222 20.575 31.0889 20.8487L32.3148 25.8897C32.3589 26.072 32.5002 26.2186 32.6863 26.2763L38.202 27.9781C38.3885 28.0358 38.5922 27.9953 38.7396 27.872L41.8509 25.9141C41.7662 25.9254 41.6791 25.9196 41.5951 25.8938Z" fill="#7CDD83"/>
<path d="M10.793 41.8599C11.8406 42.4717 12.9445 43.0032 14.0954 43.4471L12.272 35.8037C12.0149 35.8398 11.7803 36.0186 11.7308 36.3115L10.793 41.8599Z" fill="#69D173"/>
<path d="M15.8305 14.4125L7.77459 12.5516C7.52748 12.4926 7.26854 12.5863 7.12436 12.7872L2.65023 19.0099C2.46839 19.2633 2.52291 19.6083 2.77468 19.7988L7.42061 23.31C7.58881 23.437 7.81404 23.4703 8.01453 23.3975L13.948 21.247C14.1481 21.1745 14.2941 21.0066 14.3321 20.8051L16.2828 15.0823C16.3398 14.7798 16.1418 14.487 15.8305 14.4125Z" fill="#7CDD83"/>
<path d="M7.2513 18.7943C6.99953 18.6037 6.94502 18.259 7.12685 18.0057L10.5821 13.2002L7.77457 12.5516C7.52746 12.4926 7.26852 12.5863 7.12434 12.7872L2.65021 19.0099C2.46837 19.2633 2.52289 19.608 2.77501 19.7985L7.42094 23.31C7.58915 23.437 7.81438 23.47 8.0145 23.3975L11.6157 22.0926L7.2513 18.7943Z" fill="#69D173"/>
<path d="M33.3414 39.2757L31.5938 43.1632C32.6055 42.734 33.5778 42.2359 34.5045 41.6745L36.5592 37.8489C33.6807 41.2189 33.3414 39.2757 33.3414 39.2757Z" fill="#55B160"/>
<path d="M28.7266 37.4829L29.8004 43.8382C30.4115 43.6373 31.0108 43.4117 31.5968 43.1632L33.3445 39.2757C29.4697 40.3064 28.7266 37.4829 28.7266 37.4829Z" fill="#49A552"/>
</svg>
