<svg width="45" height="45" viewBox="0 0 45 45" fill="none" xmlns="http://www.w3.org/2000/svg">
<ellipse cx="22.4275" cy="22.4221" rx="22.4275" ry="22.4221" fill="#F7DED1"/>
<mask id="mask0" mask-type="alpha" maskUnits="userSpaceOnUse" x="0" y="0" width="45" height="46">
<ellipse cx="22.5" cy="22.5056" rx="22.5" ry="22.4946" fill="#F7DED1"/>
</mask>
<g mask="url(#mask0)">
<path d="M12.1211 20.9936V18.3877H16.0309V20.9936" fill="#BC8F6F"/>
<path d="M12.1211 20.9936V18.3877H14.7277V20.9936" fill="#CB9E78"/>
<path d="M32.9766 15.7817H42.0995V18.3877H32.9766V15.7817Z" fill="#BC8F6F"/>
<path d="M32.9766 15.7817H38.8413V18.3877H32.9766V15.7817Z" fill="#CB9E78"/>
<path d="M40.7937 18.3877H34.2773V42.4925C34.2773 44.2914 35.7362 45.7499 37.5355 45.7499C39.3349 45.7499 40.7937 44.2914 40.7937 42.4925V18.3877Z" fill="#BAB8B9"/>
<path d="M36.5581 45.5845C37.8763 45.1675 38.8388 43.9491 38.8388 42.4925V18.3877H34.2773V42.4925C34.2773 43.9485 35.2398 45.1668 36.5581 45.5845Z" fill="#D9D7D8"/>
<path d="M37.5355 45.75C39.3349 45.75 40.7937 44.2915 40.7937 42.4926V27.5085H34.2773V42.4926C34.2773 44.2915 35.7362 45.75 37.5355 45.75Z" fill="#D46B69"/>
<path d="M36.5581 45.5846C37.8763 45.1676 38.8388 43.9492 38.8388 42.4926V27.5085H34.2773V42.4926C34.2773 43.9486 35.2398 45.167 36.5581 45.5846Z" fill="#ED7775"/>
<path d="M22.5506 45.75C23.9901 45.75 25.1572 44.5831 25.1572 43.144V42.5056C25.1572 42.0698 25.0477 41.6403 24.8393 41.258L17.3375 27.5085V20.9937H10.8268V27.5085L3.326 41.258C3.11759 41.641 3.00781 42.0698 3.00781 42.5056V43.144C3.00781 44.5831 4.17491 45.75 5.61437 45.75H22.5506Z" fill="#BAB8B9"/>
<path d="M23.2023 43.144V42.5056C23.2023 42.0698 23.0928 41.6403 22.8844 41.258L15.3826 27.5085V20.9937H10.8268V27.5085L3.326 41.258C3.11759 41.641 3.00781 42.0698 3.00781 42.5056V43.144C3.00781 44.5831 4.17491 45.75 5.61437 45.75H20.5957C22.0352 45.75 23.2023 44.5831 23.2023 43.144Z" fill="#D9D7D8"/>
<path d="M25.1572 43.1439V42.5055C25.1572 42.0697 25.0477 41.6402 24.8393 41.2579L20.1811 32.7202H19.1804C18.8349 32.7202 18.5033 32.8576 18.259 33.1019L17.7193 33.6415C17.475 33.8858 17.1434 34.0232 16.7979 34.0232H16.5745C16.229 34.0232 15.8974 33.8858 15.653 33.6415L15.1134 33.1019C14.8684 32.8576 14.5369 32.7202 14.1913 32.7202H13.968C13.6224 32.7202 13.2909 32.8576 13.0465 33.1019L12.5069 33.6415C12.2619 33.8858 11.9303 34.0232 11.5848 34.0232H11.3614C11.0158 34.0232 10.6843 33.8858 10.4399 33.6415L9.9003 33.1019C9.6553 32.8576 9.32375 32.7202 8.9782 32.7202H7.98388L3.326 41.2579C3.11759 41.6409 3.00781 42.0697 3.00781 42.5055V43.1439C3.00781 44.583 4.17491 45.7499 5.61437 45.7499H22.5506C23.9901 45.7499 25.1572 44.583 25.1572 43.1439Z" fill="#599072"/>
<path d="M23.8512 28.8113V34.3638C21.575 35.1696 19.9414 37.3346 19.9414 39.8865C19.9414 43.1251 22.5667 45.7498 25.8062 45.7498C29.0456 45.7498 31.6709 43.1251 31.6709 39.8865C31.6709 37.3346 30.0374 35.1696 27.7611 34.3638V28.8113" fill="#BAB8B9"/>
<path d="M19.9414 39.8865C19.9414 42.904 22.2228 45.3868 25.1545 45.7113C28.0863 45.3868 30.3676 42.904 30.3676 39.8865C30.3676 37.3346 28.7341 35.1696 26.4578 34.3638V28.8113H23.8512V34.3638C21.575 35.1696 19.9414 37.3346 19.9414 39.8865Z" fill="#D9D7D8"/>
<path d="M31.6709 39.8866C31.6709 39.6658 31.6547 39.4495 31.6305 39.2351H30.9073C30.5617 39.2351 30.2302 39.3725 29.9858 39.6168L29.4462 40.1563C29.2018 40.4006 28.8703 40.5381 28.5247 40.5381H28.3014C27.9558 40.5381 27.6243 40.4006 27.3799 40.1563L26.8403 39.6168C26.5953 39.3725 26.2637 39.2351 25.9182 39.2351H25.6948C25.3492 39.2351 25.0177 39.3725 24.7733 39.6168L24.2337 40.1563C23.9887 40.4006 23.6572 40.5381 23.3116 40.5381H23.0882C22.7427 40.5381 22.4111 40.4006 22.1668 40.1563L21.6271 39.6168C21.3821 39.3725 21.0506 39.2351 20.705 39.2351H19.9818C19.9576 39.4495 19.9414 39.6658 19.9414 39.8866C19.9414 43.1252 22.5667 45.7499 25.8062 45.7499C29.0456 45.7499 31.6709 43.1252 31.6709 39.8866Z" fill="#85B6CF"/>
<path d="M25.1545 45.7116C28.0863 45.3871 30.3676 42.9043 30.3676 39.8867C30.3676 39.7127 30.352 39.5429 30.3358 39.3733C30.2079 39.436 30.088 39.5149 29.9858 39.617L29.4462 40.1565C29.2018 40.4008 28.8703 40.5382 28.5247 40.5382H28.3014C28.113 40.5382 27.9297 40.494 27.7617 40.417C27.5931 40.494 27.4098 40.5382 27.2214 40.5382H26.9981C26.6525 40.5382 26.321 40.4008 26.0766 40.1565L25.537 39.617C25.4262 39.5063 25.2952 39.4204 25.1552 39.3564C25.0152 39.4204 24.8847 39.5063 24.7733 39.617L24.2337 40.1565C23.9887 40.4008 23.6572 40.5382 23.3116 40.5382H23.0882C22.8999 40.5382 22.7166 40.494 22.5486 40.417C22.38 40.494 22.1967 40.5382 22.0083 40.5382H21.785C21.4394 40.5382 21.1079 40.4008 20.8635 40.1565L20.3239 39.617C20.2217 39.5149 20.1018 39.436 19.9739 39.3733C19.957 39.5429 19.9414 39.7127 19.9414 39.8867C19.9414 42.9043 22.2228 45.3871 25.1545 45.7116Z" fill="#94CCE7"/>
<path d="M13.4269 40.5381C13.4269 41.2576 12.8433 41.841 12.1236 41.841C11.4039 41.841 10.8203 41.2576 10.8203 40.5381C10.8203 39.8185 11.4039 39.2351 12.1236 39.2351C12.8433 39.2351 13.4269 39.8185 13.4269 40.5381Z" fill="#70B48F"/>
<path d="M17.9855 37.9321C17.9855 38.6517 17.4019 39.2351 16.6822 39.2351C15.9625 39.2351 15.3789 38.6517 15.3789 37.9321C15.3789 37.2126 15.9625 36.6292 16.6822 36.6292C17.4019 36.6292 17.9855 37.2126 17.9855 37.9321Z" fill="#70B48F"/>
<path d="M8.21203 41.8411C8.21203 42.5606 7.62848 43.144 6.90875 43.144C6.18902 43.144 5.60547 42.5606 5.60547 41.8411C5.60547 41.1215 6.18902 40.5381 6.90875 40.5381C7.62848 40.5381 8.21203 41.1215 8.21203 41.8411Z" fill="#70B48F"/>
<path d="M8.21311 9.26706C8.21311 10.7062 7.04602 11.873 5.60656 11.873C4.1671 11.873 3 10.7062 3 9.26706C3 7.82795 4.1671 6.66113 5.60656 6.66113C7.04602 6.66113 8.21311 7.82795 8.21311 9.26706Z" fill="#599072"/>
<path d="M9.51671 15.7817C9.51671 16.5013 8.93317 17.0847 8.21343 17.0847C7.4937 17.0847 6.91016 16.5013 6.91016 15.7817C6.91016 15.0622 7.4937 14.4788 8.21343 14.4788C8.93317 14.4788 9.51671 15.0622 9.51671 15.7817Z" fill="#85B6CF"/>
<path d="M6.90984 21.6451C6.90984 22.7245 6.03451 23.5996 4.95492 23.5996C3.87532 23.5996 3 22.7245 3 21.6451C3 20.5658 3.87532 19.6907 4.95492 19.6907C6.03451 19.6907 6.90984 20.5658 6.90984 21.6451Z" fill="#CB9E78"/>
<path d="M21.8984 28.1599H29.7181V29.4629H21.8984V28.1599Z" fill="black"/>
<path d="M21.8984 28.1599H29.7181V29.4629H21.8984V28.1599Z" fill="#BC8F6F"/>
<path d="M21.8984 28.1599H27.7632V29.4629H21.8984V28.1599Z" fill="#CB9E78"/>
<path d="M23.8516 30.7659H27.7614V32.0688H23.8516V30.7659Z" fill="#BC8F6F"/>
<path d="M23.8516 30.7659H26.4581V32.0688H23.8516V30.7659Z" fill="#CB9E78"/>
<path d="M8.86328 22.948H19.2895V24.251H8.86328V22.948Z" fill="#BC8F6F"/>
<path d="M8.86328 22.948H15.3797V24.251H8.86328V22.948Z" fill="#CB9E78"/>
<path d="M17.3359 42.4924H18.6392V43.7954H17.3359V42.4924Z" fill="#70B48F"/>
<path d="M16.0352 41.1897H17.3384V42.4927H16.0352V41.1897Z" fill="#70B48F"/>
<path d="M14.7266 42.4924H16.0298V43.7954H14.7266V42.4924Z" fill="#70B48F"/>
<path d="M9.51562 36.6292H10.8189V37.9321H9.51562V36.6292Z" fill="#70B48F"/>
<path d="M36.2305 41.8411H37.5338V43.144H36.2305V41.8411Z" fill="#D46B69"/>
<path d="M37.5312 39.2354H38.8345V40.5383H37.5312V39.2354Z" fill="#D46B69"/>
<path d="M36.2305 36.6294H37.5338V37.9324H36.2305V36.6294Z" fill="#D46B69"/>
<path d="M37.5312 34.0234H38.8345V35.3264H37.5312V34.0234Z" fill="#D46B69"/>
<path d="M36.2305 31.4175H37.5338V32.7204H36.2305V31.4175Z" fill="#D46B69"/>
<path d="M16.6822 16.4332H15.3789V7.96397C15.3789 6.88654 16.2561 6.00952 17.3338 6.00952H39.4896C40.5672 6.00952 41.4445 6.88654 41.4445 7.96397V13.8273H40.1412V7.96397C40.1412 7.60514 39.8491 7.31249 39.4896 7.31249H17.3338C16.9743 7.31249 16.6822 7.60514 16.6822 7.96397V16.4332Z" fill="#ED7775"/>
<path d="M28.4153 26.857H27.112V13.1759C27.112 12.8171 26.8199 12.5244 26.4604 12.5244H13.4276C13.068 12.5244 12.7759 12.8171 12.7759 13.1759V16.4333H11.4727V13.1759C11.4727 12.0985 12.3499 11.2214 13.4276 11.2214H26.4604C27.538 11.2214 28.4153 12.0985 28.4153 13.1759V26.857Z" fill="#599072"/>
<path d="M24.5025 26.857H23.1992V10.5699C23.1992 9.4925 24.0764 8.61548 25.1541 8.61548H32.9738C34.0515 8.61548 34.9287 9.4925 34.9287 10.5699V13.8273H33.6254V10.5699C33.6254 10.2111 33.3334 9.91844 32.9738 9.91844H25.1541C24.7946 9.91844 24.5025 10.2111 24.5025 10.5699V26.857Z" fill="#94CCE7"/>
</g>
</svg>
