<svg width="45" height="45" viewBox="0 0 45 45" fill="none" xmlns="http://www.w3.org/2000/svg">
<ellipse cx="22.5721" cy="22.5" rx="22.4275" ry="22.5" fill="#2DBCF9"/>
<mask id="mask0" mask-type="alpha" maskUnits="userSpaceOnUse" x="0" y="0" width="45" height="45">
<ellipse cx="22.5" cy="22.5707" rx="22.5" ry="22.4103" fill="#2DBCF9"/>
</mask>
<g mask="url(#mask0)">
<path d="M38 7.17304V16.8747C38 18.8149 36.4063 20.4022 34.4584 20.4022H-5.20841C-7.1563 20.4022 -8.75 18.8149 -8.75 16.8747V7.17304C-8.75 5.23383 -7.1563 3.64648 -5.20841 3.64648H34.4584C36.4063 3.64648 38 5.23383 38 7.17304Z" fill="#B3D8F4"/>
<path d="M38.0011 7.17304V16.8747C38.0011 18.8149 36.4074 20.4022 34.4595 20.4022H-2.30998C-4.25786 20.4022 -5.85156 18.8149 -5.85156 16.8747V7.17304C-5.85156 5.23383 -4.25786 3.64648 -2.30998 3.64648H34.4595C36.4074 3.64648 38.0011 5.23383 38.0011 7.17304Z" fill="#D1E7F8"/>
<path d="M38 15.6404V16.8749C38 16.9935 37.9943 17.111 37.983 17.2267C37.9311 17.7367 37.7695 18.2147 37.522 18.6381C36.9079 19.691 35.7621 20.4023 34.4584 20.4023H-5.20841C-6.51203 20.4023 -7.65795 19.691 -8.272 18.6381C-8.51954 18.2147 -8.68106 17.7367 -8.73302 17.2267C-8.74434 17.111 -8.75 16.9935 -8.75 16.8749V15.6404H38Z" fill="#78B9EB"/>
<path d="M32.4323 12.5531C32.4323 12.9182 32.2301 13.2362 31.9316 13.4018C31.7918 13.4789 31.6303 13.5232 31.4584 13.5232C30.9208 13.5232 30.4844 13.0895 30.4844 12.5531C30.4844 12.0177 30.9208 11.583 31.4584 11.583C31.6303 11.583 31.7918 11.6272 31.9316 11.7053C32.2301 11.8709 32.4323 12.189 32.4323 12.5531Z" fill="#6DC82A"/>
<path d="M36.1863 12.5531C36.1863 12.9182 35.9841 13.2362 35.6846 13.4018C35.5448 13.4789 35.3833 13.5232 35.2123 13.5232C34.6738 13.5232 34.2383 13.0895 34.2383 12.5531C34.2383 12.0177 34.6737 11.583 35.2123 11.583C35.3833 11.583 35.5448 11.6272 35.6846 11.7053C35.9841 11.8709 36.1863 12.189 36.1863 12.5531Z" fill="#FF0C38"/>
<path d="M32.4329 12.5531C32.4329 12.9182 32.2307 13.2362 31.9322 13.4018C31.6328 13.2362 31.4297 12.9192 31.4297 12.5531C31.4297 12.1881 31.6328 11.87 31.9322 11.7053C32.2307 11.8709 32.4329 12.189 32.4329 12.5531Z" fill="#91DC5A"/>
<path d="M36.1869 12.5531C36.1869 12.9182 35.9847 13.2362 35.6852 13.4018C35.3858 13.2362 35.1836 12.9192 35.1836 12.5531C35.1836 12.1881 35.3858 11.87 35.6852 11.7053C35.9847 11.8709 36.1869 12.189 36.1869 12.5531Z" fill="#FF3F62"/>
<path d="M17.5152 7.60774C17.5152 7.99726 17.1978 8.31338 16.8067 8.31338H12.5717C12.1807 8.31338 11.8633 7.99726 11.8633 7.60774C11.8633 7.21822 12.1807 6.9021 12.5717 6.9021H16.8067C17.1977 6.90201 17.5152 7.21822 17.5152 7.60774Z" fill="#165C92"/>
<path d="M17.514 7.60774C17.514 7.99726 17.1966 8.31338 16.8056 8.31338H15.31C14.9189 8.31338 14.6016 7.99726 14.6016 7.60774C14.6016 7.21822 14.9189 6.9021 15.31 6.9021H16.8055C17.1966 6.90201 17.514 7.21822 17.514 7.60774Z" fill="#1A6FB0"/>
<path d="M7.14198 17.9323C7.14198 18.3228 6.82459 18.6379 6.43351 18.6379H-8.26945C-8.51699 18.2145 -8.67851 17.7366 -8.73047 17.2266H6.43342C6.8245 17.2266 7.14198 17.5428 7.14198 17.9323Z" fill="#3D9AE2"/>
<path d="M37.9852 17.2266C37.9332 17.7365 37.7717 18.2145 37.5241 18.6379H9.26706C8.87598 18.6379 8.55859 18.3227 8.55859 17.9323C8.55859 17.5428 8.87598 17.2267 9.26706 17.2267H37.9852V17.2266Z" fill="#3D9AE2"/>
<path d="M42.5682 28.8686H40.6917V23.3871C40.6917 21.0014 38.743 19.0604 36.3476 19.0604H33.3125V17.1914H36.3476C39.7777 17.1914 42.5682 19.9708 42.5682 23.3871V28.8686Z" fill="#202A58"/>
<path d="M29.4922 20.2767H32.5273C33.7199 20.2767 34.6868 19.3138 34.6868 18.1259C34.6868 16.9381 33.72 15.9751 32.5273 15.9751H29.4922V20.2767Z" fill="#E43135"/>
<path d="M44.7496 40.5276H38.5039L39.0769 32.8584L39.6817 31.9238L39.2164 30.9893L39.3077 29.7676C39.3978 28.5577 40.4092 27.6226 41.6271 27.6226C42.2363 27.6226 42.793 27.8562 43.2096 28.2412C43.6262 28.6262 43.9014 29.1626 43.9464 29.7676L44.0378 30.9893L43.54 31.9238L44.1772 32.8584L44.7496 40.5276Z" fill="#2A4979"/>
<path d="M44.1785 32.8585H39.0781L39.2176 30.9895H44.039L44.1785 32.8585Z" fill="#202A58"/>
<path d="M21.4336 19.2048L26.8521 17.4078L27.4451 19.1815L22.0266 20.9785L21.4336 19.2048Z" fill="#2A4979"/>
<path d="M30.3667 14.3538V22.5507H26.0482V18.6557L20.5 16.5044V14.3538L30.3667 14.3538Z" fill="#2A4979"/>
<path d="M28.207 14.3538H30.3663V22.5507H28.207V14.3538Z" fill="#202A58"/>
<path d="M34.6872 32.4535L33.8115 34.6041L34.6872 36.7554V46.2519H21.7305V36.7554L22.6062 34.6041L21.7305 32.4535V25.9804C21.7305 23.6042 23.6639 21.6785 26.0496 21.6785H30.3681C31.5603 21.6785 32.6405 22.1601 33.4218 22.9382C34.2037 23.717 34.6872 24.7923 34.6872 25.9804V32.4535Z" fill="#FD6B53"/>
<path d="M34.6854 32.4535L33.8097 34.6041L34.6854 36.7554V46.2519H28.207V21.6785H30.3663C31.5585 21.6785 32.6387 22.1601 33.42 22.9382C34.2019 23.717 34.6854 24.7923 34.6854 25.9804V32.4535Z" fill="#E43135"/>
<path d="M21.7305 32.4536H34.6872V36.7555H21.7305V32.4536Z" fill="#F0F7FF"/>
<path d="M28.207 32.4536H34.6854V36.7555H28.207V32.4536Z" fill="#DFE7F4"/>
</g>
</svg>
