<svg width="399" height="434" viewBox="0 0 399 434" fill="none" xmlns="http://www.w3.org/2000/svg">
<ellipse cx="199.5" cy="200" rx="179.5" ry="179" fill="#079999"/>
<ellipse cx="199.5" cy="200" rx="87.5" ry="88" fill="#39D9BF"/>
<ellipse cx="199.5" cy="200" rx="81.5" ry="81" fill="#F3F3F3"/>
<g filter="url(#filter0_d)">
<path d="M146.801 207.634H155.689V210.164H149.815V213.31H154.809V215.84H149.815V219.47H155.909V222H146.801V207.634ZM160.308 211.11H162.75L162.97 212.54H163.058C163.586 211.997 164.106 211.579 164.62 211.286C165.133 210.993 165.712 210.846 166.358 210.846C167.12 210.846 167.744 211.007 168.228 211.33C168.712 211.638 169.093 212.1 169.372 212.716C169.929 212.129 170.479 211.675 171.022 211.352C171.564 211.015 172.158 210.846 172.804 210.846C173.948 210.846 174.798 211.227 175.356 211.99C175.913 212.753 176.192 213.831 176.192 215.224V222H173.2V215.598C173.2 214.806 173.082 214.249 172.848 213.926C172.628 213.589 172.261 213.42 171.748 213.42C171.161 213.42 170.494 213.801 169.746 214.564V222H166.754V215.598C166.754 214.806 166.636 214.249 166.402 213.926C166.182 213.589 165.815 213.42 165.302 213.42C164.715 213.42 164.048 213.801 163.3 214.564V222H160.308V211.11ZM180.824 211.11H183.816V222H180.824V211.11ZM182.32 209.416C181.821 209.416 181.41 209.269 181.088 208.976C180.78 208.668 180.626 208.279 180.626 207.81C180.626 207.341 180.78 206.959 181.088 206.666C181.41 206.358 181.821 206.204 182.32 206.204C182.818 206.204 183.222 206.358 183.53 206.666C183.852 206.959 184.014 207.341 184.014 207.81C184.014 208.279 183.852 208.668 183.53 208.976C183.222 209.269 182.818 209.416 182.32 209.416ZM191.724 222.264C191.02 222.264 190.286 222.125 189.524 221.846C188.776 221.567 188.123 221.201 187.566 220.746L188.93 218.854C189.443 219.25 189.927 219.543 190.382 219.734C190.851 219.925 191.328 220.02 191.812 220.02C192.31 220.02 192.684 219.932 192.934 219.756C193.183 219.565 193.308 219.301 193.308 218.964C193.308 218.729 193.205 218.524 193 218.348C192.809 218.172 192.53 218.011 192.164 217.864C191.797 217.703 191.43 217.549 191.064 217.402C190.198 217.065 189.487 216.654 188.93 216.17C188.387 215.671 188.116 215.019 188.116 214.212C188.116 213.215 188.49 212.408 189.238 211.792C189.986 211.161 190.976 210.846 192.208 210.846C193.557 210.846 194.811 211.301 195.97 212.21L194.628 214.014C193.762 213.398 192.985 213.09 192.296 213.09C191.841 213.09 191.496 213.178 191.262 213.354C191.042 213.53 190.932 213.765 190.932 214.058C190.932 214.351 191.078 214.593 191.372 214.784C191.665 214.96 192.002 215.114 192.384 215.246C192.765 215.378 193.014 215.466 193.132 215.51C194.056 215.847 194.782 216.258 195.31 216.742C195.852 217.211 196.124 217.893 196.124 218.788C196.124 219.448 195.948 220.042 195.596 220.57C195.258 221.083 194.76 221.494 194.1 221.802C193.44 222.11 192.648 222.264 191.724 222.264ZM200.006 211.11H202.998V222H200.006V211.11ZM201.502 209.416C201.003 209.416 200.592 209.269 200.27 208.976C199.962 208.668 199.808 208.279 199.808 207.81C199.808 207.341 199.962 206.959 200.27 206.666C200.592 206.358 201.003 206.204 201.502 206.204C202 206.204 202.404 206.358 202.712 206.666C203.034 206.959 203.196 207.341 203.196 207.81C203.196 208.279 203.034 208.668 202.712 208.976C202.404 209.269 202 209.416 201.502 209.416ZM212.358 222.264C211.419 222.264 210.546 222.037 209.74 221.582C208.948 221.127 208.31 220.467 207.826 219.602C207.342 218.737 207.1 217.725 207.1 216.566C207.1 215.393 207.342 214.373 207.826 213.508C208.31 212.643 208.948 211.983 209.74 211.528C210.546 211.073 211.419 210.846 212.358 210.846C213.282 210.846 214.147 211.073 214.954 211.528C215.76 211.983 216.406 212.65 216.89 213.53C217.374 214.395 217.616 215.407 217.616 216.566C217.616 217.725 217.374 218.737 216.89 219.602C216.406 220.467 215.76 221.127 214.954 221.582C214.147 222.037 213.282 222.264 212.358 222.264ZM212.358 219.822C213.047 219.822 213.582 219.536 213.964 218.964C214.345 218.377 214.536 217.578 214.536 216.566C214.536 215.554 214.345 214.755 213.964 214.168C213.582 213.581 213.047 213.288 212.358 213.288C211.654 213.288 211.111 213.581 210.73 214.168C210.363 214.755 210.18 215.554 210.18 216.566C210.18 217.578 210.363 218.377 210.73 218.964C211.111 219.536 211.654 219.822 212.358 219.822ZM221.68 211.11H224.122L224.342 212.518H224.43C224.958 212.005 225.501 211.601 226.058 211.308C226.63 211 227.261 210.846 227.95 210.846C229.094 210.846 229.937 211.227 230.48 211.99C231.037 212.738 231.316 213.816 231.316 215.224V222H228.302V215.598C228.302 214.791 228.185 214.227 227.95 213.904C227.73 213.581 227.363 213.42 226.85 213.42C226.439 213.42 226.08 213.508 225.772 213.684C225.464 213.86 225.097 214.153 224.672 214.564V222H221.68V211.11ZM244.964 216.06C244.964 216.617 244.92 217.072 244.832 217.424H238.1C238.247 218.289 238.599 218.927 239.156 219.338C239.728 219.749 240.388 219.954 241.136 219.954C241.913 219.954 242.72 219.712 243.556 219.228L244.546 221.054C244.003 221.435 243.395 221.736 242.72 221.956C242.06 222.161 241.4 222.264 240.74 222.264C239.713 222.264 238.782 222.037 237.946 221.582C237.125 221.127 236.472 220.467 235.988 219.602C235.519 218.737 235.284 217.725 235.284 216.566C235.284 215.422 235.519 214.417 235.988 213.552C236.472 212.687 237.103 212.019 237.88 211.55C238.657 211.081 239.486 210.846 240.366 210.846C241.847 210.846 242.984 211.33 243.776 212.298C244.568 213.251 244.964 214.505 244.964 216.06ZM242.39 215.422C242.39 214.718 242.229 214.168 241.906 213.772C241.583 213.361 241.092 213.156 240.432 213.156C239.889 213.156 239.405 213.347 238.98 213.728C238.569 214.095 238.291 214.659 238.144 215.422H242.39ZM252.151 222.264C251.447 222.264 250.713 222.125 249.951 221.846C249.203 221.567 248.55 221.201 247.993 220.746L249.357 218.854C249.87 219.25 250.354 219.543 250.809 219.734C251.278 219.925 251.755 220.02 252.239 220.02C252.737 220.02 253.111 219.932 253.361 219.756C253.61 219.565 253.735 219.301 253.735 218.964C253.735 218.729 253.632 218.524 253.427 218.348C253.236 218.172 252.957 218.011 252.591 217.864C252.224 217.703 251.857 217.549 251.491 217.402C250.625 217.065 249.914 216.654 249.357 216.17C248.814 215.671 248.543 215.019 248.543 214.212C248.543 213.215 248.917 212.408 249.665 211.792C250.413 211.161 251.403 210.846 252.635 210.846C253.984 210.846 255.238 211.301 256.397 212.21L255.055 214.014C254.189 213.398 253.412 213.09 252.723 213.09C252.268 213.09 251.923 213.178 251.689 213.354C251.469 213.53 251.359 213.765 251.359 214.058C251.359 214.351 251.505 214.593 251.799 214.784C252.092 214.96 252.429 215.114 252.811 215.246C253.192 215.378 253.441 215.466 253.559 215.51C254.483 215.847 255.209 216.258 255.737 216.742C256.279 217.211 256.551 217.893 256.551 218.788C256.551 219.448 256.375 220.042 256.023 220.57C255.685 221.083 255.187 221.494 254.527 221.802C253.867 222.11 253.075 222.264 252.151 222.264ZM169.307 251.264C168.046 251.264 167.122 250.905 166.535 250.186C165.949 249.453 165.655 248.433 165.655 247.128V242.486H164.137V240.242L165.809 240.11L166.161 237.206H168.647V240.11H171.309V242.486H168.647V247.106C168.647 248.294 169.131 248.888 170.099 248.888C170.407 248.888 170.767 248.815 171.177 248.668L171.661 250.868C170.869 251.132 170.085 251.264 169.307 251.264ZM179.48 251.264C178.542 251.264 177.669 251.037 176.862 250.582C176.07 250.127 175.432 249.467 174.948 248.602C174.464 247.737 174.222 246.725 174.222 245.566C174.222 244.393 174.464 243.373 174.948 242.508C175.432 241.643 176.07 240.983 176.862 240.528C177.669 240.073 178.542 239.846 179.48 239.846C180.404 239.846 181.27 240.073 182.076 240.528C182.883 240.983 183.528 241.65 184.012 242.53C184.496 243.395 184.738 244.407 184.738 245.566C184.738 246.725 184.496 247.737 184.012 248.602C183.528 249.467 182.883 250.127 182.076 250.582C181.27 251.037 180.404 251.264 179.48 251.264ZM179.48 248.822C180.17 248.822 180.705 248.536 181.086 247.964C181.468 247.377 181.658 246.578 181.658 245.566C181.658 244.554 181.468 243.755 181.086 243.168C180.705 242.581 180.17 242.288 179.48 242.288C178.776 242.288 178.234 242.581 177.852 243.168C177.486 243.755 177.302 244.554 177.302 245.566C177.302 246.578 177.486 247.377 177.852 247.964C178.234 248.536 178.776 248.822 179.48 248.822ZM192.292 251.264C191.031 251.264 190.107 250.905 189.52 250.186C188.934 249.453 188.64 248.433 188.64 247.128V242.486H187.122V240.242L188.794 240.11L189.146 237.206H191.632V240.11H194.294V242.486H191.632V247.106C191.632 248.294 192.116 248.888 193.084 248.888C193.392 248.888 193.752 248.815 194.162 248.668L194.646 250.868C193.854 251.132 193.07 251.264 192.292 251.264ZM200.487 251.264C199.519 251.264 198.734 250.956 198.133 250.34C197.546 249.724 197.253 248.947 197.253 248.008C197.253 246.849 197.744 245.955 198.727 245.324C199.71 244.679 201.286 244.239 203.457 244.004C203.413 242.831 202.812 242.244 201.653 242.244C201.198 242.244 200.736 242.332 200.267 242.508C199.798 242.684 199.284 242.933 198.727 243.256L197.649 241.276C199.189 240.323 200.714 239.846 202.225 239.846C203.618 239.846 204.674 240.257 205.393 241.078C206.112 241.885 206.471 243.095 206.471 244.708V251H204.007L203.787 249.856H203.721C202.636 250.795 201.558 251.264 200.487 251.264ZM201.477 248.932C201.844 248.932 202.174 248.851 202.467 248.69C202.775 248.514 203.105 248.257 203.457 247.92V245.83C202.269 245.991 201.418 246.233 200.905 246.556C200.392 246.879 200.135 247.282 200.135 247.766C200.135 248.147 200.252 248.441 200.487 248.646C200.722 248.837 201.052 248.932 201.477 248.932ZM213.872 251.264C212.89 251.264 212.178 250.963 211.738 250.362C211.298 249.761 211.078 248.91 211.078 247.81V235.534H214.07V247.942C214.07 248.25 214.129 248.477 214.246 248.624C214.364 248.756 214.496 248.822 214.642 248.822C214.789 248.822 214.921 248.807 215.038 248.778L215.412 251.022C214.987 251.183 214.474 251.264 213.872 251.264ZM228.046 245.06C228.046 245.617 228.002 246.072 227.914 246.424H221.182C221.328 247.289 221.68 247.927 222.238 248.338C222.81 248.749 223.47 248.954 224.218 248.954C224.995 248.954 225.802 248.712 226.638 248.228L227.628 250.054C227.085 250.435 226.476 250.736 225.802 250.956C225.142 251.161 224.482 251.264 223.822 251.264C222.795 251.264 221.864 251.037 221.028 250.582C220.206 250.127 219.554 249.467 219.07 248.602C218.6 247.737 218.366 246.725 218.366 245.566C218.366 244.422 218.6 243.417 219.07 242.552C219.554 241.687 220.184 241.019 220.962 240.55C221.739 240.081 222.568 239.846 223.448 239.846C224.929 239.846 226.066 240.33 226.858 241.298C227.65 242.251 228.046 243.505 228.046 245.06ZM225.472 244.422C225.472 243.718 225.31 243.168 224.988 242.772C224.665 242.361 224.174 242.156 223.514 242.156C222.971 242.156 222.487 242.347 222.062 242.728C221.651 243.095 221.372 243.659 221.226 244.422H225.472ZM235.233 251.264C234.529 251.264 233.795 251.125 233.033 250.846C232.285 250.567 231.632 250.201 231.075 249.746L232.439 247.854C232.952 248.25 233.436 248.543 233.891 248.734C234.36 248.925 234.837 249.02 235.321 249.02C235.819 249.02 236.193 248.932 236.443 248.756C236.692 248.565 236.817 248.301 236.817 247.964C236.817 247.729 236.714 247.524 236.509 247.348C236.318 247.172 236.039 247.011 235.673 246.864C235.306 246.703 234.939 246.549 234.573 246.402C233.707 246.065 232.996 245.654 232.439 245.17C231.896 244.671 231.625 244.019 231.625 243.212C231.625 242.215 231.999 241.408 232.747 240.792C233.495 240.161 234.485 239.846 235.717 239.846C237.066 239.846 238.32 240.301 239.479 241.21L238.137 243.014C237.271 242.398 236.494 242.09 235.805 242.09C235.35 242.09 235.005 242.178 234.771 242.354C234.551 242.53 234.441 242.765 234.441 243.058C234.441 243.351 234.587 243.593 234.881 243.784C235.174 243.96 235.511 244.114 235.893 244.246C236.274 244.378 236.523 244.466 236.641 244.51C237.565 244.847 238.291 245.258 238.819 245.742C239.361 246.211 239.633 246.893 239.633 247.788C239.633 248.448 239.457 249.042 239.105 249.57C238.767 250.083 238.269 250.494 237.609 250.802C236.949 251.11 236.157 251.264 235.233 251.264Z" fill="#39D9BF"/>
</g>
<g filter="url(#filter1_d)">
<path d="M185.791 156.264C183.752 156.264 182.146 155.604 180.973 154.284L182.359 152.37C183.356 153.338 184.405 153.822 185.505 153.822C186.223 153.822 186.795 153.668 187.221 153.36C187.661 153.037 187.881 152.59 187.881 152.018C187.881 151.314 187.595 150.786 187.023 150.434C186.465 150.082 185.461 149.906 184.009 149.906V147.75C185.241 147.75 186.113 147.581 186.627 147.244C187.155 146.892 187.419 146.401 187.419 145.77C187.419 145.242 187.257 144.839 186.935 144.56C186.612 144.267 186.165 144.12 185.593 144.12C185.094 144.12 184.632 144.223 184.207 144.428C183.796 144.633 183.363 144.949 182.909 145.374L181.391 143.526C182.769 142.338 184.214 141.744 185.725 141.744C187.162 141.744 188.306 142.081 189.157 142.756C190.007 143.416 190.433 144.347 190.433 145.55C190.433 146.987 189.648 148.029 188.079 148.674V148.762C188.929 149.011 189.611 149.429 190.125 150.016C190.638 150.588 190.895 151.314 190.895 152.194C190.895 153.03 190.667 153.756 190.213 154.372C189.758 154.988 189.142 155.457 188.365 155.78C187.587 156.103 186.729 156.264 185.791 156.264ZM200.32 147.288C201.567 147.288 202.564 147.655 203.312 148.388C204.075 149.107 204.456 150.177 204.456 151.6C204.456 152.539 204.251 153.36 203.84 154.064C203.43 154.768 202.872 155.311 202.168 155.692C201.479 156.073 200.716 156.264 199.88 156.264C198.942 156.264 198.076 156.015 197.284 155.516C196.492 155.017 195.854 154.255 195.37 153.228C194.901 152.187 194.666 150.896 194.666 149.356C194.666 147.669 194.923 146.254 195.436 145.11C195.95 143.966 196.632 143.123 197.482 142.58C198.333 142.023 199.264 141.744 200.276 141.744C201.112 141.744 201.86 141.898 202.52 142.206C203.18 142.514 203.752 142.91 204.236 143.394L202.652 145.198C202.388 144.905 202.051 144.663 201.64 144.472C201.244 144.281 200.848 144.186 200.452 144.186C199.572 144.186 198.861 144.553 198.318 145.286C197.776 146.019 197.475 147.207 197.416 148.85C197.783 148.366 198.238 147.985 198.78 147.706C199.323 147.427 199.836 147.288 200.32 147.288ZM199.836 153.998C200.379 153.998 200.826 153.793 201.178 153.382C201.53 152.971 201.706 152.377 201.706 151.6C201.706 150.867 201.53 150.324 201.178 149.972C200.826 149.605 200.35 149.422 199.748 149.422C199.338 149.422 198.934 149.539 198.538 149.774C198.157 150.009 197.812 150.383 197.504 150.896C197.636 151.981 197.908 152.773 198.318 153.272C198.729 153.756 199.235 153.998 199.836 153.998ZM217.996 152.568H216.324V156H213.53V152.568H207.436V150.5L212.694 142.008H216.324V150.28H217.996V152.568ZM213.53 150.28V147.706C213.53 147.09 213.566 146.071 213.64 144.648H213.552C213.405 144.956 213.09 145.587 212.606 146.54L212.408 146.936L210.34 150.28H213.53ZM158.203 174.11H160.645L160.865 175.54H160.953C161.481 174.997 162.002 174.579 162.515 174.286C163.029 173.993 163.608 173.846 164.253 173.846C165.016 173.846 165.639 174.007 166.123 174.33C166.607 174.638 166.989 175.1 167.267 175.716C167.825 175.129 168.375 174.675 168.917 174.352C169.46 174.015 170.054 173.846 170.699 173.846C171.843 173.846 172.694 174.227 173.251 174.99C173.809 175.753 174.087 176.831 174.087 178.224V185H171.095V178.598C171.095 177.806 170.978 177.249 170.743 176.926C170.523 176.589 170.157 176.42 169.643 176.42C169.057 176.42 168.389 176.801 167.641 177.564V185H164.649V178.598C164.649 177.806 164.532 177.249 164.297 176.926C164.077 176.589 163.711 176.42 163.197 176.42C162.611 176.42 161.943 176.801 161.195 177.564V185H158.203V174.11ZM182.789 185.264C181.528 185.264 180.604 184.905 180.017 184.186C179.431 183.453 179.137 182.433 179.137 181.128V176.486H177.619V174.242L179.291 174.11L179.643 171.206H182.129V174.11H184.791V176.486H182.129V181.106C182.129 182.294 182.613 182.888 183.581 182.888C183.889 182.888 184.249 182.815 184.659 182.668L185.143 184.868C184.351 185.132 183.567 185.264 182.789 185.264ZM194.911 185.264C193.679 185.264 192.557 184.978 191.545 184.406C190.547 183.834 189.755 182.998 189.169 181.898C188.582 180.783 188.289 179.449 188.289 177.894C188.289 176.354 188.589 175.019 189.191 173.89C189.792 172.746 190.606 171.873 191.633 171.272C192.659 170.671 193.781 170.37 194.999 170.37C195.864 170.37 196.656 170.546 197.375 170.898C198.108 171.235 198.739 171.675 199.267 172.218L197.661 174.154C197.265 173.773 196.854 173.487 196.429 173.296C196.018 173.091 195.563 172.988 195.065 172.988C194.361 172.988 193.73 173.186 193.173 173.582C192.615 173.963 192.175 174.521 191.853 175.254C191.545 175.973 191.391 176.816 191.391 177.784C191.391 179.295 191.713 180.483 192.359 181.348C193.019 182.213 193.906 182.646 195.021 182.646C196.121 182.646 197.081 182.184 197.903 181.26L199.509 183.152C198.306 184.56 196.773 185.264 194.911 185.264ZM208.484 185.264C207.208 185.264 206.078 184.963 205.096 184.362C204.128 183.761 203.372 182.895 202.83 181.766C202.287 180.622 202.016 179.287 202.016 177.762C202.016 176.222 202.287 174.902 202.83 173.802C203.372 172.687 204.128 171.837 205.096 171.25C206.078 170.663 207.208 170.37 208.484 170.37C209.76 170.37 210.882 170.663 211.85 171.25C212.832 171.837 213.588 172.687 214.116 173.802C214.658 174.917 214.93 176.237 214.93 177.762C214.93 179.287 214.658 180.622 214.116 181.766C213.588 182.895 212.832 183.761 211.85 184.362C210.882 184.963 209.76 185.264 208.484 185.264ZM208.484 182.646C209.51 182.646 210.324 182.206 210.926 181.326C211.542 180.446 211.85 179.258 211.85 177.762C211.85 176.281 211.542 175.115 210.926 174.264C210.324 173.413 209.51 172.988 208.484 172.988C207.442 172.988 206.621 173.413 206.02 174.264C205.418 175.1 205.118 176.266 205.118 177.762C205.118 179.258 205.418 180.446 206.02 181.326C206.636 182.206 207.457 182.646 208.484 182.646ZM218.552 183.262C220.078 181.81 221.236 180.666 222.028 179.83C222.835 178.994 223.48 178.195 223.964 177.432C224.448 176.669 224.69 175.965 224.69 175.32C224.69 174.631 224.507 174.095 224.14 173.714C223.774 173.318 223.26 173.12 222.6 173.12C222.131 173.12 221.691 173.252 221.28 173.516C220.87 173.78 220.459 174.132 220.048 174.572L218.398 172.944C219.102 172.196 219.806 171.646 220.51 171.294C221.229 170.927 222.065 170.744 223.018 170.744C224.382 170.744 225.482 171.147 226.318 171.954C227.154 172.746 227.572 173.809 227.572 175.144C227.572 176.229 227.169 177.359 226.362 178.532C225.556 179.691 224.397 181.055 222.886 182.624C223.737 182.521 224.522 182.47 225.24 182.47H228.254V185H218.552V183.262ZM241.508 179.06C241.508 179.617 241.464 180.072 241.376 180.424H234.644C234.79 181.289 235.142 181.927 235.7 182.338C236.272 182.749 236.932 182.954 237.68 182.954C238.457 182.954 239.264 182.712 240.1 182.228L241.09 184.054C240.547 184.435 239.938 184.736 239.264 184.956C238.604 185.161 237.944 185.264 237.284 185.264C236.257 185.264 235.326 185.037 234.49 184.582C233.668 184.127 233.016 183.467 232.532 182.602C232.062 181.737 231.828 180.725 231.828 179.566C231.828 178.422 232.062 177.417 232.532 176.552C233.016 175.687 233.646 175.019 234.424 174.55C235.201 174.081 236.03 173.846 236.91 173.846C238.391 173.846 239.528 174.33 240.32 175.298C241.112 176.251 241.508 177.505 241.508 179.06ZM238.934 178.422C238.934 177.718 238.772 177.168 238.45 176.772C238.127 176.361 237.636 176.156 236.976 176.156C236.433 176.156 235.949 176.347 235.524 176.728C235.113 177.095 234.834 177.659 234.688 178.422H238.934Z" fill="#39D9BF"/>
</g>
<line y1="-1" x2="100.419" y2="-1" transform="matrix(-0.99995 -0.0099583 0.00261384 -0.999997 112 198)" stroke="#EFEFEF" stroke-width="2"/>
<line y1="-1" x2="100.419" y2="-1" transform="matrix(0.99995 0.00995839 -0.00261393 0.999997 287 201)" stroke="#EFEFEF" stroke-width="2"/>
<line y1="-1" x2="100.419" y2="-1" transform="matrix(0.00995834 -0.99995 0.999997 0.00261389 201 112)" stroke="#EFEFEF" stroke-width="2"/>
<line y1="-1" x2="107.591" y2="-1" transform="matrix(-0.00995843 0.99995 -0.999997 -0.00261398 199 274)" stroke="#EFEFEF" stroke-width="2"/>
<ellipse cx="7.5" cy="199" rx="7.5" ry="7" fill="#EFEFEF"/>
<ellipse cx="7.5" cy="199" rx="7.5" ry="7" fill="#EFEFEF"/>
<ellipse cx="7.5" cy="199" rx="7.5" ry="7" fill="#EFEFEF"/>
<ellipse cx="7.5" cy="199" rx="7.5" ry="7" fill="#EFEFEF"/>
<ellipse cx="391.5" cy="200" rx="7.5" ry="7" transform="rotate(-180 391.5 200)" fill="#EFEFEF"/>
<ellipse cx="391.5" cy="200" rx="7.5" ry="7" transform="rotate(-180 391.5 200)" fill="#EFEFEF"/>
<ellipse cx="391.5" cy="200" rx="7.5" ry="7" transform="rotate(-180 391.5 200)" fill="#EFEFEF"/>
<ellipse cx="391.5" cy="200" rx="7.5" ry="7" transform="rotate(-180 391.5 200)" fill="#EFEFEF"/>
<ellipse cx="200" cy="7.5" rx="7.5" ry="7" transform="rotate(90 200 7.5)" fill="#EFEFEF"/>
<ellipse cx="200" cy="7.5" rx="7.5" ry="7" transform="rotate(90 200 7.5)" fill="#EFEFEF"/>
<ellipse cx="200" cy="7.5" rx="7.5" ry="7" transform="rotate(90 200 7.5)" fill="#EFEFEF"/>
<ellipse cx="200" cy="7.5" rx="7.5" ry="7" transform="rotate(90 200 7.5)" fill="#EFEFEF"/>
<ellipse cx="200" cy="386" rx="8" ry="7" transform="rotate(-90 200 386)" fill="#EFEFEF"/>
<ellipse cx="200" cy="386" rx="8" ry="7" transform="rotate(-90 200 386)" fill="#EFEFEF"/>
<ellipse cx="200" cy="386" rx="8" ry="7" transform="rotate(-90 200 386)" fill="#EFEFEF"/>
<ellipse cx="200" cy="386" rx="8" ry="7" transform="rotate(-90 200 386)" fill="#EFEFEF"/>
<ellipse cx="37.5721" cy="366.5" rx="22.4275" ry="22.5" fill="#2DBCF9"/>
<mask id="mask0" mask-type="alpha" maskUnits="userSpaceOnUse" x="15" y="344" width="45" height="45">
<ellipse cx="37.5" cy="366.571" rx="22.5" ry="22.4103" fill="#2DBCF9"/>
</mask>
<g mask="url(#mask0)">
<path d="M53 351.173V360.875C53 362.815 51.4063 364.402 49.4584 364.402H9.79159C7.8437 364.402 6.25 362.815 6.25 360.875V351.173C6.25 349.234 7.8437 347.646 9.79159 347.646H49.4584C51.4063 347.646 53 349.234 53 351.173Z" fill="#B3D8F4"/>
<path d="M53.0011 351.173V360.875C53.0011 362.815 51.4074 364.402 49.4595 364.402H12.69C10.7421 364.402 9.14844 362.815 9.14844 360.875V351.173C9.14844 349.234 10.7421 347.646 12.69 347.646H49.4595C51.4074 347.646 53.0011 349.234 53.0011 351.173Z" fill="#D1E7F8"/>
<path d="M53 359.64V360.875C53 360.993 52.9943 361.111 52.983 361.227C52.9311 361.737 52.7695 362.215 52.522 362.638C51.9079 363.691 50.7621 364.402 49.4584 364.402H9.79159C8.48797 364.402 7.34205 363.691 6.728 362.638C6.48046 362.215 6.31894 361.737 6.26698 361.227C6.25566 361.111 6.25 360.993 6.25 360.875V359.64H53Z" fill="#78B9EB"/>
<path d="M47.4323 356.553C47.4323 356.918 47.2301 357.236 46.9316 357.402C46.7918 357.479 46.6303 357.523 46.4584 357.523C45.9208 357.523 45.4844 357.09 45.4844 356.553C45.4844 356.018 45.9208 355.583 46.4584 355.583C46.6303 355.583 46.7918 355.627 46.9316 355.705C47.2301 355.871 47.4323 356.189 47.4323 356.553Z" fill="#6DC82A"/>
<path d="M51.1863 356.553C51.1863 356.918 50.9841 357.236 50.6846 357.402C50.5448 357.479 50.3833 357.523 50.2123 357.523C49.6738 357.523 49.2383 357.09 49.2383 356.553C49.2383 356.018 49.6737 355.583 50.2123 355.583C50.3833 355.583 50.5448 355.627 50.6846 355.705C50.9841 355.871 51.1863 356.189 51.1863 356.553Z" fill="#FF0C38"/>
<path d="M47.4329 356.553C47.4329 356.918 47.2307 357.236 46.9322 357.402C46.6328 357.236 46.4297 356.919 46.4297 356.553C46.4297 356.188 46.6328 355.87 46.9322 355.705C47.2307 355.871 47.4329 356.189 47.4329 356.553Z" fill="#91DC5A"/>
<path d="M51.1869 356.553C51.1869 356.918 50.9847 357.236 50.6852 357.402C50.3858 357.236 50.1836 356.919 50.1836 356.553C50.1836 356.188 50.3858 355.87 50.6852 355.705C50.9847 355.871 51.1869 356.189 51.1869 356.553Z" fill="#FF3F62"/>
<path d="M32.5152 351.608C32.5152 351.997 32.1978 352.313 31.8067 352.313H27.5717C27.1807 352.313 26.8633 351.997 26.8633 351.608C26.8633 351.218 27.1807 350.902 27.5717 350.902H31.8067C32.1977 350.902 32.5152 351.218 32.5152 351.608Z" fill="#165C92"/>
<path d="M32.514 351.608C32.514 351.997 32.1966 352.313 31.8056 352.313H30.31C29.9189 352.313 29.6016 351.997 29.6016 351.608C29.6016 351.218 29.9189 350.902 30.31 350.902H31.8055C32.1966 350.902 32.514 351.218 32.514 351.608Z" fill="#1A6FB0"/>
<path d="M22.142 361.932C22.142 362.323 21.8246 362.638 21.4335 362.638H6.73055C6.48301 362.214 6.32149 361.737 6.26953 361.227H21.4334C21.8245 361.227 22.142 361.543 22.142 361.932Z" fill="#3D9AE2"/>
<path d="M52.9852 361.227C52.9332 361.736 52.7717 362.214 52.5241 362.638H24.2671C23.876 362.638 23.5586 362.323 23.5586 361.932C23.5586 361.543 23.876 361.227 24.2671 361.227H52.9852V361.227Z" fill="#3D9AE2"/>
<path d="M57.5682 372.869H55.6917V367.387C55.6917 365.001 53.743 363.06 51.3476 363.06H48.3125V361.191H51.3476C54.7777 361.191 57.5682 363.971 57.5682 367.387V372.869Z" fill="#202A58"/>
<path d="M44.4922 364.277H47.5273C48.7199 364.277 49.6868 363.314 49.6868 362.126C49.6868 360.938 48.72 359.975 47.5273 359.975H44.4922V364.277Z" fill="#E43135"/>
<path d="M59.7496 384.528H53.5039L54.0769 376.858L54.6817 375.924L54.2164 374.989L54.3077 373.768C54.3978 372.558 55.4092 371.623 56.6271 371.623C57.2363 371.623 57.793 371.856 58.2096 372.241C58.6262 372.626 58.9014 373.163 58.9464 373.768L59.0378 374.989L58.54 375.924L59.1772 376.858L59.7496 384.528Z" fill="#2A4979"/>
<path d="M59.1785 376.859H54.0781L54.2176 374.99H59.039L59.1785 376.859Z" fill="#202A58"/>
<path d="M36.4336 363.205L41.8521 361.408L42.4451 363.181L37.0266 364.979L36.4336 363.205Z" fill="#2A4979"/>
<path d="M45.3667 358.354V366.551H41.0482V362.656L35.5 360.504V358.354H45.3667Z" fill="#2A4979"/>
<path d="M43.207 358.354H45.3663V366.551H43.207V358.354Z" fill="#202A58"/>
<path d="M49.6872 376.453L48.8115 378.604L49.6872 380.755V390.252H36.7305V380.755L37.6062 378.604L36.7305 376.453V369.98C36.7305 367.604 38.6639 365.678 41.0496 365.678H45.3681C46.5603 365.678 47.6405 366.16 48.4218 366.938C49.2037 367.717 49.6872 368.792 49.6872 369.98V376.453Z" fill="#FD6B53"/>
<path d="M49.6854 376.453L48.8097 378.604L49.6854 380.755V390.252H43.207V365.678H45.3663C46.5585 365.678 47.6387 366.16 48.42 366.938C49.2019 367.717 49.6854 368.792 49.6854 369.98V376.453Z" fill="#E43135"/>
<path d="M36.7305 376.454H49.6872V380.756H36.7305V376.454Z" fill="#F0F7FF"/>
<path d="M43.207 376.454H49.6854V380.756H43.207V376.454Z" fill="#DFE7F4"/>
</g>
<ellipse cx="356.422" cy="366.422" rx="22.4218" ry="22.4221" fill="#FF5B5B"/>
<mask id="mask1" mask-type="alpha" maskUnits="userSpaceOnUse" x="334" y="344" width="46" height="46">
<ellipse cx="356.506" cy="366.506" rx="22.4943" ry="22.4946" fill="#FF5B5B"/>
</mask>
<g mask="url(#mask1)">
<path d="M359.744 359.736L362.754 359.205L361.786 353.72L358.779 354.25C358.363 353.259 357.824 352.332 357.182 351.489L359.147 349.147L354.88 345.567L352.916 347.906C351.979 347.422 350.974 347.053 349.918 346.815V343.761H344.348V346.815C343.292 347.053 342.286 347.422 341.349 347.906L339.386 345.567L335.119 349.147L337.084 351.489C336.441 352.332 335.902 353.259 335.486 354.25L332.479 353.72L331.512 359.205L334.522 359.736C334.573 360.826 334.762 361.879 335.072 362.879L332.429 364.405L335.214 369.229L337.861 367.7C338.584 368.482 339.405 369.173 340.304 369.753L339.259 372.623L344.493 374.529L345.538 371.658C346.06 371.723 346.592 371.758 347.133 371.758C347.673 371.758 348.206 371.723 348.728 371.658L349.773 374.529L355.007 372.623L353.962 369.753C354.861 369.173 355.681 368.482 356.404 367.7L359.051 369.229L361.837 364.405L359.193 362.879C359.503 361.879 359.692 360.826 359.744 359.736ZM347.133 364.95C343.92 364.95 341.315 362.345 341.315 359.132C341.315 355.919 343.92 353.314 347.133 353.314C350.346 353.314 352.95 355.919 352.95 359.132C352.95 362.345 350.346 364.95 347.133 364.95Z" fill="#A8D3D8"/>
<path d="M359.744 359.736L362.754 359.205L361.786 353.72L358.78 354.25C358.363 353.259 357.824 352.332 357.182 351.489L359.147 349.147L354.88 345.567L352.916 347.906C351.979 347.422 350.974 347.053 349.918 346.815V343.761H347.133V353.314C350.346 353.314 352.95 355.919 352.95 359.132C352.95 362.345 350.346 364.95 347.133 364.95V371.758C347.673 371.758 348.206 371.723 348.728 371.658L349.773 374.529L355.007 372.623L353.962 369.753C354.861 369.173 355.681 368.482 356.404 367.7L359.052 369.229L361.837 364.405L359.193 362.879C359.503 361.879 359.692 360.826 359.744 359.736Z" fill="#7DA1B3"/>
<path d="M354.039 371.891C354.039 373.221 352.961 374.299 351.63 374.299H347.937C343.289 374.299 339.508 370.517 339.508 365.869V364.665H354.039V371.891Z" fill="#474F54"/>
<path d="M369.695 374.299V371.891H352.836V374.299C354.828 374.299 356.449 375.92 356.449 377.912C356.449 379.904 354.828 381.525 352.836 381.525V383.933H369.695V381.525C367.703 381.525 366.083 379.904 366.083 377.912C366.083 375.92 367.703 374.299 369.695 374.299Z" fill="#474F54"/>
<path d="M366.084 377.912C366.084 379.904 367.705 381.525 369.696 381.525V383.933H360.062V371.891H369.696V374.299C367.705 374.299 366.084 375.92 366.084 377.912Z" fill="#32393F"/>
<path d="M351.633 362.257V374.299H369.777C375.753 374.299 380.615 369.437 380.615 363.461V362.257H351.633Z" fill="#575F64"/>
<path d="M380.615 362.257V363.461C380.615 369.437 375.753 374.299 369.777 374.299H360.062V362.257H380.615Z" fill="#474F54"/>
<path d="M346.812 381.525V388.75H375.714V381.525H346.812Z" fill="#575F64"/>
<path d="M360.062 381.525H375.718V388.75H360.062V381.525Z" fill="#474F54"/>
</g>
<ellipse cx="356.691" cy="27.3727" rx="22.3087" ry="21.3554" fill="#C4C4C4"/>
<path d="M378.989 27.4668C378.989 39.3591 368.918 49 356.494 49C344.071 49 334 39.3591 334 27.4668C334 15.5744 344.071 5.93359 356.494 5.93359C368.918 5.93359 378.989 15.5744 378.989 27.4668Z" fill="#603256"/>
<path d="M365.622 9.31683C363.245 8.27863 360.713 7.66785 357.973 7.50684V48.9527C359.742 48.8425 361.455 48.5377 363.089 48.0584L366.549 9.74427C366.549 9.74427 366.587 9.09402 366.53 8.8324L365.622 9.31683Z" fill="#7CDD83"/>
<path d="M361.278 34.3264C361.278 34.3264 362.635 35.894 364.938 34.7384L362.728 41.483L361.066 38.0635L361.278 34.3264Z" fill="#69D173"/>
<path d="M349.572 8.57417C349.416 8.76231 349.334 9.00263 349.355 9.25051L352.819 48.7124C354.015 48.9005 355.243 49.0001 356.495 49.0001C356.992 49.0001 357.485 48.9829 357.975 48.9527V7.50677C357.525 7.48068 357.072 7.46558 356.615 7.46558C354.151 7.46558 351.782 7.85559 349.572 8.57417Z" fill="#49A552"/>
<path d="M354.674 34.3308C354.674 34.3308 353.315 35.894 351.012 34.7383L355.889 45.7236L354.674 34.3308Z" fill="#3B9641"/>
<path d="M362.598 10.9307L357.973 8.45667V4C358.148 4 358.322 4.04326 358.479 4.12978L366.091 8.33685C366.296 8.45083 366.448 8.6273 366.53 8.83192L362.598 10.9307Z" fill="#8CED91"/>
<path d="M349.418 8.83227C349.499 8.6273 349.651 8.45015 349.857 8.33616L357.467 4.12978C357.625 4.04326 357.8 4 357.975 4V8.45667L353.349 10.9307L349.418 8.83227Z" fill="#69D173"/>
<path d="M353.352 10.9308L355.505 48.9781C355.833 48.9919 356.163 49.0001 356.495 49.0001C357.849 49.0001 359.176 48.8854 360.465 48.6657L362.6 10.9311L357.976 8.45679L353.352 10.9308Z" fill="#55B160"/>
<path d="M358.278 36.1165C358.254 36.1182 358.23 36.1196 358.206 36.1213C356.719 36.2188 355.377 35.482 354.676 34.3309L355.505 48.9781C355.833 48.9918 356.163 49 356.495 49C357.849 49 359.176 48.8854 360.464 48.6656L361.276 34.3264C360.665 35.3317 359.563 36.0293 358.278 36.1165Z" fill="#49A552"/>
<path d="M356.579 48.9988L350.281 19.082L349.285 21.2491L348.162 24.5422C348.144 24.6356 348.103 24.7211 348.043 24.7929L354.954 48.9484C355.463 48.9817 355.976 48.9998 356.493 48.9998C356.522 48.9998 356.55 48.9988 356.579 48.9988Z" fill="#8CED91"/>
<path d="M348.046 24.7932C347.98 24.8722 347.894 24.935 347.792 24.9717L342.027 27.0612C341.866 27.1199 341.688 27.1065 341.539 27.0303L350.076 48.1083C351.639 48.5529 353.272 48.8399 354.958 48.9487L348.046 24.7932Z" fill="#55B160"/>
<path d="M350.073 48.1083L341.537 27.0304C341.506 27.0146 341.476 26.9971 341.448 26.9761L338.315 24.6082L336.773 23.7983L348.161 47.4732C348.785 47.7114 349.423 47.9233 350.073 48.1083Z" fill="#49A552"/>
<path d="M368.505 45.6745L377.54 28.8513L375.539 29.8549L372.777 31.5931C372.709 31.6501 372.628 31.6882 372.543 31.7071L365.594 47.1631C366.605 46.734 367.578 46.2358 368.505 45.6745Z" fill="#69D173"/>
<path d="M365.596 47.1631L372.545 31.7071C372.451 31.728 372.352 31.7253 372.257 31.6961L366.898 30.0423C366.748 29.9963 366.629 29.8899 366.568 29.7539L360.367 48.6809C362.195 48.3771 363.948 47.8621 365.596 47.1631Z" fill="#55B160"/>
<path d="M365.712 26.2676L365.093 24.8486L358.891 48.8785C359.388 48.828 359.881 48.7621 360.369 48.6811L366.57 29.754C366.557 29.7262 366.546 29.6974 366.538 29.6668L365.712 26.2676Z" fill="#49A552"/>
<path d="M360.831 38.2884L353.812 48.8473C354.692 48.9472 355.586 49 356.493 49C359.05 49 361.508 48.5908 363.798 47.8382L362.231 38.5644C362.119 37.9004 361.209 37.7209 360.831 38.2884Z" fill="#69D173"/>
<path d="M358.984 48.8682C360.651 48.6924 362.263 48.3429 363.8 47.8382L362.233 38.5644C362.173 38.2152 361.893 38.0017 361.587 37.9587L358.984 48.8682Z" fill="#7CDD83"/>
<path d="M362.029 46.2875C361.112 46.511 360.244 46.0994 359.808 45.4138L358.984 48.8676C360.651 48.6922 362.263 48.3427 363.8 47.838L363.371 45.2998C363.111 45.7691 362.653 46.1337 362.078 46.2755C362.062 46.2796 362.045 46.2834 362.029 46.2875Z" fill="#69D173"/>
<path d="M345.731 40.3114L344.793 45.8599C347.152 47.238 349.796 48.2113 352.621 48.6806L346.904 40.08C346.588 39.6042 345.825 39.7546 345.731 40.3114Z" fill="#7CDD83"/>
<path d="M377.615 28.1263L372.973 22.4031C372.831 22.226 372.59 22.1518 372.368 22.2164L365.47 24.2176C365.189 24.299 365.022 24.575 365.089 24.8486L366.315 29.8896C366.359 30.0719 366.5 30.2185 366.687 30.2762L372.202 31.9781C372.388 32.0357 372.592 31.9952 372.739 31.872L377.539 28.8514C377.76 28.6667 377.793 28.3495 377.615 28.1263Z" fill="#8CED91"/>
<path d="M375.595 29.8938L369.892 28.1339C369.699 28.0745 369.554 27.9228 369.508 27.7343L368.443 23.3552L365.469 24.2177C365.189 24.2994 365.022 24.575 365.089 24.8487L366.315 29.8897C366.359 30.072 366.5 30.2186 366.686 30.2763L372.202 31.9781C372.388 32.0358 372.592 31.9953 372.74 31.872L375.851 29.9141C375.766 29.9254 375.679 29.9196 375.595 29.8938Z" fill="#7CDD83"/>
<path d="M344.793 45.8599C345.841 46.4717 346.944 47.0032 348.095 47.4471L346.272 39.8037C346.015 39.8398 345.78 40.0186 345.731 40.3115L344.793 45.8599Z" fill="#69D173"/>
<path d="M349.831 18.4125L341.775 16.5516C341.527 16.4926 341.269 16.5863 341.124 16.7872L336.65 23.0099C336.468 23.2633 336.523 23.6083 336.775 23.7988L341.421 27.31C341.589 27.437 341.814 27.4703 342.015 27.3975L347.948 25.247C348.148 25.1745 348.294 25.0066 348.332 24.8051L350.283 19.0823C350.34 18.7798 350.142 18.487 349.831 18.4125Z" fill="#7CDD83"/>
<path d="M341.251 22.7943C341 22.6037 340.945 22.259 341.127 22.0057L344.582 17.2002L341.775 16.5516C341.527 16.4926 341.269 16.5863 341.124 16.7872L336.65 23.0099C336.468 23.2633 336.523 23.608 336.775 23.7985L341.421 27.31C341.589 27.437 341.814 27.47 342.015 27.3975L345.616 26.0926L341.251 22.7943Z" fill="#69D173"/>
<path d="M367.341 43.2757L365.594 47.1632C366.605 46.734 367.578 46.2359 368.505 45.6745L370.559 41.8489C367.681 45.2189 367.341 43.2757 367.341 43.2757Z" fill="#55B160"/>
<path d="M362.727 41.4829L363.8 47.8382C364.411 47.6373 365.011 47.4117 365.597 47.1632L367.345 43.2757C363.47 44.3064 362.727 41.4829 362.727 41.4829Z" fill="#49A552"/>
<ellipse cx="37.4275" cy="25.4221" rx="22.4275" ry="22.4221" fill="#F7DED1"/>
<mask id="mask2" mask-type="alpha" maskUnits="userSpaceOnUse" x="15" y="3" width="45" height="46">
<ellipse cx="37.5" cy="25.5056" rx="22.5" ry="22.4946" fill="#F7DED1"/>
</mask>
<g mask="url(#mask2)">
<path d="M27.1211 23.9936V21.3877H31.0309V23.9936" fill="#BC8F6F"/>
<path d="M27.1211 23.9936V21.3877H29.7277V23.9936" fill="#CB9E78"/>
<path d="M47.9766 18.7817H57.0995V21.3877H47.9766V18.7817Z" fill="#BC8F6F"/>
<path d="M47.9766 18.7817H53.8413V21.3877H47.9766V18.7817Z" fill="#CB9E78"/>
<path d="M55.7937 21.3877H49.2773V45.4925C49.2773 47.2914 50.7362 48.7499 52.5355 48.7499C54.3349 48.7499 55.7937 47.2914 55.7937 45.4925V21.3877Z" fill="#BAB8B9"/>
<path d="M51.5581 48.5845C52.8763 48.1675 53.8388 46.9491 53.8388 45.4925V21.3877H49.2773V45.4925C49.2773 46.9485 50.2398 48.1668 51.5581 48.5845Z" fill="#D9D7D8"/>
<path d="M52.5355 48.75C54.3349 48.75 55.7937 47.2915 55.7937 45.4926V30.5085H49.2773V45.4926C49.2773 47.2915 50.7362 48.75 52.5355 48.75Z" fill="#D46B69"/>
<path d="M51.5581 48.5846C52.8763 48.1676 53.8388 46.9492 53.8388 45.4926V30.5085H49.2773V45.4926C49.2773 46.9486 50.2398 48.167 51.5581 48.5846Z" fill="#ED7775"/>
<path d="M37.5506 48.75C38.9901 48.75 40.1572 47.5831 40.1572 46.144V45.5056C40.1572 45.0698 40.0477 44.6403 39.8393 44.258L32.3375 30.5085V23.9937H25.8268V30.5085L18.326 44.258C18.1176 44.641 18.0078 45.0698 18.0078 45.5056V46.144C18.0078 47.5831 19.1749 48.75 20.6144 48.75H37.5506Z" fill="#BAB8B9"/>
<path d="M38.2023 46.144V45.5056C38.2023 45.0698 38.0928 44.6403 37.8844 44.258L30.3826 30.5085V23.9937H25.8268V30.5085L18.326 44.258C18.1176 44.641 18.0078 45.0698 18.0078 45.5056V46.144C18.0078 47.5831 19.1749 48.75 20.6144 48.75H35.5957C37.0352 48.75 38.2023 47.5831 38.2023 46.144Z" fill="#D9D7D8"/>
<path d="M40.1572 46.1439V45.5055C40.1572 45.0697 40.0477 44.6402 39.8393 44.2579L35.1811 35.7202H34.1804C33.8349 35.7202 33.5033 35.8576 33.259 36.1019L32.7193 36.6415C32.475 36.8858 32.1434 37.0232 31.7979 37.0232H31.5745C31.229 37.0232 30.8974 36.8858 30.653 36.6415L30.1134 36.1019C29.8684 35.8576 29.5369 35.7202 29.1913 35.7202H28.968C28.6224 35.7202 28.2909 35.8576 28.0465 36.1019L27.5069 36.6415C27.2619 36.8858 26.9303 37.0232 26.5848 37.0232H26.3614C26.0158 37.0232 25.6843 36.8858 25.4399 36.6415L24.9003 36.1019C24.6553 35.8576 24.3237 35.7202 23.9782 35.7202H22.9839L18.326 44.2579C18.1176 44.6409 18.0078 45.0697 18.0078 45.5055V46.1439C18.0078 47.583 19.1749 48.7499 20.6144 48.7499H37.5506C38.9901 48.7499 40.1572 47.583 40.1572 46.1439Z" fill="#599072"/>
<path d="M38.8512 31.8113V37.3638C36.575 38.1696 34.9414 40.3346 34.9414 42.8865C34.9414 46.1251 37.5667 48.7498 40.8062 48.7498C44.0456 48.7498 46.6709 46.1251 46.6709 42.8865C46.6709 40.3346 45.0374 38.1696 42.7611 37.3638V31.8113" fill="#BAB8B9"/>
<path d="M34.9414 42.8865C34.9414 45.904 37.2228 48.3868 40.1545 48.7113C43.0863 48.3868 45.3676 45.904 45.3676 42.8865C45.3676 40.3346 43.7341 38.1696 41.4578 37.3638V31.8113H38.8512V37.3638C36.575 38.1696 34.9414 40.3346 34.9414 42.8865Z" fill="#D9D7D8"/>
<path d="M46.6709 42.8866C46.6709 42.6658 46.6547 42.4495 46.6305 42.2351H45.9073C45.5617 42.2351 45.2302 42.3725 44.9858 42.6168L44.4462 43.1563C44.2018 43.4006 43.8703 43.5381 43.5247 43.5381H43.3014C42.9558 43.5381 42.6243 43.4006 42.3799 43.1563L41.8403 42.6168C41.5953 42.3725 41.2637 42.2351 40.9182 42.2351H40.6948C40.3492 42.2351 40.0177 42.3725 39.7733 42.6168L39.2337 43.1563C38.9887 43.4006 38.6572 43.5381 38.3116 43.5381H38.0882C37.7427 43.5381 37.4111 43.4006 37.1668 43.1563L36.6271 42.6168C36.3821 42.3725 36.0506 42.2351 35.705 42.2351H34.9818C34.9576 42.4495 34.9414 42.6658 34.9414 42.8866C34.9414 46.1252 37.5667 48.7499 40.8062 48.7499C44.0456 48.7499 46.6709 46.1252 46.6709 42.8866Z" fill="#85B6CF"/>
<path d="M40.1545 48.7116C43.0863 48.3871 45.3676 45.9043 45.3676 42.8867C45.3676 42.7127 45.352 42.5429 45.3358 42.3733C45.2079 42.436 45.088 42.5149 44.9858 42.617L44.4462 43.1565C44.2018 43.4008 43.8703 43.5382 43.5247 43.5382H43.3014C43.113 43.5382 42.9297 43.494 42.7617 43.417C42.5931 43.494 42.4098 43.5382 42.2214 43.5382H41.9981C41.6525 43.5382 41.321 43.4008 41.0766 43.1565L40.537 42.617C40.4262 42.5063 40.2952 42.4204 40.1552 42.3564C40.0152 42.4204 39.8847 42.5063 39.7733 42.617L39.2337 43.1565C38.9887 43.4008 38.6572 43.5382 38.3116 43.5382H38.0882C37.8999 43.5382 37.7166 43.494 37.5486 43.417C37.38 43.494 37.1967 43.5382 37.0083 43.5382H36.785C36.4394 43.5382 36.1079 43.4008 35.8635 43.1565L35.3239 42.617C35.2217 42.5149 35.1018 42.436 34.9739 42.3733C34.957 42.5429 34.9414 42.7127 34.9414 42.8867C34.9414 45.9043 37.2228 48.3871 40.1545 48.7116Z" fill="#94CCE7"/>
<path d="M28.4269 43.5381C28.4269 44.2576 27.8433 44.841 27.1236 44.841C26.4039 44.841 25.8203 44.2576 25.8203 43.5381C25.8203 42.8185 26.4039 42.2351 27.1236 42.2351C27.8433 42.2351 28.4269 42.8185 28.4269 43.5381Z" fill="#70B48F"/>
<path d="M32.9855 40.9321C32.9855 41.6517 32.4019 42.2351 31.6822 42.2351C30.9625 42.2351 30.3789 41.6517 30.3789 40.9321C30.3789 40.2126 30.9625 39.6292 31.6822 39.6292C32.4019 39.6292 32.9855 40.2126 32.9855 40.9321Z" fill="#70B48F"/>
<path d="M23.212 44.8411C23.212 45.5606 22.6285 46.144 21.9087 46.144C21.189 46.144 20.6055 45.5606 20.6055 44.8411C20.6055 44.1215 21.189 43.5381 21.9087 43.5381C22.6285 43.5381 23.212 44.1215 23.212 44.8411Z" fill="#70B48F"/>
<path d="M23.2131 12.2671C23.2131 13.7062 22.046 14.873 20.6066 14.873C19.1671 14.873 18 13.7062 18 12.2671C18 10.8279 19.1671 9.66113 20.6066 9.66113C22.046 9.66113 23.2131 10.8279 23.2131 12.2671Z" fill="#599072"/>
<path d="M24.5167 18.7817C24.5167 19.5013 23.9332 20.0847 23.2134 20.0847C22.4937 20.0847 21.9102 19.5013 21.9102 18.7817C21.9102 18.0622 22.4937 17.4788 23.2134 17.4788C23.9332 17.4788 24.5167 18.0622 24.5167 18.7817Z" fill="#85B6CF"/>
<path d="M21.9098 24.6451C21.9098 25.7245 21.0345 26.5996 19.9549 26.5996C18.8753 26.5996 18 25.7245 18 24.6451C18 23.5658 18.8753 22.6907 19.9549 22.6907C21.0345 22.6907 21.9098 23.5658 21.9098 24.6451Z" fill="#CB9E78"/>
<path d="M36.8984 31.1599H44.7181V32.4629H36.8984V31.1599Z" fill="black"/>
<path d="M36.8984 31.1599H44.7181V32.4629H36.8984V31.1599Z" fill="#BC8F6F"/>
<path d="M36.8984 31.1599H42.7632V32.4629H36.8984V31.1599Z" fill="#CB9E78"/>
<path d="M38.8516 33.7659H42.7614V35.0688H38.8516V33.7659Z" fill="#BC8F6F"/>
<path d="M38.8516 33.7659H41.4581V35.0688H38.8516V33.7659Z" fill="#CB9E78"/>
<path d="M23.8633 25.948H34.2895V27.251H23.8633V25.948Z" fill="#BC8F6F"/>
<path d="M23.8633 25.948H30.3797V27.251H23.8633V25.948Z" fill="#CB9E78"/>
<path d="M32.3359 45.4924H33.6392V46.7954H32.3359V45.4924Z" fill="#70B48F"/>
<path d="M31.0352 44.1897H32.3384V45.4927H31.0352V44.1897Z" fill="#70B48F"/>
<path d="M29.7266 45.4924H31.0298V46.7954H29.7266V45.4924Z" fill="#70B48F"/>
<path d="M24.5156 39.6292H25.8189V40.9321H24.5156V39.6292Z" fill="#70B48F"/>
<path d="M51.2305 44.8411H52.5338V46.144H51.2305V44.8411Z" fill="#D46B69"/>
<path d="M52.5312 42.2354H53.8345V43.5383H52.5312V42.2354Z" fill="#D46B69"/>
<path d="M51.2305 39.6294H52.5338V40.9324H51.2305V39.6294Z" fill="#D46B69"/>
<path d="M52.5312 37.0234H53.8345V38.3264H52.5312V37.0234Z" fill="#D46B69"/>
<path d="M51.2305 34.4175H52.5338V35.7204H51.2305V34.4175Z" fill="#D46B69"/>
<path d="M31.6822 19.4332H30.3789V10.964C30.3789 9.88654 31.2561 9.00952 32.3338 9.00952H54.4896C55.5672 9.00952 56.4445 9.88654 56.4445 10.964V16.8273H55.1412V10.964C55.1412 10.6051 54.8491 10.3125 54.4896 10.3125H32.3338C31.9743 10.3125 31.6822 10.6051 31.6822 10.964V19.4332Z" fill="#ED7775"/>
<path d="M43.4153 29.857H42.112V16.1759C42.112 15.8171 41.8199 15.5244 41.4604 15.5244H28.4276C28.068 15.5244 27.7759 15.8171 27.7759 16.1759V19.4333H26.4727V16.1759C26.4727 15.0985 27.3499 14.2214 28.4276 14.2214H41.4604C42.538 14.2214 43.4153 15.0985 43.4153 16.1759V29.857Z" fill="#599072"/>
<path d="M39.5025 29.857H38.1992V13.5699C38.1992 12.4925 39.0764 11.6155 40.1541 11.6155H47.9738C49.0515 11.6155 49.9287 12.4925 49.9287 13.5699V16.8273H48.6254V13.5699C48.6254 13.2111 48.3334 12.9184 47.9738 12.9184H40.1541C39.7946 12.9184 39.5025 13.2111 39.5025 13.5699V29.857Z" fill="#94CCE7"/>
</g>
<g filter="url(#filter2_d)">
<path d="M335.22 422.578C336.468 421.39 337.416 420.454 338.064 419.77C338.724 419.086 339.252 418.432 339.648 417.808C340.044 417.184 340.242 416.608 340.242 416.08C340.242 415.516 340.092 415.078 339.792 414.766C339.492 414.442 339.072 414.28 338.532 414.28C338.148 414.28 337.788 414.388 337.452 414.604C337.116 414.82 336.78 415.108 336.444 415.468L335.094 414.136C335.67 413.524 336.246 413.074 336.822 412.786C337.41 412.486 338.094 412.336 338.874 412.336C339.99 412.336 340.89 412.666 341.574 413.326C342.258 413.974 342.6 414.844 342.6 415.936C342.6 416.824 342.27 417.748 341.61 418.708C340.95 419.656 340.002 420.772 338.766 422.056C339.462 421.972 340.104 421.93 340.692 421.93H343.158V424H335.22V422.578ZM349.807 424.216C348.211 424.216 346.879 423.682 345.811 422.614L346.927 421.048C347.755 421.828 348.601 422.218 349.465 422.218C350.077 422.218 350.563 422.05 350.923 421.714C351.295 421.378 351.481 420.904 351.481 420.292C351.481 419.704 351.307 419.242 350.959 418.906C350.611 418.57 350.155 418.402 349.591 418.402C349.255 418.402 348.967 418.444 348.727 418.528C348.499 418.612 348.205 418.774 347.845 419.014L346.729 418.294L347.053 412.552H353.425V414.622H349.177L348.979 416.98C349.447 416.776 349.897 416.674 350.329 416.674C351.373 416.674 352.237 416.98 352.921 417.592C353.605 418.192 353.947 419.074 353.947 420.238C353.947 421.054 353.755 421.762 353.371 422.362C352.999 422.962 352.495 423.424 351.859 423.748C351.235 424.06 350.551 424.216 349.807 424.216ZM359.643 419.212C358.779 419.212 358.077 418.882 357.537 418.222C357.009 417.55 356.745 416.632 356.745 415.468C356.745 414.316 357.009 413.41 357.537 412.75C358.077 412.09 358.779 411.76 359.643 411.76C360.495 411.76 361.185 412.09 361.713 412.75C362.253 413.41 362.523 414.316 362.523 415.468C362.523 416.62 362.253 417.532 361.713 418.204C361.185 418.876 360.495 419.212 359.643 419.212ZM366.321 412.03H367.761L361.389 424.216H359.949L366.321 412.03ZM359.643 417.826C359.991 417.826 360.267 417.64 360.471 417.268C360.687 416.884 360.795 416.284 360.795 415.468C360.795 414.664 360.687 414.076 360.471 413.704C360.267 413.332 359.991 413.146 359.643 413.146C359.295 413.146 359.013 413.332 358.797 413.704C358.581 414.076 358.473 414.664 358.473 415.468C358.473 416.272 358.581 416.866 358.797 417.25C359.013 417.634 359.295 417.826 359.643 417.826ZM368.085 424.216C367.233 424.216 366.537 423.88 365.997 423.208C365.469 422.536 365.205 421.624 365.205 420.472C365.205 419.32 365.469 418.414 365.997 417.754C366.537 417.094 367.233 416.764 368.085 416.764C368.949 416.764 369.645 417.094 370.173 417.754C370.713 418.414 370.983 419.32 370.983 420.472C370.983 421.636 370.713 422.554 370.173 423.226C369.645 423.886 368.949 424.216 368.085 424.216ZM368.085 422.83C368.433 422.83 368.715 422.638 368.931 422.254C369.147 421.87 369.255 421.276 369.255 420.472C369.255 419.668 369.147 419.08 368.931 418.708C368.715 418.336 368.433 418.15 368.085 418.15C367.737 418.15 367.455 418.336 367.239 418.708C367.035 419.08 366.933 419.668 366.933 420.472C366.933 421.276 367.035 421.87 367.239 422.254C367.455 422.638 367.737 422.83 368.085 422.83Z" fill="#F3F3F3"/>
</g>
<g filter="url(#filter3_d)">
<path d="M18.2196 422.578C19.4676 421.39 20.4156 420.454 21.0636 419.77C21.7236 419.086 22.2516 418.432 22.6476 417.808C23.0436 417.184 23.2416 416.608 23.2416 416.08C23.2416 415.516 23.0916 415.078 22.7916 414.766C22.4916 414.442 22.0716 414.28 21.5316 414.28C21.1476 414.28 20.7876 414.388 20.4516 414.604C20.1156 414.82 19.7796 415.108 19.4436 415.468L18.0936 414.136C18.6696 413.524 19.2456 413.074 19.8216 412.786C20.4096 412.486 21.0936 412.336 21.8736 412.336C22.9896 412.336 23.8896 412.666 24.5736 413.326C25.2576 413.974 25.5996 414.844 25.5996 415.936C25.5996 416.824 25.2696 417.748 24.6096 418.708C23.9496 419.656 23.0016 420.772 21.7656 422.056C22.4616 421.972 23.1036 421.93 23.6916 421.93H26.1576V424H18.2196V422.578ZM32.8075 424.216C31.2115 424.216 29.8795 423.682 28.8115 422.614L29.9275 421.048C30.7555 421.828 31.6015 422.218 32.4655 422.218C33.0775 422.218 33.5635 422.05 33.9235 421.714C34.2955 421.378 34.4815 420.904 34.4815 420.292C34.4815 419.704 34.3075 419.242 33.9595 418.906C33.6115 418.57 33.1555 418.402 32.5915 418.402C32.2555 418.402 31.9675 418.444 31.7275 418.528C31.4995 418.612 31.2055 418.774 30.8455 419.014L29.7295 418.294L30.0535 412.552H36.4255V414.622H32.1775L31.9795 416.98C32.4475 416.776 32.8975 416.674 33.3295 416.674C34.3735 416.674 35.2375 416.98 35.9215 417.592C36.6055 418.192 36.9475 419.074 36.9475 420.238C36.9475 421.054 36.7555 421.762 36.3715 422.362C35.9995 422.962 35.4955 423.424 34.8595 423.748C34.2355 424.06 33.5515 424.216 32.8075 424.216ZM42.6433 419.212C41.7793 419.212 41.0773 418.882 40.5373 418.222C40.0093 417.55 39.7453 416.632 39.7453 415.468C39.7453 414.316 40.0093 413.41 40.5373 412.75C41.0773 412.09 41.7793 411.76 42.6433 411.76C43.4953 411.76 44.1853 412.09 44.7133 412.75C45.2533 413.41 45.5233 414.316 45.5233 415.468C45.5233 416.62 45.2533 417.532 44.7133 418.204C44.1853 418.876 43.4953 419.212 42.6433 419.212ZM49.3213 412.03H50.7613L44.3893 424.216H42.9493L49.3213 412.03ZM42.6433 417.826C42.9913 417.826 43.2673 417.64 43.4713 417.268C43.6873 416.884 43.7953 416.284 43.7953 415.468C43.7953 414.664 43.6873 414.076 43.4713 413.704C43.2673 413.332 42.9913 413.146 42.6433 413.146C42.2953 413.146 42.0133 413.332 41.7973 413.704C41.5813 414.076 41.4733 414.664 41.4733 415.468C41.4733 416.272 41.5813 416.866 41.7973 417.25C42.0133 417.634 42.2953 417.826 42.6433 417.826ZM51.0853 424.216C50.2333 424.216 49.5373 423.88 48.9973 423.208C48.4693 422.536 48.2053 421.624 48.2053 420.472C48.2053 419.32 48.4693 418.414 48.9973 417.754C49.5373 417.094 50.2333 416.764 51.0853 416.764C51.9493 416.764 52.6453 417.094 53.1733 417.754C53.7133 418.414 53.9833 419.32 53.9833 420.472C53.9833 421.636 53.7133 422.554 53.1733 423.226C52.6453 423.886 51.9493 424.216 51.0853 424.216ZM51.0853 422.83C51.4333 422.83 51.7153 422.638 51.9313 422.254C52.1473 421.87 52.2553 421.276 52.2553 420.472C52.2553 419.668 52.1473 419.08 51.9313 418.708C51.7153 418.336 51.4333 418.15 51.0853 418.15C50.7373 418.15 50.4553 418.336 50.2393 418.708C50.0353 419.08 49.9333 419.668 49.9333 420.472C49.9333 421.276 50.0353 421.87 50.2393 422.254C50.4553 422.638 50.7373 422.83 51.0853 422.83Z" fill="#F3F3F3"/>
</g>
<g filter="url(#filter4_d)">
<path d="M18.2196 76.578C19.4676 75.39 20.4156 74.454 21.0636 73.77C21.7236 73.086 22.2516 72.432 22.6476 71.808C23.0436 71.184 23.2416 70.608 23.2416 70.08C23.2416 69.516 23.0916 69.078 22.7916 68.766C22.4916 68.442 22.0716 68.28 21.5316 68.28C21.1476 68.28 20.7876 68.388 20.4516 68.604C20.1156 68.82 19.7796 69.108 19.4436 69.468L18.0936 68.136C18.6696 67.524 19.2456 67.074 19.8216 66.786C20.4096 66.486 21.0936 66.336 21.8736 66.336C22.9896 66.336 23.8896 66.666 24.5736 67.326C25.2576 67.974 25.5996 68.844 25.5996 69.936C25.5996 70.824 25.2696 71.748 24.6096 72.708C23.9496 73.656 23.0016 74.772 21.7656 76.056C22.4616 75.972 23.1036 75.93 23.6916 75.93H26.1576V78H18.2196V76.578ZM32.8075 78.216C31.2115 78.216 29.8795 77.682 28.8115 76.614L29.9275 75.048C30.7555 75.828 31.6015 76.218 32.4655 76.218C33.0775 76.218 33.5635 76.05 33.9235 75.714C34.2955 75.378 34.4815 74.904 34.4815 74.292C34.4815 73.704 34.3075 73.242 33.9595 72.906C33.6115 72.57 33.1555 72.402 32.5915 72.402C32.2555 72.402 31.9675 72.444 31.7275 72.528C31.4995 72.612 31.2055 72.774 30.8455 73.014L29.7295 72.294L30.0535 66.552H36.4255V68.622H32.1775L31.9795 70.98C32.4475 70.776 32.8975 70.674 33.3295 70.674C34.3735 70.674 35.2375 70.98 35.9215 71.592C36.6055 72.192 36.9475 73.074 36.9475 74.238C36.9475 75.054 36.7555 75.762 36.3715 76.362C35.9995 76.962 35.4955 77.424 34.8595 77.748C34.2355 78.06 33.5515 78.216 32.8075 78.216ZM42.6433 73.212C41.7793 73.212 41.0773 72.882 40.5373 72.222C40.0093 71.55 39.7453 70.632 39.7453 69.468C39.7453 68.316 40.0093 67.41 40.5373 66.75C41.0773 66.09 41.7793 65.76 42.6433 65.76C43.4953 65.76 44.1853 66.09 44.7133 66.75C45.2533 67.41 45.5233 68.316 45.5233 69.468C45.5233 70.62 45.2533 71.532 44.7133 72.204C44.1853 72.876 43.4953 73.212 42.6433 73.212ZM49.3213 66.03H50.7613L44.3893 78.216H42.9493L49.3213 66.03ZM42.6433 71.826C42.9913 71.826 43.2673 71.64 43.4713 71.268C43.6873 70.884 43.7953 70.284 43.7953 69.468C43.7953 68.664 43.6873 68.076 43.4713 67.704C43.2673 67.332 42.9913 67.146 42.6433 67.146C42.2953 67.146 42.0133 67.332 41.7973 67.704C41.5813 68.076 41.4733 68.664 41.4733 69.468C41.4733 70.272 41.5813 70.866 41.7973 71.25C42.0133 71.634 42.2953 71.826 42.6433 71.826ZM51.0853 78.216C50.2333 78.216 49.5373 77.88 48.9973 77.208C48.4693 76.536 48.2053 75.624 48.2053 74.472C48.2053 73.32 48.4693 72.414 48.9973 71.754C49.5373 71.094 50.2333 70.764 51.0853 70.764C51.9493 70.764 52.6453 71.094 53.1733 71.754C53.7133 72.414 53.9833 73.32 53.9833 74.472C53.9833 75.636 53.7133 76.554 53.1733 77.226C52.6453 77.886 51.9493 78.216 51.0853 78.216ZM51.0853 76.83C51.4333 76.83 51.7153 76.638 51.9313 76.254C52.1473 75.87 52.2553 75.276 52.2553 74.472C52.2553 73.668 52.1473 73.08 51.9313 72.708C51.7153 72.336 51.4333 72.15 51.0853 72.15C50.7373 72.15 50.4553 72.336 50.2393 72.708C50.0353 73.08 49.9333 73.668 49.9333 74.472C49.9333 75.276 50.0353 75.87 50.2393 76.254C50.4553 76.638 50.7373 76.83 51.0853 76.83Z" fill="#F3F3F3"/>
</g>
<g filter="url(#filter5_d)">
<path d="M344.22 76.578C345.468 75.39 346.416 74.454 347.064 73.77C347.724 73.086 348.252 72.432 348.648 71.808C349.044 71.184 349.242 70.608 349.242 70.08C349.242 69.516 349.092 69.078 348.792 68.766C348.492 68.442 348.072 68.28 347.532 68.28C347.148 68.28 346.788 68.388 346.452 68.604C346.116 68.82 345.78 69.108 345.444 69.468L344.094 68.136C344.67 67.524 345.246 67.074 345.822 66.786C346.41 66.486 347.094 66.336 347.874 66.336C348.99 66.336 349.89 66.666 350.574 67.326C351.258 67.974 351.6 68.844 351.6 69.936C351.6 70.824 351.27 71.748 350.61 72.708C349.95 73.656 349.002 74.772 347.766 76.056C348.462 75.972 349.104 75.93 349.692 75.93H352.158V78H344.22V76.578ZM358.807 78.216C357.211 78.216 355.879 77.682 354.811 76.614L355.927 75.048C356.755 75.828 357.601 76.218 358.465 76.218C359.077 76.218 359.563 76.05 359.923 75.714C360.295 75.378 360.481 74.904 360.481 74.292C360.481 73.704 360.307 73.242 359.959 72.906C359.611 72.57 359.155 72.402 358.591 72.402C358.255 72.402 357.967 72.444 357.727 72.528C357.499 72.612 357.205 72.774 356.845 73.014L355.729 72.294L356.053 66.552H362.425V68.622H358.177L357.979 70.98C358.447 70.776 358.897 70.674 359.329 70.674C360.373 70.674 361.237 70.98 361.921 71.592C362.605 72.192 362.947 73.074 362.947 74.238C362.947 75.054 362.755 75.762 362.371 76.362C361.999 76.962 361.495 77.424 360.859 77.748C360.235 78.06 359.551 78.216 358.807 78.216ZM368.643 73.212C367.779 73.212 367.077 72.882 366.537 72.222C366.009 71.55 365.745 70.632 365.745 69.468C365.745 68.316 366.009 67.41 366.537 66.75C367.077 66.09 367.779 65.76 368.643 65.76C369.495 65.76 370.185 66.09 370.713 66.75C371.253 67.41 371.523 68.316 371.523 69.468C371.523 70.62 371.253 71.532 370.713 72.204C370.185 72.876 369.495 73.212 368.643 73.212ZM375.321 66.03H376.761L370.389 78.216H368.949L375.321 66.03ZM368.643 71.826C368.991 71.826 369.267 71.64 369.471 71.268C369.687 70.884 369.795 70.284 369.795 69.468C369.795 68.664 369.687 68.076 369.471 67.704C369.267 67.332 368.991 67.146 368.643 67.146C368.295 67.146 368.013 67.332 367.797 67.704C367.581 68.076 367.473 68.664 367.473 69.468C367.473 70.272 367.581 70.866 367.797 71.25C368.013 71.634 368.295 71.826 368.643 71.826ZM377.085 78.216C376.233 78.216 375.537 77.88 374.997 77.208C374.469 76.536 374.205 75.624 374.205 74.472C374.205 73.32 374.469 72.414 374.997 71.754C375.537 71.094 376.233 70.764 377.085 70.764C377.949 70.764 378.645 71.094 379.173 71.754C379.713 72.414 379.983 73.32 379.983 74.472C379.983 75.636 379.713 76.554 379.173 77.226C378.645 77.886 377.949 78.216 377.085 78.216ZM377.085 76.83C377.433 76.83 377.715 76.638 377.931 76.254C378.147 75.87 378.255 75.276 378.255 74.472C378.255 73.668 378.147 73.08 377.931 72.708C377.715 72.336 377.433 72.15 377.085 72.15C376.737 72.15 376.455 72.336 376.239 72.708C376.035 73.08 375.933 73.668 375.933 74.472C375.933 75.276 376.035 75.87 376.239 76.254C376.455 76.638 376.737 76.83 377.085 76.83Z" fill="#F3F3F3"/>
</g>
<defs>
<filter id="filter0_d" x="139.801" y="200.204" width="123.749" height="59.06" filterUnits="userSpaceOnUse" color-interpolation-filters="sRGB">
<feFlood flood-opacity="0" result="BackgroundImageFix"/>
<feColorMatrix in="SourceAlpha" type="matrix" values="0 0 0 0 0 0 0 0 0 0 0 0 0 0 0 0 0 0 127 0"/>
<feOffset dy="1"/>
<feGaussianBlur stdDeviation="3.5"/>
<feColorMatrix type="matrix" values="0 0 0 0 0 0 0 0 0 0 0 0 0 0 0 0 0 0 0.25 0"/>
<feBlend mode="normal" in2="BackgroundImageFix" result="effect1_dropShadow"/>
<feBlend mode="normal" in="SourceGraphic" in2="effect1_dropShadow" result="shape"/>
</filter>
<filter id="filter1_d" x="151.203" y="135.744" width="97.3044" height="57.52" filterUnits="userSpaceOnUse" color-interpolation-filters="sRGB">
<feFlood flood-opacity="0" result="BackgroundImageFix"/>
<feColorMatrix in="SourceAlpha" type="matrix" values="0 0 0 0 0 0 0 0 0 0 0 0 0 0 0 0 0 0 127 0"/>
<feOffset dy="1"/>
<feGaussianBlur stdDeviation="3.5"/>
<feColorMatrix type="matrix" values="0 0 0 0 0 0 0 0 0 0 0 0 0 0 0 0 0 0 0.25 0"/>
<feBlend mode="normal" in2="BackgroundImageFix" result="effect1_dropShadow"/>
<feBlend mode="normal" in="SourceGraphic" in2="effect1_dropShadow" result="shape"/>
</filter>
<filter id="filter2_d" x="328.094" y="405.76" width="49.8898" height="26.456" filterUnits="userSpaceOnUse" color-interpolation-filters="sRGB">
<feFlood flood-opacity="0" result="BackgroundImageFix"/>
<feColorMatrix in="SourceAlpha" type="matrix" values="0 0 0 0 0 0 0 0 0 0 0 0 0 0 0 0 0 0 127 0"/>
<feOffset dy="1"/>
<feGaussianBlur stdDeviation="3.5"/>
<feColorMatrix type="matrix" values="0 0 0 0 0 0 0 0 0 0 0 0 0 0 0 0 0 0 0.25 0"/>
<feBlend mode="normal" in2="BackgroundImageFix" result="effect1_dropShadow"/>
<feBlend mode="normal" in="SourceGraphic" in2="effect1_dropShadow" result="shape"/>
</filter>
<filter id="filter3_d" x="11.0938" y="405.76" width="49.8898" height="26.456" filterUnits="userSpaceOnUse" color-interpolation-filters="sRGB">
<feFlood flood-opacity="0" result="BackgroundImageFix"/>
<feColorMatrix in="SourceAlpha" type="matrix" values="0 0 0 0 0 0 0 0 0 0 0 0 0 0 0 0 0 0 127 0"/>
<feOffset dy="1"/>
<feGaussianBlur stdDeviation="3.5"/>
<feColorMatrix type="matrix" values="0 0 0 0 0 0 0 0 0 0 0 0 0 0 0 0 0 0 0.25 0"/>
<feBlend mode="normal" in2="BackgroundImageFix" result="effect1_dropShadow"/>
<feBlend mode="normal" in="SourceGraphic" in2="effect1_dropShadow" result="shape"/>
</filter>
<filter id="filter4_d" x="11.0938" y="59.76" width="49.8898" height="26.456" filterUnits="userSpaceOnUse" color-interpolation-filters="sRGB">
<feFlood flood-opacity="0" result="BackgroundImageFix"/>
<feColorMatrix in="SourceAlpha" type="matrix" values="0 0 0 0 0 0 0 0 0 0 0 0 0 0 0 0 0 0 127 0"/>
<feOffset dy="1"/>
<feGaussianBlur stdDeviation="3.5"/>
<feColorMatrix type="matrix" values="0 0 0 0 0 0 0 0 0 0 0 0 0 0 0 0 0 0 0.25 0"/>
<feBlend mode="normal" in2="BackgroundImageFix" result="effect1_dropShadow"/>
<feBlend mode="normal" in="SourceGraphic" in2="effect1_dropShadow" result="shape"/>
</filter>
<filter id="filter5_d" x="337.094" y="59.76" width="49.8898" height="26.456" filterUnits="userSpaceOnUse" color-interpolation-filters="sRGB">
<feFlood flood-opacity="0" result="BackgroundImageFix"/>
<feColorMatrix in="SourceAlpha" type="matrix" values="0 0 0 0 0 0 0 0 0 0 0 0 0 0 0 0 0 0 127 0"/>
<feOffset dy="1"/>
<feGaussianBlur stdDeviation="3.5"/>
<feColorMatrix type="matrix" values="0 0 0 0 0 0 0 0 0 0 0 0 0 0 0 0 0 0 0.25 0"/>
<feBlend mode="normal" in2="BackgroundImageFix" result="effect1_dropShadow"/>
<feBlend mode="normal" in="SourceGraphic" in2="effect1_dropShadow" result="shape"/>
</filter>
</defs>
</svg>
