<svg width="120" height="120" viewBox="0 0 120 120" fill="none" xmlns="http://www.w3.org/2000/svg">
<circle cx="60" cy="60" r="60" fill="#67E5EE"/>
<mask id="mask0" mask-type="alpha" maskUnits="userSpaceOnUse" x="0" y="0" width="120" height="120">
<circle cx="60" cy="60" r="60" fill="#C4C4C4"/>
</mask>
<g mask="url(#mask0)">
<path d="M99.1368 27.6636H33.9061C32.1031 27.6636 30.6445 29.1219 30.6445 30.9251V122.466C30.6445 124.269 32.1031 125.727 33.9061 125.727H99.1368C100.94 125.727 102.398 124.269 102.398 122.466V30.9251C102.398 29.1219 100.94 27.6636 99.1368 27.6636Z" fill="#FABE2C"/>
<path d="M102.4 122.466V30.7076C102.4 28.9044 100.942 27.446 99.1388 27.446H66.5234V125.727H99.1388C100.942 125.727 102.4 124.269 102.4 122.466Z" fill="#FF9100"/>
<path d="M86.09 14.3999H53.4746H20.8592C19.0562 14.3999 17.5977 15.8582 17.5977 17.6614V109.419C17.5977 111.222 19.0562 112.681 20.8592 112.681H53.4746H86.09C87.8929 112.681 89.3515 111.222 89.3515 109.419V17.6614C89.3515 15.8582 87.8929 14.3999 86.09 14.3999Z" fill="#EDF5FF"/>
<path d="M89.3535 109.419V17.6614C89.3535 15.8582 87.8949 14.3999 86.0919 14.3999H53.4766V112.681H86.0919C87.8949 112.681 89.3535 111.222 89.3535 109.419Z" fill="#D0E4E7"/>
<path d="M46.9522 86.3712H33.9061C32.1031 86.3712 30.6445 84.9127 30.6445 83.1097C30.6445 81.3067 32.1031 79.8481 33.9061 79.8481H46.9522C48.7552 79.8481 50.2138 81.3067 50.2138 83.1097C50.2138 84.9127 48.7552 86.3712 46.9522 86.3712Z" fill="#D0E4E7"/>
<path d="M66.5229 99.4174C61.1274 99.4174 56.7383 95.028 56.7383 89.6328C56.7383 84.2375 61.1274 79.8481 66.5229 79.8481C71.9179 79.8481 76.3075 84.2375 76.3075 89.6328C76.3075 95.028 71.9179 99.4174 66.5229 99.4174Z" fill="#E64D2E"/>
<path d="M66.5194 86.3713C64.7194 86.3713 63.2578 87.8332 63.2578 89.6329C63.2578 91.4326 64.7194 92.8944 66.5194 92.8944C68.3191 92.8944 69.7809 91.4326 69.7809 89.6329C69.7809 87.8332 68.3191 86.3713 66.5194 86.3713Z" fill="#CC2929"/>
<path d="M33.9061 34.1867H53.4753H73.0445C74.8475 34.1867 76.3061 32.7283 76.3061 30.9251C76.3061 29.1219 74.8475 27.6636 73.0445 27.6636H53.4753H33.9061C32.1031 27.6636 30.6445 29.1219 30.6445 30.9251C30.6445 32.7283 32.1031 34.1867 33.9061 34.1867Z" fill="#D0E4E7"/>
<path d="M53.476 40.7097H46.9529C45.15 40.7097 43.6914 42.1681 43.6914 43.9713C43.6914 45.774 45.15 47.2328 46.9529 47.2328H53.476H59.9991C61.8021 47.2328 63.2606 45.774 63.2606 43.9713C63.2606 42.1681 61.8021 40.7097 59.9991 40.7097H53.476Z" fill="#D0E4E7"/>
<path d="M73.0445 53.7559H53.4753H33.9061C32.1031 53.7559 30.6445 55.2142 30.6445 57.0174C30.6445 58.8202 32.1031 60.2789 33.9061 60.2789H53.4753H73.0445C74.8475 60.2789 76.3061 58.8202 76.3061 57.0174C76.3061 55.2142 74.8475 53.7559 73.0445 53.7559Z" fill="#D0E4E7"/>
<path d="M73.0445 66.802H53.4753H33.9061C32.1031 66.802 30.6445 68.2603 30.6445 70.0635C30.6445 71.8663 32.1031 73.3251 33.9061 73.3251H53.4753H73.0445C74.8475 73.3251 76.3061 71.8663 76.3061 70.0635C76.3061 68.2603 74.8475 66.802 73.0445 66.802Z" fill="#D0E4E7"/>
<path d="M76.3073 30.9251C76.3073 29.1219 74.8488 27.6636 73.0458 27.6636H53.4766V34.1867H73.0458C74.8488 34.1867 76.3073 32.7283 76.3073 30.9251Z" fill="#A8D3D8"/>
<path d="M63.2612 43.9713C63.2612 42.1681 61.8026 40.7097 59.9996 40.7097H53.4766V47.2328H59.9996C61.8026 47.2328 63.2612 45.774 63.2612 43.9713Z" fill="#A8D3D8"/>
<path d="M76.3073 57.0174C76.3073 55.2142 74.8488 53.7559 73.0458 53.7559H53.4766V60.2789H73.0458C74.8488 60.2789 76.3073 58.8202 76.3073 57.0174Z" fill="#A8D3D8"/>
<path d="M76.3073 70.0635C76.3073 68.2603 74.8488 66.802 73.0458 66.802H53.4766V73.3251H73.0458C74.8488 73.3251 76.3073 71.8663 76.3073 70.0635Z" fill="#A8D3D8"/>
</g>
</svg>
