<svg width="45" height="45" viewBox="0 0 45 45" fill="none" xmlns="http://www.w3.org/2000/svg">
<ellipse cx="22.4218" cy="22.4221" rx="22.4218" ry="22.4221" fill="#FF5B5B"/>
<mask id="mask0" mask-type="alpha" maskUnits="userSpaceOnUse" x="0" y="0" width="46" height="46">
<ellipse cx="22.506" cy="22.5056" rx="22.4943" ry="22.4946" fill="#FF5B5B"/>
</mask>
<g mask="url(#mask0)">
<path d="M25.7438 15.736L28.7538 15.2053L27.7864 9.71961L24.7795 10.2503C24.3633 9.25863 23.8242 8.33182 23.1815 7.48861L25.1466 5.14737L20.8797 1.56674L18.9164 3.90617C17.9793 3.42217 16.9738 3.05266 15.918 2.8146V-0.239014H10.3475V2.8146C9.2917 3.05266 8.28616 3.42217 7.34907 3.90617L5.38584 1.56674L1.11895 5.14737L3.084 7.48861C2.4413 8.33182 1.90218 9.25863 1.48603 10.2503L-1.5209 9.71961L-2.48828 15.2053L0.521681 15.736C0.57317 16.8257 0.762163 17.8791 1.07231 18.8786L-1.57118 20.4051L1.21405 25.2294L3.86117 23.7004C4.58443 24.4825 5.40462 25.173 6.30355 25.7527L5.25863 28.6228L10.4929 30.5285L11.5378 27.6579C12.06 27.7233 12.5924 27.7578 13.1328 27.7578C13.6731 27.7578 14.2055 27.7233 14.7277 27.6579L15.7726 30.5285L21.0069 28.6228L19.962 25.7527C20.8609 25.173 21.6811 24.4825 22.4043 23.7004L25.0515 25.2294L27.8367 20.4051L25.1932 18.8786C25.5033 17.8791 25.6923 16.8257 25.7438 15.736ZM13.1328 20.9497C9.91986 20.9497 7.31515 18.345 7.31515 15.132C7.31515 11.9185 9.91986 9.31375 13.1328 9.31375C16.3456 9.31375 18.9504 11.9185 18.9504 15.132C18.9504 18.345 16.3456 20.9497 13.1328 20.9497Z" fill="#A8D3D8"/>
<path d="M25.7439 15.736L28.7538 15.2053L27.7865 9.71961L24.7795 10.2503C24.3634 9.25863 23.8243 8.33182 23.1816 7.48861L25.1466 5.14737L20.8797 1.56674L18.9165 3.90617C17.9794 3.42217 16.9739 3.05266 15.918 2.8146V-0.239014H13.1328V9.31375C16.3457 9.31375 18.9504 11.9185 18.9504 15.132C18.9504 18.345 16.3457 20.9497 13.1328 20.9497V27.7578C13.6731 27.7578 14.2056 27.7233 14.7277 27.6579L15.7727 30.5285L21.0069 28.6228L19.962 25.7527C20.8609 25.173 21.6811 24.4825 22.4044 23.7004L25.0515 25.2294L27.8367 20.4051L25.1933 18.8786C25.5034 17.8791 25.6924 16.8257 25.7439 15.736Z" fill="#7DA1B3"/>
<path d="M20.039 27.8906C20.039 29.2208 18.9607 30.2991 17.6305 30.2991H13.9375C9.28937 30.2991 5.50781 26.5175 5.50781 21.8693V20.665H20.039V27.8906Z" fill="#474F54"/>
<path d="M35.6953 30.2991V27.8906H18.8359V30.2991C20.8277 30.2991 22.4487 31.9201 22.4487 33.9119C22.4487 35.9037 20.8277 37.5247 18.8359 37.5247V39.9332H35.6953V37.5247C33.7035 37.5247 32.0826 35.9037 32.0826 33.9119C32.0826 31.9201 33.7035 30.2991 35.6953 30.2991Z" fill="#474F54"/>
<path d="M32.0837 33.9119C32.0837 35.9037 33.7046 37.5247 35.6964 37.5247V39.9332H26.0625V27.8906H35.6964V30.2991C33.7046 30.2991 32.0837 31.9201 32.0837 33.9119Z" fill="#32393F"/>
<path d="M17.6328 18.2566V30.2991H35.7767C41.7529 30.2991 46.6148 25.4372 46.6148 19.4608V18.2566H17.6328Z" fill="#575F64"/>
<path d="M46.6149 18.2566V19.4608C46.6149 25.4372 41.7529 30.2991 35.7767 30.2991H26.0625V18.2566H46.6149Z" fill="#474F54"/>
<path d="M12.8125 37.5247V44.7502H41.7143V37.5247H12.8125Z" fill="#575F64"/>
<path d="M26.0625 37.5247H41.7176V44.7502H26.0625V37.5247Z" fill="#474F54"/>
</g>
</svg>
