<svg width="431" height="430" viewBox="0 0 431 430" fill="none" xmlns="http://www.w3.org/2000/svg">
<path d="M165.136 228V216.8H173.392V218.272H166.816V221.632H171.136V223.072H166.816V226.528H173.456V228H165.136ZM174.991 228V219.856H176.591V220.624C176.89 220.325 177.231 220.096 177.615 219.936C177.999 219.776 178.42 219.696 178.879 219.696C179.423 219.696 179.914 219.819 180.351 220.064C180.788 220.299 181.135 220.629 181.391 221.056C181.722 220.608 182.116 220.272 182.575 220.048C183.044 219.813 183.567 219.696 184.143 219.696C185.039 219.696 185.77 219.995 186.335 220.592C186.911 221.179 187.199 221.941 187.199 222.88V228H185.599V223.152C185.599 222.512 185.428 222.011 185.087 221.648C184.756 221.275 184.303 221.088 183.727 221.088C183.332 221.088 182.975 221.179 182.655 221.36C182.335 221.541 182.058 221.813 181.823 222.176C181.844 222.283 181.86 222.4 181.871 222.528C181.882 222.645 181.887 222.763 181.887 222.88V228H180.303V223.152C180.303 222.512 180.132 222.011 179.791 221.648C179.46 221.275 179.007 221.088 178.431 221.088C178.047 221.088 177.7 221.173 177.391 221.344C177.082 221.504 176.815 221.749 176.591 222.08V228H174.991ZM189.838 218.544C189.571 218.544 189.342 218.448 189.15 218.256C188.958 218.053 188.862 217.819 188.862 217.552C188.862 217.285 188.958 217.056 189.15 216.864C189.342 216.661 189.571 216.56 189.838 216.56C190.104 216.56 190.334 216.661 190.526 216.864C190.728 217.056 190.83 217.285 190.83 217.552C190.83 217.819 190.728 218.053 190.526 218.256C190.334 218.448 190.104 218.544 189.838 218.544ZM190.638 219.856V228H189.038V219.856H190.638ZM191.754 226.944L192.618 225.888C193.045 226.219 193.477 226.475 193.914 226.656C194.362 226.827 194.815 226.912 195.274 226.912C195.85 226.912 196.319 226.8 196.682 226.576C197.045 226.352 197.226 226.059 197.226 225.696C197.226 225.408 197.119 225.179 196.906 225.008C196.693 224.837 196.362 224.72 195.914 224.656L194.442 224.448C193.642 224.331 193.034 224.085 192.618 223.712C192.213 223.328 192.01 222.821 192.01 222.192C192.01 221.456 192.303 220.864 192.89 220.416C193.477 219.957 194.245 219.728 195.194 219.728C195.791 219.728 196.357 219.813 196.89 219.984C197.434 220.155 197.962 220.416 198.474 220.768L197.658 221.824C197.21 221.525 196.773 221.312 196.346 221.184C195.93 221.045 195.509 220.976 195.082 220.976C194.591 220.976 194.197 221.077 193.898 221.28C193.599 221.483 193.45 221.749 193.45 222.08C193.45 222.379 193.551 222.608 193.754 222.768C193.967 222.917 194.314 223.029 194.794 223.104L196.266 223.312C197.066 223.429 197.674 223.68 198.09 224.064C198.517 224.448 198.73 224.955 198.73 225.584C198.73 225.947 198.639 226.288 198.458 226.608C198.287 226.917 198.047 227.184 197.738 227.408C197.439 227.632 197.082 227.813 196.666 227.952C196.25 228.08 195.802 228.144 195.322 228.144C194.618 228.144 193.957 228.043 193.338 227.84C192.73 227.637 192.202 227.339 191.754 226.944ZM200.76 218.544C200.493 218.544 200.264 218.448 200.072 218.256C199.88 218.053 199.784 217.819 199.784 217.552C199.784 217.285 199.88 217.056 200.072 216.864C200.264 216.661 200.493 216.56 200.76 216.56C201.026 216.56 201.256 216.661 201.448 216.864C201.65 217.056 201.752 217.285 201.752 217.552C201.752 217.819 201.65 218.053 201.448 218.256C201.256 218.448 201.026 218.544 200.76 218.544ZM201.56 219.856V228H199.96V219.856H201.56ZM203.076 223.92C203.076 223.333 203.183 222.784 203.396 222.272C203.62 221.749 203.924 221.301 204.308 220.928C204.692 220.544 205.14 220.245 205.652 220.032C206.175 219.808 206.729 219.696 207.316 219.696C207.903 219.696 208.452 219.808 208.964 220.032C209.487 220.245 209.935 220.544 210.308 220.928C210.692 221.301 210.991 221.749 211.204 222.272C211.428 222.784 211.54 223.333 211.54 223.92C211.54 224.517 211.428 225.077 211.204 225.6C210.991 226.112 210.692 226.56 210.308 226.944C209.935 227.317 209.487 227.616 208.964 227.84C208.452 228.053 207.903 228.16 207.316 228.16C206.729 228.16 206.175 228.053 205.652 227.84C205.14 227.616 204.692 227.317 204.308 226.944C203.924 226.56 203.62 226.112 203.396 225.6C203.183 225.077 203.076 224.517 203.076 223.92ZM207.316 226.752C208.052 226.752 208.676 226.48 209.188 225.936C209.711 225.381 209.972 224.709 209.972 223.92C209.972 223.131 209.711 222.464 209.188 221.92C208.676 221.376 208.052 221.104 207.316 221.104C206.58 221.104 205.951 221.376 205.428 221.92C204.905 222.464 204.644 223.131 204.644 223.92C204.644 224.709 204.9 225.381 205.412 225.936C205.935 226.48 206.569 226.752 207.316 226.752ZM207.828 216.4H209.748L207.7 218.352H206.356L207.828 216.4ZM213.053 228V219.856H214.653V220.672C214.973 220.352 215.336 220.112 215.741 219.952C216.157 219.781 216.611 219.696 217.101 219.696C218.029 219.696 218.792 219.995 219.389 220.592C219.987 221.179 220.285 221.941 220.285 222.88V228H218.685V223.152C218.685 222.512 218.499 222.011 218.125 221.648C217.763 221.275 217.277 221.088 216.669 221.088C216.243 221.088 215.853 221.179 215.501 221.36C215.16 221.541 214.877 221.803 214.653 222.144V228H213.053ZM226.531 225.984V221.2H224.803V219.856H226.531V217.776L228.115 217.392V219.856H230.515V221.2H228.115V225.616C228.115 226.032 228.206 226.325 228.387 226.496C228.579 226.667 228.889 226.752 229.315 226.752C229.539 226.752 229.737 226.741 229.907 226.72C230.089 226.688 230.281 226.635 230.483 226.56V227.904C230.27 227.979 230.019 228.037 229.731 228.08C229.454 228.123 229.198 228.144 228.963 228.144C228.174 228.144 227.571 227.963 227.155 227.6C226.739 227.227 226.531 226.688 226.531 225.984ZM231.154 223.92C231.154 223.333 231.261 222.784 231.474 222.272C231.698 221.749 232.002 221.301 232.386 220.928C232.77 220.544 233.218 220.245 233.73 220.032C234.253 219.808 234.807 219.696 235.394 219.696C235.981 219.696 236.53 219.808 237.042 220.032C237.565 220.245 238.013 220.544 238.386 220.928C238.77 221.301 239.069 221.749 239.282 222.272C239.506 222.784 239.618 223.333 239.618 223.92C239.618 224.517 239.506 225.077 239.282 225.6C239.069 226.112 238.77 226.56 238.386 226.944C238.013 227.317 237.565 227.616 237.042 227.84C236.53 228.053 235.981 228.16 235.394 228.16C234.807 228.16 234.253 228.053 233.73 227.84C233.218 227.616 232.77 227.317 232.386 226.944C232.002 226.56 231.698 226.112 231.474 225.6C231.261 225.077 231.154 224.517 231.154 223.92ZM235.394 226.752C236.13 226.752 236.754 226.48 237.266 225.936C237.789 225.381 238.05 224.709 238.05 223.92C238.05 223.131 237.789 222.464 237.266 221.92C236.754 221.376 236.13 221.104 235.394 221.104C234.658 221.104 234.029 221.376 233.506 221.92C232.983 222.464 232.722 223.131 232.722 223.92C232.722 224.709 232.978 225.381 233.49 225.936C234.013 226.48 234.647 226.752 235.394 226.752ZM241.688 225.984V221.2H239.96V219.856H241.688V217.776L243.272 217.392V219.856H245.672V221.2H243.272V225.616C243.272 226.032 243.362 226.325 243.544 226.496C243.736 226.667 244.045 226.752 244.472 226.752C244.696 226.752 244.893 226.741 245.064 226.72C245.245 226.688 245.437 226.635 245.64 226.56V227.904C245.426 227.979 245.176 228.037 244.888 228.08C244.61 228.123 244.354 228.144 244.12 228.144C243.33 228.144 242.728 227.963 242.312 227.6C241.896 227.227 241.688 226.688 241.688 225.984ZM249.426 228.144C248.541 228.144 247.821 227.915 247.266 227.456C246.712 226.997 246.434 226.4 246.434 225.664C246.434 224.896 246.728 224.293 247.314 223.856C247.901 223.408 248.706 223.184 249.73 223.184C250.125 223.184 250.509 223.227 250.882 223.312C251.256 223.387 251.613 223.493 251.954 223.632V222.768C251.954 222.192 251.784 221.76 251.442 221.472C251.101 221.184 250.61 221.04 249.97 221.04C249.597 221.04 249.208 221.099 248.802 221.216C248.397 221.323 247.944 221.493 247.442 221.728L246.85 220.528C247.458 220.24 248.034 220.032 248.578 219.904C249.122 219.765 249.661 219.696 250.194 219.696C251.25 219.696 252.066 219.952 252.642 220.464C253.229 220.965 253.522 221.68 253.522 222.608V228H251.954V227.296C251.592 227.584 251.202 227.797 250.786 227.936C250.37 228.075 249.917 228.144 249.426 228.144ZM247.97 225.632C247.97 226.027 248.136 226.347 248.466 226.592C248.808 226.837 249.25 226.96 249.794 226.96C250.221 226.96 250.616 226.896 250.978 226.768C251.341 226.64 251.666 226.448 251.954 226.192V224.784C251.645 224.613 251.32 224.491 250.978 224.416C250.637 224.331 250.264 224.288 249.858 224.288C249.282 224.288 248.824 224.411 248.482 224.656C248.141 224.901 247.97 225.227 247.97 225.632ZM256.966 216.448V228H255.366V216.8L256.966 216.448Z" fill="white"/>
<path d="M181 195.8V207H179.416V197.448L177.4 198.296V196.888L179.992 195.8H181ZM183.055 201.464L183.327 195.8H190.159V197.16H184.639L184.495 200.392C184.858 200.264 185.221 200.168 185.583 200.104C185.946 200.04 186.325 200.008 186.719 200.008C187.925 200.008 188.901 200.328 189.647 200.968C190.394 201.597 190.767 202.419 190.767 203.432C190.767 204.541 190.373 205.443 189.583 206.136C188.794 206.819 187.765 207.16 186.495 207.16C185.717 207.16 184.981 207.032 184.287 206.776C183.594 206.52 182.975 206.147 182.431 205.656L183.407 204.568C183.909 205.005 184.405 205.325 184.895 205.528C185.386 205.72 185.93 205.816 186.527 205.816C187.306 205.816 187.935 205.603 188.415 205.176C188.906 204.749 189.151 204.195 189.151 203.512C189.151 202.861 188.89 202.333 188.367 201.928C187.855 201.512 187.194 201.304 186.383 201.304C185.989 201.304 185.594 201.347 185.199 201.432C184.815 201.507 184.431 201.624 184.047 201.784L183.055 201.464ZM195.632 207V198.856H197.232V199.624C197.53 199.325 197.872 199.096 198.256 198.936C198.64 198.776 199.061 198.696 199.52 198.696C200.064 198.696 200.554 198.819 200.992 199.064C201.429 199.299 201.776 199.629 202.032 200.056C202.362 199.608 202.757 199.272 203.216 199.048C203.685 198.813 204.208 198.696 204.784 198.696C205.68 198.696 206.41 198.995 206.976 199.592C207.552 200.179 207.84 200.941 207.84 201.88V207H206.24V202.152C206.24 201.512 206.069 201.011 205.728 200.648C205.397 200.275 204.944 200.088 204.368 200.088C203.973 200.088 203.616 200.179 203.296 200.36C202.976 200.541 202.698 200.813 202.464 201.176C202.485 201.283 202.501 201.4 202.512 201.528C202.522 201.645 202.528 201.763 202.528 201.88V207H200.944V202.152C200.944 201.512 200.773 201.011 200.432 200.648C200.101 200.275 199.648 200.088 199.072 200.088C198.688 200.088 198.341 200.173 198.032 200.344C197.722 200.504 197.456 200.749 197.232 201.08V207H195.632ZM210.422 204.984V200.2H208.694V198.856H210.422V196.776L212.006 196.392V198.856H214.406V200.2H212.006V204.616C212.006 205.032 212.097 205.325 212.278 205.496C212.47 205.667 212.779 205.752 213.206 205.752C213.43 205.752 213.627 205.741 213.798 205.72C213.979 205.688 214.171 205.635 214.374 205.56V206.904C214.161 206.979 213.91 207.037 213.622 207.08C213.345 207.123 213.089 207.144 212.854 207.144C212.065 207.144 211.462 206.963 211.046 206.6C210.63 206.227 210.422 205.688 210.422 204.984ZM221.217 205.624C221.857 205.624 222.47 205.496 223.057 205.24C223.643 204.973 224.139 204.6 224.545 204.12L225.649 205.24C225.105 205.837 224.433 206.312 223.633 206.664C222.843 207.005 222.022 207.176 221.169 207.176C220.347 207.176 219.574 207.027 218.849 206.728C218.134 206.429 217.515 206.024 216.993 205.512C216.47 204.989 216.054 204.376 215.745 203.672C215.446 202.957 215.297 202.2 215.297 201.4C215.297 200.589 215.446 199.832 215.745 199.128C216.054 198.424 216.47 197.816 216.993 197.304C217.515 196.781 218.134 196.371 218.849 196.072C219.574 195.773 220.347 195.624 221.169 195.624C222.043 195.624 222.881 195.8 223.681 196.152C224.491 196.493 225.158 196.963 225.681 197.56L224.561 198.712C224.134 198.221 223.622 197.843 223.025 197.576C222.427 197.309 221.809 197.176 221.169 197.176C220.582 197.176 220.033 197.283 219.521 197.496C219.009 197.709 218.566 198.008 218.193 198.392C217.83 198.765 217.542 199.213 217.329 199.736C217.115 200.248 217.009 200.803 217.009 201.4C217.009 201.997 217.115 202.557 217.329 203.08C217.542 203.592 217.835 204.035 218.209 204.408C218.582 204.781 219.025 205.08 219.537 205.304C220.059 205.517 220.619 205.624 221.217 205.624ZM238.164 201.4C238.164 202.2 238.009 202.957 237.7 203.672C237.401 204.376 236.99 204.989 236.468 205.512C235.945 206.024 235.326 206.429 234.612 206.728C233.897 207.027 233.134 207.176 232.324 207.176C231.513 207.176 230.75 207.027 230.036 206.728C229.321 206.429 228.702 206.024 228.18 205.512C227.668 204.989 227.257 204.376 226.948 203.672C226.649 202.957 226.5 202.2 226.5 201.4C226.5 200.6 226.649 199.848 226.948 199.144C227.257 198.429 227.668 197.816 228.18 197.304C228.702 196.781 229.321 196.371 230.036 196.072C230.75 195.773 231.513 195.624 232.324 195.624C233.134 195.624 233.897 195.773 234.612 196.072C235.326 196.371 235.945 196.781 236.468 197.304C236.99 197.816 237.401 198.429 237.7 199.144C238.009 199.848 238.164 200.6 238.164 201.4ZM236.452 201.4C236.452 200.803 236.345 200.248 236.132 199.736C235.918 199.213 235.625 198.765 235.252 198.392C234.889 198.008 234.452 197.709 233.94 197.496C233.438 197.283 232.9 197.176 232.324 197.176C231.748 197.176 231.209 197.283 230.708 197.496C230.206 197.709 229.769 198.008 229.396 198.392C229.033 198.765 228.745 199.213 228.532 199.736C228.318 200.248 228.212 200.803 228.212 201.4C228.212 201.997 228.318 202.557 228.532 203.08C228.745 203.592 229.033 204.035 229.396 204.408C229.769 204.781 230.206 205.08 230.708 205.304C231.209 205.517 231.748 205.624 232.324 205.624C232.9 205.624 233.438 205.517 233.94 205.304C234.452 205.08 234.889 204.781 235.252 204.408C235.625 204.035 235.918 203.592 236.132 203.08C236.345 202.557 236.452 201.997 236.452 201.4ZM239.405 207V205.848L243.725 201.832C244.365 201.224 244.807 200.717 245.053 200.312C245.309 199.907 245.437 199.48 245.437 199.032C245.437 198.456 245.213 197.981 244.765 197.608C244.327 197.224 243.773 197.032 243.101 197.032C242.557 197.032 242.05 197.139 241.581 197.352C241.111 197.565 240.599 197.917 240.045 198.408L239.133 197.32C239.751 196.765 240.397 196.349 241.069 196.072C241.741 195.795 242.429 195.656 243.133 195.656C243.698 195.656 244.215 195.736 244.685 195.896C245.165 196.056 245.57 196.285 245.901 196.584C246.242 196.872 246.509 197.219 246.701 197.624C246.893 198.019 246.989 198.456 246.989 198.936C246.989 199.576 246.829 200.168 246.509 200.712C246.199 201.256 245.613 201.928 244.749 202.728L241.597 205.64H247.165V207H239.405ZM255.688 206.072C255.218 206.435 254.728 206.707 254.216 206.888C253.704 207.059 253.144 207.144 252.536 207.144C251.938 207.144 251.378 207.037 250.856 206.824C250.333 206.6 249.88 206.301 249.496 205.928C249.112 205.555 248.808 205.112 248.584 204.6C248.37 204.077 248.264 203.517 248.264 202.92C248.264 202.333 248.37 201.784 248.584 201.272C248.797 200.76 249.085 200.317 249.448 199.944C249.81 199.571 250.242 199.277 250.744 199.064C251.245 198.84 251.778 198.728 252.344 198.728C252.898 198.728 253.416 198.84 253.896 199.064C254.386 199.277 254.802 199.576 255.144 199.96C255.496 200.333 255.773 200.781 255.976 201.304C256.178 201.827 256.28 202.387 256.28 202.984V203.448H249.848C249.954 204.12 250.264 204.68 250.776 205.128C251.288 205.565 251.896 205.784 252.6 205.784C252.994 205.784 253.373 205.72 253.736 205.592C254.098 205.464 254.408 205.288 254.664 205.064L255.688 206.072ZM252.312 200.072C251.704 200.072 251.17 200.275 250.712 200.68C250.264 201.085 249.981 201.608 249.864 202.248H254.696C254.578 201.629 254.296 201.112 253.848 200.696C253.41 200.28 252.898 200.072 252.312 200.072Z" fill="white"/>
<path d="M266.608 293.19C265.233 293.984 263.837 294.742 262.422 295.462L256.777 284.371C257.997 283.75 259.2 283.097 260.386 282.413L266.608 293.19Z" fill="#9F3EDA"/>
<path d="M280.755 319.241C254.743 334.259 224.048 338.989 194.721 332.497C165.395 326.005 139.564 308.762 122.32 284.169C105.077 259.575 97.6712 229.414 101.564 199.63C105.457 169.847 120.365 142.602 143.35 123.266L154.023 135.954C134.21 152.622 121.36 176.106 118.004 201.779C114.649 227.452 121.032 253.451 135.896 274.65C150.76 295.85 173.026 310.712 198.305 316.308C223.584 321.904 250.043 317.828 272.465 304.882L280.755 319.241Z" fill="#FDEEC7"/>
<path d="M294.075 351.305C271.134 364.55 245.22 371.79 218.736 372.355C192.252 372.92 166.054 366.791 142.569 354.537C119.084 342.282 99.0713 324.298 84.3863 302.251C69.7012 280.204 60.8184 254.807 58.5608 228.413C56.3033 202.019 60.744 175.483 71.4716 151.262C82.1993 127.041 98.8667 105.92 119.93 89.855C140.992 73.7901 165.769 63.3013 191.965 59.3605C218.16 55.4196 244.926 58.1542 269.784 67.311L262.275 87.6938C240.849 79.8008 217.776 77.4436 195.196 80.8406C172.616 84.2375 151.259 93.2787 133.103 107.127C114.947 120.974 100.58 139.181 91.3326 160.059C82.0855 180.937 78.2577 203.811 80.2037 226.562C82.1496 249.313 89.8065 271.205 102.465 290.209C115.123 309.214 132.373 324.716 152.617 335.279C172.861 345.842 195.444 351.125 218.273 350.638C241.102 350.151 263.439 343.91 283.214 332.493L294.075 351.305Z" fill="#67E5EE"/>
<path d="M163.368 118.8V125.808H164.728V127.168H163.368V130H161.784V127.168H155.432V125.888L161.592 118.8H163.368ZM157.32 125.808H161.784V120.672L157.32 125.808ZM170.61 130.16C169.917 130.16 169.277 130.021 168.69 129.744C168.114 129.456 167.618 129.061 167.202 128.56C166.797 128.059 166.477 127.456 166.242 126.752C166.018 126.037 165.906 125.253 165.906 124.4C165.906 123.547 166.018 122.768 166.242 122.064C166.477 121.349 166.797 120.741 167.202 120.24C167.618 119.739 168.114 119.349 168.69 119.072C169.277 118.784 169.917 118.64 170.61 118.64C171.303 118.64 171.938 118.784 172.514 119.072C173.101 119.349 173.602 119.739 174.018 120.24C174.434 120.741 174.754 121.349 174.978 122.064C175.213 122.768 175.33 123.547 175.33 124.4C175.33 125.253 175.213 126.037 174.978 126.752C174.754 127.456 174.434 128.059 174.018 128.56C173.602 129.061 173.101 129.456 172.514 129.744C171.938 130.021 171.303 130.16 170.61 130.16ZM170.61 128.752C171.57 128.752 172.333 128.363 172.898 127.584C173.474 126.795 173.762 125.733 173.762 124.4C173.762 123.067 173.474 122.005 172.898 121.216C172.333 120.427 171.57 120.032 170.61 120.032C169.65 120.032 168.882 120.427 168.306 121.216C167.741 122.005 167.458 123.067 167.458 124.4C167.458 125.733 167.741 126.795 168.306 127.584C168.882 128.363 169.65 128.752 170.61 128.752ZM176.715 128.56H178.411L176.939 132.288H175.723L176.715 128.56ZM183.202 118.64C183.895 118.64 184.53 118.773 185.106 119.04C185.692 119.307 186.188 119.68 186.594 120.16C187.01 120.629 187.33 121.2 187.554 121.872C187.788 122.533 187.906 123.264 187.906 124.064C187.906 124.981 187.778 125.819 187.522 126.576C187.266 127.333 186.903 127.979 186.434 128.512C185.975 129.035 185.415 129.44 184.754 129.728C184.103 130.016 183.378 130.16 182.578 130.16C182.044 130.16 181.516 130.08 180.994 129.92C180.471 129.76 180.018 129.547 179.634 129.28L180.482 128.096C180.812 128.32 181.159 128.485 181.522 128.592C181.895 128.699 182.279 128.752 182.674 128.752C183.772 128.752 184.642 128.363 185.282 127.584C185.932 126.805 186.279 125.717 186.322 124.32C185.927 124.779 185.442 125.141 184.866 125.408C184.29 125.664 183.687 125.792 183.058 125.792C182.492 125.792 181.97 125.707 181.49 125.536C181.02 125.355 180.61 125.115 180.258 124.816C179.916 124.507 179.65 124.139 179.458 123.712C179.266 123.285 179.17 122.821 179.17 122.32C179.17 121.787 179.271 121.296 179.474 120.848C179.676 120.4 179.954 120.016 180.306 119.696C180.668 119.365 181.095 119.109 181.586 118.928C182.087 118.736 182.626 118.64 183.202 118.64ZM183.33 124.512C183.874 124.512 184.402 124.384 184.914 124.128C185.426 123.861 185.868 123.488 186.242 123.008C186.103 122.112 185.762 121.387 185.218 120.832C184.674 120.277 184.018 120 183.25 120C182.535 120 181.938 120.219 181.458 120.656C180.988 121.093 180.754 121.632 180.754 122.272C180.754 122.933 180.994 123.472 181.474 123.888C181.954 124.304 182.572 124.512 183.33 124.512ZM191.395 124.48C190.659 124.48 190.067 124.213 189.619 123.68C189.171 123.147 188.947 122.453 188.947 121.6C188.947 120.747 189.171 120.053 189.619 119.52C190.078 118.987 190.67 118.72 191.395 118.72C192.12 118.72 192.707 118.987 193.155 119.52C193.614 120.053 193.843 120.747 193.843 121.6C193.843 122.453 193.614 123.147 193.155 123.68C192.707 124.213 192.12 124.48 191.395 124.48ZM191.395 123.568C191.832 123.568 192.179 123.392 192.435 123.04C192.691 122.688 192.819 122.208 192.819 121.6C192.819 120.992 192.691 120.512 192.435 120.16C192.179 119.797 191.832 119.621 191.395 119.632C190.968 119.621 190.622 119.797 190.355 120.16C190.099 120.512 189.971 120.992 189.971 121.6C189.971 122.208 190.099 122.688 190.355 123.04C190.611 123.392 190.958 123.568 191.395 123.568ZM192.067 130H190.819L197.123 118.8H198.387L192.067 130ZM197.891 130.08C197.155 130.08 196.563 129.813 196.115 129.28C195.667 128.747 195.443 128.053 195.443 127.2C195.443 126.347 195.667 125.653 196.115 125.12C196.574 124.587 197.166 124.32 197.891 124.32C198.616 124.32 199.203 124.587 199.651 125.12C200.11 125.653 200.339 126.347 200.339 127.2C200.339 128.053 200.11 128.747 199.651 129.28C199.203 129.813 198.616 130.08 197.891 130.08ZM197.891 129.168C198.328 129.168 198.675 128.992 198.931 128.64C199.187 128.288 199.315 127.808 199.315 127.2C199.315 126.592 199.187 126.112 198.931 125.76C198.675 125.397 198.328 125.221 197.891 125.232C197.464 125.221 197.118 125.397 196.851 125.76C196.595 126.112 196.467 126.592 196.467 127.2C196.467 127.808 196.595 128.288 196.851 128.64C197.107 128.992 197.454 129.168 197.891 129.168Z" fill="white"/>
<path d="M276.024 84.464L276.296 78.8H283.128V80.16H277.608L277.464 83.392C277.827 83.264 278.189 83.168 278.552 83.104C278.915 83.04 279.293 83.008 279.688 83.008C280.893 83.008 281.869 83.328 282.616 83.968C283.363 84.5973 283.736 85.4187 283.736 86.432C283.736 87.5413 283.341 88.4427 282.552 89.136C281.763 89.8187 280.733 90.16 279.464 90.16C278.685 90.16 277.949 90.032 277.256 89.776C276.563 89.52 275.944 89.1467 275.4 88.656L276.376 87.568C276.877 88.0053 277.373 88.3253 277.864 88.528C278.355 88.72 278.899 88.816 279.496 88.816C280.275 88.816 280.904 88.6027 281.384 88.176C281.875 87.7493 282.12 87.1947 282.12 86.512C282.12 85.8613 281.859 85.3333 281.336 84.928C280.824 84.512 280.163 84.304 279.352 84.304C278.957 84.304 278.563 84.3467 278.168 84.432C277.784 84.5067 277.4 84.624 277.016 84.784L276.024 84.464ZM289.195 90.16C288.565 90.16 287.984 90.08 287.451 89.92C286.928 89.76 286.475 89.5413 286.091 89.264C285.717 88.976 285.424 88.6347 285.211 88.24C284.997 87.8347 284.891 87.3973 284.891 86.928C284.891 86.3093 285.093 85.7547 285.499 85.264C285.904 84.7627 286.432 84.3947 287.083 84.16C286.549 83.9253 286.117 83.584 285.787 83.136C285.467 82.6773 285.307 82.176 285.307 81.632C285.307 81.2053 285.403 80.8107 285.595 80.448C285.797 80.0747 286.069 79.7547 286.411 79.488C286.763 79.2213 287.173 79.0133 287.643 78.864C288.123 78.704 288.64 78.624 289.195 78.624C289.739 78.624 290.251 78.704 290.731 78.864C291.211 79.0133 291.621 79.2213 291.963 79.488C292.315 79.7547 292.587 80.0747 292.779 80.448C292.981 80.8107 293.083 81.2053 293.083 81.632C293.083 82.176 292.917 82.6773 292.587 83.136C292.267 83.584 291.84 83.9253 291.307 84.16C291.957 84.3947 292.485 84.7627 292.891 85.264C293.296 85.7547 293.499 86.3093 293.499 86.928C293.499 87.3973 293.392 87.8347 293.179 88.24C292.965 88.6347 292.667 88.976 292.283 89.264C291.909 89.5413 291.456 89.76 290.923 89.92C290.4 90.08 289.824 90.16 289.195 90.16ZM289.195 83.536C289.845 83.536 290.395 83.36 290.843 83.008C291.301 82.656 291.531 82.2293 291.531 81.728C291.531 81.216 291.307 80.784 290.859 80.432C290.411 80.08 289.856 79.904 289.195 79.904C288.533 79.904 287.979 80.08 287.531 80.432C287.093 80.784 286.875 81.216 286.875 81.728C286.875 82.2293 287.099 82.656 287.547 83.008C287.995 83.36 288.544 83.536 289.195 83.536ZM289.195 88.864C289.963 88.864 290.608 88.672 291.131 88.288C291.653 87.8933 291.915 87.408 291.915 86.832C291.915 86.256 291.653 85.776 291.131 85.392C290.608 85.008 289.963 84.816 289.195 84.816C288.427 84.816 287.781 85.008 287.259 85.392C286.736 85.776 286.475 86.256 286.475 86.832C286.475 87.408 286.736 87.8933 287.259 88.288C287.781 88.672 288.427 88.864 289.195 88.864ZM294.98 88.56H296.676L295.204 92.288H293.988L294.98 88.56ZM301.467 78.64C302.161 78.64 302.795 78.7733 303.371 79.04C303.958 79.3067 304.454 79.68 304.859 80.16C305.275 80.6293 305.595 81.2 305.819 81.872C306.054 82.5333 306.171 83.264 306.171 84.064C306.171 84.9813 306.043 85.8187 305.787 86.576C305.531 87.3333 305.169 87.9787 304.699 88.512C304.241 89.0347 303.681 89.44 303.019 89.728C302.369 90.016 301.643 90.16 300.843 90.16C300.31 90.16 299.782 90.08 299.259 89.92C298.737 89.76 298.283 89.5467 297.899 89.28L298.747 88.096C299.078 88.32 299.425 88.4853 299.787 88.592C300.161 88.6987 300.545 88.752 300.939 88.752C302.038 88.752 302.907 88.3627 303.547 87.584C304.198 86.8053 304.545 85.7173 304.587 84.32C304.193 84.7787 303.707 85.1413 303.131 85.408C302.555 85.664 301.953 85.792 301.323 85.792C300.758 85.792 300.235 85.7067 299.755 85.536C299.286 85.3547 298.875 85.1147 298.523 84.816C298.182 84.5067 297.915 84.1387 297.723 83.712C297.531 83.2853 297.435 82.8213 297.435 82.32C297.435 81.7867 297.537 81.296 297.739 80.848C297.942 80.4 298.219 80.016 298.571 79.696C298.934 79.3653 299.361 79.1093 299.851 78.928C300.353 78.736 300.891 78.64 301.467 78.64ZM301.595 84.512C302.139 84.512 302.667 84.384 303.179 84.128C303.691 83.8613 304.134 83.488 304.507 83.008C304.369 82.112 304.027 81.3867 303.483 80.832C302.939 80.2773 302.283 80 301.515 80C300.801 80 300.203 80.2187 299.723 80.656C299.254 81.0933 299.019 81.632 299.019 82.272C299.019 82.9333 299.259 83.472 299.739 83.888C300.219 84.304 300.838 84.512 301.595 84.512ZM309.661 84.48C308.925 84.48 308.333 84.2133 307.885 83.68C307.437 83.1467 307.213 82.4533 307.213 81.6C307.213 80.7467 307.437 80.0533 307.885 79.52C308.343 78.9867 308.935 78.72 309.661 78.72C310.386 78.72 310.973 78.9867 311.421 79.52C311.879 80.0533 312.109 80.7467 312.109 81.6C312.109 82.4533 311.879 83.1467 311.421 83.68C310.973 84.2133 310.386 84.48 309.661 84.48ZM309.661 83.568C310.098 83.568 310.445 83.392 310.701 83.04C310.957 82.688 311.085 82.208 311.085 81.6C311.085 80.992 310.957 80.512 310.701 80.16C310.445 79.7973 310.098 79.6213 309.661 79.632C309.234 79.6213 308.887 79.7973 308.621 80.16C308.365 80.512 308.237 80.992 308.237 81.6C308.237 82.208 308.365 82.688 308.621 83.04C308.877 83.392 309.223 83.568 309.661 83.568ZM310.333 90H309.085L315.389 78.8H316.653L310.333 90ZM316.157 90.08C315.421 90.08 314.829 89.8133 314.381 89.28C313.933 88.7467 313.709 88.0533 313.709 87.2C313.709 86.3467 313.933 85.6533 314.381 85.12C314.839 84.5867 315.431 84.32 316.157 84.32C316.882 84.32 317.469 84.5867 317.917 85.12C318.375 85.6533 318.605 86.3467 318.605 87.2C318.605 88.0533 318.375 88.7467 317.917 89.28C317.469 89.8133 316.882 90.08 316.157 90.08ZM316.157 89.168C316.594 89.168 316.941 88.992 317.197 88.64C317.453 88.288 317.581 87.808 317.581 87.2C317.581 86.592 317.453 86.112 317.197 85.76C316.941 85.3973 316.594 85.2213 316.157 85.232C315.73 85.2213 315.383 85.3973 315.117 85.76C314.861 86.112 314.733 86.592 314.733 87.2C314.733 87.808 314.861 88.288 315.117 88.64C315.373 88.992 315.719 89.168 316.157 89.168Z" fill="white"/>
<path d="M280.36 293.16C279.667 293.16 279.027 293.021 278.44 292.744C277.864 292.456 277.368 292.061 276.952 291.56C276.547 291.059 276.227 290.456 275.992 289.752C275.768 289.037 275.656 288.253 275.656 287.4C275.656 286.547 275.768 285.768 275.992 285.064C276.227 284.349 276.547 283.741 276.952 283.24C277.368 282.739 277.864 282.349 278.44 282.072C279.027 281.784 279.667 281.64 280.36 281.64C281.053 281.64 281.688 281.784 282.264 282.072C282.851 282.349 283.352 282.739 283.768 283.24C284.184 283.741 284.504 284.349 284.728 285.064C284.963 285.768 285.08 286.547 285.08 287.4C285.08 288.253 284.963 289.037 284.728 289.752C284.504 290.456 284.184 291.059 283.768 291.56C283.352 292.061 282.851 292.456 282.264 292.744C281.688 293.021 281.053 293.16 280.36 293.16ZM280.36 291.752C281.32 291.752 282.083 291.363 282.648 290.584C283.224 289.795 283.512 288.733 283.512 287.4C283.512 286.067 283.224 285.005 282.648 284.216C282.083 283.427 281.32 283.032 280.36 283.032C279.4 283.032 278.632 283.427 278.056 284.216C277.491 285.005 277.208 286.067 277.208 287.4C277.208 288.733 277.491 289.795 278.056 290.584C278.632 291.363 279.4 291.752 280.36 291.752ZM286.465 291.56H288.161L286.689 295.288H285.473L286.465 291.56ZM289.358 293V291.848L293.678 287.832C294.318 287.224 294.76 286.717 295.006 286.312C295.262 285.907 295.39 285.48 295.39 285.032C295.39 284.456 295.166 283.981 294.718 283.608C294.28 283.224 293.726 283.032 293.054 283.032C292.51 283.032 292.003 283.139 291.534 283.352C291.064 283.565 290.552 283.917 289.998 284.408L289.086 283.32C289.704 282.765 290.35 282.349 291.022 282.072C291.694 281.795 292.382 281.656 293.086 281.656C293.651 281.656 294.168 281.736 294.638 281.896C295.118 282.056 295.523 282.285 295.854 282.584C296.195 282.872 296.462 283.219 296.654 283.624C296.846 284.019 296.942 284.456 296.942 284.936C296.942 285.576 296.782 286.168 296.462 286.712C296.152 287.256 295.566 287.928 294.702 288.728L291.55 291.64H297.118V293H289.358ZM300.489 287.48C299.753 287.48 299.161 287.213 298.713 286.68C298.265 286.147 298.041 285.453 298.041 284.6C298.041 283.747 298.265 283.053 298.713 282.52C299.171 281.987 299.763 281.72 300.489 281.72C301.214 281.72 301.801 281.987 302.249 282.52C302.707 283.053 302.937 283.747 302.937 284.6C302.937 285.453 302.707 286.147 302.249 286.68C301.801 287.213 301.214 287.48 300.489 287.48ZM300.489 286.568C300.926 286.568 301.273 286.392 301.529 286.04C301.785 285.688 301.913 285.208 301.913 284.6C301.913 283.992 301.785 283.512 301.529 283.16C301.273 282.797 300.926 282.621 300.489 282.632C300.062 282.621 299.715 282.797 299.449 283.16C299.193 283.512 299.065 283.992 299.065 284.6C299.065 285.208 299.193 285.688 299.449 286.04C299.705 286.392 300.051 286.568 300.489 286.568ZM301.161 293H299.913L306.217 281.8H307.481L301.161 293ZM306.985 293.08C306.249 293.08 305.657 292.813 305.209 292.28C304.761 291.747 304.537 291.053 304.537 290.2C304.537 289.347 304.761 288.653 305.209 288.12C305.667 287.587 306.259 287.32 306.985 287.32C307.71 287.32 308.297 287.587 308.745 288.12C309.203 288.653 309.433 289.347 309.433 290.2C309.433 291.053 309.203 291.747 308.745 292.28C308.297 292.813 307.71 293.08 306.985 293.08ZM306.985 292.168C307.422 292.168 307.769 291.992 308.025 291.64C308.281 291.288 308.409 290.808 308.409 290.2C308.409 289.592 308.281 289.112 308.025 288.76C307.769 288.397 307.422 288.221 306.985 288.232C306.558 288.221 306.211 288.397 305.945 288.76C305.689 289.112 305.561 289.592 305.561 290.2C305.561 290.808 305.689 291.288 305.945 291.64C306.201 291.992 306.547 292.168 306.985 292.168Z" fill="white"/>
</svg>
