<svg width="334" height="92" viewBox="0 0 334 92" fill="none" xmlns="http://www.w3.org/2000/svg">
<path d="M35.136 16V4.8H36.816V16H35.136ZM38.9128 16V7.856H40.5128V8.672C40.8328 8.352 41.1954 8.112 41.6008 7.952C42.0168 7.78133 42.4701 7.696 42.9608 7.696C43.8888 7.696 44.6514 7.99467 45.2488 8.592C45.8461 9.17867 46.1448 9.94133 46.1448 10.88V16H44.5448V11.152C44.5448 10.512 44.3581 10.0107 43.9848 9.648C43.6221 9.27467 43.1368 9.088 42.5288 9.088C42.1021 9.088 41.7128 9.17867 41.3608 9.36C41.0194 9.54133 40.7368 9.80267 40.5128 10.144V16H38.9128ZM51.8789 14.736C52.2842 14.736 52.6682 14.656 53.0309 14.496C53.3935 14.3253 53.7402 14.0747 54.0709 13.744L55.0309 14.784C54.6042 15.2107 54.1135 15.5467 53.5589 15.792C53.0042 16.0267 52.4229 16.144 51.8149 16.144C51.2282 16.144 50.6789 16.0373 50.1669 15.824C49.6549 15.6 49.2122 15.3013 48.8389 14.928C48.4655 14.5547 48.1669 14.112 47.9429 13.6C47.7295 13.0773 47.6229 12.5173 47.6229 11.92C47.6229 11.3333 47.7295 10.784 47.9429 10.272C48.1669 9.74933 48.4655 9.30133 48.8389 8.928C49.2122 8.544 49.6549 8.24533 50.1669 8.032C50.6789 7.808 51.2282 7.696 51.8149 7.696C52.4229 7.696 53.0149 7.81867 53.5909 8.064C54.1669 8.29867 54.6682 8.62933 55.0949 9.056L54.0869 10.144C53.7775 9.81333 53.4309 9.56267 53.0469 9.392C52.6629 9.21067 52.2629 9.12 51.8469 9.12C51.1109 9.12 50.4869 9.392 49.9749 9.936C49.4629 10.48 49.2069 11.1413 49.2069 11.92C49.2069 12.72 49.4629 13.392 49.9749 13.936C50.4975 14.4693 51.1322 14.736 51.8789 14.736ZM57.1346 6.544C56.868 6.544 56.6386 6.448 56.4466 6.256C56.2546 6.05333 56.1586 5.81867 56.1586 5.552C56.1586 5.28533 56.2546 5.056 56.4466 4.864C56.6386 4.66133 56.868 4.56 57.1346 4.56C57.4013 4.56 57.6306 4.66133 57.8226 4.864C58.0253 5.056 58.1266 5.28533 58.1266 5.552C58.1266 5.81867 58.0253 6.05333 57.8226 6.256C57.6306 6.448 57.4013 6.544 57.1346 6.544ZM57.9346 7.856V16H56.3346V7.856H57.9346ZM59.819 16V7.856H61.419V8.672C61.739 8.352 62.1017 8.112 62.507 7.952C62.923 7.78133 63.3763 7.696 63.867 7.696C64.795 7.696 65.5577 7.99467 66.155 8.592C66.7523 9.17867 67.051 9.94133 67.051 10.88V16H65.451V11.152C65.451 10.512 65.2643 10.0107 64.891 9.648C64.5283 9.27467 64.043 9.088 63.435 9.088C63.0083 9.088 62.619 9.17867 62.267 9.36C61.9257 9.54133 61.643 9.80267 61.419 10.144V16H59.819ZM75.9531 15.072C75.4838 15.4347 74.9931 15.7067 74.4811 15.888C73.9691 16.0587 73.4091 16.144 72.8011 16.144C72.2038 16.144 71.6438 16.0373 71.1211 15.824C70.5985 15.6 70.1451 15.3013 69.7611 14.928C69.3771 14.5547 69.0731 14.112 68.8491 13.6C68.6358 13.0773 68.5291 12.5173 68.5291 11.92C68.5291 11.3333 68.6358 10.784 68.8491 10.272C69.0625 9.76 69.3505 9.31733 69.7131 8.944C70.0758 8.57067 70.5078 8.27733 71.0091 8.064C71.5105 7.84 72.0438 7.728 72.6091 7.728C73.1638 7.728 73.6811 7.84 74.1611 8.064C74.6518 8.27733 75.0678 8.576 75.4091 8.96C75.7611 9.33333 76.0385 9.78133 76.2411 10.304C76.4438 10.8267 76.5451 11.3867 76.5451 11.984V12.448H70.1131C70.2198 13.12 70.5291 13.68 71.0411 14.128C71.5531 14.5653 72.1611 14.784 72.8651 14.784C73.2598 14.784 73.6385 14.72 74.0011 14.592C74.3638 14.464 74.6731 14.288 74.9291 14.064L75.9531 15.072ZM72.5771 9.072C71.9691 9.072 71.4358 9.27467 70.9771 9.68C70.5291 10.0853 70.2465 10.608 70.1291 11.248H74.9611C74.8438 10.6293 74.5611 10.112 74.1131 9.696C73.6758 9.28 73.1638 9.072 72.5771 9.072ZM78.069 16V7.856H79.669V8.896C79.9143 8.50133 80.229 8.20267 80.613 8C80.997 7.78667 81.429 7.68 81.909 7.68C82.0797 7.68 82.229 7.69067 82.357 7.712C82.485 7.73333 82.6077 7.76533 82.725 7.808V9.248C82.5757 9.19467 82.421 9.152 82.261 9.12C82.101 9.088 81.941 9.072 81.781 9.072C81.3117 9.072 80.8903 9.2 80.517 9.456C80.1543 9.70133 79.8717 10.0693 79.669 10.56V16H78.069ZM86.2388 16.144C85.3534 16.144 84.6334 15.9147 84.0788 15.456C83.5241 14.9973 83.2467 14.4 83.2467 13.664C83.2467 12.896 83.5401 12.2933 84.1268 11.856C84.7134 11.408 85.5188 11.184 86.5428 11.184C86.9374 11.184 87.3214 11.2267 87.6948 11.312C88.0681 11.3867 88.4254 11.4933 88.7668 11.632V10.768C88.7668 10.192 88.5961 9.76 88.2548 9.472C87.9134 9.184 87.4228 9.04 86.7828 9.04C86.4094 9.04 86.0201 9.09867 85.6148 9.216C85.2094 9.32267 84.7561 9.49333 84.2548 9.728L83.6628 8.528C84.2708 8.24 84.8468 8.032 85.3908 7.904C85.9348 7.76533 86.4734 7.696 87.0068 7.696C88.0628 7.696 88.8788 7.952 89.4548 8.464C90.0414 8.96533 90.3348 9.68 90.3348 10.608V16H88.7668V15.296C88.4041 15.584 88.0148 15.7973 87.5988 15.936C87.1828 16.0747 86.7294 16.144 86.2388 16.144ZM84.7828 13.632C84.7828 14.0267 84.9481 14.3467 85.2788 14.592C85.6201 14.8373 86.0628 14.96 86.6068 14.96C87.0334 14.96 87.4281 14.896 87.7908 14.768C88.1534 14.64 88.4788 14.448 88.7668 14.192V12.784C88.4574 12.6133 88.1321 12.4907 87.7908 12.416C87.4494 12.3307 87.0761 12.288 86.6708 12.288C86.0948 12.288 85.6361 12.4107 85.2948 12.656C84.9534 12.9013 84.7828 13.2267 84.7828 13.632ZM96.0664 14.736C96.4717 14.736 96.8557 14.656 97.2184 14.496C97.581 14.3253 97.9277 14.0747 98.2584 13.744L99.2184 14.784C98.7917 15.2107 98.301 15.5467 97.7464 15.792C97.1917 16.0267 96.6104 16.144 96.0024 16.144C95.4157 16.144 94.8664 16.0373 94.3544 15.824C93.8424 15.6 93.3997 15.3013 93.0264 14.928C92.653 14.5547 92.3544 14.112 92.1304 13.6C91.917 13.0773 91.8104 12.5173 91.8104 11.92C91.8104 11.3333 91.917 10.784 92.1304 10.272C92.3544 9.74933 92.653 9.30133 93.0264 8.928C93.3997 8.544 93.8424 8.24533 94.3544 8.032C94.8664 7.808 95.4157 7.696 96.0024 7.696C96.6104 7.696 97.2024 7.81867 97.7784 8.064C98.3544 8.29867 98.8557 8.62933 99.2824 9.056L98.2744 10.144C97.965 9.81333 97.6184 9.56267 97.2344 9.392C96.8504 9.21067 96.4504 9.12 96.0344 9.12C95.2984 9.12 94.6744 9.392 94.1624 9.936C93.6504 10.48 93.3944 11.1413 93.3944 11.92C93.3944 12.72 93.6504 13.392 94.1624 13.936C94.685 14.4693 95.3197 14.736 96.0664 14.736ZM101.322 6.544C101.055 6.544 100.826 6.448 100.634 6.256C100.442 6.05333 100.346 5.81867 100.346 5.552C100.346 5.28533 100.442 5.056 100.634 4.864C100.826 4.66133 101.055 4.56 101.322 4.56C101.589 4.56 101.818 4.66133 102.01 4.864C102.213 5.056 102.314 5.28533 102.314 5.552C102.314 5.81867 102.213 6.05333 102.01 6.256C101.818 6.448 101.589 6.544 101.322 6.544ZM102.122 7.856V16H100.522V7.856H102.122ZM103.639 11.92C103.639 11.3333 103.745 10.784 103.959 10.272C104.183 9.74933 104.487 9.30133 104.871 8.928C105.255 8.544 105.703 8.24533 106.215 8.032C106.737 7.808 107.292 7.696 107.879 7.696C108.465 7.696 109.015 7.808 109.527 8.032C110.049 8.24533 110.497 8.544 110.871 8.928C111.255 9.30133 111.553 9.74933 111.767 10.272C111.991 10.784 112.102 11.3333 112.102 11.92C112.102 12.5173 111.991 13.0773 111.767 13.6C111.553 14.112 111.255 14.56 110.871 14.944C110.497 15.3173 110.049 15.616 109.527 15.84C109.015 16.0533 108.465 16.16 107.879 16.16C107.292 16.16 106.737 16.0533 106.215 15.84C105.703 15.616 105.255 15.3173 104.871 14.944C104.487 14.56 104.183 14.112 103.959 13.6C103.745 13.0773 103.639 12.5173 103.639 11.92ZM107.879 14.752C108.615 14.752 109.239 14.48 109.751 13.936C110.273 13.3813 110.535 12.7093 110.535 11.92C110.535 11.1307 110.273 10.464 109.751 9.92C109.239 9.376 108.615 9.104 107.879 9.104C107.143 9.104 106.513 9.376 105.991 9.92C105.468 10.464 105.207 11.1307 105.207 11.92C105.207 12.7093 105.463 13.3813 105.975 13.936C106.497 14.48 107.132 14.752 107.879 14.752ZM108.391 4.4H110.311L108.263 6.352H106.919L108.391 4.4ZM113.616 16V7.856H115.216V8.672C115.536 8.352 115.899 8.112 116.304 7.952C116.72 7.78133 117.173 7.696 117.664 7.696C118.592 7.696 119.355 7.99467 119.952 8.592C120.549 9.17867 120.848 9.94133 120.848 10.88V16H119.248V11.152C119.248 10.512 119.061 10.0107 118.688 9.648C118.325 9.27467 117.84 9.088 117.232 9.088C116.805 9.088 116.416 9.17867 116.064 9.36C115.723 9.54133 115.44 9.80267 115.216 10.144V16H113.616ZM132.278 16V15.232C131.936 15.52 131.552 15.744 131.126 15.904C130.699 16.0533 130.251 16.128 129.782 16.128C129.206 16.128 128.667 16.0213 128.166 15.808C127.664 15.584 127.227 15.2853 126.854 14.912C126.491 14.5387 126.203 14.096 125.99 13.584C125.776 13.0613 125.67 12.5067 125.67 11.92C125.67 11.3333 125.776 10.784 125.99 10.272C126.203 9.76 126.491 9.31733 126.854 8.944C127.227 8.57067 127.67 8.27733 128.182 8.064C128.694 7.84 129.238 7.728 129.814 7.728C130.262 7.728 130.694 7.79733 131.11 7.936C131.526 8.07467 131.91 8.272 132.262 8.528V4.8L133.862 4.448V16H132.278ZM127.238 11.904C127.238 12.704 127.504 13.376 128.038 13.92C128.571 14.464 129.227 14.736 130.006 14.736C130.464 14.736 130.886 14.6507 131.27 14.48C131.664 14.3093 131.995 14.0693 132.262 13.76V10.064C131.995 9.76533 131.664 9.53067 131.27 9.36C130.875 9.18933 130.454 9.104 130.006 9.104C129.227 9.104 128.571 9.37067 128.038 9.904C127.504 10.4373 127.238 11.104 127.238 11.904ZM142.812 15.072C142.343 15.4347 141.853 15.7067 141.341 15.888C140.829 16.0587 140.269 16.144 139.661 16.144C139.063 16.144 138.503 16.0373 137.981 15.824C137.458 15.6 137.005 15.3013 136.621 14.928C136.237 14.5547 135.933 14.112 135.709 13.6C135.495 13.0773 135.389 12.5173 135.389 11.92C135.389 11.3333 135.495 10.784 135.709 10.272C135.922 9.76 136.21 9.31733 136.573 8.944C136.935 8.57067 137.367 8.27733 137.869 8.064C138.37 7.84 138.903 7.728 139.469 7.728C140.023 7.728 140.541 7.84 141.021 8.064C141.511 8.27733 141.927 8.576 142.269 8.96C142.621 9.33333 142.898 9.78133 143.101 10.304C143.303 10.8267 143.405 11.3867 143.405 11.984V12.448H136.973C137.079 13.12 137.389 13.68 137.901 14.128C138.413 14.5653 139.021 14.784 139.725 14.784C140.119 14.784 140.498 14.72 140.861 14.592C141.223 14.464 141.533 14.288 141.789 14.064L142.812 15.072ZM139.437 9.072C138.829 9.072 138.295 9.27467 137.837 9.68C137.389 10.0853 137.106 10.608 136.989 11.248H141.821C141.703 10.6293 141.421 10.112 140.973 9.696C140.535 9.28 140.023 9.072 139.437 9.072ZM148.272 16V7.856H149.872V8.896C150.117 8.50133 150.432 8.20267 150.816 8C151.2 7.78667 151.632 7.68 152.112 7.68C152.283 7.68 152.432 7.69067 152.56 7.712C152.688 7.73333 152.811 7.76533 152.928 7.808V9.248C152.779 9.19467 152.624 9.152 152.464 9.12C152.304 9.088 152.144 9.072 151.984 9.072C151.515 9.072 151.093 9.2 150.72 9.456C150.357 9.70133 150.075 10.0693 149.872 10.56V16H148.272ZM160.766 15.072C160.296 15.4347 159.806 15.7067 159.294 15.888C158.782 16.0587 158.222 16.144 157.614 16.144C157.016 16.144 156.456 16.0373 155.934 15.824C155.411 15.6 154.958 15.3013 154.574 14.928C154.19 14.5547 153.886 14.112 153.662 13.6C153.448 13.0773 153.342 12.5173 153.342 11.92C153.342 11.3333 153.448 10.784 153.662 10.272C153.875 9.76 154.163 9.31733 154.526 8.944C154.888 8.57067 155.32 8.27733 155.822 8.064C156.323 7.84 156.856 7.728 157.422 7.728C157.976 7.728 158.494 7.84 158.974 8.064C159.464 8.27733 159.88 8.576 160.222 8.96C160.574 9.33333 160.851 9.78133 161.054 10.304C161.256 10.8267 161.358 11.3867 161.358 11.984V12.448H154.926C155.032 13.12 155.342 13.68 155.854 14.128C156.366 14.5653 156.974 14.784 157.678 14.784C158.072 14.784 158.451 14.72 158.814 14.592C159.176 14.464 159.486 14.288 159.742 14.064L160.766 15.072ZM157.39 9.072C156.782 9.072 156.248 9.27467 155.79 9.68C155.342 10.0853 155.059 10.608 154.942 11.248H159.774C159.656 10.6293 159.374 10.112 158.926 9.696C158.488 9.28 157.976 9.072 157.39 9.072ZM162.192 14.944L163.056 13.888C163.482 14.2187 163.914 14.4747 164.352 14.656C164.8 14.8267 165.253 14.912 165.712 14.912C166.288 14.912 166.757 14.8 167.12 14.576C167.482 14.352 167.664 14.0587 167.664 13.696C167.664 13.408 167.557 13.1787 167.344 13.008C167.13 12.8373 166.8 12.72 166.352 12.656L164.88 12.448C164.08 12.3307 163.472 12.0853 163.056 11.712C162.65 11.328 162.448 10.8213 162.448 10.192C162.448 9.456 162.741 8.864 163.328 8.416C163.914 7.95733 164.682 7.728 165.632 7.728C166.229 7.728 166.794 7.81333 167.328 7.984C167.872 8.15467 168.4 8.416 168.912 8.768L168.096 9.824C167.648 9.52533 167.21 9.312 166.784 9.184C166.368 9.04533 165.946 8.976 165.52 8.976C165.029 8.976 164.634 9.07733 164.336 9.28C164.037 9.48267 163.888 9.74933 163.888 10.08C163.888 10.3787 163.989 10.608 164.192 10.768C164.405 10.9173 164.752 11.0293 165.232 11.104L166.704 11.312C167.504 11.4293 168.112 11.68 168.528 12.064C168.954 12.448 169.168 12.9547 169.168 13.584C169.168 13.9467 169.077 14.288 168.896 14.608C168.725 14.9173 168.485 15.184 168.176 15.408C167.877 15.632 167.52 15.8133 167.104 15.952C166.688 16.08 166.24 16.144 165.76 16.144C165.056 16.144 164.394 16.0427 163.776 15.84C163.168 15.6373 162.64 15.3387 162.192 14.944ZM171.197 6.544C170.93 6.544 170.701 6.448 170.509 6.256C170.317 6.05333 170.221 5.81867 170.221 5.552C170.221 5.28533 170.317 5.056 170.509 4.864C170.701 4.66133 170.93 4.56 171.197 4.56C171.464 4.56 171.693 4.66133 171.885 4.864C172.088 5.056 172.189 5.28533 172.189 5.552C172.189 5.81867 172.088 6.05333 171.885 6.256C171.693 6.448 171.464 6.544 171.197 6.544ZM171.997 7.856V16H170.397V7.856H171.997ZM180.122 16V15.232C179.78 15.52 179.396 15.744 178.97 15.904C178.543 16.0533 178.095 16.128 177.626 16.128C177.05 16.128 176.511 16.0213 176.01 15.808C175.508 15.584 175.071 15.2853 174.698 14.912C174.335 14.5387 174.047 14.096 173.834 13.584C173.62 13.0613 173.514 12.5067 173.514 11.92C173.514 11.3333 173.62 10.784 173.834 10.272C174.047 9.76 174.335 9.31733 174.698 8.944C175.071 8.57067 175.514 8.27733 176.026 8.064C176.538 7.84 177.082 7.728 177.658 7.728C178.106 7.728 178.538 7.79733 178.954 7.936C179.37 8.07467 179.754 8.272 180.106 8.528V4.8L181.706 4.448V16H180.122ZM175.082 11.904C175.082 12.704 175.348 13.376 175.882 13.92C176.415 14.464 177.071 14.736 177.85 14.736C178.308 14.736 178.73 14.6507 179.114 14.48C179.508 14.3093 179.839 14.0693 180.106 13.76V10.064C179.839 9.76533 179.508 9.53067 179.114 9.36C178.719 9.18933 178.298 9.104 177.85 9.104C177.071 9.104 176.415 9.37067 175.882 9.904C175.348 10.4373 175.082 11.104 175.082 11.904ZM185.168 7.856V12.688C185.168 13.328 185.35 13.8347 185.712 14.208C186.086 14.5813 186.576 14.768 187.184 14.768C187.611 14.768 187.995 14.6773 188.336 14.496C188.678 14.304 188.96 14.0373 189.184 13.696V7.856H190.784V16H189.184V15.184C188.864 15.504 188.496 15.7493 188.08 15.92C187.675 16.08 187.227 16.16 186.736 16.16C185.808 16.16 185.046 15.8613 184.448 15.264C183.862 14.6667 183.568 13.8987 183.568 12.96V7.856H185.168ZM192.31 11.92C192.31 11.3333 192.417 10.784 192.63 10.272C192.854 9.74933 193.158 9.30133 193.542 8.928C193.926 8.544 194.374 8.24533 194.886 8.032C195.409 7.808 195.964 7.696 196.55 7.696C197.137 7.696 197.686 7.808 198.198 8.032C198.721 8.24533 199.169 8.544 199.542 8.928C199.926 9.30133 200.225 9.74933 200.438 10.272C200.662 10.784 200.774 11.3333 200.774 11.92C200.774 12.5173 200.662 13.0773 200.438 13.6C200.225 14.112 199.926 14.56 199.542 14.944C199.169 15.3173 198.721 15.616 198.198 15.84C197.686 16.0533 197.137 16.16 196.55 16.16C195.964 16.16 195.409 16.0533 194.886 15.84C194.374 15.616 193.926 15.3173 193.542 14.944C193.158 14.56 192.854 14.112 192.63 13.6C192.417 13.0773 192.31 12.5173 192.31 11.92ZM196.55 14.752C197.286 14.752 197.91 14.48 198.422 13.936C198.945 13.3813 199.206 12.7093 199.206 11.92C199.206 11.1307 198.945 10.464 198.422 9.92C197.91 9.376 197.286 9.104 196.55 9.104C195.814 9.104 195.185 9.376 194.662 9.92C194.14 10.464 193.878 11.1307 193.878 11.92C193.878 12.7093 194.134 13.3813 194.646 13.936C195.169 14.48 195.804 14.752 196.55 14.752ZM201.52 14.944L202.384 13.888C202.81 14.2187 203.242 14.4747 203.68 14.656C204.128 14.8267 204.581 14.912 205.04 14.912C205.616 14.912 206.085 14.8 206.448 14.576C206.81 14.352 206.992 14.0587 206.992 13.696C206.992 13.408 206.885 13.1787 206.672 13.008C206.458 12.8373 206.128 12.72 205.68 12.656L204.208 12.448C203.408 12.3307 202.8 12.0853 202.384 11.712C201.978 11.328 201.776 10.8213 201.776 10.192C201.776 9.456 202.069 8.864 202.656 8.416C203.242 7.95733 204.01 7.728 204.96 7.728C205.557 7.728 206.122 7.81333 206.656 7.984C207.2 8.15467 207.728 8.416 208.24 8.768L207.424 9.824C206.976 9.52533 206.538 9.312 206.112 9.184C205.696 9.04533 205.274 8.976 204.848 8.976C204.357 8.976 203.962 9.07733 203.664 9.28C203.365 9.48267 203.216 9.74933 203.216 10.08C203.216 10.3787 203.317 10.608 203.52 10.768C203.733 10.9173 204.08 11.0293 204.56 11.104L206.032 11.312C206.832 11.4293 207.44 11.68 207.856 12.064C208.282 12.448 208.496 12.9547 208.496 13.584C208.496 13.9467 208.405 14.288 208.224 14.608C208.053 14.9173 207.813 15.184 207.504 15.408C207.205 15.632 206.848 15.8133 206.432 15.952C206.016 16.08 205.568 16.144 205.088 16.144C204.384 16.144 203.722 16.0427 203.104 15.84C202.496 15.6373 201.968 15.3387 201.52 14.944Z" fill="white"/>
<path d="M34.016 53L38.656 41.8H40.624L45.2 53H43.376L42.08 49.72H37.072L35.76 53H34.016ZM37.632 48.328H41.536L39.584 43.416L37.632 48.328ZM49.4533 53.064C48.8879 53.064 48.3546 52.9573 47.8533 52.744C47.3519 52.52 46.9146 52.2213 46.5413 51.848C46.1786 51.4747 45.8906 51.032 45.6773 50.52C45.4639 50.008 45.3573 49.464 45.3573 48.888C45.3573 48.312 45.4639 47.768 45.6773 47.256C45.8906 46.744 46.1786 46.3013 46.5413 45.928C46.9146 45.5547 47.3519 45.2613 47.8533 45.048C48.3653 44.824 48.9093 44.712 49.4852 44.712C49.9226 44.712 50.3439 44.7813 50.7493 44.92C51.1653 45.0587 51.5493 45.2613 51.9013 45.528V44.856H53.4853V53.112C53.4853 54.168 53.1599 54.9787 52.5093 55.544C51.8693 56.12 50.9519 56.408 49.7573 56.408C49.1706 56.408 48.5893 56.3387 48.0133 56.2C47.4479 56.0613 46.9359 55.864 46.4773 55.608L47.1013 54.36C47.5599 54.5947 48.0026 54.7707 48.4293 54.888C48.8559 55.0053 49.2826 55.064 49.7093 55.064C50.4133 55.064 50.9519 54.8987 51.3253 54.568C51.6986 54.2373 51.8853 53.752 51.8853 53.112V52.2C51.5439 52.4773 51.1653 52.6907 50.7493 52.84C50.3333 52.9893 49.9013 53.064 49.4533 53.064ZM46.9253 48.888C46.9253 49.6667 47.1866 50.328 47.7093 50.872C48.2319 51.4053 48.8773 51.672 49.6453 51.672C50.1039 51.672 50.5253 51.592 50.9093 51.432C51.2933 51.2613 51.6186 51.0267 51.8853 50.728V47.048C51.6293 46.7493 51.3039 46.52 50.9093 46.36C50.5253 46.1893 50.1039 46.104 49.6453 46.104C48.8773 46.104 48.2319 46.376 47.7093 46.92C47.1866 47.4533 46.9253 48.1093 46.9253 48.888ZM56.9339 44.856V49.688C56.9339 50.328 57.1152 50.8347 57.4779 51.208C57.8512 51.5813 58.3419 51.768 58.9499 51.768C59.3765 51.768 59.7605 51.6773 60.1019 51.496C60.4432 51.304 60.7259 51.0373 60.9499 50.696V44.856H62.5499V53H60.9499V52.184C60.6299 52.504 60.2619 52.7493 59.8459 52.92C59.4405 53.08 58.9925 53.16 58.5019 53.16C57.5739 53.16 56.8112 52.8613 56.2139 52.264C55.6272 51.6667 55.3339 50.8987 55.3339 49.96V44.856H56.9339ZM67.02 53.144C66.1347 53.144 65.4147 52.9147 64.86 52.456C64.3053 51.9973 64.028 51.4 64.028 50.664C64.028 49.896 64.3213 49.2933 64.908 48.856C65.4947 48.408 66.3 48.184 67.324 48.184C67.7187 48.184 68.1027 48.2267 68.476 48.312C68.8493 48.3867 69.2067 48.4933 69.548 48.632V47.768C69.548 47.192 69.3773 46.76 69.036 46.472C68.6947 46.184 68.204 46.04 67.564 46.04C67.1907 46.04 66.8013 46.0987 66.396 46.216C65.9907 46.3227 65.5373 46.4933 65.036 46.728L64.444 45.528C65.052 45.24 65.628 45.032 66.172 44.904C66.716 44.7653 67.2547 44.696 67.788 44.696C68.844 44.696 69.66 44.952 70.236 45.464C70.8227 45.9653 71.116 46.68 71.116 47.608V53H69.548V52.296C69.1853 52.584 68.796 52.7973 68.38 52.936C67.964 53.0747 67.5107 53.144 67.02 53.144ZM65.564 50.632C65.564 51.0267 65.7293 51.3467 66.06 51.592C66.4013 51.8373 66.844 51.96 67.388 51.96C67.8147 51.96 68.2093 51.896 68.572 51.768C68.9347 51.64 69.26 51.448 69.548 51.192V49.784C69.2387 49.6133 68.9133 49.4907 68.572 49.416C68.2307 49.3307 67.8573 49.288 67.452 49.288C66.876 49.288 66.4173 49.4107 66.076 49.656C65.7347 49.9013 65.564 50.2267 65.564 50.632ZM72.1916 51.944L73.0556 50.888C73.4823 51.2187 73.9143 51.4747 74.3516 51.656C74.7996 51.8267 75.253 51.912 75.7116 51.912C76.2876 51.912 76.757 51.8 77.1196 51.576C77.4823 51.352 77.6636 51.0587 77.6636 50.696C77.6636 50.408 77.557 50.1787 77.3436 50.008C77.1303 49.8373 76.7996 49.72 76.3516 49.656L74.8796 49.448C74.0796 49.3307 73.4716 49.0853 73.0556 48.712C72.6503 48.328 72.4476 47.8213 72.4476 47.192C72.4476 46.456 72.741 45.864 73.3276 45.416C73.9143 44.9573 74.6823 44.728 75.6316 44.728C76.229 44.728 76.7943 44.8133 77.3276 44.984C77.8716 45.1547 78.3996 45.416 78.9116 45.768L78.0956 46.824C77.6476 46.5253 77.2103 46.312 76.7836 46.184C76.3676 46.0453 75.9463 45.976 75.5196 45.976C75.029 45.976 74.6343 46.0773 74.3356 46.28C74.037 46.4827 73.8876 46.7493 73.8876 47.08C73.8876 47.3787 73.989 47.608 74.1916 47.768C74.405 47.9173 74.7516 48.0293 75.2316 48.104L76.7036 48.312C77.5036 48.4293 78.1116 48.68 78.5276 49.064C78.9543 49.448 79.1676 49.9547 79.1676 50.584C79.1676 50.9467 79.077 51.288 78.8956 51.608C78.725 51.9173 78.485 52.184 78.1756 52.408C77.877 52.632 77.5196 52.8133 77.1036 52.952C76.6876 53.08 76.2396 53.144 75.7596 53.144C75.0556 53.144 74.3943 53.0427 73.7756 52.84C73.1676 52.6373 72.6396 52.3387 72.1916 51.944ZM83.7409 53V44.856H85.3409V45.896C85.5862 45.5013 85.9009 45.2027 86.2849 45C86.6689 44.7867 87.1009 44.68 87.5809 44.68C87.7515 44.68 87.9009 44.6907 88.0289 44.712C88.1569 44.7333 88.2795 44.7653 88.3969 44.808V46.248C88.2475 46.1947 88.0929 46.152 87.9329 46.12C87.7729 46.088 87.6129 46.072 87.4529 46.072C86.9835 46.072 86.5622 46.2 86.1889 46.456C85.8262 46.7013 85.5435 47.0693 85.3409 47.56V53H83.7409ZM96.2344 52.072C95.765 52.4347 95.2744 52.7067 94.7624 52.888C94.2504 53.0587 93.6904 53.144 93.0824 53.144C92.485 53.144 91.925 53.0373 91.4024 52.824C90.8797 52.6 90.4264 52.3013 90.0424 51.928C89.6584 51.5547 89.3544 51.112 89.1304 50.6C88.917 50.0773 88.8104 49.5173 88.8104 48.92C88.8104 48.3333 88.917 47.784 89.1304 47.272C89.3437 46.76 89.6317 46.3173 89.9944 45.944C90.357 45.5707 90.789 45.2773 91.2904 45.064C91.7917 44.84 92.325 44.728 92.8904 44.728C93.445 44.728 93.9624 44.84 94.4424 45.064C94.933 45.2773 95.349 45.576 95.6904 45.96C96.0424 46.3333 96.3197 46.7813 96.5224 47.304C96.725 47.8267 96.8264 48.3867 96.8264 48.984V49.448H90.3944C90.501 50.12 90.8104 50.68 91.3224 51.128C91.8344 51.5653 92.4424 51.784 93.1464 51.784C93.541 51.784 93.9197 51.72 94.2824 51.592C94.645 51.464 94.9544 51.288 95.2104 51.064L96.2344 52.072ZM92.8584 46.072C92.2504 46.072 91.717 46.2747 91.2584 46.68C90.8104 47.0853 90.5277 47.608 90.4104 48.248H95.2424C95.125 47.6293 94.8424 47.112 94.3944 46.696C93.957 46.28 93.445 46.072 92.8584 46.072ZM97.6604 51.944L98.5244 50.888C98.951 51.2187 99.383 51.4747 99.8204 51.656C100.268 51.8267 100.722 51.912 101.18 51.912C101.756 51.912 102.226 51.8 102.588 51.576C102.951 51.352 103.132 51.0587 103.132 50.696C103.132 50.408 103.026 50.1787 102.812 50.008C102.599 49.8373 102.268 49.72 101.82 49.656L100.348 49.448C99.5484 49.3307 98.9404 49.0853 98.5244 48.712C98.119 48.328 97.9164 47.8213 97.9164 47.192C97.9164 46.456 98.2097 45.864 98.7964 45.416C99.383 44.9573 100.151 44.728 101.1 44.728C101.698 44.728 102.263 44.8133 102.796 44.984C103.34 45.1547 103.868 45.416 104.38 45.768L103.564 46.824C103.116 46.5253 102.679 46.312 102.252 46.184C101.836 46.0453 101.415 45.976 100.988 45.976C100.498 45.976 100.103 46.0773 99.8044 46.28C99.5057 46.4827 99.3564 46.7493 99.3564 47.08C99.3564 47.3787 99.4577 47.608 99.6604 47.768C99.8737 47.9173 100.22 48.0293 100.7 48.104L102.172 48.312C102.972 48.4293 103.58 48.68 103.996 49.064C104.423 49.448 104.636 49.9547 104.636 50.584C104.636 50.9467 104.546 51.288 104.364 51.608C104.194 51.9173 103.954 52.184 103.644 52.408C103.346 52.632 102.988 52.8133 102.572 52.952C102.156 53.08 101.708 53.144 101.228 53.144C100.524 53.144 99.863 53.0427 99.2444 52.84C98.6364 52.6373 98.1084 52.3387 97.6604 51.944ZM106.666 43.544C106.399 43.544 106.17 43.448 105.978 43.256C105.786 43.0533 105.69 42.8187 105.69 42.552C105.69 42.2853 105.786 42.056 105.978 41.864C106.17 41.6613 106.399 41.56 106.666 41.56C106.933 41.56 107.162 41.6613 107.354 41.864C107.557 42.056 107.658 42.2853 107.658 42.552C107.658 42.8187 107.557 43.0533 107.354 43.256C107.162 43.448 106.933 43.544 106.666 43.544ZM107.466 44.856V53H105.866V44.856H107.466ZM115.59 53V52.232C115.249 52.52 114.865 52.744 114.438 52.904C114.012 53.0533 113.564 53.128 113.094 53.128C112.518 53.128 111.98 53.0213 111.478 52.808C110.977 52.584 110.54 52.2853 110.166 51.912C109.804 51.5387 109.516 51.096 109.302 50.584C109.089 50.0613 108.982 49.5067 108.982 48.92C108.982 48.3333 109.089 47.784 109.302 47.272C109.516 46.76 109.804 46.3173 110.166 45.944C110.54 45.5707 110.982 45.2773 111.494 45.064C112.006 44.84 112.55 44.728 113.126 44.728C113.574 44.728 114.006 44.7973 114.422 44.936C114.838 45.0747 115.222 45.272 115.574 45.528V41.8L117.174 41.448V53H115.59ZM110.55 48.904C110.55 49.704 110.817 50.376 111.35 50.92C111.884 51.464 112.54 51.736 113.318 51.736C113.777 51.736 114.198 51.6507 114.582 51.48C114.977 51.3093 115.308 51.0693 115.574 50.76V47.064C115.308 46.7653 114.977 46.5307 114.582 46.36C114.188 46.1893 113.766 46.104 113.318 46.104C112.54 46.104 111.884 46.3707 111.35 46.904C110.817 47.4373 110.55 48.104 110.55 48.904ZM120.637 44.856V49.688C120.637 50.328 120.818 50.8347 121.181 51.208C121.554 51.5813 122.045 51.768 122.653 51.768C123.08 51.768 123.464 51.6773 123.805 51.496C124.146 51.304 124.429 51.0373 124.653 50.696V44.856H126.253V53H124.653V52.184C124.333 52.504 123.965 52.7493 123.549 52.92C123.144 53.08 122.696 53.16 122.205 53.16C121.277 53.16 120.514 52.8613 119.917 52.264C119.33 51.6667 119.037 50.8987 119.037 49.96V44.856H120.637ZM130.723 53.144C129.838 53.144 129.118 52.9147 128.563 52.456C128.008 51.9973 127.731 51.4 127.731 50.664C127.731 49.896 128.024 49.2933 128.611 48.856C129.198 48.408 130.003 48.184 131.027 48.184C131.422 48.184 131.806 48.2267 132.179 48.312C132.552 48.3867 132.91 48.4933 133.251 48.632V47.768C133.251 47.192 133.08 46.76 132.739 46.472C132.398 46.184 131.907 46.04 131.267 46.04C130.894 46.04 130.504 46.0987 130.099 46.216C129.694 46.3227 129.24 46.4933 128.739 46.728L128.147 45.528C128.755 45.24 129.331 45.032 129.875 44.904C130.419 44.7653 130.958 44.696 131.491 44.696C132.547 44.696 133.363 44.952 133.939 45.464C134.526 45.9653 134.819 46.68 134.819 47.608V53H133.251V52.296C132.888 52.584 132.499 52.7973 132.083 52.936C131.667 53.0747 131.214 53.144 130.723 53.144ZM129.267 50.632C129.267 51.0267 129.432 51.3467 129.763 51.592C130.104 51.8373 130.547 51.96 131.091 51.96C131.518 51.96 131.912 51.896 132.275 51.768C132.638 51.64 132.963 51.448 133.251 51.192V49.784C132.942 49.6133 132.616 49.4907 132.275 49.416C131.934 49.3307 131.56 49.288 131.155 49.288C130.579 49.288 130.12 49.4107 129.779 49.656C129.438 49.9013 129.267 50.2267 129.267 50.632ZM138.263 41.448V53H136.663V41.8L138.263 41.448ZM147.203 52.072C146.734 52.4347 146.243 52.7067 145.731 52.888C145.219 53.0587 144.659 53.144 144.051 53.144C143.454 53.144 142.894 53.0373 142.371 52.824C141.848 52.6 141.395 52.3013 141.011 51.928C140.627 51.5547 140.323 51.112 140.099 50.6C139.886 50.0773 139.779 49.5173 139.779 48.92C139.779 48.3333 139.886 47.784 140.099 47.272C140.312 46.76 140.6 46.3173 140.963 45.944C141.326 45.5707 141.758 45.2773 142.259 45.064C142.76 44.84 143.294 44.728 143.859 44.728C144.414 44.728 144.931 44.84 145.411 45.064C145.902 45.2773 146.318 45.576 146.659 45.96C147.011 46.3333 147.288 46.7813 147.491 47.304C147.694 47.8267 147.795 48.3867 147.795 48.984V49.448H141.363C141.47 50.12 141.779 50.68 142.291 51.128C142.803 51.5653 143.411 51.784 144.115 51.784C144.51 51.784 144.888 51.72 145.251 51.592C145.614 51.464 145.923 51.288 146.179 51.064L147.203 52.072ZM143.827 46.072C143.219 46.072 142.686 46.2747 142.227 46.68C141.779 47.0853 141.496 47.608 141.379 48.248H146.211C146.094 47.6293 145.811 47.112 145.363 46.696C144.926 46.28 144.414 46.072 143.827 46.072ZM148.629 51.944L149.493 50.888C149.92 51.2187 150.352 51.4747 150.789 51.656C151.237 51.8267 151.69 51.912 152.149 51.912C152.725 51.912 153.194 51.8 153.557 51.576C153.92 51.352 154.101 51.0587 154.101 50.696C154.101 50.408 153.994 50.1787 153.781 50.008C153.568 49.8373 153.237 49.72 152.789 49.656L151.317 49.448C150.517 49.3307 149.909 49.0853 149.493 48.712C149.088 48.328 148.885 47.8213 148.885 47.192C148.885 46.456 149.178 45.864 149.765 45.416C150.352 44.9573 151.12 44.728 152.069 44.728C152.666 44.728 153.232 44.8133 153.765 44.984C154.309 45.1547 154.837 45.416 155.349 45.768L154.533 46.824C154.085 46.5253 153.648 46.312 153.221 46.184C152.805 46.0453 152.384 45.976 151.957 45.976C151.466 45.976 151.072 46.0773 150.773 46.28C150.474 46.4827 150.325 46.7493 150.325 47.08C150.325 47.3787 150.426 47.608 150.629 47.768C150.842 47.9173 151.189 48.0293 151.669 48.104L153.141 48.312C153.941 48.4293 154.549 48.68 154.965 49.064C155.392 49.448 155.605 49.9547 155.605 50.584C155.605 50.9467 155.514 51.288 155.333 51.608C155.162 51.9173 154.922 52.184 154.613 52.408C154.314 52.632 153.957 52.8133 153.541 52.952C153.125 53.08 152.677 53.144 152.197 53.144C151.493 53.144 150.832 53.0427 150.213 52.84C149.605 52.6373 149.077 52.3387 148.629 51.944Z" fill="white"/>
<path d="M35.136 91V79.8H40.224C41.3333 79.8 42.2293 80.1093 42.912 80.728C43.6053 81.336 43.952 82.1307 43.952 83.112C43.952 83.848 43.744 84.488 43.328 85.032C42.912 85.5653 42.352 85.9493 41.648 86.184L44.144 91H42.288L39.968 86.408H36.816V91H35.136ZM40.08 81.272H36.816V85.016H40.08C40.7307 85.016 41.2533 84.8453 41.648 84.504C42.0533 84.152 42.256 83.6987 42.256 83.144C42.256 82.5787 42.0533 82.1253 41.648 81.784C41.2533 81.4427 40.7307 81.272 40.08 81.272ZM52.0625 90.072C51.5932 90.4347 51.1025 90.7067 50.5905 90.888C50.0785 91.0587 49.5185 91.144 48.9105 91.144C48.3132 91.144 47.7532 91.0373 47.2305 90.824C46.7078 90.6 46.2545 90.3013 45.8705 89.928C45.4865 89.5547 45.1825 89.112 44.9585 88.6C44.7452 88.0773 44.6385 87.5173 44.6385 86.92C44.6385 86.3333 44.7452 85.784 44.9585 85.272C45.1718 84.76 45.4598 84.3173 45.8225 83.944C46.1852 83.5707 46.6172 83.2773 47.1185 83.064C47.6198 82.84 48.1532 82.728 48.7185 82.728C49.2732 82.728 49.7905 82.84 50.2705 83.064C50.7612 83.2773 51.1772 83.576 51.5185 83.96C51.8705 84.3333 52.1478 84.7813 52.3505 85.304C52.5532 85.8267 52.6545 86.3867 52.6545 86.984V87.448H46.2225C46.3292 88.12 46.6385 88.68 47.1505 89.128C47.6625 89.5653 48.2705 89.784 48.9745 89.784C49.3692 89.784 49.7478 89.72 50.1105 89.592C50.4732 89.464 50.7825 89.288 51.0385 89.064L52.0625 90.072ZM48.6865 84.072C48.0785 84.072 47.5452 84.2747 47.0865 84.68C46.6385 85.0853 46.3558 85.608 46.2385 86.248H51.0705C50.9532 85.6293 50.6705 85.112 50.2225 84.696C49.7852 84.28 49.2732 84.072 48.6865 84.072ZM53.4885 89.944L54.3525 88.888C54.7792 89.2187 55.2112 89.4747 55.6485 89.656C56.0965 89.8267 56.5498 89.912 57.0085 89.912C57.5845 89.912 58.0538 89.8 58.4165 89.576C58.7792 89.352 58.9605 89.0587 58.9605 88.696C58.9605 88.408 58.8538 88.1787 58.6405 88.008C58.4272 87.8373 58.0965 87.72 57.6485 87.656L56.1765 87.448C55.3765 87.3307 54.7685 87.0853 54.3525 86.712C53.9472 86.328 53.7445 85.8213 53.7445 85.192C53.7445 84.456 54.0378 83.864 54.6245 83.416C55.2112 82.9573 55.9792 82.728 56.9285 82.728C57.5258 82.728 58.0912 82.8133 58.6245 82.984C59.1685 83.1547 59.6965 83.416 60.2085 83.768L59.3925 84.824C58.9445 84.5253 58.5072 84.312 58.0805 84.184C57.6645 84.0453 57.2432 83.976 56.8165 83.976C56.3258 83.976 55.9312 84.0773 55.6325 84.28C55.3338 84.4827 55.1845 84.7493 55.1845 85.08C55.1845 85.3787 55.2858 85.608 55.4885 85.768C55.7018 85.9173 56.0485 86.0293 56.5285 86.104L58.0005 86.312C58.8005 86.4293 59.4085 86.68 59.8245 87.064C60.2512 87.448 60.4645 87.9547 60.4645 88.584C60.4645 88.9467 60.3738 89.288 60.1925 89.608C60.0218 89.9173 59.7818 90.184 59.4725 90.408C59.1738 90.632 58.8165 90.8133 58.4005 90.952C57.9845 91.08 57.5365 91.144 57.0565 91.144C56.3525 91.144 55.6912 91.0427 55.0725 90.84C54.4645 90.6373 53.9365 90.3387 53.4885 89.944ZM62.494 81.544C62.2273 81.544 61.998 81.448 61.806 81.256C61.614 81.0533 61.518 80.8187 61.518 80.552C61.518 80.2853 61.614 80.056 61.806 79.864C61.998 79.6613 62.2273 79.56 62.494 79.56C62.7607 79.56 62.99 79.6613 63.182 79.864C63.3847 80.056 63.486 80.2853 63.486 80.552C63.486 80.8187 63.3847 81.0533 63.182 81.256C62.99 81.448 62.7607 81.544 62.494 81.544ZM63.294 82.856V91H61.694V82.856H63.294ZM71.4184 91V90.232C71.077 90.52 70.693 90.744 70.2664 90.904C69.8397 91.0533 69.3917 91.128 68.9224 91.128C68.3464 91.128 67.8077 91.0213 67.3064 90.808C66.805 90.584 66.3677 90.2853 65.9944 89.912C65.6317 89.5387 65.3437 89.096 65.1304 88.584C64.917 88.0613 64.8104 87.5067 64.8104 86.92C64.8104 86.3333 64.917 85.784 65.1304 85.272C65.3437 84.76 65.6317 84.3173 65.9944 83.944C66.3677 83.5707 66.8104 83.2773 67.3224 83.064C67.8344 82.84 68.3784 82.728 68.9544 82.728C69.4024 82.728 69.8344 82.7973 70.2504 82.936C70.6664 83.0747 71.0504 83.272 71.4024 83.528V79.8L73.0024 79.448V91H71.4184ZM66.3784 86.904C66.3784 87.704 66.645 88.376 67.1784 88.92C67.7117 89.464 68.3677 89.736 69.1464 89.736C69.605 89.736 70.0264 89.6507 70.4104 89.48C70.805 89.3093 71.1357 89.0693 71.4024 88.76V85.064C71.1357 84.7653 70.805 84.5307 70.4104 84.36C70.0157 84.1893 69.5944 84.104 69.1464 84.104C68.3677 84.104 67.7117 84.3707 67.1784 84.904C66.645 85.4373 66.3784 86.104 66.3784 86.904ZM76.4651 82.856V87.688C76.4651 88.328 76.6465 88.8347 77.0091 89.208C77.3825 89.5813 77.8731 89.768 78.4811 89.768C78.9078 89.768 79.2918 89.6773 79.6331 89.496C79.9745 89.304 80.2571 89.0373 80.4811 88.696V82.856H82.0811V91H80.4811V90.184C80.1611 90.504 79.7931 90.7493 79.3771 90.92C78.9718 91.08 78.5238 91.16 78.0331 91.16C77.1051 91.16 76.3425 90.8613 75.7451 90.264C75.1585 89.6667 74.8651 88.8987 74.8651 87.96V82.856H76.4651ZM83.6073 86.92C83.6073 86.3333 83.7139 85.784 83.9273 85.272C84.1513 84.7493 84.4553 84.3013 84.8393 83.928C85.2233 83.544 85.6713 83.2453 86.1833 83.032C86.7059 82.808 87.2606 82.696 87.8473 82.696C88.4339 82.696 88.9833 82.808 89.4953 83.032C90.0179 83.2453 90.4659 83.544 90.8393 83.928C91.2233 84.3013 91.5219 84.7493 91.7353 85.272C91.9593 85.784 92.0712 86.3333 92.0712 86.92C92.0712 87.5173 91.9593 88.0773 91.7353 88.6C91.5219 89.112 91.2233 89.56 90.8393 89.944C90.4659 90.3173 90.0179 90.616 89.4953 90.84C88.9833 91.0533 88.4339 91.16 87.8473 91.16C87.2606 91.16 86.7059 91.0533 86.1833 90.84C85.6713 90.616 85.2233 90.3173 84.8393 89.944C84.4553 89.56 84.1513 89.112 83.9273 88.6C83.7139 88.0773 83.6073 87.5173 83.6073 86.92ZM87.8473 89.752C88.5833 89.752 89.2073 89.48 89.7193 88.936C90.2419 88.3813 90.5033 87.7093 90.5033 86.92C90.5033 86.1307 90.2419 85.464 89.7193 84.92C89.2073 84.376 88.5833 84.104 87.8473 84.104C87.1113 84.104 86.4819 84.376 85.9593 84.92C85.4366 85.464 85.1753 86.1307 85.1753 86.92C85.1753 87.7093 85.4313 88.3813 85.9433 88.936C86.4659 89.48 87.1006 89.752 87.8473 89.752ZM92.8166 89.944L93.6806 88.888C94.1073 89.2187 94.5393 89.4747 94.9766 89.656C95.4246 89.8267 95.878 89.912 96.3366 89.912C96.9126 89.912 97.382 89.8 97.7446 89.576C98.1073 89.352 98.2886 89.0587 98.2886 88.696C98.2886 88.408 98.182 88.1787 97.9686 88.008C97.7553 87.8373 97.4246 87.72 96.9766 87.656L95.5046 87.448C94.7046 87.3307 94.0966 87.0853 93.6806 86.712C93.2753 86.328 93.0726 85.8213 93.0726 85.192C93.0726 84.456 93.366 83.864 93.9526 83.416C94.5393 82.9573 95.3073 82.728 96.2566 82.728C96.854 82.728 97.4193 82.8133 97.9526 82.984C98.4966 83.1547 99.0246 83.416 99.5366 83.768L98.7206 84.824C98.2726 84.5253 97.8353 84.312 97.4086 84.184C96.9926 84.0453 96.5713 83.976 96.1446 83.976C95.654 83.976 95.2593 84.0773 94.9606 84.28C94.662 84.4827 94.5126 84.7493 94.5126 85.08C94.5126 85.3787 94.614 85.608 94.8166 85.768C95.03 85.9173 95.3766 86.0293 95.8566 86.104L97.3286 86.312C98.1286 86.4293 98.7366 86.68 99.1526 87.064C99.5793 87.448 99.7926 87.9547 99.7926 88.584C99.7926 88.9467 99.702 89.288 99.5206 89.608C99.35 89.9173 99.11 90.184 98.8006 90.408C98.502 90.632 98.1446 90.8133 97.7286 90.952C97.3126 91.08 96.8646 91.144 96.3846 91.144C95.6806 91.144 95.0193 91.0427 94.4006 90.84C93.7926 90.6373 93.2646 90.3387 92.8166 89.944ZM103.598 89.944L104.462 88.888C104.889 89.2187 105.321 89.4747 105.758 89.656C106.206 89.8267 106.659 89.912 107.118 89.912C107.694 89.912 108.163 89.8 108.526 89.576C108.889 89.352 109.07 89.0587 109.07 88.696C109.07 88.408 108.963 88.1787 108.75 88.008C108.537 87.8373 108.206 87.72 107.758 87.656L106.286 87.448C105.486 87.3307 104.878 87.0853 104.462 86.712C104.057 86.328 103.854 85.8213 103.854 85.192C103.854 84.456 104.147 83.864 104.734 83.416C105.321 82.9573 106.089 82.728 107.038 82.728C107.635 82.728 108.201 82.8133 108.734 82.984C109.278 83.1547 109.806 83.416 110.318 83.768L109.502 84.824C109.054 84.5253 108.617 84.312 108.19 84.184C107.774 84.0453 107.353 83.976 106.926 83.976C106.435 83.976 106.041 84.0773 105.742 84.28C105.443 84.4827 105.294 84.7493 105.294 85.08C105.294 85.3787 105.395 85.608 105.598 85.768C105.811 85.9173 106.158 86.0293 106.638 86.104L108.11 86.312C108.91 86.4293 109.518 86.68 109.934 87.064C110.361 87.448 110.574 87.9547 110.574 88.584C110.574 88.9467 110.483 89.288 110.302 89.608C110.131 89.9173 109.891 90.184 109.582 90.408C109.283 90.632 108.926 90.8133 108.51 90.952C108.094 91.08 107.646 91.144 107.166 91.144C106.462 91.144 105.801 91.0427 105.182 90.84C104.574 90.6373 104.046 90.3387 103.598 89.944ZM111.514 86.92C111.514 86.3333 111.62 85.784 111.834 85.272C112.058 84.7493 112.362 84.3013 112.746 83.928C113.13 83.544 113.578 83.2453 114.09 83.032C114.612 82.808 115.167 82.696 115.754 82.696C116.34 82.696 116.89 82.808 117.402 83.032C117.924 83.2453 118.372 83.544 118.746 83.928C119.13 84.3013 119.428 84.7493 119.642 85.272C119.866 85.784 119.977 86.3333 119.977 86.92C119.977 87.5173 119.866 88.0773 119.642 88.6C119.428 89.112 119.13 89.56 118.746 89.944C118.372 90.3173 117.924 90.616 117.402 90.84C116.89 91.0533 116.34 91.16 115.754 91.16C115.167 91.16 114.612 91.0533 114.09 90.84C113.578 90.616 113.13 90.3173 112.746 89.944C112.362 89.56 112.058 89.112 111.834 88.6C111.62 88.0773 111.514 87.5173 111.514 86.92ZM115.754 89.752C116.49 89.752 117.114 89.48 117.626 88.936C118.148 88.3813 118.41 87.7093 118.41 86.92C118.41 86.1307 118.148 85.464 117.626 84.92C117.114 84.376 116.49 84.104 115.754 84.104C115.018 84.104 114.388 84.376 113.866 84.92C113.343 85.464 113.082 86.1307 113.082 86.92C113.082 87.7093 113.338 88.3813 113.85 88.936C114.372 89.48 115.007 89.752 115.754 89.752ZM116.266 79.4H118.186L116.138 81.352H114.794L116.266 79.4ZM123.091 79.448V91H121.491V79.8L123.091 79.448ZM125.775 81.544C125.509 81.544 125.279 81.448 125.087 81.256C124.895 81.0533 124.799 80.8187 124.799 80.552C124.799 80.2853 124.895 80.056 125.087 79.864C125.279 79.6613 125.509 79.56 125.775 79.56C126.042 79.56 126.271 79.6613 126.463 79.864C126.666 80.056 126.767 80.2853 126.767 80.552C126.767 80.8187 126.666 81.0533 126.463 81.256C126.271 81.448 126.042 81.544 125.775 81.544ZM126.575 82.856V91H124.975V82.856H126.575ZM134.7 91V90.232C134.358 90.52 133.974 90.744 133.548 90.904C133.121 91.0533 132.673 91.128 132.204 91.128C131.628 91.128 131.089 91.0213 130.588 90.808C130.086 90.584 129.649 90.2853 129.276 89.912C128.913 89.5387 128.625 89.096 128.412 88.584C128.198 88.0613 128.092 87.5067 128.092 86.92C128.092 86.3333 128.198 85.784 128.412 85.272C128.625 84.76 128.913 84.3173 129.276 83.944C129.649 83.5707 130.092 83.2773 130.604 83.064C131.116 82.84 131.66 82.728 132.236 82.728C132.684 82.728 133.116 82.7973 133.532 82.936C133.948 83.0747 134.332 83.272 134.684 83.528V79.8L136.284 79.448V91H134.7ZM129.66 86.904C129.66 87.704 129.926 88.376 130.46 88.92C130.993 89.464 131.649 89.736 132.428 89.736C132.886 89.736 133.308 89.6507 133.692 89.48C134.086 89.3093 134.417 89.0693 134.684 88.76V85.064C134.417 84.7653 134.086 84.5307 133.692 84.36C133.297 84.1893 132.876 84.104 132.428 84.104C131.649 84.104 130.993 84.3707 130.46 84.904C129.926 85.4373 129.66 86.104 129.66 86.904ZM137.81 86.92C137.81 86.3333 137.917 85.784 138.13 85.272C138.354 84.7493 138.658 84.3013 139.042 83.928C139.426 83.544 139.874 83.2453 140.386 83.032C140.909 82.808 141.464 82.696 142.05 82.696C142.637 82.696 143.186 82.808 143.698 83.032C144.221 83.2453 144.669 83.544 145.042 83.928C145.426 84.3013 145.725 84.7493 145.938 85.272C146.162 85.784 146.274 86.3333 146.274 86.92C146.274 87.5173 146.162 88.0773 145.938 88.6C145.725 89.112 145.426 89.56 145.042 89.944C144.669 90.3173 144.221 90.616 143.698 90.84C143.186 91.0533 142.637 91.16 142.05 91.16C141.464 91.16 140.909 91.0533 140.386 90.84C139.874 90.616 139.426 90.3173 139.042 89.944C138.658 89.56 138.354 89.112 138.13 88.6C137.917 88.0773 137.81 87.5173 137.81 86.92ZM142.05 89.752C142.786 89.752 143.41 89.48 143.922 88.936C144.445 88.3813 144.706 87.7093 144.706 86.92C144.706 86.1307 144.445 85.464 143.922 84.92C143.41 84.376 142.786 84.104 142.05 84.104C141.314 84.104 140.685 84.376 140.162 84.92C139.64 85.464 139.378 86.1307 139.378 86.92C139.378 87.7093 139.634 88.3813 140.146 88.936C140.669 89.48 141.304 89.752 142.05 89.752ZM147.02 89.944L147.884 88.888C148.31 89.2187 148.742 89.4747 149.18 89.656C149.628 89.8267 150.081 89.912 150.54 89.912C151.116 89.912 151.585 89.8 151.948 89.576C152.31 89.352 152.492 89.0587 152.492 88.696C152.492 88.408 152.385 88.1787 152.172 88.008C151.958 87.8373 151.628 87.72 151.18 87.656L149.708 87.448C148.908 87.3307 148.3 87.0853 147.884 86.712C147.478 86.328 147.276 85.8213 147.276 85.192C147.276 84.456 147.569 83.864 148.156 83.416C148.742 82.9573 149.51 82.728 150.46 82.728C151.057 82.728 151.622 82.8133 152.156 82.984C152.7 83.1547 153.228 83.416 153.74 83.768L152.924 84.824C152.476 84.5253 152.038 84.312 151.612 84.184C151.196 84.0453 150.774 83.976 150.348 83.976C149.857 83.976 149.462 84.0773 149.164 84.28C148.865 84.4827 148.716 84.7493 148.716 85.08C148.716 85.3787 148.817 85.608 149.02 85.768C149.233 85.9173 149.58 86.0293 150.06 86.104L151.532 86.312C152.332 86.4293 152.94 86.68 153.356 87.064C153.782 87.448 153.996 87.9547 153.996 88.584C153.996 88.9467 153.905 89.288 153.724 89.608C153.553 89.9173 153.313 90.184 153.004 90.408C152.705 90.632 152.348 90.8133 151.932 90.952C151.516 91.08 151.068 91.144 150.588 91.144C149.884 91.144 149.222 91.0427 148.604 90.84C147.996 90.6373 147.468 90.3387 147.02 89.944Z" fill="white"/>
<ellipse cx="10" cy="81" rx="10" ry="11" fill="#67E5EE"/>
<ellipse cx="10" cy="45.5" rx="10" ry="11.5" fill="#FDEEC7"/>
<ellipse cx="10" cy="11" rx="10" ry="11" fill="#9F3EDA"/>
</svg>
