<svg width="450" height="209" viewBox="0 0 450 209" fill="none" xmlns="http://www.w3.org/2000/svg">
<path d="M46.2741 18V5.4H48.1641V18H46.2741ZM50.5229 18V8.838H52.3229V9.756C52.6829 9.396 53.0909 9.126 53.5469 8.946C54.0149 8.754 54.5249 8.658 55.0769 8.658C56.1209 8.658 56.9789 8.994 57.6509 9.666C58.3229 10.326 58.6589 11.184 58.6589 12.24V18H56.8589V12.546C56.8589 11.826 56.6489 11.262 56.2289 10.854C55.8209 10.434 55.2749 10.224 54.5909 10.224C54.1109 10.224 53.6729 10.326 53.2769 10.53C52.8929 10.734 52.5749 11.028 52.3229 11.412V18H50.5229ZM67.7558 18V17.136C67.3718 17.46 66.9398 17.712 66.4598 17.892C65.9798 18.06 65.4758 18.144 64.9478 18.144C64.2998 18.144 63.6938 18.024 63.1298 17.784C62.5658 17.532 62.0738 17.196 61.6538 16.776C61.2458 16.356 60.9218 15.858 60.6818 15.282C60.4418 14.694 60.3218 14.07 60.3218 13.41C60.3218 12.75 60.4418 12.132 60.6818 11.556C60.9218 10.98 61.2458 10.482 61.6538 10.062C62.0738 9.642 62.5718 9.312 63.1478 9.072C63.7238 8.82 64.3358 8.694 64.9838 8.694C65.4878 8.694 65.9738 8.772 66.4418 8.928C66.9098 9.084 67.3418 9.306 67.7378 9.594V5.4L69.5378 5.004V18H67.7558ZM62.0858 13.392C62.0858 14.292 62.3858 15.048 62.9858 15.66C63.5858 16.272 64.3238 16.578 65.1998 16.578C65.7158 16.578 66.1898 16.482 66.6218 16.29C67.0658 16.098 67.4378 15.828 67.7378 15.48V11.322C67.4378 10.986 67.0658 10.722 66.6218 10.53C66.1778 10.338 65.7038 10.242 65.1998 10.242C64.3238 10.242 63.5858 10.542 62.9858 11.142C62.3858 11.742 62.0858 12.492 62.0858 13.392ZM73.4334 8.838V14.274C73.4334 14.994 73.6374 15.564 74.0454 15.984C74.4654 16.404 75.0174 16.614 75.7014 16.614C76.1814 16.614 76.6134 16.512 76.9974 16.308C77.3814 16.092 77.6994 15.792 77.9514 15.408V8.838H79.7514V18H77.9514V17.082C77.5914 17.442 77.1774 17.718 76.7094 17.91C76.2534 18.09 75.7494 18.18 75.1974 18.18C74.1534 18.18 73.2954 17.844 72.6234 17.172C71.9634 16.5 71.6334 15.636 71.6334 14.58V8.838H73.4334ZM81.0183 16.812L81.9903 15.624C82.4703 15.996 82.9563 16.284 83.4483 16.488C83.9523 16.68 84.4623 16.776 84.9783 16.776C85.6263 16.776 86.1543 16.65 86.5623 16.398C86.9703 16.146 87.1743 15.816 87.1743 15.408C87.1743 15.084 87.0543 14.826 86.8143 14.634C86.5743 14.442 86.2023 14.31 85.6983 14.238L84.0423 14.004C83.1423 13.872 82.4583 13.596 81.9903 13.176C81.5343 12.744 81.3063 12.174 81.3063 11.466C81.3063 10.638 81.6363 9.972 82.2963 9.468C82.9563 8.952 83.8203 8.694 84.8883 8.694C85.5603 8.694 86.1963 8.79 86.7963 8.982C87.4083 9.174 88.0023 9.468 88.5783 9.864L87.6603 11.052C87.1563 10.716 86.6643 10.476 86.1843 10.332C85.7163 10.176 85.2423 10.098 84.7623 10.098C84.2103 10.098 83.7663 10.212 83.4303 10.44C83.0943 10.668 82.9263 10.968 82.9263 11.34C82.9263 11.676 83.0403 11.934 83.2683 12.114C83.5083 12.282 83.8983 12.408 84.4383 12.492L86.0943 12.726C86.9943 12.858 87.6783 13.14 88.1463 13.572C88.6263 14.004 88.8663 14.574 88.8663 15.282C88.8663 15.69 88.7643 16.074 88.5603 16.434C88.3683 16.782 88.0983 17.082 87.7503 17.334C87.4143 17.586 87.0123 17.79 86.5443 17.946C86.0763 18.09 85.5723 18.162 85.0323 18.162C84.2403 18.162 83.4963 18.048 82.8003 17.82C82.1163 17.592 81.5223 17.256 81.0183 16.812ZM91.2617 15.732V10.35H89.3177V8.838H91.2617V6.498L93.0437 6.066V8.838H95.7437V10.35H93.0437V15.318C93.0437 15.786 93.1457 16.116 93.3497 16.308C93.5657 16.5 93.9137 16.596 94.3937 16.596C94.6457 16.596 94.8677 16.584 95.0597 16.56C95.2637 16.524 95.4797 16.464 95.7077 16.38V17.892C95.4677 17.976 95.1857 18.042 94.8617 18.09C94.5497 18.138 94.2617 18.162 93.9977 18.162C93.1097 18.162 92.4317 17.958 91.9637 17.55C91.4957 17.13 91.2617 16.524 91.2617 15.732ZM97.0698 18V8.838H98.8698V10.008C99.1458 9.564 99.4998 9.228 99.9318 9C100.364 8.76 100.85 8.64 101.39 8.64C101.582 8.64 101.75 8.652 101.894 8.676C102.038 8.7 102.176 8.736 102.308 8.784V10.404C102.14 10.344 101.966 10.296 101.786 10.26C101.606 10.224 101.426 10.206 101.246 10.206C100.718 10.206 100.244 10.35 99.8238 10.638C99.4158 10.914 99.0978 11.328 98.8698 11.88V18H97.0698ZM104.65 7.362C104.35 7.362 104.092 7.254 103.875 7.038C103.66 6.81 103.552 6.546 103.552 6.246C103.552 5.946 103.66 5.688 103.875 5.472C104.092 5.244 104.35 5.13 104.65 5.13C104.95 5.13 105.208 5.244 105.424 5.472C105.652 5.688 105.766 5.946 105.766 6.246C105.766 6.546 105.652 6.81 105.424 7.038C105.208 7.254 104.95 7.362 104.65 7.362ZM105.55 8.838V18H103.75V8.838H105.55ZM110.567 18.162C109.571 18.162 108.761 17.904 108.137 17.388C107.513 16.872 107.201 16.2 107.201 15.372C107.201 14.508 107.531 13.83 108.191 13.338C108.851 12.834 109.757 12.582 110.909 12.582C111.353 12.582 111.785 12.63 112.205 12.726C112.625 12.81 113.027 12.93 113.411 13.086V12.114C113.411 11.466 113.219 10.98 112.835 10.656C112.451 10.332 111.899 10.17 111.179 10.17C110.759 10.17 110.321 10.236 109.865 10.368C109.409 10.488 108.899 10.68 108.335 10.944L107.669 9.594C108.353 9.27 109.001 9.036 109.613 8.892C110.225 8.736 110.831 8.658 111.431 8.658C112.619 8.658 113.537 8.946 114.185 9.522C114.845 10.086 115.175 10.89 115.175 11.934V18H113.411V17.208C113.003 17.532 112.565 17.772 112.097 17.928C111.629 18.084 111.119 18.162 110.567 18.162ZM108.929 15.336C108.929 15.78 109.115 16.14 109.487 16.416C109.871 16.692 110.369 16.83 110.981 16.83C111.461 16.83 111.905 16.758 112.313 16.614C112.721 16.47 113.087 16.254 113.411 15.966V14.382C113.063 14.19 112.697 14.052 112.313 13.968C111.929 13.872 111.509 13.824 111.053 13.824C110.405 13.824 109.889 13.962 109.505 14.238C109.121 14.514 108.929 14.88 108.929 15.336ZM128.031 18V17.136C127.647 17.46 127.215 17.712 126.735 17.892C126.255 18.06 125.751 18.144 125.223 18.144C124.575 18.144 123.969 18.024 123.405 17.784C122.841 17.532 122.349 17.196 121.929 16.776C121.521 16.356 121.197 15.858 120.957 15.282C120.717 14.694 120.597 14.07 120.597 13.41C120.597 12.75 120.717 12.132 120.957 11.556C121.197 10.98 121.521 10.482 121.929 10.062C122.349 9.642 122.847 9.312 123.423 9.072C123.999 8.82 124.611 8.694 125.259 8.694C125.763 8.694 126.249 8.772 126.717 8.928C127.185 9.084 127.617 9.306 128.013 9.594V5.4L129.813 5.004V18H128.031ZM122.361 13.392C122.361 14.292 122.661 15.048 123.261 15.66C123.861 16.272 124.599 16.578 125.475 16.578C125.991 16.578 126.465 16.482 126.897 16.29C127.341 16.098 127.713 15.828 128.013 15.48V11.322C127.713 10.986 127.341 10.722 126.897 10.53C126.453 10.338 125.979 10.242 125.475 10.242C124.599 10.242 123.861 10.542 123.261 11.142C122.661 11.742 122.361 12.492 122.361 13.392ZM139.883 16.956C139.355 17.364 138.803 17.67 138.227 17.874C137.651 18.066 137.021 18.162 136.337 18.162C135.665 18.162 135.035 18.042 134.447 17.802C133.859 17.55 133.349 17.214 132.917 16.794C132.485 16.374 132.143 15.876 131.891 15.3C131.651 14.712 131.531 14.082 131.531 13.41C131.531 12.75 131.651 12.132 131.891 11.556C132.131 10.98 132.455 10.482 132.863 10.062C133.271 9.642 133.757 9.312 134.321 9.072C134.885 8.82 135.485 8.694 136.121 8.694C136.745 8.694 137.327 8.82 137.867 9.072C138.419 9.312 138.887 9.648 139.271 10.08C139.667 10.5 139.979 11.004 140.207 11.592C140.435 12.18 140.549 12.81 140.549 13.482V14.004H133.313C133.433 14.76 133.781 15.39 134.357 15.894C134.933 16.386 135.617 16.632 136.409 16.632C136.853 16.632 137.279 16.56 137.687 16.416C138.095 16.272 138.443 16.074 138.731 15.822L139.883 16.956ZM136.085 10.206C135.401 10.206 134.801 10.434 134.285 10.89C133.781 11.346 133.463 11.934 133.331 12.654H138.767C138.635 11.958 138.317 11.376 137.813 10.908C137.321 10.44 136.745 10.206 136.085 10.206ZM147.825 5.004V18H146.025V5.4L147.825 5.004ZM152.843 18.162C151.847 18.162 151.037 17.904 150.413 17.388C149.789 16.872 149.477 16.2 149.477 15.372C149.477 14.508 149.807 13.83 150.467 13.338C151.127 12.834 152.033 12.582 153.185 12.582C153.629 12.582 154.061 12.63 154.481 12.726C154.901 12.81 155.303 12.93 155.687 13.086V12.114C155.687 11.466 155.495 10.98 155.111 10.656C154.727 10.332 154.175 10.17 153.455 10.17C153.035 10.17 152.597 10.236 152.141 10.368C151.685 10.488 151.175 10.68 150.611 10.944L149.945 9.594C150.629 9.27 151.277 9.036 151.889 8.892C152.501 8.736 153.107 8.658 153.707 8.658C154.895 8.658 155.813 8.946 156.461 9.522C157.121 10.086 157.451 10.89 157.451 11.934V18H155.687V17.208C155.279 17.532 154.841 17.772 154.373 17.928C153.905 18.084 153.395 18.162 152.843 18.162ZM151.205 15.336C151.205 15.78 151.391 16.14 151.763 16.416C152.147 16.692 152.645 16.83 153.257 16.83C153.737 16.83 154.181 16.758 154.589 16.614C154.997 16.47 155.363 16.254 155.687 15.966V14.382C155.339 14.19 154.973 14.052 154.589 13.968C154.205 13.872 153.785 13.824 153.329 13.824C152.681 13.824 152.165 13.962 151.781 14.238C151.397 14.514 151.205 14.88 151.205 15.336ZM171.225 16.956C170.697 17.364 170.145 17.67 169.569 17.874C168.993 18.066 168.363 18.162 167.679 18.162C167.007 18.162 166.377 18.042 165.789 17.802C165.201 17.55 164.691 17.214 164.259 16.794C163.827 16.374 163.485 15.876 163.233 15.3C162.993 14.712 162.873 14.082 162.873 13.41C162.873 12.75 162.993 12.132 163.233 11.556C163.473 10.98 163.797 10.482 164.205 10.062C164.613 9.642 165.099 9.312 165.663 9.072C166.227 8.82 166.827 8.694 167.463 8.694C168.087 8.694 168.669 8.82 169.209 9.072C169.761 9.312 170.229 9.648 170.613 10.08C171.009 10.5 171.321 11.004 171.549 11.592C171.777 12.18 171.891 12.81 171.891 13.482V14.004H164.655C164.775 14.76 165.123 15.39 165.699 15.894C166.275 16.386 166.959 16.632 167.751 16.632C168.195 16.632 168.621 16.56 169.029 16.416C169.437 16.272 169.785 16.074 170.073 15.822L171.225 16.956ZM167.427 10.206C166.743 10.206 166.143 10.434 165.627 10.89C165.123 11.346 164.805 11.934 164.673 12.654H170.109C169.977 11.958 169.659 11.376 169.155 10.908C168.663 10.44 168.087 10.206 167.427 10.206ZM173.605 18V8.838H175.405V9.756C175.765 9.396 176.173 9.126 176.629 8.946C177.097 8.754 177.607 8.658 178.159 8.658C179.203 8.658 180.061 8.994 180.733 9.666C181.405 10.326 181.741 11.184 181.741 12.24V18H179.941V12.546C179.941 11.826 179.731 11.262 179.311 10.854C178.903 10.434 178.357 10.224 177.673 10.224C177.193 10.224 176.755 10.326 176.359 10.53C175.975 10.734 175.657 11.028 175.405 11.412V18H173.605ZM191.756 16.956C191.228 17.364 190.676 17.67 190.1 17.874C189.524 18.066 188.894 18.162 188.21 18.162C187.538 18.162 186.908 18.042 186.32 17.802C185.732 17.55 185.222 17.214 184.79 16.794C184.358 16.374 184.016 15.876 183.764 15.3C183.524 14.712 183.404 14.082 183.404 13.41C183.404 12.75 183.524 12.132 183.764 11.556C184.004 10.98 184.328 10.482 184.736 10.062C185.144 9.642 185.63 9.312 186.194 9.072C186.758 8.82 187.358 8.694 187.994 8.694C188.618 8.694 189.2 8.82 189.74 9.072C190.292 9.312 190.76 9.648 191.144 10.08C191.54 10.5 191.852 11.004 192.08 11.592C192.308 12.18 192.422 12.81 192.422 13.482V14.004H185.186C185.306 14.76 185.654 15.39 186.23 15.894C186.806 16.386 187.49 16.632 188.282 16.632C188.726 16.632 189.152 16.56 189.56 16.416C189.968 16.272 190.316 16.074 190.604 15.822L191.756 16.956ZM187.958 10.206C187.274 10.206 186.674 10.434 186.158 10.89C185.654 11.346 185.336 11.934 185.204 12.654H190.64C190.508 11.958 190.19 11.376 189.686 10.908C189.194 10.44 188.618 10.206 187.958 10.206ZM194.136 18V8.838H195.936V10.008C196.212 9.564 196.566 9.228 196.998 9C197.43 8.76 197.916 8.64 198.456 8.64C198.648 8.64 198.816 8.652 198.96 8.676C199.104 8.7 199.242 8.736 199.374 8.784V10.404C199.206 10.344 199.032 10.296 198.852 10.26C198.672 10.224 198.492 10.206 198.312 10.206C197.784 10.206 197.31 10.35 196.89 10.638C196.482 10.914 196.164 11.328 195.936 11.88V18H194.136ZM204.447 18.072C203.811 18.072 203.211 17.952 202.647 17.712C202.083 17.46 201.591 17.124 201.171 16.704C200.763 16.284 200.439 15.786 200.199 15.21C199.959 14.634 199.839 14.022 199.839 13.374C199.839 12.726 199.959 12.114 200.199 11.538C200.439 10.962 200.763 10.464 201.171 10.044C201.591 9.624 202.083 9.294 202.647 9.054C203.223 8.802 203.835 8.676 204.483 8.676C204.975 8.676 205.449 8.754 205.905 8.91C206.373 9.066 206.805 9.294 207.201 9.594V8.838H208.983V18.126C208.983 19.314 208.617 20.226 207.885 20.862C207.165 21.51 206.133 21.834 204.789 21.834C204.129 21.834 203.475 21.756 202.827 21.6C202.191 21.444 201.615 21.222 201.099 20.934L201.801 19.53C202.317 19.794 202.815 19.992 203.295 20.124C203.775 20.256 204.255 20.322 204.735 20.322C205.527 20.322 206.133 20.136 206.553 19.764C206.973 19.392 207.183 18.846 207.183 18.126V17.1C206.799 17.412 206.373 17.652 205.905 17.82C205.437 17.988 204.951 18.072 204.447 18.072ZM201.603 13.374C201.603 14.25 201.897 14.994 202.485 15.606C203.073 16.206 203.799 16.506 204.663 16.506C205.179 16.506 205.653 16.416 206.085 16.236C206.517 16.044 206.883 15.78 207.183 15.444V11.304C206.895 10.968 206.529 10.71 206.085 10.53C205.653 10.338 205.179 10.242 204.663 10.242C203.799 10.242 203.073 10.548 202.485 11.16C201.897 11.76 201.603 12.498 201.603 13.374ZM212.899 8.838V18H211.099V8.838H212.899ZM212.557 4.95H214.717L212.413 7.146H210.901L212.557 4.95ZM217.899 18.162C216.903 18.162 216.093 17.904 215.469 17.388C214.845 16.872 214.533 16.2 214.533 15.372C214.533 14.508 214.863 13.83 215.523 13.338C216.183 12.834 217.089 12.582 218.241 12.582C218.685 12.582 219.117 12.63 219.537 12.726C219.957 12.81 220.359 12.93 220.743 13.086V12.114C220.743 11.466 220.551 10.98 220.167 10.656C219.783 10.332 219.231 10.17 218.511 10.17C218.091 10.17 217.653 10.236 217.197 10.368C216.741 10.488 216.231 10.68 215.667 10.944L215.001 9.594C215.685 9.27 216.333 9.036 216.945 8.892C217.557 8.736 218.163 8.658 218.763 8.658C219.951 8.658 220.869 8.946 221.517 9.522C222.177 10.086 222.507 10.89 222.507 11.934V18H220.743V17.208C220.335 17.532 219.897 17.772 219.429 17.928C218.961 18.084 218.451 18.162 217.899 18.162ZM216.261 15.336C216.261 15.78 216.447 16.14 216.819 16.416C217.203 16.692 217.701 16.83 218.313 16.83C218.793 16.83 219.237 16.758 219.645 16.614C220.053 16.47 220.419 16.254 220.743 15.966V14.382C220.395 14.19 220.029 14.052 219.645 13.968C219.261 13.872 218.841 13.824 218.385 13.824C217.737 13.824 217.221 13.962 216.837 14.238C216.453 14.514 216.261 14.88 216.261 15.336Z" fill="white"/>
<path d="M45.306 55.074V53.4H56.052V55.074H51.624V66H49.734V55.074H45.306ZM56.5561 66V56.838H58.3561V58.008C58.6321 57.564 58.9861 57.228 59.4181 57C59.8501 56.76 60.3361 56.64 60.8761 56.64C61.0681 56.64 61.2361 56.652 61.3801 56.676C61.5241 56.7 61.6621 56.736 61.7941 56.784V58.404C61.6261 58.344 61.4521 58.296 61.2721 58.26C61.0921 58.224 60.9121 58.206 60.7321 58.206C60.2041 58.206 59.7301 58.35 59.3101 58.638C58.9021 58.914 58.5841 59.328 58.3561 59.88V66H56.5561ZM65.7471 66.162C64.7511 66.162 63.9411 65.904 63.3171 65.388C62.6931 64.872 62.3811 64.2 62.3811 63.372C62.3811 62.508 62.7111 61.83 63.3711 61.338C64.0311 60.834 64.9371 60.582 66.0891 60.582C66.5331 60.582 66.9651 60.63 67.3851 60.726C67.8051 60.81 68.2071 60.93 68.5911 61.086V60.114C68.5911 59.466 68.3991 58.98 68.0151 58.656C67.6311 58.332 67.0791 58.17 66.3591 58.17C65.9391 58.17 65.5011 58.236 65.0451 58.368C64.5891 58.488 64.0791 58.68 63.5151 58.944L62.8491 57.594C63.5331 57.27 64.1811 57.036 64.7931 56.892C65.4051 56.736 66.0111 56.658 66.6111 56.658C67.7991 56.658 68.7171 56.946 69.3651 57.522C70.0251 58.086 70.3551 58.89 70.3551 59.934V66H68.5911V65.208C68.1831 65.532 67.7451 65.772 67.2771 65.928C66.8091 66.084 66.2991 66.162 65.7471 66.162ZM64.1091 63.336C64.1091 63.78 64.2951 64.14 64.6671 64.416C65.0511 64.692 65.5491 64.83 66.1611 64.83C66.6411 64.83 67.0851 64.758 67.4931 64.614C67.9011 64.47 68.2671 64.254 68.5911 63.966V62.382C68.2431 62.19 67.8771 62.052 67.4931 61.968C67.1091 61.872 66.6891 61.824 66.2331 61.824C65.5851 61.824 65.0691 61.962 64.6851 62.238C64.3011 62.514 64.1091 62.88 64.1091 63.336ZM72.4292 66V56.838H74.2292V57.756C74.5892 57.396 74.9972 57.126 75.4532 56.946C75.9212 56.754 76.4312 56.658 76.9832 56.658C78.0272 56.658 78.8852 56.994 79.5572 57.666C80.2292 58.326 80.5652 59.184 80.5652 60.24V66H78.7652V60.546C78.7652 59.826 78.5552 59.262 78.1352 58.854C77.7272 58.434 77.1812 58.224 76.4972 58.224C76.0172 58.224 75.5792 58.326 75.1832 58.53C74.7992 58.734 74.4812 59.028 74.2292 59.412V66H72.4292ZM81.7781 64.812L82.7501 63.624C83.2301 63.996 83.7161 64.284 84.2081 64.488C84.7121 64.68 85.2221 64.776 85.7381 64.776C86.3861 64.776 86.9141 64.65 87.3221 64.398C87.7301 64.146 87.9341 63.816 87.9341 63.408C87.9341 63.084 87.8141 62.826 87.5741 62.634C87.3341 62.442 86.9621 62.31 86.4581 62.238L84.8021 62.004C83.9021 61.872 83.2181 61.596 82.7501 61.176C82.2941 60.744 82.0661 60.174 82.0661 59.466C82.0661 58.638 82.3961 57.972 83.0561 57.468C83.7161 56.952 84.5801 56.694 85.6481 56.694C86.3201 56.694 86.9561 56.79 87.5561 56.982C88.1681 57.174 88.7621 57.468 89.3381 57.864L88.4201 59.052C87.9161 58.716 87.4241 58.476 86.9441 58.332C86.4761 58.176 86.0021 58.098 85.5221 58.098C84.9701 58.098 84.5261 58.212 84.1901 58.44C83.8541 58.668 83.6861 58.968 83.6861 59.34C83.6861 59.676 83.8001 59.934 84.0281 60.114C84.2681 60.282 84.6581 60.408 85.1981 60.492L86.8541 60.726C87.7541 60.858 88.4381 61.14 88.9061 61.572C89.3861 62.004 89.6261 62.574 89.6261 63.282C89.6261 63.69 89.5241 64.074 89.3201 64.434C89.1281 64.782 88.8581 65.082 88.5101 65.334C88.1741 65.586 87.7721 65.79 87.3041 65.946C86.8361 66.09 86.3321 66.162 85.7921 66.162C85.0001 66.162 84.2561 66.048 83.5601 65.82C82.8761 65.592 82.2821 65.256 81.7781 64.812ZM91.0093 69.726V56.838H92.7913V57.72C93.1633 57.384 93.5893 57.132 94.0693 56.964C94.5493 56.784 95.0593 56.694 95.5993 56.694C96.2473 56.694 96.8533 56.82 97.4173 57.072C97.9813 57.312 98.4673 57.642 98.8753 58.062C99.2953 58.482 99.6253 58.98 99.8653 59.556C100.105 60.132 100.225 60.75 100.225 61.41C100.225 62.07 100.105 62.694 99.8653 63.282C99.6253 63.858 99.2953 64.356 98.8753 64.776C98.4673 65.196 97.9753 65.532 97.3993 65.784C96.8233 66.024 96.2113 66.144 95.5633 66.144C95.0593 66.144 94.5673 66.066 94.0873 65.91C93.6193 65.754 93.1933 65.532 92.8093 65.244V69.726H91.0093ZM95.3653 58.26C94.8493 58.26 94.3693 58.356 93.9253 58.548C93.4813 58.74 93.1093 59.01 92.8093 59.358V63.498C93.0973 63.834 93.4633 64.098 93.9073 64.29C94.3633 64.482 94.8493 64.578 95.3653 64.578C96.2413 64.578 96.9733 64.278 97.5613 63.678C98.1613 63.078 98.4613 62.328 98.4613 61.428C98.4613 60.528 98.1613 59.778 97.5613 59.178C96.9613 58.566 96.2293 58.26 95.3653 58.26ZM101.564 61.41C101.564 60.75 101.684 60.132 101.924 59.556C102.176 58.968 102.518 58.464 102.95 58.044C103.382 57.612 103.886 57.276 104.462 57.036C105.05 56.784 105.674 56.658 106.334 56.658C106.994 56.658 107.612 56.784 108.188 57.036C108.776 57.276 109.28 57.612 109.7 58.044C110.132 58.464 110.468 58.968 110.708 59.556C110.96 60.132 111.086 60.75 111.086 61.41C111.086 62.082 110.96 62.712 110.708 63.3C110.468 63.876 110.132 64.38 109.7 64.812C109.28 65.232 108.776 65.568 108.188 65.82C107.612 66.06 106.994 66.18 106.334 66.18C105.674 66.18 105.05 66.06 104.462 65.82C103.886 65.568 103.382 65.232 102.95 64.812C102.518 64.38 102.176 63.876 101.924 63.3C101.684 62.712 101.564 62.082 101.564 61.41ZM106.334 64.596C107.162 64.596 107.864 64.29 108.44 63.678C109.028 63.054 109.322 62.298 109.322 61.41C109.322 60.522 109.028 59.772 108.44 59.16C107.864 58.548 107.162 58.242 106.334 58.242C105.506 58.242 104.798 58.548 104.21 59.16C103.622 59.772 103.328 60.522 103.328 61.41C103.328 62.298 103.616 63.054 104.192 63.678C104.78 64.29 105.494 64.596 106.334 64.596ZM112.789 66V56.838H114.589V58.008C114.865 57.564 115.219 57.228 115.651 57C116.083 56.76 116.569 56.64 117.109 56.64C117.301 56.64 117.469 56.652 117.613 56.676C117.757 56.7 117.895 56.736 118.027 56.784V58.404C117.859 58.344 117.685 58.296 117.505 58.26C117.325 58.224 117.145 58.206 116.965 58.206C116.437 58.206 115.963 58.35 115.543 58.638C115.135 58.914 114.817 59.328 114.589 59.88V66H112.789ZM120.727 63.732V58.35H118.783V56.838H120.727V54.498L122.509 54.066V56.838H125.209V58.35H122.509V63.318C122.509 63.786 122.611 64.116 122.815 64.308C123.031 64.5 123.379 64.596 123.859 64.596C124.111 64.596 124.333 64.584 124.525 64.56C124.729 64.524 124.945 64.464 125.173 64.38V65.892C124.933 65.976 124.651 66.042 124.327 66.09C124.015 66.138 123.727 66.162 123.463 66.162C122.575 66.162 121.897 65.958 121.429 65.55C120.961 65.13 120.727 64.524 120.727 63.732ZM134.279 64.956C133.751 65.364 133.199 65.67 132.623 65.874C132.047 66.066 131.417 66.162 130.733 66.162C130.061 66.162 129.431 66.042 128.843 65.802C128.255 65.55 127.745 65.214 127.313 64.794C126.881 64.374 126.539 63.876 126.287 63.3C126.047 62.712 125.927 62.082 125.927 61.41C125.927 60.75 126.047 60.132 126.287 59.556C126.527 58.98 126.851 58.482 127.259 58.062C127.667 57.642 128.153 57.312 128.717 57.072C129.281 56.82 129.881 56.694 130.517 56.694C131.141 56.694 131.723 56.82 132.263 57.072C132.815 57.312 133.283 57.648 133.667 58.08C134.063 58.5 134.375 59.004 134.603 59.592C134.831 60.18 134.945 60.81 134.945 61.482V62.004H127.709C127.829 62.76 128.177 63.39 128.753 63.894C129.329 64.386 130.013 64.632 130.805 64.632C131.249 64.632 131.675 64.56 132.083 64.416C132.491 64.272 132.839 64.074 133.127 63.822L134.279 64.956ZM130.481 58.206C129.797 58.206 129.197 58.434 128.681 58.89C128.177 59.346 127.859 59.934 127.727 60.654H133.163C133.031 59.958 132.713 59.376 132.209 58.908C131.717 58.44 131.141 58.206 130.481 58.206Z" fill="white"/>
<path d="M46.2741 115V102.4H48.1641V115H46.2741ZM50.5229 115V105.838H52.3229V106.756C52.6829 106.396 53.0909 106.126 53.5469 105.946C54.0149 105.754 54.5249 105.658 55.0769 105.658C56.1209 105.658 56.9789 105.994 57.6509 106.666C58.3229 107.326 58.6589 108.184 58.6589 109.24V115H56.8589V109.546C56.8589 108.826 56.6489 108.262 56.2289 107.854C55.8209 107.434 55.2749 107.224 54.5909 107.224C54.1109 107.224 53.6729 107.326 53.2769 107.53C52.8929 107.734 52.5749 108.028 52.3229 108.412V115H50.5229ZM67.7558 115V114.136C67.3718 114.46 66.9398 114.712 66.4598 114.892C65.9798 115.06 65.4758 115.144 64.9478 115.144C64.2998 115.144 63.6938 115.024 63.1298 114.784C62.5658 114.532 62.0738 114.196 61.6538 113.776C61.2458 113.356 60.9218 112.858 60.6818 112.282C60.4418 111.694 60.3218 111.07 60.3218 110.41C60.3218 109.75 60.4418 109.132 60.6818 108.556C60.9218 107.98 61.2458 107.482 61.6538 107.062C62.0738 106.642 62.5718 106.312 63.1478 106.072C63.7238 105.82 64.3358 105.694 64.9838 105.694C65.4878 105.694 65.9738 105.772 66.4418 105.928C66.9098 106.084 67.3418 106.306 67.7378 106.594V102.4L69.5378 102.004V115H67.7558ZM62.0858 110.392C62.0858 111.292 62.3858 112.048 62.9858 112.66C63.5858 113.272 64.3238 113.578 65.1998 113.578C65.7158 113.578 66.1898 113.482 66.6218 113.29C67.0658 113.098 67.4378 112.828 67.7378 112.48V108.322C67.4378 107.986 67.0658 107.722 66.6218 107.53C66.1778 107.338 65.7038 107.242 65.1998 107.242C64.3238 107.242 63.5858 107.542 62.9858 108.142C62.3858 108.742 62.0858 109.492 62.0858 110.392ZM73.4334 105.838V111.274C73.4334 111.994 73.6374 112.564 74.0454 112.984C74.4654 113.404 75.0174 113.614 75.7014 113.614C76.1814 113.614 76.6134 113.512 76.9974 113.308C77.3814 113.092 77.6994 112.792 77.9514 112.408V105.838H79.7514V115H77.9514V114.082C77.5914 114.442 77.1774 114.718 76.7094 114.91C76.2534 115.09 75.7494 115.18 75.1974 115.18C74.1534 115.18 73.2954 114.844 72.6234 114.172C71.9634 113.5 71.6334 112.636 71.6334 111.58V105.838H73.4334ZM81.0183 113.812L81.9903 112.624C82.4703 112.996 82.9563 113.284 83.4483 113.488C83.9523 113.68 84.4623 113.776 84.9783 113.776C85.6263 113.776 86.1543 113.65 86.5623 113.398C86.9703 113.146 87.1743 112.816 87.1743 112.408C87.1743 112.084 87.0543 111.826 86.8143 111.634C86.5743 111.442 86.2023 111.31 85.6983 111.238L84.0423 111.004C83.1423 110.872 82.4583 110.596 81.9903 110.176C81.5343 109.744 81.3063 109.174 81.3063 108.466C81.3063 107.638 81.6363 106.972 82.2963 106.468C82.9563 105.952 83.8203 105.694 84.8883 105.694C85.5603 105.694 86.1963 105.79 86.7963 105.982C87.4083 106.174 88.0023 106.468 88.5783 106.864L87.6603 108.052C87.1563 107.716 86.6643 107.476 86.1843 107.332C85.7163 107.176 85.2423 107.098 84.7623 107.098C84.2103 107.098 83.7663 107.212 83.4303 107.44C83.0943 107.668 82.9263 107.968 82.9263 108.34C82.9263 108.676 83.0403 108.934 83.2683 109.114C83.5083 109.282 83.8983 109.408 84.4383 109.492L86.0943 109.726C86.9943 109.858 87.6783 110.14 88.1463 110.572C88.6263 111.004 88.8663 111.574 88.8663 112.282C88.8663 112.69 88.7643 113.074 88.5603 113.434C88.3683 113.782 88.0983 114.082 87.7503 114.334C87.4143 114.586 87.0123 114.79 86.5443 114.946C86.0763 115.09 85.5723 115.162 85.0323 115.162C84.2403 115.162 83.4963 115.048 82.8003 114.82C82.1163 114.592 81.5223 114.256 81.0183 113.812ZM91.2617 112.732V107.35H89.3177V105.838H91.2617V103.498L93.0437 103.066V105.838H95.7437V107.35H93.0437V112.318C93.0437 112.786 93.1457 113.116 93.3497 113.308C93.5657 113.5 93.9137 113.596 94.3937 113.596C94.6457 113.596 94.8677 113.584 95.0597 113.56C95.2637 113.524 95.4797 113.464 95.7077 113.38V114.892C95.4677 114.976 95.1857 115.042 94.8617 115.09C94.5497 115.138 94.2617 115.162 93.9977 115.162C93.1097 115.162 92.4317 114.958 91.9637 114.55C91.4957 114.13 91.2617 113.524 91.2617 112.732ZM97.0698 115V105.838H98.8698V107.008C99.1458 106.564 99.4998 106.228 99.9318 106C100.364 105.76 100.85 105.64 101.39 105.64C101.582 105.64 101.75 105.652 101.894 105.676C102.038 105.7 102.176 105.736 102.308 105.784V107.404C102.14 107.344 101.966 107.296 101.786 107.26C101.606 107.224 101.426 107.206 101.246 107.206C100.718 107.206 100.244 107.35 99.8238 107.638C99.4158 107.914 99.0978 108.328 98.8698 108.88V115H97.0698ZM104.65 104.362C104.35 104.362 104.092 104.254 103.875 104.038C103.66 103.81 103.552 103.546 103.552 103.246C103.552 102.946 103.66 102.688 103.875 102.472C104.092 102.244 104.35 102.13 104.65 102.13C104.95 102.13 105.208 102.244 105.424 102.472C105.652 102.688 105.766 102.946 105.766 103.246C105.766 103.546 105.652 103.81 105.424 104.038C105.208 104.254 104.95 104.362 104.65 104.362ZM105.55 105.838V115H103.75V105.838H105.55ZM110.567 115.162C109.571 115.162 108.761 114.904 108.137 114.388C107.513 113.872 107.201 113.2 107.201 112.372C107.201 111.508 107.531 110.83 108.191 110.338C108.851 109.834 109.757 109.582 110.909 109.582C111.353 109.582 111.785 109.63 112.205 109.726C112.625 109.81 113.027 109.93 113.411 110.086V109.114C113.411 108.466 113.219 107.98 112.835 107.656C112.451 107.332 111.899 107.17 111.179 107.17C110.759 107.17 110.321 107.236 109.865 107.368C109.409 107.488 108.899 107.68 108.335 107.944L107.669 106.594C108.353 106.27 109.001 106.036 109.613 105.892C110.225 105.736 110.831 105.658 111.431 105.658C112.619 105.658 113.537 105.946 114.185 106.522C114.845 107.086 115.175 107.89 115.175 108.934V115H113.411V114.208C113.003 114.532 112.565 114.772 112.097 114.928C111.629 115.084 111.119 115.162 110.567 115.162ZM108.929 112.336C108.929 112.78 109.115 113.14 109.487 113.416C109.871 113.692 110.369 113.83 110.981 113.83C111.461 113.83 111.905 113.758 112.313 113.614C112.721 113.47 113.087 113.254 113.411 112.966V111.382C113.063 111.19 112.697 111.052 112.313 110.968C111.929 110.872 111.509 110.824 111.053 110.824C110.405 110.824 109.889 110.962 109.505 111.238C109.121 111.514 108.929 111.88 108.929 112.336ZM121.011 115V105.838H122.811V106.702C123.147 106.366 123.531 106.108 123.963 105.928C124.395 105.748 124.869 105.658 125.385 105.658C125.997 105.658 126.549 105.796 127.041 106.072C127.533 106.336 127.923 106.708 128.211 107.188C128.583 106.684 129.027 106.306 129.543 106.054C130.071 105.79 130.659 105.658 131.307 105.658C132.315 105.658 133.137 105.994 133.773 106.666C134.421 107.326 134.745 108.184 134.745 109.24V115H132.945V109.546C132.945 108.826 132.753 108.262 132.369 107.854C131.997 107.434 131.487 107.224 130.839 107.224C130.395 107.224 129.993 107.326 129.633 107.53C129.273 107.734 128.961 108.04 128.697 108.448C128.721 108.568 128.739 108.7 128.751 108.844C128.763 108.976 128.769 109.108 128.769 109.24V115H126.987V109.546C126.987 108.826 126.795 108.262 126.411 107.854C126.039 107.434 125.529 107.224 124.881 107.224C124.449 107.224 124.059 107.32 123.711 107.512C123.363 107.692 123.063 107.968 122.811 108.34V115H121.011ZM139.712 115.162C138.716 115.162 137.906 114.904 137.282 114.388C136.658 113.872 136.346 113.2 136.346 112.372C136.346 111.508 136.676 110.83 137.336 110.338C137.996 109.834 138.902 109.582 140.054 109.582C140.498 109.582 140.93 109.63 141.35 109.726C141.77 109.81 142.172 109.93 142.556 110.086V109.114C142.556 108.466 142.364 107.98 141.98 107.656C141.596 107.332 141.044 107.17 140.324 107.17C139.904 107.17 139.466 107.236 139.01 107.368C138.554 107.488 138.044 107.68 137.48 107.944L136.814 106.594C137.498 106.27 138.146 106.036 138.758 105.892C139.37 105.736 139.976 105.658 140.576 105.658C141.764 105.658 142.682 105.946 143.33 106.522C143.99 107.086 144.32 107.89 144.32 108.934V115H142.556V114.208C142.148 114.532 141.71 114.772 141.242 114.928C140.774 115.084 140.264 115.162 139.712 115.162ZM138.074 112.336C138.074 112.78 138.26 113.14 138.632 113.416C139.016 113.692 139.514 113.83 140.126 113.83C140.606 113.83 141.05 113.758 141.458 113.614C141.866 113.47 142.232 113.254 142.556 112.966V111.382C142.208 111.19 141.842 111.052 141.458 110.968C141.074 110.872 140.654 110.824 140.198 110.824C139.55 110.824 139.034 110.962 138.65 111.238C138.266 111.514 138.074 111.88 138.074 112.336ZM146.394 115V105.838H148.194V106.756C148.554 106.396 148.962 106.126 149.418 105.946C149.886 105.754 150.396 105.658 150.948 105.658C151.992 105.658 152.85 105.994 153.522 106.666C154.194 107.326 154.53 108.184 154.53 109.24V115H152.73V109.546C152.73 108.826 152.52 108.262 152.1 107.854C151.692 107.434 151.146 107.224 150.462 107.224C149.982 107.224 149.544 107.326 149.148 107.53C148.764 107.734 148.446 108.028 148.194 108.412V115H146.394ZM158.283 105.838V111.274C158.283 111.994 158.487 112.564 158.895 112.984C159.315 113.404 159.867 113.614 160.551 113.614C161.031 113.614 161.463 113.512 161.847 113.308C162.231 113.092 162.549 112.792 162.801 112.408V105.838H164.601V115H162.801V114.082C162.441 114.442 162.027 114.718 161.559 114.91C161.103 115.09 160.599 115.18 160.047 115.18C159.003 115.18 158.145 114.844 157.473 114.172C156.813 113.5 156.483 112.636 156.483 111.58V105.838H158.283ZM165.976 105.838H168.1V104.452C168.1 103.504 168.364 102.778 168.892 102.274C169.432 101.758 170.206 101.5 171.214 101.5C171.454 101.5 171.682 101.518 171.898 101.554C172.114 101.578 172.318 101.614 172.51 101.662V103.228C172.294 103.168 172.102 103.126 171.934 103.102C171.766 103.078 171.58 103.066 171.376 103.066C170.884 103.066 170.512 103.186 170.26 103.426C170.02 103.654 169.9 104.008 169.9 104.488V105.838H172.51V107.35H169.9V115H168.1V107.35H165.976V105.838ZM176.679 115.162C175.683 115.162 174.873 114.904 174.249 114.388C173.625 113.872 173.313 113.2 173.313 112.372C173.313 111.508 173.643 110.83 174.303 110.338C174.963 109.834 175.869 109.582 177.021 109.582C177.465 109.582 177.897 109.63 178.317 109.726C178.737 109.81 179.139 109.93 179.523 110.086V109.114C179.523 108.466 179.331 107.98 178.947 107.656C178.563 107.332 178.011 107.17 177.291 107.17C176.871 107.17 176.433 107.236 175.977 107.368C175.521 107.488 175.011 107.68 174.447 107.944L173.781 106.594C174.465 106.27 175.113 106.036 175.725 105.892C176.337 105.736 176.943 105.658 177.543 105.658C178.731 105.658 179.649 105.946 180.297 106.522C180.957 107.086 181.287 107.89 181.287 108.934V115H179.523V114.208C179.115 114.532 178.677 114.772 178.209 114.928C177.741 115.084 177.231 115.162 176.679 115.162ZM175.041 112.336C175.041 112.78 175.227 113.14 175.599 113.416C175.983 113.692 176.481 113.83 177.093 113.83C177.573 113.83 178.017 113.758 178.425 113.614C178.833 113.47 179.199 113.254 179.523 112.966V111.382C179.175 111.19 178.809 111.052 178.425 110.968C178.041 110.872 177.621 110.824 177.165 110.824C176.517 110.824 176.001 110.962 175.617 111.238C175.233 111.514 175.041 111.88 175.041 112.336ZM187.735 113.578C188.191 113.578 188.623 113.488 189.031 113.308C189.439 113.116 189.829 112.834 190.201 112.462L191.281 113.632C190.801 114.112 190.249 114.49 189.625 114.766C189.001 115.03 188.347 115.162 187.663 115.162C187.003 115.162 186.385 115.042 185.809 114.802C185.233 114.55 184.735 114.214 184.315 113.794C183.895 113.374 183.559 112.876 183.307 112.3C183.067 111.712 182.947 111.082 182.947 110.41C182.947 109.75 183.067 109.132 183.307 108.556C183.559 107.968 183.895 107.464 184.315 107.044C184.735 106.612 185.233 106.276 185.809 106.036C186.385 105.784 187.003 105.658 187.663 105.658C188.347 105.658 189.013 105.796 189.661 106.072C190.309 106.336 190.873 106.708 191.353 107.188L190.219 108.412C189.871 108.04 189.481 107.758 189.049 107.566C188.617 107.362 188.167 107.26 187.699 107.26C186.871 107.26 186.169 107.566 185.593 108.178C185.017 108.79 184.729 109.534 184.729 110.41C184.729 111.31 185.017 112.066 185.593 112.678C186.181 113.278 186.895 113.578 187.735 113.578ZM194.111 112.732V107.35H192.167V105.838H194.111V103.498L195.893 103.066V105.838H198.593V107.35H195.893V112.318C195.893 112.786 195.995 113.116 196.199 113.308C196.415 113.5 196.763 113.596 197.243 113.596C197.495 113.596 197.717 113.584 197.909 113.56C198.113 113.524 198.329 113.464 198.557 113.38V114.892C198.317 114.976 198.035 115.042 197.711 115.09C197.399 115.138 197.111 115.162 196.847 115.162C195.959 115.162 195.281 114.958 194.813 114.55C194.345 114.13 194.111 113.524 194.111 112.732ZM201.683 105.838V111.274C201.683 111.994 201.887 112.564 202.295 112.984C202.715 113.404 203.267 113.614 203.951 113.614C204.431 113.614 204.863 113.512 205.247 113.308C205.631 113.092 205.949 112.792 206.201 112.408V105.838H208.001V115H206.201V114.082C205.841 114.442 205.427 114.718 204.959 114.91C204.503 115.09 203.999 115.18 203.447 115.18C202.403 115.18 201.545 114.844 200.873 114.172C200.213 113.5 199.883 112.636 199.883 111.58V105.838H201.683ZM210.132 115V105.838H211.932V107.008C212.208 106.564 212.562 106.228 212.994 106C213.426 105.76 213.912 105.64 214.452 105.64C214.644 105.64 214.812 105.652 214.956 105.676C215.1 105.7 215.238 105.736 215.37 105.784V107.404C215.202 107.344 215.028 107.296 214.848 107.26C214.668 107.224 214.488 107.206 214.308 107.206C213.78 107.206 213.306 107.35 212.886 107.638C212.478 107.914 212.16 108.328 211.932 108.88V115H210.132ZM224.188 113.956C223.66 114.364 223.108 114.67 222.532 114.874C221.956 115.066 221.326 115.162 220.642 115.162C219.97 115.162 219.34 115.042 218.752 114.802C218.164 114.55 217.654 114.214 217.222 113.794C216.79 113.374 216.448 112.876 216.196 112.3C215.956 111.712 215.836 111.082 215.836 110.41C215.836 109.75 215.956 109.132 216.196 108.556C216.436 107.98 216.76 107.482 217.168 107.062C217.576 106.642 218.062 106.312 218.626 106.072C219.19 105.82 219.79 105.694 220.426 105.694C221.05 105.694 221.632 105.82 222.172 106.072C222.724 106.312 223.192 106.648 223.576 107.08C223.972 107.5 224.284 108.004 224.512 108.592C224.74 109.18 224.854 109.81 224.854 110.482V111.004H217.618C217.738 111.76 218.086 112.39 218.662 112.894C219.238 113.386 219.922 113.632 220.714 113.632C221.158 113.632 221.584 113.56 221.992 113.416C222.4 113.272 222.748 113.074 223.036 112.822L224.188 113.956ZM220.39 107.206C219.706 107.206 219.106 107.434 218.59 107.89C218.086 108.346 217.768 108.934 217.636 109.654H223.072C222.94 108.958 222.622 108.376 222.118 107.908C221.626 107.44 221.05 107.206 220.39 107.206ZM226.568 115V105.838H228.368V107.008C228.644 106.564 228.998 106.228 229.43 106C229.862 105.76 230.348 105.64 230.888 105.64C231.08 105.64 231.248 105.652 231.392 105.676C231.536 105.7 231.674 105.736 231.806 105.784V107.404C231.638 107.344 231.464 107.296 231.284 107.26C231.104 107.224 230.924 107.206 230.744 107.206C230.216 107.206 229.742 107.35 229.322 107.638C228.914 107.914 228.596 108.328 228.368 108.88V115H226.568ZM235.759 115.162C234.763 115.162 233.953 114.904 233.329 114.388C232.705 113.872 232.393 113.2 232.393 112.372C232.393 111.508 232.723 110.83 233.383 110.338C234.043 109.834 234.949 109.582 236.101 109.582C236.545 109.582 236.977 109.63 237.397 109.726C237.817 109.81 238.219 109.93 238.603 110.086V109.114C238.603 108.466 238.411 107.98 238.027 107.656C237.643 107.332 237.091 107.17 236.371 107.17C235.951 107.17 235.513 107.236 235.057 107.368C234.601 107.488 234.091 107.68 233.527 107.944L232.861 106.594C233.545 106.27 234.193 106.036 234.805 105.892C235.417 105.736 236.023 105.658 236.623 105.658C237.811 105.658 238.729 105.946 239.377 106.522C240.037 107.086 240.367 107.89 240.367 108.934V115H238.603V114.208C238.195 114.532 237.757 114.772 237.289 114.928C236.821 115.084 236.311 115.162 235.759 115.162ZM234.121 112.336C234.121 112.78 234.307 113.14 234.679 113.416C235.063 113.692 235.561 113.83 236.173 113.83C236.653 113.83 237.097 113.758 237.505 113.614C237.913 113.47 238.279 113.254 238.603 112.966V111.382C238.255 111.19 237.889 111.052 237.505 110.968C237.121 110.872 236.701 110.824 236.245 110.824C235.597 110.824 235.081 110.962 234.697 111.238C234.313 111.514 234.121 111.88 234.121 112.336ZM248.489 115.864L248.849 115.036L245.195 105.838H247.175L249.857 112.84L252.809 105.838H254.753L250.325 116.098C249.905 117.07 249.425 117.766 248.885 118.186C248.345 118.618 247.655 118.834 246.815 118.834C246.623 118.834 246.443 118.822 246.275 118.798C246.119 118.786 245.981 118.762 245.861 118.726V117.142C245.981 117.166 246.101 117.184 246.221 117.196C246.353 117.208 246.503 117.214 246.671 117.214C247.079 117.214 247.433 117.1 247.733 116.872C248.045 116.656 248.297 116.32 248.489 115.864ZM266.652 115V114.136C266.268 114.46 265.836 114.712 265.356 114.892C264.876 115.06 264.372 115.144 263.844 115.144C263.196 115.144 262.59 115.024 262.026 114.784C261.462 114.532 260.97 114.196 260.55 113.776C260.142 113.356 259.818 112.858 259.578 112.282C259.338 111.694 259.218 111.07 259.218 110.41C259.218 109.75 259.338 109.132 259.578 108.556C259.818 107.98 260.142 107.482 260.55 107.062C260.97 106.642 261.468 106.312 262.044 106.072C262.62 105.82 263.232 105.694 263.88 105.694C264.384 105.694 264.87 105.772 265.338 105.928C265.806 106.084 266.238 106.306 266.634 106.594V102.4L268.434 102.004V115H266.652ZM260.982 110.392C260.982 111.292 261.282 112.048 261.882 112.66C262.482 113.272 263.22 113.578 264.096 113.578C264.612 113.578 265.086 113.482 265.518 113.29C265.962 113.098 266.334 112.828 266.634 112.48V108.322C266.334 107.986 265.962 107.722 265.518 107.53C265.074 107.338 264.6 107.242 264.096 107.242C263.22 107.242 262.482 107.542 261.882 108.142C261.282 108.742 260.982 109.492 260.982 110.392ZM278.504 113.956C277.976 114.364 277.424 114.67 276.848 114.874C276.272 115.066 275.642 115.162 274.958 115.162C274.286 115.162 273.656 115.042 273.068 114.802C272.48 114.55 271.97 114.214 271.538 113.794C271.106 113.374 270.764 112.876 270.512 112.3C270.272 111.712 270.152 111.082 270.152 110.41C270.152 109.75 270.272 109.132 270.512 108.556C270.752 107.98 271.076 107.482 271.484 107.062C271.892 106.642 272.378 106.312 272.942 106.072C273.506 105.82 274.106 105.694 274.742 105.694C275.366 105.694 275.948 105.82 276.488 106.072C277.04 106.312 277.508 106.648 277.892 107.08C278.288 107.5 278.6 108.004 278.828 108.592C279.056 109.18 279.17 109.81 279.17 110.482V111.004H271.934C272.054 111.76 272.402 112.39 272.978 112.894C273.554 113.386 274.238 113.632 275.03 113.632C275.474 113.632 275.9 113.56 276.308 113.416C276.716 113.272 277.064 113.074 277.352 112.822L278.504 113.956ZM274.706 107.206C274.022 107.206 273.422 107.434 272.906 107.89C272.402 108.346 272.084 108.934 271.952 109.654H277.388C277.256 108.958 276.938 108.376 276.434 107.908C275.942 107.44 275.366 107.206 274.706 107.206ZM286.446 102.004V115H284.646V102.4L286.446 102.004ZM291.464 115.162C290.468 115.162 289.658 114.904 289.034 114.388C288.41 113.872 288.098 113.2 288.098 112.372C288.098 111.508 288.428 110.83 289.088 110.338C289.748 109.834 290.654 109.582 291.806 109.582C292.25 109.582 292.682 109.63 293.102 109.726C293.522 109.81 293.924 109.93 294.308 110.086V109.114C294.308 108.466 294.116 107.98 293.732 107.656C293.348 107.332 292.796 107.17 292.076 107.17C291.656 107.17 291.218 107.236 290.762 107.368C290.306 107.488 289.796 107.68 289.232 107.944L288.566 106.594C289.25 106.27 289.898 106.036 290.51 105.892C291.122 105.736 291.728 105.658 292.328 105.658C293.516 105.658 294.434 105.946 295.082 106.522C295.742 107.086 296.072 107.89 296.072 108.934V115H294.308V114.208C293.9 114.532 293.462 114.772 292.994 114.928C292.526 115.084 292.016 115.162 291.464 115.162ZM289.826 112.336C289.826 112.78 290.012 113.14 290.384 113.416C290.768 113.692 291.266 113.83 291.878 113.83C292.358 113.83 292.802 113.758 293.21 113.614C293.618 113.47 293.984 113.254 294.308 112.966V111.382C293.96 111.19 293.594 111.052 293.21 110.968C292.826 110.872 292.406 110.824 291.95 110.824C291.302 110.824 290.786 110.962 290.402 111.238C290.018 111.514 289.826 111.88 289.826 112.336ZM306.282 113.578C306.738 113.578 307.17 113.488 307.578 113.308C307.986 113.116 308.376 112.834 308.748 112.462L309.828 113.632C309.348 114.112 308.796 114.49 308.172 114.766C307.548 115.03 306.894 115.162 306.21 115.162C305.55 115.162 304.932 115.042 304.356 114.802C303.78 114.55 303.282 114.214 302.862 113.794C302.442 113.374 302.106 112.876 301.854 112.3C301.614 111.712 301.494 111.082 301.494 110.41C301.494 109.75 301.614 109.132 301.854 108.556C302.106 107.968 302.442 107.464 302.862 107.044C303.282 106.612 303.78 106.276 304.356 106.036C304.932 105.784 305.55 105.658 306.21 105.658C306.894 105.658 307.56 105.796 308.208 106.072C308.856 106.336 309.42 106.708 309.9 107.188L308.766 108.412C308.418 108.04 308.028 107.758 307.596 107.566C307.164 107.362 306.714 107.26 306.246 107.26C305.418 107.26 304.716 107.566 304.14 108.178C303.564 108.79 303.276 109.534 303.276 110.41C303.276 111.31 303.564 112.066 304.14 112.678C304.728 113.278 305.442 113.578 306.282 113.578ZM310.529 110.41C310.529 109.75 310.649 109.132 310.889 108.556C311.141 107.968 311.483 107.464 311.915 107.044C312.347 106.612 312.851 106.276 313.427 106.036C314.015 105.784 314.639 105.658 315.299 105.658C315.959 105.658 316.577 105.784 317.153 106.036C317.741 106.276 318.245 106.612 318.665 107.044C319.097 107.464 319.433 107.968 319.673 108.556C319.925 109.132 320.051 109.75 320.051 110.41C320.051 111.082 319.925 111.712 319.673 112.3C319.433 112.876 319.097 113.38 318.665 113.812C318.245 114.232 317.741 114.568 317.153 114.82C316.577 115.06 315.959 115.18 315.299 115.18C314.639 115.18 314.015 115.06 313.427 114.82C312.851 114.568 312.347 114.232 311.915 113.812C311.483 113.38 311.141 112.876 310.889 112.3C310.649 111.712 310.529 111.082 310.529 110.41ZM315.299 113.596C316.127 113.596 316.829 113.29 317.405 112.678C317.993 112.054 318.287 111.298 318.287 110.41C318.287 109.522 317.993 108.772 317.405 108.16C316.829 107.548 316.127 107.242 315.299 107.242C314.471 107.242 313.763 107.548 313.175 108.16C312.587 108.772 312.293 109.522 312.293 110.41C312.293 111.298 312.581 112.054 313.157 112.678C313.745 113.29 314.459 113.596 315.299 113.596ZM321.753 115V105.838H323.553V106.756C323.913 106.396 324.321 106.126 324.777 105.946C325.245 105.754 325.755 105.658 326.307 105.658C327.351 105.658 328.209 105.994 328.881 106.666C329.553 107.326 329.889 108.184 329.889 109.24V115H328.089V109.546C328.089 108.826 327.879 108.262 327.459 107.854C327.051 107.434 326.505 107.224 325.821 107.224C325.341 107.224 324.903 107.326 324.507 107.53C324.123 107.734 323.805 108.028 323.553 108.412V115H321.753ZM331.102 113.812L332.074 112.624C332.554 112.996 333.04 113.284 333.532 113.488C334.036 113.68 334.546 113.776 335.062 113.776C335.71 113.776 336.238 113.65 336.646 113.398C337.054 113.146 337.258 112.816 337.258 112.408C337.258 112.084 337.138 111.826 336.898 111.634C336.658 111.442 336.286 111.31 335.782 111.238L334.126 111.004C333.226 110.872 332.542 110.596 332.074 110.176C331.618 109.744 331.39 109.174 331.39 108.466C331.39 107.638 331.72 106.972 332.38 106.468C333.04 105.952 333.904 105.694 334.972 105.694C335.644 105.694 336.28 105.79 336.88 105.982C337.492 106.174 338.086 106.468 338.662 106.864L337.744 108.052C337.24 107.716 336.748 107.476 336.268 107.332C335.8 107.176 335.326 107.098 334.846 107.098C334.294 107.098 333.85 107.212 333.514 107.44C333.178 107.668 333.01 107.968 333.01 108.34C333.01 108.676 333.124 108.934 333.352 109.114C333.592 109.282 333.982 109.408 334.522 109.492L336.178 109.726C337.078 109.858 337.762 110.14 338.23 110.572C338.71 111.004 338.95 111.574 338.95 112.282C338.95 112.69 338.848 113.074 338.644 113.434C338.452 113.782 338.182 114.082 337.834 114.334C337.498 114.586 337.096 114.79 336.628 114.946C336.16 115.09 335.656 115.162 335.116 115.162C334.324 115.162 333.58 115.048 332.884 114.82C332.2 114.592 331.606 114.256 331.102 113.812ZM341.346 112.732V107.35H339.402V105.838H341.346V103.498L343.128 103.066V105.838H345.828V107.35H343.128V112.318C343.128 112.786 343.23 113.116 343.434 113.308C343.65 113.5 343.998 113.596 344.478 113.596C344.73 113.596 344.952 113.584 345.144 113.56C345.348 113.524 345.564 113.464 345.792 113.38V114.892C345.552 114.976 345.27 115.042 344.946 115.09C344.634 115.138 344.346 115.162 344.082 115.162C343.194 115.162 342.516 114.958 342.048 114.55C341.58 114.13 341.346 113.524 341.346 112.732ZM347.154 115V105.838H348.954V107.008C349.23 106.564 349.584 106.228 350.016 106C350.448 105.76 350.934 105.64 351.474 105.64C351.666 105.64 351.834 105.652 351.978 105.676C352.122 105.7 352.26 105.736 352.392 105.784V107.404C352.224 107.344 352.05 107.296 351.87 107.26C351.69 107.224 351.51 107.206 351.33 107.206C350.802 107.206 350.328 107.35 349.908 107.638C349.5 107.914 349.182 108.328 348.954 108.88V115H347.154ZM355.492 105.838V111.274C355.492 111.994 355.696 112.564 356.104 112.984C356.524 113.404 357.076 113.614 357.76 113.614C358.24 113.614 358.672 113.512 359.056 113.308C359.44 113.092 359.758 112.792 360.01 112.408V105.838H361.81V115H360.01V114.082C359.65 114.442 359.236 114.718 358.768 114.91C358.312 115.09 357.808 115.18 357.256 115.18C356.212 115.18 355.354 114.844 354.682 114.172C354.022 113.5 353.692 112.636 353.692 111.58V105.838H355.492ZM368.315 113.578C368.771 113.578 369.203 113.488 369.611 113.308C370.019 113.116 370.409 112.834 370.781 112.462L371.861 113.632C371.381 114.112 370.829 114.49 370.205 114.766C369.581 115.03 368.927 115.162 368.243 115.162C367.583 115.162 366.965 115.042 366.389 114.802C365.813 114.55 365.315 114.214 364.895 113.794C364.475 113.374 364.139 112.876 363.887 112.3C363.647 111.712 363.527 111.082 363.527 110.41C363.527 109.75 363.647 109.132 363.887 108.556C364.139 107.968 364.475 107.464 364.895 107.044C365.315 106.612 365.813 106.276 366.389 106.036C366.965 105.784 367.583 105.658 368.243 105.658C368.927 105.658 369.593 105.796 370.241 106.072C370.889 106.336 371.453 106.708 371.933 107.188L370.799 108.412C370.451 108.04 370.061 107.758 369.629 107.566C369.197 107.362 368.747 107.26 368.279 107.26C367.451 107.26 366.749 107.566 366.173 108.178C365.597 108.79 365.309 109.534 365.309 110.41C365.309 111.31 365.597 112.066 366.173 112.678C366.761 113.278 367.475 113.578 368.315 113.578ZM377.35 113.578C377.806 113.578 378.238 113.488 378.646 113.308C379.054 113.116 379.444 112.834 379.816 112.462L380.896 113.632C380.416 114.112 379.864 114.49 379.24 114.766C378.616 115.03 377.962 115.162 377.278 115.162C376.618 115.162 376 115.042 375.424 114.802C374.848 114.55 374.35 114.214 373.93 113.794C373.51 113.374 373.174 112.876 372.922 112.3C372.682 111.712 372.562 111.082 372.562 110.41C372.562 109.75 372.682 109.132 372.922 108.556C373.174 107.968 373.51 107.464 373.93 107.044C374.35 106.612 374.848 106.276 375.424 106.036C376 105.784 376.618 105.658 377.278 105.658C377.962 105.658 378.628 105.796 379.276 106.072C379.924 106.336 380.488 106.708 380.968 107.188L379.834 108.412C379.486 108.04 379.096 107.758 378.664 107.566C378.232 107.362 377.782 107.26 377.314 107.26C376.486 107.26 375.784 107.566 375.208 108.178C374.632 108.79 374.344 109.534 374.344 110.41C374.344 111.31 374.632 112.066 375.208 112.678C375.796 113.278 376.51 113.578 377.35 113.578ZM383.263 104.362C382.963 104.362 382.705 104.254 382.489 104.038C382.273 103.81 382.165 103.546 382.165 103.246C382.165 102.946 382.273 102.688 382.489 102.472C382.705 102.244 382.963 102.13 383.263 102.13C383.563 102.13 383.821 102.244 384.037 102.472C384.265 102.688 384.379 102.946 384.379 103.246C384.379 103.546 384.265 103.81 384.037 104.038C383.821 104.254 383.563 104.362 383.263 104.362ZM384.163 105.838V115H382.363V105.838H384.163ZM385.869 110.41C385.869 109.75 385.989 109.132 386.229 108.556C386.481 107.968 386.823 107.464 387.255 107.044C387.687 106.612 388.191 106.276 388.767 106.036C389.355 105.784 389.979 105.658 390.639 105.658C391.299 105.658 391.917 105.784 392.493 106.036C393.081 106.276 393.585 106.612 394.005 107.044C394.437 107.464 394.773 107.968 395.013 108.556C395.265 109.132 395.391 109.75 395.391 110.41C395.391 111.082 395.265 111.712 395.013 112.3C394.773 112.876 394.437 113.38 394.005 113.812C393.585 114.232 393.081 114.568 392.493 114.82C391.917 115.06 391.299 115.18 390.639 115.18C389.979 115.18 389.355 115.06 388.767 114.82C388.191 114.568 387.687 114.232 387.255 113.812C386.823 113.38 386.481 112.876 386.229 112.3C385.989 111.712 385.869 111.082 385.869 110.41ZM390.639 113.596C391.467 113.596 392.169 113.29 392.745 112.678C393.333 112.054 393.627 111.298 393.627 110.41C393.627 109.522 393.333 108.772 392.745 108.16C392.169 107.548 391.467 107.242 390.639 107.242C389.811 107.242 389.103 107.548 388.515 108.16C387.927 108.772 387.633 109.522 387.633 110.41C387.633 111.298 387.921 112.054 388.497 112.678C389.085 113.29 389.799 113.596 390.639 113.596ZM391.215 101.95H393.375L391.071 104.146H389.559L391.215 101.95ZM397.093 115V105.838H398.893V106.756C399.253 106.396 399.661 106.126 400.117 105.946C400.585 105.754 401.095 105.658 401.647 105.658C402.691 105.658 403.549 105.994 404.221 106.666C404.893 107.326 405.229 108.184 405.229 109.24V115H403.429V109.546C403.429 108.826 403.219 108.262 402.799 107.854C402.391 107.434 401.845 107.224 401.161 107.224C400.681 107.224 400.243 107.326 399.847 107.53C399.463 107.734 399.145 108.028 398.893 108.412V115H397.093Z" fill="white"/>
<ellipse cx="13.5" cy="105" rx="13.5" ry="14" fill="#FB2C79"/>
<path d="M46.278 154V141.4H55.566V143.056H48.168V146.836H53.028V148.456H48.168V152.344H55.638V154H46.278ZM57.3647 154V144.838H59.1647V145.702C59.5007 145.366 59.8847 145.108 60.3167 144.928C60.7487 144.748 61.2227 144.658 61.7387 144.658C62.3507 144.658 62.9027 144.796 63.3947 145.072C63.8867 145.336 64.2767 145.708 64.5647 146.188C64.9367 145.684 65.3807 145.306 65.8967 145.054C66.4247 144.79 67.0127 144.658 67.6607 144.658C68.6687 144.658 69.4907 144.994 70.1267 145.666C70.7747 146.326 71.0987 147.184 71.0987 148.24V154H69.2987V148.546C69.2987 147.826 69.1067 147.262 68.7227 146.854C68.3507 146.434 67.8407 146.224 67.1927 146.224C66.7487 146.224 66.3467 146.326 65.9867 146.53C65.6267 146.734 65.3147 147.04 65.0507 147.448C65.0747 147.568 65.0927 147.7 65.1047 147.844C65.1167 147.976 65.1227 148.108 65.1227 148.24V154H63.3407V148.546C63.3407 147.826 63.1487 147.262 62.7647 146.854C62.3927 146.434 61.8827 146.224 61.2347 146.224C60.8027 146.224 60.4127 146.32 60.0647 146.512C59.7167 146.692 59.4167 146.968 59.1647 147.34V154H57.3647ZM74.0675 143.362C73.7675 143.362 73.5095 143.254 73.2935 143.038C73.0775 142.81 72.9695 142.546 72.9695 142.246C72.9695 141.946 73.0775 141.688 73.2935 141.472C73.5095 141.244 73.7675 141.13 74.0675 141.13C74.3675 141.13 74.6255 141.244 74.8415 141.472C75.0695 141.688 75.1835 141.946 75.1835 142.246C75.1835 142.546 75.0695 142.81 74.8415 143.038C74.6255 143.254 74.3675 143.362 74.0675 143.362ZM74.9675 144.838V154H73.1675V144.838H74.9675ZM76.2234 152.812L77.1954 151.624C77.6754 151.996 78.1614 152.284 78.6534 152.488C79.1574 152.68 79.6674 152.776 80.1834 152.776C80.8314 152.776 81.3594 152.65 81.7674 152.398C82.1754 152.146 82.3794 151.816 82.3794 151.408C82.3794 151.084 82.2594 150.826 82.0194 150.634C81.7794 150.442 81.4074 150.31 80.9034 150.238L79.2474 150.004C78.3474 149.872 77.6634 149.596 77.1954 149.176C76.7394 148.744 76.5114 148.174 76.5114 147.466C76.5114 146.638 76.8414 145.972 77.5014 145.468C78.1614 144.952 79.0254 144.694 80.0934 144.694C80.7654 144.694 81.4014 144.79 82.0014 144.982C82.6134 145.174 83.2074 145.468 83.7834 145.864L82.8654 147.052C82.3614 146.716 81.8694 146.476 81.3894 146.332C80.9214 146.176 80.4474 146.098 79.9674 146.098C79.4154 146.098 78.9714 146.212 78.6354 146.44C78.2994 146.668 78.1314 146.968 78.1314 147.34C78.1314 147.676 78.2454 147.934 78.4734 148.114C78.7134 148.282 79.1034 148.408 79.6434 148.492L81.2994 148.726C82.1994 148.858 82.8834 149.14 83.3514 149.572C83.8314 150.004 84.0714 150.574 84.0714 151.282C84.0714 151.69 83.9694 152.074 83.7654 152.434C83.5734 152.782 83.3034 153.082 82.9554 153.334C82.6194 153.586 82.2174 153.79 81.7494 153.946C81.2814 154.09 80.7774 154.162 80.2374 154.162C79.4454 154.162 78.7014 154.048 78.0054 153.82C77.3214 153.592 76.7274 153.256 76.2234 152.812ZM86.3546 143.362C86.0546 143.362 85.7966 143.254 85.5806 143.038C85.3646 142.81 85.2566 142.546 85.2566 142.246C85.2566 141.946 85.3646 141.688 85.5806 141.472C85.7966 141.244 86.0546 141.13 86.3546 141.13C86.6546 141.13 86.9126 141.244 87.1286 141.472C87.3566 141.688 87.4706 141.946 87.4706 142.246C87.4706 142.546 87.3566 142.81 87.1286 143.038C86.9126 143.254 86.6546 143.362 86.3546 143.362ZM87.2546 144.838V154H85.4546V144.838H87.2546ZM88.9605 149.41C88.9605 148.75 89.0805 148.132 89.3205 147.556C89.5725 146.968 89.9145 146.464 90.3465 146.044C90.7785 145.612 91.2825 145.276 91.8585 145.036C92.4465 144.784 93.0705 144.658 93.7305 144.658C94.3905 144.658 95.0085 144.784 95.5845 145.036C96.1725 145.276 96.6765 145.612 97.0965 146.044C97.5285 146.464 97.8645 146.968 98.1045 147.556C98.3565 148.132 98.4825 148.75 98.4825 149.41C98.4825 150.082 98.3565 150.712 98.1045 151.3C97.8645 151.876 97.5285 152.38 97.0965 152.812C96.6765 153.232 96.1725 153.568 95.5845 153.82C95.0085 154.06 94.3905 154.18 93.7305 154.18C93.0705 154.18 92.4465 154.06 91.8585 153.82C91.2825 153.568 90.7785 153.232 90.3465 152.812C89.9145 152.38 89.5725 151.876 89.3205 151.3C89.0805 150.712 88.9605 150.082 88.9605 149.41ZM93.7305 152.596C94.5585 152.596 95.2605 152.29 95.8365 151.678C96.4245 151.054 96.7185 150.298 96.7185 149.41C96.7185 148.522 96.4245 147.772 95.8365 147.16C95.2605 146.548 94.5585 146.242 93.7305 146.242C92.9025 146.242 92.1945 146.548 91.6065 147.16C91.0185 147.772 90.7245 148.522 90.7245 149.41C90.7245 150.298 91.0125 151.054 91.5885 151.678C92.1765 152.29 92.8905 152.596 93.7305 152.596ZM100.185 154V144.838H101.985V145.756C102.345 145.396 102.753 145.126 103.209 144.946C103.677 144.754 104.187 144.658 104.739 144.658C105.783 144.658 106.641 144.994 107.313 145.666C107.985 146.326 108.321 147.184 108.321 148.24V154H106.521V148.546C106.521 147.826 106.311 147.262 105.891 146.854C105.483 146.434 104.937 146.224 104.253 146.224C103.773 146.224 103.335 146.326 102.939 146.53C102.555 146.734 102.237 147.028 101.985 147.412V154H100.185ZM118.336 152.956C117.808 153.364 117.256 153.67 116.68 153.874C116.104 154.066 115.474 154.162 114.79 154.162C114.118 154.162 113.488 154.042 112.9 153.802C112.312 153.55 111.802 153.214 111.37 152.794C110.938 152.374 110.596 151.876 110.344 151.3C110.104 150.712 109.984 150.082 109.984 149.41C109.984 148.75 110.104 148.132 110.344 147.556C110.584 146.98 110.908 146.482 111.316 146.062C111.724 145.642 112.21 145.312 112.774 145.072C113.338 144.82 113.938 144.694 114.574 144.694C115.198 144.694 115.78 144.82 116.32 145.072C116.872 145.312 117.34 145.648 117.724 146.08C118.12 146.5 118.432 147.004 118.66 147.592C118.888 148.18 119.002 148.81 119.002 149.482V150.004H111.766C111.886 150.76 112.234 151.39 112.81 151.894C113.386 152.386 114.07 152.632 114.862 152.632C115.306 152.632 115.732 152.56 116.14 152.416C116.548 152.272 116.896 152.074 117.184 151.822L118.336 152.956ZM114.538 146.206C113.854 146.206 113.254 146.434 112.738 146.89C112.234 147.346 111.916 147.934 111.784 148.654H117.22C117.088 147.958 116.77 147.376 116.266 146.908C115.774 146.44 115.198 146.206 114.538 146.206ZM119.94 152.812L120.912 151.624C121.392 151.996 121.878 152.284 122.37 152.488C122.874 152.68 123.384 152.776 123.9 152.776C124.548 152.776 125.076 152.65 125.484 152.398C125.892 152.146 126.096 151.816 126.096 151.408C126.096 151.084 125.976 150.826 125.736 150.634C125.496 150.442 125.124 150.31 124.62 150.238L122.964 150.004C122.064 149.872 121.38 149.596 120.912 149.176C120.456 148.744 120.228 148.174 120.228 147.466C120.228 146.638 120.558 145.972 121.218 145.468C121.878 144.952 122.742 144.694 123.81 144.694C124.482 144.694 125.118 144.79 125.718 144.982C126.33 145.174 126.924 145.468 127.5 145.864L126.582 147.052C126.078 146.716 125.586 146.476 125.106 146.332C124.638 146.176 124.164 146.098 123.684 146.098C123.132 146.098 122.688 146.212 122.352 146.44C122.016 146.668 121.848 146.968 121.848 147.34C121.848 147.676 121.962 147.934 122.19 148.114C122.43 148.282 122.82 148.408 123.36 148.492L125.016 148.726C125.916 148.858 126.6 149.14 127.068 149.572C127.548 150.004 127.788 150.574 127.788 151.282C127.788 151.69 127.686 152.074 127.482 152.434C127.29 152.782 127.02 153.082 126.672 153.334C126.336 153.586 125.934 153.79 125.466 153.946C124.998 154.09 124.494 154.162 123.954 154.162C123.162 154.162 122.418 154.048 121.722 153.82C121.038 153.592 120.444 153.256 119.94 152.812ZM132.177 144.838H134.301V143.452C134.301 142.504 134.565 141.778 135.093 141.274C135.633 140.758 136.407 140.5 137.415 140.5C137.655 140.5 137.883 140.518 138.099 140.554C138.315 140.578 138.519 140.614 138.711 140.662V142.228C138.495 142.168 138.303 142.126 138.135 142.102C137.967 142.078 137.781 142.066 137.577 142.066C137.085 142.066 136.713 142.186 136.461 142.426C136.221 142.654 136.101 143.008 136.101 143.488V144.838H138.711V146.35H136.101V154H134.301V146.35H132.177V144.838ZM141.851 144.838V150.274C141.851 150.994 142.055 151.564 142.463 151.984C142.883 152.404 143.435 152.614 144.119 152.614C144.599 152.614 145.031 152.512 145.415 152.308C145.799 152.092 146.117 151.792 146.369 151.408V144.838H148.169V154H146.369V153.082C146.009 153.442 145.595 153.718 145.127 153.91C144.671 154.09 144.167 154.18 143.615 154.18C142.571 154.18 141.713 153.844 141.041 153.172C140.381 152.5 140.051 151.636 140.051 150.58V144.838H141.851ZM154.494 154.072C153.858 154.072 153.258 153.952 152.694 153.712C152.13 153.46 151.638 153.124 151.218 152.704C150.81 152.284 150.486 151.786 150.246 151.21C150.006 150.634 149.886 150.022 149.886 149.374C149.886 148.726 150.006 148.114 150.246 147.538C150.486 146.962 150.81 146.464 151.218 146.044C151.638 145.624 152.13 145.294 152.694 145.054C153.27 144.802 153.882 144.676 154.53 144.676C155.022 144.676 155.496 144.754 155.952 144.91C156.42 145.066 156.852 145.294 157.248 145.594V144.838H159.03V154.126C159.03 155.314 158.664 156.226 157.932 156.862C157.212 157.51 156.18 157.834 154.836 157.834C154.176 157.834 153.522 157.756 152.874 157.6C152.238 157.444 151.662 157.222 151.146 156.934L151.848 155.53C152.364 155.794 152.862 155.992 153.342 156.124C153.822 156.256 154.302 156.322 154.782 156.322C155.574 156.322 156.18 156.136 156.6 155.764C157.02 155.392 157.23 154.846 157.23 154.126V153.1C156.846 153.412 156.42 153.652 155.952 153.82C155.484 153.988 154.998 154.072 154.494 154.072ZM151.65 149.374C151.65 150.25 151.944 150.994 152.532 151.606C153.12 152.206 153.846 152.506 154.71 152.506C155.226 152.506 155.7 152.416 156.132 152.236C156.564 152.044 156.93 151.78 157.23 151.444V147.304C156.942 146.968 156.576 146.71 156.132 146.53C155.7 146.338 155.226 146.242 154.71 146.242C153.846 146.242 153.12 146.548 152.532 147.16C151.944 147.76 151.65 148.498 151.65 149.374ZM162.046 143.362C161.746 143.362 161.488 143.254 161.272 143.038C161.056 142.81 160.948 142.546 160.948 142.246C160.948 141.946 161.056 141.688 161.272 141.472C161.488 141.244 161.746 141.13 162.046 141.13C162.346 141.13 162.604 141.244 162.82 141.472C163.048 141.688 163.162 141.946 163.162 142.246C163.162 142.546 163.048 142.81 162.82 143.038C162.604 143.254 162.346 143.362 162.046 143.362ZM162.946 144.838V154H161.146V144.838H162.946ZM166.254 151.732V146.35H164.31V144.838H166.254V142.498L168.036 142.066V144.838H170.736V146.35H168.036V151.318C168.036 151.786 168.138 152.116 168.342 152.308C168.558 152.5 168.906 152.596 169.386 152.596C169.638 152.596 169.86 152.584 170.052 152.56C170.256 152.524 170.472 152.464 170.7 152.38V153.892C170.46 153.976 170.178 154.042 169.854 154.09C169.542 154.138 169.254 154.162 168.99 154.162C168.102 154.162 167.424 153.958 166.956 153.55C166.488 153.13 166.254 152.524 166.254 151.732ZM172.962 143.362C172.662 143.362 172.404 143.254 172.188 143.038C171.972 142.81 171.864 142.546 171.864 142.246C171.864 141.946 171.972 141.688 172.188 141.472C172.404 141.244 172.662 141.13 172.962 141.13C173.262 141.13 173.52 141.244 173.736 141.472C173.964 141.688 174.078 141.946 174.078 142.246C174.078 142.546 173.964 142.81 173.736 143.038C173.52 143.254 173.262 143.362 172.962 143.362ZM173.862 144.838V154H172.062V144.838H173.862ZM178.934 154L174.974 144.838H176.954L179.816 151.696L182.678 144.838H184.604L180.644 154H178.934ZM188.618 154.162C187.622 154.162 186.812 153.904 186.188 153.388C185.564 152.872 185.252 152.2 185.252 151.372C185.252 150.508 185.582 149.83 186.242 149.338C186.902 148.834 187.808 148.582 188.96 148.582C189.404 148.582 189.836 148.63 190.256 148.726C190.676 148.81 191.078 148.93 191.462 149.086V148.114C191.462 147.466 191.27 146.98 190.886 146.656C190.502 146.332 189.95 146.17 189.23 146.17C188.81 146.17 188.372 146.236 187.916 146.368C187.46 146.488 186.95 146.68 186.386 146.944L185.72 145.594C186.404 145.27 187.052 145.036 187.664 144.892C188.276 144.736 188.882 144.658 189.482 144.658C190.67 144.658 191.588 144.946 192.236 145.522C192.896 146.086 193.226 146.89 193.226 147.934V154H191.462V153.208C191.054 153.532 190.616 153.772 190.148 153.928C189.68 154.084 189.17 154.162 188.618 154.162ZM186.98 151.336C186.98 151.78 187.166 152.14 187.538 152.416C187.922 152.692 188.42 152.83 189.032 152.83C189.512 152.83 189.956 152.758 190.364 152.614C190.772 152.47 191.138 152.254 191.462 151.966V150.382C191.114 150.19 190.748 150.052 190.364 149.968C189.98 149.872 189.56 149.824 189.104 149.824C188.456 149.824 187.94 149.962 187.556 150.238C187.172 150.514 186.98 150.88 186.98 151.336ZM194.436 152.812L195.408 151.624C195.888 151.996 196.374 152.284 196.866 152.488C197.37 152.68 197.88 152.776 198.396 152.776C199.044 152.776 199.572 152.65 199.98 152.398C200.388 152.146 200.592 151.816 200.592 151.408C200.592 151.084 200.472 150.826 200.232 150.634C199.992 150.442 199.62 150.31 199.116 150.238L197.46 150.004C196.56 149.872 195.876 149.596 195.408 149.176C194.952 148.744 194.724 148.174 194.724 147.466C194.724 146.638 195.054 145.972 195.714 145.468C196.374 144.952 197.238 144.694 198.306 144.694C198.978 144.694 199.614 144.79 200.214 144.982C200.826 145.174 201.42 145.468 201.996 145.864L201.078 147.052C200.574 146.716 200.082 146.476 199.602 146.332C199.134 146.176 198.66 146.098 198.18 146.098C197.628 146.098 197.184 146.212 196.848 146.44C196.512 146.668 196.344 146.968 196.344 147.34C196.344 147.676 196.458 147.934 196.686 148.114C196.926 148.282 197.316 148.408 197.856 148.492L199.512 148.726C200.412 148.858 201.096 149.14 201.564 149.572C202.044 150.004 202.284 150.574 202.284 151.282C202.284 151.69 202.182 152.074 201.978 152.434C201.786 152.782 201.516 153.082 201.168 153.334C200.832 153.586 200.43 153.79 199.962 153.946C199.494 154.09 198.99 154.162 198.45 154.162C197.658 154.162 196.914 154.048 196.218 153.82C195.534 153.592 194.94 153.256 194.436 152.812Z" fill="white"/>
<path d="M58.86 195.7C58.86 196.6 58.686 197.452 58.338 198.256C58.002 199.048 57.54 199.738 56.952 200.326C56.364 200.902 55.668 201.358 54.864 201.694C54.06 202.03 53.202 202.198 52.29 202.198C51.378 202.198 50.52 202.03 49.716 201.694C48.912 201.358 48.216 200.902 47.628 200.326C47.052 199.738 46.59 199.048 46.242 198.256C45.906 197.452 45.738 196.6 45.738 195.7C45.738 194.8 45.906 193.954 46.242 193.162C46.59 192.358 47.052 191.668 47.628 191.092C48.216 190.504 48.912 190.042 49.716 189.706C50.52 189.37 51.378 189.202 52.29 189.202C53.202 189.202 54.06 189.37 54.864 189.706C55.668 190.042 56.364 190.504 56.952 191.092C57.54 191.668 58.002 192.358 58.338 193.162C58.686 193.954 58.86 194.8 58.86 195.7ZM56.934 195.7C56.934 195.028 56.814 194.404 56.574 193.828C56.334 193.24 56.004 192.736 55.584 192.316C55.176 191.884 54.684 191.548 54.108 191.308C53.544 191.068 52.938 190.948 52.29 190.948C51.642 190.948 51.036 191.068 50.472 191.308C49.908 191.548 49.416 191.884 48.996 192.316C48.588 192.736 48.264 193.24 48.024 193.828C47.784 194.404 47.664 195.028 47.664 195.7C47.664 196.372 47.784 197.002 48.024 197.59C48.264 198.166 48.588 198.664 48.996 199.084C49.416 199.504 49.908 199.84 50.472 200.092C51.036 200.332 51.642 200.452 52.29 200.452C52.938 200.452 53.544 200.332 54.108 200.092C54.684 199.84 55.176 199.504 55.584 199.084C56.004 198.664 56.334 198.166 56.574 197.59C56.814 197.002 56.934 196.372 56.934 195.7ZM61.8398 199.732V194.35H59.8958V192.838H61.8398V190.498L63.6218 190.066V192.838H66.3218V194.35H63.6218V199.318C63.6218 199.786 63.7238 200.116 63.9278 200.308C64.1438 200.5 64.4918 200.596 64.9718 200.596C65.2238 200.596 65.4458 200.584 65.6378 200.56C65.8418 200.524 66.0578 200.464 66.2858 200.38V201.892C66.0458 201.976 65.7638 202.042 65.4398 202.09C65.1278 202.138 64.8398 202.162 64.5758 202.162C63.6878 202.162 63.0098 201.958 62.5418 201.55C62.0738 201.13 61.8398 200.524 61.8398 199.732ZM67.6479 202V192.838H69.4479V194.008C69.7239 193.564 70.0779 193.228 70.5099 193C70.9419 192.76 71.4279 192.64 71.9679 192.64C72.1599 192.64 72.3279 192.652 72.4719 192.676C72.6159 192.7 72.7539 192.736 72.8859 192.784V194.404C72.7179 194.344 72.5439 194.296 72.3639 194.26C72.1839 194.224 72.0039 194.206 71.8239 194.206C71.2959 194.206 70.8219 194.35 70.4019 194.638C69.9939 194.914 69.6759 195.328 69.4479 195.88V202H67.6479ZM73.3511 197.41C73.3511 196.75 73.4711 196.132 73.7111 195.556C73.9631 194.968 74.3051 194.464 74.7371 194.044C75.1691 193.612 75.6731 193.276 76.2491 193.036C76.8371 192.784 77.4611 192.658 78.1211 192.658C78.7811 192.658 79.3991 192.784 79.9751 193.036C80.5631 193.276 81.0671 193.612 81.4871 194.044C81.9191 194.464 82.2551 194.968 82.4951 195.556C82.7471 196.132 82.8731 196.75 82.8731 197.41C82.8731 198.082 82.7471 198.712 82.4951 199.3C82.2551 199.876 81.9191 200.38 81.4871 200.812C81.0671 201.232 80.5631 201.568 79.9751 201.82C79.3991 202.06 78.7811 202.18 78.1211 202.18C77.4611 202.18 76.8371 202.06 76.2491 201.82C75.6731 201.568 75.1691 201.232 74.7371 200.812C74.3051 200.38 73.9631 199.876 73.7111 199.3C73.4711 198.712 73.3511 198.082 73.3511 197.41ZM78.1211 200.596C78.9491 200.596 79.6511 200.29 80.2271 199.678C80.8151 199.054 81.1091 198.298 81.1091 197.41C81.1091 196.522 80.8151 195.772 80.2271 195.16C79.6511 194.548 78.9491 194.242 78.1211 194.242C77.2931 194.242 76.5851 194.548 75.9971 195.16C75.4091 195.772 75.1151 196.522 75.1151 197.41C75.1151 198.298 75.4031 199.054 75.9791 199.678C76.5671 200.29 77.2811 200.596 78.1211 200.596ZM83.7117 200.812L84.6837 199.624C85.1637 199.996 85.6497 200.284 86.1417 200.488C86.6457 200.68 87.1557 200.776 87.6717 200.776C88.3197 200.776 88.8477 200.65 89.2557 200.398C89.6637 200.146 89.8677 199.816 89.8677 199.408C89.8677 199.084 89.7477 198.826 89.5077 198.634C89.2677 198.442 88.8957 198.31 88.3917 198.238L86.7357 198.004C85.8357 197.872 85.1517 197.596 84.6837 197.176C84.2277 196.744 83.9997 196.174 83.9997 195.466C83.9997 194.638 84.3297 193.972 84.9897 193.468C85.6497 192.952 86.5137 192.694 87.5817 192.694C88.2537 192.694 88.8897 192.79 89.4897 192.982C90.1017 193.174 90.6957 193.468 91.2717 193.864L90.3537 195.052C89.8497 194.716 89.3577 194.476 88.8777 194.332C88.4097 194.176 87.9357 194.098 87.4557 194.098C86.9037 194.098 86.4597 194.212 86.1237 194.44C85.7877 194.668 85.6197 194.968 85.6197 195.34C85.6197 195.676 85.7337 195.934 85.9617 196.114C86.2017 196.282 86.5917 196.408 87.1317 196.492L88.7877 196.726C89.6877 196.858 90.3717 197.14 90.8397 197.572C91.3197 198.004 91.5597 198.574 91.5597 199.282C91.5597 199.69 91.4577 200.074 91.2537 200.434C91.0617 200.782 90.7917 201.082 90.4437 201.334C90.1077 201.586 89.7057 201.79 89.2377 201.946C88.7697 202.09 88.2657 202.162 87.7257 202.162C86.9337 202.162 86.1897 202.048 85.4937 201.82C84.8097 201.592 84.2157 201.256 83.7117 200.812ZM95.8406 200.812L96.8126 199.624C97.2926 199.996 97.7786 200.284 98.2706 200.488C98.7746 200.68 99.2846 200.776 99.8006 200.776C100.449 200.776 100.977 200.65 101.385 200.398C101.793 200.146 101.997 199.816 101.997 199.408C101.997 199.084 101.877 198.826 101.637 198.634C101.397 198.442 101.025 198.31 100.521 198.238L98.8646 198.004C97.9646 197.872 97.2806 197.596 96.8126 197.176C96.3566 196.744 96.1286 196.174 96.1286 195.466C96.1286 194.638 96.4586 193.972 97.1186 193.468C97.7786 192.952 98.6426 192.694 99.7106 192.694C100.383 192.694 101.019 192.79 101.619 192.982C102.231 193.174 102.825 193.468 103.401 193.864L102.483 195.052C101.979 194.716 101.487 194.476 101.007 194.332C100.539 194.176 100.065 194.098 99.5846 194.098C99.0326 194.098 98.5886 194.212 98.2526 194.44C97.9166 194.668 97.7486 194.968 97.7486 195.34C97.7486 195.676 97.8626 195.934 98.0906 196.114C98.3306 196.282 98.7206 196.408 99.2606 196.492L100.917 196.726C101.817 196.858 102.501 197.14 102.969 197.572C103.449 198.004 103.689 198.574 103.689 199.282C103.689 199.69 103.587 200.074 103.383 200.434C103.191 200.782 102.921 201.082 102.573 201.334C102.237 201.586 101.835 201.79 101.367 201.946C100.899 202.09 100.395 202.162 99.8546 202.162C99.0626 202.162 98.3186 202.048 97.6226 201.82C96.9386 201.592 96.3446 201.256 95.8406 200.812ZM113.098 200.956C112.57 201.364 112.018 201.67 111.442 201.874C110.866 202.066 110.236 202.162 109.552 202.162C108.88 202.162 108.25 202.042 107.662 201.802C107.074 201.55 106.564 201.214 106.132 200.794C105.7 200.374 105.358 199.876 105.106 199.3C104.866 198.712 104.746 198.082 104.746 197.41C104.746 196.75 104.866 196.132 105.106 195.556C105.346 194.98 105.67 194.482 106.078 194.062C106.486 193.642 106.972 193.312 107.536 193.072C108.1 192.82 108.7 192.694 109.336 192.694C109.96 192.694 110.542 192.82 111.082 193.072C111.634 193.312 112.102 193.648 112.486 194.08C112.882 194.5 113.194 195.004 113.422 195.592C113.65 196.18 113.764 196.81 113.764 197.482V198.004H106.528C106.648 198.76 106.996 199.39 107.572 199.894C108.148 200.386 108.832 200.632 109.624 200.632C110.068 200.632 110.494 200.56 110.902 200.416C111.31 200.272 111.658 200.074 111.946 199.822L113.098 200.956ZM109.3 194.206C108.616 194.206 108.016 194.434 107.5 194.89C106.996 195.346 106.678 195.934 106.546 196.654H111.982C111.85 195.958 111.532 195.376 111.028 194.908C110.536 194.44 109.96 194.206 109.3 194.206ZM119.887 200.578C120.343 200.578 120.775 200.488 121.183 200.308C121.591 200.116 121.981 199.834 122.353 199.462L123.433 200.632C122.953 201.112 122.401 201.49 121.777 201.766C121.153 202.03 120.499 202.162 119.815 202.162C119.155 202.162 118.537 202.042 117.961 201.802C117.385 201.55 116.887 201.214 116.467 200.794C116.047 200.374 115.711 199.876 115.459 199.3C115.219 198.712 115.099 198.082 115.099 197.41C115.099 196.75 115.219 196.132 115.459 195.556C115.711 194.968 116.047 194.464 116.467 194.044C116.887 193.612 117.385 193.276 117.961 193.036C118.537 192.784 119.155 192.658 119.815 192.658C120.499 192.658 121.165 192.796 121.813 193.072C122.461 193.336 123.025 193.708 123.505 194.188L122.371 195.412C122.023 195.04 121.633 194.758 121.201 194.566C120.769 194.362 120.319 194.26 119.851 194.26C119.023 194.26 118.321 194.566 117.745 195.178C117.169 195.79 116.881 196.534 116.881 197.41C116.881 198.31 117.169 199.066 117.745 199.678C118.333 200.278 119.047 200.578 119.887 200.578ZM126.264 199.732V194.35H124.32V192.838H126.264V190.498L128.046 190.066V192.838H130.746V194.35H128.046V199.318C128.046 199.786 128.148 200.116 128.352 200.308C128.568 200.5 128.916 200.596 129.396 200.596C129.648 200.596 129.87 200.584 130.062 200.56C130.266 200.524 130.482 200.464 130.71 200.38V201.892C130.47 201.976 130.188 202.042 129.864 202.09C129.552 202.138 129.264 202.162 129 202.162C128.112 202.162 127.434 201.958 126.966 201.55C126.498 201.13 126.264 200.524 126.264 199.732ZM131.464 197.41C131.464 196.75 131.584 196.132 131.824 195.556C132.076 194.968 132.418 194.464 132.85 194.044C133.282 193.612 133.786 193.276 134.362 193.036C134.95 192.784 135.574 192.658 136.234 192.658C136.894 192.658 137.512 192.784 138.088 193.036C138.676 193.276 139.18 193.612 139.6 194.044C140.032 194.464 140.368 194.968 140.608 195.556C140.86 196.132 140.986 196.75 140.986 197.41C140.986 198.082 140.86 198.712 140.608 199.3C140.368 199.876 140.032 200.38 139.6 200.812C139.18 201.232 138.676 201.568 138.088 201.82C137.512 202.06 136.894 202.18 136.234 202.18C135.574 202.18 134.95 202.06 134.362 201.82C133.786 201.568 133.282 201.232 132.85 200.812C132.418 200.38 132.076 199.876 131.824 199.3C131.584 198.712 131.464 198.082 131.464 197.41ZM136.234 200.596C137.062 200.596 137.764 200.29 138.34 199.678C138.928 199.054 139.222 198.298 139.222 197.41C139.222 196.522 138.928 195.772 138.34 195.16C137.764 194.548 137.062 194.242 136.234 194.242C135.406 194.242 134.698 194.548 134.11 195.16C133.522 195.772 133.228 196.522 133.228 197.41C133.228 198.298 133.516 199.054 134.092 199.678C134.68 200.29 135.394 200.596 136.234 200.596ZM142.689 202V192.838H144.489V194.008C144.765 193.564 145.119 193.228 145.551 193C145.983 192.76 146.469 192.64 147.009 192.64C147.201 192.64 147.369 192.652 147.513 192.676C147.657 192.7 147.795 192.736 147.927 192.784V194.404C147.759 194.344 147.585 194.296 147.405 194.26C147.225 194.224 147.045 194.206 146.865 194.206C146.337 194.206 145.863 194.35 145.443 194.638C145.035 194.914 144.717 195.328 144.489 195.88V202H142.689ZM156.744 200.956C156.216 201.364 155.664 201.67 155.088 201.874C154.512 202.066 153.882 202.162 153.198 202.162C152.526 202.162 151.896 202.042 151.308 201.802C150.72 201.55 150.21 201.214 149.778 200.794C149.346 200.374 149.004 199.876 148.752 199.3C148.512 198.712 148.392 198.082 148.392 197.41C148.392 196.75 148.512 196.132 148.752 195.556C148.992 194.98 149.316 194.482 149.724 194.062C150.132 193.642 150.618 193.312 151.182 193.072C151.746 192.82 152.346 192.694 152.982 192.694C153.606 192.694 154.188 192.82 154.728 193.072C155.28 193.312 155.748 193.648 156.132 194.08C156.528 194.5 156.84 195.004 157.068 195.592C157.296 196.18 157.41 196.81 157.41 197.482V198.004H150.174C150.294 198.76 150.642 199.39 151.218 199.894C151.794 200.386 152.478 200.632 153.27 200.632C153.714 200.632 154.14 200.56 154.548 200.416C154.956 200.272 155.304 200.074 155.592 199.822L156.744 200.956ZM152.946 194.206C152.262 194.206 151.662 194.434 151.146 194.89C150.642 195.346 150.324 195.934 150.192 196.654H155.628C155.496 195.958 155.178 195.376 154.674 194.908C154.182 194.44 153.606 194.206 152.946 194.206ZM158.348 200.812L159.32 199.624C159.8 199.996 160.286 200.284 160.778 200.488C161.282 200.68 161.792 200.776 162.308 200.776C162.956 200.776 163.484 200.65 163.892 200.398C164.3 200.146 164.504 199.816 164.504 199.408C164.504 199.084 164.384 198.826 164.144 198.634C163.904 198.442 163.532 198.31 163.028 198.238L161.372 198.004C160.472 197.872 159.788 197.596 159.32 197.176C158.864 196.744 158.636 196.174 158.636 195.466C158.636 194.638 158.966 193.972 159.626 193.468C160.286 192.952 161.15 192.694 162.218 192.694C162.89 192.694 163.526 192.79 164.126 192.982C164.738 193.174 165.332 193.468 165.908 193.864L164.99 195.052C164.486 194.716 163.994 194.476 163.514 194.332C163.046 194.176 162.572 194.098 162.092 194.098C161.54 194.098 161.096 194.212 160.76 194.44C160.424 194.668 160.256 194.968 160.256 195.34C160.256 195.676 160.37 195.934 160.598 196.114C160.838 196.282 161.228 196.408 161.768 196.492L163.424 196.726C164.324 196.858 165.008 197.14 165.476 197.572C165.956 198.004 166.196 198.574 166.196 199.282C166.196 199.69 166.094 200.074 165.89 200.434C165.698 200.782 165.428 201.082 165.08 201.334C164.744 201.586 164.342 201.79 163.874 201.946C163.406 202.09 162.902 202.162 162.362 202.162C161.57 202.162 160.826 202.048 160.13 201.82C159.446 201.592 158.852 201.256 158.348 200.812Z" fill="white"/>
<ellipse cx="13.5" cy="150" rx="13.5" ry="14" fill="#77B6EA"/>
<ellipse cx="13.5" cy="195" rx="13.5" ry="14" fill="#91F5AD"/>
<ellipse cx="13.5" cy="59.5" rx="13.5" ry="14.5" fill="#C2E812"/>
<ellipse cx="13.5" cy="14" rx="13.5" ry="14" fill="#FFBF46"/>
</svg>
