<svg width="972" height="499" viewBox="0 0 972 499" fill="none" xmlns="http://www.w3.org/2000/svg">
<rect x="485" y="418" width="18" height="25" transform="rotate(-90 485 418)" fill="#FFC743"/>
<rect x="136" y="419" width="18" height="25" transform="rotate(-90 136 419)" fill="#2C9984"/>
<rect x="623" y="419" width="18" height="25" transform="rotate(-90 623 419)" fill="#E8E9E4"/>
<rect x="312" y="417" width="18" height="25" transform="rotate(-90 312 417)" fill="#90DFAA"/>
<line x1="88" y1="13" x2="88" y2="487" stroke="white" stroke-width="6"/>
<line x1="759" y1="420" x2="11" y2="420" stroke="white" stroke-width="6"/>
<path d="M64.808 386.192C64.0507 386.192 63.3947 386.064 62.84 385.808C62.296 385.552 61.8107 385.211 61.384 384.784L62.152 383.744C62.504 384.085 62.8773 384.357 63.272 384.56C63.6667 384.763 64.1147 384.864 64.616 384.864C65.224 384.864 65.72 384.672 66.104 384.288C66.4987 383.904 66.696 383.392 66.696 382.752C66.696 382.112 66.5147 381.611 66.152 381.248C65.7893 380.885 65.304 380.704 64.696 380.704C64.376 380.704 64.0987 380.752 63.864 380.848C63.6293 380.933 63.3467 381.083 63.016 381.296L62.216 380.784L62.536 375.808H67.832V377.184H63.944L63.704 379.888C64.1627 379.643 64.6427 379.52 65.144 379.52C66.072 379.52 66.8347 379.792 67.432 380.336C68.0293 380.869 68.328 381.659 68.328 382.704C68.328 383.419 68.1627 384.043 67.832 384.576C67.512 385.099 67.0853 385.499 66.552 385.776C66.0187 386.053 65.4373 386.192 64.808 386.192Z" fill="white"/>
<path d="M53.72 336.672H56.024V329.632H54.152V328.608C55.0587 328.448 55.816 328.181 56.424 327.808H57.64V336.672H59.688V338H53.72V336.672ZM64.4543 338.192C63.3983 338.192 62.5716 337.728 61.9743 336.8C61.3769 335.872 61.0783 334.56 61.0783 332.864C61.0783 331.168 61.3769 329.872 61.9743 328.976C62.5716 328.069 63.3983 327.616 64.4543 327.616C65.5103 327.616 66.3369 328.069 66.9343 328.976C67.5316 329.883 67.8303 331.179 67.8303 332.864C67.8303 334.56 67.5316 335.872 66.9343 336.8C66.3369 337.728 65.5103 338.192 64.4543 338.192ZM64.4543 336.912C65.0196 336.912 65.4623 336.587 65.7823 335.936C66.1129 335.285 66.2783 334.261 66.2783 332.864C66.2783 330.219 65.6703 328.896 64.4543 328.896C63.2383 328.896 62.6303 330.219 62.6303 332.864C62.6303 334.261 62.7903 335.285 63.1103 335.936C63.4409 336.587 63.8889 336.912 64.4543 336.912Z" fill="white"/>
<path d="M53.72 288.672H56.024V281.632H54.152V280.608C55.0587 280.448 55.816 280.181 56.424 279.808H57.64V288.672H59.688V290H53.72V288.672ZM64.2143 290.192C63.4569 290.192 62.8009 290.064 62.2463 289.808C61.7023 289.552 61.2169 289.211 60.7903 288.784L61.5583 287.744C61.9103 288.085 62.2836 288.357 62.6783 288.56C63.0729 288.763 63.5209 288.864 64.0223 288.864C64.6303 288.864 65.1263 288.672 65.5103 288.288C65.9049 287.904 66.1023 287.392 66.1023 286.752C66.1023 286.112 65.9209 285.611 65.5583 285.248C65.1956 284.885 64.7103 284.704 64.1023 284.704C63.7823 284.704 63.5049 284.752 63.2703 284.848C63.0356 284.933 62.7529 285.083 62.4223 285.296L61.6223 284.784L61.9423 279.808H67.2383V281.184H63.3503L63.1103 283.888C63.5689 283.643 64.0489 283.52 64.5503 283.52C65.4783 283.52 66.2409 283.792 66.8383 284.336C67.4356 284.869 67.7343 285.659 67.7343 286.704C67.7343 287.419 67.5689 288.043 67.2383 288.576C66.9183 289.099 66.4916 289.499 65.9583 289.776C65.4249 290.053 64.8436 290.192 64.2143 290.192Z" fill="white"/>
<path d="M54.624 241.056C55.7867 239.915 56.6773 239.008 57.296 238.336C57.9253 237.653 58.416 237.019 58.768 236.432C59.1307 235.835 59.312 235.28 59.312 234.768C59.312 234.192 59.1573 233.739 58.848 233.408C58.5387 233.077 58.096 232.912 57.52 232.912C56.8267 232.912 56.1387 233.301 55.456 234.08L54.544 233.184C55.024 232.661 55.5093 232.272 56 232.016C56.5013 231.749 57.0773 231.616 57.728 231.616C58.688 231.616 59.4507 231.899 60.016 232.464C60.592 233.019 60.88 233.76 60.88 234.688C60.88 235.275 60.7147 235.877 60.384 236.496C60.064 237.115 59.6373 237.739 59.104 238.368C58.5813 238.987 57.872 239.771 56.976 240.72C57.7013 240.656 58.272 240.624 58.688 240.624H61.376V242H54.624V241.056ZM66.1418 242.192C65.0858 242.192 64.2591 241.728 63.6618 240.8C63.0644 239.872 62.7658 238.56 62.7658 236.864C62.7658 235.168 63.0644 233.872 63.6618 232.976C64.2591 232.069 65.0858 231.616 66.1418 231.616C67.1978 231.616 68.0244 232.069 68.6218 232.976C69.2191 233.883 69.5178 235.179 69.5178 236.864C69.5178 238.56 69.2191 239.872 68.6218 240.8C68.0244 241.728 67.1978 242.192 66.1418 242.192ZM66.1418 240.912C66.7071 240.912 67.1498 240.587 67.4698 239.936C67.8004 239.285 67.9658 238.261 67.9658 236.864C67.9658 234.219 67.3578 232.896 66.1418 232.896C64.9258 232.896 64.3178 234.219 64.3178 236.864C64.3178 238.261 64.4778 239.285 64.7978 239.936C65.1284 240.587 65.5764 240.912 66.1418 240.912Z" fill="white"/>
<path d="M56.808 147.192C55.4 147.192 54.264 146.712 53.4 145.752L54.184 144.712C54.536 145.064 54.9147 145.347 55.32 145.56C55.7253 145.763 56.1787 145.864 56.68 145.864C57.2667 145.864 57.7413 145.715 58.104 145.416C58.4773 145.107 58.664 144.696 58.664 144.184C58.664 143.587 58.424 143.128 57.944 142.808C57.4747 142.488 56.68 142.328 55.56 142.328V141.128C57.3947 141.128 58.312 140.547 58.312 139.384C58.312 138.925 58.168 138.568 57.88 138.312C57.592 138.045 57.1973 137.912 56.696 137.912C55.9813 137.912 55.2827 138.243 54.6 138.904L53.752 137.896C54.7013 137.043 55.704 136.616 56.76 136.616C57.72 136.616 58.488 136.851 59.064 137.32C59.6507 137.789 59.944 138.435 59.944 139.256C59.944 140.376 59.3413 141.171 58.136 141.64V141.704C58.776 141.864 59.2933 142.168 59.688 142.616C60.0933 143.053 60.296 143.603 60.296 144.264C60.296 144.861 60.1413 145.384 59.832 145.832C59.5227 146.269 59.1013 146.605 58.568 146.84C58.0453 147.075 57.4587 147.192 56.808 147.192ZM65.1418 147.192C64.0858 147.192 63.2591 146.728 62.6618 145.8C62.0644 144.872 61.7658 143.56 61.7658 141.864C61.7658 140.168 62.0644 138.872 62.6618 137.976C63.2591 137.069 64.0858 136.616 65.1418 136.616C66.1978 136.616 67.0244 137.069 67.6218 137.976C68.2191 138.883 68.5178 140.179 68.5178 141.864C68.5178 143.56 68.2191 144.872 67.6218 145.8C67.0244 146.728 66.1978 147.192 65.1418 147.192ZM65.1418 145.912C65.7071 145.912 66.1498 145.587 66.4698 144.936C66.8004 144.285 66.9658 143.261 66.9658 141.864C66.9658 139.219 66.3578 137.896 65.1418 137.896C63.9258 137.896 63.3178 139.219 63.3178 141.864C63.3178 143.261 63.4778 144.285 63.7978 144.936C64.1284 145.587 64.5764 145.912 65.1418 145.912Z" fill="white"/>
<path d="M52.624 194.056C53.7867 192.915 54.6773 192.008 55.296 191.336C55.9253 190.653 56.416 190.019 56.768 189.432C57.1307 188.835 57.312 188.28 57.312 187.768C57.312 187.192 57.1573 186.739 56.848 186.408C56.5387 186.077 56.096 185.912 55.52 185.912C54.8267 185.912 54.1387 186.301 53.456 187.08L52.544 186.184C53.024 185.661 53.5093 185.272 54 185.016C54.5013 184.749 55.0773 184.616 55.728 184.616C56.688 184.616 57.4507 184.899 58.016 185.464C58.592 186.019 58.88 186.76 58.88 187.688C58.88 188.275 58.7147 188.877 58.384 189.496C58.064 190.115 57.6373 190.739 57.104 191.368C56.5813 191.987 55.872 192.771 54.976 193.72C55.7013 193.656 56.272 193.624 56.688 193.624H59.376V195H52.624V194.056ZM63.9018 195.192C63.1444 195.192 62.4884 195.064 61.9338 194.808C61.3898 194.552 60.9044 194.211 60.4778 193.784L61.2458 192.744C61.5978 193.085 61.9711 193.357 62.3658 193.56C62.7604 193.763 63.2084 193.864 63.7098 193.864C64.3178 193.864 64.8138 193.672 65.1978 193.288C65.5924 192.904 65.7898 192.392 65.7898 191.752C65.7898 191.112 65.6084 190.611 65.2458 190.248C64.8831 189.885 64.3978 189.704 63.7898 189.704C63.4698 189.704 63.1924 189.752 62.9578 189.848C62.7231 189.933 62.4404 190.083 62.1098 190.296L61.3098 189.784L61.6298 184.808H66.9258V186.184H63.0378L62.7978 188.888C63.2564 188.643 63.7364 188.52 64.2378 188.52C65.1658 188.52 65.9284 188.792 66.5258 189.336C67.1231 189.869 67.4218 190.659 67.4218 191.704C67.4218 192.419 67.2564 193.043 66.9258 193.576C66.6058 194.099 66.1791 194.499 65.6458 194.776C65.1124 195.053 64.5311 195.192 63.9018 195.192Z" fill="white"/>
<path d="M56.808 95.192C55.4 95.192 54.264 94.712 53.4 93.752L54.184 92.712C54.536 93.064 54.9147 93.3467 55.32 93.56C55.7253 93.7627 56.1787 93.864 56.68 93.864C57.2667 93.864 57.7413 93.7147 58.104 93.416C58.4773 93.1067 58.664 92.696 58.664 92.184C58.664 91.5867 58.424 91.128 57.944 90.808C57.4747 90.488 56.68 90.328 55.56 90.328V89.128C57.3947 89.128 58.312 88.5467 58.312 87.384C58.312 86.9253 58.168 86.568 57.88 86.312C57.592 86.0453 57.1973 85.912 56.696 85.912C55.9813 85.912 55.2827 86.2427 54.6 86.904L53.752 85.896C54.7013 85.0427 55.704 84.616 56.76 84.616C57.72 84.616 58.488 84.8507 59.064 85.32C59.6507 85.7893 59.944 86.4347 59.944 87.256C59.944 88.376 59.3413 89.1707 58.136 89.64V89.704C58.776 89.864 59.2933 90.168 59.688 90.616C60.0933 91.0533 60.296 91.6027 60.296 92.264C60.296 92.8613 60.1413 93.384 59.832 93.832C59.5227 94.2693 59.1013 94.6053 58.568 94.84C58.0453 95.0747 57.4587 95.192 56.808 95.192ZM64.9018 95.192C64.1444 95.192 63.4884 95.064 62.9338 94.808C62.3898 94.552 61.9044 94.2107 61.4778 93.784L62.2458 92.744C62.5978 93.0853 62.9711 93.3573 63.3658 93.56C63.7604 93.7627 64.2084 93.864 64.7098 93.864C65.3178 93.864 65.8138 93.672 66.1978 93.288C66.5924 92.904 66.7898 92.392 66.7898 91.752C66.7898 91.112 66.6084 90.6107 66.2458 90.248C65.8831 89.8853 65.3978 89.704 64.7898 89.704C64.4698 89.704 64.1924 89.752 63.9578 89.848C63.7231 89.9333 63.4404 90.0827 63.1098 90.296L62.3098 89.784L62.6298 84.808H67.9258V86.184H64.0378L63.7978 88.888C64.2564 88.6427 64.7364 88.52 65.2378 88.52C66.1658 88.52 66.9284 88.792 67.5258 89.336C68.1231 89.8693 68.4218 90.6587 68.4218 91.704C68.4218 92.4187 68.2564 93.0427 67.9258 93.576C67.6058 94.0987 67.1791 94.4987 66.6458 94.776C66.1124 95.0533 65.5311 95.192 64.9018 95.192Z" fill="white"/>
<path d="M60.664 40.296H59.336V43H57.816V40.296H53.288V39.208L57.464 32.808H59.336V39.032H60.664V40.296ZM57.816 39.032V36.44C57.816 36.0027 57.8427 35.32 57.896 34.392H57.832C57.7893 34.4667 57.6133 34.792 57.304 35.368C57.2613 35.432 57.2133 35.512 57.16 35.608C57.1173 35.6933 57.064 35.7947 57 35.912L54.92 39.032H57.816ZM65.1418 43.192C64.0858 43.192 63.2591 42.728 62.6618 41.8C62.0644 40.872 61.7658 39.56 61.7658 37.864C61.7658 36.168 62.0644 34.872 62.6618 33.976C63.2591 33.0693 64.0858 32.616 65.1418 32.616C66.1978 32.616 67.0244 33.0693 67.6218 33.976C68.2191 34.8827 68.5178 36.1787 68.5178 37.864C68.5178 39.56 68.2191 40.872 67.6218 41.8C67.0244 42.728 66.1978 43.192 65.1418 43.192ZM65.1418 41.912C65.7071 41.912 66.1498 41.5867 66.4698 40.936C66.8004 40.2853 66.9658 39.2613 66.9658 37.864C66.9658 35.2187 66.3578 33.896 65.1418 33.896C63.9258 33.896 63.3178 35.2187 63.3178 37.864C63.3178 39.2613 63.4778 40.2853 63.7978 40.936C64.1284 41.5867 64.5764 41.912 65.1418 41.912Z" fill="white"/>
<path d="M760.694 446.242H762.52L762.696 447.738H762.762C763.29 447.195 763.818 446.77 764.346 446.462C764.889 446.139 765.468 445.978 766.084 445.978C767.565 445.978 768.555 446.638 769.054 447.958C769.655 447.313 770.227 446.821 770.77 446.484C771.327 446.147 771.921 445.978 772.552 445.978C773.652 445.978 774.473 446.345 775.016 447.078C775.573 447.797 775.852 448.845 775.852 450.224V457H773.63V450.51C773.63 449.586 773.483 448.919 773.19 448.508C772.911 448.097 772.457 447.892 771.826 447.892C771.093 447.892 770.279 448.383 769.384 449.366V457H767.162V450.51C767.162 449.586 767.015 448.919 766.722 448.508C766.443 448.097 765.989 447.892 765.358 447.892C764.625 447.892 763.811 448.383 762.916 449.366V457H760.694V446.242ZM782.714 457.264C780.543 457.264 779.458 456.01 779.458 453.502V448.024H777.896V446.352L779.568 446.242L779.832 443.272H781.68V446.242H784.496V448.024H781.68V453.502C781.68 454.162 781.805 454.661 782.054 454.998C782.303 455.321 782.707 455.482 783.264 455.482C783.601 455.482 783.99 455.394 784.43 455.218L784.826 456.868C784.034 457.132 783.33 457.264 782.714 457.264ZM792.627 457.264C791.41 457.264 790.317 456.971 789.349 456.384C788.381 455.797 787.618 454.947 787.061 453.832C786.504 452.703 786.225 451.368 786.225 449.828C786.225 448.303 786.511 446.975 787.083 445.846C787.655 444.717 788.432 443.851 789.415 443.25C790.412 442.634 791.52 442.326 792.737 442.326C793.573 442.326 794.336 442.495 795.025 442.832C795.729 443.169 796.323 443.602 796.807 444.13L795.597 445.582C794.761 444.717 793.822 444.284 792.781 444.284C791.945 444.284 791.204 444.511 790.559 444.966C789.928 445.406 789.43 446.037 789.063 446.858C788.711 447.679 788.535 448.647 788.535 449.762C788.535 451.478 788.909 452.835 789.657 453.832C790.42 454.815 791.439 455.306 792.715 455.306C793.918 455.306 794.981 454.793 795.905 453.766L797.115 455.174C795.927 456.567 794.431 457.264 792.627 457.264ZM804.44 457.264C803.208 457.264 802.116 456.963 801.162 456.362C800.224 455.746 799.49 454.873 798.962 453.744C798.434 452.6 798.17 451.265 798.17 449.74C798.17 448.215 798.434 446.895 798.962 445.78C799.49 444.665 800.224 443.815 801.162 443.228C802.116 442.627 803.208 442.326 804.44 442.326C805.672 442.326 806.758 442.627 807.696 443.228C808.65 443.815 809.39 444.665 809.918 445.78C810.446 446.895 810.71 448.215 810.71 449.74C810.71 451.265 810.446 452.6 809.918 453.744C809.39 454.873 808.65 455.746 807.696 456.362C806.758 456.963 805.672 457.264 804.44 457.264ZM804.44 455.306C805.232 455.306 805.929 455.079 806.53 454.624C807.132 454.169 807.594 453.524 807.916 452.688C808.239 451.837 808.4 450.855 808.4 449.74C808.4 448.053 808.041 446.726 807.322 445.758C806.604 444.775 805.643 444.284 804.44 444.284C803.238 444.284 802.277 444.775 801.558 445.758C800.84 446.726 800.48 448.053 800.48 449.74C800.48 450.855 800.642 451.837 800.964 452.688C801.287 453.524 801.749 454.169 802.35 454.624C802.952 455.079 803.648 455.306 804.44 455.306ZM812.667 455.702C814.265 454.133 815.49 452.886 816.341 451.962C817.206 451.023 817.881 450.151 818.365 449.344C818.863 448.523 819.113 447.76 819.113 447.056C819.113 446.264 818.9 445.641 818.475 445.186C818.049 444.731 817.441 444.504 816.649 444.504C815.695 444.504 814.749 445.039 813.811 446.11L812.557 444.878C813.217 444.159 813.884 443.624 814.559 443.272C815.248 442.905 816.04 442.722 816.935 442.722C818.255 442.722 819.303 443.111 820.081 443.888C820.873 444.651 821.269 445.67 821.269 446.946C821.269 447.753 821.041 448.581 820.587 449.432C820.147 450.283 819.56 451.141 818.827 452.006C818.108 452.857 817.133 453.935 815.901 455.24C816.898 455.152 817.683 455.108 818.255 455.108H821.951V457H812.667V455.702ZM833.168 451.06C833.168 451.471 833.138 451.852 833.08 452.204H825.974C826.076 453.289 826.443 454.118 827.074 454.69C827.719 455.247 828.496 455.526 829.405 455.526C830.271 455.526 831.129 455.255 831.98 454.712L832.75 456.12C831.606 456.883 830.396 457.264 829.12 457.264C828.137 457.264 827.25 457.037 826.458 456.582C825.666 456.127 825.035 455.475 824.566 454.624C824.111 453.773 823.884 452.776 823.884 451.632C823.884 450.503 824.111 449.513 824.566 448.662C825.035 447.797 825.644 447.137 826.392 446.682C827.14 446.213 827.939 445.978 828.79 445.978C830.183 445.978 831.261 446.44 832.024 447.364C832.786 448.273 833.168 449.505 833.168 451.06ZM831.232 450.664C831.232 449.725 831.026 448.999 830.616 448.486C830.205 447.973 829.611 447.716 828.834 447.716C828.159 447.716 827.558 447.965 827.03 448.464C826.502 448.963 826.164 449.696 826.018 450.664H831.232ZM843.027 460.894C842.073 459.339 841.347 457.748 840.849 456.12C840.365 454.492 840.123 452.747 840.123 450.884C840.123 449.021 840.365 447.276 840.849 445.648C841.347 444.02 842.073 442.429 843.027 440.874L844.413 441.49C843.591 442.869 842.975 444.365 842.565 445.978C842.154 447.577 841.949 449.212 841.949 450.884C841.949 452.556 842.154 454.199 842.565 455.812C842.975 457.411 843.591 458.899 844.413 460.278L843.027 460.894ZM847.216 442.59H849.812L852.452 449.916L852.98 451.522L853.42 452.82H853.508C853.743 452.116 853.89 451.661 853.948 451.456L854.454 449.916L857.05 442.59H859.646V457H857.578V449.828C857.578 449.036 857.659 447.723 857.82 445.89L857.864 445.384H857.776L856.632 448.706L854.102 455.592H852.716L850.186 448.706L849.042 445.384H848.954L848.998 445.89C849.16 447.723 849.24 449.036 849.24 449.828V457H847.216V442.59ZM863.239 446.242H865.461V457H863.239V446.242ZM864.361 444.218C863.965 444.218 863.635 444.093 863.371 443.844C863.122 443.595 862.997 443.272 862.997 442.876C862.997 442.495 863.122 442.179 863.371 441.93C863.635 441.681 863.965 441.556 864.361 441.556C864.757 441.556 865.08 441.681 865.329 441.93C865.593 442.179 865.725 442.495 865.725 442.876C865.725 443.272 865.593 443.595 865.329 443.844C865.08 444.093 864.757 444.218 864.361 444.218ZM871.068 457.264C870.291 457.264 869.726 457.029 869.374 456.56C869.022 456.091 868.846 455.401 868.846 454.492V441.402H871.068V454.624C871.068 454.903 871.12 455.108 871.222 455.24C871.325 455.372 871.45 455.438 871.596 455.438C871.728 455.438 871.86 455.423 871.992 455.394L872.278 457.066C871.941 457.198 871.538 457.264 871.068 457.264ZM876.869 457.264C876.092 457.264 875.527 457.029 875.175 456.56C874.823 456.091 874.647 455.401 874.647 454.492V441.402H876.869V454.624C876.869 454.903 876.92 455.108 877.023 455.24C877.126 455.372 877.25 455.438 877.397 455.438C877.529 455.438 877.661 455.423 877.793 455.394L878.079 457.066C877.742 457.198 877.338 457.264 876.869 457.264ZM884.76 457.264C883.865 457.264 883.029 457.037 882.252 456.582C881.475 456.127 880.851 455.475 880.382 454.624C879.927 453.773 879.7 452.776 879.7 451.632C879.7 450.473 879.927 449.469 880.382 448.618C880.851 447.767 881.467 447.115 882.23 446.66C883.007 446.205 883.851 445.978 884.76 445.978C885.669 445.978 886.505 446.205 887.268 446.66C888.045 447.115 888.661 447.767 889.116 448.618C889.585 449.469 889.82 450.473 889.82 451.632C889.82 452.776 889.585 453.773 889.116 454.624C888.661 455.475 888.045 456.127 887.268 456.582C886.491 457.037 885.655 457.264 884.76 457.264ZM884.76 455.438C885.611 455.438 886.285 455.093 886.784 454.404C887.283 453.7 887.532 452.776 887.532 451.632C887.532 450.488 887.275 449.564 886.762 448.86C886.263 448.156 885.596 447.804 884.76 447.804C883.924 447.804 883.249 448.156 882.736 448.86C882.237 449.564 881.988 450.488 881.988 451.632C881.988 452.776 882.237 453.7 882.736 454.404C883.235 455.093 883.909 455.438 884.76 455.438ZM892.458 446.242H894.284L894.46 447.738H894.526C895.098 447.181 895.662 446.748 896.22 446.44C896.792 446.132 897.415 445.978 898.09 445.978C900.29 445.978 901.39 447.393 901.39 450.224V457H899.168V450.51C899.168 449.586 899.021 448.919 898.728 448.508C898.449 448.097 897.987 447.892 897.342 447.892C896.858 447.892 896.425 448.009 896.044 448.244C895.662 448.464 895.208 448.838 894.68 449.366V457H892.458V446.242ZM913.175 451.06C913.175 451.471 913.146 451.852 913.087 452.204H905.981C906.084 453.289 906.451 454.118 907.081 454.69C907.727 455.247 908.504 455.526 909.413 455.526C910.279 455.526 911.137 455.255 911.987 454.712L912.757 456.12C911.613 456.883 910.403 457.264 909.127 457.264C908.145 457.264 907.257 457.037 906.465 456.582C905.673 456.127 905.043 455.475 904.573 454.624C904.119 453.773 903.891 452.776 903.891 451.632C903.891 450.503 904.119 449.513 904.573 448.662C905.043 447.797 905.651 447.137 906.399 446.682C907.147 446.213 907.947 445.978 908.797 445.978C910.191 445.978 911.269 446.44 912.031 447.364C912.794 448.273 913.175 449.505 913.175 451.06ZM911.239 450.664C911.239 449.725 911.034 448.999 910.623 448.486C910.213 447.973 909.619 447.716 908.841 447.716C908.167 447.716 907.565 447.965 907.037 448.464C906.509 448.963 906.172 449.696 906.025 450.664H911.239ZM918.608 457.264C917.89 457.264 917.171 457.125 916.452 456.846C915.734 456.567 915.103 456.208 914.56 455.768L915.616 454.338C916.13 454.734 916.628 455.042 917.112 455.262C917.596 455.467 918.117 455.57 918.674 455.57C919.29 455.57 919.76 455.438 920.082 455.174C920.405 454.895 920.566 454.543 920.566 454.118C920.566 453.678 920.368 453.333 919.972 453.084C919.576 452.82 918.982 452.541 918.19 452.248C917.237 451.896 916.482 451.493 915.924 451.038C915.367 450.569 915.088 449.931 915.088 449.124C915.088 448.2 915.433 447.445 916.122 446.858C916.812 446.271 917.743 445.978 918.916 445.978C920.178 445.978 921.336 446.396 922.392 447.232L921.358 448.618C920.948 448.31 920.552 448.075 920.17 447.914C919.789 447.753 919.386 447.672 918.96 447.672C918.388 447.672 917.948 447.797 917.64 448.046C917.347 448.295 917.2 448.618 917.2 449.014C917.2 449.307 917.303 449.557 917.508 449.762C917.714 449.953 917.948 450.107 918.212 450.224C918.491 450.341 918.924 450.51 919.51 450.73C920.156 450.965 920.691 451.207 921.116 451.456C921.556 451.691 921.923 452.013 922.216 452.424C922.524 452.835 922.678 453.355 922.678 453.986C922.678 454.602 922.517 455.159 922.194 455.658C921.886 456.142 921.424 456.531 920.808 456.824C920.192 457.117 919.459 457.264 918.608 457.264ZM933.172 457.264C931.822 457.264 930.744 456.765 929.938 455.768C929.146 454.771 928.75 453.392 928.75 451.632C928.75 450.503 928.962 449.513 929.388 448.662C929.813 447.797 930.378 447.137 931.082 446.682C931.786 446.213 932.541 445.978 933.348 445.978C933.92 445.978 934.426 446.081 934.866 446.286C935.306 446.477 935.768 446.777 936.252 447.188L936.164 445.406V441.402H938.386V457H936.56L936.384 455.79H936.318C935.878 456.23 935.386 456.589 934.844 456.868C934.301 457.132 933.744 457.264 933.172 457.264ZM933.7 455.416C934.154 455.416 934.58 455.313 934.976 455.108C935.372 454.888 935.768 454.551 936.164 454.096V448.816C935.43 448.156 934.638 447.826 933.788 447.826C933.274 447.826 932.805 447.98 932.38 448.288C931.969 448.596 931.639 449.036 931.39 449.608C931.155 450.18 931.038 450.847 931.038 451.61C931.038 452.827 931.265 453.766 931.72 454.426C932.189 455.086 932.849 455.416 933.7 455.416ZM950.3 451.06C950.3 451.471 950.271 451.852 950.212 452.204H943.106C943.209 453.289 943.576 454.118 944.206 454.69C944.852 455.247 945.629 455.526 946.538 455.526C947.404 455.526 948.262 455.255 949.112 454.712L949.882 456.12C948.738 456.883 947.528 457.264 946.252 457.264C945.27 457.264 944.382 457.037 943.59 456.582C942.798 456.127 942.168 455.475 941.698 454.624C941.244 453.773 941.016 452.776 941.016 451.632C941.016 450.503 941.244 449.513 941.698 448.662C942.168 447.797 942.776 447.137 943.524 446.682C944.272 446.213 945.072 445.978 945.922 445.978C947.316 445.978 948.394 446.44 949.156 447.364C949.919 448.273 950.3 449.505 950.3 451.06ZM948.364 450.664C948.364 449.725 948.159 448.999 947.748 448.486C947.338 447.973 946.744 447.716 945.966 447.716C945.292 447.716 944.69 447.965 944.162 448.464C943.634 448.963 943.297 449.696 943.15 450.664H948.364ZM764.302 486.264C762.131 486.264 761.046 485.01 761.046 482.502V477.024H759.484V475.352L761.156 475.242L761.42 472.272H763.268V475.242H766.084V477.024H763.268V482.502C763.268 483.162 763.393 483.661 763.642 483.998C763.891 484.321 764.295 484.482 764.852 484.482C765.189 484.482 765.578 484.394 766.018 484.218L766.414 485.868C765.622 486.132 764.918 486.264 764.302 486.264ZM772.397 486.264C771.502 486.264 770.666 486.037 769.889 485.582C769.111 485.127 768.488 484.475 768.019 483.624C767.564 482.773 767.337 481.776 767.337 480.632C767.337 479.473 767.564 478.469 768.019 477.618C768.488 476.767 769.104 476.115 769.867 475.66C770.644 475.205 771.487 474.978 772.397 474.978C773.306 474.978 774.142 475.205 774.905 475.66C775.682 476.115 776.298 476.767 776.753 477.618C777.222 478.469 777.457 479.473 777.457 480.632C777.457 481.776 777.222 482.773 776.753 483.624C776.298 484.475 775.682 485.127 774.905 485.582C774.127 486.037 773.291 486.264 772.397 486.264ZM772.397 484.438C773.247 484.438 773.922 484.093 774.421 483.404C774.919 482.7 775.169 481.776 775.169 480.632C775.169 479.488 774.912 478.564 774.399 477.86C773.9 477.156 773.233 476.804 772.397 476.804C771.561 476.804 770.886 477.156 770.373 477.86C769.874 478.564 769.625 479.488 769.625 480.632C769.625 481.776 769.874 482.7 770.373 483.404C770.871 484.093 771.546 484.438 772.397 484.438ZM780.094 475.242H781.92L782.096 476.738H782.162C782.734 476.181 783.299 475.748 783.856 475.44C784.428 475.132 785.052 474.978 785.726 474.978C787.926 474.978 789.026 476.393 789.026 479.224V486H786.804V479.51C786.804 478.586 786.658 477.919 786.364 477.508C786.086 477.097 785.624 476.892 784.978 476.892C784.494 476.892 784.062 477.009 783.68 477.244C783.299 477.464 782.844 477.838 782.316 478.366V486H780.094V475.242ZM800.812 480.06C800.812 480.471 800.783 480.852 800.724 481.204H793.618C793.721 482.289 794.087 483.118 794.718 483.69C795.363 484.247 796.141 484.526 797.05 484.526C797.915 484.526 798.773 484.255 799.624 483.712L800.394 485.12C799.25 485.883 798.04 486.264 796.764 486.264C795.781 486.264 794.894 486.037 794.102 485.582C793.31 485.127 792.679 484.475 792.21 483.624C791.755 482.773 791.528 481.776 791.528 480.632C791.528 479.503 791.755 478.513 792.21 477.662C792.679 476.797 793.288 476.137 794.036 475.682C794.784 475.213 795.583 474.978 796.434 474.978C797.827 474.978 798.905 475.44 799.668 476.364C800.431 477.273 800.812 478.505 800.812 480.06ZM798.876 479.664C798.876 478.725 798.671 477.999 798.26 477.486C797.849 476.973 797.255 476.716 796.478 476.716C795.803 476.716 795.202 476.965 794.674 477.464C794.146 477.963 793.809 478.696 793.662 479.664H798.876ZM805.541 486.264C804.764 486.264 804.199 486.029 803.847 485.56C803.495 485.091 803.319 484.401 803.319 483.492V470.402H805.541V483.624C805.541 483.903 805.592 484.108 805.695 484.24C805.798 484.372 805.922 484.438 806.069 484.438C806.201 484.438 806.333 484.423 806.465 484.394L806.751 486.066C806.414 486.198 806.01 486.264 805.541 486.264ZM811.672 486.264C810.733 486.264 809.97 485.985 809.384 485.428C808.797 484.856 808.504 484.093 808.504 483.14C808.504 481.981 809.017 481.094 810.044 480.478C811.07 479.847 812.706 479.407 814.95 479.158C814.92 477.574 814.231 476.782 812.882 476.782C811.972 476.782 810.938 477.149 809.78 477.882L808.944 476.386C810.41 475.447 811.855 474.978 813.278 474.978C814.583 474.978 815.558 475.374 816.204 476.166C816.849 476.943 817.172 478.065 817.172 479.532V486H815.346L815.17 484.768H815.104C813.916 485.765 812.772 486.264 811.672 486.264ZM812.354 484.504C812.808 484.504 813.234 484.401 813.63 484.196C814.026 483.991 814.466 483.668 814.95 483.228V480.566C813.395 480.757 812.288 481.05 811.628 481.446C810.982 481.842 810.66 482.355 810.66 482.986C810.66 483.485 810.814 483.866 811.122 484.13C811.43 484.379 811.84 484.504 812.354 484.504ZM824.074 486.264C822.725 486.264 821.647 485.765 820.84 484.768C820.048 483.771 819.652 482.392 819.652 480.632C819.652 479.503 819.865 478.513 820.29 477.662C820.715 476.797 821.28 476.137 821.984 475.682C822.688 475.213 823.443 474.978 824.25 474.978C824.822 474.978 825.328 475.081 825.768 475.286C826.208 475.477 826.67 475.777 827.154 476.188L827.066 474.406V470.402H829.288V486H827.462L827.286 484.79H827.22C826.78 485.23 826.289 485.589 825.746 485.868C825.203 486.132 824.646 486.264 824.074 486.264ZM824.602 484.416C825.057 484.416 825.482 484.313 825.878 484.108C826.274 483.888 826.67 483.551 827.066 483.096V477.816C826.333 477.156 825.541 476.826 824.69 476.826C824.177 476.826 823.707 476.98 823.282 477.288C822.871 477.596 822.541 478.036 822.292 478.608C822.057 479.18 821.94 479.847 821.94 480.61C821.94 481.827 822.167 482.766 822.622 483.426C823.091 484.086 823.751 484.416 824.602 484.416ZM835.219 486.264C834.28 486.264 833.517 485.985 832.931 485.428C832.344 484.856 832.051 484.093 832.051 483.14C832.051 481.981 832.564 481.094 833.591 480.478C834.617 479.847 836.253 479.407 838.497 479.158C838.467 477.574 837.778 476.782 836.429 476.782C835.519 476.782 834.485 477.149 833.327 477.882L832.491 476.386C833.957 475.447 835.402 474.978 836.825 474.978C838.13 474.978 839.105 475.374 839.751 476.166C840.396 476.943 840.719 478.065 840.719 479.532V486H838.893L838.717 484.768H838.651C837.463 485.765 836.319 486.264 835.219 486.264ZM835.901 484.504C836.355 484.504 836.781 484.401 837.177 484.196C837.573 483.991 838.013 483.668 838.497 483.228V480.566C836.942 480.757 835.835 481.05 835.175 481.446C834.529 481.842 834.207 482.355 834.207 482.986C834.207 483.485 834.361 483.866 834.669 484.13C834.977 484.379 835.387 484.504 835.901 484.504ZM846.829 486.264C846.11 486.264 845.392 486.125 844.673 485.846C843.954 485.567 843.324 485.208 842.781 484.768L843.837 483.338C844.35 483.734 844.849 484.042 845.333 484.262C845.817 484.467 846.338 484.57 846.895 484.57C847.511 484.57 847.98 484.438 848.303 484.174C848.626 483.895 848.787 483.543 848.787 483.118C848.787 482.678 848.589 482.333 848.193 482.084C847.797 481.82 847.203 481.541 846.411 481.248C845.458 480.896 844.702 480.493 844.145 480.038C843.588 479.569 843.309 478.931 843.309 478.124C843.309 477.2 843.654 476.445 844.343 475.858C845.032 475.271 845.964 474.978 847.137 474.978C848.398 474.978 849.557 475.396 850.613 476.232L849.579 477.618C849.168 477.31 848.772 477.075 848.391 476.914C848.01 476.753 847.606 476.672 847.181 476.672C846.609 476.672 846.169 476.797 845.861 477.046C845.568 477.295 845.421 477.618 845.421 478.014C845.421 478.307 845.524 478.557 845.729 478.762C845.934 478.953 846.169 479.107 846.433 479.224C846.712 479.341 847.144 479.51 847.731 479.73C848.376 479.965 848.912 480.207 849.337 480.456C849.777 480.691 850.144 481.013 850.437 481.424C850.745 481.835 850.899 482.355 850.899 482.986C850.899 483.602 850.738 484.159 850.415 484.658C850.107 485.142 849.645 485.531 849.029 485.824C848.413 486.117 847.68 486.264 846.829 486.264ZM861.392 486.264C860.043 486.264 858.965 485.765 858.158 484.768C857.366 483.771 856.97 482.392 856.97 480.632C856.97 479.503 857.183 478.513 857.608 477.662C858.034 476.797 858.598 476.137 859.302 475.682C860.006 475.213 860.762 474.978 861.568 474.978C862.14 474.978 862.646 475.081 863.086 475.286C863.526 475.477 863.988 475.777 864.472 476.188L864.384 474.406V470.402H866.606V486H864.78L864.604 484.79H864.538C864.098 485.23 863.607 485.589 863.064 485.868C862.522 486.132 861.964 486.264 861.392 486.264ZM861.92 484.416C862.375 484.416 862.8 484.313 863.196 484.108C863.592 483.888 863.988 483.551 864.384 483.096V477.816C863.651 477.156 862.859 476.826 862.008 476.826C861.495 476.826 861.026 476.98 860.6 477.288C860.19 477.596 859.86 478.036 859.61 478.608C859.376 479.18 859.258 479.847 859.258 480.61C859.258 481.827 859.486 482.766 859.94 483.426C860.41 484.086 861.07 484.416 861.92 484.416ZM878.521 480.06C878.521 480.471 878.492 480.852 878.433 481.204H871.327C871.43 482.289 871.796 483.118 872.427 483.69C873.072 484.247 873.85 484.526 874.759 484.526C875.624 484.526 876.482 484.255 877.333 483.712L878.103 485.12C876.959 485.883 875.749 486.264 874.473 486.264C873.49 486.264 872.603 486.037 871.811 485.582C871.019 485.127 870.388 484.475 869.919 483.624C869.464 482.773 869.237 481.776 869.237 480.632C869.237 479.503 869.464 478.513 869.919 477.662C870.388 476.797 870.997 476.137 871.745 475.682C872.493 475.213 873.292 474.978 874.143 474.978C875.536 474.978 876.614 475.44 877.377 476.364C878.14 477.273 878.521 478.505 878.521 480.06ZM876.585 479.664C876.585 478.725 876.38 477.999 875.969 477.486C875.558 476.973 874.964 476.716 874.187 476.716C873.512 476.716 872.911 476.965 872.383 477.464C871.855 477.963 871.518 478.696 871.371 479.664H876.585ZM891.24 486.264C890.023 486.264 888.93 485.971 887.962 485.384C886.994 484.797 886.232 483.947 885.674 482.832C885.117 481.703 884.838 480.368 884.838 478.828C884.838 477.303 885.124 475.975 885.696 474.846C886.268 473.717 887.046 472.851 888.028 472.25C889.026 471.634 890.133 471.326 891.35 471.326C892.186 471.326 892.949 471.495 893.638 471.832C894.342 472.169 894.936 472.602 895.42 473.13L894.21 474.582C893.374 473.717 892.436 473.284 891.394 473.284C890.558 473.284 889.818 473.511 889.172 473.966C888.542 474.406 888.043 475.037 887.676 475.858C887.324 476.679 887.148 477.647 887.148 478.762C887.148 480.478 887.522 481.835 888.27 482.832C889.033 483.815 890.052 484.306 891.328 484.306C892.531 484.306 893.594 483.793 894.518 482.766L895.728 484.174C894.54 485.567 893.044 486.264 891.24 486.264ZM903.054 486.264C901.822 486.264 900.729 485.963 899.776 485.362C898.837 484.746 898.104 483.873 897.576 482.744C897.048 481.6 896.784 480.265 896.784 478.74C896.784 477.215 897.048 475.895 897.576 474.78C898.104 473.665 898.837 472.815 899.776 472.228C900.729 471.627 901.822 471.326 903.054 471.326C904.286 471.326 905.371 471.627 906.31 472.228C907.263 472.815 908.004 473.665 908.532 474.78C909.06 475.895 909.324 477.215 909.324 478.74C909.324 480.265 909.06 481.6 908.532 482.744C908.004 483.873 907.263 484.746 906.31 485.362C905.371 485.963 904.286 486.264 903.054 486.264ZM903.054 484.306C903.846 484.306 904.542 484.079 905.144 483.624C905.745 483.169 906.207 482.524 906.53 481.688C906.852 480.837 907.014 479.855 907.014 478.74C907.014 477.053 906.654 475.726 905.936 474.758C905.217 473.775 904.256 473.284 903.054 473.284C901.851 473.284 900.89 473.775 900.172 474.758C899.453 475.726 899.094 477.053 899.094 478.74C899.094 479.855 899.255 480.837 899.578 481.688C899.9 482.524 900.362 483.169 900.964 483.624C901.565 484.079 902.262 484.306 903.054 484.306ZM911.28 484.702C912.879 483.133 914.103 481.886 914.954 480.962C915.819 480.023 916.494 479.151 916.978 478.344C917.477 477.523 917.726 476.76 917.726 476.056C917.726 475.264 917.513 474.641 917.088 474.186C916.663 473.731 916.054 473.504 915.262 473.504C914.309 473.504 913.363 474.039 912.424 475.11L911.17 473.878C911.83 473.159 912.497 472.624 913.172 472.272C913.861 471.905 914.653 471.722 915.548 471.722C916.868 471.722 917.917 472.111 918.694 472.888C919.486 473.651 919.882 474.67 919.882 475.946C919.882 476.753 919.655 477.581 919.2 478.432C918.76 479.283 918.173 480.141 917.44 481.006C916.721 481.857 915.746 482.935 914.514 484.24C915.511 484.152 916.296 484.108 916.868 484.108H920.564V486H911.28V484.702ZM922.453 489.278C923.274 487.899 923.89 486.411 924.301 484.812C924.711 483.199 924.917 481.556 924.917 479.884C924.917 478.212 924.711 476.577 924.301 474.978C923.89 473.365 923.274 471.869 922.453 470.49L923.839 469.874C924.792 471.429 925.511 473.02 925.995 474.648C926.493 476.276 926.743 478.021 926.743 479.884C926.743 481.747 926.493 483.492 925.995 485.12C925.511 486.748 924.792 488.339 923.839 489.894L922.453 489.278Z" fill="white"/>
<ellipse cx="497.998" cy="395.4" rx="19.2676" ry="18.13" fill="#C4C4C4"/>
<path d="M498 417C511.255 417 522 406.255 522 393C522 379.745 511.255 369 498 369C484.745 369 474 379.745 474 393C474 406.255 484.745 417 498 417Z" fill="#FEDB41"/>
<path d="M507.171 377.112C504.472 375.55 501.339 374.656 497.997 374.656C494.656 374.656 491.523 375.55 488.824 377.112L497.997 393L507.171 377.112Z" fill="#37474F"/>
<path d="M507.174 377.112C504.475 375.55 501.342 374.656 498.001 374.656C497.999 374.656 497.998 374.656 497.996 374.656V392.992L498.001 393L507.174 377.112Z" fill="#1F2D33"/>
<path d="M479.656 393C479.656 399.789 483.345 405.716 488.827 408.888L498 393H479.656Z" fill="#37474F"/>
<path d="M507.173 408.888C512.655 405.716 516.344 399.789 516.344 393H498L507.173 408.888Z" fill="#1F2D33"/>
<path d="M498 398.031C500.779 398.031 503.031 395.779 503.031 393C503.031 390.221 500.779 387.969 498 387.969C495.221 387.969 492.969 390.221 492.969 393C492.969 395.779 495.221 398.031 498 398.031Z" fill="#37474F"/>
<path d="M498.001 387.969C497.999 387.969 497.998 387.969 497.996 387.969V398.031C497.998 398.031 497.999 398.031 498.001 398.031C500.779 398.031 503.032 395.779 503.032 393C503.032 390.221 500.779 387.969 498.001 387.969Z" fill="#1F2D33"/>
<path d="M498 398.969C494.709 398.969 492.031 396.291 492.031 393C492.031 389.709 494.709 387.031 498 387.031C501.291 387.031 503.969 389.709 503.969 393C503.969 396.291 501.291 398.969 498 398.969ZM498 388.906C495.743 388.906 493.906 390.743 493.906 393C493.906 395.257 495.743 397.094 498 397.094C500.257 397.094 502.094 395.257 502.094 393C502.094 390.743 500.257 388.906 498 388.906Z" fill="#FEEA3B"/>
<path d="M498.001 387.031C497.999 387.031 497.998 387.031 497.996 387.031V388.906C497.998 388.906 497.999 388.906 498.001 388.906C500.258 388.906 502.094 390.743 502.094 393C502.094 395.257 500.258 397.094 498.001 397.094C497.999 397.094 497.998 397.094 497.996 397.094V398.969C497.998 398.969 497.999 398.969 498.001 398.969C501.292 398.969 503.969 396.291 503.969 393C503.969 389.709 501.292 387.031 498.001 387.031Z" fill="#FEC007"/>
<circle cx="635" cy="394" r="24" fill="#E8E9E4"/>
<g clip-path="url(#clip0)">
<path d="M650.514 397.155L651.749 401.77C651.845 402.129 651.631 402.499 651.272 402.595L646.657 403.83C646.425 403.892 646.243 404.074 646.181 404.307L644.946 408.921C644.849 409.281 644.48 409.494 644.12 409.398L639.506 408.163C639.273 408.101 639.025 408.167 638.855 408.337L635.475 411.718C635.348 411.844 635.177 411.915 634.998 411.915C634.819 411.915 634.648 411.844 634.521 411.718L631.141 408.338C630.971 408.167 630.723 408.101 630.49 408.163L625.876 409.398C625.516 409.494 625.147 409.281 625.05 408.921L623.815 404.307C623.753 404.074 623.571 403.892 623.339 403.83L618.724 402.595C618.365 402.499 618.151 402.129 618.248 401.77L619.483 397.155C619.545 396.922 619.478 396.674 619.308 396.504L615.928 393.124C615.802 392.998 615.73 392.826 615.73 392.647C615.73 392.469 615.802 392.297 615.928 392.171L619.308 388.791C619.478 388.62 619.545 388.372 619.483 388.14L618.248 383.525C618.151 383.165 618.365 382.796 618.724 382.7L623.339 381.465C623.571 381.403 623.753 381.221 623.816 380.988L625.05 376.374C625.147 376.014 625.516 375.801 625.876 375.897L630.491 377.132C630.723 377.194 630.971 377.128 631.141 376.957L634.522 373.577C634.648 373.451 634.819 373.38 634.998 373.38C635.177 373.38 635.348 373.451 635.475 373.577L638.855 376.957C639.025 377.128 639.273 377.194 639.506 377.132L644.12 375.897C644.48 375.801 644.85 376.014 644.946 376.374L646.181 380.988C646.243 381.221 646.425 381.403 646.657 381.465L651.272 382.7C651.631 382.796 651.845 383.166 651.749 383.525L650.514 388.14C650.451 388.372 650.518 388.621 650.688 388.791L654.068 392.171C654.195 392.297 654.266 392.469 654.266 392.648C654.266 392.826 654.195 392.998 654.068 393.124L650.688 396.504C650.518 396.674 650.451 396.922 650.514 397.155Z" fill="#F29C1F"/>
<path d="M634.999 405.271C641.97 405.271 647.622 399.619 647.622 392.647C647.622 385.675 641.97 380.023 634.999 380.023C628.027 380.023 622.375 385.675 622.375 392.647C622.375 399.619 628.027 405.271 634.999 405.271Z" fill="#F0C419"/>
<path d="M625.053 393.976C624.704 393.976 624.414 393.706 624.391 393.357C624.375 393.123 624.367 392.886 624.367 392.648C624.356 389.301 625.934 386.147 628.618 384.148C628.912 383.928 629.328 383.986 629.549 384.28C629.77 384.573 629.711 384.99 629.418 385.21C627.068 386.959 625.687 389.719 625.696 392.648C625.696 392.856 625.703 393.062 625.717 393.267C625.729 393.443 625.67 393.616 625.554 393.749C625.438 393.882 625.274 393.963 625.098 393.975C625.084 393.976 625.068 393.976 625.053 393.976Z" fill="#F9EAB0"/>
</g>
<circle cx="325" cy="393" r="24" fill="#90DFAA"/>
<g clip-path="url(#clip1)">
<path d="M335.529 388.122C335.059 387.688 334.433 387.462 333.794 387.495C333.155 387.529 332.556 387.819 332.134 388.301C331.684 387.787 331.034 387.492 330.351 387.492C329.668 387.492 329.018 387.787 328.567 388.301C328.117 387.787 327.467 387.492 326.784 387.492C326.101 387.492 325.451 387.787 325.001 388.301C324.55 387.787 323.9 387.492 323.217 387.492C322.534 387.492 321.884 387.787 321.434 388.301C320.984 387.787 320.334 387.492 319.65 387.492C318.967 387.492 318.317 387.787 317.867 388.301C317.445 387.82 316.847 387.529 316.207 387.496C315.568 387.462 314.943 387.688 314.473 388.122V407.704H335.529V388.122Z" fill="#3B97D3"/>
<path d="M332.73 399.971V406.165L334.282 407.699H341.647C341.976 407.699 342.242 407.433 342.242 407.105V388.082C342.242 387.753 341.976 387.487 341.647 387.487H336.892C335.907 387.487 335.108 388.286 335.108 389.271V398.188H334.514C333.529 398.188 332.73 398.986 332.73 399.971Z" fill="#A56A43"/>
<path d="M333.915 399.971C333.915 407.185 333.934 405.658 333.859 407.699H341.643C341.972 407.699 342.238 407.433 342.238 407.105V388.082C342.238 387.753 341.972 387.487 341.643 387.487H338.076C337.092 387.487 336.293 388.286 336.293 389.271V398.188C335.902 398.148 335.507 398.18 335.128 398.283C334.404 398.527 333.916 399.207 333.915 399.971Z" fill="#CB8252"/>
<path d="M317.273 399.971V406.165L315.722 407.699H308.356C308.028 407.699 307.762 407.433 307.762 407.105V388.082C307.762 387.753 308.028 387.487 308.356 387.487H313.112C314.097 387.487 314.895 388.286 314.895 389.271V398.188H315.49C316.475 398.188 317.273 398.986 317.273 399.971Z" fill="#A56A43"/>
<path d="M316.084 399.971C316.084 407.185 316.066 405.658 316.14 407.699H308.356C308.028 407.699 307.762 407.433 307.762 407.105V388.082C307.762 387.753 308.028 387.487 308.356 387.487H311.923C312.908 387.487 313.706 388.286 313.706 389.271V398.188C314.097 398.148 314.492 398.18 314.871 398.283C315.596 398.527 316.084 399.207 316.084 399.971Z" fill="#CB8252"/>
<path d="M314.893 397.001V398.19H310.137C309.809 398.19 309.543 397.924 309.543 397.595C309.543 397.267 309.809 397.001 310.137 397.001H314.893Z" fill="#805333"/>
<path d="M340.456 397.595C340.456 397.924 340.189 398.19 339.861 398.19H335.105V397.001H339.861C340.189 397.001 340.456 397.267 340.456 397.595Z" fill="#805333"/>
<path d="M317.868 396.999C317.54 396.999 317.273 396.733 317.273 396.405V391.054C317.273 390.726 317.54 390.46 317.868 390.46C318.196 390.46 318.462 390.726 318.462 391.054V396.405C318.462 396.733 318.196 396.999 317.868 396.999Z" fill="#67B9CC"/>
<path d="M321.434 394.621C321.106 394.621 320.84 394.355 320.84 394.027V391.054C320.84 390.726 321.106 390.46 321.434 390.46C321.763 390.46 322.029 390.726 322.029 391.054V394.027C322.029 394.355 321.763 394.621 321.434 394.621Z" fill="#67B9CC"/>
<path d="M325.001 401.755C324.672 401.755 324.406 401.489 324.406 401.16V391.054C324.406 390.726 324.672 390.46 325.001 390.46C325.329 390.46 325.595 390.726 325.595 391.054V401.16C325.595 401.489 325.329 401.755 325.001 401.755Z" fill="#67B9CC"/>
<path d="M328.567 394.621C328.239 394.621 327.973 394.355 327.973 394.027V391.054C327.973 390.726 328.239 390.46 328.567 390.46C328.895 390.46 329.162 390.726 329.162 391.054V394.027C329.162 394.355 328.895 394.621 328.567 394.621Z" fill="#67B9CC"/>
<path d="M321.434 402.942C321.106 402.942 320.84 402.676 320.84 402.348V396.403C320.84 396.075 321.106 395.809 321.434 395.809C321.763 395.809 322.029 396.075 322.029 396.403V402.348C322.029 402.676 321.763 402.942 321.434 402.942Z" fill="#67B9CC"/>
<path d="M328.567 402.348C328.239 402.348 327.973 402.082 327.973 401.753V396.403C327.973 396.075 328.239 395.809 328.567 395.809C328.895 395.809 329.162 396.075 329.162 396.403V401.753C329.162 402.082 328.895 402.348 328.567 402.348Z" fill="#67B9CC"/>
<path d="M332.134 396.999C331.805 396.999 331.539 396.733 331.539 396.405V391.054C331.539 390.726 331.805 390.46 332.134 390.46C332.462 390.46 332.728 390.726 332.728 391.054V396.405C332.728 396.733 332.462 396.999 332.134 396.999Z" fill="#67B9CC"/>
<path d="M315.784 408.888C315.698 408.887 315.615 408.85 315.558 408.784C315.501 408.718 315.475 408.631 315.487 408.545C315.598 407.633 316.123 406.822 316.91 406.347C317.697 405.872 318.658 405.785 319.518 406.112C319.981 405.374 320.746 404.879 321.608 404.756C322.471 404.633 323.343 404.897 323.994 405.476C324.493 404.124 325.89 403.326 327.307 403.58C328.725 403.835 329.756 405.069 329.754 406.51C330.609 405.874 331.738 405.741 332.717 406.16C333.697 406.579 334.38 407.488 334.51 408.545C334.522 408.631 334.496 408.718 334.439 408.784C334.382 408.85 334.3 408.887 334.213 408.888H315.784Z" fill="#ECF0F1"/>
<path d="M310.737 383.923C309.849 383.923 309.097 383.271 308.971 382.392C308.846 381.514 309.385 380.676 310.237 380.428C309.978 379.563 310.23 378.625 310.89 378.008C311.549 377.391 312.502 377.201 313.348 377.517C314.194 377.833 314.788 378.602 314.88 379.501C315.743 378.988 316.836 379.073 317.609 379.713C318.383 380.353 318.671 381.41 318.33 382.354C317.988 383.298 317.091 383.926 316.087 383.923H310.737Z" fill="#ECF0F1"/>
<path d="M322.288 379.762C321.566 379.756 320.956 379.222 320.854 378.507C320.753 377.791 321.19 377.109 321.882 376.902C321.669 376.199 321.873 375.435 322.409 374.932C322.944 374.429 323.719 374.273 324.407 374.53C325.096 374.787 325.579 375.412 325.654 376.143C326.359 375.735 327.244 375.811 327.869 376.333C328.494 376.855 328.727 377.713 328.451 378.479C328.175 379.246 327.45 379.758 326.635 379.762H322.288Z" fill="#BDC3C7"/>
<path d="M337.579 385.112C338.466 385.112 339.218 384.459 339.344 383.581C339.47 382.702 338.93 381.865 338.078 381.616C338.338 380.751 338.085 379.814 337.425 379.196C336.766 378.579 335.813 378.389 334.967 378.705C334.121 379.022 333.528 379.79 333.435 380.689C332.572 380.177 331.48 380.262 330.706 380.902C329.933 381.542 329.644 382.598 329.986 383.543C330.327 384.487 331.224 385.115 332.228 385.112H337.579Z" fill="#ECF0F1"/>
<path d="M340.456 391.054C340.456 391.383 340.189 391.649 339.861 391.649H335.105V390.46H339.861C340.189 390.46 340.456 390.726 340.456 391.054Z" fill="#805333"/>
<path d="M314.893 390.46V391.649H310.137C309.809 391.649 309.543 391.383 309.543 391.054C309.543 390.726 309.809 390.46 310.137 390.46H314.893Z" fill="#805333"/>
</g>
<circle cx="149" cy="393" r="24" fill="#2C9984"/>
<g clip-path="url(#clip2)">
<path d="M158.457 380.586C158.457 381.474 157.737 382.195 156.848 382.195H150.95V384.876H147.733V382.195H141.835C140.947 382.195 140.227 381.474 140.227 380.586C140.227 379.698 140.947 378.978 141.835 378.978C142.022 378.978 142.207 379.013 142.382 379.079C142.382 379.047 142.371 379.01 142.371 378.978C142.373 378.269 142.839 377.645 143.518 377.441C144.196 377.238 144.929 377.502 145.32 378.093C145.732 377.457 146.536 377.201 147.24 377.482C147.443 376.482 148.322 375.764 149.342 375.764C150.362 375.764 151.241 376.482 151.444 377.482C152.147 377.201 152.951 377.457 153.363 378.093C153.755 377.502 154.487 377.238 155.166 377.441C155.845 377.645 156.31 378.269 156.312 378.978C156.312 379.01 156.301 379.047 156.301 379.079C156.476 379.013 156.661 378.978 156.848 378.978C157.737 378.978 158.457 379.698 158.457 380.586Z" fill="#D25627"/>
<path d="M147.732 381.658V382.195H146.659V381.658C146.658 381.067 146.178 380.588 145.587 380.586C145.291 380.586 145.051 380.346 145.051 380.05C145.051 379.754 145.291 379.514 145.587 379.514C146.771 379.514 147.732 380.474 147.732 381.658Z" fill="#E57E25"/>
<path d="M153.63 380.05C153.63 380.346 153.39 380.586 153.094 380.586C152.502 380.588 152.023 381.067 152.022 381.658V382.195H150.949V381.658C150.949 380.474 151.909 379.514 153.094 379.514C153.39 379.514 153.63 379.754 153.63 380.05Z" fill="#E57E25"/>
<path d="M141.973 395.964C141.662 396.952 141.256 397.908 140.761 398.817C139.125 401.766 136.345 404.542 134.838 405.932C134.677 406.082 134.625 406.316 134.705 406.52C134.786 406.725 134.984 406.86 135.204 406.86H163.486C163.706 406.86 163.903 406.726 163.984 406.522C164.065 406.318 164.014 406.085 163.855 405.934C162.333 404.527 160.929 402.999 159.656 401.364C159.031 400.557 158.464 399.706 157.962 398.817L149.919 388.585L141.973 395.964Z" fill="#805333"/>
<path d="M159.658 401.364C159.118 401.679 158.532 401.905 157.921 402.034C153.095 403.106 152.559 393.455 151.486 391.846C150.414 390.238 147.733 390.774 147.733 393.991C147.733 397.208 146.125 400.425 143.444 399.353C142.548 398.994 141.835 397.744 141.975 395.964C142.875 392.871 143.362 389.673 143.422 386.452C143.442 385.874 143.915 385.414 144.495 385.412H146.098C146.102 385.393 146.104 385.373 146.103 385.353C146.13 384.784 146.6 384.337 147.17 384.34H151.513C152.083 384.337 152.553 384.784 152.58 385.353C152.579 385.373 152.581 385.393 152.586 385.412H154.194C154.771 385.412 155.244 385.87 155.261 386.447C155.358 389.16 155.803 394.924 157.963 398.817C158.466 399.705 159.032 400.557 159.658 401.364Z" fill="#F29C1F"/>
<path d="M146.094 385.411V385.438C146.019 386.905 145.845 388.365 145.573 389.808C145.523 390.058 145.303 390.237 145.048 390.237C145.012 390.236 144.976 390.232 144.941 390.226C144.801 390.198 144.679 390.115 144.601 389.996C144.522 389.878 144.494 389.733 144.523 389.593C144.781 388.212 144.948 386.815 145.021 385.411H146.094Z" fill="#E57E25"/>
<path d="M153.739 390.226C153.703 390.232 153.667 390.236 153.631 390.237C153.377 390.237 153.157 390.058 153.106 389.808C152.834 388.365 152.661 386.905 152.586 385.438V385.411H153.658C153.732 386.815 153.898 388.212 154.157 389.593C154.185 389.733 154.157 389.878 154.079 389.996C154 390.115 153.878 390.198 153.739 390.226Z" fill="#E57E25"/>
<path d="M143.369 402.843C142.518 404.272 141.532 405.617 140.426 406.859H138.93L139.31 406.478C140.506 405.204 141.558 403.801 142.447 402.296C142.543 402.128 142.722 402.024 142.916 402.025C143.11 402.027 143.288 402.132 143.382 402.302C143.476 402.471 143.471 402.678 143.369 402.843Z" fill="#603E26"/>
<path d="M149.881 398.816C149.881 400.859 148.964 406.066 148.819 406.859H147.73L147.747 406.763C147.757 406.704 148.808 400.886 148.808 398.816C148.808 398.52 149.048 398.28 149.344 398.28C149.641 398.28 149.881 398.52 149.881 398.816Z" fill="#603E26"/>
<path d="M157.274 406.859H155.461C154.351 405.898 153.537 404.641 153.113 403.235C153.054 402.953 153.229 402.675 153.509 402.606C153.789 402.536 154.073 402.701 154.153 402.977C154.676 404.613 155.788 405.997 157.274 406.859Z" fill="#603E26"/>
</g>
<g filter="url(#filter0_d)">
<path d="M257.892 442.59H260.136V448.486H266.34V442.59H268.584V457H266.34V450.444H260.136V457H257.892V442.59ZM272.504 446.242H274.726V457H272.504V446.242ZM273.626 444.218C273.23 444.218 272.9 444.093 272.636 443.844C272.387 443.595 272.262 443.272 272.262 442.876C272.262 442.495 272.387 442.179 272.636 441.93C272.9 441.681 273.23 441.556 273.626 441.556C274.022 441.556 274.345 441.681 274.594 441.93C274.858 442.179 274.99 442.495 274.99 442.876C274.99 443.272 274.858 443.595 274.594 443.844C274.345 444.093 274.022 444.218 273.626 444.218ZM282.16 457.264C280.811 457.264 279.733 456.765 278.926 455.768C278.134 454.771 277.738 453.392 277.738 451.632C277.738 450.503 277.951 449.513 278.376 448.662C278.801 447.797 279.366 447.137 280.07 446.682C280.774 446.213 281.529 445.978 282.336 445.978C282.908 445.978 283.414 446.081 283.854 446.286C284.294 446.477 284.756 446.777 285.24 447.188L285.152 445.406V441.402H287.374V457H285.548L285.372 455.79H285.306C284.866 456.23 284.375 456.589 283.832 456.868C283.289 457.132 282.732 457.264 282.16 457.264ZM282.688 455.416C283.143 455.416 283.568 455.313 283.964 455.108C284.36 454.888 284.756 454.551 285.152 454.096V448.816C284.419 448.156 283.627 447.826 282.776 447.826C282.263 447.826 281.793 447.98 281.368 448.288C280.957 448.596 280.627 449.036 280.378 449.608C280.143 450.18 280.026 450.847 280.026 451.61C280.026 452.827 280.253 453.766 280.708 454.426C281.177 455.086 281.837 455.416 282.688 455.416ZM291.082 446.242H292.908L293.084 448.178H293.15C293.532 447.489 293.986 446.953 294.514 446.572C295.057 446.176 295.622 445.978 296.208 445.978C296.692 445.978 297.088 446.051 297.396 446.198L297 448.134C296.604 448.017 296.245 447.958 295.922 447.958C295.438 447.958 294.962 448.149 294.492 448.53C294.023 448.897 293.627 449.483 293.304 450.29V457H291.082V446.242ZM303.48 457.264C302.586 457.264 301.75 457.037 300.972 456.582C300.195 456.127 299.572 455.475 299.102 454.624C298.648 453.773 298.42 452.776 298.42 451.632C298.42 450.473 298.648 449.469 299.102 448.618C299.572 447.767 300.188 447.115 300.95 446.66C301.728 446.205 302.571 445.978 303.48 445.978C304.39 445.978 305.226 446.205 305.988 446.66C306.766 447.115 307.382 447.767 307.836 448.618C308.306 449.469 308.54 450.473 308.54 451.632C308.54 452.776 308.306 453.773 307.836 454.624C307.382 455.475 306.766 456.127 305.988 456.582C305.211 457.037 304.375 457.264 303.48 457.264ZM303.48 455.438C304.331 455.438 305.006 455.093 305.504 454.404C306.003 453.7 306.252 452.776 306.252 451.632C306.252 450.488 305.996 449.564 305.482 448.86C304.984 448.156 304.316 447.804 303.48 447.804C302.644 447.804 301.97 448.156 301.456 448.86C300.958 449.564 300.708 450.488 300.708 451.632C300.708 452.776 300.958 453.7 301.456 454.404C301.955 455.093 302.63 455.438 303.48 455.438ZM320.044 451.06C320.044 451.471 320.015 451.852 319.956 452.204H312.85C312.953 453.289 313.319 454.118 313.95 454.69C314.595 455.247 315.373 455.526 316.282 455.526C317.147 455.526 318.005 455.255 318.856 454.712L319.626 456.12C318.482 456.883 317.272 457.264 315.996 457.264C315.013 457.264 314.126 457.037 313.334 456.582C312.542 456.127 311.911 455.475 311.442 454.624C310.987 453.773 310.76 452.776 310.76 451.632C310.76 450.503 310.987 449.513 311.442 448.662C311.911 447.797 312.52 447.137 313.268 446.682C314.016 446.213 314.815 445.978 315.666 445.978C317.059 445.978 318.137 446.44 318.9 447.364C319.663 448.273 320.044 449.505 320.044 451.06ZM318.108 450.664C318.108 449.725 317.903 448.999 317.492 448.486C317.081 447.973 316.487 447.716 315.71 447.716C315.035 447.716 314.434 447.965 313.906 448.464C313.378 448.963 313.041 449.696 312.894 450.664H318.108ZM325.103 457.264C324.326 457.264 323.761 457.029 323.409 456.56C323.057 456.091 322.881 455.401 322.881 454.492V441.402H325.103V454.624C325.103 454.903 325.154 455.108 325.257 455.24C325.36 455.372 325.484 455.438 325.631 455.438C325.763 455.438 325.895 455.423 326.027 455.394L326.313 457.066C325.976 457.198 325.572 457.264 325.103 457.264ZM337.548 451.06C337.548 451.471 337.518 451.852 337.46 452.204H330.354C330.456 453.289 330.823 454.118 331.454 454.69C332.099 455.247 332.876 455.526 333.786 455.526C334.651 455.526 335.509 455.255 336.36 454.712L337.13 456.12C335.986 456.883 334.776 457.264 333.5 457.264C332.517 457.264 331.63 457.037 330.838 456.582C330.046 456.127 329.415 455.475 328.946 454.624C328.491 453.773 328.264 452.776 328.264 451.632C328.264 450.503 328.491 449.513 328.946 448.662C329.415 447.797 330.024 447.137 330.772 446.682C331.52 446.213 332.319 445.978 333.17 445.978C334.563 445.978 335.641 446.44 336.404 447.364C337.166 448.273 337.548 449.505 337.548 451.06ZM335.612 450.664C335.612 449.725 335.406 448.999 334.996 448.486C334.585 447.973 333.991 447.716 333.214 447.716C332.539 447.716 331.938 447.965 331.41 448.464C330.882 448.963 330.544 449.696 330.398 450.664H335.612ZM344.763 457.264C343.795 457.264 342.922 457.044 342.145 456.604C341.367 456.149 340.751 455.497 340.297 454.646C339.857 453.795 339.637 452.791 339.637 451.632C339.637 450.473 339.879 449.469 340.363 448.618C340.847 447.767 341.492 447.115 342.299 446.66C343.105 446.205 343.985 445.978 344.939 445.978C346.112 445.978 347.161 446.389 348.085 447.21L346.985 448.662C346.662 448.383 346.347 448.171 346.039 448.024C345.731 447.877 345.401 447.804 345.049 447.804C344.125 447.804 343.369 448.156 342.783 448.86C342.211 449.564 341.925 450.488 341.925 451.632C341.925 452.776 342.203 453.7 342.761 454.404C343.333 455.093 344.073 455.438 344.983 455.438C345.789 455.438 346.574 455.108 347.337 454.448L348.261 455.922C347.777 456.362 347.227 456.699 346.611 456.934C346.009 457.154 345.393 457.264 344.763 457.264ZM354.206 457.264C352.035 457.264 350.95 456.01 350.95 453.502V448.024H349.388V446.352L351.06 446.242L351.324 443.272H353.172V446.242H355.988V448.024H353.172V453.502C353.172 454.162 353.296 454.661 353.546 454.998C353.795 455.321 354.198 455.482 354.756 455.482C355.093 455.482 355.482 455.394 355.922 455.218L356.318 456.868C355.526 457.132 354.822 457.264 354.206 457.264ZM358.64 446.242H360.466L360.642 448.178H360.708C361.09 447.489 361.544 446.953 362.072 446.572C362.615 446.176 363.18 445.978 363.766 445.978C364.25 445.978 364.646 446.051 364.954 446.198L364.558 448.134C364.162 448.017 363.803 447.958 363.48 447.958C362.996 447.958 362.52 448.149 362.05 448.53C361.581 448.897 361.185 449.483 360.862 450.29V457H358.64V446.242ZM366.941 446.242H369.163V457H366.941V446.242ZM368.063 444.218C367.667 444.218 367.337 444.093 367.073 443.844C366.824 443.595 366.699 443.272 366.699 442.876C366.699 442.495 366.824 442.179 367.073 441.93C367.337 441.681 367.667 441.556 368.063 441.556C368.459 441.556 368.782 441.681 369.031 441.93C369.295 442.179 369.427 442.495 369.427 442.876C369.427 443.272 369.295 443.595 369.031 443.844C368.782 444.093 368.459 444.218 368.063 444.218ZM377.257 457.264C376.289 457.264 375.416 457.044 374.639 456.604C373.861 456.149 373.245 455.497 372.791 454.646C372.351 453.795 372.131 452.791 372.131 451.632C372.131 450.473 372.373 449.469 372.857 448.618C373.341 447.767 373.986 447.115 374.793 446.66C375.599 446.205 376.479 445.978 377.433 445.978C378.606 445.978 379.655 446.389 380.579 447.21L379.479 448.662C379.156 448.383 378.841 448.171 378.533 448.024C378.225 447.877 377.895 447.804 377.543 447.804C376.619 447.804 375.863 448.156 375.277 448.86C374.705 449.564 374.419 450.488 374.419 451.632C374.419 452.776 374.697 453.7 375.255 454.404C375.827 455.093 376.567 455.438 377.477 455.438C378.283 455.438 379.068 455.108 379.831 454.448L380.755 455.922C380.271 456.362 379.721 456.699 379.105 456.934C378.503 457.154 377.887 457.264 377.257 457.264ZM385.643 457.264C384.705 457.264 383.942 456.985 383.355 456.428C382.769 455.856 382.475 455.093 382.475 454.14C382.475 452.981 382.989 452.094 384.015 451.478C385.042 450.847 386.677 450.407 388.921 450.158C388.892 448.574 388.203 447.782 386.853 447.782C385.944 447.782 384.91 448.149 383.751 448.882L382.915 447.386C384.382 446.447 385.827 445.978 387.249 445.978C388.555 445.978 389.53 446.374 390.175 447.166C390.821 447.943 391.143 449.065 391.143 450.532V457H389.317L389.141 455.768H389.075C387.887 456.765 386.743 457.264 385.643 457.264ZM386.325 455.504C386.78 455.504 387.205 455.401 387.601 455.196C387.997 454.991 388.437 454.668 388.921 454.228V451.566C387.367 451.757 386.259 452.05 385.599 452.446C384.954 452.842 384.631 453.355 384.631 453.986C384.631 454.485 384.785 454.866 385.093 455.13C385.401 455.379 385.812 455.504 386.325 455.504Z" fill="white"/>
</g>
<g filter="url(#filter1_d)">
<path d="M617.006 457.264C616.023 457.264 615.085 457.081 614.19 456.714C613.31 456.333 612.54 455.805 611.88 455.13L613.2 453.59C613.728 454.118 614.329 454.536 615.004 454.844C615.679 455.152 616.361 455.306 617.05 455.306C617.901 455.306 618.568 455.123 619.052 454.756C619.536 454.375 619.778 453.869 619.778 453.238C619.778 452.827 619.683 452.49 619.492 452.226C619.316 451.947 619.074 451.72 618.766 451.544C618.473 451.368 618.04 451.163 617.468 450.928L615.466 450.048C613.515 449.241 612.54 447.987 612.54 446.286C612.54 445.538 612.738 444.863 613.134 444.262C613.545 443.661 614.109 443.191 614.828 442.854C615.547 442.502 616.353 442.326 617.248 442.326C618.084 442.326 618.883 442.487 619.646 442.81C620.409 443.133 621.061 443.573 621.604 444.13L620.438 445.56C619.47 444.709 618.407 444.284 617.248 444.284C616.5 444.284 615.906 444.453 615.466 444.79C615.026 445.127 614.806 445.582 614.806 446.154C614.806 446.535 614.909 446.858 615.114 447.122C615.334 447.386 615.591 447.599 615.884 447.76C616.192 447.921 616.61 448.112 617.138 448.332L619.14 449.19C620.079 449.571 620.797 450.07 621.296 450.686C621.809 451.287 622.066 452.079 622.066 453.062C622.066 453.839 621.861 454.551 621.45 455.196C621.039 455.827 620.453 456.333 619.69 456.714C618.927 457.081 618.033 457.264 617.006 457.264ZM629.217 457.264C628.322 457.264 627.486 457.037 626.709 456.582C625.932 456.127 625.308 455.475 624.839 454.624C624.384 453.773 624.157 452.776 624.157 451.632C624.157 450.473 624.384 449.469 624.839 448.618C625.308 447.767 625.924 447.115 626.687 446.66C627.464 446.205 628.308 445.978 629.217 445.978C630.126 445.978 630.962 446.205 631.725 446.66C632.502 447.115 633.118 447.767 633.573 448.618C634.042 449.469 634.277 450.473 634.277 451.632C634.277 452.776 634.042 453.773 633.573 454.624C633.118 455.475 632.502 456.127 631.725 456.582C630.948 457.037 630.112 457.264 629.217 457.264ZM629.217 455.438C630.068 455.438 630.742 455.093 631.241 454.404C631.74 453.7 631.989 452.776 631.989 451.632C631.989 450.488 631.732 449.564 631.219 448.86C630.72 448.156 630.053 447.804 629.217 447.804C628.381 447.804 627.706 448.156 627.193 448.86C626.694 449.564 626.445 450.488 626.445 451.632C626.445 452.776 626.694 453.7 627.193 454.404C627.692 455.093 628.366 455.438 629.217 455.438ZM639.467 457.264C638.689 457.264 638.125 457.029 637.773 456.56C637.421 456.091 637.245 455.401 637.245 454.492V441.402H639.467V454.624C639.467 454.903 639.518 455.108 639.621 455.24C639.723 455.372 639.848 455.438 639.995 455.438C640.127 455.438 640.259 455.423 640.391 455.394L640.677 457.066C640.339 457.198 639.936 457.264 639.467 457.264ZM645.927 457.264C644.989 457.264 644.226 456.985 643.639 456.428C643.053 455.856 642.759 455.093 642.759 454.14C642.759 452.981 643.273 452.094 644.299 451.478C645.326 450.847 646.961 450.407 649.205 450.158C649.176 448.574 648.487 447.782 647.137 447.782C646.228 447.782 645.194 448.149 644.035 448.882L643.199 447.386C644.666 446.447 646.111 445.978 647.533 445.978C648.839 445.978 649.814 446.374 650.459 447.166C651.105 447.943 651.427 449.065 651.427 450.532V457H649.601L649.425 455.768H649.359C648.171 456.765 647.027 457.264 645.927 457.264ZM646.609 455.504C647.064 455.504 647.489 455.401 647.885 455.196C648.281 454.991 648.721 454.668 649.205 454.228V451.566C647.651 451.757 646.543 452.05 645.883 452.446C645.238 452.842 644.915 453.355 644.915 453.986C644.915 454.485 645.069 454.866 645.377 455.13C645.685 455.379 646.096 455.504 646.609 455.504ZM654.942 446.242H656.768L656.944 448.178H657.01C657.391 447.489 657.846 446.953 658.374 446.572C658.916 446.176 659.481 445.978 660.068 445.978C660.552 445.978 660.948 446.051 661.256 446.198L660.86 448.134C660.464 448.017 660.104 447.958 659.782 447.958C659.298 447.958 658.821 448.149 658.352 448.53C657.882 448.897 657.486 449.483 657.164 450.29V457H654.942V446.242Z" fill="white"/>
</g>
<g filter="url(#filter2_d)">
<path d="M108.84 444.482H104.594V442.59H115.33V444.482H111.084V457H108.84V444.482ZM124.958 451.06C124.958 451.471 124.929 451.852 124.87 452.204H117.764C117.867 453.289 118.234 454.118 118.864 454.69C119.51 455.247 120.287 455.526 121.196 455.526C122.062 455.526 122.92 455.255 123.77 454.712L124.54 456.12C123.396 456.883 122.186 457.264 120.91 457.264C119.928 457.264 119.04 457.037 118.248 456.582C117.456 456.127 116.826 455.475 116.356 454.624C115.902 453.773 115.674 452.776 115.674 451.632C115.674 450.503 115.902 449.513 116.356 448.662C116.826 447.797 117.434 447.137 118.182 446.682C118.93 446.213 119.73 445.978 120.58 445.978C121.974 445.978 123.052 446.44 123.814 447.364C124.577 448.273 124.958 449.505 124.958 451.06ZM123.022 450.664C123.022 449.725 122.817 448.999 122.406 448.486C121.996 447.973 121.402 447.716 120.624 447.716C119.95 447.716 119.348 447.965 118.82 448.464C118.292 448.963 117.955 449.696 117.808 450.664H123.022ZM119.392 443.294L122.582 439.532L124.122 441.006L120.514 444.394L119.392 443.294ZM127.795 446.242H129.621L129.797 448.178H129.863C130.245 447.489 130.699 446.953 131.227 446.572C131.77 446.176 132.335 445.978 132.921 445.978C133.405 445.978 133.801 446.051 134.109 446.198L133.713 448.134C133.317 448.017 132.958 447.958 132.635 447.958C132.151 447.958 131.675 448.149 131.205 448.53C130.736 448.897 130.34 449.483 130.017 450.29V457H127.795V446.242ZM136.096 446.242H137.922L138.098 447.738H138.164C138.692 447.195 139.22 446.77 139.748 446.462C140.291 446.139 140.87 445.978 141.486 445.978C142.967 445.978 143.957 446.638 144.456 447.958C145.057 447.313 145.629 446.821 146.172 446.484C146.729 446.147 147.323 445.978 147.954 445.978C149.054 445.978 149.875 446.345 150.418 447.078C150.975 447.797 151.254 448.845 151.254 450.224V457H149.032V450.51C149.032 449.586 148.885 448.919 148.592 448.508C148.313 448.097 147.859 447.892 147.228 447.892C146.495 447.892 145.681 448.383 144.786 449.366V457H142.564V450.51C142.564 449.586 142.417 448.919 142.124 448.508C141.845 448.097 141.391 447.892 140.76 447.892C140.027 447.892 139.213 448.383 138.318 449.366V457H136.096V446.242ZM154.838 446.242H157.06V457H154.838V446.242ZM155.96 444.218C155.564 444.218 155.234 444.093 154.97 443.844C154.721 443.595 154.596 443.272 154.596 442.876C154.596 442.495 154.721 442.179 154.97 441.93C155.234 441.681 155.564 441.556 155.96 441.556C156.356 441.556 156.679 441.681 156.928 441.93C157.192 442.179 157.324 442.495 157.324 442.876C157.324 443.272 157.192 443.595 156.928 443.844C156.679 444.093 156.356 444.218 155.96 444.218ZM165.154 457.264C164.186 457.264 163.313 457.044 162.536 456.604C161.758 456.149 161.142 455.497 160.688 454.646C160.248 453.795 160.028 452.791 160.028 451.632C160.028 450.473 160.27 449.469 160.754 448.618C161.238 447.767 161.883 447.115 162.69 446.66C163.496 446.205 164.376 445.978 165.33 445.978C166.503 445.978 167.552 446.389 168.476 447.21L167.376 448.662C167.053 448.383 166.738 448.171 166.43 448.024C166.122 447.877 165.792 447.804 165.44 447.804C164.516 447.804 163.76 448.156 163.174 448.86C162.602 449.564 162.316 450.488 162.316 451.632C162.316 452.776 162.594 453.7 163.152 454.404C163.724 455.093 164.464 455.438 165.374 455.438C166.18 455.438 166.965 455.108 167.728 454.448L168.652 455.922C168.168 456.362 167.618 456.699 167.002 456.934C166.4 457.154 165.784 457.264 165.154 457.264ZM173.54 457.264C172.602 457.264 171.839 456.985 171.252 456.428C170.666 455.856 170.372 455.093 170.372 454.14C170.372 452.981 170.886 452.094 171.912 451.478C172.939 450.847 174.574 450.407 176.818 450.158C176.789 448.574 176.1 447.782 174.75 447.782C173.841 447.782 172.807 448.149 171.648 448.882L170.812 447.386C172.279 446.447 173.724 445.978 175.146 445.978C176.452 445.978 177.427 446.374 178.072 447.166C178.718 447.943 179.04 449.065 179.04 450.532V457H177.214L177.038 455.768H176.972C175.784 456.765 174.64 457.264 173.54 457.264ZM174.222 455.504C174.677 455.504 175.102 455.401 175.498 455.196C175.894 454.991 176.334 454.668 176.818 454.228V451.566C175.264 451.757 174.156 452.05 173.496 452.446C172.851 452.842 172.528 453.355 172.528 453.986C172.528 454.485 172.682 454.866 172.99 455.13C173.298 455.379 173.709 455.504 174.222 455.504Z" fill="white"/>
</g>
<g filter="url(#filter3_d)">
<path d="M461.892 442.59H464.202L468.998 451.104L470.516 454.14H470.604C470.575 453.671 470.545 453.341 470.516 453.15C470.501 452.989 470.465 452.497 470.406 451.676C470.347 450.855 470.318 450.085 470.318 449.366V442.59H472.452V457H470.142L465.346 448.464L463.828 445.45H463.74L463.828 446.55C463.843 446.726 463.879 447.203 463.938 447.98C463.997 448.757 464.026 449.483 464.026 450.158V457H461.892V442.59ZM479.544 457.264C477.344 457.264 476.244 455.849 476.244 453.018V446.242H478.466V452.732C478.466 453.656 478.605 454.323 478.884 454.734C479.177 455.145 479.646 455.35 480.292 455.35C480.79 455.35 481.23 455.225 481.612 454.976C481.993 454.727 482.418 454.309 482.888 453.722V446.242H485.11V457H483.284L483.108 455.372H483.042C482.514 455.988 481.971 456.457 481.414 456.78C480.871 457.103 480.248 457.264 479.544 457.264ZM493.201 457.264C492.233 457.264 491.36 457.044 490.583 456.604C489.805 456.149 489.189 455.497 488.735 454.646C488.295 453.795 488.075 452.791 488.075 451.632C488.075 450.473 488.317 449.469 488.801 448.618C489.285 447.767 489.93 447.115 490.737 446.66C491.543 446.205 492.423 445.978 493.377 445.978C494.55 445.978 495.599 446.389 496.523 447.21L495.423 448.662C495.1 448.383 494.785 448.171 494.477 448.024C494.169 447.877 493.839 447.804 493.487 447.804C492.563 447.804 491.807 448.156 491.221 448.86C490.649 449.564 490.363 450.488 490.363 451.632C490.363 452.776 490.641 453.7 491.199 454.404C491.771 455.093 492.511 455.438 493.421 455.438C494.227 455.438 495.012 455.108 495.775 454.448L496.699 455.922C496.215 456.362 495.665 456.699 495.049 456.934C494.447 457.154 493.831 457.264 493.201 457.264ZM501.472 457.264C500.695 457.264 500.13 457.029 499.778 456.56C499.426 456.091 499.25 455.401 499.25 454.492V441.402H501.472V454.624C501.472 454.903 501.524 455.108 501.626 455.24C501.729 455.372 501.854 455.438 502 455.438C502.132 455.438 502.264 455.423 502.396 455.394L502.682 457.066C502.345 457.198 501.942 457.264 501.472 457.264ZM513.917 451.06C513.917 451.471 513.888 451.852 513.829 452.204H506.723C506.826 453.289 507.193 454.118 507.823 454.69C508.469 455.247 509.246 455.526 510.155 455.526C511.021 455.526 511.879 455.255 512.729 454.712L513.499 456.12C512.355 456.883 511.145 457.264 509.869 457.264C508.887 457.264 507.999 457.037 507.207 456.582C506.415 456.127 505.785 455.475 505.315 454.624C504.861 453.773 504.633 452.776 504.633 451.632C504.633 450.503 504.861 449.513 505.315 448.662C505.785 447.797 506.393 447.137 507.141 446.682C507.889 446.213 508.689 445.978 509.539 445.978C510.933 445.978 512.011 446.44 512.773 447.364C513.536 448.273 513.917 449.505 513.917 451.06ZM511.981 450.664C511.981 449.725 511.776 448.999 511.365 448.486C510.955 447.973 510.361 447.716 509.583 447.716C508.909 447.716 508.307 447.965 507.779 448.464C507.251 448.963 506.914 449.696 506.767 450.664H511.981ZM519.027 457.264C518.088 457.264 517.326 456.985 516.739 456.428C516.152 455.856 515.859 455.093 515.859 454.14C515.859 452.981 516.372 452.094 517.399 451.478C518.426 450.847 520.061 450.407 522.305 450.158C522.276 448.574 521.586 447.782 520.237 447.782C519.328 447.782 518.294 448.149 517.135 448.882L516.299 447.386C517.766 446.447 519.21 445.978 520.633 445.978C521.938 445.978 522.914 446.374 523.559 447.166C524.204 447.943 524.527 449.065 524.527 450.532V457H522.701L522.525 455.768H522.459C521.271 456.765 520.127 457.264 519.027 457.264ZM519.709 455.504C520.164 455.504 520.589 455.401 520.985 455.196C521.381 454.991 521.821 454.668 522.305 454.228V451.566C520.75 451.757 519.643 452.05 518.983 452.446C518.338 452.842 518.015 453.355 518.015 453.986C518.015 454.485 518.169 454.866 518.477 455.13C518.785 455.379 519.196 455.504 519.709 455.504ZM528.041 446.242H529.867L530.043 448.178H530.109C530.491 447.489 530.945 446.953 531.473 446.572C532.016 446.176 532.581 445.978 533.167 445.978C533.651 445.978 534.047 446.051 534.355 446.198L533.959 448.134C533.563 448.017 533.204 447.958 532.881 447.958C532.397 447.958 531.921 448.149 531.451 448.53C530.982 448.897 530.586 449.483 530.263 450.29V457H528.041V446.242Z" fill="white"/>
</g>
<circle cx="87.5" cy="8.5" r="8.5" fill="white"/>
<circle cx="758.5" cy="419.5" r="8.5" fill="white"/>
<circle cx="8.5" cy="419.5" r="8.5" fill="white"/>
<circle cx="87.5" cy="490.5" r="8.5" fill="white"/>
<defs>
<filter id="filter0_d" x="253.891" y="439.402" width="141.251" height="23.862" filterUnits="userSpaceOnUse" color-interpolation-filters="sRGB">
<feFlood flood-opacity="0" result="BackgroundImageFix"/>
<feColorMatrix in="SourceAlpha" type="matrix" values="0 0 0 0 0 0 0 0 0 0 0 0 0 0 0 0 0 0 127 0"/>
<feOffset dy="2"/>
<feGaussianBlur stdDeviation="2"/>
<feColorMatrix type="matrix" values="0 0 0 0 0 0 0 0 0 0 0 0 0 0 0 0 0 0 0.25 0"/>
<feBlend mode="normal" in2="BackgroundImageFix" result="effect1_dropShadow"/>
<feBlend mode="normal" in="SourceGraphic" in2="effect1_dropShadow" result="shape"/>
</filter>
<filter id="filter1_d" x="607.879" y="439.402" width="57.3757" height="23.862" filterUnits="userSpaceOnUse" color-interpolation-filters="sRGB">
<feFlood flood-opacity="0" result="BackgroundImageFix"/>
<feColorMatrix in="SourceAlpha" type="matrix" values="0 0 0 0 0 0 0 0 0 0 0 0 0 0 0 0 0 0 127 0"/>
<feOffset dy="2"/>
<feGaussianBlur stdDeviation="2"/>
<feColorMatrix type="matrix" values="0 0 0 0 0 0 0 0 0 0 0 0 0 0 0 0 0 0 0.25 0"/>
<feBlend mode="normal" in2="BackgroundImageFix" result="effect1_dropShadow"/>
<feBlend mode="normal" in="SourceGraphic" in2="effect1_dropShadow" result="shape"/>
</filter>
<filter id="filter2_d" x="100.594" y="437.532" width="82.4465" height="25.732" filterUnits="userSpaceOnUse" color-interpolation-filters="sRGB">
<feFlood flood-opacity="0" result="BackgroundImageFix"/>
<feColorMatrix in="SourceAlpha" type="matrix" values="0 0 0 0 0 0 0 0 0 0 0 0 0 0 0 0 0 0 127 0"/>
<feOffset dy="2"/>
<feGaussianBlur stdDeviation="2"/>
<feColorMatrix type="matrix" values="0 0 0 0 0 0 0 0 0 0 0 0 0 0 0 0 0 0 0.25 0"/>
<feBlend mode="normal" in2="BackgroundImageFix" result="effect1_dropShadow"/>
<feBlend mode="normal" in="SourceGraphic" in2="effect1_dropShadow" result="shape"/>
</filter>
<filter id="filter3_d" x="457.891" y="439.402" width="80.4632" height="23.862" filterUnits="userSpaceOnUse" color-interpolation-filters="sRGB">
<feFlood flood-opacity="0" result="BackgroundImageFix"/>
<feColorMatrix in="SourceAlpha" type="matrix" values="0 0 0 0 0 0 0 0 0 0 0 0 0 0 0 0 0 0 127 0"/>
<feOffset dy="2"/>
<feGaussianBlur stdDeviation="2"/>
<feColorMatrix type="matrix" values="0 0 0 0 0 0 0 0 0 0 0 0 0 0 0 0 0 0 0.25 0"/>
<feBlend mode="normal" in2="BackgroundImageFix" result="effect1_dropShadow"/>
<feBlend mode="normal" in="SourceGraphic" in2="effect1_dropShadow" result="shape"/>
</filter>
<clipPath id="clip0">
<rect width="38.5352" height="38.5352" fill="white" transform="translate(615.73 373.38)"/>
</clipPath>
<clipPath id="clip1">
<rect width="34.4789" height="34.4789" fill="white" transform="translate(307.762 374.408)"/>
</clipPath>
<clipPath id="clip2">
<rect width="31.0986" height="31.0986" fill="white" transform="translate(133.789 375.761)"/>
</clipPath>
</defs>
</svg>
