<svg width="120" height="120" viewBox="0 0 120 120" fill="none" xmlns="http://www.w3.org/2000/svg">
<circle cx="60" cy="60" r="60" fill="#FAFF00"/>
<g clip-path="url(#clip0)">
<g clip-path="url(#clip1)">
<path d="M31.0352 70.3105H35.5623V80.8671H31.0352V70.3105Z" fill="#A35418"/>
<path d="M33.2998 72.876C37.8837 72.876 41.5996 69.16 41.5996 64.5762C41.5996 59.9923 37.8837 56.2764 33.2998 56.2764C28.7159 56.2764 25 59.9923 25 64.5762C25 69.16 28.7159 72.876 33.2998 72.876Z" fill="#64CC56"/>
<path d="M33.2988 56.2764C32.5141 56.2764 31.7548 56.3854 31.0352 56.5888C34.5188 57.5741 37.0713 60.7771 37.0713 64.5762C37.0713 68.3752 34.5188 71.5783 31.0352 72.5635C31.7547 72.767 32.5141 72.876 33.2988 72.876C37.8826 72.876 41.5986 69.16 41.5986 64.5762C41.5986 59.9924 37.8826 56.2764 33.2988 56.2764V56.2764Z" fill="#50A645"/>
<path d="M89.4375 70.3105H93.9646V80.8671H89.4375V70.3105Z" fill="#A35418"/>
<path d="M91.7021 72.876C96.286 72.876 100.002 69.16 100.002 64.5762C100.002 59.9923 96.286 56.2764 91.7021 56.2764C87.1183 56.2764 83.4023 59.9923 83.4023 64.5762C83.4023 69.16 87.1183 72.876 91.7021 72.876Z" fill="#64CC56"/>
<path d="M91.7011 56.2764C90.9164 56.2764 90.1572 56.3854 89.4375 56.5888C92.9212 57.5741 95.4737 60.7771 95.4737 64.5762C95.4737 68.3752 92.9212 71.5783 89.4375 72.5635C90.157 72.767 90.9164 72.876 91.7011 72.876C96.2849 72.876 100.001 69.16 100.001 64.5762C100.001 59.9924 96.2849 56.2764 91.7011 56.2764V56.2764Z" fill="#50A645"/>
<path d="M85.1357 46.0396V79.1099H39.8633V46.041L62.4995 28.6475L85.1357 46.0396Z" fill="#FFD180"/>
<path d="M80.6094 42.5605V79.1093H85.1365V46.039L80.6094 42.5605Z" fill="#FFBA63"/>
<path d="M89.8342 46.0542L63.8787 26.1109C63.0658 25.4865 61.9352 25.4865 61.1224 26.1109L35.1668 46.0542C34.1751 46.8162 33.9881 48.239 34.7492 49.2319C35.5103 50.2247 36.9314 50.4118 37.9231 49.6501L62.5005 30.7656L87.078 49.6501C87.489 49.9658 87.9736 50.1185 88.4545 50.1185C89.134 50.1184 89.8061 49.8133 90.2518 49.2319C91.013 48.239 90.8259 46.8163 89.8342 46.0542Z" fill="#FF7043"/>
<path d="M46.3555 56.7295H59.9369V79.1098H46.3555V56.7295Z" fill="#BF6724"/>
<path d="M55.4062 56.7295H59.9333V79.1098H55.4062V56.7295Z" fill="#A35418"/>
<path d="M59.9346 55.6309H46.3525C45.7461 55.6309 45.2539 56.123 45.2539 56.7295V79.1094H47.4512V57.8281H58.8359V79.1094H61.0332V56.7295C61.0332 56.123 60.541 55.6309 59.9346 55.6309Z" fill="#FDEEDF"/>
<path d="M79.5536 70.3104H64.463C64.1296 70.3104 63.8594 70.0402 63.8594 69.7068V66.3869C63.8594 66.0535 64.1296 65.7832 64.463 65.7832H79.5536C79.887 65.7832 80.1572 66.0535 80.1572 66.3869V69.7068C80.1572 70.0402 79.887 70.3104 79.5536 70.3104V70.3104Z" fill="#FF7043"/>
<path d="M79.5544 65.7832H75.0273C75.3607 65.7832 75.631 66.0535 75.631 66.3869V69.7068C75.631 70.0402 75.3607 70.3104 75.0273 70.3104H79.5544C79.8878 70.3104 80.1581 70.0402 80.1581 69.7068V66.3869C80.1581 66.0535 79.8878 65.7832 79.5544 65.7832V65.7832Z" fill="#FF5722"/>
<path d="M65.3672 56.7295H78.6469V65.7838H65.3672V56.7295Z" fill="#B2EBF2"/>
<path d="M74.1211 56.7295H78.6482V65.7838H74.1211V56.7295Z" fill="#80DEEA"/>
<path d="M62.5004 49.5672C65.4174 49.5672 67.782 47.2025 67.782 44.2855C67.782 41.3686 65.4174 39.0039 62.5004 39.0039C59.5834 39.0039 57.2188 41.3686 57.2188 44.2855C57.2188 47.2025 59.5834 49.5672 62.5004 49.5672Z" fill="#B2EBF2"/>
<path d="M62.4975 37.9053C58.9793 37.9053 56.1172 40.7674 56.1172 44.2855C56.1172 47.8037 58.9793 50.6658 62.4975 50.6658C66.0156 50.6658 68.8777 47.8037 68.8777 44.2855C68.8777 40.7674 66.0156 37.9053 62.4975 37.9053ZM66.5524 43.2566H63.5961V40.2489C65.0444 40.6435 66.1823 41.7985 66.5524 43.2566ZM61.3988 40.2489V43.2565H58.4425C58.8126 41.7985 59.9505 40.6435 61.3988 40.2489ZM58.4806 45.4539H61.3988V48.3222C59.997 47.9403 58.886 46.8459 58.4806 45.4539ZM63.5961 48.3222V45.4539H66.5144C66.1089 46.8459 64.998 47.9403 63.5961 48.3222Z" fill="#FDEEDF"/>
<path d="M78.6439 55.6309H65.3643C64.7575 55.6309 64.2656 56.1228 64.2656 56.7295V65.7838C64.2656 66.3906 64.7575 66.8825 65.3643 66.8825H78.6439C79.2507 66.8825 79.7426 66.3906 79.7426 65.7838V56.7295C79.7426 56.1228 79.2508 55.6309 78.6439 55.6309ZM66.4629 57.8281H70.9055V64.6852H66.4629V57.8281ZM77.5453 64.6852H73.1027V57.8281H77.5453V64.6852Z" fill="#FDEEDF"/>
<path d="M97.584 83.3573H27.416C26.0816 83.3573 25 82.2757 25 80.9414V80.9384C25 79.6041 26.0816 78.5225 27.416 78.5225H97.5842C98.9185 78.5225 100 79.6041 100 80.9384V80.9414C100 82.2757 98.9184 83.3573 97.584 83.3573V83.3573Z" fill="#A35418"/>
<path d="M97.5857 78.5225H93.0586C94.392 78.5225 95.4731 79.6047 95.4731 80.9399C95.4731 82.275 94.392 83.3573 93.0586 83.3573H97.5857C98.9191 83.3573 100 82.2751 100 80.9399C100 79.6047 98.9191 78.5225 97.5857 78.5225V78.5225Z" fill="#8C4815"/>
</g>
</g>
<defs>
<clipPath id="clip0">
<rect width="75" height="75" fill="white" transform="translate(25 23)"/>
</clipPath>
<clipPath id="clip1">
<rect width="75" height="75" fill="white" transform="translate(25 17)"/>
</clipPath>
</defs>
</svg>
