<svg width="48" height="48" viewBox="0 0 48 48" fill="none" xmlns="http://www.w3.org/2000/svg">
<circle cx="24" cy="24" r="24" fill="#E8E9E4"/>
<g clip-path="url(#clip0)">
<path d="M39.5136 27.1551L40.7486 31.7697C40.8449 32.1293 40.6314 32.4989 40.2717 32.5951L35.6575 33.8299C35.4247 33.8922 35.2429 34.074 35.1806 34.3068L33.9457 38.9211C33.8495 39.2807 33.48 39.4941 33.1204 39.398L28.5056 38.163C28.2731 38.1007 28.025 38.1672 27.8548 38.3375L24.4746 41.7176C24.3483 41.844 24.1768 41.9151 23.9981 41.9151C23.8193 41.9151 23.6479 41.844 23.5214 41.7177L20.1413 38.3376C19.9711 38.1673 19.723 38.1009 19.4904 38.163L14.8757 39.398C14.5161 39.4943 14.1465 39.2808 14.0503 38.9212L12.8155 34.3069C12.7532 34.0741 12.5714 33.8923 12.3386 33.83L7.7244 32.5951C7.36479 32.4989 7.15134 32.1294 7.24753 31.7698L8.48253 27.1551C8.54478 26.9225 8.47824 26.6744 8.308 26.5042L4.92789 23.1241C4.80152 22.9977 4.73047 22.8262 4.73047 22.6475C4.73047 22.4687 4.80152 22.2973 4.92789 22.1708L8.308 18.7907C8.47824 18.6205 8.5447 18.3724 8.48253 18.1398L7.24753 13.5251C7.15126 13.1655 7.36479 12.7959 7.7244 12.6998L12.3387 11.4649C12.5715 11.4026 12.7532 11.2208 12.8156 10.988L14.0504 6.37374C14.1467 6.01413 14.5162 5.80068 14.8758 5.89686L19.4905 7.13187C19.7231 7.19412 19.9711 7.12758 20.1414 6.95734L23.5215 3.57723C23.6479 3.45093 23.8193 3.37988 23.9981 3.37988C24.1768 3.37988 24.3483 3.45093 24.4747 3.5773L27.8548 6.95741C28.0251 7.12766 28.2731 7.19412 28.5057 7.13195L33.1204 5.89694C33.48 5.80068 33.8495 6.0142 33.9457 6.37381L35.1806 10.9881C35.2429 11.2209 35.4247 11.4027 35.6575 11.465L40.2717 12.6998C40.6314 12.7961 40.8448 13.1656 40.7486 13.5252L39.5136 18.1399C39.4514 18.3725 39.5179 18.6206 39.6882 18.7908L43.0683 22.1709C43.1946 22.2973 43.2657 22.4687 43.2657 22.6476C43.2657 22.8264 43.1946 22.9978 43.0683 23.1242L39.6882 26.5043C39.5179 26.6744 39.4514 26.9225 39.5136 27.1551Z" fill="#F29C1F"/>
<path d="M23.9986 35.2706C30.9704 35.2706 36.6222 29.6188 36.6222 22.647C36.6222 15.6752 30.9704 10.0234 23.9986 10.0234C17.0268 10.0234 11.375 15.6752 11.375 22.647C11.375 29.6188 17.0268 35.2706 23.9986 35.2706Z" fill="#F0C419"/>
<path d="M14.0531 23.9764C13.7038 23.976 13.4144 23.7055 13.3906 23.3571C13.375 23.1226 13.3672 22.8861 13.3672 22.6476C13.3563 19.3007 14.9337 16.147 17.6184 14.1483C17.9117 13.9275 18.3284 13.9864 18.5491 14.2797C18.7698 14.573 18.711 14.9897 18.4177 15.2104C16.0679 16.9589 14.6869 19.7186 14.696 22.6476C14.696 22.8556 14.7025 23.0622 14.7168 23.2669C14.7288 23.4428 14.6703 23.6162 14.5543 23.749C14.4383 23.8817 14.2743 23.9629 14.0984 23.9748C14.0835 23.9757 14.068 23.9764 14.0531 23.9764Z" fill="#F9EAB0"/>
</g>
<defs>
<clipPath id="clip0">
<rect width="38.5352" height="38.5352" fill="white" transform="translate(4.73047 3.37988)"/>
</clipPath>
</defs>
</svg>
