<svg width="48" height="48" viewBox="0 0 48 48" fill="none" xmlns="http://www.w3.org/2000/svg">
<ellipse cx="23.9981" cy="26.3996" rx="19.2676" ry="18.13" fill="#C4C4C4"/>
<path d="M24 48C37.2548 48 48 37.2548 48 24C48 10.7452 37.2548 0 24 0C10.7452 0 0 10.7452 0 24C0 37.2548 10.7452 48 24 48Z" fill="#FEDB41"/>
<path d="M33.1705 8.11166C30.472 6.55035 27.3392 5.65625 23.9974 5.65625C20.6556 5.65625 17.5227 6.55035 14.8242 8.11166L23.9974 24.0001L33.1705 8.11166Z" fill="#37474F"/>
<path d="M33.1737 8.11166C30.4752 6.55035 27.3424 5.65625 24.0006 5.65625C23.9991 5.65625 23.9976 5.65634 23.9961 5.65634V23.9923L24.0006 24.0001L33.1737 8.11166Z" fill="#1F2D33"/>
<path d="M5.65625 24C5.65625 30.7891 9.34475 36.7164 14.8269 39.8884L24 24H5.65625Z" fill="#37474F"/>
<path d="M33.1732 39.8884C38.6553 36.7164 42.3438 30.7892 42.3438 24H24L33.1732 39.8884Z" fill="#1F2D33"/>
<path d="M24 29.0314C26.7787 29.0314 29.0313 26.7788 29.0313 24.0001C29.0313 21.2213 26.7787 18.9688 24 18.9688C21.2213 18.9688 18.9688 21.2213 18.9688 24.0001C18.9688 26.7788 21.2213 29.0314 24 29.0314Z" fill="#37474F"/>
<path d="M24.0006 18.9688C23.9991 18.9688 23.9976 18.9688 23.9961 18.9688V29.0311C23.9976 29.0311 23.9991 29.0312 24.0006 29.0312C26.7793 29.0312 29.0319 26.7787 29.0319 23.9999C29.0319 21.2212 26.7793 18.9688 24.0006 18.9688Z" fill="#1F2D33"/>
<path d="M24 29.9688C20.7088 29.9688 18.0312 27.2912 18.0312 24C18.0312 20.7088 20.7088 18.0312 24 18.0312C27.2912 18.0312 29.9688 20.7088 29.9688 24C29.9688 27.2912 27.2912 29.9688 24 29.9688ZM24 19.9062C21.7427 19.9062 19.9063 21.7427 19.9063 24C19.9063 26.2573 21.7427 28.0938 24 28.0938C26.2573 28.0938 28.0938 26.2573 28.0938 24C28.0938 21.7427 26.2573 19.9062 24 19.9062Z" fill="#FEEA3B"/>
<path d="M24.0006 18.0312C23.9991 18.0312 23.9976 18.0313 23.9961 18.0313V19.9063C23.9976 19.9063 23.9991 19.9062 24.0006 19.9062C26.2579 19.9062 28.0944 21.7427 28.0944 24C28.0944 26.2573 26.2579 28.0938 24.0006 28.0938C23.9991 28.0938 23.9976 28.0937 23.9961 28.0937V29.9687C23.9976 29.9687 23.9991 29.9688 24.0006 29.9688C27.2918 29.9688 29.9694 27.2912 29.9694 24C29.9694 20.7088 27.2918 18.0312 24.0006 18.0312Z" fill="#FEC007"/>
</svg>
