<svg width="48" height="48" viewBox="0 0 48 48" fill="none" xmlns="http://www.w3.org/2000/svg">
<circle cx="24" cy="24" r="24" fill="#90DFAA"/>
<g clip-path="url(#clip0)">
<path d="M34.5285 19.1224C34.0585 18.688 33.4329 18.4619 32.7937 18.4955C32.1546 18.529 31.5561 18.8194 31.1342 19.3007C30.6839 18.787 30.0339 18.4923 29.3508 18.4923C28.6676 18.4923 28.0176 18.787 27.5674 19.3007C27.1171 18.787 26.4672 18.4923 25.784 18.4923C25.1008 18.4923 24.4509 18.787 24.0006 19.3007C23.5503 18.787 22.9004 18.4923 22.2172 18.4923C21.5341 18.4923 20.8841 18.787 20.4338 19.3007C19.9836 18.787 19.3336 18.4923 18.6504 18.4923C17.9673 18.4923 17.3173 18.787 16.867 19.3007C16.445 18.8196 15.8466 18.5293 15.2075 18.4957C14.5683 18.4621 13.9428 18.6881 13.4727 19.1224V38.704H34.5285V19.1224Z" fill="#3B97D3"/>
<path d="M31.7305 30.971V37.1653L33.282 38.6991H40.6474C40.9757 38.6991 41.2419 38.4329 41.2419 38.1046V19.0818C41.2419 18.7535 40.9757 18.4873 40.6474 18.4873H35.8917C34.9068 18.4873 34.1083 19.2858 34.1083 20.2707V29.1876H33.5139C32.5289 29.1876 31.7305 29.9861 31.7305 30.971Z" fill="#A56A43"/>
<path d="M32.9153 30.971C32.9153 38.1849 32.9337 36.6577 32.8594 38.6991H40.6433C40.9716 38.6991 41.2377 38.4329 41.2377 38.1046V19.0818C41.2377 18.7535 40.9716 18.4873 40.6433 18.4873H37.0765C36.0916 18.4873 35.2931 19.2858 35.2931 20.2707V29.1876C34.9022 29.1476 34.5072 29.1798 34.128 29.2828C33.4036 29.5274 32.9158 30.2065 32.9153 30.971Z" fill="#CB8252"/>
<path d="M16.2731 30.971V37.1653L14.7216 38.6991H7.35618C7.02787 38.6991 6.76172 38.4329 6.76172 38.1046V19.0818C6.76172 18.7535 7.02787 18.4873 7.35618 18.4873H12.1119C13.0968 18.4873 13.8953 19.2858 13.8953 20.2707V29.1876H14.4897C15.4747 29.1876 16.2731 29.9861 16.2731 30.971Z" fill="#A56A43"/>
<path d="M15.0842 30.971C15.0842 38.1849 15.0658 36.6577 15.1401 38.6991H7.35618C7.02787 38.6991 6.76172 38.4329 6.76172 38.1046V19.0818C6.76172 18.7535 7.02787 18.4873 7.35618 18.4873H10.923C11.9079 18.4873 12.7064 19.2858 12.7064 20.2707V29.1876C13.0973 29.1476 13.4922 29.1798 13.8715 29.2828C14.5958 29.5274 15.0836 30.2065 15.0842 30.971Z" fill="#CB8252"/>
<path d="M13.8931 28.001V29.1899H9.13743C8.80912 29.1899 8.54297 28.9238 8.54297 28.5954C8.54297 28.2671 8.80912 28.001 9.13743 28.001H13.8931Z" fill="#805333"/>
<path d="M39.4556 28.5954C39.4556 28.9238 39.1895 29.1899 38.8612 29.1899H34.1055V28.001H38.8612C39.1895 28.001 39.4556 28.2671 39.4556 28.5954Z" fill="#805333"/>
<path d="M16.8679 27.9991C16.5396 27.9991 16.2734 27.7329 16.2734 27.4046V22.0544C16.2734 21.7261 16.5396 21.46 16.8679 21.46C17.1962 21.46 17.4624 21.7261 17.4624 22.0544V27.4046C17.4624 27.7329 17.1962 27.9991 16.8679 27.9991Z" fill="#67B9CC"/>
<path d="M20.4343 25.6212C20.106 25.6212 19.8398 25.3551 19.8398 25.0267V22.0544C19.8398 21.7261 20.106 21.46 20.4343 21.46C20.7626 21.46 21.0288 21.7261 21.0288 22.0544V25.0267C21.0288 25.3551 20.7626 25.6212 20.4343 25.6212Z" fill="#67B9CC"/>
<path d="M24.0007 32.7548C23.6724 32.7548 23.4062 32.4886 23.4062 32.1603V22.0544C23.4062 21.7261 23.6724 21.46 24.0007 21.46C24.329 21.46 24.5952 21.7261 24.5952 22.0544V32.1603C24.5952 32.4886 24.329 32.7548 24.0007 32.7548Z" fill="#67B9CC"/>
<path d="M27.5671 25.6212C27.2388 25.6212 26.9727 25.3551 26.9727 25.0267V22.0544C26.9727 21.7261 27.2388 21.46 27.5671 21.46C27.8954 21.46 28.1616 21.7261 28.1616 22.0544V25.0267C28.1616 25.3551 27.8954 25.6212 27.5671 25.6212Z" fill="#67B9CC"/>
<path d="M20.4343 33.9422C20.106 33.9422 19.8398 33.676 19.8398 33.3477V27.4031C19.8398 27.0747 20.106 26.8086 20.4343 26.8086C20.7626 26.8086 21.0288 27.0747 21.0288 27.4031V33.3477C21.0288 33.676 20.7626 33.9422 20.4343 33.9422Z" fill="#67B9CC"/>
<path d="M27.5671 33.3477C27.2388 33.3477 26.9727 33.0815 26.9727 32.7532V27.4031C26.9727 27.0747 27.2388 26.8086 27.5671 26.8086C27.8954 26.8086 28.1616 27.0747 28.1616 27.4031V32.7532C28.1616 33.0815 27.8954 33.3477 27.5671 33.3477Z" fill="#67B9CC"/>
<path d="M31.1335 27.9991C30.8052 27.9991 30.5391 27.7329 30.5391 27.4046V22.0544C30.5391 21.7261 30.8052 21.46 31.1335 21.46C31.4618 21.46 31.728 21.7261 31.728 22.0544V27.4046C31.728 27.7329 31.4618 27.9991 31.1335 27.9991Z" fill="#67B9CC"/>
<path d="M14.7844 39.8879C14.6976 39.8875 14.6151 39.8496 14.5582 39.7841C14.5012 39.7185 14.4754 39.6315 14.4872 39.5455C14.5983 38.6329 15.1229 37.8222 15.9098 37.3471C16.6967 36.8719 17.6584 36.7851 18.5176 37.1117C18.9814 36.3744 19.746 35.8785 20.6084 35.756C21.4707 35.6335 22.3432 35.8966 22.9939 36.4756C23.4933 35.1244 24.8895 34.3257 26.3073 34.5803C27.7251 34.8349 28.7563 36.0695 28.7543 37.51C29.6093 36.8742 30.7379 36.741 31.7174 37.1602C32.697 37.5795 33.3797 38.4879 33.51 39.5455C33.5218 39.6315 33.496 39.7185 33.439 39.7841C33.3821 39.8496 33.2996 39.8875 33.2128 39.8879H14.7844Z" fill="#ECF0F1"/>
<path d="M9.73666 14.9234C8.84916 14.9234 8.09671 14.2708 7.9712 13.3922C7.84568 12.5136 8.38531 11.6764 9.23731 11.4279C8.97755 10.5628 9.23042 9.62515 9.88996 9.00794C10.5495 8.39072 11.5018 8.2005 12.3478 8.51699C13.1939 8.83348 13.7875 9.602 13.8801 10.5006C14.7434 9.98826 15.8355 10.0734 16.6091 10.7133C17.3827 11.3532 17.671 12.41 17.3296 13.3541C16.9883 14.2982 16.0907 14.9262 15.0868 14.9234H9.73666Z" fill="#ECF0F1"/>
<path d="M21.2883 10.7618C20.5656 10.7557 19.956 10.222 19.8545 9.50653C19.7529 8.79101 20.1898 8.10878 20.8823 7.90181C20.669 7.1986 20.8729 6.43525 21.4086 5.93216C21.9442 5.42907 22.7188 5.27329 23.4073 5.53021C24.0958 5.78712 24.579 6.41227 24.6541 7.14328C25.3591 6.7352 26.244 6.81109 26.8693 7.33327C27.4945 7.85545 27.7268 8.71264 27.4509 9.47909C27.175 10.2455 26.4496 10.7579 25.635 10.7618H21.2883Z" fill="#BDC3C7"/>
<path d="M36.5785 16.1119C37.466 16.1119 38.2185 15.4593 38.344 14.5807C38.4695 13.7021 37.9299 12.8649 37.0779 12.6164C37.3376 11.7513 37.0848 10.8136 36.4252 10.1964C35.7657 9.5792 34.8134 9.38898 33.9673 9.70547C33.1213 10.022 32.5276 10.7905 32.4351 11.689C31.5717 11.1768 30.4797 11.2619 29.7061 11.9018C28.9325 12.5417 28.6442 13.5985 28.9856 14.5426C29.3269 15.4867 30.2244 16.1147 31.2284 16.1119H36.5785Z" fill="#ECF0F1"/>
<path d="M39.4556 22.0544C39.4556 22.3827 39.1895 22.6489 38.8612 22.6489H34.1055V21.46H38.8612C39.1895 21.46 39.4556 21.7261 39.4556 22.0544Z" fill="#805333"/>
<path d="M13.8931 21.46V22.6489H9.13743C8.80912 22.6489 8.54297 22.3827 8.54297 22.0544C8.54297 21.7261 8.80912 21.46 9.13743 21.46H13.8931Z" fill="#805333"/>
</g>
<defs>
<clipPath id="clip0">
<rect width="34.4789" height="34.4789" fill="white" transform="translate(6.76172 5.4082)"/>
</clipPath>
</defs>
</svg>
