<svg width="48" height="48" viewBox="0 0 48 48" fill="none" xmlns="http://www.w3.org/2000/svg">
<circle cx="24" cy="24" r="24" fill="#2C9984"/>
<g clip-path="url(#clip0)">
<path d="M33.4568 11.5861C33.4568 12.4745 32.7366 13.1947 31.8482 13.1947H25.9502V15.8756H22.7331V13.1947H16.8351C15.9467 13.1947 15.2266 12.4745 15.2266 11.5861C15.2266 10.6977 15.9467 9.97756 16.8351 9.97756C17.0221 9.97821 17.2074 10.0127 17.382 10.0794C17.382 10.0473 17.3713 10.0097 17.3713 9.97756C17.3733 9.26886 17.8388 8.64494 18.5176 8.44129C19.1964 8.23765 19.9286 8.50227 20.3203 9.09285C20.7324 8.45728 21.5361 8.20135 22.2398 8.48161C22.4428 7.48202 23.3217 6.76367 24.3417 6.76367C25.3617 6.76367 26.2405 7.48202 26.4435 8.48161C27.1472 8.20135 27.9509 8.45728 28.363 9.09285C28.7548 8.50227 29.4869 8.23765 30.1657 8.44129C30.8445 8.64494 31.3101 9.26886 31.312 9.97756C31.312 10.0097 31.3013 10.0473 31.3013 10.0794C31.476 10.0127 31.6613 9.97821 31.8482 9.97756C32.7366 9.97756 33.4568 10.6977 33.4568 11.5861Z" fill="#D25627"/>
<path d="M22.7317 12.6584V13.1946H21.6593V12.6584C21.6576 12.0669 21.1785 11.5878 20.587 11.586C20.2908 11.586 20.0508 11.346 20.0508 11.0499C20.0508 10.7537 20.2908 10.5137 20.587 10.5137C21.7715 10.5137 22.7317 11.4739 22.7317 12.6584Z" fill="#E57E25"/>
<path d="M28.6301 11.0499C28.6301 11.346 28.3901 11.586 28.0939 11.586C27.5024 11.5878 27.0233 12.0669 27.0216 12.6584V13.1946H25.9492V12.6584C25.9492 11.4739 26.9094 10.5137 28.0939 10.5137C28.3901 10.5137 28.6301 10.7537 28.6301 11.0499Z" fill="#E57E25"/>
<path d="M16.9727 26.9644C16.662 27.9522 16.2562 28.9075 15.7609 29.8169C14.125 32.7659 11.3449 35.5418 9.83772 36.9321C9.67709 37.0825 9.62465 37.3157 9.70545 37.5204C9.78625 37.725 9.98389 37.8596 10.2039 37.8597H38.4865C38.7059 37.8595 38.9031 37.7257 38.9843 37.5218C39.0654 37.3179 39.0142 37.0851 38.8548 36.9342C37.3333 35.5275 35.929 33.9989 34.656 32.3638C34.0307 31.5567 33.4644 30.7056 32.9617 29.8169L24.9189 19.585L16.9727 26.9644Z" fill="#805333"/>
<path d="M34.6578 32.3637C34.1185 32.6789 33.5319 32.9052 32.9206 33.0339C28.0949 34.1062 27.5588 24.455 26.4864 22.8464C25.414 21.2379 22.7331 21.774 22.7331 24.9911C22.7331 28.2082 21.1246 31.4253 18.4437 30.353C17.5482 29.9937 16.8351 28.7444 16.9745 26.9643C17.8749 23.8715 18.3617 20.6731 18.4222 17.4524C18.4415 16.8736 18.9155 16.4139 19.4946 16.4122H21.0978C21.1022 16.3929 21.104 16.3731 21.1031 16.3532C21.1298 15.7841 21.6004 15.3372 22.1701 15.3399H26.5132C27.0829 15.3372 27.5535 15.7841 27.5802 16.3532C27.5793 16.3731 27.5811 16.3929 27.5856 16.4122H29.1941C29.7711 16.412 30.2437 16.8704 30.2611 17.4471C30.3576 20.1601 30.8027 25.9241 32.9635 29.8168C33.4662 30.7054 34.0325 31.5566 34.6578 32.3637Z" fill="#F29C1F"/>
<path d="M21.0936 16.4111V16.4379C21.019 17.9046 20.8452 19.3646 20.5735 20.8078C20.5225 21.0575 20.3029 21.2368 20.048 21.2368C20.0121 21.2356 19.9763 21.232 19.9408 21.2261C19.8014 21.1976 19.679 21.115 19.6006 20.9963C19.5222 20.8777 19.4941 20.7327 19.5226 20.5934C19.7809 19.2118 19.9475 17.8147 20.0212 16.4111H21.0936Z" fill="#E57E25"/>
<path d="M28.7387 21.2261C28.7033 21.232 28.6674 21.2356 28.6315 21.2368C28.3767 21.2368 28.157 21.0575 28.106 20.8078C27.8343 19.3646 27.6605 17.9046 27.5859 16.4379V16.4111H28.6583C28.7316 17.8147 28.8982 19.2119 29.157 20.5934C29.1854 20.7327 29.1574 20.8777 29.0789 20.9963C29.0005 21.115 28.8781 21.1976 28.7387 21.2261Z" fill="#E57E25"/>
<path d="M18.3693 33.843C17.518 35.2722 16.5323 36.617 15.4256 37.859H13.9297L14.3104 37.4783C15.5063 36.2037 16.5582 34.8011 17.447 33.2961C17.543 33.1278 17.7223 33.0243 17.9161 33.0254C18.1098 33.0265 18.2879 33.1321 18.3819 33.3016C18.4758 33.4711 18.471 33.6781 18.3693 33.843Z" fill="#603E26"/>
<path d="M24.8806 29.8165C24.8806 31.8593 23.9637 37.0657 23.8189 37.8592H22.7305L22.7466 37.7627C22.7573 37.7037 23.8082 31.8861 23.8082 29.8165C23.8082 29.5203 24.0483 29.2803 24.3444 29.2803C24.6405 29.2803 24.8806 29.5203 24.8806 29.8165Z" fill="#603E26"/>
<path d="M32.2735 37.8592H30.4612C29.3513 36.8975 28.5369 35.6407 28.1128 34.2347C28.0545 33.9526 28.2294 33.6748 28.5091 33.6056C28.7887 33.5365 29.073 33.7006 29.153 33.9773C29.6763 35.6132 30.7883 36.9966 32.2735 37.8592Z" fill="#603E26"/>
</g>
<defs>
<clipPath id="clip0">
<rect width="31.0986" height="31.0986" fill="white" transform="translate(8.78906 6.76074)"/>
</clipPath>
</defs>
</svg>
