<svg width="120" height="120" viewBox="0 0 120 120" fill="none" xmlns="http://www.w3.org/2000/svg">
<circle cx="60" cy="60" r="60" fill="#FF5C00"/>
<g clip-path="url(#clip0)">
<path d="M71.2793 53.2735H75.8064L75.797 42.2563C75.8273 36.0156 70.7749 30.9139 64.5343 30.8835C64.5343 30.8835 54.567 30.8359 54.561 30.8359L54.5391 35.3613C54.5451 35.3613 64.5123 35.4106 64.5123 35.4106C68.2567 35.4288 71.2881 38.4899 71.2699 42.2343L71.2793 53.2735Z" fill="#ECF6FE"/>
<path d="M41.0112 30.6502H33.0653C32.4403 30.6502 31.9336 30.1435 31.9336 29.5185C31.9336 28.8934 32.4403 28.3867 33.0653 28.3867H41.0111C41.6361 28.3867 42.1428 28.8934 42.1428 29.5185C42.1428 30.1435 41.6363 30.6502 41.0112 30.6502Z" fill="#DBEBFC"/>
<path d="M41.0112 37.9139H33.0653C32.4403 37.9139 31.9336 37.4072 31.9336 36.7821C31.9336 36.1571 32.4403 35.6504 33.0653 35.6504H41.0111C41.6361 35.6504 42.1428 36.1571 42.1428 36.7821C42.143 37.4072 41.6363 37.9139 41.0112 37.9139Z" fill="#DBEBFC"/>
<path d="M41.1582 24.8447H51.5778C54.0049 24.8447 55.9723 26.8122 55.9723 29.2393V36.2897C55.9723 38.7168 54.0049 40.6842 51.5778 40.6842H41.1582C40.5919 40.6842 40.1328 40.2251 40.1328 39.6588V25.8701C40.1328 25.3038 40.5919 24.8447 41.1582 24.8447Z" fill="#528FD8"/>
<path d="M47.6742 24.8438V40.6843H41.1852C40.6018 40.6843 40.1289 40.2113 40.1289 39.628V25.9C40.1289 25.3166 40.6019 24.8438 41.1852 24.8438H47.6742Z" fill="#0573CE"/>
<path d="M22 85.1707V74.6573C22 72.157 24.0269 70.1302 26.5271 70.1302H33.9773L54.0016 54.1076C55.6072 52.8229 57.6021 52.123 59.6585 52.123H81.8815C86.0538 52.123 89.6859 54.9741 90.6767 59.027L93.4536 70.2197V85.171H22L22 85.1707Z" fill="#C6EA7C"/>
<path d="M26.5271 70.1309H31.0542C28.5537 70.1309 26.5271 72.1575 26.5271 74.658V83.7063H22V74.658C22 72.1575 24.0266 70.1309 26.5271 70.1309Z" fill="#B2E254"/>
<path d="M64.1849 52.123C62.1281 52.123 60.1331 52.8232 58.5275 54.1075L38.5038 70.1305H33.9766L54.0002 54.1075C55.6059 52.8232 57.6008 52.123 59.6576 52.123H64.1849Z" fill="#B2E254"/>
<path d="M27.0108 83.7061H22V77.6699H27.0108C27.5771 77.6699 28.0362 78.129 28.0362 78.6953V82.6807C28.0362 83.247 27.5771 83.7061 27.0108 83.7061Z" fill="#FD8087"/>
<path d="M60.2888 75.6961H53.2138C52.5887 75.6961 52.082 75.1894 52.082 74.5644C52.082 73.9393 52.5887 73.4326 53.2138 73.4326H60.2888C60.9139 73.4326 61.4206 73.9393 61.4206 74.5644C61.4206 75.1894 60.9139 75.6961 60.2888 75.6961Z" fill="#B2E254"/>
<path d="M65.6122 85.2161C64.9872 85.2161 64.4805 84.7094 64.4805 84.0843V69.7929C64.4805 69.1678 64.9872 68.6611 65.6122 68.6611C66.2373 68.6611 66.7439 69.1678 66.7439 69.7929V84.0843C66.7439 84.7094 66.2373 85.2161 65.6122 85.2161Z" fill="#B2E254"/>
<path d="M72.1758 70.2195H87.397L85.2696 61.6014C84.7705 59.5798 82.9567 58.1592 80.8743 58.1592H72.1758V70.2195Z" fill="#ECF6FE"/>
<path d="M66.7435 58.1592H59.3938C58.8798 58.1592 58.381 58.3342 57.9796 58.6553L43.5273 70.2195H66.7437V58.1592H66.7435Z" fill="#ECF6FE"/>
<path d="M22 89.4405V83.7061H95.9437C96.5271 83.7061 97 84.1791 97 84.7624V89.4405C97 90.0239 96.527 90.4968 95.9437 90.4968H23.0563C22.473 90.4968 22 90.0239 22 89.4405H22Z" fill="#FEF48B"/>
<path d="M40.2095 96.1553C44.6443 96.1553 48.2394 92.5567 48.2394 88.1177C48.2394 83.6786 44.6443 80.0801 40.2095 80.0801C35.7748 80.0801 32.1797 83.6786 32.1797 88.1177C32.1797 92.5567 35.7748 96.1553 40.2095 96.1553Z" fill="#528FD8"/>
<path d="M80.6744 96.1553C85.1091 96.1553 88.7042 92.5567 88.7042 88.1177C88.7042 83.6786 85.1091 80.0801 80.6744 80.0801C76.2396 80.0801 72.6445 83.6786 72.6445 88.1177C72.6445 92.5567 76.2396 96.1553 80.6744 96.1553Z" fill="#528FD8"/>
<path d="M40.2119 91.0201C41.8131 91.0201 43.1112 89.7208 43.1112 88.118C43.1112 86.5152 41.8131 85.2158 40.2119 85.2158C38.6106 85.2158 37.3125 86.5152 37.3125 88.118C37.3125 89.7208 38.6106 91.0201 40.2119 91.0201Z" fill="#DBEBFC"/>
<path d="M80.6767 91.0201C82.278 91.0201 83.5761 89.7208 83.5761 88.118C83.5761 86.5152 82.278 85.2158 80.6767 85.2158C79.0754 85.2158 77.7773 86.5152 77.7773 88.118C77.7773 89.7208 79.0754 91.0201 80.6767 91.0201Z" fill="#DBEBFC"/>
</g>
<defs>
<clipPath id="clip0">
<rect width="75" height="75" fill="white" transform="translate(22 23)"/>
</clipPath>
</defs>
</svg>
